<svg xmlns="http://www.w3.org/2000/svg" width="14" height="14" viewBox="0 0 14 14">
  <g fill="none" fill-rule="evenodd">
    <path fill="#505050" fill-rule="nonzero" d="M2.55519231 1.06673077C2.55519231 1.65586991 2.07760067 2.13346154 1.48846154 2.13346154.899322402 2.13346154.421730769 1.65586991.421730769 1.06673077.421730769.477591633.899322402 3.94040356e-12 1.48846154 3.94040356e-12L1.48846154 3.94040356e-12C2.07760067 3.94040356e-12 2.55519231.477591633 2.55519231 1.06673077L2.55519231 1.06673077zM3.47307692 7.00294839C3.47307692 7.2769666 3.25094128 7.49910224 2.97692308 7.49910224L.496153846 7.49910224C.222135643 7.49910224-1.25375266e-11 7.2769666-1.25375266e-11 7.00294839L-1.25375266e-11 6.50679455C-1.25375266e-11 6.23277634.222135643 6.0106407.496153846 6.0106407L.992307692 6.0106407.992307692 4.26692308.496153846 4.26692308C.222135643 4.26692308-1.25375266e-11 4.04478743-1.25375266e-11 3.77076923L-1.25375266e-11 3.27461538C-1.25375266e-11 3.00059718.222135643 2.77846154.496153846 2.77846154L1.98461538 2.77846154C2.25863359 2.77846154 2.48076923 3.00059718 2.48076923 3.27461538L2.48076923 6.0106407 2.97692308 6.0106407C3.25094128 6.0106407 3.47307692 6.23277634 3.47307692 6.50679455L3.47307692 7.00294839z" transform="translate(5.52 3.22)"/>
    <path fill="#505050" fill-rule="nonzero" d="M7.02192308,0.07 C3.18248198,0.07 0.07,3.18248198 0.07,7.02192308 C0.07,10.8613642 3.18248198,13.9738462 7.02192308,13.9738462 C10.8613642,13.9738462 13.9738462,10.8613642 13.9738462,7.02192308 C13.9738462,3.18248198 10.8613642,0.07 7.02192308,0.07 Z M7.02192308,1.57 C10.032937,1.57 12.4738462,4.0109091 12.4738462,7.02192308 C12.4738462,10.032937 10.032937,12.4738462 7.02192308,12.4738462 C4.0109091,12.4738462 1.57,10.032937 1.57,7.02192308 C1.57,4.0109091 4.0109091,1.57 7.02192308,1.57 Z"/>
  </g>
</svg>
