<?xml version="1.0" encoding="UTF-8"?>
<svg width="135px" height="40px" viewBox="0 0 135 40" version="1.1" xmlns="http://www.w3.org/2000/svg" xmlns:xlink="http://www.w3.org/1999/xlink">
    <!-- Generator: Sketch 43.2 (39069) - http://www.bohemiancoding.com/sketch -->
    <title>Download_on_the_App_Store_Badge_fr_135x40</title>
    <desc>Created with Sketch.</desc>
    <defs>
        <path d="M130.229,40 L4.76,40 C2.153,40 0,37.872 0,35.267 L0,4.726 C0,2.12 2.153,0 4.76,0 L130.228,0 C132.834,0 135,2.12 135,4.726 L135,35.267 C135,37.872 132.834,40 130.229,40 Z" id="path-1"></path>
        <path d="M134.032,35.268 C134.032,37.384 132.318,39.098 130.198,39.098 L4.729,39.098 C2.61,39.098 0.89,37.384 0.89,35.268 L0.89,4.725 C0.89,2.61 2.61,0.89 4.729,0.89 L130.197,0.89 C132.318,0.89 134.031,2.61 134.031,4.725 L134.032,35.268 Z" id="path-3"></path>
        <path d="M18.159,7.784 C18.13,4.561 20.798,2.993 20.92,2.92 C19.409,0.717 17.067,0.416 16.244,0.392 C14.277,0.185 12.369,1.569 11.367,1.569 C10.345,1.569 8.802,0.412 7.139,0.446 C4.999,0.479 2.997,1.718 1.899,3.642 C-0.367,7.565 1.323,13.33 3.494,16.501 C4.58,18.054 5.849,19.788 7.51,19.727 C9.135,19.66 9.742,18.691 11.703,18.691 C13.646,18.691 14.216,19.727 15.91,19.688 C17.654,19.66 18.752,18.128 19.8,16.561 C21.055,14.781 21.559,13.028 21.579,12.938 C21.539,12.924 18.192,11.647 18.159,7.784 Z" id="path-5"></path>
        <path d="M3.959,4.306 C4.833,3.213 5.431,1.726 5.265,0.217 C4,0.273 2.417,1.091 1.507,2.161 C0.701,3.103 -0.019,4.647 0.167,6.099 C1.588,6.205 3.047,5.382 3.959,4.306 Z" id="path-7"></path>
        <polygon id="path-9" points="2.175 13.504 0.231 13.504 0.231 0.742 2.175 0.742"></polygon>
        <path d="M3.251,0.048 C2.735,1.86 2.123,3.348 1.415,4.512 L0.209,4.638 C0.737,3.198 1.115,1.728 1.343,0.228 L3.251,0.048 Z" id="path-11"></path>
        <path d="M10.773,12.504 L8.703,12.504 L7.569,8.941 L3.627,8.941 L2.547,12.504 L0.531,12.504 L4.437,0.372 L6.849,0.372 L10.773,12.504 Z M7.227,7.445 L6.201,4.277 C6.093,3.954 5.889,3.191 5.589,1.991 L5.553,1.991 C5.433,2.507 5.241,3.269 4.977,4.277 L3.969,7.445 L7.227,7.445 Z" id="path-13"></path>
        <path d="M8.816,5.021 C8.816,6.509 8.414,7.685 7.609,8.549 C6.889,9.318 5.995,9.701 4.927,9.701 C3.775,9.701 2.947,9.287 2.443,8.459 L2.407,8.459 L2.407,13.067 L0.463,13.067 L0.463,3.634 C0.463,2.697 0.439,1.738 0.391,0.754 L2.101,0.754 L2.209,2.141 L2.245,2.141 C2.893,1.096 3.877,0.575 5.197,0.575 C6.229,0.575 7.09,0.983 7.78,1.799 C8.471,2.616 8.816,3.689 8.816,5.021 Z M6.836,5.094 C6.836,4.242 6.644,3.54 6.26,2.989 C5.84,2.413 5.276,2.125 4.568,2.125 C4.088,2.125 3.652,2.284 3.263,2.603 C2.873,2.92 2.618,3.337 2.498,3.853 C2.438,4.093 2.408,4.291 2.408,4.447 L2.408,5.905 C2.408,6.542 2.603,7.079 2.993,7.516 C3.383,7.954 3.89,8.173 4.514,8.173 C5.246,8.173 5.816,7.891 6.224,7.327 C6.632,6.762 6.836,6.019 6.836,5.094 Z" id="path-15"></path>
        <path d="M8.879,5.021 C8.879,6.509 8.477,7.685 7.672,8.549 C6.953,9.318 6.059,9.701 4.99,9.701 C3.838,9.701 3.01,9.287 2.506,8.459 L2.471,8.459 L2.471,13.067 L0.526,13.067 L0.526,3.634 C0.526,2.697 0.503,1.738 0.456,0.754 L2.165,0.754 L2.272,2.141 L2.309,2.141 C2.957,1.096 3.94,0.575 5.26,0.575 C6.293,0.575 7.153,0.983 7.844,1.799 C8.533,2.616 8.879,3.689 8.879,5.021 Z M6.898,5.094 C6.898,4.242 6.707,3.54 6.322,2.989 C5.902,2.413 5.338,2.125 4.631,2.125 C4.151,2.125 3.715,2.284 3.326,2.603 C2.935,2.92 2.68,3.337 2.56,3.853 C2.499,4.093 2.47,4.291 2.47,4.447 L2.47,5.905 C2.47,6.542 2.665,7.079 3.054,7.516 C3.445,7.954 3.952,8.173 4.575,8.173 C5.307,8.173 5.878,7.891 6.286,7.327 C6.693,6.762 6.898,6.019 6.898,5.094 Z" id="path-17"></path>
        <path d="M8.127,9.103 C8.127,10.134 7.768,10.974 7.051,11.623 C6.26,12.331 5.158,12.685 3.746,12.685 C2.439,12.685 1.392,12.433 0.601,11.929 L1.05,10.309 C1.902,10.826 2.839,11.083 3.859,11.083 C4.591,11.083 5.162,10.918 5.57,10.587 C5.978,10.257 6.183,9.815 6.183,9.262 C6.183,8.769 6.015,8.355 5.679,8.018 C5.343,7.682 4.784,7.369 4.005,7.08 C1.88,6.287 0.817,5.127 0.817,3.601 C0.817,2.603 1.19,1.786 1.934,1.149 C2.678,0.512 3.668,0.193 4.905,0.193 C6.009,0.193 6.926,0.385 7.659,0.769 L7.173,2.352 C6.489,1.98 5.714,1.794 4.851,1.794 C4.167,1.794 3.632,1.962 3.249,2.298 C2.925,2.598 2.763,2.964 2.763,3.397 C2.763,3.876 2.949,4.272 3.322,4.585 C3.644,4.873 4.232,5.185 5.086,5.521 C6.129,5.941 6.897,6.433 7.389,6.998 C7.881,7.563 8.127,8.262 8.127,9.103 Z" id="path-19"></path>
        <path d="M5.553,4.214 L3.412,4.214 L3.412,8.462 C3.412,9.542 3.789,10.082 4.545,10.082 C4.893,10.082 5.182,10.052 5.41,9.992 L5.463,11.468 C5.08,11.613 4.576,11.684 3.951,11.684 C3.183,11.684 2.584,11.451 2.152,10.982 C1.718,10.514 1.504,9.729 1.504,8.625 L1.504,4.215 L0.225,4.215 L0.225,2.757 L1.504,2.757 L1.504,1.155 L3.412,0.579 L3.412,2.757 L5.553,2.757 L5.553,4.214 Z" id="path-21"></path>
        <path d="M9.219,5.059 C9.219,6.402 8.834,7.506 8.067,8.371 C7.262,9.259 6.196,9.703 4.864,9.703 C3.579,9.703 2.555,9.277 1.794,8.425 C1.032,7.573 0.651,6.499 0.651,5.203 C0.651,3.847 1.044,2.737 1.831,1.873 C2.616,1.009 3.675,0.577 5.007,0.577 C6.292,0.577 7.323,1.003 8.103,1.854 C8.846,2.682 9.219,3.75 9.219,5.059 Z M7.203,5.121 C7.203,4.314 7.029,3.623 6.68,3.045 C6.272,2.348 5.692,1.998 4.934,1.998 C4.155,1.998 3.561,2.348 3.153,3.045 C2.805,3.623 2.632,4.326 2.632,5.156 C2.632,5.964 2.806,6.655 3.153,7.232 C3.573,7.93 4.161,8.28 4.917,8.28 C5.661,8.28 6.243,7.925 6.663,7.215 C7.021,6.625 7.203,5.927 7.203,5.121 Z" id="path-23"></path>
        <path d="M5.535,2.466 C5.344,2.43 5.14,2.412 4.924,2.412 C4.24,2.412 3.711,2.67 3.34,3.185 C3.016,3.642 2.854,4.218 2.854,4.914 L2.854,9.504 L0.911,9.504 L0.929,3.51 C0.929,2.502 0.906,1.584 0.857,0.756 L2.55,0.756 L2.62,2.43 L2.675,2.43 C2.88,1.854 3.202,1.393 3.648,1.044 C4.08,0.732 4.548,0.576 5.052,0.576 C5.232,0.576 5.394,0.588 5.536,0.611 L5.536,2.466 L5.535,2.466 Z" id="path-25"></path>
        <path d="M8.23,4.716 C8.23,5.065 8.205,5.358 8.158,5.598 L2.326,5.598 C2.349,6.462 2.633,7.122 3.172,7.578 C3.664,7.986 4.301,8.189 5.08,8.189 C5.943,8.189 6.73,8.051 7.437,7.776 L7.744,9.126 C6.916,9.486 5.937,9.666 4.81,9.666 C3.453,9.666 2.388,9.268 1.615,8.469 C0.842,7.671 0.455,6.6 0.455,5.256 C0.455,3.936 0.814,2.838 1.533,1.962 C2.291,1.025 3.31,0.559 4.594,0.559 C5.854,0.559 6.809,1.026 7.457,1.962 C7.973,2.706 8.23,3.624 8.23,4.716 Z M6.377,4.212 C6.389,3.636 6.262,3.139 5.998,2.718 C5.662,2.178 5.146,1.908 4.449,1.908 C3.814,1.908 3.299,2.172 2.902,2.699 C2.578,3.12 2.386,3.624 2.326,4.212 L6.377,4.212 Z" id="path-27"></path>
        <polygon id="path-29" points="4.84 1.778 2.968 1.778 2.968 7.433 1.92 7.433 1.92 1.778 0.058 1.778 0.058 0.896 4.84 0.896"></polygon>
        <path d="M4.981,4.853 C4.981,5.041 4.967,5.199 4.942,5.328 L1.799,5.328 C1.812,5.794 1.963,6.149 2.254,6.395 C2.52,6.615 2.862,6.725 3.282,6.725 C3.748,6.725 4.172,6.651 4.553,6.502 L4.717,7.23 C4.271,7.424 3.744,7.521 3.136,7.521 C2.406,7.521 1.831,7.306 1.414,6.876 C0.997,6.446 0.789,5.869 0.789,5.145 C0.789,4.434 0.982,3.842 1.371,3.37 C1.778,2.866 2.327,2.614 3.019,2.614 C3.698,2.614 4.212,2.866 4.561,3.37 C4.841,3.77 4.981,4.265 4.981,4.853 Z M3.981,4.582 C3.988,4.271 3.919,4.003 3.778,3.777 C3.596,3.486 3.319,3.34 2.944,3.34 C2.601,3.34 2.323,3.482 2.109,3.767 C1.935,3.994 1.832,4.265 1.799,4.582 L3.981,4.582 Z M4.409,0.74 L3.235,2.146 L2.507,2.146 L3.351,0.74 L4.409,0.74 Z" id="path-31"></path>
        <polygon id="path-33" points="1.55 7.433 0.502 7.433 0.502 0.556 1.55 0.556"></polygon>
        <path d="M4.293,4.853 C4.293,5.041 4.279,5.199 4.254,5.328 L1.111,5.328 C1.124,5.794 1.275,6.149 1.566,6.395 C1.832,6.615 2.174,6.725 2.594,6.725 C3.06,6.725 3.484,6.651 3.865,6.502 L4.029,7.23 C3.583,7.424 3.056,7.521 2.448,7.521 C1.718,7.521 1.143,7.306 0.726,6.876 C0.309,6.446 0.101,5.869 0.101,5.145 C0.101,4.434 0.294,3.842 0.683,3.37 C1.09,2.866 1.639,2.614 2.331,2.614 C3.01,2.614 3.524,2.866 3.873,3.37 C4.154,3.77 4.293,4.265 4.293,4.853 Z M3.293,4.582 C3.3,4.271 3.231,4.003 3.09,3.777 C2.908,3.486 2.631,3.34 2.256,3.34 C1.913,3.34 1.635,3.482 1.421,3.767 C1.247,3.994 1.144,4.265 1.111,4.582 L3.293,4.582 Z M3.721,0.74 L2.547,2.146 L1.82,2.146 L2.664,0.74 L3.721,0.74 Z" id="path-35"></path>
        <path d="M4.181,0.845 L3.978,1.64 C3.712,1.511 3.409,1.446 3.066,1.446 C2.607,1.446 2.243,1.6 1.974,1.907 C1.706,2.214 1.572,2.604 1.572,3.076 C1.572,3.574 1.713,3.968 1.994,4.259 C2.275,4.55 2.633,4.696 3.066,4.696 C3.389,4.696 3.706,4.632 4.016,4.502 L4.162,5.288 C3.819,5.45 3.387,5.531 2.862,5.531 C2.144,5.531 1.572,5.313 1.145,4.876 C0.718,4.439 0.505,3.856 0.505,3.125 C0.505,2.395 0.734,1.794 1.193,1.326 C1.652,0.858 2.269,0.623 3.046,0.623 C3.486,0.622 3.865,0.696 4.181,0.845 Z" id="path-37"></path>
        <path d="M4.709,7.433 L3.662,7.433 L3.662,4.753 C3.662,3.908 3.346,3.485 2.711,3.485 C2.227,3.485 1.893,3.73 1.712,4.22 C1.68,4.323 1.663,4.449 1.663,4.597 L1.663,7.432 L0.615,7.432 L0.615,0.556 L1.663,0.556 L1.663,3.397 L1.683,3.397 C2.014,2.88 2.484,2.622 3.1,2.622 C3.534,2.622 3.891,2.764 4.176,3.049 C4.531,3.404 4.709,3.932 4.709,4.63 L4.709,7.433 Z" id="path-39"></path>
        <path d="M4.084,5.433 L3.143,5.433 L3.065,4.89 L3.036,4.89 C2.714,5.323 2.255,5.54 1.659,5.54 C1.214,5.54 0.854,5.397 0.583,5.113 C0.337,4.855 0.214,4.534 0.214,4.153 C0.214,3.577 0.454,3.138 0.937,2.834 C1.419,2.53 2.097,2.381 2.97,2.388 L2.97,2.3 C2.97,1.679 2.644,1.369 1.991,1.369 C1.526,1.369 1.116,1.486 0.762,1.718 L0.549,1.03 C0.987,0.759 1.528,0.623 2.166,0.623 C3.398,0.623 4.016,1.273 4.016,2.573 L4.016,4.309 C4.016,4.78 4.039,5.155 4.084,5.433 Z M2.996,3.813 L2.996,3.086 C1.84,3.066 1.262,3.383 1.262,4.036 C1.262,4.282 1.328,4.466 1.463,4.589 C1.598,4.712 1.77,4.773 1.975,4.773 C2.205,4.773 2.42,4.7 2.616,4.555 C2.813,4.409 2.934,4.224 2.979,3.997 C2.99,3.946 2.996,3.884 2.996,3.813 Z" id="path-41"></path>
        <path d="M3.342,1.641 C3.238,1.621 3.129,1.612 3.012,1.612 C2.645,1.612 2.36,1.751 2.158,2.029 C1.984,2.275 1.896,2.585 1.896,2.96 L1.896,5.434 L0.85,5.434 L0.86,2.204 C0.86,1.661 0.846,1.166 0.821,0.72 L1.733,0.72 L1.772,1.622 L1.801,1.622 C1.91,1.311 2.084,1.062 2.324,0.875 C2.556,0.707 2.808,0.623 3.08,0.623 C3.178,0.623 3.266,0.629 3.342,0.642 L3.342,1.641 Z" id="path-43"></path>
        <path d="M4.812,0.719 C4.787,1.101 4.773,1.547 4.773,2.058 L4.773,4.754 C4.773,5.769 4.546,6.481 4.095,6.888 C3.681,7.263 3.099,7.45 2.349,7.45 C1.695,7.45 1.167,7.327 0.767,7.081 L1.009,6.276 C1.404,6.515 1.851,6.635 2.349,6.635 C3.273,6.635 3.736,6.137 3.736,5.141 L3.736,4.685 L3.716,4.685 C3.425,5.164 2.962,5.403 2.329,5.403 C1.759,5.403 1.29,5.187 0.923,4.753 C0.554,4.32 0.37,3.77 0.37,3.104 C0.37,2.348 0.583,1.736 1.009,1.271 C1.404,0.838 1.886,0.621 2.454,0.621 C3.095,0.621 3.554,0.87 3.833,1.368 L3.851,1.368 L3.89,0.718 L4.812,0.718 L4.812,0.719 Z M3.727,3.416 L3.727,2.582 C3.727,2.265 3.627,1.994 3.43,1.767 C3.231,1.54 2.971,1.428 2.645,1.428 C2.288,1.428 1.995,1.576 1.764,1.874 C1.534,2.172 1.418,2.569 1.418,3.067 C1.418,3.52 1.525,3.885 1.74,4.163 C1.959,4.467 2.261,4.619 2.644,4.619 C2.878,4.619 3.087,4.55 3.273,4.411 C3.459,4.272 3.589,4.083 3.668,3.844 C3.707,3.726 3.727,3.583 3.727,3.416 Z" id="path-45"></path>
        <path d="M4.516,2.853 C4.516,3.041 4.502,3.199 4.477,3.328 L1.334,3.328 C1.348,3.794 1.498,4.149 1.789,4.395 C2.055,4.615 2.398,4.725 2.818,4.725 C3.283,4.725 3.707,4.651 4.089,4.502 L4.253,5.23 C3.806,5.424 3.28,5.521 2.671,5.521 C1.941,5.521 1.366,5.306 0.95,4.876 C0.532,4.446 0.325,3.869 0.325,3.145 C0.325,2.434 0.518,1.842 0.907,1.37 C1.313,0.866 1.862,0.614 2.555,0.614 C3.233,0.614 3.748,0.866 4.096,1.37 C4.377,1.77 4.516,2.265 4.516,2.853 Z M3.516,2.582 C3.524,2.271 3.455,2.003 3.313,1.777 C3.131,1.486 2.854,1.34 2.479,1.34 C2.137,1.34 1.858,1.482 1.645,1.767 C1.471,1.994 1.368,2.265 1.334,2.582 L3.516,2.582 Z" id="path-47"></path>
        <path d="M2.531,1.641 C2.427,1.621 2.318,1.612 2.201,1.612 C1.832,1.612 1.549,1.751 1.347,2.029 C1.173,2.275 1.085,2.585 1.085,2.96 L1.085,5.434 L0.036,5.434 L0.046,2.204 C0.046,1.661 0.034,1.166 0.009,0.72 L0.919,0.72 L0.958,1.622 L0.987,1.622 C1.096,1.311 1.272,1.062 1.51,0.875 C1.744,0.707 1.996,0.623 2.268,0.623 C2.364,0.623 2.452,0.629 2.53,0.642 L2.53,1.641 L2.531,1.641 Z" id="path-49"></path>
        <path d="M4.893,7.433 L3.961,7.433 L3.912,6.676 L3.883,6.676 C3.586,7.252 3.082,7.54 2.371,7.54 C1.801,7.54 1.33,7.317 0.955,6.871 C0.58,6.425 0.393,5.846 0.393,5.135 C0.393,4.372 0.596,3.754 1.002,3.282 C1.397,2.842 1.883,2.622 2.457,2.622 C3.092,2.622 3.535,2.835 3.787,3.262 L3.807,3.262 L3.807,0.556 L4.854,0.556 L4.854,6.163 C4.854,6.622 4.867,7.045 4.893,7.433 Z M3.807,5.445 L3.807,4.659 C3.807,4.523 3.797,4.413 3.778,4.329 C3.719,4.077 3.592,3.865 3.397,3.694 C3.202,3.523 2.969,3.437 2.696,3.437 C2.307,3.437 2.001,3.592 1.776,3.903 C1.551,4.214 1.44,4.611 1.44,5.096 C1.44,5.562 1.547,5.94 1.762,6.231 C1.989,6.541 2.293,6.696 2.676,6.696 C3.02,6.696 3.297,6.567 3.504,6.308 C3.705,6.069 3.807,5.781 3.807,5.445 Z" id="path-51"></path>
        <path d="M4.246,5.433 L3.305,5.433 L3.229,4.89 L3.2,4.89 C2.876,5.323 2.417,5.54 1.823,5.54 C1.376,5.54 1.016,5.397 0.745,5.113 C0.499,4.855 0.378,4.534 0.378,4.153 C0.378,3.577 0.618,3.138 1.101,2.834 C1.581,2.53 2.259,2.381 3.132,2.388 L3.132,2.3 C3.132,1.679 2.806,1.369 2.155,1.369 C1.69,1.369 1.28,1.486 0.925,1.718 L0.712,1.03 C1.151,0.759 1.691,0.623 2.329,0.623 C3.563,0.623 4.179,1.273 4.179,2.573 L4.179,4.309 C4.178,4.78 4.201,5.155 4.246,5.433 Z M3.16,3.813 L3.16,3.086 C2.002,3.066 1.424,3.383 1.424,4.036 C1.424,4.282 1.492,4.466 1.627,4.589 C1.762,4.712 1.932,4.773 2.137,4.773 C2.369,4.773 2.582,4.7 2.78,4.555 C2.975,4.409 3.096,4.224 3.141,3.997 C3.154,3.946 3.16,3.884 3.16,3.813 Z" id="path-53"></path>
        <path d="M5.105,5.433 L4.056,5.433 L4.056,2.733 C4.056,1.901 3.74,1.485 3.107,1.485 C2.796,1.485 2.545,1.599 2.349,1.828 C2.156,2.057 2.058,2.327 2.058,2.636 L2.058,5.432 L1.011,5.432 L1.011,2.066 C1.011,1.652 0.997,1.203 0.972,0.717 L1.894,0.717 L1.943,1.454 L1.972,1.454 C2.093,1.225 2.275,1.036 2.515,0.885 C2.798,0.709 3.117,0.62 3.464,0.62 C3.905,0.62 4.271,0.762 4.562,1.047 C4.923,1.396 5.105,1.917 5.105,2.609 L5.105,5.433 Z" id="path-55"></path>
        <path d="M3.83,4.079 C3.83,4.517 3.668,4.869 3.346,5.134 C3.022,5.399 2.576,5.531 2.006,5.531 C1.469,5.531 1.014,5.424 0.639,5.211 L0.862,4.435 C1.225,4.655 1.61,4.765 2.016,4.765 C2.553,4.765 2.821,4.568 2.821,4.173 C2.821,3.999 2.764,3.855 2.647,3.741 C2.53,3.628 2.323,3.516 2.026,3.407 C1.186,3.096 0.766,2.644 0.766,2.049 C0.766,1.642 0.92,1.302 1.231,1.03 C1.542,0.758 1.952,0.623 2.463,0.623 C2.928,0.623 3.326,0.718 3.656,0.908 L3.431,1.661 C3.128,1.48 2.808,1.39 2.472,1.39 C2.251,1.39 2.079,1.442 1.956,1.545 C1.835,1.649 1.772,1.78 1.772,1.942 C1.772,2.103 1.836,2.235 1.965,2.338 C2.076,2.435 2.289,2.541 2.606,2.657 C3.422,2.966 3.83,3.44 3.83,4.079 Z" id="path-57"></path>
    </defs>
    <g id="Page-1" stroke="none" stroke-width="1" fill="none" fill-rule="evenodd">
        <g id="Download_on_the_App_Store_Badge_fr_135x40">
            <g id="Group-3">
                <mask id="mask-2" fill="white">
                    <use xlink:href="#path-1"></use>
                </mask>
                <g id="Clip-2"></g>
                <polygon id="Fill-1" fill="#A6A6A6" mask="url(#mask-2)" points="-5 45 140 45 140 -5 -5 -5"></polygon>
            </g>
            <g id="Group-6">
                <mask id="mask-4" fill="white">
                    <use xlink:href="#path-3"></use>
                </mask>
                <g id="Clip-5"></g>
                <polygon id="Fill-4" fill="#000000" mask="url(#mask-4)" points="-4.11 44.098 139.032 44.098 139.032 -4.11 -4.11 -4.11"></polygon>
            </g>
            <g id="Group-9" transform="translate(12.000000, 12.000000)">
                <mask id="mask-6" fill="white">
                    <use xlink:href="#path-5"></use>
                </mask>
                <g id="Clip-8"></g>
                <polygon id="Fill-7" fill="#FFFFFF" mask="url(#mask-6)" points="-4.177096 24.728565 26.579004 24.728565 26.579004 -4.629105 -4.177096 -4.629105"></polygon>
            </g>
            <g id="Group-12" transform="translate(23.000000, 6.000000)">
                <mask id="mask-8" fill="white">
                    <use xlink:href="#path-7"></use>
                </mask>
                <g id="Clip-11"></g>
                <polygon id="Fill-10" fill="#FFFFFF" mask="url(#mask-8)" points="-4.86259 11.1082 10.29272 11.1082 10.29272 -4.783 -4.86259 -4.783"></polygon>
            </g>
            <g id="Group-15" transform="translate(43.000000, 18.000000)">
                <mask id="mask-10" fill="white">
                    <use xlink:href="#path-9"></use>
                </mask>
                <g id="Clip-14"></g>
                <polygon id="Fill-13" fill="#FFFFFF" mask="url(#mask-10)" points="-4.769 18.504 7.175 18.504 7.175 -4.258 -4.769 -4.258"></polygon>
            </g>
            <g id="Group-18" transform="translate(47.000000, 19.000000)">
                <mask id="mask-12" fill="white">
                    <use xlink:href="#path-11"></use>
                </mask>
                <g id="Clip-17"></g>
                <polygon id="Fill-16" fill="#FFFFFF" mask="url(#mask-12)" points="-4.791 9.638 8.251 9.638 8.251 -4.952 -4.791 -4.952"></polygon>
            </g>
            <g id="Group-21" transform="translate(49.000000, 19.000000)">
                <mask id="mask-14" fill="white">
                    <use xlink:href="#path-13"></use>
                </mask>
                <g id="Clip-20"></g>
                <polygon id="Fill-19" fill="#FFFFFF" mask="url(#mask-14)" points="-4.469 17.504 15.773 17.504 15.773 -4.628 -4.469 -4.628"></polygon>
            </g>
            <g id="Group-24" transform="translate(61.000000, 22.000000)">
                <mask id="mask-16" fill="white">
                    <use xlink:href="#path-15"></use>
                </mask>
                <g id="Clip-23"></g>
                <polygon id="Fill-22" fill="#FFFFFF" mask="url(#mask-16)" points="-4.609 18.067 13.816 18.067 13.816 -4.425 -4.609 -4.425"></polygon>
            </g>
            <g id="Group-27" transform="translate(71.000000, 22.000000)">
                <mask id="mask-18" fill="white">
                    <use xlink:href="#path-17"></use>
                </mask>
                <g id="Clip-26"></g>
                <polygon id="Fill-25" fill="#FFFFFF" mask="url(#mask-18)" points="-4.544 18.067 13.879 18.067 13.879 -4.425 -4.544 -4.425"></polygon>
            </g>
            <g id="Group-30" transform="translate(83.000000, 19.000000)">
                <mask id="mask-20" fill="white">
                    <use xlink:href="#path-19"></use>
                </mask>
                <g id="Clip-29"></g>
                <polygon id="Fill-28" fill="#FFFFFF" mask="url(#mask-20)" points="-4.399 17.685 13.127 17.685 13.127 -4.807 -4.399 -4.807"></polygon>
            </g>
            <g id="Group-33" transform="translate(92.000000, 20.000000)">
                <mask id="mask-22" fill="white">
                    <use xlink:href="#path-21"></use>
                </mask>
                <g id="Clip-32"></g>
                <polygon id="Fill-31" fill="#FFFFFF" mask="url(#mask-22)" points="-4.775 16.684 10.553 16.684 10.553 -4.421 -4.775 -4.421"></polygon>
            </g>
            <g id="Group-36" transform="translate(98.000000, 22.000000)">
                <mask id="mask-24" fill="white">
                    <use xlink:href="#path-23"></use>
                </mask>
                <g id="Clip-35"></g>
                <polygon id="Fill-34" fill="#FFFFFF" mask="url(#mask-24)" points="-4.349 14.703 14.219 14.703 14.219 -4.423 -4.349 -4.423"></polygon>
            </g>
            <g id="Group-39" transform="translate(108.000000, 22.000000)">
                <mask id="mask-26" fill="white">
                    <use xlink:href="#path-25"></use>
                </mask>
                <g id="Clip-38"></g>
                <polygon id="Fill-37" fill="#FFFFFF" mask="url(#mask-26)" points="-4.143 14.504 10.536 14.504 10.536 -4.424 -4.143 -4.424"></polygon>
            </g>
            <g id="Group-42" transform="translate(114.000000, 22.000000)">
                <mask id="mask-28" fill="white">
                    <use xlink:href="#path-27"></use>
                </mask>
                <g id="Clip-41"></g>
                <polygon id="Fill-40" fill="#FFFFFF" mask="url(#mask-28)" points="-4.545 14.666 13.23 14.666 13.23 -4.441 -4.545 -4.441"></polygon>
            </g>
            <g id="Group-45" transform="translate(43.000000, 6.000000)">
                <mask id="mask-30" fill="white">
                    <use xlink:href="#path-29"></use>
                </mask>
                <g id="Clip-44"></g>
                <polygon id="Fill-43" fill="#FFFFFF" mask="url(#mask-30)" points="-4.942 12.433 9.84 12.433 9.84 -4.104 -4.942 -4.104"></polygon>
            </g>
            <g id="Group-48" transform="translate(48.000000, 6.000000)">
                <mask id="mask-32" fill="white">
                    <use xlink:href="#path-31"></use>
                </mask>
                <g id="Clip-47"></g>
                <polygon id="Fill-46" fill="#FFFFFF" mask="url(#mask-32)" points="-4.211 12.521 9.981 12.521 9.981 -4.26 -4.211 -4.26"></polygon>
            </g>
            <g id="Group-51" transform="translate(54.000000, 6.000000)">
                <mask id="mask-34" fill="white">
                    <use xlink:href="#path-33"></use>
                </mask>
                <g id="Clip-50"></g>
                <polygon id="Fill-49" fill="#FFFFFF" mask="url(#mask-34)" points="-4.498 12.433 6.55 12.433 6.55 -4.444 -4.498 -4.444"></polygon>
            </g>
            <g id="Group-54" transform="translate(57.000000, 6.000000)">
                <mask id="mask-36" fill="white">
                    <use xlink:href="#path-35"></use>
                </mask>
                <g id="Clip-53"></g>
                <polygon id="Fill-52" fill="#FFFFFF" mask="url(#mask-36)" points="-4.899 12.521 9.293 12.521 9.293 -4.26 -4.899 -4.26"></polygon>
            </g>
            <g id="Group-57" transform="translate(62.000000, 8.000000)">
                <mask id="mask-38" fill="white">
                    <use xlink:href="#path-37"></use>
                </mask>
                <g id="Clip-56"></g>
                <polygon id="Fill-55" fill="#FFFFFF" mask="url(#mask-38)" points="-4.495 10.531 9.181 10.531 9.181 -4.37701 -4.495 -4.37701"></polygon>
            </g>
            <g id="Group-60" transform="translate(67.000000, 6.000000)">
                <mask id="mask-40" fill="white">
                    <use xlink:href="#path-39"></use>
                </mask>
                <g id="Clip-59"></g>
                <polygon id="Fill-58" fill="#FFFFFF" mask="url(#mask-40)" points="-4.385 12.433 9.709 12.433 9.709 -4.444 -4.385 -4.444"></polygon>
            </g>
            <g id="Group-63" transform="translate(73.000000, 8.000000)">
                <mask id="mask-42" fill="white">
                    <use xlink:href="#path-41"></use>
                </mask>
                <g id="Clip-62"></g>
                <polygon id="Fill-61" fill="#FFFFFF" mask="url(#mask-42)" points="-4.786 10.54 9.084 10.54 9.084 -4.377 -4.786 -4.377"></polygon>
            </g>
            <g id="Group-66" transform="translate(78.000000, 8.000000)">
                <mask id="mask-44" fill="white">
                    <use xlink:href="#path-43"></use>
                </mask>
                <g id="Clip-65"></g>
                <polygon id="Fill-64" fill="#FFFFFF" mask="url(#mask-44)" points="-4.179 10.434 8.342 10.434 8.342 -4.377 -4.179 -4.377"></polygon>
            </g>
            <g id="Group-69" transform="translate(82.000000, 8.000000)">
                <mask id="mask-46" fill="white">
                    <use xlink:href="#path-45"></use>
                </mask>
                <g id="Clip-68"></g>
                <polygon id="Fill-67" fill="#FFFFFF" mask="url(#mask-46)" points="-4.63 12.45 9.812 12.45 9.812 -4.379 -4.63 -4.379"></polygon>
            </g>
            <g id="Group-72" transform="translate(88.000000, 8.000000)">
                <mask id="mask-48" fill="white">
                    <use xlink:href="#path-47"></use>
                </mask>
                <g id="Clip-71"></g>
                <polygon id="Fill-70" fill="#FFFFFF" mask="url(#mask-48)" points="-4.675 10.521 9.516 10.521 9.516 -4.386 -4.675 -4.386"></polygon>
            </g>
            <g id="Group-75" transform="translate(94.000000, 8.000000)">
                <mask id="mask-50" fill="white">
                    <use xlink:href="#path-49"></use>
                </mask>
                <g id="Clip-74"></g>
                <polygon id="Fill-73" fill="#FFFFFF" mask="url(#mask-50)" points="-4.991 10.434 7.531 10.434 7.531 -4.377 -4.991 -4.377"></polygon>
            </g>
            <g id="Group-78" transform="translate(100.000000, 6.000000)">
                <mask id="mask-52" fill="white">
                    <use xlink:href="#path-51"></use>
                </mask>
                <g id="Clip-77"></g>
                <polygon id="Fill-76" fill="#FFFFFF" mask="url(#mask-52)" points="-4.607 12.54 9.893 12.54 9.893 -4.444 -4.607 -4.444"></polygon>
            </g>
            <g id="Group-81" transform="translate(106.000000, 8.000000)">
                <mask id="mask-54" fill="white">
                    <use xlink:href="#path-53"></use>
                </mask>
                <g id="Clip-80"></g>
                <polygon id="Fill-79" fill="#FFFFFF" mask="url(#mask-54)" points="-4.622 10.54 9.246 10.54 9.246 -4.377 -4.622 -4.377"></polygon>
            </g>
            <g id="Group-84" transform="translate(111.000000, 8.000000)">
                <mask id="mask-56" fill="white">
                    <use xlink:href="#path-55"></use>
                </mask>
                <g id="Clip-83"></g>
                <polygon id="Fill-82" fill="#FFFFFF" mask="url(#mask-56)" points="-4.028 10.433 10.105 10.433 10.105 -4.38 -4.028 -4.38"></polygon>
            </g>
            <g id="Group-87" transform="translate(117.000000, 8.000000)">
                <mask id="mask-58" fill="white">
                    <use xlink:href="#path-57"></use>
                </mask>
                <g id="Clip-86"></g>
                <polygon id="Fill-85" fill="#FFFFFF" mask="url(#mask-58)" points="-4.361 10.531 8.83 10.531 8.83 -4.377 -4.361 -4.377"></polygon>
            </g>
        </g>
    </g>
</svg>