<?xml version="1.0" encoding="utf-8"?>
<!-- Generator: Adobe Illustrator 22.0.1, SVG Export Plug-In . SVG Version: 6.00 Build 0)  -->
<svg version="1.1" id="Layer_1" xmlns="http://www.w3.org/2000/svg" xmlns:xlink="http://www.w3.org/1999/xlink" x="0px" y="0px"
	 viewBox="0 0 18 18" style="enable-background:new 0 0 18 18;" xml:space="preserve">
<style type="text/css">
	.st0{fill:#707070;}
</style>
<g>
	<g id="s_list_view_18">
		<g id="Group_59880" transform="translate(6068 1148.032)">
			<path id="Rectangle_91" class="st0" d="M-6066.5-1147h3c0.3,0,0.5,0.2,0.5,0.5v3c0,0.3-0.2,0.5-0.5,0.5h-3
				c-0.3,0-0.5-0.2-0.5-0.5v-3C-6067-1146.8-6066.8-1147-6066.5-1147z"/>
			<path id="Rectangle_92" class="st0" d="M-6061.8-1146h10.5c0.1,0,0.2,0.1,0.2,0.2v1.5c0,0.1-0.1,0.2-0.2,0.2h-10.5
				c-0.1,0-0.2-0.1-0.2-0.2v-1.5C-6062-1145.9-6061.9-1146-6061.8-1146z"/>
			<path id="Rectangle_93" class="st0" d="M-6061.8-1140h10.5c0.1,0,0.2,0.1,0.2,0.2v1.5c0,0.1-0.1,0.2-0.2,0.2h-10.5
				c-0.1,0-0.2-0.1-0.2-0.2v-1.5C-6062-1139.9-6061.9-1140-6061.8-1140z"/>
			<path id="Rectangle_94" class="st0" d="M-6061.8-1134h10.5c0.1,0,0.2,0.1,0.2,0.2v1.5c0,0.1-0.1,0.2-0.2,0.2h-10.5
				c-0.1,0-0.2-0.1-0.2-0.2v-1.5C-6062-1133.9-6061.9-1134-6061.8-1134z"/>
			<path id="Rectangle_95" class="st0" d="M-6066.5-1141h3c0.3,0,0.5,0.2,0.5,0.5v3c0,0.3-0.2,0.5-0.5,0.5h-3
				c-0.3,0-0.5-0.2-0.5-0.5v-3C-6067-1140.8-6066.8-1141-6066.5-1141z"/>
			<path id="Rectangle_96" class="st0" d="M-6066.5-1135h3c0.3,0,0.5,0.2,0.5,0.5v3c0,0.3-0.2,0.5-0.5,0.5h-3
				c-0.3,0-0.5-0.2-0.5-0.5v-3C-6067-1134.8-6066.8-1135-6066.5-1135z"/>
		</g>
	</g>
</g>
</svg>
