<svg xmlns="http://www.w3.org/2000/svg" viewBox="0 0 280 200">
  <defs>
    <style>
      .cls-1 {
        fill: #565b61;
      }

      .cls-2 {
        fill: #fff;
      }

      .cls-3 {
        fill: #dfdfdf;
      }

      .cls-4 {
        fill: #6a68ef;
      }

      .cls-5 {
        fill: #686ce8;
      }
    </style>
  </defs>
  <g id="artwork">
    <g>
      <path class="cls-1" d="M248.93913,133.23407l8.83057.1044c5.20908.06159,12.40888-3.07015,12.51769-12.27332.08675-7.3378-7.25067-12.71128-13.10807-13.65006a11.701,11.701,0,0,0,.26294-2.22984c.136-8.22941-6.36181-14.63395-14.881-15.1485-11.15216-.67359-15.63543,8.44821-16.65626,12.0314-10.89305-2.2862-18.12853,4.30754-17.2036,14.23949-.17638-.01426-.35251-.04938-.55022-.05172a8.3366,8.3366,0,0,0-8.29326,8.27552c-.04,3.38721,2.17823,8.14367,8.82571,8.2267l12.452.14722Z"/>
      <g>
        <path class="cls-2" d="M76.02712,63.10676h137.5118A3.65628,3.65628,0,0,1,217.1952,66.763v89.44509a0,0,0,0,1,0,0H72.37085a0,0,0,0,1,0,0V66.763A3.65628,3.65628,0,0,1,76.02712,63.10676Z"/>
        <path class="cls-3" d="M218.69531,157.708H70.87061V66.76318a5.16238,5.16238,0,0,1,5.15673-5.15625H213.53906a5.16228,5.16228,0,0,1,5.15625,5.15625Zm-144.8247-3h141.8247V66.76318a2.15837,2.15837,0,0,0-2.15625-2.15625H76.02734a2.15879,2.15879,0,0,0-2.15673,2.15625Z"/>
      </g>
      <g>
        <path class="cls-2" d="M234.94963,163.84741H54.61642a3.40031,3.40031,0,0,1-3.40032-3.40032v-4.239H238.35v4.239A3.40032,3.40032,0,0,1,234.94963,163.84741Z"/>
        <path class="cls-3" d="M234.94922,165.34766H54.61621a4.90576,4.90576,0,0,1-4.8999-4.90039V154.708h190.1333v5.73926A4.90586,4.90586,0,0,1,234.94922,165.34766ZM52.71631,157.708v2.73926a1.90216,1.90216,0,0,0,1.8999,1.90039h180.333a1.90258,1.90258,0,0,0,1.90039-1.90039V157.708Z"/>
      </g>
      <path class="cls-3" d="M156.0957,161.02783H133.47021a4.63454,4.63454,0,0,1-4.62939-4.62939V155.208h31.88477v1.19043A4.635,4.635,0,0,1,156.0957,161.02783ZM130.96826,157.208a2.63464,2.63464,0,0,0,2.502,1.81982H156.0957a2.63373,2.63373,0,0,0,2.502-1.81982Z"/>
      <circle class="cls-3" cx="144.78302" cy="67.75649" r="1.13442"/>
      <g>
        <path class="cls-2" d="M73.67521,117.53866v-5.25582a.91026.91026,0,0,0-.91026-.91026H67.22208a.91026.91026,0,0,0-.91026.91026v5.25582"/>
        <path class="cls-4" d="M75.17529,117.53857h-3v-4.666H67.812v4.666h-3v-5.25586a2.41271,2.41271,0,0,1,2.41016-2.41015h5.543a2.4127,2.4127,0,0,1,2.41015,2.41015Z"/>
      </g>
      <g>
        <path class="cls-2" d="M156.48686,112.15669V41.18128a8.2203,8.2203,0,0,1,8.2203-8.2203h41.41711a9.04233,9.04233,0,0,1,6.36944,2.62408L224.9244,47.92121a9.04233,9.04233,0,0,1,2.67289,6.41825v57.81723a8.2203,8.2203,0,0,1-8.2203,8.2203H164.70716A8.2203,8.2203,0,0,1,156.48686,112.15669Z"/>
        <path class="cls-3" d="M219.377,121.877H164.707a9.731,9.731,0,0,1-9.71973-9.72021V41.18115a9.731,9.731,0,0,1,9.71973-9.72021h41.417A10.48166,10.48166,0,0,1,213.55078,34.52l12.43067,12.33691a10.61359,10.61359,0,0,1,3.11621,7.48243v57.81738A9.73118,9.73118,0,0,1,219.377,121.877ZM164.707,34.46094a6.72769,6.72769,0,0,0-6.71973,6.72021v70.97559A6.72769,6.72769,0,0,0,164.707,118.877H219.377a6.7279,6.7279,0,0,0,6.72071-6.72021V54.33936a7.59413,7.59413,0,0,0-2.2295-5.35352L211.43749,36.64941a7.499,7.499,0,0,0-5.31347-2.18847Z"/>
      </g>
      <g>
        <circle class="cls-2" cx="69.57472" cy="144.5271" r="26.38433"/>
        <path class="cls-4" d="M69.57471,172.41162A27.88452,27.88452,0,1,1,97.459,144.52734,27.9158,27.9158,0,0,1,69.57471,172.41162Zm0-52.769A24.88452,24.88452,0,1,0,94.459,144.52734,24.91262,24.91262,0,0,0,69.57471,119.64258Z"/>
      </g>
      <path class="cls-4" d="M69.99365,146.4458a1.5,1.5,0,0,1-1.06054-2.56055L83.17236,129.646a1.49984,1.49984,0,0,1,2.1211,2.12109L71.0542,146.00635A1.49514,1.49514,0,0,1,69.99365,146.4458Z"/>
      <path class="cls-4" d="M69.99365,129.05322a1.49976,1.49976,0,0,1-1.5-1.5v-4.188a1.5,1.5,0,0,1,3,0v4.188A1.49975,1.49975,0,0,1,69.99365,129.05322Z"/>
      <path class="cls-4" d="M69.99365,167.38574a1.49976,1.49976,0,0,1-1.5-1.5v-4.188a1.5,1.5,0,0,1,3,0v4.188A1.49975,1.49975,0,0,1,69.99365,167.38574Z"/>
      <path class="cls-4" d="M90.73682,145.6084h-4.188a1.5,1.5,0,1,1,0-3h4.188a1.5,1.5,0,0,1,0,3Z"/>
      <path class="cls-4" d="M52.40381,145.6084h-4.188a1.5,1.5,0,0,1,0-3h4.188a1.5,1.5,0,0,1,0,3Z"/>
      <path class="cls-4" d="M92.10693,123.1123a1.5,1.5,0,0,1-1.06054-2.56054l2.14062-2.14014a1.49984,1.49984,0,0,1,2.1211,2.12109l-2.14063,2.14014A1.49514,1.49514,0,0,1,92.10693,123.1123Z"/>
      <path class="cls-3" d="M39.42139,129.19385H11.07959a1,1,0,1,1,0-2h28.3418a1,1,0,0,1,0,2Z"/>
      <path class="cls-3" d="M36.0708,137.56982H17.61816a1,1,0,1,1,0-2H36.0708a1,1,0,0,1,0,2Z"/>
      <path class="cls-3" d="M34.39551,145.9458H23.48145a1,1,0,1,1,0-2H34.39551a1,1,0,0,1,0,2Z"/>
      <path class="cls-3" d="M36.0708,154.32178H29.34424a1,1,0,0,1,0-2H36.0708a1,1,0,0,1,0,2Z"/>
      <path class="cls-3" d="M41.09619,162.69775h-5.376a1,1,0,0,1,0-2h5.376a1,1,0,1,1,0,2Z"/>
      <path class="cls-3" d="M217.2666,56.394H166.125a1,1,0,0,1,0-2h51.1416a1,1,0,0,1,0,2Z"/>
      <path class="cls-3" d="M193.65332,78.88281H166.125a1,1,0,0,1,0-2h27.52832a1,1,0,0,1,0,2Z"/>
      <path class="cls-3" d="M217.2666,67.63867H166.125a1,1,0,0,1,0-2h51.1416a1,1,0,0,1,0,2Z"/>
      <path class="cls-4" d="M217.2666,109.96924H166.125a1,1,0,0,1,0-2h51.1416a1,1,0,0,1,0,2Z"/>
      <g>
        <line class="cls-2" x1="179.37894" y1="90.33802" x2="169.0005" y2="100.71646"/>
        <path class="cls-4" d="M169.001,101.71631a1,1,0,0,1-.707-1.707l10.37793-10.37842a.99989.99989,0,0,1,1.41406,1.41406L169.708,101.42334A.99676.99676,0,0,1,169.001,101.71631Z"/>
      </g>
      <g>
        <line class="cls-2" x1="169.0005" y1="90.33802" x2="179.37894" y2="100.71646"/>
        <path class="cls-4" d="M179.37891,101.71631a.99676.99676,0,0,1-.707-.293L168.294,91.04492a.99989.99989,0,0,1,1.41406-1.41406l10.37793,10.37842a1,1,0,0,1-.707,1.707Z"/>
      </g>
      <path class="cls-1" d="M82.86073,84.39276H94.09165c6.625,0,15.73351-4.0907,15.73351-15.79549,0-9.33237-9.41137-16.05522-16.874-17.16095A14.88008,14.88008,0,0,0,93.252,48.5968c.04919-10.46692-8.31-18.51353-19.15106-19.03978-14.19171-.6889-19.75569,10.97819-21,15.55009-13.88646-2.74348-22.98829,5.7502-21.66278,18.3662-.22451-.01548-.449-.05749-.70046-.05749A10.60192,10.60192,0,0,0,20.31608,74.064c0,4.30794,2.89236,10.32311,11.34684,10.32875H82.86073Z"/>
      <g>
        <path class="cls-2" d="M222.83328,88.10649l-7.977,6.638,3.91475-9.611,37.50807-51.14192a2.517,2.517,0,0,1,3.51759-.54465h0a2.517,2.517,0,0,1,.54466,3.51759L235.53855,70.783S223.02772,87.912,222.83328,88.10649Z"/>
        <path class="cls-4" d="M214.85645,95.74463a.9994.9994,0,0,1-.92579-1.37744l3.915-9.61084a.99753.99753,0,0,1,.11914-.21387l37.50782-51.14209a3.51723,3.51723,0,0,1,5.67675,4.1543L236.34473,71.37451c-12.55567,17.18994-12.73633,17.3711-12.80469,17.439q-.03223.03222-.06738.06152l-7.97657,6.63818A.99822.99822,0,0,1,214.85645,95.74463Zm4.79492-10.11914L217.292,91.417l4.82324-4.01367c.71778-.9375,7.8584-10.69775,12.61524-17.21l24.80469-33.82031a1.51671,1.51671,0,0,0-2.44825-1.791Zm3.18164,2.481h0Zm0,0h0Z"/>
      </g>
      <g>
        <path class="cls-5" d="M202.84963,81.55358c-.47338-.18157-1.45193,1.53319-1.57879,1.74568a18.58774,18.58774,0,0,0-1.38327,2.9679,34.03417,34.03417,0,0,0-1.87746,7.447,28.61371,28.61371,0,0,0,4.87664-9.75331,5.18748,5.18748,0,0,0,.16385-2.09556C203.00614,81.68378,202.93636,81.58685,202.84963,81.55358ZM207.0131,102.342a2.02792,2.02792,0,0,1-1.75058-.87529,3.32766,3.32766,0,0,1-.25009-3.126c-1.62553,2.00067-3.87628,3.87629-6.127,3.75124a2.67619,2.67619,0,0,1-2.62587-2.1257c-.125-.25008-.125-.37513-.25009-.6252-2.00066,1.75058-4.00132,3.001-5.87695,2.876a.95711.95711,0,0,1-1.00033-1.12537h0a.95712.95712,0,0,1,1.12538-1.00034c1.25041,0,3.37611-1.37545,5.50182-3.6262,0-5.50182,2.50083-13.75456,5.25174-16.38043a2.50317,2.50317,0,0,1,3.001-.62521c1.00032.50017,1.87562,1.62555,1.12537,4.87662-.87529,3.50117-3.75125,9.003-7.12737,13.00431a5.01747,5.01747,0,0,0,.37513,1.87563c.25008.75024.50017.75024.62521.75024h0c2.75091,0,5.62687-4.62653,6.87728-6.37711.75025-1.12537,1.25041-1.87562,2.1257-1.5005,1.25042.50017.8753,1.87562.125,4.00133-.37512,1.00033-1.12537,3.37612-.87529,4.12636h0a7.61964,7.61964,0,0,0,3.001-2.25074,1.07565,1.07565,0,1,1,1.75058,1.25042c-1.00033,1.12537-3.37612,3.126-5.00166,3.126Z"/>
        <path class="cls-4" d="M207.0127,102.4668a2.15635,2.15635,0,0,1-1.85743-.93555,3.04071,3.04071,0,0,1-.40332-2.686c-1.24511,1.43458-3.35644,3.37745-5.65039,3.37745q-.11133,0-.22265-.00586a2.79551,2.79551,0,0,1-2.73829-2.20948,2.38937,2.38937,0,0,1-.125-.31445c-.01562-.04834-.03124-.0957-.05175-.147-2.333,2.01611-4.18653,2.90771-5.83985,2.79541h-.001a1.167,1.167,0,0,1-.90528-.415,1.01618,1.01618,0,0,1-.209-.85889,1.14968,1.14968,0,0,1,.41309-.88965,1.02329,1.02329,0,0,1,.86035-.209c1.19824-.00244,3.30468-1.395,5.35254-3.55371.01464-5.76123,2.62793-13.87988,5.29-16.4209a2.60743,2.60743,0,0,1,3.14258-.64648c1.4375.71777,1.81641,2.312,1.19239,5.0166-.94141,3.76074-3.93457,9.229-7.125,13.02148a4.91737,4.91737,0,0,0,.36621,1.78369c.22461.67188.417.67188.50976.67188,2.39453,0,4.95117-3.69531,6.3252-5.68067.167-.24121.31738-.459.45019-.64453.75684-1.13525,1.30176-1.96045,2.27636-1.54248,1.3545.542.95606,1.99805.19435,4.15772a12.03185,12.03185,0,0,0-.90528,3.9082,7.44234,7.44234,0,0,0,2.81348-2.14941,1.2002,1.2002,0,1,1,1.94922,1.40088C211.18945,100.33252,208.73633,102.4668,207.0127,102.4668Zm-1.69922-4.69434-.18067.60449a3.16444,3.16444,0,0,0,.22559,3.00977,1.91689,1.91689,0,0,0,1.6543.83008c1.63867,0,4.01464-2.07764,4.9082-3.084a.95083.95083,0,0,0-1.55664-1.09228,7.79817,7.79817,0,0,1-3.04981,2.29l-.126.05566-.043-.13037c-.32715-.97754.86426-4.17774.876-4.21.73438-2.08154,1.09766-3.38037-.05468-3.84131-.7461-.31982-1.16992.24512-1.97461,1.45264-.13477.189-.28418.40576-.4502.6455-1.40039,2.023-4.00586,5.78858-6.53125,5.78858-.22949,0-.498-.09912-.74414-.83594a5.13645,5.13645,0,0,1-.38183-1.915v-.0459l.02929-.03466c3.18067-3.76856,6.167-9.21631,7.10254-12.95411.7793-3.3789-.23242-4.32031-1.06055-4.73437a2.39355,2.39355,0,0,0-2.85058.59473c-2.63867,2.52-5.2207,10.58886-5.2207,16.29882v.04981l-.03418.03613c-2.13575,2.26074-4.27832,3.66553-5.59278,3.66553a.78471.78471,0,0,0-.67676.15478.92171.92171,0,0,0-.32421.72071.79727.79727,0,0,0,.15429.67627.92346.92346,0,0,0,.72168.32373c1.62305.11425,3.4541-.79737,5.79492-2.84522l.1211-.10644.07324.145a2.2716,2.2716,0,0,1,.13086.32861,2.09178,2.09178,0,0,0,.11816.29687l.01172.03125a2.54563,2.54563,0,0,0,2.50293,2.02491q.10547.00585.21094.00586c2.43359,0,4.67871-2.30762,5.81934-3.71045Zm-7.48926-3.61816.06152-.45655a34.09963,34.09963,0,0,1,1.88477-7.47461,18.5777,18.5777,0,0,1,1.39258-2.98779l.02636-.04492c1.03516-1.75586,1.46485-1.84522,1.70508-1.75342h0a.51222.51222,0,0,1,.27735.39844,4.75975,4.75975,0,0,1-.125,1.96631l-.03711.18359a28.87717,28.87717,0,0,1-4.90137,9.80615ZM202.77734,81.666c-.10254,0-.47656.13085-1.37207,1.65136l-.02734.0459a18.31843,18.31843,0,0,0-1.373,2.94824,33.82756,33.82756,0,0,0-1.80468,6.94873,28.77416,28.77416,0,0,0,4.5664-9.33349l.03516-.17481a4.60707,4.60707,0,0,0,.12793-1.85693c-.03125-.124-.07617-.20606-.125-.22461h0A.07563.07563,0,0,0,202.77734,81.666Z"/>
      </g>
    </g>
  </g>
</svg>
