<svg xmlns="http://www.w3.org/2000/svg" width="18" height="18" viewBox="0 0 18 18">
  <path fill="#1473E6" d="M9.00222,2.78 C5.56578278,2.78 2.78,5.56578278 2.78,9.00222 C2.78,12.4386572 5.56578278,15.22444 9.00222,15.22444 C12.4386572,15.22444 15.22444,12.4386572 15.22444,9.00222 C15.22444,7.35198465 14.5688866,5.76933865 13.401994,4.60244604 C12.2351014,3.43555344 10.6524553,2.78 9.00222,2.78 Z M8.88555,4.45222 C9.16546766,4.43692938 9.43999473,4.53346233 9.64873792,4.72058256 C9.85748111,4.90770279 9.98334113,5.17008224 9.99863,5.45 C10.00045,5.48345333 10.0006833,5.51693333 9.99933,5.55044 C10.0230013,5.85246996 9.91328219,6.1497275 9.69905985,6.36394985 C9.4848375,6.57817219 9.18757996,6.68789129 8.88555,6.66422 C8.58481895,6.68238317 8.29072651,6.57077354 8.07776559,6.35766157 C7.86480467,6.1445496 7.7534036,5.8503781 7.77178,5.54966 C7.74857548,4.96635985 8.20262005,4.47468941 8.78592,4.45148 C8.81913333,4.45016 8.85234333,4.45040667 8.88555,4.45222 Z M10.55778,12.50222 C10.55778,12.716998 10.383668,12.89111 10.16889,12.89111 L7.83555,12.89111 C7.62077198,12.89111 7.44666,12.716998 7.44666,12.50222 L7.44666,11.72444 C7.44666,11.5096643 7.62077427,11.3355555 7.83555,11.33555 L8.22444,11.33555 L8.22444,9.00222 L7.83555,9.00222 C7.62077198,9.00222 7.44666,8.82810802 7.44666,8.61333 L7.44666,7.83555 C7.44666,7.62077427 7.62077427,7.44666 7.83555,7.44666 L9.39111,7.44666 C9.60588802,7.44666 9.78,7.62077198 9.78,7.83555 L9.78,11.33555 L10.16889,11.33555 C10.3836657,11.3355555 10.55778,11.5096643 10.55778,11.72444 L10.55778,12.50222 Z"/>
</svg>
