<svg viewBox="0 0 240 120" fill="none" xmlns="http://www.w3.org/2000/svg">
<path d="M120 87.6924C176.078 87.6924 221.538 92.2126 221.538 97.7885C221.538 100.238 212.769 102.481 198.182 104.229C201.857 105.542 203.879 106.964 203.879 108.462C203.879 114.834 167.314 120 122.208 120C77.1021 120 40.5332 114.834 40.5332 108.462C40.5332 107.106 42.1905 105.807 45.2298 104.599C28.6104 102.801 18.4614 100.423 18.4614 97.7885C18.4614 92.2126 63.9217 87.6924 120 87.6924Z" fill="url(#paint0_linear_9681_901)"/>
<path d="M120 87.6924C176.078 87.6924 221.538 92.2126 221.538 97.7885C221.538 100.238 212.769 102.481 198.182 104.229C201.857 105.542 203.879 106.964 203.879 108.462C203.879 114.834 167.314 120 122.208 120C77.1021 120 40.5332 114.834 40.5332 108.462C40.5332 107.106 42.1905 105.807 45.2298 104.599C28.6104 102.801 18.4614 100.423 18.4614 97.7885C18.4614 92.2126 63.9217 87.6924 120 87.6924Z" fill="url(#paint1_radial_9681_901)"/>
<path d="M197.233 83.8321C190.619 89.7397 195.196 95.0209 198.312 96.923H214.615C220.711 90.881 219.231 92.3076 213.051 94.909C214.615 89.9999 214.729 86.0698 213.77 83.1607C213.77 88.2628 210.894 91.3286 209.456 92.2237C210.319 90.881 209.816 86.2936 209.456 84.1677C208.594 86.0474 207.659 89.4265 207.299 90.881C205.861 89.0013 207.419 81.8181 208.378 78.4614C203.776 80.8782 202.626 89.3146 202.626 93.2307C198.887 90.2768 201.308 83.2726 202.985 80.1397C199.534 83.3621 198.432 88.6432 198.312 90.881C195.723 89.2698 196.514 85.5104 197.233 83.8321Z" fill="#9CA55C"/>
<path d="M18.6062 87.4037C17.7411 92.4518 18.0778 95.7475 21.0576 96.995C24.5427 98.4542 30.0003 97.6441 32.308 96.995C34.2904 95.6474 37.2118 94.6152 38.0772 84.6633C36.3464 91.1537 34.6254 91.798 33.0291 91.798C35.0581 89.3241 35.7879 83.2199 33.0291 81.2018C32.6587 85.3123 32.4693 89.706 29.5217 91.798C27.8368 89.5672 28.1253 83.6516 29.5217 79.6152C25.1207 81.2004 25.7454 89.8832 25.7454 92.4518C23.6254 90.721 23.6254 85.6697 23.6254 81.6334C20.3246 83.747 20.322 92.4518 23.6254 94.3268C21.0576 94.3268 19.6161 92.4518 18.6062 87.4037Z" fill="#DABA74"/>
<ellipse cx="131.238" cy="107.018" rx="63.7579" ry="6.48926" fill="url(#paint2_radial_9681_901)"/>
<path d="M165.004 83.5463C160.333 77.08 162.49 68.8181 163.209 62.112C163.209 56.0051 151.473 51.4553 148.839 59.9571C146.205 68.4589 153.389 81.3911 155.784 84.9834C158.179 88.5757 153.629 98.6341 150.635 100.43C148.24 101.867 146.684 105.42 146.205 107.016H155.784C155.544 106.856 155.209 106.058 155.784 104.142C156.359 102.226 162.17 89.6133 165.004 83.5463Z" fill="url(#paint3_linear_9681_901)"/>
<path d="M165.004 83.5463C160.333 77.08 162.49 68.8181 163.209 62.112C163.209 56.0051 151.473 51.4553 148.839 59.9571C146.205 68.4589 153.389 81.3911 155.784 84.9834C158.179 88.5757 153.629 98.6341 150.635 100.43C148.24 101.867 146.684 105.42 146.205 107.016H155.784C155.544 106.856 155.209 106.058 155.784 104.142C156.359 102.226 162.17 89.6133 165.004 83.5463Z" fill="url(#paint4_radial_9681_901)"/>
<path d="M165.004 83.5463C160.333 77.08 162.49 68.8181 163.209 62.112C163.209 56.0051 151.473 51.4553 148.839 59.9571C146.205 68.4589 153.389 81.3911 155.784 84.9834C158.179 88.5757 153.629 98.6341 150.635 100.43C148.24 101.867 146.684 105.42 146.205 107.016H155.784C155.544 106.856 155.209 106.058 155.784 104.142C156.359 102.226 162.17 89.6133 165.004 83.5463Z" fill="url(#paint5_linear_9681_901)"/>
<path d="M80.3455 100.43C83.4442 97.4343 86.3148 93.1677 85.3847 87.6928C87.6924 71.5385 94.9536 80.3127 94.9536 84.4448C94.9536 88.577 89.4462 98.7537 86.1727 100.43C84.5527 101.26 85.9317 105.932 86.1727 106.965H77.3521C77.3176 105.967 77.8665 102.827 80.3455 100.43Z" fill="url(#paint6_linear_9681_901)"/>
<path d="M80.3455 100.43C83.4442 97.4343 86.3148 93.1677 85.3847 87.6928C87.6924 71.5385 94.9536 80.3127 94.9536 84.4448C94.9536 88.577 89.4462 98.7537 86.1727 100.43C84.5527 101.26 85.9317 105.932 86.1727 106.965H77.3521C77.3176 105.967 77.8665 102.827 80.3455 100.43Z" fill="url(#paint7_radial_9681_901)"/>
<path d="M80.3455 100.43C83.4442 97.4343 86.3148 93.1677 85.3847 87.6928C87.6924 71.5385 94.9536 80.3127 94.9536 84.4448C94.9536 88.577 89.4462 98.7537 86.1727 100.43C84.5527 101.26 85.9317 105.932 86.1727 106.965H77.3521C77.3176 105.967 77.8665 102.827 80.3455 100.43Z" fill="url(#paint8_linear_9681_901)"/>
<path d="M83.2213 78.7505C83.9875 76.6426 87.0512 73.1424 87.0512 69.8402C92.8945 67.4454 98.7991 73.2553 100.635 76.3685C98.2404 79.0508 97.8287 85.6627 98.4274 89.1751L96.1523 85.4632C97.1102 88.9118 96.3119 93.6455 94.4759 95.282C95.2422 94.0367 94.0368 92.9673 93.3982 91.9295C92.9192 95.4739 92.1449 95.8385 90.4285 97.8342C90.8675 96.7166 89.0025 96.1696 89.0025 91.3799C89.0025 87.9276 83.8582 91.2508 81.9023 93.2465C81.9023 89.9895 84.0979 86.6049 85.0162 84.6491C84.5372 84.7449 82.1421 84.7846 81.1841 85.4632C81.3757 82.6851 84.7764 78.6378 86.4528 76.9614C85.399 76.4824 84.2991 78.0322 83.2213 78.7505Z" fill="url(#paint9_radial_9681_901)"/>
<path d="M83.2213 78.7505C83.9875 76.6426 87.0512 73.1424 87.0512 69.8402C92.8945 67.4454 98.7991 73.2553 100.635 76.3685C98.2404 79.0508 97.8287 85.6627 98.4274 89.1751L96.1523 85.4632C97.1102 88.9118 96.3119 93.6455 94.4759 95.282C95.2422 94.0367 94.0368 92.9673 93.3982 91.9295C92.9192 95.4739 92.1449 95.8385 90.4285 97.8342C90.8675 96.7166 89.0025 96.1696 89.0025 91.3799C89.0025 87.9276 83.8582 91.2508 81.9023 93.2465C81.9023 89.9895 84.0979 86.6049 85.0162 84.6491C84.5372 84.7449 82.1421 84.7846 81.1841 85.4632C81.3757 82.6851 84.7764 78.6378 86.4528 76.9614C85.399 76.4824 84.2991 78.0322 83.2213 78.7505Z" fill="url(#paint10_radial_9681_901)"/>
<path d="M148.598 19.6042C140.335 15.7726 120.698 9.18646 115.908 8.70801C102.976 8.70801 96.6298 11.1024 89.3254 19.6042C82.0211 28.1061 81.7816 64.867 103.934 70.016C126.087 75.1649 154.945 73.1293 165.482 71.2134C176.019 69.2975 183.204 50.3781 182.126 41.0381C181.049 31.6982 156.861 23.4359 148.598 19.6042Z" fill="url(#paint11_linear_9681_901)"/>
<path d="M148.598 19.6042C140.335 15.7726 120.698 9.18646 115.908 8.70801C102.976 8.70801 96.6298 11.1024 89.3254 19.6042C82.0211 28.1061 81.7816 64.867 103.934 70.016C126.087 75.1649 154.945 73.1293 165.482 71.2134C176.019 69.2975 183.204 50.3781 182.126 41.0381C181.049 31.6982 156.861 23.4359 148.598 19.6042Z" fill="url(#paint12_linear_9681_901)"/>
<path d="M148.598 19.6042C140.335 15.7726 120.698 9.18646 115.908 8.70801C102.976 8.70801 96.6298 11.1024 89.3254 19.6042C82.0211 28.1061 81.7816 64.867 103.934 70.016C126.087 75.1649 154.945 73.1293 165.482 71.2134C176.019 69.2975 183.204 50.3781 182.126 41.0381C181.049 31.6982 156.861 23.4359 148.598 19.6042Z" fill="url(#paint13_radial_9681_901)"/>
<path d="M148.598 19.6042C140.335 15.7726 120.698 9.18646 115.908 8.70801C102.976 8.70801 96.6298 11.1024 89.3254 19.6042C82.0211 28.1061 81.7816 64.867 103.934 70.016C126.087 75.1649 154.945 73.1293 165.482 71.2134C176.019 69.2975 183.204 50.3781 182.126 41.0381C181.049 31.6982 156.861 23.4359 148.598 19.6042Z" fill="url(#paint14_radial_9681_901)"/>
<path d="M187.132 42.6409C186.129 36.7924 176.758 33.6592 172.197 32.8237C170.352 33.0674 168.792 34.0143 177.315 35.8524C187.967 38.1501 185.632 53.7013 184.521 55.7923C182.745 59.1343 183.163 62.902 184.521 66.4529C186.087 64.573 186.61 62.6931 186.61 62.6931C187.341 64.8864 187.132 66.4529 186.61 69.8994C188.803 67.3929 188.768 66.6669 189.534 64.1553C189.534 64.1553 190.369 65.3041 190.369 67.184C193.398 62.6931 190.077 58.09 188.614 55.7923C187.152 53.4947 188.385 49.9516 187.132 42.6409Z" fill="url(#paint15_linear_9681_901)"/>
<path d="M187.132 42.6409C186.129 36.7924 176.758 33.6592 172.197 32.8237C170.352 33.0674 168.792 34.0143 177.315 35.8524C187.967 38.1501 185.632 53.7013 184.521 55.7923C182.745 59.1343 183.163 62.902 184.521 66.4529C186.087 64.573 186.61 62.6931 186.61 62.6931C187.341 64.8864 187.132 66.4529 186.61 69.8994C188.803 67.3929 188.768 66.6669 189.534 64.1553C189.534 64.1553 190.369 65.3041 190.369 67.184C193.398 62.6931 190.077 58.09 188.614 55.7923C187.152 53.4947 188.385 49.9516 187.132 42.6409Z" fill="url(#paint16_radial_9681_901)"/>
<path d="M183.804 48.4969C184.403 35.5645 175.183 32.2979 170.992 30.0225C168.956 30.0225 166.227 30.8721 163.928 36.1297C162.672 39.0004 156.503 61.0362 163.927 64.2693C169.867 66.8557 174.025 73.8088 174.464 77.8003C173.698 79.9077 176.301 82.9093 177.698 84.1466C179.533 88.4175 183.325 97.6297 183.804 100.312C184.284 102.994 183.046 107.576 182.367 109.532C186.391 110.394 190.35 108.774 191.827 107.856L191.228 104.263C189.313 101.15 184.882 87.4995 185.96 83.069C187.037 78.6385 185.002 76.7226 182.367 73.0105C179.733 69.2985 183.206 61.4293 183.804 48.4969Z" fill="url(#paint17_linear_9681_901)"/>
<path d="M183.804 48.4969C184.403 35.5645 175.183 32.2979 170.992 30.0225C168.956 30.0225 166.227 30.8721 163.928 36.1297C162.672 39.0004 156.503 61.0362 163.927 64.2693C169.867 66.8557 174.025 73.8088 174.464 77.8003C173.698 79.9077 176.301 82.9093 177.698 84.1466C179.533 88.4175 183.325 97.6297 183.804 100.312C184.284 102.994 183.046 107.576 182.367 109.532C186.391 110.394 190.35 108.774 191.827 107.856L191.228 104.263C189.313 101.15 184.882 87.4995 185.96 83.069C187.037 78.6385 185.002 76.7226 182.367 73.0105C179.733 69.2985 183.206 61.4293 183.804 48.4969Z" fill="url(#paint18_radial_9681_901)"/>
<path d="M183.804 48.4969C184.403 35.5645 175.183 32.2979 170.992 30.0225C168.956 30.0225 166.227 30.8721 163.928 36.1297C162.672 39.0004 156.503 61.0362 163.927 64.2693C169.867 66.8557 174.025 73.8088 174.464 77.8003C173.698 79.9077 176.301 82.9093 177.698 84.1466C179.533 88.4175 183.325 97.6297 183.804 100.312C184.284 102.994 183.046 107.576 182.367 109.532C186.391 110.394 190.35 108.774 191.827 107.856L191.228 104.263C189.313 101.15 184.882 87.4995 185.96 83.069C187.037 78.6385 185.002 76.7226 182.367 73.0105C179.733 69.2985 183.206 61.4293 183.804 48.4969Z" fill="url(#paint19_radial_9681_901)"/>
<path d="M183.804 48.4969C184.403 35.5645 175.183 32.2979 170.992 30.0225C168.956 30.0225 166.227 30.8721 163.928 36.1297C162.672 39.0004 156.503 61.0362 163.927 64.2693C169.867 66.8557 174.025 73.8088 174.464 77.8003C173.698 79.9077 176.301 82.9093 177.698 84.1466C179.533 88.4175 183.325 97.6297 183.804 100.312C184.284 102.994 183.046 107.576 182.367 109.532C186.391 110.394 190.35 108.774 191.827 107.856L191.228 104.263C189.313 101.15 184.882 87.4995 185.96 83.069C187.037 78.6385 185.002 76.7226 182.367 73.0105C179.733 69.2985 183.206 61.4293 183.804 48.4969Z" fill="url(#paint20_linear_9681_901)"/>
<path d="M113.396 104.743C116.988 101.27 114.474 96.7199 113.396 90.3737C115.311 69.0596 128.244 80.794 128.244 85.5837C128.244 90.3735 121.299 104.743 119.264 106.419C117.635 107.76 117.787 110.49 118.066 111.688H109.924C109.884 110.53 110.522 107.521 113.396 104.743Z" fill="url(#paint21_linear_9681_901)"/>
<path d="M113.396 104.743C116.988 101.27 114.474 96.7199 113.396 90.3737C115.311 69.0596 128.244 80.794 128.244 85.5837C128.244 90.3735 121.299 104.743 119.264 106.419C117.635 107.76 117.787 110.49 118.066 111.688H109.924C109.884 110.53 110.522 107.521 113.396 104.743Z" fill="url(#paint22_radial_9681_901)"/>
<path d="M113.396 104.743C116.988 101.27 114.474 96.7199 113.396 90.3737C115.311 69.0596 128.244 80.794 128.244 85.5837C128.244 90.3735 121.299 104.743 119.264 106.419C117.635 107.76 117.787 110.49 118.066 111.688H109.924C109.884 110.53 110.522 107.521 113.396 104.743Z" fill="url(#paint23_linear_9681_901)"/>
<path d="M120.23 10.2434C123.966 11.5774 135.59 19.7407 134.234 23.2673C132.876 26.793 125.824 28.4227 128.808 34.6617C131.793 40.9016 142.082 56.047 136.927 60.3876C134.097 63.1598 135.262 68.5153 138.082 72.4585C137.563 72.8628 132.487 73.1376 130.177 73.1376C129.901 69.8449 122.198 63.003 127.18 58.8067C132.335 54.4663 122.867 41.9851 119.882 35.7449C116.898 29.5058 122.839 26.1135 124.196 22.5876C125.552 19.0611 118.526 12.6855 114.727 10.2434C113.469 10.2436 115.425 8.52782 120.23 10.2434Z" fill="url(#paint24_linear_9681_901)"/>
<path d="M90.1652 11.3294C82.7225 13.9069 81.4661 18.1117 75.6333 26.7929C83.454 36.3752 80.5166 52.9728 75.6333 61.0399C76.5513 60.8403 80.03 69.7771 83.2201 69.7771C88.9678 69.7771 88.6086 73.4492 90.1652 74.3274C88.7283 77.3209 91.6022 81.2725 91.6022 79.1171C91.6022 77.3928 93.1189 77.6802 93.8773 78.0394C94.3563 81.1527 97.608 84.1463 96.8709 82.5896C96.2811 81.3443 98.3015 80.4742 99.3855 80.1948C99.0981 83.2602 101.341 84.4257 102.499 84.6253C102.211 82.9968 103.177 80.2746 103.696 79.1171C102.642 81.8951 105.253 85.3038 106.69 86.6609C105.636 84.1702 107.129 82.0308 108.007 81.2725C107.815 83.6673 109.444 85.8626 110.282 86.6609C109.803 84.1702 111.44 81.6716 112.318 80.1948V83.6673C112.318 85.8755 113.625 88.1141 110.282 94.5568C111.858 92.3541 115.377 90.8791 116.095 90.1606C116.574 94.4314 119.623 94.5568 119.623 94.5568C119.623 94.5568 120.055 89.6493 121.874 89.6523C123.693 90.8679 123.375 96.1816 123.375 96.1816L127.222 88.1141L127.953 93.2547C127.953 93.2547 130.179 88.6016 128.603 84.6253C129.154 83.6673 130.878 86.6609 130.878 86.6609C130.878 86.6609 131.895 84.5055 130.179 81.2725C128.462 78.0394 130.878 78.0319 130.878 75.6445C130.878 72.6603 126.365 63.1463 131.52 58.8056C136.674 54.465 126.908 40.9003 123.923 34.6606C120.939 28.4208 127.993 26.7929 129.349 23.2662C130.706 19.7396 122.567 11.6005 118.769 9.15884C114.971 6.71721 93.3362 10.2313 90.1652 11.3294Z" fill="url(#paint25_radial_9681_901)"/>
<path d="M90.1652 11.3294C82.7225 13.9069 81.4661 18.1117 75.6333 26.7929C83.454 36.3752 80.5166 52.9728 75.6333 61.0399C76.5513 60.8403 80.03 69.7771 83.2201 69.7771C88.9678 69.7771 88.6086 73.4492 90.1652 74.3274C88.7283 77.3209 91.6022 81.2725 91.6022 79.1171C91.6022 77.3928 93.1189 77.6802 93.8773 78.0394C94.3563 81.1527 97.608 84.1463 96.8709 82.5896C96.2811 81.3443 98.3015 80.4742 99.3855 80.1948C99.0981 83.2602 101.341 84.4257 102.499 84.6253C102.211 82.9968 103.177 80.2746 103.696 79.1171C102.642 81.8951 105.253 85.3038 106.69 86.6609C105.636 84.1702 107.129 82.0308 108.007 81.2725C107.815 83.6673 109.444 85.8626 110.282 86.6609C109.803 84.1702 111.44 81.6716 112.318 80.1948V83.6673C112.318 85.8755 113.625 88.1141 110.282 94.5568C111.858 92.3541 115.377 90.8791 116.095 90.1606C116.574 94.4314 119.623 94.5568 119.623 94.5568C119.623 94.5568 120.055 89.6493 121.874 89.6523C123.693 90.8679 123.375 96.1816 123.375 96.1816L127.222 88.1141L127.953 93.2547C127.953 93.2547 130.179 88.6016 128.603 84.6253C129.154 83.6673 130.878 86.6609 130.878 86.6609C130.878 86.6609 131.895 84.5055 130.179 81.2725C128.462 78.0394 130.878 78.0319 130.878 75.6445C130.878 72.6603 126.365 63.1463 131.52 58.8056C136.674 54.465 126.908 40.9003 123.923 34.6606C120.939 28.4208 127.993 26.7929 129.349 23.2662C130.706 19.7396 122.567 11.6005 118.769 9.15884C114.971 6.71721 93.3362 10.2313 90.1652 11.3294Z" fill="url(#paint26_radial_9681_901)"/>
<path d="M90.1652 11.3294C82.7225 13.9069 81.4661 18.1117 75.6333 26.7929C83.454 36.3752 80.5166 52.9728 75.6333 61.0399C76.5513 60.8403 80.03 69.7771 83.2201 69.7771C88.9678 69.7771 88.6086 73.4492 90.1652 74.3274C88.7283 77.3209 91.6022 81.2725 91.6022 79.1171C91.6022 77.3928 93.1189 77.6802 93.8773 78.0394C94.3563 81.1527 97.608 84.1463 96.8709 82.5896C96.2811 81.3443 98.3015 80.4742 99.3855 80.1948C99.0981 83.2602 101.341 84.4257 102.499 84.6253C102.211 82.9968 103.177 80.2746 103.696 79.1171C102.642 81.8951 105.253 85.3038 106.69 86.6609C105.636 84.1702 107.129 82.0308 108.007 81.2725C107.815 83.6673 109.444 85.8626 110.282 86.6609C109.803 84.1702 111.44 81.6716 112.318 80.1948V83.6673C112.318 85.8755 113.625 88.1141 110.282 94.5568C111.858 92.3541 115.377 90.8791 116.095 90.1606C116.574 94.4314 119.623 94.5568 119.623 94.5568C119.623 94.5568 120.055 89.6493 121.874 89.6523C123.693 90.8679 123.375 96.1816 123.375 96.1816L127.222 88.1141L127.953 93.2547C127.953 93.2547 130.179 88.6016 128.603 84.6253C129.154 83.6673 130.878 86.6609 130.878 86.6609C130.878 86.6609 131.895 84.5055 130.179 81.2725C128.462 78.0394 130.878 78.0319 130.878 75.6445C130.878 72.6603 126.365 63.1463 131.52 58.8056C136.674 54.465 126.908 40.9003 123.923 34.6606C120.939 28.4208 127.993 26.7929 129.349 23.2662C130.706 19.7396 122.567 11.6005 118.769 9.15884C114.971 6.71721 93.3362 10.2313 90.1652 11.3294Z" fill="url(#paint27_radial_9681_901)"/>
<path d="M90.1652 11.3294C82.7225 13.9069 81.4661 18.1117 75.6333 26.7929C83.454 36.3752 80.5166 52.9728 75.6333 61.0399C76.5513 60.8403 80.03 69.7771 83.2201 69.7771C88.9678 69.7771 88.6086 73.4492 90.1652 74.3274C88.7283 77.3209 91.6022 81.2725 91.6022 79.1171C91.6022 77.3928 93.1189 77.6802 93.8773 78.0394C94.3563 81.1527 97.608 84.1463 96.8709 82.5896C96.2811 81.3443 98.3015 80.4742 99.3855 80.1948C99.0981 83.2602 101.341 84.4257 102.499 84.6253C102.211 82.9968 103.177 80.2746 103.696 79.1171C102.642 81.8951 105.253 85.3038 106.69 86.6609C105.636 84.1702 107.129 82.0308 108.007 81.2725C107.815 83.6673 109.444 85.8626 110.282 86.6609C109.803 84.1702 111.44 81.6716 112.318 80.1948V83.6673C112.318 85.8755 113.625 88.1141 110.282 94.5568C111.858 92.3541 115.377 90.8791 116.095 90.1606C116.574 94.4314 119.623 94.5568 119.623 94.5568C119.623 94.5568 120.055 89.6493 121.874 89.6523C123.693 90.8679 123.375 96.1816 123.375 96.1816L127.222 88.1141L127.953 93.2547C127.953 93.2547 130.179 88.6016 128.603 84.6253C129.154 83.6673 130.878 86.6609 130.878 86.6609C130.878 86.6609 131.895 84.5055 130.179 81.2725C128.462 78.0394 130.878 78.0319 130.878 75.6445C130.878 72.6603 126.365 63.1463 131.52 58.8056C136.674 54.465 126.908 40.9003 123.923 34.6606C120.939 28.4208 127.993 26.7929 129.349 23.2662C130.706 19.7396 122.567 11.6005 118.769 9.15884C114.971 6.71721 93.3362 10.2313 90.1652 11.3294Z" fill="url(#paint28_radial_9681_901)"/>
<path d="M90.1652 11.3294C82.7225 13.9069 81.4661 18.1117 75.6333 26.7929C83.454 36.3752 80.5166 52.9728 75.6333 61.0399C76.5513 60.8403 80.03 69.7771 83.2201 69.7771C88.9678 69.7771 88.6086 73.4492 90.1652 74.3274C88.7283 77.3209 91.6022 81.2725 91.6022 79.1171C91.6022 77.3928 93.1189 77.6802 93.8773 78.0394C94.3563 81.1527 97.608 84.1463 96.8709 82.5896C96.2811 81.3443 98.3015 80.4742 99.3855 80.1948C99.0981 83.2602 101.341 84.4257 102.499 84.6253C102.211 82.9968 103.177 80.2746 103.696 79.1171C102.642 81.8951 105.253 85.3038 106.69 86.6609C105.636 84.1702 107.129 82.0308 108.007 81.2725C107.815 83.6673 109.444 85.8626 110.282 86.6609C109.803 84.1702 111.44 81.6716 112.318 80.1948V83.6673C112.318 85.8755 113.625 88.1141 110.282 94.5568C111.858 92.3541 115.377 90.8791 116.095 90.1606C116.574 94.4314 119.623 94.5568 119.623 94.5568C119.623 94.5568 120.055 89.6493 121.874 89.6523C123.693 90.8679 123.375 96.1816 123.375 96.1816L127.222 88.1141L127.953 93.2547C127.953 93.2547 130.179 88.6016 128.603 84.6253C129.154 83.6673 130.878 86.6609 130.878 86.6609C130.878 86.6609 131.895 84.5055 130.179 81.2725C128.462 78.0394 130.878 78.0319 130.878 75.6445C130.878 72.6603 126.365 63.1463 131.52 58.8056C136.674 54.465 126.908 40.9003 123.923 34.6606C120.939 28.4208 127.993 26.7929 129.349 23.2662C130.706 19.7396 122.567 11.6005 118.769 9.15884C114.971 6.71721 93.3362 10.2313 90.1652 11.3294Z" fill="url(#paint29_radial_9681_901)"/>
<path d="M90.1652 11.3294C82.7225 13.9069 81.4661 18.1117 75.6333 26.7929C83.454 36.3752 80.5166 52.9728 75.6333 61.0399C76.5513 60.8403 80.03 69.7771 83.2201 69.7771C88.9678 69.7771 88.6086 73.4492 90.1652 74.3274C88.7283 77.3209 91.6022 81.2725 91.6022 79.1171C91.6022 77.3928 93.1189 77.6802 93.8773 78.0394C94.3563 81.1527 97.608 84.1463 96.8709 82.5896C96.2811 81.3443 98.3015 80.4742 99.3855 80.1948C99.0981 83.2602 101.341 84.4257 102.499 84.6253C102.211 82.9968 103.177 80.2746 103.696 79.1171C102.642 81.8951 105.253 85.3038 106.69 86.6609C105.636 84.1702 107.129 82.0308 108.007 81.2725C107.815 83.6673 109.444 85.8626 110.282 86.6609C109.803 84.1702 111.44 81.6716 112.318 80.1948V83.6673C112.318 85.8755 113.625 88.1141 110.282 94.5568C111.858 92.3541 115.377 90.8791 116.095 90.1606C116.574 94.4314 119.623 94.5568 119.623 94.5568C119.623 94.5568 120.055 89.6493 121.874 89.6523C123.693 90.8679 123.375 96.1816 123.375 96.1816L127.222 88.1141L127.953 93.2547C127.953 93.2547 130.179 88.6016 128.603 84.6253C129.154 83.6673 130.878 86.6609 130.878 86.6609C130.878 86.6609 131.895 84.5055 130.179 81.2725C128.462 78.0394 130.878 78.0319 130.878 75.6445C130.878 72.6603 126.365 63.1463 131.52 58.8056C136.674 54.465 126.908 40.9003 123.923 34.6606C120.939 28.4208 127.993 26.7929 129.349 23.2662C130.706 19.7396 122.567 11.6005 118.769 9.15884C114.971 6.71721 93.3362 10.2313 90.1652 11.3294Z" fill="url(#paint30_radial_9681_901)"/>
<path d="M90.1652 11.3294C82.7225 13.9069 81.4661 18.1117 75.6333 26.7929C83.454 36.3752 80.5166 52.9728 75.6333 61.0399C76.5513 60.8403 80.03 69.7771 83.2201 69.7771C88.9678 69.7771 88.6086 73.4492 90.1652 74.3274C88.7283 77.3209 91.6022 81.2725 91.6022 79.1171C91.6022 77.3928 93.1189 77.6802 93.8773 78.0394C94.3563 81.1527 97.608 84.1463 96.8709 82.5896C96.2811 81.3443 98.3015 80.4742 99.3855 80.1948C99.0981 83.2602 101.341 84.4257 102.499 84.6253C102.211 82.9968 103.177 80.2746 103.696 79.1171C102.642 81.8951 105.253 85.3038 106.69 86.6609C105.636 84.1702 107.129 82.0308 108.007 81.2725C107.815 83.6673 109.444 85.8626 110.282 86.6609C109.803 84.1702 111.44 81.6716 112.318 80.1948V83.6673C112.318 85.8755 113.625 88.1141 110.282 94.5568C111.858 92.3541 115.377 90.8791 116.095 90.1606C116.574 94.4314 119.623 94.5568 119.623 94.5568C119.623 94.5568 120.055 89.6493 121.874 89.6523C123.693 90.8679 123.375 96.1816 123.375 96.1816L127.222 88.1141L127.953 93.2547C127.953 93.2547 130.179 88.6016 128.603 84.6253C129.154 83.6673 130.878 86.6609 130.878 86.6609C130.878 86.6609 131.895 84.5055 130.179 81.2725C128.462 78.0394 130.878 78.0319 130.878 75.6445C130.878 72.6603 126.365 63.1463 131.52 58.8056C136.674 54.465 126.908 40.9003 123.923 34.6606C120.939 28.4208 127.993 26.7929 129.349 23.2662C130.706 19.7396 122.567 11.6005 118.769 9.15884C114.971 6.71721 93.3362 10.2313 90.1652 11.3294Z" fill="url(#paint31_radial_9681_901)"/>
<path d="M58.1754 17.7842C57.2507 19.2745 52.1136 29.0357 52.8328 33.3575C54.3246 42.3218 63.7123 34.6101 60.4344 31.8671C58.113 29.9244 58.1754 25.3101 58.1754 23.6708C58.1754 22.0315 59.1001 16.294 58.1754 17.7842Z" fill="url(#paint32_linear_9681_901)"/>
<path d="M58.1754 17.7842C57.2507 19.2745 52.1136 29.0357 52.8328 33.3575C54.3246 42.3218 63.7123 34.6101 60.4344 31.8671C58.113 29.9244 58.1754 25.3101 58.1754 23.6708C58.1754 22.0315 59.1001 16.294 58.1754 17.7842Z" fill="url(#paint33_radial_9681_901)"/>
<path d="M58.1754 17.7842C57.2507 19.2745 52.1136 29.0357 52.8328 33.3575C54.3246 42.3218 63.7123 34.6101 60.4344 31.8671C58.113 29.9244 58.1754 25.3101 58.1754 23.6708C58.1754 22.0315 59.1001 16.294 58.1754 17.7842Z" fill="url(#paint34_radial_9681_901)"/>
<path d="M47.9268 35.9498C49.3511 33.169 52.7425 30.4561 55.4554 29.6422C57.0606 29.1675 60.0131 28.6385 58.9822 28.1501C57.9513 27.6618 55.7493 27.7206 54.7772 27.811C58.1005 26.3867 62.7125 25.912 63.1872 25.912C62.8617 25.0981 61.4691 24.8946 60.8134 24.8946C64.3402 24.135 66.3975 24.5781 66.9853 24.8946C66.6055 23.8637 65.1541 23.199 64.4759 22.9956C66.4835 22.6157 69.6531 23.7868 70.9869 24.4198C70.6614 23.4432 69.8565 23.0634 69.4948 22.9956C72.6825 23.2668 76.1415 24.6233 79.8039 27.811C83.4664 30.9987 85.908 41.7826 85.908 44.4955C85.908 47.2085 84.6194 52.2952 85.908 55.4829C86.9389 58.033 84.6713 62.6495 83.2922 64.3677C83.9975 63.4996 82.7655 60.0723 82.1777 58.7384C82.8831 60.3662 80.6178 63.8025 79.8039 64.3677C79.8039 62.8485 78.6735 60.5244 77.7014 60.5018C78.2983 61.8583 78.0857 66.994 77.7014 67.7174C77.7557 66.361 76.1379 63.893 75.1431 63.8251C76.1198 66.3753 74.8043 69.239 73.6287 71.2511C73.9 70.6 72.547 68.098 70.9869 68.098C71.3667 69.8343 70.1504 71.7605 69.4948 72.5065C69.4948 70.933 67.8218 70.4492 66.9853 70.404C67.962 72.3573 66.9401 75.2873 66.3071 76.5081C65.4076 73.9194 64.4759 74.8068 63.1872 74.1357C63.133 78.8019 64.0237 79.741 64.4759 80.8488L61.8636 80.1027C62.1349 81.2422 62.8029 83.2904 63.1872 83.7652C61.2882 83.1548 58.0598 81.7848 57.3544 80.1027C56.5413 78.1637 56.5389 74.2412 57.0153 72.1448C56.0884 72.3709 54.0582 72.5608 51.9964 71.6926C49.9346 70.8245 49.4643 69.3414 49.4869 68.7084C47.5201 68.5728 46.0958 66.5381 45.8245 64.3677C45.5532 62.1974 46.5025 56.9072 46.5025 53.9908C46.5025 51.6577 45.2817 52.3404 44.6712 52.9734C44.1829 50.6946 46.6381 47.3667 47.9268 45.9876C47.1671 45.5536 46.6607 46.1685 46.5025 46.5302C46.5567 42.7321 48.8763 37.6228 50.0293 35.5429C48.9984 35.2173 48.1981 35.6785 47.9268 35.9498Z" fill="url(#paint35_radial_9681_901)"/>
<path d="M47.9268 35.9498C49.3511 33.169 52.7425 30.4561 55.4554 29.6422C57.0606 29.1675 60.0131 28.6385 58.9822 28.1501C57.9513 27.6618 55.7493 27.7206 54.7772 27.811C58.1005 26.3867 62.7125 25.912 63.1872 25.912C62.8617 25.0981 61.4691 24.8946 60.8134 24.8946C64.3402 24.135 66.3975 24.5781 66.9853 24.8946C66.6055 23.8637 65.1541 23.199 64.4759 22.9956C66.4835 22.6157 69.6531 23.7868 70.9869 24.4198C70.6614 23.4432 69.8565 23.0634 69.4948 22.9956C72.6825 23.2668 76.1415 24.6233 79.8039 27.811C83.4664 30.9987 85.908 41.7826 85.908 44.4955C85.908 47.2085 84.6194 52.2952 85.908 55.4829C86.9389 58.033 84.6713 62.6495 83.2922 64.3677C83.9975 63.4996 82.7655 60.0723 82.1777 58.7384C82.8831 60.3662 80.6178 63.8025 79.8039 64.3677C79.8039 62.8485 78.6735 60.5244 77.7014 60.5018C78.2983 61.8583 78.0857 66.994 77.7014 67.7174C77.7557 66.361 76.1379 63.893 75.1431 63.8251C76.1198 66.3753 74.8043 69.239 73.6287 71.2511C73.9 70.6 72.547 68.098 70.9869 68.098C71.3667 69.8343 70.1504 71.7605 69.4948 72.5065C69.4948 70.933 67.8218 70.4492 66.9853 70.404C67.962 72.3573 66.9401 75.2873 66.3071 76.5081C65.4076 73.9194 64.4759 74.8068 63.1872 74.1357C63.133 78.8019 64.0237 79.741 64.4759 80.8488L61.8636 80.1027C62.1349 81.2422 62.8029 83.2904 63.1872 83.7652C61.2882 83.1548 58.0598 81.7848 57.3544 80.1027C56.5413 78.1637 56.5389 74.2412 57.0153 72.1448C56.0884 72.3709 54.0582 72.5608 51.9964 71.6926C49.9346 70.8245 49.4643 69.3414 49.4869 68.7084C47.5201 68.5728 46.0958 66.5381 45.8245 64.3677C45.5532 62.1974 46.5025 56.9072 46.5025 53.9908C46.5025 51.6577 45.2817 52.3404 44.6712 52.9734C44.1829 50.6946 46.6381 47.3667 47.9268 45.9876C47.1671 45.5536 46.6607 46.1685 46.5025 46.5302C46.5567 42.7321 48.8763 37.6228 50.0293 35.5429C48.9984 35.2173 48.1981 35.6785 47.9268 35.9498Z" fill="url(#paint36_radial_9681_901)"/>
<path d="M47.9268 35.9498C49.3511 33.169 52.7425 30.4561 55.4554 29.6422C57.0606 29.1675 60.0131 28.6385 58.9822 28.1501C57.9513 27.6618 55.7493 27.7206 54.7772 27.811C58.1005 26.3867 62.7125 25.912 63.1872 25.912C62.8617 25.0981 61.4691 24.8946 60.8134 24.8946C64.3402 24.135 66.3975 24.5781 66.9853 24.8946C66.6055 23.8637 65.1541 23.199 64.4759 22.9956C66.4835 22.6157 69.6531 23.7868 70.9869 24.4198C70.6614 23.4432 69.8565 23.0634 69.4948 22.9956C72.6825 23.2668 76.1415 24.6233 79.8039 27.811C83.4664 30.9987 85.908 41.7826 85.908 44.4955C85.908 47.2085 84.6194 52.2952 85.908 55.4829C86.9389 58.033 84.6713 62.6495 83.2922 64.3677C83.9975 63.4996 82.7655 60.0723 82.1777 58.7384C82.8831 60.3662 80.6178 63.8025 79.8039 64.3677C79.8039 62.8485 78.6735 60.5244 77.7014 60.5018C78.2983 61.8583 78.0857 66.994 77.7014 67.7174C77.7557 66.361 76.1379 63.893 75.1431 63.8251C76.1198 66.3753 74.8043 69.239 73.6287 71.2511C73.9 70.6 72.547 68.098 70.9869 68.098C71.3667 69.8343 70.1504 71.7605 69.4948 72.5065C69.4948 70.933 67.8218 70.4492 66.9853 70.404C67.962 72.3573 66.9401 75.2873 66.3071 76.5081C65.4076 73.9194 64.4759 74.8068 63.1872 74.1357C63.133 78.8019 64.0237 79.741 64.4759 80.8488L61.8636 80.1027C62.1349 81.2422 62.8029 83.2904 63.1872 83.7652C61.2882 83.1548 58.0598 81.7848 57.3544 80.1027C56.5413 78.1637 56.5389 74.2412 57.0153 72.1448C56.0884 72.3709 54.0582 72.5608 51.9964 71.6926C49.9346 70.8245 49.4643 69.3414 49.4869 68.7084C47.5201 68.5728 46.0958 66.5381 45.8245 64.3677C45.5532 62.1974 46.5025 56.9072 46.5025 53.9908C46.5025 51.6577 45.2817 52.3404 44.6712 52.9734C44.1829 50.6946 46.6381 47.3667 47.9268 45.9876C47.1671 45.5536 46.6607 46.1685 46.5025 46.5302C46.5567 42.7321 48.8763 37.6228 50.0293 35.5429C48.9984 35.2173 48.1981 35.6785 47.9268 35.9498Z" fill="url(#paint37_radial_9681_901)"/>
<path d="M47.9268 35.9498C49.3511 33.169 52.7425 30.4561 55.4554 29.6422C57.0606 29.1675 60.0131 28.6385 58.9822 28.1501C57.9513 27.6618 55.7493 27.7206 54.7772 27.811C58.1005 26.3867 62.7125 25.912 63.1872 25.912C62.8617 25.0981 61.4691 24.8946 60.8134 24.8946C64.3402 24.135 66.3975 24.5781 66.9853 24.8946C66.6055 23.8637 65.1541 23.199 64.4759 22.9956C66.4835 22.6157 69.6531 23.7868 70.9869 24.4198C70.6614 23.4432 69.8565 23.0634 69.4948 22.9956C72.6825 23.2668 76.1415 24.6233 79.8039 27.811C83.4664 30.9987 85.908 41.7826 85.908 44.4955C85.908 47.2085 84.6194 52.2952 85.908 55.4829C86.9389 58.033 84.6713 62.6495 83.2922 64.3677C83.9975 63.4996 82.7655 60.0723 82.1777 58.7384C82.8831 60.3662 80.6178 63.8025 79.8039 64.3677C79.8039 62.8485 78.6735 60.5244 77.7014 60.5018C78.2983 61.8583 78.0857 66.994 77.7014 67.7174C77.7557 66.361 76.1379 63.893 75.1431 63.8251C76.1198 66.3753 74.8043 69.239 73.6287 71.2511C73.9 70.6 72.547 68.098 70.9869 68.098C71.3667 69.8343 70.1504 71.7605 69.4948 72.5065C69.4948 70.933 67.8218 70.4492 66.9853 70.404C67.962 72.3573 66.9401 75.2873 66.3071 76.5081C65.4076 73.9194 64.4759 74.8068 63.1872 74.1357C63.133 78.8019 64.0237 79.741 64.4759 80.8488L61.8636 80.1027C62.1349 81.2422 62.8029 83.2904 63.1872 83.7652C61.2882 83.1548 58.0598 81.7848 57.3544 80.1027C56.5413 78.1637 56.5389 74.2412 57.0153 72.1448C56.0884 72.3709 54.0582 72.5608 51.9964 71.6926C49.9346 70.8245 49.4643 69.3414 49.4869 68.7084C47.5201 68.5728 46.0958 66.5381 45.8245 64.3677C45.5532 62.1974 46.5025 56.9072 46.5025 53.9908C46.5025 51.6577 45.2817 52.3404 44.6712 52.9734C44.1829 50.6946 46.6381 47.3667 47.9268 45.9876C47.1671 45.5536 46.6607 46.1685 46.5025 46.5302C46.5567 42.7321 48.8763 37.6228 50.0293 35.5429C48.9984 35.2173 48.1981 35.6785 47.9268 35.9498Z" fill="url(#paint38_radial_9681_901)"/>
<path d="M47.9268 35.9498C49.3511 33.169 52.7425 30.4561 55.4554 29.6422C57.0606 29.1675 60.0131 28.6385 58.9822 28.1501C57.9513 27.6618 55.7493 27.7206 54.7772 27.811C58.1005 26.3867 62.7125 25.912 63.1872 25.912C62.8617 25.0981 61.4691 24.8946 60.8134 24.8946C64.3402 24.135 66.3975 24.5781 66.9853 24.8946C66.6055 23.8637 65.1541 23.199 64.4759 22.9956C66.4835 22.6157 69.6531 23.7868 70.9869 24.4198C70.6614 23.4432 69.8565 23.0634 69.4948 22.9956C72.6825 23.2668 76.1415 24.6233 79.8039 27.811C83.4664 30.9987 85.908 41.7826 85.908 44.4955C85.908 47.2085 84.6194 52.2952 85.908 55.4829C86.9389 58.033 84.6713 62.6495 83.2922 64.3677C83.9975 63.4996 82.7655 60.0723 82.1777 58.7384C82.8831 60.3662 80.6178 63.8025 79.8039 64.3677C79.8039 62.8485 78.6735 60.5244 77.7014 60.5018C78.2983 61.8583 78.0857 66.994 77.7014 67.7174C77.7557 66.361 76.1379 63.893 75.1431 63.8251C76.1198 66.3753 74.8043 69.239 73.6287 71.2511C73.9 70.6 72.547 68.098 70.9869 68.098C71.3667 69.8343 70.1504 71.7605 69.4948 72.5065C69.4948 70.933 67.8218 70.4492 66.9853 70.404C67.962 72.3573 66.9401 75.2873 66.3071 76.5081C65.4076 73.9194 64.4759 74.8068 63.1872 74.1357C63.133 78.8019 64.0237 79.741 64.4759 80.8488L61.8636 80.1027C62.1349 81.2422 62.8029 83.2904 63.1872 83.7652C61.2882 83.1548 58.0598 81.7848 57.3544 80.1027C56.5413 78.1637 56.5389 74.2412 57.0153 72.1448C56.0884 72.3709 54.0582 72.5608 51.9964 71.6926C49.9346 70.8245 49.4643 69.3414 49.4869 68.7084C47.5201 68.5728 46.0958 66.5381 45.8245 64.3677C45.5532 62.1974 46.5025 56.9072 46.5025 53.9908C46.5025 51.6577 45.2817 52.3404 44.6712 52.9734C44.1829 50.6946 46.6381 47.3667 47.9268 45.9876C47.1671 45.5536 46.6607 46.1685 46.5025 46.5302C46.5567 42.7321 48.8763 37.6228 50.0293 35.5429C48.9984 35.2173 48.1981 35.6785 47.9268 35.9498Z" fill="url(#paint39_radial_9681_901)"/>
<path d="M47.9268 35.9498C49.3511 33.169 52.7425 30.4561 55.4554 29.6422C57.0606 29.1675 60.0131 28.6385 58.9822 28.1501C57.9513 27.6618 55.7493 27.7206 54.7772 27.811C58.1005 26.3867 62.7125 25.912 63.1872 25.912C62.8617 25.0981 61.4691 24.8946 60.8134 24.8946C64.3402 24.135 66.3975 24.5781 66.9853 24.8946C66.6055 23.8637 65.1541 23.199 64.4759 22.9956C66.4835 22.6157 69.6531 23.7868 70.9869 24.4198C70.6614 23.4432 69.8565 23.0634 69.4948 22.9956C72.6825 23.2668 76.1415 24.6233 79.8039 27.811C83.4664 30.9987 85.908 41.7826 85.908 44.4955C85.908 47.2085 84.6194 52.2952 85.908 55.4829C86.9389 58.033 84.6713 62.6495 83.2922 64.3677C83.9975 63.4996 82.7655 60.0723 82.1777 58.7384C82.8831 60.3662 80.6178 63.8025 79.8039 64.3677C79.8039 62.8485 78.6735 60.5244 77.7014 60.5018C78.2983 61.8583 78.0857 66.994 77.7014 67.7174C77.7557 66.361 76.1379 63.893 75.1431 63.8251C76.1198 66.3753 74.8043 69.239 73.6287 71.2511C73.9 70.6 72.547 68.098 70.9869 68.098C71.3667 69.8343 70.1504 71.7605 69.4948 72.5065C69.4948 70.933 67.8218 70.4492 66.9853 70.404C67.962 72.3573 66.9401 75.2873 66.3071 76.5081C65.4076 73.9194 64.4759 74.8068 63.1872 74.1357C63.133 78.8019 64.0237 79.741 64.4759 80.8488L61.8636 80.1027C62.1349 81.2422 62.8029 83.2904 63.1872 83.7652C61.2882 83.1548 58.0598 81.7848 57.3544 80.1027C56.5413 78.1637 56.5389 74.2412 57.0153 72.1448C56.0884 72.3709 54.0582 72.5608 51.9964 71.6926C49.9346 70.8245 49.4643 69.3414 49.4869 68.7084C47.5201 68.5728 46.0958 66.5381 45.8245 64.3677C45.5532 62.1974 46.5025 56.9072 46.5025 53.9908C46.5025 51.6577 45.2817 52.3404 44.6712 52.9734C44.1829 50.6946 46.6381 47.3667 47.9268 45.9876C47.1671 45.5536 46.6607 46.1685 46.5025 46.5302C46.5567 42.7321 48.8763 37.6228 50.0293 35.5429C48.9984 35.2173 48.1981 35.6785 47.9268 35.9498Z" fill="url(#paint40_radial_9681_901)"/>
<path d="M47.9268 35.9498C49.3511 33.169 52.7425 30.4561 55.4554 29.6422C57.0606 29.1675 60.0131 28.6385 58.9822 28.1501C57.9513 27.6618 55.7493 27.7206 54.7772 27.811C58.1005 26.3867 62.7125 25.912 63.1872 25.912C62.8617 25.0981 61.4691 24.8946 60.8134 24.8946C64.3402 24.135 66.3975 24.5781 66.9853 24.8946C66.6055 23.8637 65.1541 23.199 64.4759 22.9956C66.4835 22.6157 69.6531 23.7868 70.9869 24.4198C70.6614 23.4432 69.8565 23.0634 69.4948 22.9956C72.6825 23.2668 76.1415 24.6233 79.8039 27.811C83.4664 30.9987 85.908 41.7826 85.908 44.4955C85.908 47.2085 84.6194 52.2952 85.908 55.4829C86.9389 58.033 84.6713 62.6495 83.2922 64.3677C83.9975 63.4996 82.7655 60.0723 82.1777 58.7384C82.8831 60.3662 80.6178 63.8025 79.8039 64.3677C79.8039 62.8485 78.6735 60.5244 77.7014 60.5018C78.2983 61.8583 78.0857 66.994 77.7014 67.7174C77.7557 66.361 76.1379 63.893 75.1431 63.8251C76.1198 66.3753 74.8043 69.239 73.6287 71.2511C73.9 70.6 72.547 68.098 70.9869 68.098C71.3667 69.8343 70.1504 71.7605 69.4948 72.5065C69.4948 70.933 67.8218 70.4492 66.9853 70.404C67.962 72.3573 66.9401 75.2873 66.3071 76.5081C65.4076 73.9194 64.4759 74.8068 63.1872 74.1357C63.133 78.8019 64.0237 79.741 64.4759 80.8488L61.8636 80.1027C62.1349 81.2422 62.8029 83.2904 63.1872 83.7652C61.2882 83.1548 58.0598 81.7848 57.3544 80.1027C56.5413 78.1637 56.5389 74.2412 57.0153 72.1448C56.0884 72.3709 54.0582 72.5608 51.9964 71.6926C49.9346 70.8245 49.4643 69.3414 49.4869 68.7084C47.5201 68.5728 46.0958 66.5381 45.8245 64.3677C45.5532 62.1974 46.5025 56.9072 46.5025 53.9908C46.5025 51.6577 45.2817 52.3404 44.6712 52.9734C44.1829 50.6946 46.6381 47.3667 47.9268 45.9876C47.1671 45.5536 46.6607 46.1685 46.5025 46.5302C46.5567 42.7321 48.8763 37.6228 50.0293 35.5429C48.9984 35.2173 48.1981 35.6785 47.9268 35.9498Z" fill="url(#paint41_radial_9681_901)"/>
<path d="M47.9268 35.9498C49.3511 33.169 52.7425 30.4561 55.4554 29.6422C57.0606 29.1675 60.0131 28.6385 58.9822 28.1501C57.9513 27.6618 55.7493 27.7206 54.7772 27.811C58.1005 26.3867 62.7125 25.912 63.1872 25.912C62.8617 25.0981 61.4691 24.8946 60.8134 24.8946C64.3402 24.135 66.3975 24.5781 66.9853 24.8946C66.6055 23.8637 65.1541 23.199 64.4759 22.9956C66.4835 22.6157 69.6531 23.7868 70.9869 24.4198C70.6614 23.4432 69.8565 23.0634 69.4948 22.9956C72.6825 23.2668 76.1415 24.6233 79.8039 27.811C83.4664 30.9987 85.908 41.7826 85.908 44.4955C85.908 47.2085 84.6194 52.2952 85.908 55.4829C86.9389 58.033 84.6713 62.6495 83.2922 64.3677C83.9975 63.4996 82.7655 60.0723 82.1777 58.7384C82.8831 60.3662 80.6178 63.8025 79.8039 64.3677C79.8039 62.8485 78.6735 60.5244 77.7014 60.5018C78.2983 61.8583 78.0857 66.994 77.7014 67.7174C77.7557 66.361 76.1379 63.893 75.1431 63.8251C76.1198 66.3753 74.8043 69.239 73.6287 71.2511C73.9 70.6 72.547 68.098 70.9869 68.098C71.3667 69.8343 70.1504 71.7605 69.4948 72.5065C69.4948 70.933 67.8218 70.4492 66.9853 70.404C67.962 72.3573 66.9401 75.2873 66.3071 76.5081C65.4076 73.9194 64.4759 74.8068 63.1872 74.1357C63.133 78.8019 64.0237 79.741 64.4759 80.8488L61.8636 80.1027C62.1349 81.2422 62.8029 83.2904 63.1872 83.7652C61.2882 83.1548 58.0598 81.7848 57.3544 80.1027C56.5413 78.1637 56.5389 74.2412 57.0153 72.1448C56.0884 72.3709 54.0582 72.5608 51.9964 71.6926C49.9346 70.8245 49.4643 69.3414 49.4869 68.7084C47.5201 68.5728 46.0958 66.5381 45.8245 64.3677C45.5532 62.1974 46.5025 56.9072 46.5025 53.9908C46.5025 51.6577 45.2817 52.3404 44.6712 52.9734C44.1829 50.6946 46.6381 47.3667 47.9268 45.9876C47.1671 45.5536 46.6607 46.1685 46.5025 46.5302C46.5567 42.7321 48.8763 37.6228 50.0293 35.5429C48.9984 35.2173 48.1981 35.6785 47.9268 35.9498Z" fill="url(#paint42_radial_9681_901)"/>
<path d="M47.9268 35.9498C49.3511 33.169 52.7425 30.4561 55.4554 29.6422C57.0606 29.1675 60.0131 28.6385 58.9822 28.1501C57.9513 27.6618 55.7493 27.7206 54.7772 27.811C58.1005 26.3867 62.7125 25.912 63.1872 25.912C62.8617 25.0981 61.4691 24.8946 60.8134 24.8946C64.3402 24.135 66.3975 24.5781 66.9853 24.8946C66.6055 23.8637 65.1541 23.199 64.4759 22.9956C66.4835 22.6157 69.6531 23.7868 70.9869 24.4198C70.6614 23.4432 69.8565 23.0634 69.4948 22.9956C72.6825 23.2668 76.1415 24.6233 79.8039 27.811C83.4664 30.9987 85.908 41.7826 85.908 44.4955C85.908 47.2085 84.6194 52.2952 85.908 55.4829C86.9389 58.033 84.6713 62.6495 83.2922 64.3677C83.9975 63.4996 82.7655 60.0723 82.1777 58.7384C82.8831 60.3662 80.6178 63.8025 79.8039 64.3677C79.8039 62.8485 78.6735 60.5244 77.7014 60.5018C78.2983 61.8583 78.0857 66.994 77.7014 67.7174C77.7557 66.361 76.1379 63.893 75.1431 63.8251C76.1198 66.3753 74.8043 69.239 73.6287 71.2511C73.9 70.6 72.547 68.098 70.9869 68.098C71.3667 69.8343 70.1504 71.7605 69.4948 72.5065C69.4948 70.933 67.8218 70.4492 66.9853 70.404C67.962 72.3573 66.9401 75.2873 66.3071 76.5081C65.4076 73.9194 64.4759 74.8068 63.1872 74.1357C63.133 78.8019 64.0237 79.741 64.4759 80.8488L61.8636 80.1027C62.1349 81.2422 62.8029 83.2904 63.1872 83.7652C61.2882 83.1548 58.0598 81.7848 57.3544 80.1027C56.5413 78.1637 56.5389 74.2412 57.0153 72.1448C56.0884 72.3709 54.0582 72.5608 51.9964 71.6926C49.9346 70.8245 49.4643 69.3414 49.4869 68.7084C47.5201 68.5728 46.0958 66.5381 45.8245 64.3677C45.5532 62.1974 46.5025 56.9072 46.5025 53.9908C46.5025 51.6577 45.2817 52.3404 44.6712 52.9734C44.1829 50.6946 46.6381 47.3667 47.9268 45.9876C47.1671 45.5536 46.6607 46.1685 46.5025 46.5302C46.5567 42.7321 48.8763 37.6228 50.0293 35.5429C48.9984 35.2173 48.1981 35.6785 47.9268 35.9498Z" fill="url(#paint43_radial_9681_901)"/>
<path d="M47.9268 35.9498C49.3511 33.169 52.7425 30.4561 55.4554 29.6422C57.0606 29.1675 60.0131 28.6385 58.9822 28.1501C57.9513 27.6618 55.7493 27.7206 54.7772 27.811C58.1005 26.3867 62.7125 25.912 63.1872 25.912C62.8617 25.0981 61.4691 24.8946 60.8134 24.8946C64.3402 24.135 66.3975 24.5781 66.9853 24.8946C66.6055 23.8637 65.1541 23.199 64.4759 22.9956C66.4835 22.6157 69.6531 23.7868 70.9869 24.4198C70.6614 23.4432 69.8565 23.0634 69.4948 22.9956C72.6825 23.2668 76.1415 24.6233 79.8039 27.811C83.4664 30.9987 85.908 41.7826 85.908 44.4955C85.908 47.2085 84.6194 52.2952 85.908 55.4829C86.9389 58.033 84.6713 62.6495 83.2922 64.3677C83.9975 63.4996 82.7655 60.0723 82.1777 58.7384C82.8831 60.3662 80.6178 63.8025 79.8039 64.3677C79.8039 62.8485 78.6735 60.5244 77.7014 60.5018C78.2983 61.8583 78.0857 66.994 77.7014 67.7174C77.7557 66.361 76.1379 63.893 75.1431 63.8251C76.1198 66.3753 74.8043 69.239 73.6287 71.2511C73.9 70.6 72.547 68.098 70.9869 68.098C71.3667 69.8343 70.1504 71.7605 69.4948 72.5065C69.4948 70.933 67.8218 70.4492 66.9853 70.404C67.962 72.3573 66.9401 75.2873 66.3071 76.5081C65.4076 73.9194 64.4759 74.8068 63.1872 74.1357C63.133 78.8019 64.0237 79.741 64.4759 80.8488L61.8636 80.1027C62.1349 81.2422 62.8029 83.2904 63.1872 83.7652C61.2882 83.1548 58.0598 81.7848 57.3544 80.1027C56.5413 78.1637 56.5389 74.2412 57.0153 72.1448C56.0884 72.3709 54.0582 72.5608 51.9964 71.6926C49.9346 70.8245 49.4643 69.3414 49.4869 68.7084C47.5201 68.5728 46.0958 66.5381 45.8245 64.3677C45.5532 62.1974 46.5025 56.9072 46.5025 53.9908C46.5025 51.6577 45.2817 52.3404 44.6712 52.9734C44.1829 50.6946 46.6381 47.3667 47.9268 45.9876C47.1671 45.5536 46.6607 46.1685 46.5025 46.5302C46.5567 42.7321 48.8763 37.6228 50.0293 35.5429C48.9984 35.2173 48.1981 35.6785 47.9268 35.9498Z" fill="url(#paint44_radial_9681_901)"/>
<path d="M83.439 38.3427C79.8633 35.7274 74.7885 39.5464 74.353 40.9011C75.8239 41.6758 75.6755 43.5458 75.4175 44.384C76.2884 44.6421 78.572 44.742 80.7396 43.0777C82.9072 41.4133 84.3629 39.906 83.439 38.3427Z" fill="url(#paint45_radial_9681_901)"/>
<path d="M65.4004 41.5419C61.6734 40.401 55.5885 42.4546 56.4252 49.4523C58.7066 51.05 62.1302 50.6689 64.5642 49.4523C66.9981 48.2357 69.1274 42.6828 65.4004 41.5419Z" fill="url(#paint46_linear_9681_901)"/>
<path d="M60.1364 47.005C59.9103 46.0555 60.2042 44.1836 63.1884 44.2921C63.4598 45.4904 63.2294 47.7106 60.1364 47.005Z" fill="#2F1E0E"/>
<path d="M60.1364 47.005C59.9103 46.0555 60.2042 44.1836 63.1884 44.2921C63.4598 45.4904 63.2294 47.7106 60.1364 47.005Z" fill="url(#paint47_radial_9681_901)"/>
<path d="M58.4912 48.9041C58.0271 46.9549 58.6305 43.1122 64.7565 43.335C65.3137 45.7949 64.8407 50.3526 58.4912 48.9041Z" fill="#2F1E0E"/>
<path d="M58.4912 48.9041C58.0271 46.9549 58.6305 43.1122 64.7565 43.335C65.3137 45.7949 64.8407 50.3526 58.4912 48.9041Z" fill="url(#paint48_radial_9681_901)"/>
<path d="M45.4404 66.8793C44.0418 65.5584 44.5492 62.6843 45.8651 61.965C45.8651 61.965 46.5648 62.1486 47.4217 61.965C49.597 61.4989 51.5783 60.1972 51.5783 60.8188C51.5783 61.4404 52.9371 67.1126 52.3155 67.9672C51.6939 68.8219 50.6647 69.3465 49.4992 69.5019C48.3337 69.6573 46.839 68.2002 45.4404 66.8793Z" fill="url(#paint49_radial_9681_901)"/>
<path d="M45.4404 66.8793C44.0418 65.5584 44.5492 62.6843 45.8651 61.965C45.8651 61.965 46.5648 62.1486 47.4217 61.965C49.597 61.4989 51.5783 60.1972 51.5783 60.8188C51.5783 61.4404 52.9371 67.1126 52.3155 67.9672C51.6939 68.8219 50.6647 69.3465 49.4992 69.5019C48.3337 69.6573 46.839 68.2002 45.4404 66.8793Z" fill="url(#paint50_radial_9681_901)"/>
<path d="M47.4322 64.6697C47.7754 64.273 50.0466 63.6709 50.8378 63.0493C51.3461 63.7428 50.4051 66.9805 49.6053 67.1191C48.8003 67.2586 47.1986 65.3548 47.4322 64.6697Z" fill="black" fill-opacity="0.33"/>
<path d="M51.4957 70.4631C53.0742 69.979 54.757 67.4956 55.0306 67.4956C55.3042 67.4956 55.2587 67.9932 54.6952 69.2845C54.1901 70.442 53.288 71.2281 52.5907 71.4943C51.3915 71.7469 50.6184 70.7321 51.4957 70.4631Z" fill="#D49747" fill-opacity="0.22"/>
<path d="M51.4957 70.4631C53.0742 69.979 54.757 67.4956 55.0306 67.4956C55.3042 67.4956 55.2587 67.9932 54.6952 69.2845C54.1901 70.442 53.288 71.2281 52.5907 71.4943C51.3915 71.7469 50.6184 70.7321 51.4957 70.4631Z" fill="#38220F"/>
<path d="M67.5641 37.9837C64.7818 35.5287 64.9458 32.4189 66.5002 30.3733C66.9912 30.3733 68.7563 31.1407 70.4286 29.9639C72.7374 28.3392 72.2279 22.7628 72.2279 20.9625C72.2279 19.1622 71.4914 12.8611 72.2279 14.4977C72.9644 16.1344 77.0561 26.8545 76.4832 31.6007C75.9104 36.3471 70.3465 40.4387 67.5641 37.9837Z" fill="url(#paint51_linear_9681_901)"/>
<path d="M67.5641 37.9837C64.7818 35.5287 64.9458 32.4189 66.5002 30.3733C66.9912 30.3733 68.7563 31.1407 70.4286 29.9639C72.7374 28.3392 72.2279 22.7628 72.2279 20.9625C72.2279 19.1622 71.4914 12.8611 72.2279 14.4977C72.9644 16.1344 77.0561 26.8545 76.4832 31.6007C75.9104 36.3471 70.3465 40.4387 67.5641 37.9837Z" fill="url(#paint52_radial_9681_901)"/>
<path d="M67.5641 37.9837C64.7818 35.5287 64.9458 32.4189 66.5002 30.3733C66.9912 30.3733 68.7563 31.1407 70.4286 29.9639C72.7374 28.3392 72.2279 22.7628 72.2279 20.9625C72.2279 19.1622 71.4914 12.8611 72.2279 14.4977C72.9644 16.1344 77.0561 26.8545 76.4832 31.6007C75.9104 36.3471 70.3465 40.4387 67.5641 37.9837Z" fill="url(#paint53_radial_9681_901)"/>
<defs>
<linearGradient id="paint0_linear_9681_901" x1="161.538" y1="24.8078" x2="193.846" y2="171.346" gradientUnits="userSpaceOnUse">
<stop stop-color="#FFC470"/>
<stop offset="1" stop-color="#498C4A"/>
</linearGradient>
<radialGradient id="paint1_radial_9681_901" cx="0" cy="0" r="1" gradientUnits="userSpaceOnUse" gradientTransform="translate(94.7445 93.1166) rotate(1.0634) scale(116.91 18.595)">
<stop stop-color="#FFD394" stop-opacity="0.66"/>
<stop offset="1" stop-color="#FFC7A3" stop-opacity="0"/>
</radialGradient>
<radialGradient id="paint2_radial_9681_901" cx="0" cy="0" r="1" gradientUnits="userSpaceOnUse" gradientTransform="translate(131.238 107.018) scale(63.7579 6.48926)">
<stop stop-opacity="0.45"/>
<stop offset="1" stop-opacity="0"/>
</radialGradient>
<linearGradient id="paint3_linear_9681_901" x1="155.604" y1="55.2832" x2="155.604" y2="107.016" gradientUnits="userSpaceOnUse">
<stop stop-color="#B7713F"/>
<stop offset="1" stop-color="#563017"/>
</linearGradient>
<radialGradient id="paint4_radial_9681_901" cx="0" cy="0" r="1" gradientUnits="userSpaceOnUse" gradientTransform="translate(157.563 96.7857) rotate(112.135) scale(17.2799 13.85)">
<stop stop-color="#FF9359" stop-opacity="0.77"/>
<stop offset="1" stop-color="#FF9359" stop-opacity="0"/>
</radialGradient>
<linearGradient id="paint5_linear_9681_901" x1="153.735" y1="101.172" x2="153.735" y2="107.016" gradientUnits="userSpaceOnUse">
<stop stop-color="#563017" stop-opacity="0"/>
<stop offset="1" stop-color="#563017"/>
</linearGradient>
<linearGradient id="paint6_linear_9681_901" x1="86.1521" y1="77.7832" x2="86.1521" y2="106.966" gradientUnits="userSpaceOnUse">
<stop stop-color="#B7713F"/>
<stop offset="1" stop-color="#563017"/>
</linearGradient>
<radialGradient id="paint7_radial_9681_901" cx="0" cy="0" r="1" gradientUnits="userSpaceOnUse" gradientTransform="translate(79.1596 98.6855) rotate(23.1115) scale(7.60269 11.368)">
<stop stop-color="#FF9359" stop-opacity="0.77"/>
<stop offset="1" stop-color="#FF9359" stop-opacity="0"/>
</radialGradient>
<linearGradient id="paint8_linear_9681_901" x1="84.4013" y1="103.669" x2="84.4013" y2="106.966" gradientUnits="userSpaceOnUse">
<stop stop-color="#563017" stop-opacity="0"/>
<stop offset="1" stop-color="#563017"/>
</linearGradient>
<radialGradient id="paint9_radial_9681_901" cx="0" cy="0" r="1" gradientUnits="userSpaceOnUse" gradientTransform="translate(89.7742 74.7116) rotate(104.086) scale(25.7764 41.2068)">
<stop stop-color="#54381A"/>
<stop offset="0.762467" stop-color="#A85022"/>
<stop offset="1" stop-color="#E07F39"/>
</radialGradient>
<radialGradient id="paint10_radial_9681_901" cx="0" cy="0" r="1" gradientUnits="userSpaceOnUse" gradientTransform="translate(85.3848 80.7693) rotate(26.5651) scale(10.3203 16.7705)">
<stop offset="0.33125" stop-color="#FF9359" stop-opacity="0.45"/>
<stop offset="0.764423" stop-color="#FF9359" stop-opacity="0"/>
</radialGradient>
<linearGradient id="paint11_linear_9681_901" x1="133.564" y1="8.70801" x2="133.564" y2="73.2731" gradientUnits="userSpaceOnUse">
<stop stop-color="#B7713F"/>
<stop offset="1" stop-color="#563017"/>
</linearGradient>
<linearGradient id="paint12_linear_9681_901" x1="133.564" y1="8.70801" x2="133.564" y2="73.2731" gradientUnits="userSpaceOnUse">
<stop stop-color="#CC7E46"/>
<stop offset="1" stop-color="#73401F"/>
</linearGradient>
<radialGradient id="paint13_radial_9681_901" cx="0" cy="0" r="1" gradientUnits="userSpaceOnUse" gradientTransform="translate(143.455 32.2183) rotate(-73.6518) scale(21.2043 37.2782)">
<stop stop-color="#FF9359" stop-opacity="0.66"/>
<stop offset="1" stop-color="#FF9359" stop-opacity="0"/>
</radialGradient>
<radialGradient id="paint14_radial_9681_901" cx="0" cy="0" r="1" gradientUnits="userSpaceOnUse" gradientTransform="translate(145.383 78.4616) rotate(-90) scale(16.1538 28.3993)">
<stop stop-color="#FF9359" stop-opacity="0.66"/>
<stop offset="1" stop-color="#FF9359" stop-opacity="0"/>
</radialGradient>
<linearGradient id="paint15_linear_9681_901" x1="181.287" y1="32.8237" x2="181.287" y2="69.8994" gradientUnits="userSpaceOnUse">
<stop stop-color="#D7833F"/>
<stop offset="1" stop-color="#8C746A"/>
</linearGradient>
<radialGradient id="paint16_radial_9681_901" cx="0" cy="0" r="1" gradientUnits="userSpaceOnUse" gradientTransform="translate(190.593 52.3291) rotate(90) scale(16.6562 7.21933)">
<stop stop-color="#FF9359" stop-opacity="0.77"/>
<stop offset="1" stop-color="#FF9359" stop-opacity="0"/>
</radialGradient>
<linearGradient id="paint17_linear_9681_901" x1="176.078" y1="30.0225" x2="176.078" y2="109.777" gradientUnits="userSpaceOnUse">
<stop stop-color="#B7713F"/>
<stop offset="1" stop-color="#563017"/>
</linearGradient>
<radialGradient id="paint18_radial_9681_901" cx="0" cy="0" r="1" gradientUnits="userSpaceOnUse" gradientTransform="translate(179.278 59.0637) rotate(-85.606) scale(25.2078 12.5338)">
<stop stop-color="#FF9359" stop-opacity="0.66"/>
<stop offset="1" stop-color="#FF9359" stop-opacity="0"/>
</radialGradient>
<radialGradient id="paint19_radial_9681_901" cx="0" cy="0" r="1" gradientUnits="userSpaceOnUse" gradientTransform="translate(184.42 92.4463) rotate(74.3578) scale(14.0864 16.9496)">
<stop stop-color="#FF9359" stop-opacity="0.66"/>
<stop offset="1" stop-color="#FF9359" stop-opacity="0"/>
</radialGradient>
<linearGradient id="paint20_linear_9681_901" x1="182.739" y1="106.586" x2="184.182" y2="111.202" gradientUnits="userSpaceOnUse">
<stop stop-color="#563017" stop-opacity="0"/>
<stop offset="0.699287" stop-color="#4C2912"/>
</linearGradient>
<linearGradient id="paint21_linear_9681_901" x1="119.083" y1="78.0269" x2="119.083" y2="111.688" gradientUnits="userSpaceOnUse">
<stop stop-color="#B7713F"/>
<stop offset="1" stop-color="#563017"/>
</linearGradient>
<radialGradient id="paint22_radial_9681_901" cx="0" cy="0" r="1" gradientUnits="userSpaceOnUse" gradientTransform="translate(111.805 102.136) rotate(25.3109) scale(8.05121 12.8879)">
<stop stop-color="#FF9359" stop-opacity="0.77"/>
<stop offset="1" stop-color="#FF9359" stop-opacity="0"/>
</radialGradient>
<linearGradient id="paint23_linear_9681_901" x1="117.261" y1="107.885" x2="117.261" y2="111.688" gradientUnits="userSpaceOnUse">
<stop stop-color="#563017" stop-opacity="0"/>
<stop offset="1" stop-color="#563017"/>
</linearGradient>
<linearGradient id="paint24_linear_9681_901" x1="106.697" y1="35.6099" x2="131.792" y2="33.8465" gradientUnits="userSpaceOnUse">
<stop stop-color="#2A1C0D"/>
<stop offset="1" stop-color="#2A1C0D" stop-opacity="0"/>
</linearGradient>
<radialGradient id="paint25_radial_9681_901" cx="0" cy="0" r="1" gradientUnits="userSpaceOnUse" gradientTransform="translate(101.676 19.7396) rotate(105.325) scale(58.5094 89.6487)">
<stop stop-color="#E07F39"/>
<stop offset="0.596154" stop-color="#A85022"/>
<stop offset="1" stop-color="#402A14"/>
</radialGradient>
<radialGradient id="paint26_radial_9681_901" cx="0" cy="0" r="1" gradientUnits="userSpaceOnUse" gradientTransform="translate(104.313 19.6769) rotate(73.6299) scale(25.2664 67.6461)">
<stop stop-color="#E0A44E"/>
<stop offset="1" stop-color="#E0A44E" stop-opacity="0"/>
</radialGradient>
<radialGradient id="paint27_radial_9681_901" cx="0" cy="0" r="1" gradientUnits="userSpaceOnUse" gradientTransform="translate(114.559 43.4389) rotate(-26.6087) scale(20.619 35.7139)">
<stop offset="0.141742" stop-color="#E0A44E" stop-opacity="0.55"/>
<stop offset="1" stop-color="#E0A44E" stop-opacity="0"/>
</radialGradient>
<radialGradient id="paint28_radial_9681_901" cx="0" cy="0" r="1" gradientUnits="userSpaceOnUse" gradientTransform="translate(119.134 85.9615) rotate(4.08563) scale(8.0975 21.816)">
<stop stop-color="#FF9359" stop-opacity="0.45"/>
<stop offset="0.764423" stop-color="#FF9359" stop-opacity="0"/>
</radialGradient>
<radialGradient id="paint29_radial_9681_901" cx="0" cy="0" r="1" gradientUnits="userSpaceOnUse" gradientTransform="translate(72.1054 44.4272) rotate(42.7688) scale(29.5647 20.2685)">
<stop stop-color="#2A1C0D"/>
<stop offset="1" stop-color="#2A1C0D" stop-opacity="0"/>
</radialGradient>
<radialGradient id="paint30_radial_9681_901" cx="0" cy="0" r="1" gradientUnits="userSpaceOnUse" gradientTransform="translate(101.537 78.4615) rotate(-63.4349) scale(15.4805 34.5294)">
<stop stop-color="#FF9359" stop-opacity="0.44"/>
<stop offset="1" stop-color="#FF9359" stop-opacity="0"/>
</radialGradient>
<radialGradient id="paint31_radial_9681_901" cx="0" cy="0" r="1" gradientUnits="userSpaceOnUse" gradientTransform="translate(78.4604 71.5384) rotate(-33.6901) scale(16.641 35.4021)">
<stop offset="0.0216347" stop-color="#FF9359" stop-opacity="0.66"/>
<stop offset="0.963942" stop-color="#FF9359" stop-opacity="0"/>
</radialGradient>
<linearGradient id="paint32_linear_9681_901" x1="56.9443" y1="17.5396" x2="56.9443" y2="37.5699" gradientUnits="userSpaceOnUse">
<stop stop-color="#FFE4BE"/>
<stop offset="1" stop-color="#E79E63"/>
</linearGradient>
<radialGradient id="paint33_radial_9681_901" cx="0" cy="0" r="1" gradientUnits="userSpaceOnUse" gradientTransform="translate(59.5497 25.892) rotate(-170.675) scale(5.51827 24.4343)">
<stop stop-color="#A35F28"/>
<stop offset="0.632363" stop-color="#A35F28" stop-opacity="0"/>
</radialGradient>
<radialGradient id="paint34_radial_9681_901" cx="0" cy="0" r="1" gradientUnits="userSpaceOnUse" gradientTransform="translate(59.9443 29.4052) rotate(123.008) scale(5.5071 8.87946)">
<stop offset="0.544011" stop-color="#FFE4BE"/>
<stop offset="1" stop-color="#FFE4BE" stop-opacity="0"/>
</radialGradient>
<radialGradient id="paint35_radial_9681_901" cx="0" cy="0" r="1" gradientUnits="userSpaceOnUse" gradientTransform="translate(63.4684 30.8468) rotate(106.554) scale(39.3054 64.5286)">
<stop stop-color="#BD6B30"/>
<stop offset="0.596154" stop-color="#89411C"/>
<stop offset="1" stop-color="#2A1C0D"/>
</radialGradient>
<radialGradient id="paint36_radial_9681_901" cx="0" cy="0" r="1" gradientUnits="userSpaceOnUse" gradientTransform="translate(63.4684 30.8468) rotate(106.554) scale(39.3054 64.5286)">
<stop stop-color="#995727"/>
<stop offset="0.596154" stop-color="#663015"/>
<stop offset="1" stop-color="#2A1C0D"/>
</radialGradient>
<radialGradient id="paint37_radial_9681_901" cx="0" cy="0" r="1" gradientUnits="userSpaceOnUse" gradientTransform="translate(63.4684 30.8468) rotate(106.554) scale(39.3054 64.5286)">
<stop stop-color="#D17635"/>
<stop offset="0.596154" stop-color="#BA5826"/>
<stop offset="1" stop-color="#7F5324"/>
</radialGradient>
<radialGradient id="paint38_radial_9681_901" cx="0" cy="0" r="1" gradientUnits="userSpaceOnUse" gradientTransform="translate(47.7382 49.6165) rotate(6.91123) scale(9.58891 38.7071)">
<stop stop-color="#E0A44E" stop-opacity="0.88"/>
<stop offset="1" stop-color="#E0A44E" stop-opacity="0"/>
</radialGradient>
<radialGradient id="paint39_radial_9681_901" cx="0" cy="0" r="1" gradientUnits="userSpaceOnUse" gradientTransform="translate(62.812 48.0902) rotate(-124.903) scale(7.11207)">
<stop stop-color="#E0A44E" stop-opacity="0.45"/>
<stop offset="1" stop-color="#E0A44E" stop-opacity="0"/>
</radialGradient>
<radialGradient id="paint40_radial_9681_901" cx="0" cy="0" r="1" gradientUnits="userSpaceOnUse" gradientTransform="translate(58.8783 78.6106) rotate(-29.3578) scale(6.22535 11.6186)">
<stop stop-color="#E0A44E" stop-opacity="0.55"/>
<stop offset="1" stop-color="#E0A44E" stop-opacity="0"/>
</radialGradient>
<radialGradient id="paint41_radial_9681_901" cx="0" cy="0" r="1" gradientUnits="userSpaceOnUse" gradientTransform="translate(52.427 72.035) rotate(-58.7362) scale(3.41275 6.58535)">
<stop offset="0.0468749" stop-color="#E0A44E" stop-opacity="0.55"/>
<stop offset="1" stop-color="#E0A44E" stop-opacity="0"/>
</radialGradient>
<radialGradient id="paint42_radial_9681_901" cx="0" cy="0" r="1" gradientUnits="userSpaceOnUse" gradientTransform="translate(48.4605 71.5384) rotate(-36.8699) scale(23.0769 45.1259)">
<stop stop-color="#E6854F" stop-opacity="0.88"/>
<stop offset="1" stop-color="#E6854F" stop-opacity="0"/>
</radialGradient>
<radialGradient id="paint43_radial_9681_901" cx="0" cy="0" r="1" gradientUnits="userSpaceOnUse" gradientTransform="translate(64.6143 50.7692) rotate(180) scale(20.7692 20.7692)">
<stop stop-color="#E0A44E" stop-opacity="0.88"/>
<stop offset="1" stop-color="#E0A44E" stop-opacity="0"/>
</radialGradient>
<radialGradient id="paint44_radial_9681_901" cx="0" cy="0" r="1" gradientUnits="userSpaceOnUse" gradientTransform="translate(87.5675 47.4119) rotate(157.568) scale(14.8458 33.1881)">
<stop stop-color="#2A1C0D" stop-opacity="0.8"/>
<stop offset="1" stop-color="#2A1C0D" stop-opacity="0"/>
</radialGradient>
<radialGradient id="paint45_radial_9681_901" cx="0" cy="0" r="1" gradientUnits="userSpaceOnUse" gradientTransform="translate(76.2877 43.8073) rotate(-42.1087) scale(8.44808 5.51169)">
<stop offset="0.588371" stop-color="#A65928"/>
<stop offset="1" stop-color="#E19A52"/>
</radialGradient>
<linearGradient id="paint46_linear_9681_901" x1="61.8826" y1="41.2479" x2="66.7307" y2="51.9642" gradientUnits="userSpaceOnUse">
<stop stop-color="#B46F38"/>
<stop offset="1" stop-color="#8A4715" stop-opacity="0"/>
</linearGradient>
<radialGradient id="paint47_radial_9681_901" cx="0" cy="0" r="1" gradientUnits="userSpaceOnUse" gradientTransform="translate(61.5253 45.1057) rotate(83.122) scale(1.24675 1.3966)">
<stop stop-color="#F8E1E1"/>
<stop offset="1" stop-color="#F8E1E1" stop-opacity="0"/>
</radialGradient>
<radialGradient id="paint48_radial_9681_901" cx="0" cy="0" r="1" gradientUnits="userSpaceOnUse" gradientTransform="translate(61.3414 45.0074) rotate(83.122) scale(2.55935 2.86698)">
<stop stop-color="#F8E1E1"/>
<stop offset="1" stop-color="#F8E1E1" stop-opacity="0"/>
</radialGradient>
<radialGradient id="paint49_radial_9681_901" cx="0" cy="0" r="1" gradientUnits="userSpaceOnUse" gradientTransform="translate(46.4603 62.9112) rotate(24.2076) scale(9.78457 16.2033)">
<stop stop-color="#F4A759"/>
<stop offset="0.582969" stop-color="#8F4800"/>
<stop offset="1" stop-color="#4D2802"/>
</radialGradient>
<radialGradient id="paint50_radial_9681_901" cx="0" cy="0" r="1" gradientUnits="userSpaceOnUse" gradientTransform="translate(47.9973 63.9373) rotate(75.8809) scale(2.22342 4.72476)">
<stop stop-color="#FFE4BE" stop-opacity="0.55"/>
<stop offset="1" stop-color="#FFE4BE" stop-opacity="0"/>
</radialGradient>
<linearGradient id="paint51_linear_9681_901" x1="70.9631" y1="14.2313" x2="70.9631" y2="38.7212" gradientUnits="userSpaceOnUse">
<stop stop-color="#FFE4BE"/>
<stop offset="1" stop-color="#E79E63"/>
</linearGradient>
<radialGradient id="paint52_radial_9681_901" cx="0" cy="0" r="1" gradientUnits="userSpaceOnUse" gradientTransform="translate(75.0636 23.4195) rotate(171.607) scale(5.04584 20.5477)">
<stop stop-color="#A35F28"/>
<stop offset="0.632363" stop-color="#A35F28" stop-opacity="0"/>
</radialGradient>
<radialGradient id="paint53_radial_9681_901" cx="0" cy="0" r="1" gradientUnits="userSpaceOnUse" gradientTransform="translate(66.9622 28.7387) rotate(54.68) scale(6.92023 11.5218)">
<stop offset="0.544011" stop-color="#FFE4BE"/>
<stop offset="1" stop-color="#FFE4BE" stop-opacity="0"/>
</radialGradient>
</defs>
</svg>
