<svg viewBox="0 0 240 120" fill="none" xmlns="http://www.w3.org/2000/svg">
<path d="M102.691 105.188C98.9998 110.279 34.3484 105.188 34.3484 105.188L62.8561 101.37C62.8561 101.37 105.643 101.116 102.691 105.188Z" fill="url(#paint0_radial_8346_30236)"/>
<path d="M133.333 106.985C157.813 105.136 178.551 103.002 177.488 81.284C177.139 74.1637 175.413 64.3025 167.066 60.4768C149.993 52.6515 113.771 59.4042 104.644 60.477C91.0561 62.0743 73.5956 76.2904 76.4671 89.1104C79.3386 101.93 100.84 109.454 133.333 106.985Z" fill="url(#paint1_radial_8346_30236)"/>
<path d="M133.333 106.985C157.813 105.136 178.551 103.002 177.488 81.284C177.139 74.1637 175.413 64.3025 167.066 60.4768C149.993 52.6515 113.771 59.4042 104.644 60.477C91.0561 62.0743 73.5956 76.2904 76.4671 89.1104C79.3386 101.93 100.84 109.454 133.333 106.985Z" fill="url(#paint2_radial_8346_30236)"/>
<path d="M133.333 106.985C157.813 105.136 178.551 103.002 177.488 81.284C177.139 74.1637 175.413 64.3025 167.066 60.4768C149.993 52.6515 113.771 59.4042 104.644 60.477C91.0561 62.0743 73.5956 76.2904 76.4671 89.1104C79.3386 101.93 100.84 109.454 133.333 106.985Z" fill="url(#paint3_radial_8346_30236)"/>
<path d="M133.333 106.985C157.813 105.136 178.551 103.002 177.488 81.284C177.139 74.1637 175.413 64.3025 167.066 60.4768C149.993 52.6515 113.771 59.4042 104.644 60.477C91.0561 62.0743 73.5956 76.2904 76.4671 89.1104C79.3386 101.93 100.84 109.454 133.333 106.985Z" fill="url(#paint4_radial_8346_30236)"/>
<path d="M133.333 106.985C157.813 105.136 178.551 103.002 177.488 81.284C177.139 74.1637 175.413 64.3025 167.066 60.4768C149.993 52.6515 113.771 59.4042 104.644 60.477C91.0561 62.0743 73.5956 76.2904 76.4671 89.1104C79.3386 101.93 100.84 109.454 133.333 106.985Z" fill="url(#paint5_radial_8346_30236)"/>
<path d="M52.0424 73.3788C47.0906 75.021 40.7475 85.0282 41.1721 92.2151C41.6721 100.688 47.9395 102.494 56.6804 101.935C61.9168 101.6 75.1762 105.136 69.267 90.4224C67.1012 83.075 60.5223 70.747 52.0424 73.3788Z" fill="url(#paint6_radial_8346_30236)"/>
<path d="M52.0424 73.3788C47.0906 75.021 40.7475 85.0282 41.1721 92.2151C41.6721 100.688 47.9395 102.494 56.6804 101.935C61.9168 101.6 75.1762 105.136 69.267 90.4224C67.1012 83.075 60.5223 70.747 52.0424 73.3788Z" fill="url(#paint7_radial_8346_30236)"/>
<path d="M52.0424 73.3788C47.0906 75.021 40.7475 85.0282 41.1721 92.2151C41.6721 100.688 47.9395 102.494 56.6804 101.935C61.9168 101.6 75.1762 105.136 69.267 90.4224C67.1012 83.075 60.5223 70.747 52.0424 73.3788Z" fill="url(#paint8_radial_8346_30236)"/>
<path d="M52.0424 73.3788C47.0906 75.021 40.7475 85.0282 41.1721 92.2151C41.6721 100.688 47.9395 102.494 56.6804 101.935C61.9168 101.6 75.1762 105.136 69.267 90.4224C67.1012 83.075 60.5223 70.747 52.0424 73.3788Z" fill="url(#paint9_radial_8346_30236)"/>
<path d="M47.2743 105.928C57.526 105.986 62.5773 104.784 62.5951 100.929C62.6148 97.0741 62.6006 83.8375 50.684 85.6785C36.0294 88.0632 30.1307 90.7383 28.6938 97.7461C27.2608 104.728 37.0206 105.873 47.2743 105.928Z" fill="url(#paint10_radial_8346_30236)"/>
<path d="M47.2743 105.928C57.526 105.986 62.5773 104.784 62.5951 100.929C62.6148 97.0741 62.6006 83.8375 50.684 85.6785C36.0294 88.0632 30.1307 90.7383 28.6938 97.7461C27.2608 104.728 37.0206 105.873 47.2743 105.928Z" fill="url(#paint11_radial_8346_30236)"/>
<path d="M129.346 60.0059C154.496 60.8679 166.674 57.771 170.146 51.3855C173.618 44.9999 162.798 29.4785 129.346 33.4747C109.791 35.8108 91.1115 39.4009 91.1121 48.079C91.1126 56.7571 95.9654 58.8658 129.346 60.0059Z" fill="url(#paint12_radial_8346_30236)"/>
<path d="M129.346 60.0059C154.496 60.8679 166.674 57.771 170.146 51.3855C173.618 44.9999 162.798 29.4785 129.346 33.4747C109.791 35.8108 91.1115 39.4009 91.1121 48.079C91.1126 56.7571 95.9654 58.8658 129.346 60.0059Z" fill="url(#paint13_radial_8346_30236)"/>
<path d="M129.346 60.0059C154.496 60.8679 166.674 57.771 170.146 51.3855C173.618 44.9999 162.798 29.4785 129.346 33.4747C109.791 35.8108 91.1115 39.4009 91.1121 48.079C91.1126 56.7571 95.9654 58.8658 129.346 60.0059Z" fill="url(#paint14_radial_8346_30236)"/>
<path d="M129.346 60.0059C154.496 60.8679 166.674 57.771 170.146 51.3855C173.618 44.9999 162.798 29.4785 129.346 33.4747C109.791 35.8108 91.1115 39.4009 91.1121 48.079C91.1126 56.7571 95.9654 58.8658 129.346 60.0059Z" fill="url(#paint15_radial_8346_30236)"/>
<path d="M129.346 60.0059C154.496 60.8679 166.674 57.771 170.146 51.3855C173.618 44.9999 162.798 29.4785 129.346 33.4747C109.791 35.8108 91.1115 39.4009 91.1121 48.079C91.1126 56.7571 95.9654 58.8658 129.346 60.0059Z" fill="url(#paint16_radial_8346_30236)"/>
<path d="M129.728 34.3341C135.633 34.3648 145.81 34.8662 151.763 33.4456C158.869 31.7499 159.676 27.0246 159.688 24.5736C159.713 20.0693 157.471 15.914 145.947 12.5714C132.42 8.65039 118.669 12.6661 116.853 20.8545C115.043 29.013 116.772 34.2693 129.728 34.3341Z" fill="url(#paint17_radial_8346_30236)"/>
<path d="M129.728 34.3341C135.633 34.3648 145.81 34.8662 151.763 33.4456C158.869 31.7499 159.676 27.0246 159.688 24.5736C159.713 20.0693 157.471 15.914 145.947 12.5714C132.42 8.65039 118.669 12.6661 116.853 20.8545C115.043 29.013 116.772 34.2693 129.728 34.3341Z" fill="url(#paint18_radial_8346_30236)"/>
<path d="M129.728 34.3341C135.633 34.3648 145.81 34.8662 151.763 33.4456C158.869 31.7499 159.676 27.0246 159.688 24.5736C159.713 20.0693 157.471 15.914 145.947 12.5714C132.42 8.65039 118.669 12.6661 116.853 20.8545C115.043 29.013 116.772 34.2693 129.728 34.3341Z" fill="url(#paint19_radial_8346_30236)"/>
<path d="M129.728 34.3341C135.633 34.3648 145.81 34.8662 151.763 33.4456C158.869 31.7499 159.676 27.0246 159.688 24.5736C159.713 20.0693 157.471 15.914 145.947 12.5714C132.42 8.65039 118.669 12.6661 116.853 20.8545C115.043 29.013 116.772 34.2693 129.728 34.3341Z" fill="url(#paint20_radial_8346_30236)"/>
<path d="M129.728 34.3341C135.633 34.3648 145.81 34.8662 151.763 33.4456C158.869 31.7499 159.676 27.0246 159.688 24.5736C159.713 20.0693 157.471 15.914 145.947 12.5714C132.42 8.65039 118.669 12.6661 116.853 20.8545C115.043 29.013 116.772 34.2693 129.728 34.3341Z" fill="url(#paint21_radial_8346_30236)"/>
<defs>
<radialGradient id="paint0_radial_8346_30236" cx="0" cy="0" r="1" gradientUnits="userSpaceOnUse" gradientTransform="translate(56.7473 104.409) scale(35.7619 3.17665)">
<stop stop-color="#685F54" stop-opacity="0.7"/>
<stop offset="1" stop-color="#634C2F" stop-opacity="0"/>
</radialGradient>
<radialGradient id="paint1_radial_8346_30236" cx="0" cy="0" r="1" gradientUnits="userSpaceOnUse" gradientTransform="translate(121.996 63.9811) rotate(82.532) scale(54.7118 118.783)">
<stop stop-color="#C1BBB2"/>
<stop offset="1" stop-color="#5D5040"/>
</radialGradient>
<radialGradient id="paint2_radial_8346_30236" cx="0" cy="0" r="1" gradientUnits="userSpaceOnUse" gradientTransform="translate(107.393 71.8471) rotate(-9.42209) scale(74.4185 40.9469)">
<stop offset="0.217803" stop-color="#E7DEC9"/>
<stop offset="1" stop-color="#CFBC8E" stop-opacity="0"/>
</radialGradient>
<radialGradient id="paint3_radial_8346_30236" cx="0" cy="0" r="1" gradientUnits="userSpaceOnUse" gradientTransform="translate(121.184 86.0723) rotate(-24.6469) scale(63.2873 30.5347)">
<stop offset="0.217803" stop-color="#A59D89"/>
<stop offset="0.718201" stop-color="#998F77" stop-opacity="0"/>
</radialGradient>
<radialGradient id="paint4_radial_8346_30236" cx="0" cy="0" r="1" gradientUnits="userSpaceOnUse" gradientTransform="translate(144.966 57.8853) rotate(2.51443) scale(77.5116 19.5405)">
<stop offset="0.177095" stop-color="#634C2F"/>
<stop offset="0.718201" stop-color="#9C8654" stop-opacity="0"/>
</radialGradient>
<radialGradient id="paint5_radial_8346_30236" cx="0" cy="0" r="1" gradientUnits="userSpaceOnUse" gradientTransform="translate(104.701 63.2968) rotate(11.9625) scale(90.7177 49.388)">
<stop offset="0.804407" stop-color="#DDCABA" stop-opacity="0"/>
<stop offset="0.951409" stop-color="#F2D9C3"/>
</radialGradient>
<radialGradient id="paint6_radial_8346_30236" cx="0" cy="0" r="1" gradientUnits="userSpaceOnUse" gradientTransform="translate(49.3682 85.2267) rotate(64.7118) scale(18.4339 27.1938)">
<stop stop-color="#DCAA68"/>
<stop offset="1" stop-color="#B07A33"/>
</radialGradient>
<radialGradient id="paint7_radial_8346_30236" cx="0" cy="0" r="1" gradientUnits="userSpaceOnUse" gradientTransform="translate(69.8076 90.4336) rotate(119.445) scale(30.8064 30.4304)">
<stop offset="0.513614" stop-color="#B07A33" stop-opacity="0"/>
<stop offset="0.677714" stop-color="#DBB98D" stop-opacity="0.694104"/>
<stop offset="0.887881" stop-color="#EED5B4"/>
</radialGradient>
<radialGradient id="paint8_radial_8346_30236" cx="0" cy="0" r="1" gradientUnits="userSpaceOnUse" gradientTransform="translate(51.4042 92.0365) rotate(43.0144) scale(7.24855 11.8477)">
<stop stop-color="#A46F2A"/>
<stop offset="1" stop-color="#B07A33" stop-opacity="0"/>
</radialGradient>
<radialGradient id="paint9_radial_8346_30236" cx="0" cy="0" r="1" gradientUnits="userSpaceOnUse" gradientTransform="translate(52.6441 87.549) rotate(77.0329) scale(22.4968 16.1183)">
<stop offset="0.674887" stop-color="#8F5C17" stop-opacity="0"/>
<stop offset="1" stop-color="#8F5C17"/>
</radialGradient>
<radialGradient id="paint10_radial_8346_30236" cx="0" cy="0" r="1" gradientUnits="userSpaceOnUse" gradientTransform="translate(43.2758 91.2051) rotate(73.4158) scale(13.3888 22.0756)">
<stop stop-color="#979797"/>
<stop offset="1" stop-color="#808080"/>
</radialGradient>
<radialGradient id="paint11_radial_8346_30236" cx="0" cy="0" r="1" gradientUnits="userSpaceOnUse" gradientTransform="translate(39.4944 93.9737) rotate(86.2109) scale(9.4965 13.6105)">
<stop stop-color="#D4D3D3"/>
<stop offset="1" stop-color="#D4D3D3" stop-opacity="0"/>
</radialGradient>
<radialGradient id="paint12_radial_8346_30236" cx="0" cy="0" r="1" gradientUnits="userSpaceOnUse" gradientTransform="translate(106.265 42.9695) rotate(34.5304) scale(24.0426 43.9351)">
<stop stop-color="#ADAA6A"/>
<stop offset="1" stop-color="#A0AB13"/>
</radialGradient>
<radialGradient id="paint13_radial_8346_30236" cx="0" cy="0" r="1" gradientUnits="userSpaceOnUse" gradientTransform="translate(112.846 40.4978) rotate(-6.46713) scale(58.2886 23.3877)">
<stop offset="0.263241" stop-color="#D1CAA1"/>
<stop offset="1" stop-color="#C6B96F" stop-opacity="0"/>
</radialGradient>
<radialGradient id="paint14_radial_8346_30236" cx="0" cy="0" r="1" gradientUnits="userSpaceOnUse" gradientTransform="translate(132.748 50.4395) rotate(-5.36182) scale(42.2986 14.4865)">
<stop offset="0.216936" stop-color="#8A7D35" stop-opacity="0.9"/>
<stop offset="0.897457" stop-color="#978A40" stop-opacity="0"/>
</radialGradient>
<radialGradient id="paint15_radial_8346_30236" cx="0" cy="0" r="1" gradientUnits="userSpaceOnUse" gradientTransform="translate(146.431 32.8262) scale(46.2005 13.048)">
<stop offset="0.324387" stop-color="#634C2F" stop-opacity="0.8"/>
<stop offset="0.718201" stop-color="#9C8654" stop-opacity="0"/>
</radialGradient>
<radialGradient id="paint16_radial_8346_30236" cx="0" cy="0" r="1" gradientUnits="userSpaceOnUse" gradientTransform="translate(124.396 37.9793) rotate(4.87927) scale(58.4957 25.2545)">
<stop offset="0.804407" stop-color="#C6B96F" stop-opacity="0"/>
<stop offset="0.945888" stop-color="#DDD8BA"/>
</radialGradient>
<radialGradient id="paint17_radial_8346_30236" cx="0" cy="0" r="1" gradientUnits="userSpaceOnUse" gradientTransform="translate(129.322 16.3516) rotate(63.025) scale(22.1497 38.1428)">
<stop stop-color="#EEB05F"/>
<stop offset="1" stop-color="#C68127"/>
</radialGradient>
<radialGradient id="paint18_radial_8346_30236" cx="0" cy="0" r="1" gradientUnits="userSpaceOnUse" gradientTransform="translate(129.322 16.3516) rotate(65.3481) scale(24.0879 41.6161)">
<stop stop-color="#EED5B4"/>
<stop offset="1" stop-color="#B07A33" stop-opacity="0"/>
</radialGradient>
<radialGradient id="paint19_radial_8346_30236" cx="0" cy="0" r="1" gradientUnits="userSpaceOnUse" gradientTransform="translate(131.694 24.3151) rotate(39.8268) scale(9.54221 15.1682)">
<stop stop-color="#A46F2A"/>
<stop offset="1" stop-color="#B07A33" stop-opacity="0"/>
</radialGradient>
<radialGradient id="paint20_radial_8346_30236" cx="0" cy="0" r="1" gradientUnits="userSpaceOnUse" gradientTransform="translate(137.97 25.2717) rotate(69.314) scale(8.35734 13.2847)">
<stop stop-color="#A46F2A"/>
<stop offset="1" stop-color="#B07A33" stop-opacity="0"/>
</radialGradient>
<radialGradient id="paint21_radial_8346_30236" cx="0" cy="0" r="1" gradientUnits="userSpaceOnUse" gradientTransform="translate(128.484 14.077) rotate(12.8487) scale(39.0032 23.062)">
<stop offset="0.804407" stop-color="#DDCABA" stop-opacity="0"/>
<stop offset="1" stop-color="#F2D9C3"/>
</radialGradient>
</defs>
</svg>
