<?xml version="1.0" encoding="UTF-8"?>
<svg width="135px" height="40px" viewBox="0 0 135 40" version="1.1" xmlns="http://www.w3.org/2000/svg" xmlns:xlink="http://www.w3.org/1999/xlink">
    <!-- Generator: Sketch 43.2 (39069) - http://www.bohemiancoding.com/sketch -->
    <title>Download_on_the_App_Store_Badge_ja_135x40</title>
    <desc>Created with Sketch.</desc>
    <defs>
        <path d="M130.197,40 L4.729,40 C2.122,40 0,37.872 0,35.268 L0,4.726 C0,2.12 2.122,0 4.729,0 L130.197,0 C132.803,0 135,2.12 135,4.726 L135,35.268 C135,37.872 132.803,40 130.197,40 Z" id="path-1"></path>
        <path d="M134.032,35.268 C134.032,37.384 132.318,39.098 130.198,39.098 L4.729,39.098 C2.61,39.098 0.89,37.384 0.89,35.268 L0.89,4.725 C0.89,2.61 2.61,0.89 4.729,0.89 L130.197,0.89 C132.318,0.89 134.031,2.61 134.031,4.725 L134.032,35.268 Z" id="path-3"></path>
        <path d="M18.128,7.784 C18.099,4.561 20.767,2.993 20.889,2.92 C19.378,0.717 17.036,0.416 16.213,0.392 C14.246,0.185 12.338,1.569 11.336,1.569 C10.314,1.569 8.771,0.412 7.108,0.446 C4.968,0.479 2.966,1.718 1.868,3.642 C-0.398,7.565 1.292,13.33 3.463,16.501 C4.549,18.055 5.818,19.788 7.479,19.727 C9.104,19.661 9.711,18.692 11.672,18.692 C13.615,18.692 14.185,19.727 15.879,19.688 C17.623,19.661 18.721,18.128 19.769,16.561 C21.024,14.782 21.528,13.028 21.548,12.938 C21.507,12.924 18.161,11.646 18.128,7.784 Z" id="path-5"></path>
        <path d="M3.928,4.306 C4.802,3.213 5.4,1.726 5.234,0.217 C3.969,0.273 2.387,1.092 1.476,2.161 C0.67,3.103 -0.05,4.647 0.136,6.099 C1.557,6.205 3.016,5.382 3.928,4.306 Z" id="path-7"></path>
        <path d="M10.023,12.179 L8.017,12.179 L6.917,8.724 L3.096,8.724 L2.049,12.179 L0.094,12.179 L3.881,0.418 L6.219,0.418 L10.023,12.179 Z M6.586,7.275 L5.591,4.204 C5.487,3.89 5.288,3.151 4.998,1.988 L4.963,1.988 C4.846,2.488 4.66,3.227 4.404,4.204 L3.427,7.275 L6.586,7.275 Z" id="path-9"></path>
        <path d="M8.742,4.833 C8.742,6.276 8.351,7.416 7.566,8.253 C6.865,8.998 5.994,9.37 4.953,9.37 C3.828,9.37 3.021,8.969 2.531,8.166 L2.531,12.616 L0.646,12.616 L0.646,3.486 C0.646,2.58 0.623,1.651 0.576,0.698 L2.234,0.698 L2.339,2.042 L2.373,2.042 C3.002,1.03 3.955,0.523 5.234,0.523 C6.236,0.523 7.07,0.919 7.74,1.71 C8.408,2.501 8.742,3.542 8.742,4.833 Z M6.824,4.903 C6.824,4.077 6.636,3.397 6.265,2.861 C5.857,2.303 5.31,2.024 4.624,2.024 C4.159,2.024 3.737,2.178 3.358,2.486 C2.979,2.794 2.733,3.198 2.616,3.699 C2.557,3.931 2.53,4.124 2.53,4.275 L2.53,5.689 C2.53,6.306 2.718,6.826 3.096,7.251 C3.475,7.676 3.965,7.888 4.571,7.888 C5.28,7.888 5.833,7.615 6.229,7.068 C6.625,6.521 6.824,5.799 6.824,4.903 Z" id="path-11"></path>
        <path d="M8.497,4.833 C8.497,6.276 8.105,7.416 7.32,8.253 C6.619,8.998 5.748,9.37 4.707,9.37 C3.583,9.37 2.776,8.969 2.285,8.166 L2.285,12.616 L0.4,12.616 L0.4,3.486 C0.4,2.58 0.377,1.651 0.331,0.698 L1.988,0.698 L2.092,2.042 L2.127,2.042 C2.755,1.03 3.709,0.523 4.988,0.523 C5.988,0.523 6.823,0.919 7.493,1.71 C8.162,2.501 8.497,3.542 8.497,4.833 Z M6.578,4.903 C6.578,4.077 6.39,3.397 6.019,2.861 C5.611,2.303 5.064,2.024 4.377,2.024 C3.912,2.024 3.49,2.178 3.112,2.486 C2.733,2.794 2.486,3.198 2.37,3.699 C2.311,3.931 2.283,4.124 2.283,4.275 L2.283,5.689 C2.283,6.306 2.471,6.826 2.85,7.251 C3.227,7.676 3.72,7.888 4.324,7.888 C5.034,7.888 5.587,7.615 5.981,7.068 C6.378,6.521 6.578,5.799 6.578,4.903 Z" id="path-13"></path>
        <path d="M7.759,8.881 C7.759,9.881 7.41,10.695 6.714,11.324 C5.948,12.011 4.88,12.353 3.512,12.353 C2.246,12.353 1.231,12.109 0.465,11.62 L0.901,10.05 C1.727,10.539 2.634,10.783 3.625,10.783 C4.334,10.783 4.888,10.623 5.282,10.303 C5.678,9.983 5.876,9.556 5.876,9.021 C5.876,8.544 5.713,8.143 5.388,7.817 C5.062,7.491 4.521,7.189 3.765,6.909 C1.705,6.141 0.676,5.019 0.676,3.541 C0.676,2.576 1.039,1.785 1.767,1.168 C2.495,0.551 3.456,0.243 4.656,0.243 C5.726,0.243 6.615,0.429 7.326,0.801 L6.85,2.337 C6.184,1.977 5.432,1.796 4.59,1.796 C3.925,1.796 3.404,1.959 3.031,2.285 C2.716,2.576 2.558,2.931 2.558,3.349 C2.558,3.814 2.738,4.198 3.099,4.501 C3.412,4.78 3.982,5.083 4.808,5.408 C5.82,5.815 6.566,6.292 7.041,6.839 C7.52,7.386 7.759,8.066 7.759,8.881 Z" id="path-15"></path>
        <path d="M6.006,4.111 L3.93,4.111 L3.93,8.229 C3.93,9.276 4.296,9.8 5.03,9.8 C5.367,9.8 5.645,9.771 5.868,9.713 L5.92,11.144 C5.548,11.283 5.06,11.353 4.454,11.353 C3.71,11.353 3.128,11.126 2.71,10.673 C2.291,10.219 2.081,9.457 2.081,8.387 L2.081,4.112 L0.843,4.112 L0.843,2.698 L2.081,2.698 L2.081,1.145 L3.931,0.587 L3.931,2.698 L6.008,2.698 L6.006,4.111 Z" id="path-17"></path>
        <path d="M8.357,4.869 C8.357,6.172 7.984,7.242 7.241,8.08 C6.462,8.941 5.427,9.371 4.137,9.371 C2.891,9.371 1.899,8.958 1.16,8.132 C0.421,7.306 0.052,6.265 0.052,5.008 C0.052,3.694 0.434,2.617 1.196,1.779 C1.959,0.942 2.985,0.523 4.276,0.523 C5.52,0.523 6.52,0.936 7.278,1.762 C7.997,2.565 8.357,3.601 8.357,4.869 Z M6.402,4.912 C6.402,4.135 6.234,3.468 5.896,2.911 C5.5,2.239 4.937,1.902 4.205,1.902 C3.448,1.902 2.873,2.238 2.476,2.911 C2.138,3.468 1.97,4.147 1.97,4.947 C1.97,5.724 2.138,6.391 2.476,6.948 C2.883,7.621 3.455,7.957 4.187,7.957 C4.909,7.957 5.472,7.615 5.878,6.931 C6.229,6.362 6.402,5.689 6.402,4.912 Z" id="path-19"></path>
        <path d="M5.482,2.356 C5.295,2.321 5.097,2.304 4.888,2.304 C4.226,2.304 3.712,2.554 3.353,3.054 C3.04,3.496 2.881,4.055 2.881,4.729 L2.881,9.179 L0.996,9.179 L0.996,3.368 C0.996,2.39 0.977,1.501 0.942,0.698 L2.584,0.698 L2.653,2.321 L2.706,2.321 C2.903,1.763 3.218,1.315 3.647,0.978 C4.067,0.675 4.52,0.524 5.008,0.524 C5.184,0.524 5.339,0.536 5.479,0.559 L5.479,2.356 L5.482,2.356 Z" id="path-21"></path>
        <path d="M7.91,4.537 C7.91,4.874 7.887,5.16 7.841,5.392 L2.188,5.392 C2.21,6.229 2.485,6.87 3.007,7.311 C3.485,7.707 4.102,7.904 4.858,7.904 C5.696,7.904 6.458,7.771 7.143,7.503 L7.44,8.812 C6.637,9.161 5.69,9.335 4.596,9.335 C3.282,9.335 2.248,8.948 1.498,8.174 C0.747,7.401 0.372,6.362 0.372,5.059 C0.372,3.78 0.723,2.715 1.419,1.866 C2.152,0.959 3.141,0.505 4.387,0.505 C5.608,0.505 6.533,0.959 7.16,1.866 C7.66,2.589 7.91,3.479 7.91,4.537 Z M6.113,4.048 C6.125,3.49 6.003,3.007 5.747,2.6 C5.421,2.077 4.921,1.815 4.246,1.815 C3.63,1.815 3.129,2.071 2.745,2.583 C2.432,2.991 2.245,3.479 2.187,4.049 L6.113,4.048 Z" id="path-23"></path>
        <path d="M3.313,2.928 C3.524,2.05 3.676,1.137 3.781,0.225 L4.788,0.354 C4.671,1.184 4.507,2.028 4.309,2.858 C4.613,2.836 4.882,2.824 5.105,2.824 C6.709,2.824 7.434,3.667 7.434,5.422 C7.434,7.213 7.118,8.806 6.685,9.521 C6.333,10.092 5.924,10.303 5.175,10.303 C4.624,10.303 3.981,10.221 3.478,10.105 L3.548,9.158 C4.004,9.31 4.577,9.381 4.976,9.381 C5.42,9.381 5.608,9.311 5.819,8.994 C6.193,8.443 6.439,7.039 6.439,5.459 C6.439,4.184 6.052,3.751 5.046,3.751 C4.765,3.751 4.438,3.763 4.086,3.786 C3.442,6.15 2.553,8.327 1.523,9.812 L0.634,9.333 C1.628,7.987 2.494,6.032 3.079,3.867 C2.271,3.96 1.43,4.089 0.692,4.229 L0.516,3.292 C1.348,3.15 2.377,3.021 3.313,2.928 Z M10.991,6.965 L9.984,7.211 C9.785,5.678 9.106,3.934 7.842,2.647 L8.661,2.122 C10.02,3.525 10.78,5.467 10.991,6.965 Z" id="path-25"></path>
        <path d="M1.762,6.24 C2.932,5.42 4.395,4.859 5.648,4.859 C7.461,4.859 8.562,5.736 8.562,7.246 C8.562,9.119 7.029,10.301 3.389,10.301 C3.237,10.301 3.026,10.301 2.838,10.289 L2.628,9.342 C2.908,9.354 3.26,9.365 3.482,9.365 C6.409,9.365 7.532,8.533 7.532,7.269 C7.532,6.24 6.853,5.701 5.437,5.701 C4.231,5.701 2.85,6.369 1.528,7.515 L0.72,7.162 C0.72,4.635 0.99,3.418 1.879,2.141 L2.803,2.455 C1.983,3.595 1.762,4.66 1.762,6.24 Z M1.656,1.137 L1.914,0.201 C3.54,0.447 5.998,0.996 7.157,1.418 L6.887,2.343 C5.834,1.934 3.248,1.336 1.656,1.137 Z" id="path-27"></path>
        <path d="M4.264,5.191 C5.118,5.67 6.231,6.396 7.016,6.994 C7.729,5.941 8.208,4.759 8.454,3.576 L4.674,3.576 C3.82,4.933 2.707,6.267 1.619,7.123 L0.835,6.455 C2.462,5.273 4.064,2.969 4.744,1.213 L5.726,1.552 C5.585,1.905 5.411,2.266 5.21,2.653 L8.98,2.653 L9.728,3.063 C8.91,6.832 6.698,9.992 3.281,11.373 L2.567,10.508 C4.124,9.935 5.411,8.976 6.393,7.816 C5.61,7.172 4.452,6.4 3.631,5.957 L4.264,5.191 Z M8.887,0.826 C9.367,1.306 9.741,1.808 10.116,2.394 L9.589,2.769 C9.238,2.195 8.852,1.667 8.384,1.211 L8.887,0.826 Z M10.408,0.486 C10.898,0.978 11.262,1.482 11.625,2.078 L11.075,2.441 C10.748,1.843 10.361,1.33 9.892,0.849 L10.408,0.486 Z" id="path-29"></path>
        <path d="M4.434,2.261 L4.434,0.237 L5.498,0.237 L5.498,2.261 L8.562,2.261 L9.453,2.623 C9.161,6.193 7.756,8.967 4.012,10.324 L3.367,9.412 C6.82,8.241 8.06,5.935 8.236,3.232 L1.986,3.232 L1.986,5.922 L0.933,5.922 L0.933,2.26 L4.434,2.261 Z" id="path-31"></path>
        <path d="M4.255,2.35 L3.565,3.204 C2.921,2.631 1.516,1.611 0.545,1.098 L1.2,0.255 C2.207,0.84 3.529,1.752 4.255,2.35 Z M8.762,2.373 L9.44,3.168 C7.836,5.777 4.547,8.272 1.354,9.219 L0.827,8.213 C3.95,7.416 7.204,4.994 8.762,2.373 Z" id="path-33"></path>
        <path d="M8.924,0.723 L8.924,8.577 L0.569,8.577 L0.569,0.723 L8.924,0.723 Z M7.848,7.568 L7.848,1.705 L1.62,1.705 L1.62,7.568 L7.848,7.568 Z" id="path-35"></path>
        <polygon id="path-37" points="9.857 0.754 9.857 1.83 0.331 1.83 0.331 0.754"></polygon>
        <path d="M7.288,6.428 L6.609,7.293 C5.357,6.381 3.496,5.339 1.963,4.613 L1.963,10.301 L0.887,10.301 L0.887,0.236 L1.963,0.236 L1.963,3.478 C3.625,4.238 5.79,5.42 7.288,6.428 Z M4.562,1.477 C4.982,1.912 5.404,2.496 5.72,3.035 L5.204,3.362 C4.924,2.836 4.477,2.216 4.081,1.805 L4.562,1.477 Z M5.79,0.739 C6.2,1.172 6.633,1.746 6.961,2.284 L6.445,2.611 C6.165,2.107 5.708,1.488 5.31,1.078 L5.79,0.739 Z" id="path-39"></path>
    </defs>
    <g id="Page-1" stroke="none" stroke-width="1" fill="none" fill-rule="evenodd">
        <g id="Download_on_the_App_Store_Badge_ja_135x40">
            <g id="Group-3">
                <mask id="mask-2" fill="white">
                    <use xlink:href="#path-1"></use>
                </mask>
                <g id="Clip-2"></g>
                <polygon id="Fill-1" fill="#A6A6A6" mask="url(#mask-2)" points="-5 45 140 45 140 -5 -5 -5"></polygon>
            </g>
            <g id="Group-6">
                <mask id="mask-4" fill="white">
                    <use xlink:href="#path-3"></use>
                </mask>
                <g id="Clip-5"></g>
                <polygon id="Fill-4" fill="#000000" mask="url(#mask-4)" points="-4.11 44.098 139.032 44.098 139.032 -4.11 -4.11 -4.11"></polygon>
            </g>
            <g id="Group-9" transform="translate(12.000000, 12.000000)">
                <mask id="mask-6" fill="white">
                    <use xlink:href="#path-5"></use>
                </mask>
                <g id="Clip-8"></g>
                <polygon id="Fill-7" fill="#FFFFFF" mask="url(#mask-6)" points="-4.208096 24.728565 26.548004 24.728565 26.548004 -4.629105 -4.208096 -4.629105"></polygon>
            </g>
            <g id="Group-12" transform="translate(23.000000, 6.000000)">
                <mask id="mask-8" fill="white">
                    <use xlink:href="#path-7"></use>
                </mask>
                <g id="Clip-11"></g>
                <polygon id="Fill-10" fill="#FFFFFF" mask="url(#mask-8)" points="-4.89359 11.1082 10.26172 11.1082 10.26172 -4.783 -4.89359 -4.783"></polygon>
            </g>
            <g id="Group-15" transform="translate(44.000000, 5.000000)">
                <mask id="mask-10" fill="white">
                    <use xlink:href="#path-9"></use>
                </mask>
                <g id="Clip-14"></g>
                <polygon id="Fill-13" fill="#FFFFFF" mask="url(#mask-10)" points="-4.906 17.179 15.023 17.179 15.023 -4.582 -4.906 -4.582"></polygon>
            </g>
            <g id="Group-18" transform="translate(55.000000, 8.000000)">
                <mask id="mask-12" fill="white">
                    <use xlink:href="#path-11"></use>
                </mask>
                <g id="Clip-17"></g>
                <polygon id="Fill-16" fill="#FFFFFF" mask="url(#mask-12)" points="-4.424 17.616 13.742 17.616 13.742 -4.477 -4.424 -4.477"></polygon>
            </g>
            <g id="Group-21" transform="translate(65.000000, 8.000000)">
                <mask id="mask-14" fill="white">
                    <use xlink:href="#path-13"></use>
                </mask>
                <g id="Clip-20"></g>
                <polygon id="Fill-19" fill="#FFFFFF" mask="url(#mask-14)" points="-4.669 17.616 13.497 17.616 13.497 -4.477 -4.669 -4.477"></polygon>
            </g>
            <g id="Group-24" transform="translate(79.000000, 5.000000)">
                <mask id="mask-16" fill="white">
                    <use xlink:href="#path-15"></use>
                </mask>
                <g id="Clip-23"></g>
                <polygon id="Fill-22" fill="#FFFFFF" mask="url(#mask-16)" points="-4.535 17.353 12.759 17.353 12.759 -4.757 -4.535 -4.757"></polygon>
            </g>
            <g id="Group-27" transform="translate(87.000000, 6.000000)">
                <mask id="mask-18" fill="white">
                    <use xlink:href="#path-17"></use>
                </mask>
                <g id="Clip-26"></g>
                <polygon id="Fill-25" fill="#FFFFFF" mask="url(#mask-18)" points="-4.157 16.353 11.008 16.353 11.008 -4.413 -4.157 -4.413"></polygon>
            </g>
            <g id="Group-30" transform="translate(94.000000, 8.000000)">
                <mask id="mask-20" fill="white">
                    <use xlink:href="#path-19"></use>
                </mask>
                <g id="Clip-29"></g>
                <polygon id="Fill-28" fill="#FFFFFF" mask="url(#mask-20)" points="-4.948 14.371 13.357 14.371 13.357 -4.477 -4.948 -4.477"></polygon>
            </g>
            <g id="Group-33" transform="translate(103.000000, 8.000000)">
                <mask id="mask-22" fill="white">
                    <use xlink:href="#path-21"></use>
                </mask>
                <g id="Clip-32"></g>
                <polygon id="Fill-31" fill="#FFFFFF" mask="url(#mask-22)" points="-4.058 14.179 10.482 14.179 10.482 -4.476 -4.058 -4.476"></polygon>
            </g>
            <g id="Group-36" transform="translate(109.000000, 8.000000)">
                <mask id="mask-24" fill="white">
                    <use xlink:href="#path-23"></use>
                </mask>
                <g id="Clip-35"></g>
                <polygon id="Fill-34" fill="#FFFFFF" mask="url(#mask-24)" points="-4.628 14.335 12.91 14.335 12.91 -4.495 -4.628 -4.495"></polygon>
            </g>
            <g id="Group-39" transform="translate(43.000000, 24.000000)">
                <mask id="mask-26" fill="white">
                    <use xlink:href="#path-25"></use>
                </mask>
                <g id="Clip-38"></g>
                <polygon id="Fill-37" fill="#FFFFFF" mask="url(#mask-26)" points="-4.484 15.303 15.991 15.303 15.991 -4.775 -4.484 -4.775"></polygon>
            </g>
            <g id="Group-42" transform="translate(55.000000, 24.000000)">
                <mask id="mask-28" fill="white">
                    <use xlink:href="#path-27"></use>
                </mask>
                <g id="Clip-41"></g>
                <polygon id="Fill-40" fill="#FFFFFF" mask="url(#mask-28)" points="-4.28 15.301 13.562 15.301 13.562 -4.799 -4.28 -4.799"></polygon>
            </g>
            <g id="Group-45" transform="translate(64.000000, 23.000000)">
                <mask id="mask-30" fill="white">
                    <use xlink:href="#path-29"></use>
                </mask>
                <g id="Clip-44"></g>
                <polygon id="Fill-43" fill="#FFFFFF" mask="url(#mask-30)" points="-4.165 16.373 16.625 16.373 16.625 -4.514 -4.165 -4.514"></polygon>
            </g>
            <g id="Group-48" transform="translate(76.000000, 24.000000)">
                <mask id="mask-32" fill="white">
                    <use xlink:href="#path-31"></use>
                </mask>
                <g id="Clip-47"></g>
                <polygon id="Fill-46" fill="#FFFFFF" mask="url(#mask-32)" points="-4.067 15.324 14.453 15.324 14.453 -4.763 -4.067 -4.763"></polygon>
            </g>
            <g id="Group-51" transform="translate(87.000000, 25.000000)">
                <mask id="mask-34" fill="white">
                    <use xlink:href="#path-33"></use>
                </mask>
                <g id="Clip-50"></g>
                <polygon id="Fill-49" fill="#FFFFFF" mask="url(#mask-34)" points="-4.455 14.219 14.44 14.219 14.44 -4.745 -4.455 -4.745"></polygon>
            </g>
            <g id="Group-54" transform="translate(98.000000, 25.000000)">
                <mask id="mask-36" fill="white">
                    <use xlink:href="#path-35"></use>
                </mask>
                <g id="Clip-53"></g>
                <polygon id="Fill-52" fill="#FFFFFF" mask="url(#mask-36)" points="-4.431 13.577 13.924 13.577 13.924 -4.277 -4.431 -4.277"></polygon>
            </g>
            <g id="Group-57" transform="translate(109.000000, 28.000000)">
                <mask id="mask-38" fill="white">
                    <use xlink:href="#path-37"></use>
                </mask>
                <g id="Clip-56"></g>
                <polygon id="Fill-55" fill="#FFFFFF" mask="url(#mask-38)" points="-4.669 6.83 14.857 6.83 14.857 -4.246 -4.669 -4.246"></polygon>
            </g>
            <g id="Group-60" transform="translate(121.000000, 24.000000)">
                <mask id="mask-40" fill="white">
                    <use xlink:href="#path-39"></use>
                </mask>
                <g id="Clip-59"></g>
                <polygon id="Fill-58" fill="#FFFFFF" mask="url(#mask-40)" points="-4.113 15.301 12.288 15.301 12.288 -4.764 -4.113 -4.764"></polygon>
            </g>
        </g>
    </g>
</svg>