<svg id="Group_2520" data-name="Group 2520" xmlns="http://www.w3.org/2000/svg" viewBox="0 0 18 18">
  <defs>
    <style>
      .cls-1 {
        fill: #ff13dc;
        opacity: 0;
      }

      .cls-2 {
        fill: #fff;
      }
    </style>
  </defs>
  <rect id="ToDelete" class="cls-1" width="18" height="18"/>
  <path id="Path_456" data-name="Path 456" class="cls-2" d="M9,1a8,8,0,1,0,8,8A8,8,0,0,0,9,1Zm5.333,4.54h0L8.009,13.67a.6.6,0,0,1-.437.231H7.536a.6.6,0,0,1-.425-.176l-3.892-3.9a.6.6,0,0,1,0-.849h0l.663-.663a.6.6,0,0,1,.849,0h0L7.4,10.991l5.258-6.754a.6.6,0,0,1,.842-.1h0l.727.569A.6.6,0,0,1,14.333,5.54Z"/>
</svg>
