<?xml version="1.0" encoding="utf-8"?>
<!-- Generator: Adobe Illustrator 22.1.0, SVG Export Plug-In . SVG Version: 6.00 Build 0)  -->
<svg version="1.1" id="Layer_1" xmlns="http://www.w3.org/2000/svg" xmlns:xlink="http://www.w3.org/1999/xlink" x="0px" y="0px"
	 viewBox="0 0 45.2 45" style="enable-background:new 0 0 45.2 45;" xml:space="preserve">
<style type="text/css">
	.st0{fill:#FFFFFF;}
</style>
<path id="Shape" class="st0" d="M16.5,21.9c0,0.3,0.1,0.7,0.4,0.9l0,0l6.9,6.9l0,0c0.5,0.5,1.3,0.5,1.8,0s0.5-1.3,0-1.8l0,0l0,0
	l-6-6l6.2-5.8l0,0c0.5-0.5,0.5-1.3,0.1-1.8c-0.5-0.5-1.3-0.5-1.8-0.1l0,0l0,0l0,0l0,0L17,20.8l0,0C16.6,21.2,16.5,21.6,16.5,21.9z"
	/>
</svg>
