<?xml version="1.0" encoding="utf-8"?>
<!-- Generator: Adobe Illustrator 23.0.1, SVG Export Plug-In . SVG Version: 6.00 Build 0)  -->
<svg version="1.1" id="Layer_1" xmlns="http://www.w3.org/2000/svg" xmlns:xlink="http://www.w3.org/1999/xlink" x="0px" y="0px"
	 viewBox="0 0 14 14" style="enable-background:new 0 0 14 14;" xml:space="preserve">
<style type="text/css">
	.st0{fill:none;}
	.st1{fill:#707070;}
</style>
<rect class="st0" width="14" height="14"/>
<path class="st1" d="M10.7,1H3.2C2,1,1,2,1,3.3v4.4C1,9,2,10,3.2,10h0.5L6,12.7C6.2,12.9,6.5,13,6.8,13C7.5,13,8,12.4,8,11.8V10h2.7
	C12,10,13,9,13,7.7V3.3C13,2,11.9,1,10.7,1z M12,7.7C12,8.4,11.4,9,10.7,9H7v2.8C7,11.9,6.9,12,6.8,12H6.7L4.2,9h-1
	C2.5,9,2,8.4,2,7.7V3.3C2,2.6,2.5,2,3.2,2h7.5C11.4,2,12,2.6,12,3.3V7.7z"/>
<path class="st0" d="M10.7,2H3.2C2.5,2,2,2.6,2,3.3v4.4C2,8.4,2.5,9,3.2,9h1l2.5,3h0.1C6.9,12,7,11.9,7,11.8V9h3.7
	C11.4,9,12,8.4,12,7.7V3.3C12,2.6,11.4,2,10.7,2z M8.5,6.8c0,0.1,0,0.2-0.1,0.2H3.6C3.5,7,3.5,6.9,3.5,6.8V6.2c0-0.1,0-0.2,0.1-0.2
	h4.8c0.1,0,0.1,0.1,0.1,0.2V6.8z M10.4,4.8c0,0.1-0.1,0.2-0.2,0.2H3.6C3.5,5,3.5,4.9,3.5,4.8V4.2c0-0.1,0-0.2,0.1-0.2h6.6
	c0.1,0,0.2,0.1,0.2,0.2V4.8z"/>
<path class="st1" d="M8.4,6H3.6C3.5,6,3.5,6.1,3.5,6.2v0.6c0,0.1,0,0.2,0.1,0.2h4.8c0.1,0,0.1-0.1,0.1-0.2V6.2C8.5,6.1,8.5,6,8.4,6z
	"/>
<path class="st1" d="M10.2,4H3.6C3.5,4,3.5,4.1,3.5,4.2v0.6c0,0.1,0,0.2,0.1,0.2h6.6c0.1,0,0.2-0.1,0.2-0.2V4.2
	C10.4,4.1,10.3,4,10.2,4z"/>
</svg>
