<?xml version="1.0" encoding="utf-8"?>
<!-- Generator: Adobe Illustrator 22.1.0, SVG Export Plug-In . SVG Version: 6.00 Build 0)  -->
<svg version="1.1" id="Layer_1" xmlns="http://www.w3.org/2000/svg" xmlns:xlink="http://www.w3.org/1999/xlink" x="0px" y="0px"
	 viewBox="0 0 34 34" style="enable-background:new 0 0 34 34;" xml:space="preserve">
<style type="text/css">
	.st0{fill:none;}
	.st1{opacity:0.8;fill:#F5F5F5;enable-background:new    ;}
	.st2{fill:#EAEAEA;}
	.st3{fill:#1473E6;}
</style>
<rect class="st0" width="34" height="34"/>
<circle class="st1" cx="17" cy="17" r="16"/>
<path class="st2" d="M17,0C7.6,0,0,7.6,0,17s7.6,17,17,17s17-7.6,17-17S26.4,0,17,0z M17,33C8.2,33,1,25.8,1,17S8.2,1,17,1
	s16,7.2,16,16S25.8,33,17,33z"/>
<path class="st3" d="M25.9,11.4l-2.8-2.8c-0.1-0.1-0.3-0.2-0.5-0.2l0,0c-0.2,0-0.4,0.1-0.5,0.2L20.7,10l3.8,3.8l1.4-1.4
	c0.1-0.1,0.2-0.3,0.2-0.5C26.1,11.8,26.1,11.6,25.9,11.4L25.9,11.4z"/>
<path class="st3" d="M19.9,10.8L9.7,21c-0.1,0.1-0.1,0.1-0.1,0.2L8.1,26c0,0.1,0,0.3,0.2,0.3c0.1,0,0.1,0,0.2,0c0,0,4.1-1.2,4.8-1.5
	c0.1,0,0.2-0.1,0.2-0.1l10.1-10.1L19.9,10.8z M9.3,25.2l1.2-3.4l2.2,2.2L9.3,25.2z"/>
</svg>
