<?xml version="1.0" encoding="utf-8"?>
<!-- Generator: Adobe Illustrator 21.0.2, SVG Export Plug-In . SVG Version: 6.00 Build 0)  -->
<svg version="1.1" id="Layer_1" xmlns="http://www.w3.org/2000/svg" xmlns:xlink="http://www.w3.org/1999/xlink" x="0px" y="0px"
	 width="47px" height="48.5px" viewBox="0 0 47 48.5" style="enable-background:new 0 0 47 48.5;" xml:space="preserve">
<style type="text/css">
	.st0{fill:#1473E6;fill-opacity:0;}
	.st1{fill:#1473E6;}
</style>
<g id="Toast" transform="translate(-787.5 -645.5)">
	<g id="icon" transform="translate(814 671)">
		<rect id="Canvas" x="-18.4" y="-15.5" class="st0" width="25.9" height="26"/>
		<g id="Group_60119" transform="translate(-1 1)">
			<path id="Path_35925" class="st1" d="M-2-0.8v1.6C-2,1.3-1.7,1.7-1.4,2l1.3,0.8h-1.6c-0.5,0.1-0.8,0.3-1,0.6l-0.8,1.4V3.2
				c0-0.5-0.3-0.8-0.6-1.1l-1.3-0.8h1.8c0.5-0.1,0.8-0.3,1-0.7L-2-0.8z M-2.1-8.4l0.1,2c0.1,0.5,0.3,1,0.8,1.4l1.8,1l-2,0.1
				C-2-3.8-2.5-3.6-2.8-3l-0.9,1.8l-0.1-2c-0.1-0.5-0.3-1-0.8-1.3l-1.9-1.1l2-0.1c0.5-0.1,1-0.3,1.3-0.8L-2.1-8.4z M0.5-7.7v-7.3
				h-9.7c-0.4,0-0.6,0.3-0.6,0.6v9.6l4.1,3.5c0.1,0.1,0.1,0.3,0,0.3l-4,0.9v7.7c0,0.3,0.3,0.6,0.6,0.6H-9H7.9c0.3,0,0.6-0.3,0.6-0.6
				V7.6V-7.1H1.4C0.9-7.1,0.5-7.5,0.5-7.7L0.5-7.7z"/>
			<path id="Path_35926" class="st1" d="M2.4-15.1L2.4-15.1c0.3,0,0.4,0.1,0.5,0.1l5.3,5.7c0,0.1,0.1,0.3,0.1,0.5v0.1h-6
				C2.4-8.7,2.4-15.1,2.4-15.1z M-11.7-7.1l0.1,2.8c-0.1,0.8,0.4,1.5,1.1,1.9L-8.2-1L-11-0.9c-0.8,0.1-1.4,0.5-1.8,1.2l-1.2,2.5
				l-0.1-2.9c0-0.8-0.4-1.5-1.1-1.9l-2.3-1.3l2.7-0.2c0.8,0,1.6-0.5,1.9-1.2L-11.7-7.1z"/>
		</g>
	</g>
</g>
</svg>
