<?xml version="1.0" encoding="utf-8"?>
<!-- Generator: Adobe Illustrator 22.1.0, SVG Export Plug-In . SVG Version: 6.00 Build 0)  -->
<svg version="1.1" id="Layer_1" xmlns="http://www.w3.org/2000/svg" xmlns:xlink="http://www.w3.org/1999/xlink" x="0px" y="0px"
	 viewBox="0 0 69 69" style="enable-background:new 0 0 69 69;" xml:space="preserve">
<style type="text/css">
	.st0{fill:#FF13DC;fill-opacity:0;}
	.st1{fill:#FFFFFF;stroke:#707070;}
</style>
<g id="Toast" transform="translate(-787.5 -645.5)">
	<g id="icon" transform="translate(814 671)">
		<rect id="Canvas" x="-12" y="-11" class="st0" width="40" height="40"/>
		<g id="Group_60119" transform="translate(-1 1)">
			<path id="Path_35925" class="st1" d="M12.8,12.2v2.5c0,0.7,0.4,1.3,1,1.7l2,1.3h-2.4c-0.7,0.1-1.3,0.4-1.6,1l-1.2,2.1v-2.5
				c0-0.7-0.4-1.3-1-1.7l-2-1.3h2.7c0.7-0.1,1.3-0.4,1.6-1L12.8,12.2z M12.6,0.5l0.2,3.1c0.1,0.8,0.5,1.6,1.2,2.1l2.7,1.5l-3.1,0.2
				c-0.8,0.1-1.6,0.5-2,1.3l-1.4,2.7L10,8.4C9.9,7.6,9.5,6.8,8.8,6.4L5.9,4.7L9,4.5c0.8-0.1,1.6-0.5,2-1.3L12.6,0.5z M16.7,1.5V-9.8
				H1.8c-0.6,0-1,0.5-1,1V5.9l6.3,5.4c0.2,0.2,0.2,0.4,0,0.4L1,13.1V25c0,0.5,0.4,1,0.9,1c0,0,0.1,0,0.1,0h26c0.5,0,1-0.4,1-0.9
				c0,0,0-0.1,0-0.1V2.4H18C17.3,2.4,16.7,1.9,16.7,1.5L16.7,1.5z"/>
			<path id="Path_35926" class="st1" d="M19.6-9.8L19.6-9.8c0.4,0,0.6,0.2,0.8,0.2l8.2,8.7c0,0.2,0.2,0.4,0.2,0.7V0h-9.2V-9.8z
				 M-2.2,2.4L-2,6.7C-2.1,7.9-1.4,9-0.3,9.6l3.6,2.2L-1,12c-1.2,0.1-2.2,0.7-2.7,1.8l-1.9,3.8l-0.2-4.4c0-1.2-0.6-2.3-1.7-2.9
				l-3.6-2L-7,8c1.2,0,2.4-0.7,2.9-1.8L-2.2,2.4z"/>
		</g>
	</g>
</g>
</svg>
