<?xml version="1.0" encoding="utf-8"?>
<!-- Generator: Adobe Illustrator 21.0.2, SVG Export Plug-In . SVG Version: 6.00 Build 0)  -->
<svg version="1.1" id="Layer_1" xmlns="http://www.w3.org/2000/svg" xmlns:xlink="http://www.w3.org/1999/xlink" x="0px" y="0px"
	 width="22px" height="22px" viewBox="0 0 22 22" style="enable-background:new 0 0 22 22;" xml:space="preserve">
<style type="text/css">
	.st0{clip-path:url(#SVGID_2_);}
	.st1{clip-path:url(#SVGID_4_);}
	.st2{fill:#FFFFFF;}
</style>
<g>
	<defs>
		<path id="SVGID_1_" d="M3,0C1.3,0,0,1.3,0,3c0,0,0,0,0,0v10.7c0,1.6,1.4,2.9,3,2.9h2.5v5c0,0.3,0.2,0.5,0.5,0.5
			c0.1,0,0.3-0.1,0.4-0.2l5.1-5.3H19c1.6,0,3-1.3,3-2.9c0,0,0,0,0,0V3c0.1-1.5-1.1-2.9-2.6-3c-0.1,0-0.2,0-0.2,0H3z M16.6,6.5
			c1,0,1.8,0.8,1.8,1.8c0,1-0.8,1.8-1.8,1.8s-1.8-0.8-1.8-1.8C14.8,7.3,15.6,6.5,16.6,6.5C16.5,6.5,16.6,6.5,16.6,6.5z M11,6.5
			c1,0,1.8,0.8,1.8,1.8c0,1-0.8,1.8-1.8,1.8c-1,0-1.8-0.8-1.8-1.8C9.3,7.3,10,6.5,11,6.5C11,6.5,11,6.5,11,6.5z M5.5,6.5
			c1,0,1.8,0.8,1.8,1.8c0,1-0.8,1.8-1.8,1.8c-1,0-1.8-0.8-1.8-1.8C3.7,7.3,4.5,6.5,5.5,6.5C5.5,6.5,5.5,6.5,5.5,6.5z"/>
	</defs>
	<clipPath id="SVGID_2_">
		<use xlink:href="#SVGID_1_"  style="overflow:visible;"/>
	</clipPath>
	<g class="st0">
		<g id="Group_61739">
			<defs>
				<rect id="SVGID_3_" x="-2.2" y="-3.3" width="26.5" height="26.5"/>
			</defs>
			<clipPath id="SVGID_4_">
				<use xlink:href="#SVGID_3_"  style="overflow:visible;"/>
			</clipPath>
			<g id="Group_61738" transform="translate(-1.608 -2.411)" class="st1">
				<rect id="Rectangle_138972" x="-3.9" y="-3.1" class="st2" width="33.1" height="33.1"/>
			</g>
		</g>
	</g>
</g>
</svg>
