<svg id="Icon" xmlns="http://www.w3.org/2000/svg" width="18" height="18" viewBox="0 0 18 18">
  <rect id="Frame" width="18" height="18" fill="#f0f" opacity="0"/>
  <path id="Path_35917" data-name="Path 35917" d="M15.867,2.293c-.149-.426-.27-.448-.583-.135C14.7,2.734,14.111,3.3,13.557,3.9a.988.988,0,0,1-.931.348c-.668-.092-.654-.064-.768-.739a.855.855,0,0,1,.284-.846c.625-.583,1.215-1.2,1.812-1.805.32-.32.277-.462-.156-.611A2.968,2.968,0,0,0,12.775.09,3.28,3.28,0,0,0,9.506,4.176a.429.429,0,0,1-.1.469Q7.051,6.991,4.723,9.357a.426.426,0,0,1-.469.142,3.3,3.3,0,0,0-1.265-.085,3.34,3.34,0,0,0-2.7,4.442c.149.377.27.405.554.128.625-.618,1.251-1.229,1.855-1.862a.771.771,0,0,1,.782-.256c.711.121.7.107.81.831a.745.745,0,0,1-.249.725c-.618.59-1.208,1.2-1.812,1.805-.37.37-.341.519.163.661A3.247,3.247,0,0,0,5.64,15.2a3.216,3.216,0,0,0,1-3.2.57.57,0,0,1,.185-.611Q9.076,9.14,11.3,6.877a.663.663,0,0,1,.732-.22,3.133,3.133,0,0,0,3.155-1.009A3.207,3.207,0,0,0,15.867,2.293Z" transform="translate(0.926 0.911)" fill="#707070"/>
</svg>
