<?xml version="1.0" encoding="utf-8"?>
<!-- Generator: Adobe Illustrator 22.1.0, SVG Export Plug-In . SVG Version: 6.00 Build 0)  -->
<svg version="1.1" id="Layer_1" xmlns="http://www.w3.org/2000/svg" xmlns:xlink="http://www.w3.org/1999/xlink" x="0px" y="0px"
	 viewBox="0 0 34 34" style="enable-background:new 0 0 34 34;" xml:space="preserve">
<style type="text/css">
	.st0{fill:#1473E6;}
	.st1{fill:#FFFFFF;}
</style>
<circle class="st0" cx="17" cy="17" r="16"/>
<path class="st0" d="M17,0C7.6,0,0,7.6,0,17s7.6,17,17,17s17-7.6,17-17S26.4,0,17,0z M17,33C8.2,33,1,25.8,1,17S8.2,1,17,1
	s16,7.2,16,16S25.8,33,17,33z"/>
<path class="st1" d="M24,9H10.6c-1.1,0-2,0.9-2,2v9.5c0,1.1,0.9,2,2,2l3,0V27c0,0.1,0.1,0.3,0.2,0.3c0.1,0,0.1,0,0.2-0.1l4.6-4.7H24
	c1.1,0,2-0.9,2-2V11C26,9.9,25.1,9,24,9z M20,17.8c0,0.1-0.1,0.3-0.2,0.3h-7c-0.1,0-0.3-0.1-0.3-0.3v-1c0-0.1,0.1-0.3,0.3-0.3h7
	c0.1,0,0.3,0.1,0.3,0.3V17.8z M22.5,14.3c0,0.1-0.1,0.3-0.3,0.3h0h-9.5c-0.1,0-0.3-0.1-0.3-0.3v-1c0-0.1,0.1-0.3,0.3-0.3h9.5
	c0.1,0,0.3,0.1,0.3,0.3V14.3z"/>
</svg>
