<?xml version="1.0" encoding="utf-8"?>
<!-- Generator: Adobe Illustrator 22.1.0, SVG Export Plug-In . SVG Version: 6.00 Build 0)  -->
<svg version="1.1" id="Layer_1" xmlns="http://www.w3.org/2000/svg" xmlns:xlink="http://www.w3.org/1999/xlink" x="0px" y="0px"
	 viewBox="0 0 34 34" style="enable-background:new 0 0 34 34;" xml:space="preserve">
<style type="text/css">
	.st0{fill:none;}
	.st1{fill:#1473E6;enable-background:new    ;}
	.st2{fill:#1473E6;}
	.st3{fill:#FFFFFF;}
</style>
<rect class="st0" width="34" height="34"/>
<circle class="st1" cx="17" cy="17" r="16"/>
<path class="st2" d="M17,0C7.6,0,0,7.6,0,17s7.6,17,17,17s17-7.6,17-17S26.4,0,17,0z M17,33C8.2,33,1,25.8,1,17S8.2,1,17,1
	s16,7.2,16,16S25.8,33,17,33z"/>
<path id="Path_532" class="st3" d="M9.8,9C9.4,9,9.2,9.2,9.2,9.5V13c0,0.3,0.2,0.5,0.5,0.5h1.5c0.3,0,0.5-0.2,0.5-0.5v-1.5h4v11
	h-1.5c-0.3,0-0.5,0.2-0.5,0.5v1.5c0,0.3,0.2,0.5,0.5,0.5h5.5c0.3,0,0.5-0.2,0.5-0.5V23c0-0.3-0.2-0.5-0.5-0.5h-1.5v-11h4V13
	c0,0.3,0.2,0.5,0.5,0.5h1.5c0.3,0,0.5-0.2,0.5-0.5V9.5c0-0.3-0.2-0.5-0.5-0.5H9.8z"/>
</svg>
