<svg xmlns="http://www.w3.org/2000/svg" viewBox="0 0 376 49">
  <defs>
    <style>
      .cls-1 {
        fill: #707070;
        stroke: #eaeaea;
      }

      .cls-2 {
        fill: #ff13dc;
        opacity: 0;
      }

      .cls-3 {
        fill: #fff;
      }
    </style>
  </defs>
  <g id="Toast" transform="translate(-492.5 -677.5)">
    <rect id="Blue" class="cls-1" width="375" height="48" transform="translate(493 678)"/>
    <g id="icon" transform="translate(509 693)">
      <rect id="Canvas" class="cls-2" width="18" height="18" transform="translate(-1)"/>
      <g id="Group_60119" data-name="Group 60119" transform="translate(-1 1)">
        <path id="Path_35925" data-name="Path 35925" class="cls-3" d="M10.73,9.9v1.131a.964.964,0,0,0,.46.754l.92.565h-1.1a.936.936,0,0,0-.736.471l-.552.942V12.628a.964.964,0,0,0-.46-.754l-.92-.565h1.2a.936.936,0,0,0,.736-.471Zm-.092-5.277.092,1.414a1.255,1.255,0,0,0,.552.942l1.2.66-1.38.094a1.216,1.216,0,0,0-.92.565L9.533,9.518,9.441,8.2a1.255,1.255,0,0,0-.552-.942L7.6,6.5l1.38-.094a1.216,1.216,0,0,0,.92-.565Zm1.841.471V0H5.76A.5.5,0,0,0,5.3.471v6.6l2.853,2.45c.092.094.092.188,0,.188l-2.761.565v5.372a.44.44,0,0,0,.46.471H17.54a.44.44,0,0,0,.46-.471V5.466H13.03C12.754,5.466,12.478,5.277,12.478,5.089Z"/>
        <path id="Path_35926" data-name="Path 35926" class="cls-3" d="M13.755,0h0c.188,0,.283.1.377.1L17.806,4c0,.1.094.2.094.3v.1H13.755Zm-9.8,5.5.094,1.9A1.349,1.349,0,0,0,4.8,8.7l1.6,1-1.884.1a1.461,1.461,0,0,0-1.225.8l-.848,1.7-.094-2A1.453,1.453,0,0,0,1.6,9L0,8.1,1.79,8a1.489,1.489,0,0,0,1.319-.8Z"/>
      </g>
    </g>
    <g id="X" transform="translate(840 698)">
      <rect id="Frame" class="cls-2" width="7.963" height="7.963" transform="translate(0.019 0.019)"/>
      <path id="Shape" class="cls-3" d="M7.744,6.689,5.036,3.981,7.744,1.274A.747.747,0,1,0,6.689.219L3.981,2.926,1.274.219A.747.747,0,1,0,.219,1.274L2.926,3.981.219,6.689A.747.747,0,1,0,1.274,7.744L3.981,5.036,6.689,7.744A.747.747,0,1,0,7.744,6.689Z" transform="translate(0.019 0.019)"/>
    </g>
  </g>
</svg>
