<svg xmlns="http://www.w3.org/2000/svg" width="22" height="22" viewBox="0 0 22 22">
  <g fill="none" transform="translate(2 3)">
    <path fill="#707070" d="M5.00488512 4.5C5.00488512 4.22385763 5.24375675 4 5.53841984 4L12.4664653 4C12.7611284 4 13 4.22385763 13 4.5L13 5C13 5.27614237 12.7611284 5.5 12.4664653 5.5L5.53841984 5.5C5.24375675 5.5 5.00488512 5.27614237 5.00488512 5L5.00488512 4.5zM5.00488512 7.5C5.00488512 7.22385763 5.24375675 7 5.53841984 7L12.4664653 7C12.7611284 7 13 7.22385763 13 7.5L13 8C13 8.27614237 12.7611284 8.5 12.4664653 8.5L5.53841984 8.5C5.24375675 8.5 5.00488512 8.27614237 5.00488512 8L5.00488512 7.5zM5.00488512 10.5C5.00488512 10.2238576 5.24375675 10 5.53841984 10L12.4664653 10C12.7611284 10 13 10.2238576 13 10.5L13 11C13 11.2761424 12.7611284 11.5 12.4664653 11.5L5.53841984 11.5C5.24375675 11.5 5.00488512 11.2761424 5.00488512 11L5.00488512 10.5z"/>
    <path fill="#6E6E6E" d="M17.0269485,8.98836561e-13 L0.973051531,8.98836561e-13 C0.435650009,8.98836561e-13 0,0.462723851 0,1.03352265 L0,13.9664774 C0,14.5372761 0.435650009,15 0.973051531,15 L17.0269485,15 C17.56435,15 18,14.5372761 18,13.9664774 L18,1.03352265 C18,0.462723851 17.56435,8.98836561e-13 17.0269485,8.98836561e-13 Z M16.5801094,13.449716 L1.4595773,13.449716 L1.4595773,1.55028397 L16.5801094,1.55028397 L16.5801094,13.449716 Z"/>
  </g>
</svg>
