<svg xmlns="http://www.w3.org/2000/svg" width="22" height="22" viewBox="0 0 22 22">
  <g fill="none" fill-rule="evenodd">
    <rect width="5" height="13" x="3" y="4" fill="#6E6E6E" fill-rule="nonzero" opacity=".3"/>
    <path fill="#707070" fill-rule="nonzero" d="M11 7.5C11 7.22385763 11.2047471 7 11.4573155 7L16.5426845 7C16.7952529 7 17 7.22385763 17 7.5L17 8C17 8.27614237 16.7952529 8.5 16.5426845 8.5L11.4573155 8.5C11.2047471 8.5 11 8.27614237 11 8L11 7.5zM11 10.5C11 10.2238576 11.2047471 10 11.4573155 10L16.5426845 10C16.7952529 10 17 10.2238576 17 10.5L17 11C17 11.2761424 16.7952529 11.5 16.5426845 11.5L11.4573155 11.5C11.2047471 11.5 11 11.2761424 11 11L11 10.5zM11 13.5C11 13.2238576 11.2047471 13 11.4573155 13L16.5426845 13C16.7952529 13 17 13.2238576 17 13.5L17 14C17 14.2761424 16.7952529 14.5 16.5426845 14.5L11.4573155 14.5C11.2047471 14.5 11 14.2761424 11 14L11 13.5z"/>
    <path fill="#707070" d="M19.0269485,3 C19.56435,3 20,3.46272385 20,4.03352265 L20,4.03352265 L20,16.9664774 C20,17.5372761 19.56435,18 19.0269485,18 L19.0269485,18 L2.97305153,18 C2.43565001,18 2,17.5372761 2,16.9664774 L2,16.9664774 L2,4.03352265 C2,3.46272385 2.43565001,3 2.97305153,3 L2.97305153,3 Z M7.5,4.55 L3.4595773,4.55028397 L3.4595773,16.449716 L7.5,16.449 L7.5,4.55 Z M18.5801094,4.55028397 L9,4.55 L9,16.449 L18.5801094,16.449716 L18.5801094,4.55028397 Z"/>
  </g>
</svg>
