<svg id="Smock_Feedback_18_N" xmlns="http://www.w3.org/2000/svg" width="18" height="18" viewBox="0 0 18 18">
  <rect id="Canvas" width="18" height="18" fill="#ff13dc" opacity="0"/>
  <path id="Path_35927" data-name="Path 35927" d="M15,1H3A2,2,0,0,0,1,3v8a2,2,0,0,0,2,2H4v4.4a.25.25,0,0,0,.427.177L9,13h6a2,2,0,0,0,2-2V3A2,2,0,0,0,15,1ZM4,8.675A1.925,1.925,0,1,1,5.925,6.75,1.925,1.925,0,0,1,4,8.675Zm5,0A1.925,1.925,0,1,1,10.925,6.75,1.925,1.925,0,0,1,9,8.675Zm5,0A1.925,1.925,0,1,1,15.925,6.75,1.925,1.925,0,0,1,14,8.675Z" fill="#707070"/>
</svg>
