<?xml version="1.0" encoding="utf-8"?>
<!-- Generator: Adobe Illustrator 22.1.0, SVG Export Plug-In . SVG Version: 6.00 Build 0)  -->
<svg version="1.1" id="Layer_1" xmlns="http://www.w3.org/2000/svg" xmlns:xlink="http://www.w3.org/1999/xlink" x="0px" y="0px"
	 viewBox="0 0 34 34" style="enable-background:new 0 0 34 34;" xml:space="preserve">
<style type="text/css">
	.st0{opacity:0.8;fill:#F5F5F5;enable-background:new    ;}
	.st1{fill:#EAEAEA;}
	.st2{fill:none;}
	.st3{fill:#1473E6;}
</style>
<circle class="st0" cx="17" cy="17" r="16"/>
<path class="st1" d="M17,0C7.6,0,0,7.6,0,17s7.6,17,17,17s17-7.6,17-17S26.4,0,17,0z M17,33C8.2,33,1,25.8,1,17S8.2,1,17,1
	s16,7.2,16,16S25.8,33,17,33z"/>
<rect x="13" y="22.3" class="st2" width="8" height="1.3"/>
<path class="st3" d="M18.4,18.6C18.2,18,18,16.5,18,15.9c0-0.5,0.2-1.1,0.3-1.5c1.3-0.5,1.9-1.6,1.9-3c0-1.8-1.4-3.2-3.2-3.2
	c-1.8,0-3.2,1.4-3.2,3.2c0,1.4,0.7,2.5,1.9,3c0.2,0.5,0.3,1.1,0.3,1.5c0,0.6-0.2,2.1-0.4,2.7c-1.9,0.1-5,0.9-6.3,1.4
	c-0.5,0.2-0.8,0.6-0.8,1.1l0,1.3c0,0.2,0.2,0.4,0.4,0.4h16.2c0.2,0,0.4-0.2,0.4-0.4l0-1.3c0-0.5-0.3-1-0.8-1.1
	C23.4,19.5,20.3,18.7,18.4,18.6z M24.5,25.8h-15c-0.1,0-0.2-0.1-0.2-0.2v-1c0-0.1,0.1-0.2,0.2-0.2h15c0.1,0,0.2,0.1,0.2,0.2v1
	C24.7,25.7,24.6,25.8,24.5,25.8z"/>
</svg>
