<?xml version="1.0" encoding="utf-8"?>
<!-- Generator: Adobe Illustrator 22.1.0, SVG Export Plug-In . SVG Version: 6.00 Build 0)  -->
<svg version="1.1" id="Layer_1" xmlns="http://www.w3.org/2000/svg" xmlns:xlink="http://www.w3.org/1999/xlink" x="0px" y="0px"
	 viewBox="0 0 20.5 20.5" style="enable-background:new 0 0 20.5 20.5;" xml:space="preserve">
<style type="text/css">
	.st0{fill:#4B4B4B;}
	.st1{fill:none;}
	.st2{fill:#FFFFFF;}
</style>
<path class="st0" d="M17.2,0h-14C1.5,0,0,1.5,0,3.2v14c0,1.8,1.5,3.2,3.2,3.2h14c1.8,0,3.2-1.5,3.2-3.2v-14C20.5,1.5,19,0,17.2,0z
	 M20,17.2c0,1.5-1.2,2.8-2.8,2.8h-14c-1.5,0-2.8-1.2-2.8-2.8v-14c0-1.5,1.2-2.8,2.8-2.8h14c1.5,0,2.8,1.2,2.8,2.8V17.2z"/>
<path class="st1" d="M17.2,0.5h-14c-1.5,0-2.8,1.2-2.8,2.8v14c0,1.5,1.2,2.8,2.8,2.8h14c1.5,0,2.8-1.2,2.8-2.8v-14
	C20,1.7,18.8,0.5,17.2,0.5z"/>
<path class="st2" d="M10.8,4.3c-2.8,0-4.9,0.8-6.4,2.6c-0.7,0.9-1,2-0.8,3.2c0.1,1.3,1.1,2.7,2.4,3.2c0.9,0.7,0.5,2,0,2.8
	c0.8-0.3,1.6-0.8,2.1-1.5c0.2-0.2,0.5-0.3,0.8-0.3c3,0.3,5.5-0.5,7.3-2.5c0.8-0.9,1.2-2,1.1-3.1C17.2,6.5,14.1,4.3,10.8,4.3z"/>
<path class="st0" d="M10.8,3.8c-3,0-5.2,0.9-6.8,2.8c-0.7,1-1.1,2.3-1,3.6c0.2,1.5,1.3,3,2.6,3.6c0.7,0.5,0,2-0.5,2.7l-0.4,0.6
	l0.7-0.2c1.2-0.3,2.2-1,3-1.9c0.1-0.1,0.3-0.1,0.4-0.2c3.2,0.4,5.8-0.5,7.7-2.6c0.9-1,1.3-2.2,1.3-3.5C17.7,6.2,14.4,3.8,10.8,3.8z
	 M16.2,12c-1.8,2-4.3,2.8-7.3,2.5c-0.3,0-0.6,0.1-0.8,0.3c-0.6,0.7-1.3,1.2-2.1,1.5c0.5-0.9,0.8-2.2,0-2.8c-1.3-0.6-2.2-1.9-2.4-3.2
	C3.4,9,3.7,7.8,4.4,6.9c1.5-1.8,3.5-2.6,6.4-2.6c3.3,0,6.4,2.1,6.5,4.5C17.3,10,16.9,11.1,16.2,12z"/>
</svg>
