<svg fill="none" height="90" viewBox="0 0 82 90" width="82" xmlns="http://www.w3.org/2000/svg" xmlns:xlink="http://www.w3.org/1999/xlink"><linearGradient id="a"><stop offset="0" stop-color="#a9f5e7"/><stop offset=".1667" stop-color="#45d4ba"/><stop offset=".3385" stop-color="#602ca1"/><stop offset=".5625" stop-color="#a870ef"/><stop offset=".6875" stop-color="#fb865c"/><stop offset=".8438" stop-color="#ffc34e"/><stop offset="1" stop-color="#fcd9a3"/></linearGradient><radialGradient id="b" cx="32.4908" cy="77.614" gradientUnits="userSpaceOnUse" r="10.9536" xlink:href="#a"/><radialGradient id="c" cx="39.83" cy="54.548" gradientUnits="userSpaceOnUse" r="18.7346" xlink:href="#a"/><radialGradient id="d" cx="31.659" cy="35.6144" gradientUnits="userSpaceOnUse" r="10.9536" xlink:href="#a"/><radialGradient id="e" cx="37.8791" cy="60.8727" gradientUnits="userSpaceOnUse" r="17.663" xlink:href="#a"/><radialGradient id="f" cx="24.3192" cy="58.6808" gradientUnits="userSpaceOnUse" r="18.7346" xlink:href="#a"/><g stroke-linejoin="round" stroke-miterlimit="10" stroke-width=".792923"><path d="m53.8413 66.1174 15.5118-4.1342" stroke="#4eb2d2"/><path d="m80.9598 70.5019-11.6073-8.5171-.4609-23.262 11.6085 8.5171z" fill="#15161b" stroke="#4eb2d2"/><path d="m65.2 74.8176-11.3587-8.6995-.4609-23.262 11.6085 8.5159z" fill="#111215" stroke="#4eb2d2"/><g fill="#15161b"><path d="m64.8879 51.2748-11.6784-8.4384 15.9064-4.2392 11.3849 8.6807z" stroke="#4eb2d2"/><path d="m80.4615 47.2134.5383 23.2944-15.8003 4.3092-.2498-23.5443z" stroke="#4eb2d2"/><path d="m47.9938 79.2874-11.6085-8.5172 15.5117-4.133 11.6085 8.5159z" stroke="#a870ef"/><path d="m63.5053 75.1524-11.6085-8.5159-1.2952-65.42434 11.6085 8.51715z" stroke="#ffc34e"/><path d="m46.6988 13.8636-11.6085-8.51714 15.5118-4.1343 11.6085 8.51715z" stroke="#ffc34e"/><path d="m62.21 9.73096 1.2952 65.42304-15.5117 4.1343-1.2953-65.423z" stroke="#ffc34e"/><path d="m47.9941 79.2868-11.6085-8.5172-1.2953-65.42304 11.6085 8.51714z" stroke="#ffc34e"/><path d="m47.8011 79.5005-11.6085-8.5172-1.3015-65.74404 11.6073 8.51714z" stroke="#ffc34e"/><path d="m46.4984 13.7555-11.6073-8.51717 15.9052-4.23796 11.6085 8.5159z" stroke="#ffc34e"/><path d="m46.499 13.7556 15.9065-4.23924 1.3027 65.74404-15.9064 4.2392zm17.0069 61.3974-1.2965-65.42306-15.5118 4.13426 1.2965 65.4231z" stroke="#ffc34e"/><path d="m30.5392 83.9391-11.6085-8.5171 15.5117-4.1331 11.6085 8.5172z" stroke="url(#b)"/><path d="m46.0502 79.8073-11.6085-8.5172-.8318-42.0012 11.6085 8.5172z" stroke="url(#c)"/><path d="m29.7076 41.9391-11.6085-8.5159 15.5117-4.1343 11.6085 8.5172z" stroke="url(#d)"/><path d="m45.2192 37.8057.8319 42.0012-15.5117 4.133-.8319-42.0012z" stroke="url(#e)"/><path d="m30.5395 83.9395-11.6085-8.5172-.8319-41.9999 11.6085 8.5159z" stroke="url(#f)"/><path d="m30.3465 84.1521-11.6085-8.5172-.8381-42.3209 11.6085 8.5171z" stroke="#f494e5"/><path d="m29.5089 41.8307-11.6085-8.5171 15.9064-4.2393 11.6073 8.5172z" stroke="#f494e5"/><path d="m29.5083 41.8303 15.9064-4.2392.8381 42.3209-15.9064 4.2392zm16.5422 37.9756-.8319-42.0013-15.5117 4.1343.8319 42.0013z" stroke="#f494e5"/><path d="m28.3228 70.5615.2748 13.8943-15.5118 4.1343-.2748-13.8955z" stroke="#7eefda"/><path d="m12.8908 88.8005-11.60852-8.5159-.28228-14.2127 11.6085 8.5172z" stroke="#7eefda"/><path d="m12.6085 74.5898-11.6085-8.5171 15.9064-4.238 11.6085 8.5159z" stroke="#7eefda"/><path d="m12.6084 74.5893 15.9064-4.2392.281 14.2115-15.9064 4.2392zm15.9889 9.8649-.2748-13.8943-15.5118 4.1343.2748 13.8943z" stroke="#a9f5e7"/></g></g></svg>