<svg viewBox="0 0 240 120" fill="none" xmlns="http://www.w3.org/2000/svg">
<path d="M195.751 70.7001C197.961 73.6465 197.593 87.3965 206.309 91.6934C207.537 89.9746 216.008 69.9635 209.256 65.2983C210.975 68.4903 209.133 78.3117 205.696 83.8363C203.936 79.9486 199.484 71.8787 195.751 70.7001Z" fill="url(#paint0_linear_7321_1441)"/>
<path d="M199.926 61.2473C197.594 67.0174 197.839 78.0665 205.451 85.5553C210.976 83.591 212.694 68.7361 204.346 61.2473C205.328 64.3984 206.924 71.4616 205.451 74.5062C203.937 72.7466 200.712 67.6312 199.926 61.2473Z" fill="url(#paint1_linear_7321_1441)"/>
<path d="M204.959 75.8567C199.926 70.3321 196.857 57.5643 203.486 48.3567C202.013 54.2495 210.484 71.3142 204.959 75.8567Z" fill="url(#paint2_linear_7321_1441)"/>
<path fill-rule="evenodd" clip-rule="evenodd" d="M204.865 49.1671C205.231 49.522 205.24 50.1064 204.885 50.4724C204.077 51.3057 203.576 52.4665 203.343 53.9858C203.109 55.5109 203.154 57.3389 203.392 59.4316C203.728 62.376 204.426 65.7092 205.179 69.3066C205.503 70.8533 205.837 72.4488 206.157 74.0833C208.25 84.7797 209.725 97.0593 202.482 105.906L201.053 104.736C207.682 96.6404 206.456 85.2258 204.345 74.4379C204.038 72.8695 203.712 71.3119 203.392 69.7843C202.63 66.1437 201.904 62.6744 201.558 59.6407C201.311 57.4749 201.248 55.4626 201.518 53.7056C201.789 51.9427 202.404 50.3796 203.56 49.1872C203.915 48.8212 204.499 48.8122 204.865 49.1671Z" fill="#7A4E05"/>
<path d="M17.4155 83.0929C20.3023 85.9269 24.3284 92.1099 35.1008 87.4147C34.4007 82.6128 31.457 72.2447 25.2827 69.187C28.9742 73.0754 29.5025 79.3778 29.2714 81.3644C29.0403 83.351 24.0391 86.5538 17.4155 83.0929Z" fill="url(#paint3_linear_7321_1441)"/>
<path d="M11.0202 70.4846C13.7953 78.8029 20.1559 85.8173 31.9772 84.7448C32.6599 81.3904 26.9236 69.7283 15.753 69.0134C18.2654 70.4698 23.6573 74.2925 25.1253 77.9322C23.1033 78.0534 17.4515 76.7336 11.0202 70.4846Z" fill="url(#paint4_linear_7321_1441)"/>
<path d="M27.3188 80.4775C18.0871 78.5947 12.0312 67.3003 10.1572 61.8884C14.2391 68.4539 27.4094 73.9547 27.3188 80.4775Z" fill="url(#paint5_linear_7321_1441)"/>
<path fill-rule="evenodd" clip-rule="evenodd" d="M18.1215 74.1535C18.2563 73.6619 18.7642 73.3726 19.2558 73.5074C27.1716 75.678 32.924 81.8572 36.5462 87.9548C38.3632 91.0137 39.6659 94.0868 40.4499 96.6935C40.8418 97.9966 41.1079 99.1959 41.2414 100.228C41.3725 101.242 41.3852 102.164 41.2175 102.878L39.4201 102.457C39.5134 102.059 39.5306 101.394 39.4105 100.465C39.2928 99.5543 39.052 98.4555 38.6819 97.2252C37.942 94.765 36.7006 91.8296 34.9589 88.8977C31.4637 83.0137 26.0406 77.2822 18.7676 75.2878C18.2759 75.153 17.9867 74.6452 18.1215 74.1535Z" fill="#7A4E05"/>
<path d="M215.026 67.9993C216.008 73.2783 210.852 81.872 215.026 88.747C222.023 90.4658 229.39 82.4859 227.916 71.0685C228.039 74.7515 223.497 83.2225 218.095 84.5729C218.218 80.317 217.776 71.0439 215.026 67.9993Z" fill="url(#paint6_linear_7321_1441)"/>
<path d="M221.165 65.5439C216.745 70.3319 215.64 77.5752 217.359 84.8185C228.04 85.9234 225.707 74.1377 229.021 67.3855C225.338 68.2448 222.515 79.9078 221.165 79.4167C219.814 78.9256 219.323 74.9971 221.165 65.5439Z" fill="url(#paint7_linear_7321_1441)"/>
<path d="M226.321 60.0197C222.024 64.071 217.85 74.5063 220.182 79.908C223.252 79.908 231.845 64.071 227.671 56.2139C227.466 57.2369 226.91 59.4304 226.321 60.0197Z" fill="url(#paint8_linear_7321_1441)"/>
<path fill-rule="evenodd" clip-rule="evenodd" d="M225.496 64.1303C226.005 64.1495 226.402 64.578 226.383 65.0874C225.942 76.8121 221.151 83.0561 216.474 88.432C216.126 88.8318 215.78 89.2259 215.437 89.6162C211.181 94.464 207.434 98.7304 207.109 106.22L205.264 106.14C205.619 97.9781 209.782 93.2467 214.013 88.4391C214.369 88.034 214.726 87.6285 215.081 87.2203C219.643 81.9768 224.12 76.1281 224.538 65.018C224.558 64.5086 224.986 64.1111 225.496 64.1303Z" fill="#7A4E05"/>
<path d="M34.6251 68.0855C33.6723 72.5642 33.7996 82.6052 41.9307 86.9399C47.1713 84.4833 49.5053 72.8163 41.3972 66.317L34.6251 68.0855Z" fill="url(#paint9_linear_7321_1441)"/>
<path d="M30.4981 52.2825C25.7359 62.4809 37.411 73.798 41.0435 82.6423C42.9143 78.5071 45.3026 68.4552 39.8891 61.3288C38.0989 66.0163 33.4513 59.1428 30.4981 52.2825Z" fill="url(#paint10_linear_7321_1441)"/>
<path d="M32.656 48.3228C32.1105 52.9157 32.2916 63.5043 37.3801 69.1158C42.6152 64.8374 36.5837 52.0465 38.0553 44.2808C36.7584 45.2076 34.4136 48.7696 35.4099 55.6027C34.9 55.677 33.6353 54.3251 32.656 48.3228Z" fill="url(#paint11_linear_7321_1441)"/>
<path fill-rule="evenodd" clip-rule="evenodd" d="M35.5247 63.1377C36.0013 62.9569 36.5343 63.1967 36.7152 63.6733C39.8064 71.8208 41.7647 80.0491 42.4498 87.236C43.1314 94.3863 42.5663 100.643 40.4707 104.747L38.8264 103.908C40.6804 100.277 41.283 94.4499 40.612 87.4112C39.9444 80.409 38.0296 72.342 34.9891 64.3282C34.8082 63.8516 35.048 63.3186 35.5247 63.1377Z" fill="#7A4E05"/>
<path d="M11.25 120C35.1923 76.8718 209.135 71.5908 222.115 120H11.25Z" fill="url(#paint12_linear_7321_1441)"/>
<path d="M135.679 106.01C130.259 101.331 123.964 90.3332 124.186 77.9546C112.159 77.9546 117.244 98.7982 124.553 101.525C118.134 98.077 114.955 103.981 119.024 106.01C119.024 106.01 133.137 107.164 135.679 106.01Z" fill="url(#paint13_linear_7321_1441)"/>
<path d="M135.679 106.01C130.259 101.331 123.964 90.3332 124.186 77.9546C112.159 77.9546 117.244 98.7982 124.553 101.525C118.134 98.077 114.955 103.981 119.024 106.01C119.024 106.01 133.137 107.164 135.679 106.01Z" fill="url(#paint14_radial_7321_1441)"/>
<path d="M135.679 106.01C130.259 101.331 123.964 90.3332 124.186 77.9546C112.159 77.9546 117.244 98.7982 124.553 101.525C118.134 98.077 114.955 103.981 119.024 106.01C119.024 106.01 133.137 107.164 135.679 106.01Z" fill="url(#paint15_radial_7321_1441)"/>
<path d="M135.679 106.009C136.252 107.235 145.103 109.407 146.979 108.038C150.568 110.887 163.485 106.206 163.485 106.206C163.362 104.598 164.679 103.014 166.373 100.975C169.611 97.0793 174.228 91.5235 172.815 80.9684C171.912 74.225 168.453 67.5533 165.124 61.1333C160.516 52.2455 159.094 42.7454 162.115 35.3005H128.942C132.207 41.806 131.947 49.9967 128.216 57.0299C124.935 63.2159 121.679 69.3532 123.254 74.9973C123.792 80.9684 122.343 94.4985 135.679 106.009Z" fill="url(#paint16_linear_7321_1441)"/>
<path d="M135.679 106.009C136.252 107.235 145.103 109.407 146.979 108.038C150.568 110.887 163.485 106.206 163.485 106.206C163.362 104.598 164.679 103.014 166.373 100.975C169.611 97.0793 174.228 91.5235 172.815 80.9684C171.912 74.225 168.453 67.5533 165.124 61.1333C160.516 52.2455 159.094 42.7454 162.115 35.3005H128.942C132.207 41.806 131.947 49.9967 128.216 57.0299C124.935 63.2159 121.679 69.3532 123.254 74.9973C123.792 80.9684 122.343 94.4985 135.679 106.009Z" fill="url(#paint17_radial_7321_1441)"/>
<path d="M135.679 106.009C136.252 107.235 145.103 109.407 146.979 108.038C150.568 110.887 163.485 106.206 163.485 106.206C163.362 104.598 164.679 103.014 166.373 100.975C169.611 97.0793 174.228 91.5235 172.815 80.9684C171.912 74.225 168.453 67.5533 165.124 61.1333C160.516 52.2455 159.094 42.7454 162.115 35.3005H128.942C132.207 41.806 131.947 49.9967 128.216 57.0299C124.935 63.2159 121.679 69.3532 123.254 74.9973C123.792 80.9684 122.343 94.4985 135.679 106.009Z" fill="url(#paint18_radial_7321_1441)"/>
<path d="M135.679 106.009C136.252 107.235 145.103 109.407 146.979 108.038C150.568 110.887 163.485 106.206 163.485 106.206C163.362 104.598 164.679 103.014 166.373 100.975C169.611 97.0793 174.228 91.5235 172.815 80.9684C171.912 74.225 168.453 67.5533 165.124 61.1333C160.516 52.2455 159.094 42.7454 162.115 35.3005H128.942C132.207 41.806 131.947 49.9967 128.216 57.0299C124.935 63.2159 121.679 69.3532 123.254 74.9973C123.792 80.9684 122.343 94.4985 135.679 106.009Z" fill="url(#paint19_radial_7321_1441)"/>
<path d="M135.679 106.009C136.252 107.235 145.103 109.407 146.979 108.038C150.568 110.887 163.485 106.206 163.485 106.206C163.362 104.598 164.679 103.014 166.373 100.975C169.611 97.0793 174.228 91.5235 172.815 80.9684C171.912 74.225 168.453 67.5533 165.124 61.1333C160.516 52.2455 159.094 42.7454 162.115 35.3005H128.942C132.207 41.806 131.947 49.9967 128.216 57.0299C124.935 63.2159 121.679 69.3532 123.254 74.9973C123.792 80.9684 122.343 94.4985 135.679 106.009Z" fill="url(#paint20_radial_7321_1441)"/>
<path d="M135.679 106.009C136.252 107.235 145.103 109.407 146.979 108.038C150.568 110.887 163.485 106.206 163.485 106.206C163.362 104.598 164.679 103.014 166.373 100.975C169.611 97.0793 174.228 91.5235 172.815 80.9684C171.912 74.225 168.453 67.5533 165.124 61.1333C160.516 52.2455 159.094 42.7454 162.115 35.3005H128.942C132.207 41.806 131.947 49.9967 128.216 57.0299C124.935 63.2159 121.679 69.3532 123.254 74.9973C123.792 80.9684 122.343 94.4985 135.679 106.009Z" fill="url(#paint21_radial_7321_1441)"/>
<path d="M135.679 106.009C136.252 107.235 145.103 109.407 146.979 108.038C150.568 110.887 163.485 106.206 163.485 106.206C163.362 104.598 164.679 103.014 166.373 100.975C169.611 97.0793 174.228 91.5235 172.815 80.9684C171.912 74.225 168.453 67.5533 165.124 61.1333C160.516 52.2455 159.094 42.7454 162.115 35.3005H128.942C132.207 41.806 131.947 49.9967 128.216 57.0299C124.935 63.2159 121.679 69.3532 123.254 74.9973C123.792 80.9684 122.343 94.4985 135.679 106.009Z" fill="url(#paint22_radial_7321_1441)"/>
<path d="M135.679 106.009C136.252 107.235 145.103 109.407 146.979 108.038C150.568 110.887 163.485 106.206 163.485 106.206C163.362 104.598 164.679 103.014 166.373 100.975C169.611 97.0793 174.228 91.5235 172.815 80.9684C171.912 74.225 168.453 67.5533 165.124 61.1333C160.516 52.2455 159.094 42.7454 162.115 35.3005H128.942C132.207 41.806 131.947 49.9967 128.216 57.0299C124.935 63.2159 121.679 69.3532 123.254 74.9973C123.792 80.9684 122.343 94.4985 135.679 106.009Z" fill="url(#paint23_radial_7321_1441)"/>
<path d="M133.391 85.0961C131.483 87.2596 133.899 91.298 135.933 90.1442C138.491 88.4296 139.943 81.9876 137.205 77.1633C133.955 71.4362 124.873 68.3654 128.687 56.25C119.152 64.0385 120.932 76.947 124.364 78.4615C128.178 80.1442 134.916 83.3653 133.391 85.0961Z" fill="url(#paint24_linear_7321_1441)"/>
<path d="M133.391 85.0961C131.483 87.2596 133.899 91.298 135.933 90.1442C138.491 88.4296 139.943 81.9876 137.205 77.1633C133.955 71.4362 124.873 68.3654 128.687 56.25C119.152 64.0385 120.932 76.947 124.364 78.4615C128.178 80.1442 134.916 83.3653 133.391 85.0961Z" fill="url(#paint25_radial_7321_1441)"/>
<path d="M160.319 51.1064C153.848 49.2006 151.174 57.1322 151.064 59.9995C150.937 63.3168 151.955 68.7977 153.989 72.115C151.319 72.9804 145.215 75.4326 142.546 85.0961C140.638 91.7306 147.504 92.1634 148.521 85.8172C149.111 82.1345 153.341 80.0545 157.235 78.1399C160.051 76.7552 162.691 75.457 163.651 73.7015C164.77 71.6557 165.853 67.3456 166.149 63.1149C165.808 62.4518 165.466 61.7912 165.125 61.1332C163.35 57.7103 161.612 54.3589 160.319 51.1064Z" fill="url(#paint26_linear_7321_1441)"/>
<path d="M160.319 51.1064C153.848 49.2006 151.174 57.1322 151.064 59.9995C150.937 63.3168 151.955 68.7977 153.989 72.115C151.319 72.9804 145.215 75.4326 142.546 85.0961C140.638 91.7306 147.504 92.1634 148.521 85.8172C149.111 82.1345 153.341 80.0545 157.235 78.1399C160.051 76.7552 162.691 75.457 163.651 73.7015C164.77 71.6557 165.853 67.3456 166.149 63.1149C165.808 62.4518 165.466 61.7912 165.125 61.1332C163.35 57.7103 161.612 54.3589 160.319 51.1064Z" fill="url(#paint27_radial_7321_1441)"/>
<path d="M180.904 24.916C187.75 56.791 180.904 97.6083 166.499 100.245L159.505 106.447C184.327 109.436 194 71.3584 184.327 24.0506C183.434 20.4449 180.011 20.7333 180.904 24.916Z" fill="url(#paint28_linear_7321_1441)"/>
<path d="M161.36 82.3558C167.686 81.997 170.864 86.0021 172.708 88.943C171.675 94.5943 168.674 98.2046 166.372 100.975C165.145 102.452 162.765 104.504 164.157 106.442C160.004 109.375 150.427 111.49 145.469 108.462C144.457 102.311 148.223 101.035 152.339 101.541C148.659 93.5246 152.894 82.836 161.36 82.3558Z" fill="url(#paint29_linear_7321_1441)"/>
<path d="M161.36 82.3558C167.686 81.997 170.864 86.0021 172.708 88.943C171.675 94.5943 168.674 98.2046 166.372 100.975C165.145 102.452 162.765 104.504 164.157 106.442C160.004 109.375 150.427 111.49 145.469 108.462C144.457 102.311 148.223 101.035 152.339 101.541C148.659 93.5246 152.894 82.836 161.36 82.3558Z" fill="url(#paint30_radial_7321_1441)"/>
<path d="M161.36 82.3558C167.686 81.997 170.864 86.0021 172.708 88.943C171.675 94.5943 168.674 98.2046 166.372 100.975C165.145 102.452 162.765 104.504 164.157 106.442C160.004 109.375 150.427 111.49 145.469 108.462C144.457 102.311 148.223 101.035 152.339 101.541C148.659 93.5246 152.894 82.836 161.36 82.3558Z" fill="url(#paint31_radial_7321_1441)"/>
<path d="M124.215 27.7444C122.422 27.2967 118.733 25.4 118.323 21.3951C118.006 18.2987 119.401 15.8434 121.413 15.5389C122.654 15.351 124.25 16.8678 126.651 15.9532L124.215 27.7444Z" fill="url(#paint32_linear_7321_1441)"/>
<path d="M165.977 27.7444C167.771 27.2967 171.459 25.4 171.869 21.3951C172.186 18.2987 170.791 15.8434 168.78 15.5389C167.539 15.351 165.943 16.8678 163.542 15.9532L165.977 27.7444Z" fill="url(#paint33_linear_7321_1441)"/>
<path d="M145.097 9.1394C140.861 9.1394 122.246 17.7829 122.246 28.6817C122.246 39.5804 142.887 43.7734 145.097 43.7734C147.307 43.7734 167.048 40.191 167.048 28.6817C167.048 15.1284 149.333 9.1394 145.097 9.1394Z" fill="url(#paint34_linear_7321_1441)"/>
<path d="M142.104 28.9112C140.829 31.5047 128.071 29.7759 124.669 25.4533C127.04 25.4533 130.339 17.3247 136.009 17.3247C141.679 17.3247 143.38 26.3178 142.104 28.9112Z" fill="url(#paint35_linear_7321_1441)"/>
<path d="M147.783 28.9112C149.058 31.5047 161.816 29.7759 165.218 25.4533C162.847 25.4533 159.548 17.3247 153.878 17.3247C148.208 17.3247 146.507 26.3178 147.783 28.9112Z" fill="url(#paint36_linear_7321_1441)"/>
<path d="M140.963 28.3009C140.582 28.9107 134.501 29.848 132.595 27.9416C130.689 26.0352 130.689 22.9442 132.595 21.0378C134.501 19.1314 137.592 19.1314 139.499 21.0378C141.405 22.9442 141.344 27.6911 140.963 28.3009Z" fill="url(#paint37_linear_7321_1441)"/>
<path d="M148.857 28.3009C149.239 28.9107 155.319 29.848 157.226 27.9416C159.132 26.0352 159.132 22.9442 157.226 21.0378C155.319 19.1314 152.228 19.1314 150.322 21.0378C148.415 22.9442 148.476 27.6911 148.857 28.3009Z" fill="url(#paint38_linear_7321_1441)"/>
<path d="M139.99 27.6152C139.037 28.6061 135.368 28.9599 133.805 27.3967C132.241 25.8335 132.241 23.2991 133.805 21.7359C135.368 20.1727 137.902 20.1727 139.465 21.7359C141.029 23.2991 140.943 26.6244 139.99 27.6152Z" fill="url(#paint39_linear_7321_1441)"/>
<path d="M149.937 27.6152C150.889 28.6061 154.559 28.9599 156.122 27.3967C157.685 25.8335 157.685 23.2991 156.122 21.7359C154.559 20.1727 152.024 20.1727 150.461 21.7359C148.898 23.2991 148.984 26.6244 149.937 27.6152Z" fill="url(#paint40_linear_7321_1441)"/>
<path d="M145.206 38.2479C143.652 38.2479 137.519 37.5239 135.057 34.3607C133.451 32.2971 139.388 29.3403 145.205 29.3682C150.74 29.3948 156.167 32.3037 154.879 34.3607C152.85 37.6005 146.759 38.2479 145.206 38.2479Z" fill="url(#paint41_radial_7321_1441)"/>
<path d="M145.204 38.2481C143.65 38.2481 137.517 37.524 135.055 34.3609C135.055 34.3609 133.2 42.9359 145.204 42.9359C157.209 42.9359 154.877 34.3608 154.877 34.3608C152.848 37.6006 146.757 38.2481 145.204 38.2481Z" fill="url(#paint42_radial_7321_1441)"/>
<path d="M136.253 13.4381C143.342 13.2094 144.258 18.6211 145.553 18.5449C146.848 18.4686 147.458 13.4381 154.165 13.4381C159.981 13.4381 161.512 22.5748 166.171 23.3086C166.965 14.9529 155.919 6.95923 145.553 6.95923C135.187 6.95923 124.368 13.4545 122.992 24.7568C126.663 24.2297 129.617 13.6522 136.253 13.4381Z" fill="url(#paint43_linear_7321_1441)"/>
<circle cx="137.244" cy="22.78" r="1.33595" fill="white"/>
<circle cx="153.735" cy="22.78" r="1.33595" fill="white"/>
<path d="M148.907 34.0241C148.907 35.5011 146.044 36.6984 145.153 36.6984C144.262 36.6984 141.399 35.5011 141.399 34.0241C141.399 32.5472 141.834 31.3499 145.153 31.3499C148.472 31.3499 148.907 32.5472 148.907 34.0241Z" fill="url(#paint44_linear_7321_1441)"/>
<path d="M148.907 34.0241C148.907 35.5011 146.044 36.6984 145.153 36.6984C144.262 36.6984 141.399 35.5011 141.399 34.0241C141.399 32.5472 141.834 31.3499 145.153 31.3499C148.472 31.3499 148.907 32.5472 148.907 34.0241Z" fill="url(#paint45_radial_7321_1441)"/>
<path d="M138.334 27.3969C135.665 28.8529 132.591 26.3453 133.724 23.5142C133.602 24.6466 134.263 25.7589 135.038 26.4464C135.809 27.1301 137.101 27.498 138.334 27.3969Z" fill="white" fill-opacity="0.4"/>
<path d="M154.825 27.3969C152.156 28.8529 149.082 26.3453 150.214 23.5142C150.093 24.6466 150.753 25.7589 151.529 26.4464C152.3 27.1301 153.591 27.498 154.825 27.3969Z" fill="white" fill-opacity="0.4"/>
<path d="M104.701 106.42C104.97 99.2981 96.5043 101.179 91.9358 103.732V106.42H104.701Z" fill="url(#paint46_linear_7321_1441)"/>
<path d="M104.701 106.42C104.97 99.2981 96.5043 101.179 91.9358 103.732V106.42H104.701Z" fill="url(#paint47_radial_7321_1441)"/>
<path d="M102.83 91.3497C104.28 82.7821 94.6634 77.0969 86.0518 89.1235C81.152 96.1019 86.0518 104.714 90.9515 104.714C92.0864 104.714 101.197 101.001 102.83 91.3497Z" fill="url(#paint48_linear_7321_1441)"/>
<path d="M60.3329 38.3785C53.712 53.0373 49.1007 77.4674 68.6184 99.395L71.8188 95.685C56.8065 80.5832 57.873 57.0349 64.4897 36.4305C65.5462 33.1381 63.2556 31.9066 60.3329 38.3785Z" fill="url(#paint49_linear_7321_1441)"/>
<path d="M93.4221 63.9089C102.479 66.433 105.152 75.3417 101.291 81.5777C98.2031 86.5665 94.7584 71.8772 93.4221 63.9089Z" fill="url(#paint50_linear_7321_1441)"/>
<path d="M93.4221 63.9089C102.479 66.433 105.152 75.3417 101.291 81.5777C98.2031 86.5665 94.7584 71.8772 93.4221 63.9089Z" fill="url(#paint51_radial_7321_1441)"/>
<path d="M65.2114 92.2684C62.5388 71.4817 80.2817 67.8814 74.9365 49.3218L97.2082 48.3567C90.6752 60.5318 106.934 81.8751 94.1648 99.6923C85.4109 111.907 67.884 113.055 65.2114 92.2684Z" fill="url(#paint52_linear_7321_1441)"/>
<path d="M65.2114 92.2684C62.5388 71.4817 80.2817 67.8814 74.9365 49.3218L97.2082 48.3567C90.6752 60.5318 106.934 81.8751 94.1648 99.6923C85.4109 111.907 67.884 113.055 65.2114 92.2684Z" fill="url(#paint53_radial_7321_1441)"/>
<path d="M65.2114 92.2684C62.5388 71.4817 80.2817 67.8814 74.9365 49.3218L97.2082 48.3567C90.6752 60.5318 106.934 81.8751 94.1648 99.6923C85.4109 111.907 67.884 113.055 65.2114 92.2684Z" fill="url(#paint54_radial_7321_1441)"/>
<path d="M65.2114 92.2684C62.5388 71.4817 80.2817 67.8814 74.9365 49.3218L97.2082 48.3567C90.6752 60.5318 106.934 81.8751 94.1648 99.6923C85.4109 111.907 67.884 113.055 65.2114 92.2684Z" fill="url(#paint55_radial_7321_1441)"/>
<path d="M94.7579 78.7576C95.0548 74.3033 87.9279 64.5038 76.3467 71.3337C75.1594 72.0343 73.5302 75.0932 75.1588 78.7576C78.1283 85.4391 87.1855 77.1244 88.5218 79.6485C89.8581 82.1726 84.5129 84.9936 87.1855 85.736C89.8581 86.4784 94.4609 83.2119 94.7579 78.7576Z" fill="url(#paint56_linear_7321_1441)"/>
<path d="M94.7579 78.7576C95.0548 74.3033 87.9279 64.5038 76.3467 71.3337C75.1594 72.0343 73.5302 75.0932 75.1588 78.7576C78.1283 85.4391 87.1855 77.1244 88.5218 79.6485C89.8581 82.1726 84.5129 84.9936 87.1855 85.736C89.8581 86.4784 94.4609 83.2119 94.7579 78.7576Z" fill="url(#paint57_radial_7321_1441)"/>
<path d="M94.7579 78.7576C95.0548 74.3033 87.9279 64.5038 76.3467 71.3337C75.1594 72.0343 73.5302 75.0932 75.1588 78.7576C78.1283 85.4391 87.1855 77.1244 88.5218 79.6485C89.8581 82.1726 84.5129 84.9936 87.1855 85.736C89.8581 86.4784 94.4609 83.2119 94.7579 78.7576Z" fill="url(#paint58_radial_7321_1441)"/>
<path d="M95.0558 108.75C95.3528 100.88 84.5138 102.959 79.4656 105.78V108.75L95.0558 108.75Z" fill="url(#paint59_linear_7321_1441)"/>
<path d="M91.7896 95.0897C93.2392 86.522 83.623 80.8368 75.0113 92.8634C70.1116 99.8419 74.7143 108.75 79.6141 108.75C81.8417 105.482 90.1568 104.741 91.7896 95.0897Z" fill="url(#paint60_linear_7321_1441)"/>
<path d="M91.7896 95.0897C93.2392 86.522 83.623 80.8368 75.0113 92.8634C70.1116 99.8419 74.7143 108.75 79.6141 108.75C81.8417 105.482 90.1568 104.741 91.7896 95.0897Z" fill="url(#paint61_radial_7321_1441)"/>
<path d="M96.7125 27.7551C94.8946 20.597 73.838 26.7886 70.294 37.0983C69.6853 38.8703 67.8777 43.8641 71.9049 48.0523C75.9321 52.2404 90.269 51.4351 94.2962 50.1464C98.3234 48.8577 103.961 46.2803 103.961 38.8703C103.961 32.7488 98.675 35.4824 96.7125 27.7551Z" fill="url(#paint62_linear_7321_1441)"/>
<path d="M91.0721 38.1475C90.9495 40.362 81.4214 42.9701 77.7215 40.9385C79.3958 40.2269 79.2859 33.4962 83.29 31.7944C87.2941 30.0926 91.1946 35.9331 91.0721 38.1475Z" fill="url(#paint63_linear_7321_1441)"/>
<path d="M89.7963 38.1793C89.7102 38.7243 85.6974 41.2114 83.7788 40.4372C81.8603 39.6631 80.9326 37.4803 81.7067 35.5617C82.4808 33.6432 84.6637 32.7154 86.5822 33.4896C88.5008 34.2637 89.8825 37.6343 89.7963 38.1793Z" fill="url(#paint64_linear_7321_1441)"/>
<circle cx="85.845" cy="36.6292" r="2.89423" transform="rotate(-23.0259 85.845 36.6292)" fill="url(#paint65_linear_7321_1441)"/>
<path d="M103.811 40.8846C103.52 40.2782 103.056 39.6676 102.381 39.0618C104.122 43.8831 97.6795 48.2143 86.5645 44.4283C86.5645 49.2173 90.2409 50.4642 93.6042 50.3397C93.8599 50.2773 94.0915 50.2129 94.2964 50.1474C97.935 48.983 102.889 46.7667 103.811 40.8846Z" fill="url(#paint66_radial_7321_1441)"/>
<circle cx="86.2209" cy="35.4206" r="0.965961" transform="rotate(-23.0259 86.2209 35.4206)" fill="white"/>
<path d="M69.4589 41.1882C63.7233 39.9691 68.0355 50.5099 74.4819 49.5025C70.6925 46.6435 69.4589 41.1882 69.4589 41.1882Z" fill="url(#paint67_linear_7321_1441)"/>
<path d="M96.6881 27.6619C96.6969 27.693 96.7054 27.7244 96.7134 27.7561C97.7062 31.6651 99.5495 32.8971 101.129 33.9526C101.66 34.3079 102.162 34.6431 102.591 35.0537C99.5129 37.0823 94.4934 37.9578 93.6799 36.5404C92.6273 34.7063 92.9363 27.9944 96.6015 27.6684C96.6304 27.6659 96.6593 27.6637 96.6881 27.6619Z" fill="url(#paint68_linear_7321_1441)"/>
<path d="M94.533 36.0808C94.8212 36.4977 98.492 36.7113 99.4109 35.167C100.33 33.6228 100.004 31.3594 98.6828 30.1116C97.3619 28.8638 95.5461 29.1042 94.6273 30.6484C93.7084 32.1926 94.2448 35.6639 94.533 36.0808Z" fill="url(#paint69_linear_7321_1441)"/>
<ellipse cx="2.23499" cy="2.79042" rx="2.23499" ry="2.79042" transform="matrix(-0.991354 0.131215 0.142545 0.989788 99.2871 29.5786)" fill="url(#paint70_linear_7321_1441)"/>
<ellipse cx="0.745938" cy="0.931316" rx="0.745938" ry="0.931316" transform="matrix(-0.991354 0.131215 0.142545 0.989788 98.5435 30.2625)" fill="white"/>
<path d="M81.0883 30.1715C85.9763 27.6074 89.2434 29.4544 90.4928 30.1607L90.5119 30.1715C90.9893 28.6526 93.0624 25.8538 95.7959 26.1538C91.2205 20.5074 80.3497 24.7762 73.6116 30.9201C67.9585 36.0748 71.1803 39.5953 67.9585 41.2867C69.0176 41.2867 70.5359 44.589 70.5359 44.589C72.9522 36.6152 77.2409 32.1897 81.0883 30.1715Z" fill="url(#paint71_linear_7321_1441)"/>
<path d="M103.889 38.2937C105.63 43.115 97.6063 48.2816 86.4912 44.4956C92.7414 37.6011 102.148 33.4724 103.889 38.2937Z" fill="url(#paint72_radial_7321_1441)"/>
<path d="M102.398 37.6794C102.841 38.7786 101.07 40.5285 100.406 40.7959C99.7431 41.0633 97.2535 41.0311 96.8104 39.9319C96.3673 38.8327 96.3318 37.8111 98.8018 36.8154C101.272 35.8196 101.955 36.5802 102.398 37.6794Z" fill="url(#paint73_linear_7321_1441)"/>
<path d="M102.398 37.6794C102.841 38.7786 101.07 40.5285 100.406 40.7959C99.7431 41.0633 97.2535 41.0311 96.8104 39.9319C96.3673 38.8327 96.3318 37.8111 98.8018 36.8154C101.272 35.8196 101.955 36.5802 102.398 37.6794Z" fill="url(#paint74_radial_7321_1441)"/>
<defs>
<linearGradient id="paint0_linear_7321_1441" x1="191.85" y1="65.2983" x2="213.194" y2="88.7274" gradientUnits="userSpaceOnUse">
<stop stop-color="#C8F5B7"/>
<stop offset="0.495" stop-color="#CD8E02"/>
<stop offset="1" stop-color="#7A4E05"/>
</linearGradient>
<linearGradient id="paint1_linear_7321_1441" x1="195.868" y1="61.2473" x2="215.328" y2="77.6637" gradientUnits="userSpaceOnUse">
<stop stop-color="#C8F5B7"/>
<stop offset="0.495" stop-color="#CD8E02"/>
<stop offset="1" stop-color="#7A4E05"/>
</linearGradient>
<linearGradient id="paint2_linear_7321_1441" x1="197.966" y1="48.3567" x2="215.056" y2="56.3126" gradientUnits="userSpaceOnUse">
<stop stop-color="#C8F5B7"/>
<stop offset="0.495" stop-color="#CD8E02"/>
<stop offset="1" stop-color="#7A4E05"/>
</linearGradient>
<linearGradient id="paint3_linear_7321_1441" x1="11.5749" y1="71.1856" x2="30.2085" y2="91.498" gradientUnits="userSpaceOnUse">
<stop stop-color="#C8F5B7"/>
<stop offset="0.495" stop-color="#CD8E02"/>
<stop offset="1" stop-color="#7A4E05"/>
</linearGradient>
<linearGradient id="paint4_linear_7321_1441" x1="6.41405" y1="70.375" x2="21.6086" y2="91.0916" gradientUnits="userSpaceOnUse">
<stop stop-color="#C8F5B7"/>
<stop offset="0.495" stop-color="#CD8E02"/>
<stop offset="1" stop-color="#7A4E05"/>
</linearGradient>
<linearGradient id="paint5_linear_7321_1441" x1="6.73709" y1="62.3871" x2="26.1016" y2="80.1873" gradientUnits="userSpaceOnUse">
<stop stop-color="#C8F5B7"/>
<stop offset="0.495" stop-color="#CD8E02"/>
<stop offset="1" stop-color="#7A4E05"/>
</linearGradient>
<linearGradient id="paint6_linear_7321_1441" x1="209.824" y1="67.9993" x2="226.433" y2="88.8475" gradientUnits="userSpaceOnUse">
<stop stop-color="#C8F5B7"/>
<stop offset="0.495" stop-color="#CD8E02"/>
<stop offset="1" stop-color="#7A4E05"/>
</linearGradient>
<linearGradient id="paint7_linear_7321_1441" x1="213.595" y1="65.5439" x2="229.158" y2="83.4202" gradientUnits="userSpaceOnUse">
<stop stop-color="#C8F5B7"/>
<stop offset="0.495" stop-color="#CD8E02"/>
<stop offset="1" stop-color="#7A4E05"/>
</linearGradient>
<linearGradient id="paint8_linear_7321_1441" x1="217.279" y1="56.2139" x2="235.36" y2="68.8708" gradientUnits="userSpaceOnUse">
<stop stop-color="#C8F5B7"/>
<stop offset="0.495" stop-color="#CD8E02"/>
<stop offset="1" stop-color="#7A4E05"/>
</linearGradient>
<linearGradient id="paint9_linear_7321_1441" x1="30.4336" y1="67.9155" x2="49.3881" y2="82.728" gradientUnits="userSpaceOnUse">
<stop stop-color="#C8F5B7"/>
<stop offset="0.495" stop-color="#CD8E02"/>
<stop offset="1" stop-color="#7A4E05"/>
</linearGradient>
<linearGradient id="paint10_linear_7321_1441" x1="25.6724" y1="52.9861" x2="51.547" y2="65.4938" gradientUnits="userSpaceOnUse">
<stop stop-color="#C8F5B7"/>
<stop offset="0.495" stop-color="#CD8E02"/>
<stop offset="1" stop-color="#7A4E05"/>
</linearGradient>
<linearGradient id="paint11_linear_7321_1441" x1="29.3069" y1="45.5563" x2="46.6384" y2="51.5892" gradientUnits="userSpaceOnUse">
<stop stop-color="#C8F5B7"/>
<stop offset="0.495" stop-color="#CD8E02"/>
<stop offset="1" stop-color="#7A4E05"/>
</linearGradient>
<linearGradient id="paint12_linear_7321_1441" x1="83.0769" y1="-14.3722" x2="241.32" y2="190.177" gradientUnits="userSpaceOnUse">
<stop stop-color="#C8F5B7"/>
<stop offset="1" stop-color="#CD8E02"/>
</linearGradient>
<linearGradient id="paint13_linear_7321_1441" x1="147.382" y1="109.874" x2="105.911" y2="87.5027" gradientUnits="userSpaceOnUse">
<stop stop-color="#7A4E05"/>
<stop offset="1" stop-color="#FFD394"/>
</linearGradient>
<radialGradient id="paint14_radial_7321_1441" cx="0" cy="0" r="1" gradientUnits="userSpaceOnUse" gradientTransform="translate(122.273 76.7278) rotate(95.2672) scale(23.7179 12.5131)">
<stop stop-color="#FFF2BE"/>
<stop offset="0.906057" stop-color="#FFF2BE" stop-opacity="0"/>
</radialGradient>
<radialGradient id="paint15_radial_7321_1441" cx="0" cy="0" r="1" gradientUnits="userSpaceOnUse" gradientTransform="translate(133.645 96.9232) rotate(-116.858) scale(22.7954 10.5759)">
<stop stop-color="#592A00"/>
<stop offset="1" stop-color="#592A00" stop-opacity="0"/>
</radialGradient>
<linearGradient id="paint16_linear_7321_1441" x1="201.284" y1="106.298" x2="110.508" y2="47.3576" gradientUnits="userSpaceOnUse">
<stop stop-color="#7A4E05"/>
<stop offset="1" stop-color="#FFD394"/>
</linearGradient>
<radialGradient id="paint17_radial_7321_1441" cx="0" cy="0" r="1" gradientUnits="userSpaceOnUse" gradientTransform="translate(137.332 63.6055) rotate(75.187) scale(58.1837 36.9534)">
<stop offset="0.673597" stop-color="#592A00" stop-opacity="0"/>
<stop offset="1" stop-color="#592A00"/>
</radialGradient>
<radialGradient id="paint18_radial_7321_1441" cx="0" cy="0" r="1" gradientUnits="userSpaceOnUse" gradientTransform="translate(156.276 77.5959) rotate(135.509) scale(17.2881 4.81243)">
<stop offset="0.0250789" stop-color="#592A00"/>
<stop offset="1" stop-color="#592A00" stop-opacity="0"/>
</radialGradient>
<radialGradient id="paint19_radial_7321_1441" cx="0" cy="0" r="1" gradientUnits="userSpaceOnUse" gradientTransform="translate(164.668 66.7786) rotate(131.397) scale(15.9583 8.70487)">
<stop offset="0.0250789" stop-color="#592A00"/>
<stop offset="1" stop-color="#592A00" stop-opacity="0"/>
</radialGradient>
<radialGradient id="paint20_radial_7321_1441" cx="0" cy="0" r="1" gradientUnits="userSpaceOnUse" gradientTransform="translate(129.068 52.0671) rotate(57.4222) scale(32.3494 20.0871)">
<stop stop-color="#FFF2BE"/>
<stop offset="0.906057" stop-color="#FFF2BE" stop-opacity="0"/>
</radialGradient>
<radialGradient id="paint21_radial_7321_1441" cx="0" cy="0" r="1" gradientUnits="userSpaceOnUse" gradientTransform="translate(127.415 78.0286) rotate(40.3915) scale(12.6868 4.21108)">
<stop offset="0.0250789" stop-color="#592A00"/>
<stop offset="1" stop-color="#592A00" stop-opacity="0"/>
</radialGradient>
<radialGradient id="paint22_radial_7321_1441" cx="0" cy="0" r="1" gradientUnits="userSpaceOnUse" gradientTransform="translate(149.029 36.3952) rotate(-180) scale(16.6555 12.7761)">
<stop offset="0.246032" stop-color="#592A00"/>
<stop offset="1" stop-color="#592A00" stop-opacity="0"/>
</radialGradient>
<radialGradient id="paint23_radial_7321_1441" cx="0" cy="0" r="1" gradientUnits="userSpaceOnUse" gradientTransform="translate(131.738 79.0382) rotate(-110.135) scale(17.359 6.77091)">
<stop stop-color="#592A00"/>
<stop offset="1" stop-color="#592A00" stop-opacity="0"/>
</radialGradient>
<linearGradient id="paint24_linear_7321_1441" x1="168.101" y1="105.144" x2="116.833" y2="66.0503" gradientUnits="userSpaceOnUse">
<stop stop-color="#7A4E05"/>
<stop offset="1" stop-color="#FFD394"/>
</linearGradient>
<radialGradient id="paint25_radial_7321_1441" cx="0" cy="0" r="1" gradientUnits="userSpaceOnUse" gradientTransform="translate(123.601 63.3173) rotate(46.7388) scale(29.3121 8.81)">
<stop stop-color="#FFF2BE"/>
<stop offset="0.906057" stop-color="#FFF2BE" stop-opacity="0"/>
</radialGradient>
<linearGradient id="paint26_linear_7321_1441" x1="177.451" y1="88.9271" x2="134.288" y2="66.3719" gradientUnits="userSpaceOnUse">
<stop stop-color="#7A4E05"/>
<stop offset="1" stop-color="#FFD394"/>
</linearGradient>
<radialGradient id="paint27_radial_7321_1441" cx="0" cy="0" r="1" gradientUnits="userSpaceOnUse" gradientTransform="translate(142.213 78.4614) rotate(-34.6315) scale(18.0195 9.45755)">
<stop stop-color="#FFF2BE"/>
<stop offset="0.906057" stop-color="#FFF2BE" stop-opacity="0"/>
</radialGradient>
<linearGradient id="paint28_linear_7321_1441" x1="164.416" y1="115.101" x2="154.542" y2="-21.1945" gradientUnits="userSpaceOnUse">
<stop stop-color="#7A4E05"/>
<stop offset="1" stop-color="#FFD394"/>
</linearGradient>
<linearGradient id="paint29_linear_7321_1441" x1="173.719" y1="109.811" x2="140.195" y2="78.0745" gradientUnits="userSpaceOnUse">
<stop stop-color="#7A4E05"/>
<stop offset="1" stop-color="#FFD394"/>
</linearGradient>
<radialGradient id="paint30_radial_7321_1441" cx="0" cy="0" r="1" gradientUnits="userSpaceOnUse" gradientTransform="translate(144.198 86.3942) rotate(58.2423) scale(32.8267 32.3794)">
<stop offset="0.673597" stop-color="#592A00" stop-opacity="0"/>
<stop offset="1" stop-color="#592A00"/>
</radialGradient>
<radialGradient id="paint31_radial_7321_1441" cx="0" cy="0" r="1" gradientUnits="userSpaceOnUse" gradientTransform="translate(151.572 81.2019) rotate(98.9573) scale(22.0477 19.5705)">
<stop stop-color="#FFF2BE"/>
<stop offset="0.906057" stop-color="#FFF2BE" stop-opacity="0"/>
</radialGradient>
<linearGradient id="paint32_linear_7321_1441" x1="127.291" y1="27.2855" x2="115.266" y2="22.3304" gradientUnits="userSpaceOnUse">
<stop stop-color="#7A4E05"/>
<stop offset="1" stop-color="#FFD394"/>
</linearGradient>
<linearGradient id="paint33_linear_7321_1441" x1="162.901" y1="27.2855" x2="174.927" y2="22.3304" gradientUnits="userSpaceOnUse">
<stop stop-color="#7A4E05"/>
<stop offset="1" stop-color="#FFD394"/>
</linearGradient>
<linearGradient id="paint34_linear_7321_1441" x1="144.647" y1="9.13941" x2="196.774" y2="73.2708" gradientUnits="userSpaceOnUse">
<stop stop-color="#FFE4BE"/>
<stop offset="1" stop-color="#986206"/>
</linearGradient>
<linearGradient id="paint35_linear_7321_1441" x1="126.651" y1="14.8856" x2="138.542" y2="36.6848" gradientUnits="userSpaceOnUse">
<stop stop-color="#5B3B04"/>
<stop offset="1" stop-color="#240D54"/>
</linearGradient>
<linearGradient id="paint36_linear_7321_1441" x1="150.279" y1="14.2759" x2="165.218" y2="30.1298" gradientUnits="userSpaceOnUse">
<stop stop-color="#5B3B04"/>
<stop offset="1" stop-color="#240D54"/>
</linearGradient>
<linearGradient id="paint37_linear_7321_1441" x1="141.259" y1="36.0993" x2="141.053" y2="17.3999" gradientUnits="userSpaceOnUse">
<stop stop-color="#7A4E05"/>
<stop offset="1" stop-color="#FFD394"/>
</linearGradient>
<linearGradient id="paint38_linear_7321_1441" x1="148.562" y1="36.0993" x2="148.767" y2="17.3999" gradientUnits="userSpaceOnUse">
<stop stop-color="#7A4E05"/>
<stop offset="1" stop-color="#FFD394"/>
</linearGradient>
<linearGradient id="paint39_linear_7321_1441" x1="142.724" y1="22.2988" x2="131.486" y2="20.7806" gradientUnits="userSpaceOnUse">
<stop stop-color="#5B3B04"/>
<stop offset="1" stop-color="#240D54"/>
</linearGradient>
<linearGradient id="paint40_linear_7321_1441" x1="147.203" y1="22.2988" x2="158.441" y2="20.7806" gradientUnits="userSpaceOnUse">
<stop stop-color="#5B3B04"/>
<stop offset="1" stop-color="#240D54"/>
</linearGradient>
<radialGradient id="paint41_radial_7321_1441" cx="0" cy="0" r="1" gradientUnits="userSpaceOnUse" gradientTransform="translate(144.082 31.2681) rotate(77.3503) scale(8.67677 18.6564)">
<stop offset="0.225549" stop-color="white"/>
<stop offset="0.8" stop-color="#FFF2BE" stop-opacity="0"/>
</radialGradient>
<radialGradient id="paint42_radial_7321_1441" cx="0" cy="0" r="1" gradientUnits="userSpaceOnUse" gradientTransform="translate(144.928 36.3807) scale(12.6264 7.12253)">
<stop offset="0.220197" stop-color="#5B3B04"/>
<stop offset="0.8" stop-color="#5B3B04" stop-opacity="0"/>
</radialGradient>
<linearGradient id="paint43_linear_7321_1441" x1="195.873" y1="23.0148" x2="180.629" y2="-16.3062" gradientUnits="userSpaceOnUse">
<stop stop-color="#7A4E05"/>
<stop offset="1" stop-color="#FFD394"/>
</linearGradient>
<linearGradient id="paint44_linear_7321_1441" x1="147.687" y1="30.0764" x2="141.451" y2="36.7467" gradientUnits="userSpaceOnUse">
<stop stop-color="#5B3B04"/>
<stop offset="1" stop-color="#240D54"/>
</linearGradient>
<radialGradient id="paint45_radial_7321_1441" cx="0" cy="0" r="1" gradientUnits="userSpaceOnUse" gradientTransform="translate(144.505 32.1883) scale(3.75387 2.24916)">
<stop stop-color="#B3E0FF"/>
<stop offset="1" stop-color="#B3E0FF" stop-opacity="0"/>
</radialGradient>
<linearGradient id="paint46_linear_7321_1441" x1="109.013" y1="107.859" x2="108.091" y2="100.127" gradientUnits="userSpaceOnUse">
<stop stop-color="#7A4E05"/>
<stop offset="1" stop-color="#FFD394"/>
</linearGradient>
<radialGradient id="paint47_radial_7321_1441" cx="0" cy="0" r="1" gradientUnits="userSpaceOnUse" gradientTransform="translate(97.4318 99.9897) rotate(-8.04289) scale(13.7956 5.78023)">
<stop stop-color="#FFF2BE"/>
<stop offset="0.906057" stop-color="#FFF2BE" stop-opacity="0"/>
</radialGradient>
<linearGradient id="paint48_linear_7321_1441" x1="110.794" y1="104.714" x2="94.2982" y2="78.3075" gradientUnits="userSpaceOnUse">
<stop stop-color="#7A4E05"/>
<stop offset="1" stop-color="#FFD394"/>
</linearGradient>
<linearGradient id="paint49_linear_7321_1441" x1="42.5202" y1="106.865" x2="62.151" y2="13.4396" gradientUnits="userSpaceOnUse">
<stop stop-color="#7A4E05"/>
<stop offset="1" stop-color="#FFD394"/>
</linearGradient>
<linearGradient id="paint50_linear_7321_1441" x1="113.763" y1="84.2503" x2="86.5058" y2="62.95" gradientUnits="userSpaceOnUse">
<stop stop-color="#7A4E05"/>
<stop offset="1" stop-color="#FFD394"/>
</linearGradient>
<radialGradient id="paint51_radial_7321_1441" cx="0" cy="0" r="1" gradientUnits="userSpaceOnUse" gradientTransform="translate(98.2141 64.7998) rotate(48.2851) scale(11.3185 5.486)">
<stop stop-color="#FFF2BE"/>
<stop offset="0.906057" stop-color="#FFF2BE" stop-opacity="0"/>
</radialGradient>
<linearGradient id="paint52_linear_7321_1441" x1="117.961" y1="106.275" x2="49.9963" y2="70.1292" gradientUnits="userSpaceOnUse">
<stop stop-color="#7A4E05"/>
<stop offset="1" stop-color="#FFD394"/>
</linearGradient>
<radialGradient id="paint53_radial_7321_1441" cx="0" cy="0" r="1" gradientUnits="userSpaceOnUse" gradientTransform="translate(75.4563 70.1454) rotate(78.8253) scale(48.227 27.8055)">
<stop offset="0.673597" stop-color="#592A00" stop-opacity="0"/>
<stop offset="1" stop-color="#592A00"/>
</radialGradient>
<radialGradient id="paint54_radial_7321_1441" cx="0" cy="0" r="1" gradientUnits="userSpaceOnUse" gradientTransform="translate(86.2951 79.351) rotate(12.2005) scale(11.2412 8.78193)">
<stop offset="0.0250789" stop-color="#592A00"/>
<stop offset="1" stop-color="#592A00" stop-opacity="0"/>
</radialGradient>
<radialGradient id="paint55_radial_7321_1441" cx="0" cy="0" r="1" gradientUnits="userSpaceOnUse" gradientTransform="translate(70.2596 68.8091) rotate(109.093) scale(24.5108 14.6946)">
<stop stop-color="#FFF2BE"/>
<stop offset="0.906057" stop-color="#FFF2BE" stop-opacity="0"/>
</radialGradient>
<linearGradient id="paint56_linear_7321_1441" x1="117.03" y1="92.269" x2="104.324" y2="54.4889" gradientUnits="userSpaceOnUse">
<stop stop-color="#7A4E05"/>
<stop offset="1" stop-color="#FFD394"/>
</linearGradient>
<radialGradient id="paint57_radial_7321_1441" cx="0" cy="0" r="1" gradientUnits="userSpaceOnUse" gradientTransform="translate(83.0286 68.9851) rotate(11.0652) scale(13.0109 10.0209)">
<stop stop-color="#FFF2BE"/>
<stop offset="0.906057" stop-color="#FFF2BE" stop-opacity="0"/>
</radialGradient>
<radialGradient id="paint58_radial_7321_1441" cx="0" cy="0" r="1" gradientUnits="userSpaceOnUse" gradientTransform="translate(66.2507 79.5) rotate(34.8753) scale(17.9172 13.7997)">
<stop stop-color="#FFF2BE"/>
<stop offset="0.906057" stop-color="#FFF2BE" stop-opacity="0"/>
</radialGradient>
<linearGradient id="paint59_linear_7321_1441" x1="100.401" y1="110.234" x2="99.8368" y2="98.1661" gradientUnits="userSpaceOnUse">
<stop stop-color="#7A4E05"/>
<stop offset="1" stop-color="#FFD394"/>
</linearGradient>
<linearGradient id="paint60_linear_7321_1441" x1="96.9859" y1="111.422" x2="85.1245" y2="80.8971" gradientUnits="userSpaceOnUse">
<stop stop-color="#7A4E05"/>
<stop offset="1" stop-color="#FFD394"/>
</linearGradient>
<radialGradient id="paint61_radial_7321_1441" cx="0" cy="0" r="1" gradientUnits="userSpaceOnUse" gradientTransform="translate(83.7714 85.9807) rotate(150.832) scale(15.6436 10.0794)">
<stop stop-color="#FFF2BE"/>
<stop offset="0.906057" stop-color="#FFF2BE" stop-opacity="0"/>
</radialGradient>
<linearGradient id="paint62_linear_7321_1441" x1="86.7687" y1="24.668" x2="126.655" y2="73.8643" gradientUnits="userSpaceOnUse">
<stop stop-color="#FFE4BE"/>
<stop offset="1" stop-color="#986206"/>
</linearGradient>
<linearGradient id="paint63_linear_7321_1441" x1="84.2664" y1="28.8374" x2="78.1716" y2="43.8541" gradientUnits="userSpaceOnUse">
<stop stop-color="#5B3B04"/>
<stop offset="1" stop-color="#240D54"/>
</linearGradient>
<linearGradient id="paint64_linear_7321_1441" x1="92.3459" y1="43.5979" x2="86.5882" y2="30.4539" gradientUnits="userSpaceOnUse">
<stop stop-color="#7A4E05"/>
<stop offset="1" stop-color="#FFD394"/>
</linearGradient>
<linearGradient id="paint65_linear_7321_1441" x1="87.5003" y1="32.3568" x2="81.0991" y2="36.9339" gradientUnits="userSpaceOnUse">
<stop stop-color="#5B3B04"/>
<stop offset="1" stop-color="#240D54"/>
</linearGradient>
<radialGradient id="paint66_radial_7321_1441" cx="0" cy="0" r="1" gradientUnits="userSpaceOnUse" gradientTransform="translate(93.8688 42.7577) rotate(-6.96663) scale(10.3724 9.86614)">
<stop offset="0.220197" stop-color="#5B3B04"/>
<stop offset="0.8" stop-color="#5B3B04" stop-opacity="0"/>
</radialGradient>
<linearGradient id="paint67_linear_7321_1441" x1="76.8926" y1="46.9268" x2="64.8355" y2="46.3127" gradientUnits="userSpaceOnUse">
<stop stop-color="#7A4E05"/>
<stop offset="1" stop-color="#FFD394"/>
</linearGradient>
<linearGradient id="paint68_linear_7321_1441" x1="94.602" y1="25.5799" x2="106.713" y2="34.0731" gradientUnits="userSpaceOnUse">
<stop stop-color="#5B3B04"/>
<stop offset="1" stop-color="#240D54"/>
</linearGradient>
<linearGradient id="paint69_linear_7321_1441" x1="95.1817" y1="41.8143" x2="93.555" y2="28.0787" gradientUnits="userSpaceOnUse">
<stop stop-color="#7A4E05"/>
<stop offset="1" stop-color="#FFD394"/>
</linearGradient>
<linearGradient id="paint70_linear_7321_1441" x1="3.51322" y1="-1.32877" x2="-2.11212" y2="1.89291" gradientUnits="userSpaceOnUse">
<stop stop-color="#5B3B04"/>
<stop offset="1" stop-color="#240D54"/>
</linearGradient>
<linearGradient id="paint71_linear_7321_1441" x1="118.293" y1="41.7189" x2="94.8992" y2="5.18495" gradientUnits="userSpaceOnUse">
<stop stop-color="#7A4E05"/>
<stop offset="1" stop-color="#FFD394"/>
</linearGradient>
<radialGradient id="paint72_radial_7321_1441" cx="0" cy="0" r="1" gradientUnits="userSpaceOnUse" gradientTransform="translate(94.5709 38.2581) rotate(79.7655) scale(9.29962 16.3624)">
<stop offset="0.225549" stop-color="white"/>
<stop offset="0.8" stop-color="#FFF2BE" stop-opacity="0"/>
</radialGradient>
<linearGradient id="paint73_linear_7321_1441" x1="100.306" y1="35.1073" x2="97.6657" y2="41.9426" gradientUnits="userSpaceOnUse">
<stop stop-color="#5B3B04"/>
<stop offset="1" stop-color="#240D54"/>
</linearGradient>
<radialGradient id="paint74_radial_7321_1441" cx="0" cy="0" r="1" gradientUnits="userSpaceOnUse" gradientTransform="translate(98.5712 37.6337) rotate(-21.9564) scale(3.0122 1.80478)">
<stop stop-color="#B3E0FF"/>
<stop offset="1" stop-color="#B3E0FF" stop-opacity="0"/>
</radialGradient>
</defs>
</svg>
