<svg viewBox="0 0 240 120" fill="none" xmlns="http://www.w3.org/2000/svg">
<path d="M155.742 85.1845C155.742 74.5816 156.278 58.0979 165.544 51.6825C168.875 49.376 175.063 48.3941 181.273 48.5497C187.484 48.3941 193.671 49.376 197.003 51.6825C206.269 58.0979 206.804 74.6262 206.804 85.1845C206.804 93.1929 185.994 94.8189 181.273 94.8077C176.552 94.8189 155.742 93.1937 155.742 85.1845Z" fill="url(#paint0_radial_843_38316)"/>
<path d="M155.742 85.1845C155.742 74.5816 156.278 58.0979 165.544 51.6825C168.875 49.376 175.063 48.3941 181.273 48.5497C187.484 48.3941 193.671 49.376 197.003 51.6825C206.269 58.0979 206.804 74.6262 206.804 85.1845C206.804 93.1929 185.994 94.8189 181.273 94.8077C176.552 94.8189 155.742 93.1937 155.742 85.1845Z" fill="url(#paint1_radial_843_38316)"/>
<path d="M155.742 85.1845C155.742 74.5816 156.278 58.0979 165.544 51.6825C168.875 49.376 175.063 48.3941 181.273 48.5497C187.484 48.3941 193.671 49.376 197.003 51.6825C206.269 58.0979 206.804 74.6262 206.804 85.1845C206.804 93.1929 185.994 94.8189 181.273 94.8077C176.552 94.8189 155.742 93.1937 155.742 85.1845Z" fill="url(#paint2_radial_843_38316)"/>
<path d="M155.742 85.1845C155.742 74.5816 156.278 58.0979 165.544 51.6825C168.875 49.376 175.063 48.3941 181.273 48.5497C187.484 48.3941 193.671 49.376 197.003 51.6825C206.269 58.0979 206.804 74.6262 206.804 85.1845C206.804 93.1929 185.994 94.8189 181.273 94.8077C176.552 94.8189 155.742 93.1937 155.742 85.1845Z" fill="url(#paint3_radial_843_38316)"/>
<path fill-rule="evenodd" clip-rule="evenodd" d="M162.111 54.9655C163.096 53.6997 164.232 52.5903 165.543 51.6825C168.875 49.376 175.062 48.3941 181.273 48.5497C187.483 48.3941 193.671 49.376 197.002 51.6825C198.265 52.5568 199.365 53.6189 200.325 54.8281C197.669 57.2445 190.083 58.9887 181.139 58.9887C172.365 58.9887 164.898 57.3104 162.111 54.9655Z" fill="url(#paint4_radial_843_38316)"/>
<path fill-rule="evenodd" clip-rule="evenodd" d="M184.709 49.734C184.235 49.6705 183.556 49.6496 182.643 49.7126C179.747 49.9125 176.084 50.9368 172.678 52.3006C169.264 53.668 166.257 55.3172 164.635 56.6826C164.153 57.0882 163.433 57.0263 163.028 56.5444C162.622 56.0624 162.684 55.343 163.166 54.9374C165.058 53.3453 168.322 51.5883 171.83 50.1831C175.348 48.7743 179.259 47.6597 182.486 47.437C183.824 47.3446 184.922 47.3973 185.728 47.6127C186.128 47.7195 186.545 47.8894 186.879 48.1792C187.245 48.4965 187.512 48.9663 187.489 49.5407C187.469 50.0577 187.219 50.4777 186.971 50.7762C186.715 51.0845 186.379 51.3611 186.007 51.6097C185.262 52.1083 184.222 52.5919 182.934 53.0335C180.248 53.9553 176.888 55.167 174.017 56.451C172.58 57.0936 171.291 57.7427 170.28 58.3702C169.248 59.0112 168.643 59.5477 168.395 59.9327C168.519 59.9828 168.74 60.0453 169.102 60.0728C170.385 60.1704 172.633 59.7545 175.496 58.3276C176.636 57.7594 177.819 57.1515 179.011 56.5385C180.863 55.5859 182.74 54.6211 184.52 53.7737C187.448 52.38 190.312 51.2042 192.695 50.8282C193.946 50.6307 195.036 50.6115 195.928 50.7688C196.794 50.9216 197.632 51.2717 198.143 51.9632C198.709 52.7284 198.681 53.6363 198.325 54.4177C197.988 55.1579 197.345 55.8445 196.523 56.4594C195.659 57.1052 194.562 57.6144 193.49 58.0543C192.967 58.269 192.427 58.4756 191.904 58.676L191.844 58.6993C191.297 58.9089 190.768 59.1121 190.265 59.3208C189.24 59.746 188.419 60.1556 187.865 60.5965C187.325 61.0257 187.182 61.364 187.182 61.662C187.182 62.2919 186.671 62.8025 186.041 62.8025C185.411 62.8025 184.901 62.2919 184.901 61.662C184.901 60.402 185.611 59.4742 186.445 58.8111C187.264 58.1597 188.337 57.651 189.391 57.2139C189.927 56.9914 190.484 56.7775 191.027 56.5693L191.079 56.5496C191.609 56.3464 192.126 56.1483 192.624 55.944C193.667 55.5161 194.537 55.0957 195.157 54.6324C195.818 54.1382 196.132 53.729 196.249 53.4724C196.288 53.3861 196.298 53.3331 196.301 53.3097C196.259 53.2659 196.071 53.1103 195.532 53.0152C194.965 52.9151 194.142 52.9091 193.05 53.0813C191.023 53.4012 188.42 54.4436 185.5 55.8333C183.738 56.672 181.933 57.6009 180.114 58.5364C178.916 59.1524 177.713 59.7713 176.513 60.3692C173.442 61.8998 170.77 62.4873 168.929 62.3473C168.048 62.2802 167.115 62.0266 166.535 61.3599C166.219 60.9973 166.038 60.5413 166.041 60.0394C166.044 59.5594 166.213 59.1202 166.446 58.7456C166.982 57.8853 167.982 57.1122 169.077 56.4323C170.211 55.7286 171.603 55.0317 173.085 54.3687C176.054 53.0412 179.493 51.8027 182.194 50.8759C183.354 50.4781 184.184 50.0789 184.709 49.734ZM185.252 49.2706C185.252 49.2706 185.251 49.2725 185.249 49.2763Z" fill="url(#paint5_linear_843_38316)"/>
<path d="M49.2207 111.13L139.067 85.3489L141.94 82.7087V31.4566L138.213 24.2347L43.552 51.0257V105.539C43.552 110.011 45.3594 112.051 49.2207 111.13Z" fill="url(#paint6_linear_843_38316)"/>
<path d="M83.5389 11.5016L47.1672 45.1452C40.0687 51.2075 43.7574 55.4011 50.5771 53.8972L134.573 29.801C136.732 29.2874 138.096 29.1201 138.096 31.6196V46.2819C138.096 48.7909 138.327 50.0956 136.732 50.601C136.732 50.601 55.73 75.0187 53.9869 75.4929C52.2439 75.9671 48.3701 76.6914 47.1672 76.5159C45.9643 76.3403 44.4394 75.4929 43.7574 75.4929C43.0754 75.4929 43.0754 75.8885 43.0754 77.7661V85.6715C43.0754 86.2658 43.5881 86.6474 43.5881 86.6474C45.5135 87.8762 48.1579 88.4082 50.5771 87.7683L135.369 63.2175C136.732 62.8767 138.096 63.7884 138.096 65.4907V84.8188C138.096 85.991 138.805 86.0538 139.308 85.991C142.926 84.9496 145.428 82.8088 145.428 79.1301V31.6196C145.428 28.5075 143.176 23.3111 138.096 21.731L97.8602 12.2971C94.0385 11.5016 86.6541 9.08935 83.5389 11.5016Z" fill="url(#paint7_linear_843_38316)"/>
<path d="M83.5389 11.5016L47.1672 45.1452C40.0687 51.2075 43.7574 55.4011 50.5771 53.8972L134.573 29.801C136.732 29.2874 138.096 29.1201 138.096 31.6196V46.2819C138.096 48.7909 138.327 50.0956 136.732 50.601C136.732 50.601 55.73 75.0187 53.9869 75.4929C52.2439 75.9671 48.3701 76.6914 47.1672 76.5159C45.9643 76.3403 44.4394 75.4929 43.7574 75.4929C43.0754 75.4929 43.0754 75.8885 43.0754 77.7661V85.6715C43.0754 86.2658 43.5881 86.6474 43.5881 86.6474C45.5135 87.8762 48.1579 88.4082 50.5771 87.7683L135.369 63.2175C136.732 62.8767 138.096 63.7884 138.096 65.4907V84.8188C138.096 85.991 138.805 86.0538 139.308 85.991C142.926 84.9496 145.428 82.8088 145.428 79.1301V31.6196C145.428 28.5075 143.176 23.3111 138.096 21.731L97.8602 12.2971C94.0385 11.5016 86.6541 9.08935 83.5389 11.5016Z" fill="url(#paint8_linear_843_38316)"/>
<path d="M131.495 103.092C131.494 91.2832 132.091 72.924 142.411 65.7786C146.122 63.2097 153.013 62.1161 159.93 62.2895C166.848 62.1161 173.739 63.2097 177.449 65.7786C187.77 72.924 188.366 91.3328 188.366 103.092C188.367 112.012 165.189 113.823 159.93 113.811C154.672 113.823 131.494 112.013 131.495 103.092Z" fill="url(#paint9_radial_843_38316)"/>
<path d="M131.495 103.092C131.494 91.2832 132.091 72.924 142.411 65.7786C146.122 63.2097 153.013 62.1161 159.93 62.2895C166.848 62.1161 173.739 63.2097 177.449 65.7786C187.77 72.924 188.366 91.3328 188.366 103.092C188.367 112.012 165.189 113.823 159.93 113.811C154.672 113.823 131.494 112.013 131.495 103.092Z" fill="url(#paint10_radial_843_38316)"/>
<path d="M131.495 103.092C131.494 91.2832 132.091 72.924 142.411 65.7786C146.122 63.2097 153.013 62.1161 159.93 62.2895C166.848 62.1161 173.739 63.2097 177.449 65.7786C187.77 72.924 188.366 91.3328 188.366 103.092C188.367 112.012 165.189 113.823 159.93 113.811C154.672 113.823 131.494 112.013 131.495 103.092Z" fill="url(#paint11_radial_843_38316)"/>
<path fill-rule="evenodd" clip-rule="evenodd" d="M138.588 69.436C139.685 68.0261 140.95 66.7904 142.411 65.7793C146.121 63.2103 153.013 62.1167 159.93 62.2901C166.847 62.1167 173.738 63.2103 177.449 65.7793C178.855 66.753 180.081 67.9359 181.149 69.2825C178.192 71.974 169.743 73.9168 159.781 73.9168C150.009 73.9168 141.693 72.0476 138.588 69.436Z" fill="url(#paint12_radial_843_38316)"/>
<path fill-rule="evenodd" clip-rule="evenodd" d="M163.757 63.6087C163.229 63.538 162.473 63.5147 161.456 63.5849C158.231 63.8075 154.15 64.9484 150.358 66.4673C146.555 67.9903 143.206 69.8272 141.399 71.3479C140.862 71.7996 140.061 71.7307 139.609 71.194C139.157 70.6572 139.226 69.8559 139.763 69.4041C141.87 67.6309 145.505 65.674 149.413 64.1089C153.331 62.5398 157.687 61.2984 161.281 61.0504C162.771 60.9475 163.995 61.0061 164.892 61.246C165.337 61.3651 165.802 61.5543 166.174 61.877C166.582 62.2304 166.879 62.7536 166.854 63.3935C166.831 63.9693 166.553 64.4371 166.277 64.7694C165.991 65.1128 165.617 65.4209 165.203 65.6978C164.373 66.2532 163.214 66.7918 161.781 67.2836C158.788 68.3103 155.046 69.6598 151.848 71.0899C150.248 71.8056 148.813 72.5287 147.687 73.2275C146.537 73.9415 145.863 74.539 145.586 74.9678C145.726 75.0236 145.971 75.0932 146.374 75.1239C147.803 75.2325 150.307 74.7693 153.496 73.1801C154.766 72.5472 156.083 71.8701 157.411 71.1874C159.474 70.1264 161.564 69.0518 163.546 68.1081C166.808 66.5558 169.997 65.2462 172.651 64.8274C174.045 64.6075 175.26 64.5861 176.253 64.7613C177.217 64.9314 178.15 65.3214 178.72 66.0915C179.35 66.9438 179.319 67.955 178.922 68.8253C178.547 69.6497 177.831 70.4144 176.915 71.0993C175.953 71.8186 174.731 72.3857 173.537 72.8757C172.954 73.1148 172.354 73.3449 171.771 73.5681L171.703 73.5941C171.094 73.8275 170.505 74.0538 169.945 74.2863C168.803 74.7598 167.889 75.2161 167.272 75.7071C166.671 76.1851 166.511 76.562 166.511 76.8938C166.511 77.5954 165.942 78.1641 165.241 78.1641C164.539 78.1641 163.971 77.5954 163.971 76.8938C163.971 75.4905 164.762 74.4571 165.691 73.7186C166.603 72.993 167.798 72.4264 168.972 71.9396C169.569 71.6919 170.189 71.4536 170.794 71.2217L170.852 71.1998C171.442 70.9734 172.018 70.7528 172.573 70.5253C173.734 70.0487 174.704 69.5804 175.394 69.0644C176.13 68.514 176.48 68.0583 176.61 67.7724C176.654 67.6763 176.665 67.6174 176.668 67.5912C176.621 67.5425 176.412 67.3692 175.812 67.2632C175.179 67.1517 174.263 67.145 173.047 67.3369C170.789 67.6932 167.89 68.8541 164.638 70.402C162.676 71.3361 160.665 72.3707 158.639 73.4126C157.305 74.0987 155.965 74.788 154.629 75.454C151.208 77.1587 148.232 77.8131 146.182 77.6571C145.2 77.5824 144.162 77.2999 143.515 76.5574C143.164 76.1536 142.962 75.6457 142.965 75.0866C142.968 74.552 143.157 74.0628 143.417 73.6457C144.013 72.6875 145.127 71.8264 146.347 71.0692C147.609 70.2853 149.159 69.5092 150.811 68.7707C154.117 67.2922 157.947 65.9128 160.956 64.8806C162.248 64.4374 163.172 63.9929 163.757 63.6087ZM164.362 63.0926C164.362 63.0926 164.361 63.0947 164.358 63.099Z" fill="url(#paint13_linear_843_38316)"/>
<defs>
<radialGradient id="paint0_radial_843_38316" cx="0" cy="0" r="1" gradientUnits="userSpaceOnUse" gradientTransform="translate(203.857 87.6797) rotate(-90) scale(70.2126 70.2126)">
<stop offset="0.137056" stop-color="#633021"/>
<stop offset="0.76269" stop-color="#DB936B"/>
</radialGradient>
<radialGradient id="paint1_radial_843_38316" cx="0" cy="0" r="1" gradientUnits="userSpaceOnUse" gradientTransform="translate(190.314 72.9778) rotate(90) scale(39.0268)">
<stop offset="0.6621" stop-color="#663323" stop-opacity="0"/>
<stop offset="1" stop-color="#663323"/>
</radialGradient>
<radialGradient id="paint2_radial_843_38316" cx="0" cy="0" r="1" gradientUnits="userSpaceOnUse" gradientTransform="translate(181.273 48.5338) rotate(90) scale(46.274 46.2741)">
<stop offset="0.861361" stop-color="#663323" stop-opacity="0"/>
<stop offset="1" stop-color="#663323"/>
</radialGradient>
<radialGradient id="paint3_radial_843_38316" cx="0" cy="0" r="1" gradientUnits="userSpaceOnUse" gradientTransform="translate(169.613 79.1107) rotate(35.484) scale(35.7797 24.2166)">
<stop offset="0.422749" stop-color="#381408"/>
<stop offset="1" stop-color="#381408" stop-opacity="0"/>
</radialGradient>
<radialGradient id="paint4_radial_843_38316" cx="0" cy="0" r="1" gradientUnits="userSpaceOnUse" gradientTransform="translate(178.73 50.6385) scale(20.4935 7.92717)">
<stop offset="0.356522" stop-color="#E7A27C"/>
<stop offset="1" stop-color="#E7A27C" stop-opacity="0"/>
</radialGradient>
<linearGradient id="paint5_linear_843_38316" x1="180.671" y1="47.4947" x2="180.671" y2="61.662" gradientUnits="userSpaceOnUse">
<stop stop-color="#F5DD9C"/>
<stop offset="1" stop-color="#F8EBF4"/>
</linearGradient>
<linearGradient id="paint6_linear_843_38316" x1="42.147" y1="69.7247" x2="130.608" y2="69.6107" gradientUnits="userSpaceOnUse">
<stop offset="0.0489989" stop-color="#CB9170"/>
<stop offset="0.141789" stop-color="#844E3D"/>
<stop offset="0.520656" stop-color="#633426"/>
<stop offset="0.915048" stop-color="#46261B"/>
</linearGradient>
<linearGradient id="paint7_linear_843_38316" x1="76.0039" y1="15.0068" x2="100.285" y2="97.1983" gradientUnits="userSpaceOnUse">
<stop stop-color="#A76548"/>
<stop offset="0.255825" stop-color="#A76241"/>
<stop offset="0.298159" stop-color="#F2AE89"/>
<stop offset="0.321715" stop-color="#BD7952"/>
<stop offset="0.547438" stop-color="#D6916A"/>
<stop offset="0.604194" stop-color="#F7AE8A"/>
<stop offset="0.620631" stop-color="#B87B59"/>
<stop offset="0.972283" stop-color="#CA8C6C"/>
<stop offset="1" stop-color="#FFD2B9"/>
</linearGradient>
<linearGradient id="paint8_linear_843_38316" x1="43.0754" y1="81.2388" x2="49.4427" y2="81.2388" gradientUnits="userSpaceOnUse">
<stop stop-color="#FAB48F"/>
<stop offset="0.140632" stop-color="#FFBE9B"/>
<stop offset="1" stop-color="#FFBF9C" stop-opacity="0"/>
</linearGradient>
<radialGradient id="paint9_radial_843_38316" cx="0" cy="0" r="1" gradientUnits="userSpaceOnUse" gradientTransform="translate(185.084 105.872) rotate(-90) scale(78.2013)">
<stop offset="0.137056" stop-color="#633021"/>
<stop offset="0.76269" stop-color="#DB936B"/>
</radialGradient>
<radialGradient id="paint10_radial_843_38316" cx="0" cy="0" r="1" gradientUnits="userSpaceOnUse" gradientTransform="translate(170 89.4969) rotate(90) scale(43.4672 43.4672)">
<stop offset="0.6621" stop-color="#663323" stop-opacity="0"/>
<stop offset="1" stop-color="#663323"/>
</radialGradient>
<radialGradient id="paint11_radial_843_38316" cx="0" cy="0" r="1" gradientUnits="userSpaceOnUse" gradientTransform="translate(159.931 62.2717) rotate(90) scale(51.539 51.5391)">
<stop offset="0.861361" stop-color="#663323" stop-opacity="0"/>
<stop offset="1" stop-color="#663323"/>
</radialGradient>
<radialGradient id="paint12_radial_843_38316" cx="0" cy="0" r="1" gradientUnits="userSpaceOnUse" gradientTransform="translate(157.098 64.6165) scale(22.8253 8.82911)">
<stop offset="0.356522" stop-color="#E7A27C"/>
<stop offset="1" stop-color="#E7A27C" stop-opacity="0"/>
</radialGradient>
<linearGradient id="paint13_linear_843_38316" x1="159.26" y1="61.1146" x2="159.26" y2="76.8938" gradientUnits="userSpaceOnUse">
<stop stop-color="#F5DD9C"/>
<stop offset="1" stop-color="#F8EBF4"/>
</linearGradient>
</defs>
</svg>
