<svg xmlns="http://www.w3.org/2000/svg" width="18" height="18" viewBox="0 0 18 18">
  <path fill="#FFF" d="M8.564,1.289 L0.2,16.256 C0.113465138,16.4107773 0.115382036,16.5998098 0.205037842,16.7528004 C0.294693648,16.905791 0.458674656,17 0.636,17 L17.364,17 C17.5413253,17 17.7053064,16.905791 17.7949622,16.7528004 C17.884618,16.5998098 17.8865349,16.4107773 17.8,16.256 L9.436,1.289 C9.34750141,1.13134966 9.18079168,1.03375294 9,1.03375294 C8.81920832,1.03375294 8.65249859,1.13134966 8.564,1.289 Z M10,14.75 C10,14.8880712 9.88807119,15 9.75,15 L8.25,15 C8.11192881,15 8,14.8880712 8,14.75 L8,13.25 C8,13.1119288 8.11192881,13 8.25,13 L9.75,13 C9.88807119,13 10,13.1119288 10,13.25 L10,14.75 Z M10,11.75 C10,11.8880712 9.88807119,12 9.75,12 L8.25,12 C8.11192881,12 8,11.8880712 8,11.75 L8,5.75 C8,5.61192881 8.11192881,5.5 8.25,5.5 L9.75,5.5 C9.88807119,5.5 10,5.61192881 10,5.75 L10,11.75 Z"/>
</svg>
