<svg xmlns="http://www.w3.org/2000/svg" width="18" height="18" viewBox="0 0 18 18">
  <path fill="#FFF" d="M9,1 C4.581722,1 1,4.581722 1,9 C1,13.418278 4.581722,17 9,17 C13.418278,17 17,13.418278 17,9 C17,6.87826808 16.1571453,4.84343678 14.6568542,3.34314575 C13.1565632,1.84285472 11.1217319,1 9,1 Z M14.333,5.54 L8.009,13.67 C7.90309845,13.8058372 7.74392717,13.8896115 7.572,13.9000002 L7.535,13.9000002 C7.37557717,13.9001254 7.22265878,13.8367992 7.11,13.724 L3.217,9.824 C3.10441525,9.71154044 3.04102801,9.5589627 3.04102801,9.39983234 C3.04102801,9.24070198 3.10406991,9.08805422 3.21653,8.97547 L3.217,8.975 L3.88,8.312 C4.11425404,8.0780373 4.49374596,8.0780373 4.728,8.312 L7.4,10.991 L12.656,4.237 C12.7544265,4.11196016 12.898494,4.03114183 13.0565087,4.0123244 C13.2145234,3.99350696 13.3735414,4.03823187 13.49858,4.13666 L13.499,4.137 L14.227,4.703 C14.4856413,4.90586192 14.5329049,5.27906651 14.333,5.54 Z"/>
</svg>
