<?xml version="1.0" encoding="UTF-8" standalone="no"?>
<svg width="21px" height="22px" viewBox="0 0 21 22" version="1.1" xmlns="http://www.w3.org/2000/svg" xmlns:xlink="http://www.w3.org/1999/xlink" xmlns:sketch="http://www.bohemiancoding.com/sketch/ns">
    <!-- Generator: Sketch 3.3.2 (12043) - http://www.bohemiancoding.com/sketch -->
    <title>Untitled</title>
    <desc>Created with Sketch.</desc>
    <defs></defs>
    <g id="Page-1" stroke="none" stroke-width="1" fill="none" fill-rule="evenodd" sketch:type="MSPage">
        <g id="A12_Help" sketch:type="MSLayerGroup" fill="#ffffff">
            <path d="M1.97184965,10.8089354 C1.97184965,15.5189354 5.81184965,19.3589354 10.5218496,19.3589354 C15.2418496,19.3589354 19.0818496,15.5189354 19.0818496,10.8089354 C19.0818496,6.0889354 15.2418496,2.2489354 10.5218496,2.2489354 C5.81184965,2.2489354 1.97184965,6.0889354 1.97184965,10.8089354 L1.97184965,10.8089354 L1.97184965,10.8089354 Z M20.9218496,10.8089354 C20.9218496,16.5389354 16.2618496,21.1989354 10.5218496,21.1989354 C4.79184965,21.1989354 0.13184965,16.5389354 0.13184965,10.8089354 C0.13184965,5.0689354 4.79184965,0.4089354 10.5218496,0.4089354 C16.2618496,0.4089354 20.9218496,5.0689354 20.9218496,10.8089354 L20.9218496,10.8089354 L20.9218496,10.8089354 Z" id="Fill-85" sketch:type="MSShapeGroup"></path>
            <path d="M9.2318496,15.6 C9.2318496,14.95 9.7118496,14.51 10.3718496,14.51 C11.0518496,14.51 11.5118496,14.96 11.5118496,15.6 C11.5118496,16.27 11.0818496,16.69 10.3718496,16.69 C9.7118496,16.69 9.2318496,16.29 9.2318496,15.6 L9.2318496,15.6 L9.2318496,15.6 Z M13.2618496,8.43 C13.2618496,10.2 10.9618496,11.23 10.9618496,12.17 C10.9618496,12.45 11.0818496,12.74 11.2718496,13.04 C11.3018496,13.12 11.2718496,13.17 11.1818496,13.17 L9.7618496,13.17 C9.6718496,13.17 9.6418496,13.17 9.5518496,13.09 C9.2518496,12.76 9.1318496,12.3 9.1318496,11.99 C9.1318496,10.69 11.2518496,9.85 11.2518496,8.6 C11.2518496,7.96 10.7418496,7.42 9.7418496,7.42 C8.96184965,7.42 8.38184965,7.58 7.82184965,7.81 C7.74184965,7.85 7.68184965,7.81 7.68184965,7.75 L7.68184965,6.49 C7.68184965,6.43 7.68184965,6.38 7.75184965,6.34 C8.14184965,6.15 8.98184965,5.85 10.1618496,5.85 C12.0318496,5.85 13.2618496,6.92 13.2618496,8.43 L13.2618496,8.43 L13.2618496,8.43 Z" id="Fill-86" sketch:type="MSShapeGroup"></path>
        </g>
    </g>
</svg>