<svg xmlns="http://www.w3.org/2000/svg" width="24" height="24" viewBox="0 0 24 24">
  <g fill="#FFF" transform="translate(1 1)">
    <path d="M11,0.8 C5.37157288,0.8 0.8,5.37157288 0.8,11 C0.8,16.6284271 5.37157288,21.2 11,21.2 C16.6284271,21.2 21.2,16.6284271 21.2,11 C21.2,5.37157288 16.6284271,0.8 11,0.8 Z M11,3.8 C14.9715729,3.8 18.2,7.02842712 18.2,11 C18.2,14.9715729 14.9715729,18.2 11,18.2 C7.02842712,18.2 3.8,14.9715729 3.8,11 C3.8,7.02842712 7.02842712,3.8 11,3.8 Z" opacity=".2"/>
    <path d="M11,0.8 C16.53462,0.8 21.0473207,5.22045699 21.1962066,10.7194756 L21.2,11 L18.2,11 C18.2,7.10947963 15.1020008,3.93208205 11.2422079,3.80401273 L11,3.8 L11,0.8 Z"/>
  </g>
</svg>
