<svg xmlns="http://www.w3.org/2000/svg" width="18" height="18" viewBox="0 0 18 18">
  <path fill="#1473E6" d="M9,1 C4.581722,1 1,4.581722 1,9 C1,13.418278 4.581722,17 9,17 C13.418278,17 17,13.418278 17,9 C17,6.87826808 16.1571453,4.84343678 14.6568542,3.34314575 C13.1565632,1.84285472 11.1217319,1 9,1 Z M8.85,3.15 C9.5994361,3.10906883 10.2401561,3.68342405 10.28109,4.43286 C10.2834367,4.47587333 10.28374,4.51892 10.282,4.562 C10.3124335,4.95032322 10.1713661,5.33251017 9.89593813,5.60793813 C9.62051017,5.88336609 9.23832322,6.02443353 8.85,5.994 C8.46335006,6.01733713 8.08524037,5.87383519 7.81143564,5.59983926 C7.53763092,5.32584333 7.39439297,4.94763356 7.418,4.561 C7.40367192,4.20085428 7.53299856,3.84976749 7.77752934,3.58497525 C8.02206013,3.32018302 8.3617642,3.16337593 8.72191,3.14905 C8.76460333,3.14736333 8.8073,3.14768 8.85,3.15 Z M11,13.5 C11,13.7761424 10.7761424,14 10.5,14 L7.5,14 C7.22385763,14 7,13.7761424 7,13.5 L7,12.5 C7,12.2238576 7.22385763,12 7.5,12 L8,12 L8,9 L7.5,9 C7.22385763,9 7,8.77614237 7,8.5 L7,7.5 C7,7.22385763 7.22385763,7 7.5,7 L9.5,7 C9.77614237,7 10,7.22385763 10,7.5 L10,12 L10.5,12 C10.7761424,12 11,12.2238576 11,12.5 L11,13.5 Z"/>
</svg>
