<svg xmlns="http://www.w3.org/2000/svg" xmlns:xlink="http://www.w3.org/1999/xlink" viewBox="0 0 18 18">
  <defs>
    <style>
    	.bg{fill:#FBFBFB;}
      .cls-1 {
        clip-path: url(#clip-s_radio_selected-default_18_1);
      }

      .cls-2 {
        fill: #fbfbfb;
      }

      .cls-3 {
        fill: #1473e6;
      }
    </style>
    <clipPath id="clip-s_radio_selected-default_18_1">
      <rect width="18" height="18"/>
    </clipPath>
  </defs>
  <g id="s_radio_selected-default_18_1" data-name="s_radio_selected-default_18 – 1" class="cls-1">
		<rect class="bg" width="18" height="18"/>
    <circle id="Radio_Background" data-name="Radio Background" class="cls-2" cx="7" cy="7" r="7" transform="translate(2 2)"/>
    <path id="Radio_Border" data-name="Radio Border" class="cls-3" d="M-7,0A7,7,0,0,0,0,7,7,7,0,0,0,7,0,7,7,0,0,0,0-7,7,7,0,0,0-7,0m5,0A2,2,0,0,1,0-2,2,2,0,0,1,2,0,2,2,0,0,1,0,2,2,2,0,0,1-2,0" transform="translate(9 9)"/>
  </g>
</svg>
