<svg xmlns="http://www.w3.org/2000/svg" width="18" height="18" viewBox="0 0 18 18">
  <path fill="#268E6C" d="M8,0 C3.581722,-2.22044605e-16 4.4408921e-16,3.581722 0,8 C-5.55111512e-16,12.418278 3.581722,16 8,16 C12.418278,16 16,12.418278 16,8 C16,5.87826808 15.1571453,3.84343678 13.6568542,2.34314575 C12.1565632,0.842854723 10.1217319,2.22044605e-16 8,0 Z M13.333,4.54 L7.009,12.67 C6.90309845,12.8058372 6.74392717,12.8896115 6.572,12.9 L6.535,12.9 C6.37557717,12.9001254 6.22265878,12.8367992 6.11,12.724 L2.217,8.824 C2.10433377,8.71145905 2.04102801,8.55874555 2.04102801,8.3995 C2.04102801,8.24025445 2.10433377,8.08754095 2.217,7.975 L2.88,7.312 C3.11425404,7.0780373 3.49374596,7.0780373 3.728,7.312 L6.4,9.991 L11.656,3.237 C11.7544852,3.11188874 11.8986611,3.03105392 12.0567761,3.01229769 C12.2148911,2.99354146 12.3739776,3.0384021 12.499,3.137 L13.227,3.703 C13.4856413,3.90586192 13.5329049,4.27906651 13.333,4.54 Z" transform="translate(1 1)"/>
</svg>