<svg id="Layer_1" data-name="Layer 1" xmlns="http://www.w3.org/2000/svg" viewBox="0 0 170 29.65">
  <defs>
    <style>
      .cls-1 {
        fill: #fff;
      }

      .cls-2 {
        fill: #584ccc;
      }
    </style>
  </defs>
  <g>
    <path class="cls-1" d="M35.51507,1.08767c0-.07094.01179-.09451.07094-.09451.4848-.01178,1.41856-.03559,2.317-.03559,2.38767,0,3.21515,1.32405,3.21515,2.61252,0,1.91489-1.47748,2.73058-3.29787,2.73058h-.67381V8.62943c0,.05915-.02356.0945-.0945.0945H35.5978c-.05892,0-.08273-.03535-.08273-.0945Zm1.63138,3.75909c.2008.01179.33089.01179.662.01179.93376,0,1.67851-.28376,1.67851-1.25311,0-.74451-.50836-1.21753-1.53687-1.21753-.37827,0-.69738.01179-.80367.02381Z"/>
    <path class="cls-1" d="M47.39812,5.757a2.91774,2.91774,0,1,1-5.82766.03535,2.89259,2.89259,0,0,1,2.94341-3.06148A2.81378,2.81378,0,0,1,47.39812,5.757Zm-4.16093.01178c0,1.0403.48455,1.70208,1.27668,1.70208.68559,0,1.20573-.59084,1.20573-1.67851,0-.922-.37826-1.6903-1.27667-1.6903C43.75733,4.102,43.23719,4.71667,43.23719,5.76874Z"/>
    <path class="cls-1" d="M52.95909,8.72393c-.09451,0-.11808-.03535-.14188-.10629-.59085-2.41147-.7801-3.49914-.89818-4.0782h-.012c-.2953,1.30024-.53193,2.28138-1.02827,4.0782-.02356.08273-.05915.10629-.13009.10629H49.27117c-.11831,0-.14188-.02356-.16569-.10629L47.56885,2.95543c-.02356-.05915.01179-.10653.09451-.10653h1.50128c.07094,0,.09451.02381.10653.08273.62644,2.55335.79188,3.68815.87461,4.18473h.02356c.09475-.42564.28376-1.53687.96936-4.16093.01178-.07094.0238-.10653.10653-.10653h1.56019c.05916,0,.08273.02381.09475.08273.62644,2.61251.79188,3.75909.87461,4.23186h.02356c.16569-.76831.34292-2.045.9102-4.23186a.09584.09584,0,0,1,.10653-.08273h1.383c.04737,0,.0945.03559.07094.09475l-1.6903,5.674c-.02381.08273-.03559.10629-.14188.10629Z"/>
    <path class="cls-1" d="M58.09105,6.218c.05916.67381.53193,1.2293,1.6903,1.2293a3.66584,3.66584,0,0,0,1.45414-.27173c.03559-.02381.0707-.012.0707.05891v1.123c0,.08272-.02356.11831-.08272.14188a3.96715,3.96715,0,0,1-1.80861.34292,2.77166,2.77166,0,0,1-3.00232-2.99078A2.88115,2.88115,0,0,1,59.273,2.73083a2.41022,2.41022,0,0,1,2.49444,2.55336,3.81343,3.81343,0,0,1-.05915.79188.10187.10187,0,0,1-.09475.09451A10.932,10.932,0,0,1,60.396,6.218Zm1.53663-1.14658a3.80552,3.80552,0,0,0,.59109-.02381V4.96484a.9616.9616,0,0,0-1.0047-.93377,1.11966,1.11966,0,0,0-1.1348,1.0403Z"/>
    <path class="cls-1" d="M63.963,2.8489a.13131.13131,0,0,1,.14188.10653,2.2597,2.2597,0,0,1,.12986.662,2.46656,2.46656,0,0,1,1.87955-.88663c.07118,0,.09426.02357.09426.09451v1.4539c0,.05916-.02308.08273-.1058.08273a2.43213,2.43213,0,0,0-1.78529.50836l-.01154,3.7591c0,.07094-.02405.0945-.10677.0945H62.78078c-.09474,0-.11831-.03535-.11831-.10629V4.53944c0-.50837-.012-1.194-.05916-1.60781,0-.05892.012-.08273.07118-.08273Z"/>
    <path class="cls-1" d="M68.15154,6.218c.05964.67381.53193,1.2293,1.69053,1.2293A3.6639,3.6639,0,0,0,71.296,7.17552c.03559-.02381.07118-.012.07118.05891v1.123c0,.08272-.02405.11831-.08272.14188a3.96968,3.96968,0,0,1-1.80885.34292A2.77173,2.77173,0,0,1,66.473,5.85147a2.88148,2.88148,0,0,1,2.86068-3.12064,2.40988,2.40988,0,0,1,2.4942,2.55336,3.823,3.823,0,0,1-.05868.79188.10193.10193,0,0,1-.09522.09451,10.91634,10.91634,0,0,1-1.21729.04737Zm1.53711-1.14658a3.79615,3.79615,0,0,0,.5906-.02381V4.96484A.9611.9611,0,0,0,69.275,4.03107a1.1199,1.1199,0,0,0-1.135,1.0403Z"/>
    <path class="cls-1" d="M72.37475,5.83968a3.13552,3.13552,0,0,1,3.42772-3.10885c.09475,0,.21306.01178.39053.02357V.42564a.07479.07479,0,0,1,.08272-.08272h1.489c.05964,0,.07118.02381.07118.07094V7.40012a6.64465,6.64465,0,0,0,.04714.86282c0,.05916-.01155.08273-.08273.10629a5.93677,5.93677,0,0,1-2.32875.473A2.829,2.829,0,0,1,72.37475,5.83968ZM76.193,4.16117a1.22514,1.22514,0,0,0-.43766-.05916,1.57682,1.57682,0,0,0-1.69006,1.655A1.47915,1.47915,0,0,0,75.637,7.43547a1.66677,1.66677,0,0,0,.556-.07094Z"/>
    <path class="cls-1" d="M83.22543.34292c.09427,0,.11784.01178.11784.09451v2.4235a3.79471,3.79471,0,0,1,.99316-.1301,2.70546,2.70546,0,0,1,2.83663,2.81331,3.28167,3.28167,0,0,1-3.546,3.29811,6.19479,6.19479,0,0,1-1.856-.272.13878.13878,0,0,1-.07119-.11831V.42564c0-.05891.02405-.08272.08273-.08272Zm.81521,3.78266a2.40649,2.40649,0,0,0-.69737.09451v3.2036a1.84291,1.84291,0,0,0,.43718.04713,1.627,1.627,0,0,0,1.7141-1.773A1.38867,1.38867,0,0,0,84.04064,4.12558Z"/>
    <path class="cls-1" d="M88.88091,2.8489a.12209.12209,0,0,1,.11783.08273c.67429,2.02142,1.02875,3.25073,1.1942,3.86562.37851-1.25311.745-2.38791,1.20574-3.86562a.12263.12263,0,0,1,.12985-.08273h1.40678c.0832,0,.09475.04738.0832.10653-.85128,2.64787-2.1633,5.91038-3.03863,7.93181-.02309.04713-.05868.08272-.16545.08272l-1.489.11808c-.07118,0-.09475-.03535-.05916-.10629.34292-.7094.69737-1.4895,1.07588-2.37613a.20424.20424,0,0,0,.01154-.2008c-.33089-.81569-1.44188-3.60543-2.13926-5.46117-.03559-.05916.01155-.09475.0707-.09475Z"/>
    <g>
      <rect class="cls-2" width="27.27646" height="26.59454" rx="4.83021"/>
      <path class="cls-1" d="M21.9322,15.39688a4.18845,4.18845,0,0,0-3.08065-.87717,16.26264,16.26264,0,0,0-2.48806.21594A12.3082,12.3082,0,0,1,14.93,13.06292a15.25141,15.25141,0,0,1-.897-1.39349A14.15348,14.15348,0,0,0,14.83032,7.65c0-1.23039-.48745-2.5458-1.85559-2.5458a1.37643,1.37643,0,0,0-1.14527.67589c-.5836,1.00218-.34982,3.06439.58167,5.16286-.32436.96411-.67771,1.90276-1.11084,2.9429a26.34063,26.34063,0,0,1-1.25585,2.60775c-1.39553.56133-4.36185,1.92413-4.6445,3.42956a1.27735,1.27735,0,0,0,.40585,1.19971,1.7683,1.7683,0,0,0,1.20869.43119c1.78684,0,3.56867-2.47363,4.76781-4.6029.68191-.23208,1.37724-.44222,2.06949-.62508.75931-.201,1.49327-.366,2.18553-.48871a6.78425,6.78425,0,0,0,4.41617,1.90106c1.158,0,1.59112-.50212,1.74876-.92422A1.416,1.416,0,0,0,21.9322,15.39688Zm-1.23221.868c-.06342.328-.40233.54007-.86625.54007a1.64242,1.64242,0,0,1-.39142-.049,6.37354,6.37354,0,0,1-2.4808-1.25586,12.32844,12.32844,0,0,1,1.83571-.14127,6.59116,6.59116,0,0,1,1.22323.09422c.36778.076.78284.279.67953.81182ZM12.56331,6.20744a.47108.47108,0,0,1,.39505-.2556c.43313,0,.52735.52189.52735.95865a11.97866,11.97866,0,0,1-.56713,3.03178C12.19189,8.01769,12.29338,6.66943,12.56331,6.20744Zm2.53887,8.76177c-.49109.1033-.99855.22287-1.51316.35879-.3696.09786-.74477.20458-1.11993.31891.19935-.40767.38244-.81181.54189-1.196.21026-.50757.40767-1.01491.589-1.51157q.23867.37506.4929.7268a14.48513,14.48513,0,0,0,1.04958,1.29348ZM9.60586,17.60229c-1.14345,1.84116-2.26872,3.0045-2.92654,3.0045a.41234.41234,0,0,1-.29356-.10512.42905.42905,0,0,1-.15048-.42052C6.3603,19.42163,7.66332,18.47025,9.60586,17.60229Z"/>
    </g>
    <g>
      <path class="cls-1" d="M37.67323,22.93336,36.89294,25.339a.17645.17645,0,0,1-.17888.13h-1.8853c-.11389,0-.14627-.06521-.13-.16258l3.25069-9.37867a2.95692,2.95692,0,0,0,.16258-.99134.10877.10877,0,0,1,.09737-.11389H40.81c.08129,0,.11389.0163.13019.09759l3.68953,10.40261c.03238.08107.0163.14628-.08129.14628H42.43538a.16389.16389,0,0,1-.17866-.11368l-.829-2.42193Zm3.1531-2.032c-.32515-1.07263-.97525-3.03943-1.2841-4.19334h-.01609c-.26017,1.08892-.84527,2.87685-1.2678,4.19334Z"/>
      <path class="cls-1" d="M44.73785,21.50276c0-2.32413,1.73923-4.27463,4.71368-4.27463.13,0,.29255.0163.53642.03238V14.05872a.10269.10269,0,0,1,.11367-.11389h2.04809c.08129,0,.09738.0326.09738.09759v9.606a9.14426,9.14426,0,0,0,.0652,1.18652c0,.08107-.0163.11367-.11389.14627a8.16382,8.16382,0,0,1-3.202.65031C46.59076,25.63154,44.73785,24.26615,44.73785,21.50276Zm5.2501-2.308a1.68541,1.68541,0,0,0-.60141-.08108,2.16831,2.16831,0,0,0-2.32435,2.27544A2.03451,2.03451,0,0,0,49.224,23.69734a2.28567,2.28567,0,0,0,.764-.0978Z"/>
      <path class="cls-1" d="M61.407,21.38908a4.012,4.012,0,1,1-8.01327.04891A3.9775,3.9775,0,0,1,57.441,17.22813,3.86893,3.86893,0,0,1,61.407,21.38908Zm-5.72131.0163c0,1.43017.6664,2.34044,1.75532,2.34044.94265,0,1.65795-.81246,1.65795-2.30783,0-1.268-.52012-2.32435-1.75554-2.32435C56.40075,19.11364,55.68567,19.9587,55.68567,21.40538Z"/>
      <path class="cls-1" d="M64.67334,13.94483c.13,0,.16236.0163.16236.13V17.407a5.22837,5.22837,0,0,1,1.36539-.17887,3.72017,3.72017,0,0,1,3.901,3.8684c0,3.03964-2.40564,4.535-4.87626,4.535a8.51324,8.51324,0,0,1-2.55169-.37405.19051.19051,0,0,1-.09759-.16258V14.05872c0-.08129.03238-.11389.11367-.11389Zm1.12152,5.2012a3.31364,3.31364,0,0,0-.95916.13v4.405a2.5404,2.5404,0,0,0,.60141.06478A2.23712,2.23712,0,0,0,67.79405,21.308,1.9097,1.9097,0,0,0,65.79486,19.146Z"/>
      <path class="cls-1" d="M73.1308,22.02309c.08129.92657.7316,1.69055,2.32435,1.69055a5.03749,5.03749,0,0,0,1.99919-.37405c.0489-.03261.09759-.0163.09759.0815v1.54384c0,.11368-.0326.16258-.11389.19518a5.45412,5.45412,0,0,1-2.48671.47143,3.81119,3.81119,0,0,1-4.12857-4.11248c0-2.24306,1.38169-4.29093,3.93339-4.29093A3.31388,3.31388,0,0,1,78.18572,20.739a5.19841,5.19841,0,0,1-.08129,1.08892.13941.13941,0,0,1-.13.13,15.04812,15.04812,0,0,1-1.674.0652Zm2.11308-1.57666a5.27541,5.27541,0,0,0,.81268-.0326v-.11367a1.32216,1.32216,0,0,0-1.38148-1.28411,1.53945,1.53945,0,0,0-1.56036,1.43038Z"/>
      <path class="cls-1" d="M85.02771,22.93336,84.24742,25.339a.17645.17645,0,0,1-.17888.13h-1.8853c-.11389,0-.14627-.06521-.13-.16258L85.304,15.92772a2.95692,2.95692,0,0,0,.16258-.99134.10877.10877,0,0,1,.09738-.11389h2.60059c.08129,0,.11389.0163.13019.09759l3.68953,10.40261c.03217.08107.0163.14628-.08107.14628h-2.1133a.1639.1639,0,0,1-.17866-.11368l-.829-2.42193Zm3.1531-2.032c-.32515-1.07263-.97525-3.03943-1.2841-4.19334h-.01609c-.26016,1.08892-.84527,2.87685-1.2678,4.19334Z"/>
      <path class="cls-1" d="M98.28529,25.24119c0,.0815-.0163.1141-.0815.13a5.036,5.036,0,0,1-1.82053.26038,4.01965,4.01965,0,0,1-4.29093-4.16095c0-2.43824,1.83683-4.24246,4.59979-4.24246a4.42422,4.42422,0,0,1,1.49537.17887c.0815.03239.0978.08108.0978.17867l-.0163,1.67425c0,.11367-.0652.13-.1304.11367a4.05689,4.05689,0,0,0-1.365-.195,2.11437,2.11437,0,0,0-2.35673,2.21045,2.15051,2.15051,0,0,0,2.38933,2.24306,5.33853,5.33853,0,0,0,1.34867-.14628c.0978-.0326.1304,0,.1304.06521Z"/>
      <path class="cls-1" d="M101.288,17.3907a.17967.17967,0,0,1,.19518.14628,3.10691,3.10691,0,0,1,.17888.91026,3.39138,3.39138,0,0,1,2.58408-1.21911c.09781,0,.13041.03238.13041.13v1.99919c0,.08129-.0326.11389-.14671.11389a3.343,3.343,0,0,0-2.4541.69879l-.0163,5.169c0,.09738-.03218.13-.14628.13H99.66313c-.13041,0-.163-.04891-.163-.14628V19.71483c0-.69878-.0163-1.64143-.08108-2.21045,0-.08129.01631-.11368.09738-.11368Z"/>
      <path class="cls-1" d="M112.69765,21.38908a4.0119,4.0119,0,1,1-8.01306.04891,3.9775,3.9775,0,0,1,4.04728-4.20986A3.86865,3.86865,0,0,1,112.69765,21.38908Zm-5.72111.0163c0,1.43017.66619,2.34044,1.75533,2.34044.94243,0,1.65795-.81246,1.65795-2.30783,0-1.268-.51991-2.32435-1.75533-2.32435C107.69163,19.11364,106.97654,19.9587,106.97654,21.40538Z"/>
      <path class="cls-1" d="M115.96378,13.94483c.13041,0,.16258.0163.16258.13V17.407a5.22839,5.22839,0,0,1,1.3654-.17887,3.72017,3.72017,0,0,1,3.901,3.8684c0,3.03964-2.40563,4.535-4.87647,4.535a8.51188,8.51188,0,0,1-2.55148-.37405.19071.19071,0,0,1-.09781-.16258V14.05872c0-.08129.03261-.11389.11411-.11389Zm1.12175,5.2012a3.31237,3.31237,0,0,0-.95917.13v4.405a2.53923,2.53923,0,0,0,.60141.06478,2.23728,2.23728,0,0,0,2.35716-2.43781A1.90984,1.90984,0,0,0,117.08553,19.146Z"/>
      <path class="cls-1" d="M128.85589,23.66474c0,.42253,0,.764.0326,1.15392,0,.0326,0,.0652-.0326.0815a8.97347,8.97347,0,0,1-3.54325.73138c-1.80423,0-3.2833-.82918-3.2833-2.71448,0-1.72273,1.51167-2.6332,3.6728-2.6332a6.89816,6.89816,0,0,1,.95916.03238v-.11367c0-.30886-.19475-1.02394-1.56014-1.02394a5.20523,5.20523,0,0,0-2.14568.43883.09588.09588,0,0,1-.14628-.08129V17.89452a.14165.14165,0,0,1,.11411-.16257,6.11185,6.11185,0,0,1,2.55148-.50382,3.062,3.062,0,0,1,3.3811,3.29959Zm-2.19459-1.67425a6.04328,6.04328,0,0,0-.81246-.0489c-1.15391,0-1.62577.37406-1.62577.95917,0,.5362.40666.975,1.4306.975a3.27285,3.27285,0,0,0,1.00763-.14627Z"/>
      <path class="cls-1" d="M134.4187,25.19271c0,.09738-.0163.17845-.11367.211a4.03539,4.03539,0,0,1-1.4469.22778A2.021,2.021,0,0,1,130.6155,23.307V19.276H129.64c-.09737-.01608-.13-.04868-.13-.14627V17.537c0-.11389.0326-.14628.14628-.14628h.97546a17.88085,17.88085,0,0,1,.16215-1.9668.17267.17267,0,0,1,.14671-.14628l1.9016-.24386c.08107-.01609.13-.01609.13.09759-.0489.50382-.0815,1.46277-.0815,2.25935h1.49537c.0978,0,.1304.03239.1304.13v1.64165c0,.08129-.0326.09759-.1141.11367h-1.528v3.47848c0,.71508.21148,1.04024.87766,1.04024a3.19269,3.19269,0,0,0,.55294-.0652c.06477,0,.11367.0163.11367.1141Z"/>
      <path class="cls-1" d="M138.82245,25.06231a.26832.26832,0,0,1-.11367-.25995V22.86815c0-.08107.06477-.13.13-.08107a5.59222,5.59222,0,0,0,2.94184.84506c1.23542,0,1.72315-.42253,1.72315-.99134,0-.52033-.37362-.894-1.47907-1.36539l-.81288-.34146c-1.999-.84527-2.55149-1.85291-2.55149-3.12072,0-1.75532,1.33237-3.15331,3.91688-3.15331a6.09851,6.09851,0,0,1,2.53561.42274.20872.20872,0,0,1,.0978.21126v1.82032c0,.0652-.0489.14627-.1467.08129a5.13719,5.13719,0,0,0-2.503-.53621c-1.25129,0-1.69055.42253-1.69055.95895,0,.50382.34146.84506,1.56057,1.33279l.60141.24366c2.162.894,2.76339,1.91811,2.76339,3.2346,0,1.96681-1.59317,3.20222-4.09618,3.20222A6.35168,6.35168,0,0,1,138.82245,25.06231Z"/>
      <path class="cls-1" d="M146.89814,15.26132a1.21663,1.21663,0,0,1,1.268-1.2515,1.17719,1.17719,0,0,1,1.25129,1.2515,1.19441,1.19441,0,0,1-1.26759,1.26781A1.18186,1.18186,0,0,1,146.89814,15.26132Zm.11411,2.25936c0-.08129.03217-.13.12954-.13h1.99941c.09737,0,.13.03239.13.13v7.802c0,.09737-.0163.14628-.14627.14628h-1.95051c-.11367,0-.16214-.04891-.16214-.14628Z"/>
      <path class="cls-1" d="M155.148,23.58324c2.32456.1141,3.18592,1.05654,3.18592,2.34086,0,1.69012-1.65795,3.05551-4.27463,3.05551-2.71449,0-3.901-1.34909-3.901-2.51931,0-.5199.423-1.17021,1.49537-2.06417a2.04535,2.04535,0,0,1-.34145-1.21912,2.26372,2.26372,0,0,1,.29255-1.07284,2.33659,2.33659,0,0,1-1.12131-2.09678c0-1.56015,1.21911-2.77926,3.33219-2.77926a9.4465,9.4465,0,0,1,1.54385.13,1.714,1.714,0,0,0,.38993.0326h2.22718c.08108,0,.11368.03239.11368.11368v1.51167c0,.08129-.0326.11368-.11368.11368-.24408,0-.78028-.04869-1.12174-.08129a2.10241,2.10241,0,0,1,.24408,1.05654c0,1.72293-1.4143,2.5843-3.21852,2.5843-.17888,0-.37363-.01588-.55251-.03218a.80177.80177,0,0,0-.0326.43883.87666.87666,0,0,0,.17888.42253Zm-2.30783,1.82052a1.58185,1.58185,0,0,0-.61771.86137c0,.504.71551,1.05654,1.9831,1.05654,1.44647,0,2.06418-.50361,2.06418-1.04024,0-.60141-.71508-.764-1.62535-.81246Zm-.16258-5.42876a1.05456,1.05456,0,0,0,1.15435,1.10523.99375.99375,0,0,0,1.12131-1.05654,1.13812,1.13812,0,1,0-2.27566-.04869Z"/>
      <path class="cls-1" d="M159.04642,19.276c0-.5525-.0326-1.39778-.06477-1.75532-.0163-.08129.0163-.13.11367-.13h1.70642a.1908.1908,0,0,1,.21148.13,1.98858,1.98858,0,0,1,.13.53642,3.56193,3.56193,0,0,1,2.30826-.829c1.25129,0,2.73036.65009,2.73036,3.267v4.82757c0,.09737-.0326.14628-.14585.14628H164.085c-.11325,0-.16215-.04891-.16215-.14628v-4.6326c0-.97526-.423-1.49537-1.268-1.49537a1.96781,1.96781,0,0,0-1.34909.504V25.339c0,.08107-.04848.13-.14628.13h-1.96637c-.11411,0-.14671-.04891-.14671-.14628Z"/>
    </g>
  </g>
</svg>
