<?xml version="1.0" encoding="utf-8"?>
<!-- Generator: Adobe Illustrator 25.0.0, SVG Export Plug-In . SVG Version: 6.00 Build 0)  -->
<svg version="1.1" id="Layer_1" xmlns="http://www.w3.org/2000/svg" xmlns:xlink="http://www.w3.org/1999/xlink" x="0px" y="0px"
	 viewBox="0 0 100 31" style="enable-background:new 0 0 100 31;" xml:space="preserve">
<style type="text/css">
	.st0{fill:#584CCC;}
	.st1{fill:#FFFFFF;}
	.st2{fill:#929497;}
</style>
<g>
	<path class="st0" d="M0,25.2V5.8c0-2.8,2.3-5.1,5.1-5.1c0,0,0,0,0,0h20.3c2.8,0,5.1,2.3,5.1,5.1v19.5c0,2.8-2.3,5.1-5.1,5.1
		c0,0,0,0,0,0H5.1C2.3,30.3,0,28.1,0,25.2C0,25.2,0,25.2,0,25.2z"/>
	<path class="st1" d="M10.2,21.1c-0.3,0.4-0.6,0.9-0.9,1.3c-0.2,0.2-0.3,0.3-0.4,0.5c-0.4,0.5-0.9,0.8-1.5,0.9c-0.1,0-0.2,0-0.3-0.1
		c0,0-0.1-0.1-0.1-0.1c-0.1-0.1-0.1-0.2-0.1-0.2c0,0,0-0.1,0-0.1c0,0,0-0.1,0-0.1c0.1-0.2,0.3-0.5,0.5-0.6c0.1-0.1,0.1-0.1,0.2-0.2
		c1-0.8,2-1.4,3.1-1.9C10.5,20.6,10.4,20.8,10.2,21.1z M21.2,17.8c0.5,0,0.9,0,1.4,0.1c0.3,0,0.6,0.2,0.8,0.5c0,0.1,0,0.1,0,0.2
		c0,0.1,0,0.1,0,0.2c-0.1,0.4-0.5,0.6-1,0.6c-0.1,0-0.1,0-0.2,0c-0.1,0-0.2,0-0.2,0c-1-0.3-2-0.8-2.8-1.4c0.2,0,0.4-0.1,0.6-0.1
		C20.2,17.8,20.7,17.8,21.2,17.8z M17,17.3c-0.6,0.1-1.1,0.3-1.7,0.4c-0.4,0.1-0.8,0.2-1.3,0.4c0.2-0.5,0.4-0.9,0.6-1.4
		c0.2-0.6,0.5-1.2,0.7-1.7c0.2,0.3,0.4,0.6,0.6,0.8c0.2,0.3,0.4,0.5,0.6,0.8C16.6,16.8,16.8,17.1,17,17.3L17,17.3L17,17.3z
		 M14.1,7.3C14.1,7.3,14.1,7.3,14.1,7.3C14.2,7.1,14.4,7,14.5,7c0.1,0,0.2,0,0.3,0.1c0.2,0.3,0.3,0.6,0.3,1c0,0.4,0,0.7-0.1,1.1
		c-0.1,0.6-0.2,1.3-0.4,1.9c0,0.2-0.1,0.3-0.1,0.5c-0.2-0.5-0.3-1-0.5-1.5c-0.1-0.4-0.1-0.8-0.2-1.2c0-0.3,0-0.6,0-0.9
		C13.9,7.7,14,7.5,14.1,7.3z M25.1,18.7c0-0.1,0-0.3-0.1-0.4c-0.1-0.2-0.2-0.3-0.3-0.5c-0.2-0.2-0.4-0.3-0.6-0.4
		c-0.9-0.4-1.9-0.6-2.9-0.6c-0.4,0-0.9,0-1.3,0.1c-0.5,0-1,0.1-1.5,0.2c-0.6-0.6-1.1-1.2-1.6-1.9c-0.4-0.5-0.7-1-1-1.6
		c0.2-0.5,0.3-0.9,0.4-1.4c0.1-0.3,0.1-0.5,0.2-0.7c0.1-0.3,0.1-0.7,0.2-1c0-0.2,0.1-0.4,0.1-0.6c0-0.3,0.1-0.6,0.1-0.9
		c0.1-1-0.3-1.9-1-2.6c-0.1-0.1-0.2-0.1-0.3-0.2c-0.2-0.1-0.5-0.2-0.8-0.1c-0.3,0-0.5,0.1-0.7,0.2c-0.2,0.1-0.4,0.3-0.6,0.6
		C13,7.4,12.8,8,12.9,8.6c0,0.3,0,0.6,0.1,0.9c0.2,1.1,0.5,2.3,1,3.3c-0.1,0.3-0.2,0.5-0.3,0.8c-0.2,0.5-0.4,1.1-0.6,1.7
		c-0.1,0.3-0.2,0.6-0.4,0.9c-0.4,1-0.9,2-1.4,3c-1.3,0.5-3.8,1.6-4.8,3C6.1,22.3,6,22.6,5.9,23c0,0.1,0,0.3,0,0.4
		c0,0.2,0.1,0.5,0.2,0.7c0.1,0.1,0.2,0.2,0.3,0.3c0.1,0.1,0.2,0.2,0.4,0.3c0,0,0.1,0,0.1,0.1c0.1,0.1,0.2,0.1,0.4,0.1
		c0.2,0,0.4,0.1,0.5,0.1c0.4,0,0.8-0.1,1.1-0.3c0.3-0.1,0.5-0.3,0.7-0.5c0.5-0.4,1-0.9,1.4-1.4c0.5-0.6,0.9-1.1,1.3-1.8
		c0.3-0.5,0.6-0.9,0.8-1.4c0.4-0.1,0.8-0.3,1.2-0.4c0.4-0.1,0.8-0.2,1.2-0.3c0.1,0,0.2,0,0.3-0.1c0.8-0.2,1.5-0.4,2.2-0.5
		c0.1,0.1,0.3,0.2,0.4,0.3c0.3,0.2,0.5,0.4,0.8,0.6c0.1,0.1,0.3,0.2,0.4,0.2c1,0.6,2.2,1,3.5,1c0.5,0,1-0.1,1.4-0.3
		c0.1,0,0.1-0.1,0.2-0.2c0.2-0.2,0.3-0.3,0.4-0.5c0.1-0.2,0.1-0.3,0.1-0.5C25.1,18.9,25.1,18.8,25.1,18.7z"/>
	<path class="st2" d="M35.3,9.6v-6c0-0.1,0-0.1,0.1-0.1c0.1,0,0.3,0,0.5,0c0.2,0,0.4,0,0.6,0c0.2,0,0.4,0,0.6,0c0.2,0,0.3,0,0.5,0
		c0.4,0,0.9,0.1,1.3,0.2c0.3,0.1,0.6,0.3,0.8,0.5c0.2,0.2,0.3,0.4,0.4,0.7c0.1,0.2,0.1,0.5,0.1,0.7c0,0.4-0.1,0.8-0.3,1.2
		c-0.3,0.3-0.6,0.6-1,0.7c-0.5,0.2-0.9,0.2-1.4,0.2h-0.4v1.8c0,0.1,0,0.1-0.1,0.1L35.3,9.6C35.3,9.7,35.3,9.7,35.3,9.6z M36.9,4.9
		v1.5h0.6c0.2,0,0.4,0,0.6-0.1c0.1-0.1,0.2-0.1,0.3-0.3c0.1-0.1,0.1-0.3,0.1-0.4c0-0.1,0-0.3-0.1-0.4c-0.1-0.1-0.2-0.2-0.3-0.3
		c-0.2-0.1-0.4-0.1-0.5-0.1c-0.1,0-0.2,0-0.3,0C37.1,4.9,37,4.9,36.9,4.9L36.9,4.9z"/>
	<path class="st2" d="M43.7,3.5c0.4,0,0.9,0.1,1.3,0.3c0.4,0.2,0.7,0.4,0.9,0.7c0.3,0.3,0.4,0.6,0.6,1c0.1,0.4,0.2,0.8,0.2,1.2
		c0,0.6-0.1,1.1-0.4,1.7c-0.2,0.5-0.6,0.9-1.1,1.1c-1,0.5-2.2,0.5-3.2,0c-0.4-0.3-0.8-0.7-1-1.1c-0.2-0.5-0.4-1.1-0.4-1.7
		c0-0.4,0.1-0.8,0.2-1.2c0.1-0.4,0.3-0.7,0.6-1c0.3-0.3,0.6-0.5,1-0.7C42.9,3.5,43.3,3.5,43.7,3.5z M42.4,6.6c0,0.2,0,0.5,0.1,0.7
		c0.1,0.2,0.1,0.4,0.3,0.6c0.1,0.2,0.3,0.3,0.4,0.4c0.2,0.1,0.4,0.1,0.6,0.1c0.2,0,0.5-0.1,0.7-0.2c0.2-0.2,0.4-0.4,0.4-0.6
		c0.1-0.3,0.2-0.6,0.2-1c0-0.3,0-0.6-0.1-0.9c-0.1-0.2-0.2-0.5-0.4-0.6c-0.2-0.1-0.5-0.2-0.7-0.2c-0.3,0-0.5,0.1-0.7,0.2
		c-0.2,0.2-0.4,0.4-0.4,0.6C42.5,6,42.4,6.3,42.4,6.6L42.4,6.6L42.4,6.6z"/>
	<path class="st2" d="M52.1,3.7c0.1,0.4,0.1,0.8,0.2,1.1c0.1,0.4,0.1,0.7,0.2,1.1c0.1,0.3,0.1,0.7,0.2,1c0.1,0.3,0.1,0.6,0.2,0.8h0
		c0-0.1,0-0.3,0.1-0.6c0-0.2,0.1-0.5,0.1-0.8c0.1-0.3,0.1-0.7,0.2-1.1c0.1-0.4,0.2-0.9,0.3-1.5c0-0.1,0.1-0.1,0.1-0.1c0,0,0,0,0,0
		h1.4c0.1,0,0.1,0,0.1,0.1l-1.5,6c0,0,0,0.1-0.1,0.1c0,0,0,0,0,0h-1.5c-0.1,0-0.1,0-0.1-0.1c-0.1-0.2-0.1-0.5-0.2-0.7
		c-0.1-0.3-0.1-0.5-0.2-0.8c-0.1-0.3-0.1-0.5-0.2-0.8c-0.1-0.3-0.1-0.5-0.2-0.7c-0.1-0.2-0.1-0.5-0.1-0.7c0-0.2-0.1-0.4-0.1-0.6h0
		c0,0.2-0.1,0.4-0.1,0.6c0,0.2-0.1,0.5-0.1,0.7c-0.1,0.2-0.1,0.5-0.2,0.8c-0.1,0.3-0.1,0.5-0.2,0.8c-0.1,0.2-0.1,0.5-0.2,0.7
		c-0.1,0.2-0.1,0.5-0.2,0.7c0,0.1-0.1,0.1-0.1,0.1h-1.5c-0.1,0-0.1,0-0.1-0.1L47,3.7c0,0,0-0.1,0-0.1c0,0,0,0,0.1,0h1.6
		c0,0,0.1,0,0.1,0c0,0,0,0,0,0.1c0.1,0.5,0.2,1,0.3,1.4c0.1,0.4,0.1,0.7,0.2,1c0.1,0.3,0.1,0.5,0.1,0.7c0,0.2,0.1,0.4,0.1,0.5
		c0,0.1,0,0.3,0.1,0.4h0c0-0.2,0.1-0.3,0.1-0.5c0-0.2,0.1-0.4,0.1-0.7c0.1-0.3,0.1-0.7,0.2-1.1c0.1-0.4,0.2-1,0.3-1.6
		c0-0.1,0-0.1,0.1-0.1H52C52.1,3.6,52.1,3.6,52.1,3.7z"/>
	<path class="st2" d="M60.2,8.4L60,9.6c0,0,0,0.1,0,0.1c0,0,0,0-0.1,0h-4c-0.1,0-0.1,0-0.1-0.1v-6c0,0,0,0,0-0.1c0,0,0,0,0.1,0h3.9
		c0.1,0,0.1,0,0.1,0.1l0.1,1.2c0,0.1,0,0.1-0.1,0.1h-2.5v0.9h2.3c0,0,0.1,0,0.1,0.1c0,0,0,0,0,0v1.2c0,0.1,0,0.1-0.1,0.1h-2.3v1
		L60.2,8.4C60.2,8.3,60.2,8.3,60.2,8.4z"/>
	<path class="st2" d="M62.5,9.7H61c-0.1,0-0.1,0-0.1-0.1V3.7c0-0.1,0-0.1,0.1-0.1c0.1,0,0.3,0,0.5,0c0.2,0,0.4,0,0.6,0
		c0.2,0,0.4,0,0.6,0h0.5c0.5,0,0.9,0.1,1.4,0.2c0.3,0.1,0.6,0.4,0.9,0.7c0.2,0.3,0.3,0.7,0.3,1c0,0.2,0,0.5-0.2,0.7
		c-0.1,0.2-0.2,0.4-0.4,0.5C65,6.8,64.9,7,64.7,7.1c0.1,0.1,0.2,0.2,0.3,0.4C65,7.6,65.1,7.8,65.3,8c0.1,0.2,0.2,0.4,0.4,0.6
		c0.1,0.2,0.2,0.4,0.3,0.6c0.1,0.2,0.2,0.3,0.3,0.4c0,0,0,0.1,0,0.1c0,0,0,0-0.1,0h-1.7c0,0-0.1,0-0.1,0c0,0,0,0-0.1-0.1
		c-0.1-0.1-0.1-0.3-0.2-0.4c-0.1-0.2-0.2-0.3-0.3-0.5c-0.1-0.2-0.2-0.4-0.3-0.5c-0.1-0.2-0.2-0.3-0.2-0.5c0-0.1-0.1-0.1-0.1-0.1
		c-0.1,0-0.1,0-0.2,0h-0.4L62.5,9.7C62.6,9.7,62.5,9.7,62.5,9.7C62.5,9.7,62.5,9.7,62.5,9.7z M62.6,6.2h0.6c0.2,0,0.3,0,0.5-0.1
		c0.1,0,0.2-0.1,0.3-0.2c0.1-0.1,0.1-0.2,0.1-0.4c0-0.2-0.1-0.4-0.2-0.5c-0.2-0.1-0.4-0.2-0.6-0.2c-0.1,0-0.2,0-0.4,0
		c-0.1,0-0.2,0-0.3,0C62.6,4.9,62.6,6.2,62.6,6.2z"/>
	<path class="st2" d="M71,8.4l-0.2,1.2c0,0,0,0.1,0,0.1c0,0,0,0-0.1,0h-4c-0.1,0-0.1,0-0.1-0.1v-6c0,0,0,0,0-0.1c0,0,0,0,0.1,0h3.9
		c0.1,0,0.1,0,0.1,0.1l0.1,1.2c0,0.1,0,0.1-0.1,0.1h-2.5v0.9h2.3c0,0,0.1,0,0.1,0.1c0,0,0,0,0,0v1.2c0,0.1,0,0.1-0.1,0.1h-2.3v1
		L71,8.4C71,8.3,71.1,8.3,71,8.4z"/>
	<path class="st2" d="M71.8,9.6v-6c0-0.1,0-0.1,0.1-0.1h2.1c0.6,0,1.3,0.1,1.8,0.4c0.5,0.2,0.8,0.6,1.1,1.1c0.2,0.5,0.4,1,0.4,1.5
		c0,0.4-0.1,0.8-0.2,1.2c-0.1,0.3-0.3,0.6-0.5,0.9c-0.2,0.2-0.5,0.4-0.8,0.6c-0.3,0.2-0.6,0.3-0.9,0.3c-0.3,0.1-0.6,0.1-1,0.1h-1.9
		C71.8,9.7,71.8,9.7,71.8,9.6z M73.5,5v3.4h0.4c0.2,0,0.5,0,0.7-0.1c0.2-0.1,0.4-0.2,0.5-0.3c0.2-0.1,0.3-0.3,0.3-0.5
		c0.1-0.3,0.1-0.5,0.1-0.8c0-0.2,0-0.5-0.1-0.7c-0.1-0.2-0.2-0.4-0.3-0.5C75,5.2,74.8,5.1,74.6,5C74.4,5,74.2,5,73.9,5H73.5L73.5,5z
		"/>
	<path class="st2" d="M80.1,9.6V3.7c0-0.1,0-0.1,0.1-0.1c0.1,0,0.2,0,0.4,0c0.2,0,0.4,0,0.7,0c0.3,0,0.6,0,1,0c0.4,0,0.9,0,1.3,0.2
		c0.3,0.1,0.5,0.2,0.8,0.4c0.2,0.2,0.3,0.3,0.4,0.5c0.1,0.2,0.1,0.4,0.1,0.5c0,0.2,0,0.4-0.1,0.6c-0.1,0.1-0.1,0.3-0.2,0.4
		c-0.1,0.1-0.2,0.2-0.3,0.3c0.1,0.1,0.2,0.1,0.3,0.2c0.3,0.3,0.5,0.7,0.5,1.2c0,0.4-0.1,0.7-0.3,1c-0.3,0.3-0.6,0.5-1,0.7
		c-0.5,0.2-1,0.2-1.5,0.2c-0.2,0-0.4,0-0.6,0c-0.2,0-0.4,0-0.6,0c-0.2,0-0.4,0-0.5,0C80.4,9.7,80.3,9.7,80.1,9.6
		C80.2,9.7,80.1,9.7,80.1,9.6z M81.7,4.9v1h0.7c0.1,0,0.3,0,0.4,0c0.1,0,0.2,0,0.3,0c0.1-0.1,0.1-0.1,0.1-0.2c0-0.1,0-0.2,0-0.2
		c0-0.1,0-0.2-0.1-0.3C83.2,5.1,83.1,5,83,4.9c-0.2-0.1-0.4-0.1-0.6-0.1c-0.1,0-0.2,0-0.3,0c-0.1,0-0.2,0-0.2,0
		C81.9,4.9,81.8,4.9,81.7,4.9z M81.7,7.2v1.2c0.1,0,0.2,0,0.3,0c0.1,0,0.3,0,0.4,0c0.2,0,0.4,0,0.5-0.1c0.1,0,0.2-0.1,0.3-0.2
		c0.1-0.1,0.1-0.2,0.1-0.3c0-0.1,0-0.3-0.1-0.4c-0.1-0.1-0.2-0.2-0.4-0.2c-0.1,0-0.1,0-0.2,0c-0.1,0-0.2,0-0.3,0
		C82.4,7.2,81.7,7.2,81.7,7.2z"/>
	<path class="st2" d="M86.9,7.2l-2-3.5c0,0,0-0.1,0-0.1c0,0,0,0,0.1,0h1.7c0,0,0.1,0,0.1,0c0,0,0,0,0,0.1c0.2,0.4,0.4,0.8,0.5,1.1
		c0.1,0.3,0.2,0.5,0.3,0.7c0.1,0.2,0.1,0.3,0.2,0.4c0,0.1,0.1,0.2,0.1,0.3C87.9,6.1,88,6,88,5.8c0.1-0.1,0.1-0.3,0.2-0.5
		c0.1-0.2,0.2-0.4,0.3-0.7c0.1-0.3,0.3-0.6,0.4-1c0,0,0.1-0.1,0.1-0.1h1.6c0.1,0,0.1,0,0.1,0.1l-2,3.6c0,0.1-0.1,0.1-0.1,0.2
		c0,0.1,0,0.1,0,0.2v2c0,0.1,0,0.1-0.1,0.1h-1.4c-0.1,0-0.1,0-0.1-0.1V7.5c0-0.1,0-0.1,0-0.2C86.9,7.3,86.9,7.3,86.9,7.2z"/>
	<path class="st1" d="M38.7,17.4h-2.3c0,0-0.1,0-0.1,0.1c0,0,0,0,0,0c0,0.2,0,0.4-0.1,0.6c0,0.1-0.1,0.2-0.1,0.3l-2.8,8.2
		c0,0.1,0,0.2,0.1,0.2h1.7c0.1,0,0.2-0.1,0.2-0.1l0.7-2.1h3.3l0.7,2.1c0,0.1,0.1,0.1,0.1,0.1h1.8c0.1,0,0.1,0,0.1-0.1l-3.2-9.1
		C38.8,17.4,38.7,17.4,38.7,17.4z M36.4,22.7c0.1-0.4,0.3-0.8,0.4-1.2c0.1-0.4,0.3-0.9,0.4-1.3c0.1-0.4,0.2-0.8,0.3-1.1h0
		c0.1,0.2,0.1,0.4,0.2,0.7c0.1,0.3,0.1,0.5,0.2,0.8c0.1,0.3,0.2,0.5,0.3,0.8c0.1,0.3,0.2,0.5,0.2,0.8c0.1,0.2,0.1,0.4,0.2,0.6
		L36.4,22.7z"/>
	<path class="st1" d="M48.8,25.1v-8.4c0,0,0-0.1-0.1-0.1c0,0,0,0,0,0h-1.8c-0.1,0-0.1,0-0.1,0.1v2.8c-0.1,0-0.2,0-0.3,0
		c-0.1,0-0.1,0-0.2,0c-0.8,0-1.5,0.2-2.2,0.5c-0.6,0.3-1.1,0.8-1.4,1.4c-0.3,0.6-0.5,1.2-0.5,1.9c0,0.7,0.1,1.4,0.5,2
		c0.3,0.5,0.8,0.9,1.3,1.2c0.6,0.3,1.2,0.4,1.9,0.4c0.5,0,0.9,0,1.4-0.1c0.5-0.1,1-0.2,1.4-0.4c0.1,0,0.1-0.1,0.1-0.1
		c0-0.2,0-0.3,0-0.5C48.8,25.5,48.8,25.3,48.8,25.1z M46.9,25.1c-0.1,0-0.2,0-0.3,0.1c-0.1,0-0.2,0-0.4,0c-0.2,0-0.5,0-0.7-0.1
		c-0.2-0.1-0.4-0.2-0.6-0.4c-0.2-0.2-0.3-0.4-0.4-0.6c-0.1-0.3-0.2-0.6-0.1-0.9c-0.1-0.7,0.4-1.5,1-1.8c0.3-0.2,0.6-0.2,1-0.2
		c0.1,0,0.2,0,0.3,0c0.1,0,0.2,0,0.2,0L46.9,25.1z"/>
	<path class="st1" d="M56.1,20.6c-0.3-0.3-0.7-0.6-1.1-0.8c-0.5-0.2-1-0.3-1.5-0.3c-1.3,0-2.5,0.7-3.1,1.8c-0.3,0.6-0.4,1.2-0.4,1.8
		c0,0.5,0.1,0.9,0.2,1.3c0.1,0.4,0.3,0.8,0.6,1.2c0.3,0.4,0.7,0.7,1.1,0.8c0.5,0.2,1,0.3,1.6,0.3c0.6,0,1.3-0.1,1.8-0.5
		c0.5-0.3,0.9-0.8,1.2-1.3c0.3-0.6,0.5-1.3,0.4-1.9c0-0.5-0.1-0.9-0.2-1.4C56.6,21.4,56.4,21,56.1,20.6z M54.8,24.3
		c-0.1,0.3-0.3,0.5-0.5,0.7c-0.2,0.2-0.5,0.2-0.8,0.2c-0.3,0-0.6-0.1-0.8-0.3c-0.2-0.2-0.4-0.4-0.5-0.7c-0.3-0.7-0.3-1.5,0-2.1
		c0.1-0.3,0.3-0.5,0.5-0.7c0.2-0.2,0.5-0.2,0.7-0.2c0.3,0,0.6,0.1,0.9,0.3c0.2,0.2,0.4,0.4,0.5,0.7c0.1,0.3,0.2,0.7,0.2,1
		C55,23.6,54.9,23.9,54.8,24.3z"/>
	<path class="st1" d="M63.1,20c-0.6-0.3-1.2-0.5-1.8-0.5c-0.2,0-0.4,0-0.6,0c-0.2,0-0.4,0.1-0.6,0.1l0-2.9c0-0.1,0-0.1-0.1-0.1
		c0,0,0,0,0,0h-1.7c-0.1,0-0.1,0-0.1,0.1v9.6c0,0.1,0,0.1,0.1,0.1c0.4,0.1,0.7,0.2,1.1,0.3c0.4,0.1,0.8,0.1,1.1,0.1
		c0.5,0,1.1-0.1,1.6-0.2c0.5-0.2,1-0.4,1.4-0.7c0.4-0.3,0.7-0.8,1-1.2c0.2-0.5,0.4-1.1,0.4-1.7c0-0.6-0.1-1.2-0.4-1.7
		C64,20.7,63.6,20.3,63.1,20z M62.4,24.3c-0.2,0.3-0.4,0.5-0.8,0.7c-0.3,0.1-0.7,0.2-1,0.2c-0.1,0-0.2,0-0.3,0c-0.1,0-0.2,0-0.3,0
		v-3.9c0.1,0,0.2-0.1,0.3-0.1c0.2,0,0.3,0,0.5,0c0.3,0,0.6,0.1,0.9,0.2c0.3,0.1,0.5,0.4,0.6,0.6c0.2,0.3,0.2,0.7,0.2,1.1
		C62.7,23.5,62.6,23.9,62.4,24.3z"/>
	<path class="st1" d="M71.2,20.5c-0.2-0.3-0.6-0.6-0.9-0.7c-0.4-0.2-0.9-0.3-1.4-0.3c-0.5,0-1,0.1-1.5,0.3c-0.4,0.2-0.8,0.5-1.1,0.8
		c-0.3,0.4-0.5,0.8-0.7,1.2c-0.1,0.5-0.2,0.9-0.2,1.4c0,0.4,0.1,0.9,0.2,1.3c0.1,0.4,0.3,0.8,0.6,1.2c0.3,0.4,0.7,0.6,1.1,0.8
		c0.5,0.2,1.1,0.3,1.7,0.3c0.4,0,0.8,0,1.2-0.1c0.3-0.1,0.6-0.2,0.9-0.3c0,0,0,0,0.1-0.1c0,0,0-0.1,0-0.1v-1.3c0-0.1,0-0.1-0.1-0.1
		c-0.3,0.1-0.5,0.2-0.8,0.2c-0.3,0.1-0.6,0.1-0.9,0.1c-0.4,0-0.8-0.1-1.1-0.2c-0.3-0.1-0.5-0.3-0.6-0.5c-0.1-0.2-0.2-0.5-0.3-0.7
		h2.8c0.2,0,0.4,0,0.6,0c0.2,0,0.4,0,0.5,0c0.1,0,0.2,0,0.3,0c0.1,0,0.1,0,0.1-0.1c0-0.1,0-0.2,0-0.4c0-0.2,0-0.4,0-0.6
		c0-0.4-0.1-0.7-0.2-1.1C71.6,21.2,71.4,20.8,71.2,20.5z M70,22.3c-0.1,0-0.1,0-0.2,0c-0.1,0-0.3,0-0.5,0h-1.9
		c0-0.2,0.1-0.4,0.2-0.6c0.2-0.4,0.7-0.7,1.2-0.7c0.2,0,0.4,0,0.6,0.1c0.3,0.1,0.5,0.4,0.6,0.7C70,22,70,22.1,70,22.3
		C70,22.2,70,22.3,70,22.3z"/>
	<path class="st1" d="M81,22.1c-0.4-0.3-0.9-0.6-1.5-0.8L79,21c-0.3-0.1-0.6-0.3-0.8-0.4c-0.2-0.1-0.3-0.2-0.4-0.4
		c-0.1-0.1-0.1-0.3-0.1-0.4c0-0.1,0-0.2,0.1-0.3c0.1-0.1,0.2-0.2,0.3-0.3c0.1-0.1,0.3-0.1,0.5-0.2c0.2-0.1,0.5-0.1,0.7-0.1
		c0.4,0,0.8,0,1.2,0.1c0.3,0.1,0.7,0.2,1,0.4c0,0,0.1,0,0.1,0c0,0,0,0,0-0.1v-1.6c0-0.1,0-0.1-0.1-0.2c-0.3-0.1-0.6-0.2-0.9-0.3
		c-0.4-0.1-0.8-0.1-1.3-0.1c-0.6,0-1.3,0.1-1.9,0.4c-0.9,0.4-1.5,1.4-1.5,2.4c0,0.4,0.1,0.7,0.2,1c0.1,0.4,0.4,0.7,0.7,0.9
		c0.4,0.3,0.9,0.6,1.4,0.8l0.7,0.3c0.3,0.1,0.5,0.2,0.8,0.4c0.2,0.1,0.3,0.2,0.4,0.4c0.1,0.1,0.1,0.3,0.1,0.4c0,0.3-0.1,0.5-0.3,0.6
		c-0.4,0.2-0.8,0.3-1.2,0.2c-0.9,0-1.8-0.3-2.6-0.7c0,0-0.1,0-0.1,0c0,0,0,0,0,0.1v1.7c0,0.1,0,0.2,0.1,0.2c0.3,0.2,0.7,0.3,1.1,0.3
		c0.5,0.1,1,0.1,1.4,0.1c0.6,0,1.3-0.1,1.9-0.3c0.5-0.2,0.9-0.5,1.2-1c0.3-0.4,0.5-0.9,0.4-1.5c0-0.4-0.1-0.7-0.2-1.1
		C81.5,22.6,81.3,22.3,81,22.1z"/>
	<path class="st1" d="M85,19.7h-1.7c-0.1,0-0.1,0-0.1,0.1v6.8c0,0.1,0,0.1,0.1,0.1H85c0.1,0,0.1,0,0.1-0.1v-6.8
		C85.1,19.7,85.1,19.7,85,19.7z"/>
	<path class="st1" d="M84.1,16.7c-0.3,0-0.6,0.1-0.8,0.3c-0.2,0.2-0.3,0.5-0.3,0.8c0,0.3,0.1,0.6,0.3,0.8c0.2,0.2,0.5,0.3,0.8,0.3
		c0.3,0,0.6-0.1,0.8-0.3c0.2-0.2,0.3-0.5,0.3-0.8c0-0.3-0.1-0.6-0.3-0.8C84.7,16.8,84.4,16.7,84.1,16.7z"/>
	<path class="st1" d="M91.9,25.4c-0.5-0.2-1.1-0.3-1.6-0.3L88.8,25c0,0-0.1-0.1-0.1-0.1c-0.1-0.1-0.1-0.2-0.1-0.3c0-0.1,0-0.2,0-0.3
		c0,0,0-0.1,0-0.1c0.2,0,0.3,0,0.5,0c0.5,0,1-0.1,1.4-0.2c0.4-0.1,0.7-0.4,1-0.8c0.3-0.4,0.4-0.8,0.4-1.3c0-0.2,0-0.4-0.1-0.5
		c0-0.1-0.1-0.3-0.1-0.4c0.2,0,0.3,0,0.5,0c0.2,0,0.4,0,0.4,0c0,0,0.1,0,0.1,0c0,0,0-0.1,0-0.1v-1.3c0-0.1,0-0.1-0.1-0.1h-1.9
		c0,0-0.1,0-0.2,0s-0.1,0-0.2,0c-0.2,0-0.4-0.1-0.6-0.1c-0.2,0-0.5,0-0.7,0c-0.5,0-1.1,0.1-1.6,0.3c-0.4,0.2-0.7,0.5-1,0.9
		c-0.2,0.4-0.3,0.8-0.3,1.2c0,0.4,0.1,0.8,0.3,1.1c0.2,0.3,0.4,0.5,0.7,0.7c0,0,0,0,0,0c-0.1,0.1-0.1,0.2-0.2,0.3
		c-0.1,0.2-0.1,0.4-0.1,0.6c0,0.4,0.1,0.7,0.3,1.1c0,0,0,0-0.1,0c-0.3,0.2-0.5,0.5-0.7,0.7c-0.2,0.2-0.3,0.4-0.4,0.6
		c-0.1,0.2-0.1,0.3-0.1,0.5c0,0.4,0.1,0.7,0.4,1c0.3,0.4,0.7,0.7,1.1,0.8c0.6,0.2,1.3,0.4,1.9,0.3c0.7,0,1.3-0.1,2-0.4
		c0.5-0.2,1-0.5,1.3-1c0.3-0.4,0.5-0.8,0.5-1.3c0-0.4-0.1-0.7-0.3-1C92.6,25.8,92.2,25.5,91.9,25.4z M88.4,21.2
		c0.2-0.2,0.5-0.3,0.7-0.3c0.2,0,0.4,0,0.6,0.1c0.1,0.1,0.3,0.2,0.3,0.4c0.1,0.2,0.1,0.3,0.1,0.5c0,0.3-0.1,0.5-0.3,0.7
		c-0.2,0.2-0.5,0.3-0.7,0.3c-0.3,0-0.6-0.1-0.7-0.3c-0.2-0.2-0.3-0.4-0.2-0.7C88.1,21.7,88.2,21.4,88.4,21.2z M91,27.9
		c-0.2,0.2-0.4,0.3-0.6,0.3c-0.3,0.1-0.7,0.1-1,0.1c-0.3,0-0.6,0-0.9-0.1c-0.2-0.1-0.4-0.2-0.6-0.3c-0.1-0.1-0.2-0.3-0.2-0.4
		c0-0.1,0.1-0.3,0.1-0.4c0.1-0.2,0.2-0.3,0.4-0.4l1.6,0.1c0.2,0,0.5,0,0.7,0.1c0.2,0,0.4,0.1,0.5,0.2c0.1,0.1,0.2,0.3,0.2,0.4
		C91.2,27.6,91.2,27.7,91,27.9C91,27.9,91,27.9,91,27.9z"/>
	<path class="st1" d="M99.8,21c-0.2-0.6-0.7-1.1-1.3-1.3c-0.3-0.1-0.5-0.1-0.8-0.1c-0.4,0-0.7,0.1-1.1,0.2c-0.3,0.1-0.7,0.3-0.9,0.5
		c0-0.1,0-0.2-0.1-0.3c0-0.1,0-0.1-0.1-0.2c0,0,0-0.1-0.1-0.1c0,0-0.1,0-0.1,0h-1.5c0,0-0.1,0-0.1,0c0,0,0,0.1,0,0.1
		c0,0.1,0,0.2,0,0.4s0,0.4,0,0.6c0,0.2,0,0.4,0,0.5v5.3c0,0.1,0,0.1,0.1,0.1c0,0,0,0,0,0h1.7c0.1,0,0.1,0,0.1-0.1v-4.9
		c0.2-0.1,0.3-0.3,0.5-0.3c0.2-0.1,0.4-0.1,0.7-0.1c0.2,0,0.4,0,0.6,0.2c0.2,0.1,0.3,0.3,0.4,0.4C98,22,98,22.3,98,22.5v4
		c0,0.1,0,0.1,0.1,0.1c0,0,0,0,0,0h1.7c0.1,0,0.1,0,0.1-0.1v-4.2C100,21.9,99.9,21.4,99.8,21z"/>
</g>
</svg>
