<?xml version="1.0" encoding="utf-8"?>
<!-- Generator: Adobe Illustrator 22.0.1, SVG Export Plug-In . SVG Version: 6.00 Build 0)  -->
<svg version="1.1" id="Layer_1" xmlns="http://www.w3.org/2000/svg" xmlns:xlink="http://www.w3.org/1999/xlink" x="0px" y="0px"
	 viewBox="0 0 18 18" style="enable-background:new 0 0 18 18;" xml:space="preserve">
<style type="text/css">
	.st0{fill:#707070;}
</style>
<g>
	<g id="s_thumbnail_view_18">
		<g id="Group_59879" transform="translate(6068 1090.032)">
			<path id="Rectangle_87" class="st0" d="M-6066.5-1089h6c0.3,0,0.5,0.2,0.5,0.5v6c0,0.3-0.2,0.5-0.5,0.5h-6
				c-0.3,0-0.5-0.2-0.5-0.5v-6C-6067-1088.8-6066.8-1089-6066.5-1089z"/>
			<path id="Rectangle_88" class="st0" d="M-6057.5-1089h6c0.3,0,0.5,0.2,0.5,0.5v6c0,0.3-0.2,0.5-0.5,0.5h-6
				c-0.3,0-0.5-0.2-0.5-0.5v-6C-6058-1088.8-6057.8-1089-6057.5-1089z"/>
			<path id="Rectangle_89" class="st0" d="M-6066.5-1080h6c0.3,0,0.5,0.2,0.5,0.5v6c0,0.3-0.2,0.5-0.5,0.5h-6
				c-0.3,0-0.5-0.2-0.5-0.5v-6C-6067-1079.8-6066.8-1080-6066.5-1080z"/>
			<path id="Rectangle_90" class="st0" d="M-6057.5-1080h6c0.3,0,0.5,0.2,0.5,0.5v6c0,0.3-0.2,0.5-0.5,0.5h-6
				c-0.3,0-0.5-0.2-0.5-0.5v-6C-6058-1079.8-6057.8-1080-6057.5-1080z"/>
		</g>
	</g>
</g>
</svg>
