<svg xmlns="http://www.w3.org/2000/svg" width="18" height="18" viewBox="0 0 18 18">
  <g fill="none" fill-rule="evenodd">
    <path fill="#999" d="M0.412,13.004 L8.135,13.004 C8.12,12.839 8.11,12.672 8.11,12.504 C8.10833694,10.9684248 8.76340858,9.5054314 9.91,8.484 C9.49388259,8.29596293 9.0618418,8.14536777 8.619,8.034 C8.49693946,7.98441486 8.39852385,7.88993587 8.344,7.77 C8.23224914,7.43289229 8.18641574,7.07742885 8.209,6.723 C8.22592788,6.62413313 8.27309324,6.53294676 8.344,6.462 C9.09104258,5.63397839 9.50592349,4.55920534 9.509,3.444 C9.57882328,2.13645536 8.89311411,0.90458896 7.745,0.275 C6.95707323,-0.089320032 6.04826396,-0.086024592 5.263,0.284 C4.10765319,0.90515675 3.41552283,2.13820881 3.487,3.448 C3.47971444,4.56211251 3.8941078,5.63774907 4.647,6.459 C4.73104182,6.51984336 4.7820356,6.61628812 4.785,6.72 C4.79131734,7.10079853 4.72338523,7.47918039 4.585,7.834 C4.52543728,7.93628219 4.42565806,8.0088489 4.31,8.034 C1.778,8.68 0,10.387 0,12.411 L0,12.611 C0.0210287837,12.8259678 0.196279498,12.9931365 0.412,13.004 Z"/>
    <path fill="#999" fill-rule="nonzero" d="M13.5,17 C11.0147186,17 9,14.9852814 9,12.5 C9,10.0147186 11.0147186,8 13.5,8 C15.9852814,8 18,10.0147186 18,12.5 C17.9972444,14.9841391 15.9841391,16.9972444 13.5,17 Z M11.25,12 C11.1119288,12 11,12.1119288 11,12.25 L11,12.75 C11,12.8880712 11.1119288,13 11.25,13 L13,13 L13,14.75 C13,14.8880712 13.1119288,15 13.25,15 L13.75,15 C13.8880712,15 14,14.8880712 14,14.75 L14,13 L15.75,13 C15.8880712,13 16,12.8880712 16,12.75 L16,12.25 C16,12.1119288 15.8880712,12 15.75,12 L14,12 L14,10.25 C14,10.1119288 13.8880712,10 13.75,10 L13.25,10 C13.1119288,10 13,10.1119288 13,10.25 L13,12 L11.25,12 Z"/>
  </g>
</svg>
