<svg xmlns="http://www.w3.org/2000/svg" width="24" height="30" viewBox="0 0 24 30">
  <g fill="none" fill-rule="evenodd">
    <path fill="#C8C8C8" fill-rule="nonzero" d="M15.3793561,1.00000891 C16.0400164,0.998235924 16.6738787,1.26115499 17.1392824,1.73008148 C16.8302602,1.89240617 16.5416407,2.08382739 16.2718751,2.29797506 C16.0163681,2.10544364 15.7033087,2.00036591 15.3793561,2.00008071 L15.3793561,2.00008071 L2.99987439,2.00008071 C1.89535114,2.00008071 0.999958131,2.89550865 0.999958131,4.00008071 L0.999958131,4.00008071 L0.999958131,27.0000086 C0.999958131,28.1045749 1.89535114,29.0000118 2.99987439,29.0000118 L2.99987439,29.0000118 L19.9991626,29.0000118 C21.1036859,29.0000118 21.9990789,28.1045749 21.9990789,27.0000086 L21.9990789,27.0000086 L21.9994489,12.658428 C22.3489674,12.5348602 22.6836192,12.3798231 23,12.1967211 L22.999037,27.0000089 C22.999037,28.6568581 21.6559475,30.0000089 19.9991626,30.0000089 L19.9991626,30.0000089 L2.99987439,30.0000089 C1.34308951,30.0000089 0,28.6568581 0,27.0000089 L0,27.0000089 L0,4.00007501 C0,2.34322548 1.34308951,1.00000891 2.99987439,1.00000891 L2.99987439,1.00000891 Z"/>
    <path fill="#C8C8C8" fill-rule="nonzero" d="M17,6.79378556 L17,8.38457101 C17,9.27709554 17.6317647,10 18.4117647,10 L21.5882353,10 C22.3682353,10 23,9.27709554 23,8.38457101 L23,6.79378556 C23,6.13145964 22.8112412,5.38588982 22.1529412,5.31162943 C22.2125882,5.07739223 22.2482353,4.83103931 22.2482353,4.57257067 C22.2482353,3.15099316 21.242,2 20,2 C18.757647,2 17.7517647,3.15099316 17.7517647,4.57257067 C17.7517647,4.83103931 17.7870588,5.07739223 17.8470588,5.31162943 C17.2631759,5.38588982 17,6.13145964 17,6.79378556 Z M18.4435294,4.44043409 C18.4435294,3.50946787 19.142353,2.75090279 20,2.75090279 C20.857647,2.75090279 21.5564705,3.50946787 21.5564705,4.44043409 C21.5564705,4.64348433 21.511647,4.90055361 21.4551765,5.08061703 L18.5501177,5.08061703 C18.4932941,4.90055361 18.4435294,4.64348433 18.4435294,4.44043409 Z"/>
    <path fill="#C8C8C8" fill-rule="nonzero" d="M2.48695652,3.60667341 L1.69217391,4.44417445 L0.909565217,3.60667341 C0.83960584,3.53172785 0.74326365,3.48940772 0.642608696,3.48940772 C0.541953741,3.48940772 0.445611551,3.53172785 0.375652174,3.60667341 C0.233183142,3.76423703 0.233183142,4.00924489 0.375652174,4.16680851 L1.17130435,5.00430955 L0.372173913,5.84811436 C0.229398848,6.00381451 0.229398848,6.24804663 0.372173913,6.40374677 C0.44213329,6.47869233 0.53847548,6.52101245 0.639130435,6.52101245 C0.739785389,6.52101245 0.836127579,6.47869233 0.906086957,6.40374677 L1.68869565,5.56624573 L2.48347826,6.40374677 C2.55225075,6.47857471 2.64763994,6.5209294 2.7473913,6.5209294 C2.84714267,6.5209294 2.94253186,6.47857471 3.01130435,6.40374677 C3.15496491,6.24841382 3.15496491,6.00344732 3.01130435,5.84811436 L2.21652174,5.00521009 L3.01130435,4.16770905 C3.15463749,4.01050008 3.15463749,3.76478292 3.01130435,3.60757394 C2.94275923,3.53377148 2.84819365,3.49198987 2.74931507,3.49182006 C2.6504365,3.49165024 2.55573762,3.5331068 2.48695652,3.60667341 L2.48695652,3.60667341 Z M8.41043478,7.22503812 C8.04665048,7.1783449 7.72490517,6.95809591 7.54086957,6.629782 C7.25873883,6.89270324 6.90024917,7.05109015 6.52173913,7.08005138 C6.1676705,7.03220065 5.855754,6.81518263 5.67913043,6.49380065 C5.53295368,6.2304648 5.40985287,5.95409531 5.31130435,5.66800661 C5.01478261,6.06424366 3.91304348,7.21423165 3.91304348,7.21423165 L3.41391304,6.49380065 C4.03433359,5.89092693 4.58683892,5.21723458 5.06086957,4.48559923 C4.75179106,3.31317785 4.78355136,2.07238189 5.15217391,0.918565226 C5.38990616,0.229735507 6.10415688,-0.148592305 6.7826087,0.0549485614 C7.17939653,0.173121763 7.4824144,0.505920469 7.57304348,0.92306792 C7.76869565,1.91366055 6.9773913,3.27437461 5.94434783,4.87463197 C6.00403689,5.2596692 6.12978763,5.63053474 6.31565217,5.96968709 C6.42257484,6.09076598 6.58069147,6.14876275 6.73736527,6.12437038 C6.89403907,6.09997801 7.02870079,5.99639889 7.09652174,5.84811436 C7.04347826,4.6476962 7.09652174,4.38023619 7.1626087,4.24875754 C7.24048823,3.90234459 7.5485181,3.66480628 7.89130435,3.68682135 C8.17298592,3.72493759 8.39844127,3.94749598 8.44869565,4.23705053 C8.49263121,4.81493561 8.3504395,5.39161116 8.04434783,5.8769316 C8.21826087,6.618075 8.91391304,6.26056111 9.17478261,5.69682385 L9.49391304,4.77377163 L9.99913043,5.444673 L9.87043478,5.84811436 C9.46782609,7.00260504 8.75826087,7.22503812 8.41043478,7.22503812 Z M5.80173913,1.38684538 C5.62173913,1.82630829 5.44956522,4.29828717 6.00608696,3.50131037 C6.35108223,2.94053982 6.61476009,2.33038018 6.78869565,1.69032694 C6.91217391,1.25176456 6.74347826,0.932973846 6.53391304,0.87984206 C6.20869565,0.805097343 5.98173913,0.942879772 5.80086957,1.38684538 L5.80173913,1.38684538 Z M0,8.54973062 C0,8.30105371 0.194658804,8.09946125 0.434782609,8.09946125 L9.56521739,8.09946125 C9.8053412,8.09946125 10,8.30105371 10,8.54973062 C10,8.79840753 9.8053412,9 9.56521739,9 L0.434782609,9 C0.194658804,9 0,8.79840753 0,8.54973062 Z" transform="translate(6 10)"/>
  </g>
</svg>
