<svg xmlns="http://www.w3.org/2000/svg" width="18" height="18" viewBox="0 0 18 18">
  <g fill="#999" fill-rule="evenodd" transform="translate(1 1)">
    <path d="M14.848,1.152 C13.4468215,-0.249068989 11.1751785,-0.249068989 9.774,1.152 C9.581,1.344 7.642,3.263 7.098,3.806 C7.73678109,3.76039883 8.37745766,3.86307136 8.97,4.106 C9.23,3.846 10.754,2.342 10.862,2.235 C11.662813,1.43418752 12.9611868,1.43418772 13.7619996,2.23500043 C14.5628123,3.03581315 14.5628125,4.33418704 13.762,5.135 L10.2,8.7 C9.7497375,9.1360172 9.1413902,9.3699691 8.515,9.348 C8.01006882,9.3420771 7.52645915,9.1435539 7.163,8.793 C6.89264162,8.57749768 6.67967294,8.29857741 6.543,7.981 C6.46480371,8.02367457 6.39280456,8.07683283 6.329,8.139 L5.512,8.995 C5.67423955,9.3022145 5.88078325,9.5838956 6.125,9.831 C7.68664981,11.1685387 10.0161634,11.0729666 11.463,9.612 L14.845,6.23 C16.2449656,4.8283647 16.2449656,2.5576353 14.845,1.156 L14.848,1.152 Z"/>
    <path d="M6.963,11.912 C6.703,12.172 5.214,13.685 5.108,13.793 C4.30280195,14.5673766 3.02595477,14.5549206 2.2360171,13.7649829 C1.44607943,12.9750452 1.43362339,11.698198 2.208,10.893 L5.801,7.299 C6.25121107,6.86311457 6.85978294,6.62979859 7.486,6.653 C8.34108938,6.68833005 9.0891963,7.23902538 9.377,8.045 C9.4553884,8.00222223 9.5274175,7.94870521 9.591,7.886 L10.458,7.026 C10.2955154,6.718939 10.0889967,6.43729197 9.845,6.19 C8.41592644,4.79476575 6.13150549,4.80500779 4.715,6.213 L1.122,9.806 C-0.239768193,11.2134397 -0.221413048,13.4528368 1.1632427,14.8377655 C2.54789845,16.2226942 4.78729195,16.2414908 6.195,14.88 C6.387,14.688 8.295,12.759 8.836,12.216 C8.19754167,12.2616636 7.55717567,12.158986 6.965,11.916 L6.963,11.912 Z"/>
  </g>
</svg>
