<svg xmlns="http://www.w3.org/2000/svg" width="24" height="36" viewBox="0 0 24 36"><defs><style>.a{fill:none;}.b{fill:#fff;}</style></defs><g transform="translate(-709 -158)"><rect class="a" width="24" height="36" transform="translate(709 158)"/><g transform="translate(714.106 169)"><path class="b" d="M2.555,1.067A1.067,1.067,0,1,1,1.488,0h0A1.067,1.067,0,0,1,2.555,1.067ZM3.473,7a.5.5,0,0,1-.5.5H.5A.5.5,0,0,1,0,7v-.5a.5.5,0,0,1,.5-.5h.5V4.267H.5a.5.5,0,0,1-.5-.5v-.5a.5.5,0,0,1,.5-.5H1.985a.5.5,0,0,1,.5.5V6.011h.5a.5.5,0,0,1,.5.5Z" transform="translate(5.45 3.15)"/><path class="b" d="M7.022.07a6.952,6.952,0,1,0,6.952,6.952A6.952,6.952,0,0,0,7.022.07Zm0,1.5A5.452,5.452,0,1,1,1.57,7.022,5.452,5.452,0,0,1,7.022,1.57Z" transform="translate(-0.07 -0.07)"/></g></g></svg>