<?xml version="1.0" encoding="utf-8"?>
<!-- Generator: Adobe Illustrator 25.3.0, SVG Export Plug-In . SVG Version: 6.00 Build 0)  -->
<svg version="1.1" id="Layer_1" xmlns="http://www.w3.org/2000/svg" xmlns:xlink="http://www.w3.org/1999/xlink" x="0px" y="0px"
	 viewBox="0 0 56 56" style="enable-background:new 0 0 56 56;" xml:space="preserve">
<style type="text/css">
	.st0{fill:#B3B3B3;}
	.st1{fill:#6A68EF;}
	.st2{fill:#B1B1B1;}
</style>
<g>
	<g id="document_acrobat_stack_2_">
		<g id="document_acrobat_stack_lg_3_">
			<g id="document_acrobat_stack_lg_4_">
				<path class="st0" d="M49.7578,15.1191c-0.2764,0-0.5-0.2236-0.5-0.5c0-0.9565-0.3057-1.9126-0.8594-2.6929
					c-0.0713-0.1006-0.1475-0.1958-0.2256-0.2881c-0.0928-0.1133-0.1836-0.2139-0.2803-0.3081l-7.0742-7.021
					c-0.874-0.8682-2.0352-1.3462-3.2695-1.3462H13.9985c-2.3018,0-4.1743,1.8726-4.1743,4.1743c0,0.2764-0.2236,0.5-0.5,0.5
					s-0.5-0.2236-0.5-0.5c0-2.853,2.3213-5.1743,5.1743-5.1743h23.5503c1.5,0,2.9111,0.5811,3.9746,1.6362l7.0693,7.0171
					c0.1211,0.1177,0.2393,0.2476,0.3486,0.3823c0.0908,0.106,0.1865,0.2266,0.2734,0.3511c0.6719,0.9453,1.043,2.1069,1.043,3.2695
					C50.2578,14.8955,50.0342,15.1191,49.7578,15.1191z"/>
				<path class="st0" d="M45.083,52.6709H13.9985c-0.1802,0-0.3555-0.0088-0.5312-0.0303
					c-2.6426-0.2617-4.6431-2.4736-4.6431-5.1445V30.9053c0-0.2764,0.2236-0.5,0.5-0.5s0.5,0.2236,0.5,0.5v16.5908
					c0,2.1543,1.6128,3.9385,3.7515,4.1504c0.1465,0.0176,0.2827,0.0244,0.4229,0.0244H45.083c2.3018,0,4.1748-1.873,4.1748-4.1748
					V14.5942c0-0.2764,0.2236-0.5,0.5-0.5s0.5,0.2236,0.5,0.5v32.9019C50.2578,50.3496,47.9365,52.6709,45.083,52.6709z"/>
			</g>
		</g>
	</g>
</g>
<path class="st1" d="M25.9896,44.4714c-0.0237-0.2747-0.2656-0.4782-0.5403-0.4545c-0.9871,0.0849-2.1632-0.419-3.2367-1.2048
	c0.4907-2.3933-0.1264-5.9489-1.5827-6.7963c-0.5976-0.3444-1.3551-0.2199-1.811,0.2977c-0.8858,0.8051-1.021,2.0561-0.3806,3.5229
	c0.619,1.3031,1.5209,2.4519,2.6398,3.3625c-0.2142,0.6372-0.5907,1.2447-1.2511,1.3015c-0.333,0.0242-0.6677,0.0019-0.9945-0.0662
	l0,0c-0.2706-0.0531-0.533,0.1232-0.5861,0.3938s0.1232,0.533,0.3938,0.5861c0.4183,0.0863,0.8465,0.1137,1.2724,0.0815
	c0.8829-0.0759,1.5725-0.6605,1.9954-1.6715c1.0437,0.7873,2.3196,1.2052,3.6269,1.1879c0.0001,0,0.0002,0,0.0003,0
	c0.2747-0.0237,0.4782-0.2656,0.4545-0.5404C25.9896,44.4716,25.9896,44.4715,25.9896,44.4714z M21.3223,42.0746
	c-0.8234-0.7413-1.4923-1.6377-1.9686-2.638c-0.3224-0.7379-0.5603-1.7508,0.1366-2.3839c0.1116-0.1204,0.2592-0.2013,0.4207-0.2305
	c0.0764-0.0056,0.1525,0.0144,0.2164,0.0568C20.9323,37.3476,21.5938,39.8993,21.3223,42.0746z"/>
<g id="light_bulb_yes_checked_lg_5_">
	<g id="light_bulb_yes_checked_lg_6_">
		<path class="st0" d="M9.4966,27.9585c-1.1606,0-2.3237-0.2354-3.4302-0.7051c-2.1523-0.9141-3.8149-2.5991-4.6812-4.7441
			c-0.5024-1.2432-0.7402-3.4907-0.1392-5.708c0.5049-1.8623,1.7744-4.3516,4.957-5.6362c2.7612-1.1157,5.8677-0.7505,8.3071,0.9756
			c0.2251,0.1597,0.2788,0.4717,0.1191,0.6973c-0.1597,0.2246-0.4712,0.2788-0.6973,0.1191
			c-2.1602-1.5293-4.9097-1.8516-7.355-0.8652c-2.8013,1.1313-3.9204,3.3276-4.3657,4.9712
			c-0.5376,1.9824-0.3242,4.0186,0.1011,5.0718c0.7666,1.8975,2.2383,3.3887,4.1445,4.1982
			c1.9077,0.8096,4.0015,0.833,5.8989,0.0669c3.6387-1.4697,5.5327-5.2979,4.605-9.3091c-0.062-0.269,0.1055-0.5376,0.3745-0.6001
			c0.2715-0.0605,0.5381,0.106,0.6001,0.3745c1.0405,4.5015-1.0996,8.8037-5.2051,10.4619
			C11.688,27.748,10.5933,27.9585,9.4966,27.9585z"/>
	</g>
</g>
<path class="st2" d="M15.8213,41.9117l-1.1861,1.186l1.1861,1.1863c0.1416,0.1416,0.1416,0.3711,0,0.5126
	c-0.1416,0.1416-0.3711,0.1416-0.5126,0l-1.1861-1.186l-1.1861,1.186c-0.1416,0.1416-0.3711,0.1416-0.5126,0
	c-0.1416-0.1416-0.1416-0.3711,0-0.5126l0,0l1.1861-1.1863l-1.1861-1.186c-0.1416-0.1416-0.1416-0.3711,0-0.5126
	c0.1416-0.1416,0.3711-0.1416,0.5126,0l1.1861,1.186l1.1861-1.186c0.1416-0.1416,0.3711-0.1416,0.5126,0
	C15.9629,41.5406,15.9629,41.7701,15.8213,41.9117L15.8213,41.9117z"/>
<path class="st1" d="M46.6406,45.0195H27.5269c-0.2764,0-0.5-0.2236-0.5-0.5s0.2236-0.5,0.5-0.5h19.1138
	c0.2764,0,0.5,0.2236,0.5,0.5S46.917,45.0195,46.6406,45.0195z"/>
<path class="st0" d="M44.4414,16.9985H27.9155c-0.2764,0-0.5-0.2236-0.5-0.5s0.2236-0.5,0.5-0.5h16.5259
	c0.2764,0,0.5,0.2236,0.5,0.5S44.7178,16.9985,44.4414,16.9985z"/>
<path class="st0" d="M37.541,24.5645h-9.6255c-0.2764,0-0.5-0.2236-0.5-0.5s0.2236-0.5,0.5-0.5h9.6255c0.2764,0,0.5,0.2236,0.5,0.5
	S37.8174,24.5645,37.541,24.5645z"/>
<path class="st1" d="M12.6138,17.9941h-0.731v-1.3477c0-1.2393-1.0083-2.2476-2.2476-2.2476c-1.2397,0-2.248,1.0083-2.248,2.2476
	v1.3477H6.4727c-0.2764,0-0.5,0.2236-0.5,0.5v5.0957c0,0.2764,0.2236,0.5,0.5,0.5h6.1411c0.2764,0,0.5-0.2236,0.5-0.5v-5.0957
	C13.1138,18.2178,12.8901,17.9941,12.6138,17.9941z M8.3872,16.6465c0-0.688,0.5601-1.2476,1.248-1.2476
	s1.2476,0.5596,1.2476,1.2476v1.3477H8.3872V16.6465z M12.1138,23.0898H6.9727v-4.0957h5.1411V23.0898z"/>
</svg>
