<?xml version="1.0" encoding="utf-8"?>
<!-- Generator: Adobe Illustrator 25.3.0, SVG Export Plug-In . SVG Version: 6.00 Build 0)  -->
<svg version="1.1" id="Layer_1" xmlns="http://www.w3.org/2000/svg" xmlns:xlink="http://www.w3.org/1999/xlink" x="0px" y="0px"
	 viewBox="0 0 56 56" style="enable-background:new 0 0 56 56;" xml:space="preserve">
<style type="text/css">
	.st0{fill:none;}
	.st1{fill:#B3B3B3;}
	.st2{fill:#6A68EF;}
	.st3{fill:#B1B1B1;}
</style>
<g>
	<path class="st0" d="M47.5258,21.2347c-0.5111-0.0867-0.8549-0.0896-1.6788-0.0892l-1.9132,2.6743
		C45.181,23.0208,46.3958,22.1726,47.5258,21.2347z"/>
	<path class="st0" d="M28.6772,41.7705l3.0386-2.5898l3.9146-5.4714c-0.6457-0.0883-1.1367-0.3594-1.4507-0.8323
		c-0.0613-0.0925-0.092-0.1882-0.1338-0.2828l-3.9072,5.4615L28.6772,41.7705z"/>
	<path class="st0" d="M18.8218,21.5127c0-4.6128-3.7534-8.3657-8.3662-8.3657s-8.3652,3.7529-8.3652,8.3657
		c0,4.6133,3.7524,8.3662,8.3652,8.3662S18.8218,26.126,18.8218,21.5127z M17.5366,20.9097c0.2554,0,0.4624,0.2075,0.4624,0.4629
		s-0.207,0.4629-0.4624,0.4629h-1.4009c-0.2554,0-0.4629-0.2075-0.4629-0.4629s0.2075-0.4629,0.4629-0.4629H17.5366z M15.688,16.561
		c0.1807,0.1807,0.1807,0.4736,0,0.6543l-4.7651,4.7651c-0.0903,0.0903-0.209,0.1357-0.3271,0.1357s-0.2368-0.0454-0.3271-0.1357
		c-0.1807-0.1807-0.1807-0.4736,0-0.6543l4.7651-4.7651C15.2144,16.3804,15.5073,16.3804,15.688,16.561z M10.1328,14.4321
		c0-0.2554,0.2075-0.4624,0.4629-0.4624s0.4629,0.207,0.4629,0.4624v1.4009c0,0.2554-0.2075,0.4629-0.4629,0.4629
		s-0.4629-0.2075-0.4629-0.4629V14.4321z M4.71,21.8354H3.3086c-0.2554,0-0.4624-0.2075-0.4624-0.4629s0.207-0.4629,0.4624-0.4629
		H4.71c0.2554,0,0.4624,0.2075,0.4624,0.4629S4.9653,21.8354,4.71,21.8354z M10.1328,28.6597v-1.4009
		c0-0.2554,0.2075-0.4629,0.4629-0.4629s0.4629,0.2075,0.4629,0.4629v1.4009c0,0.2554-0.2075,0.4624-0.4629,0.4624
		S10.1328,28.915,10.1328,28.6597z"/>
	<path class="st0" d="M20.08,39.3203c-0.0639-0.0424-0.14-0.0624-0.2164-0.0568c-0.1615,0.0292-0.3091,0.1101-0.4207,0.2305
		c-0.697,0.6331-0.459,1.646-0.1367,2.3839c0.4763,1.0003,1.1452,1.8967,1.9686,2.638C21.5464,42.3407,20.8849,39.789,20.08,39.3203
		z"/>
	<path class="st0" d="M11.3652,12.2673v-1.3859H9.8271v1.3716c0.2086-0.014,0.4163-0.0318,0.6284-0.0318
		C10.7626,12.2212,11.0657,12.238,11.3652,12.2673z"/>
	<path class="st0" d="M52.9805,7.7896c-0.4346-0.3096-1.041-0.2075-1.3506,0.2256L37.4045,27.8995
		c1.2559-0.8468,2.5518-1.6382,3.8231-2.4068c0.1649-0.0997,0.3306-0.2009,0.496-0.3011L53.207,9.1396
		C53.5166,8.7056,53.415,8.0996,52.9805,7.7896z"/>
	<path class="st0" d="M45.7491,11.704c-0.0206,0.0043-0.0381,0.0154-0.0596,0.0172c-0.098,0.0082-0.1945,0.0214-0.2917,0.0323
		c-0.1975,0.0272-0.3932,0.0477-0.5947,0.0839c-0.0487,0.0083-0.0983,0.015-0.1467,0.0239c-0.3323,0.063-0.6826,0.149-1.0358,0.2371
		c-1.9678,0.5381-3.4356,1.4177-3.4554,1.4294c-0.8477,0.4868-1.5635,1.0391-2.1367,1.6479
		c-1.1982,1.272-2.3604,3.2539-2.9912,4.5649c-2.126,4.416-3.6934,7.9897-5.082,11.5864c-0.3945,1.0205-0.2598,1.8057,0.3682,2.1562
		c0.623,0.3447,1.667,0.1729,2.3398-0.7148c0.1084-0.1172,0.1797-0.2227,0.251-0.3242c0.0641-0.0916,0.1252-0.1702,0.1855-0.2451
		L47.8144,11.63C47.1051,11.6073,46.4228,11.6285,45.7491,11.704z"/>
	<path class="st1" d="M53.7139,12.0513l0.96,0.1343c0.0234,0.0029,0.0459,0.0044,0.0684,0.0044
		c0.2461,0,0.4609-0.1821,0.4941-0.4331c0.0371-0.2734-0.1543-0.5254-0.4277-0.5625l-0.9531-0.1328
		c-0.2388-0.0342-0.4666-0.0667-0.7218-0.1012l-0.6598,0.9222C52.9759,11.9465,53.3301,11.9965,53.7139,12.0513z"/>
	<path class="st1" d="M32.9141,32.4443c-0.0713,0.1016-0.1426,0.207-0.251,0.3242c-0.6729,0.8877-1.7168,1.0596-2.3398,0.7148
		c-0.6279-0.3506-0.7627-1.1357-0.3682-2.1562c1.3887-3.5967,2.9561-7.1704,5.082-11.5864c0.6309-1.311,1.793-3.293,2.9912-4.5649
		c0.5732-0.6089,1.2891-1.1611,2.1367-1.6479c0.0198-0.0118,1.4876-0.8914,3.4554-1.4294c0.3533-0.0881,0.7036-0.1741,1.0358-0.2371
		c0.0484-0.0089,0.098-0.0156,0.1467-0.0239c0.2015-0.0362,0.3972-0.0566,0.5947-0.0839c0.0972-0.011,0.1937-0.0242,0.2917-0.0323
		c0.0215-0.0018,0.0391-0.0129,0.0596-0.0172c0.6737-0.0755,1.356-0.0967,2.0653-0.074l0.694-0.9702
		c-1.1534-0.0768-2.1909-0.0426-3.2478,0.1033c-0.2046,0.0236-0.4067,0.0518-0.6061,0.0853
		c-0.0576,0.0103-0.1144,0.0167-0.1724,0.0277c-0.3971,0.0724-0.7814,0.162-1.1488,0.2626
		c-0.1013,0.0255-0.1927,0.0402-0.2962,0.0677c-0.0341,0.0091-0.0605,0.0297-0.0908,0.0449
		c-1.8751,0.569-3.2167,1.3713-3.2891,1.415c-0.9229,0.5298-1.7168,1.1431-2.3574,1.8237c-1.2744,1.353-2.4697,3.3755-3.1631,4.8169
		c-2.1387,4.4409-3.7158,8.0371-5.1152,11.6606c-0.6875,1.7812-0.0298,2.918,0.8154,3.3887
		c0.3662,0.2041,0.7734,0.3008,1.1855,0.3008c0.1166,0,0.2329-0.0281,0.3497-0.0433l1.7274-2.4147
		C33.0392,32.2742,32.9781,32.3527,32.9141,32.4443z"/>
	<path class="st2" d="M35.6304,33.7093l-3.9146,5.4714l-3.0386,2.5898l1.4614-3.7148l3.9072-5.4615
		c-0.5336-1.2078,0.4445-2.5589,1.5312-3.393c0.5913-0.454,1.2058-0.8826,1.8273-1.3017L51.6299,8.0151
		c0.3096-0.4331,0.916-0.5352,1.3506-0.2256c0.4346,0.3101,0.5361,0.916,0.2266,1.3501L41.7235,25.1915
		c0.7387-0.4477,1.478-0.9028,2.2103-1.3718l1.9132-2.6743l0.7134-0.9972l5.9135-8.2657l0.6598-0.9222l0.8868-1.2396
		c0.6299-0.8833,0.4238-2.1147-0.459-2.7446c-0.8838-0.6309-2.1143-0.4243-2.7451,0.4575l-2.308,3.2263l-0.694,0.9702
		L33.0995,32.1992l-1.7274,2.4147L29.29,37.5244c-0.0244,0.0332-0.0439,0.0693-0.0586,0.1084l-2.2173,5.6328
		c-0.084,0.2129-0.0117,0.4561,0.1748,0.5898c0.0874,0.0615,0.189,0.0928,0.2905,0.0928c0.1157,0,0.2314-0.04,0.3242-0.1191
		l4.6074-3.9268c0.0312-0.0264,0.0586-0.0566,0.082-0.0898l4.2734-5.9736c0.0337-0.047,0.0528-0.0992,0.0682-0.1517
		c-0.2638,0.0397-0.514,0.0628-0.745,0.0628C35.9252,33.75,35.778,33.7295,35.6304,33.7093z"/>
	<path class="st1" d="M55.2314,27.7412c-0.0898-0.2612-0.3789-0.4023-0.6348-0.3115c-5.6787,1.9385-11.4941,3.6689-17.2832,5.1426
		c-1.2139,0.3086-1.9873,0.2256-2.2998-0.248c-0.4971-0.749,0.5498-1.8516,1.1729-2.3301c1.7412-1.3374,3.6816-2.5107,5.5586-3.646
		c3.2529-1.9673,6.6162-4.002,9.1113-6.9795c0.1777-0.2119,0.1504-0.5273-0.0615-0.7046c-0.2109-0.1768-0.5264-0.1479-0.7041,0.062
		c-0.501,0.5977-1.0489,1.1505-1.62,1.68c-0.8827-0.1966-1.2538-0.2468-1.9105-0.2578l-0.7134,0.9972
		c0.8239-0.0004,1.1677,0.0026,1.6788,0.0892c-1.1299,0.9379-2.3447,1.7861-3.592,2.585c-0.7322,0.469-1.4716,0.9241-2.2103,1.3718
		c-0.1653,0.1002-0.3311,0.2014-0.496,0.3011c-1.2712,0.7686-2.5672,1.56-3.8231,2.4068c-0.6215,0.4191-1.236,0.8477-1.8273,1.3017
		c-1.0867,0.8341-2.0648,2.1852-1.5312,3.393c0.0418,0.0946,0.0725,0.1903,0.1338,0.2828c0.314,0.473,0.805,0.744,1.4507,0.8323
		c0.1476,0.0202,0.2949,0.0407,0.4595,0.0407c0.231,0,0.4812-0.0231,0.745-0.0628c0.2301-0.0347,0.4699-0.0811,0.7247-0.1462
		c5.8154-1.4795,11.6562-3.2178,17.3594-5.165C55.1807,28.2866,55.3203,28.0024,55.2314,27.7412z"/>
	<path class="st1" d="M50.4668,33.377c-0.2764,0-0.5,0.2236-0.5,0.5v13.5889c0,2.3027-1.873,4.1758-4.1758,4.1758H14.6963
		c-0.1392,0-0.2749-0.0059-0.4233-0.0234c-2.1392-0.2129-3.7524-1.998-3.7524-4.1523V33.3994c0-0.2764-0.2236-0.5-0.5-0.5
		s-0.5,0.2236-0.5,0.5v14.0664c0,2.6709,2.0005,4.8838,4.6411,5.1455c0.1768,0.0225,0.3535,0.0303,0.5347,0.0303H45.791
		c2.8535,0,5.1758-2.3223,5.1758-5.1758V33.877C50.9668,33.6006,50.7432,33.377,50.4668,33.377z"/>
	<path class="st1" d="M10.0205,7.5938c0.2764,0,0.5-0.2236,0.5-0.5c0-0.9756,0.3428-1.9248,0.9658-2.6719
		c0.7964-0.9561,1.9663-1.5039,3.21-1.5039h23.5576c1.2344,0,2.3965,0.478,3.2715,1.3467l2.3838,2.3672
		c0.1963,0.1948,0.5127,0.1929,0.707-0.0024c0.1953-0.1963,0.1934-0.5127-0.002-0.7075l-2.3838-2.3672
		C41.166,2.499,39.7539,1.918,38.2539,1.918H14.6963c-1.5415,0-2.9912,0.6792-3.9785,1.8633
		c-0.772,0.9268-1.1973,2.103-1.1973,3.3125C9.5205,7.3701,9.7441,7.5938,10.0205,7.5938z"/>
	<path class="st2" d="M19.7796,46.9418c-0.333,0.0242-0.6677,0.002-0.9945-0.0662c-0.2706-0.0531-0.533,0.1232-0.5861,0.3938
		c-0.0531,0.2706,0.1232,0.533,0.3938,0.5861c0.4183,0.0863,0.8465,0.1137,1.2724,0.0815c0.8829-0.0759,1.5725-0.6605,1.9954-1.6715
		c1.0437,0.7873,2.3196,1.2052,3.6269,1.1879c0.0001,0,0.0002,0,0.0003,0c0.2747-0.0237,0.4782-0.2656,0.4545-0.5403
		c-0.0001-0.0002-0.0001-0.0003-0.0001-0.0003c-0.0237-0.2747-0.2656-0.4782-0.5403-0.4545
		c-0.9871,0.0849-2.1632-0.419-3.2367-1.2048c0.4907-2.3932-0.1264-5.9489-1.5827-6.7963c-0.5976-0.3444-1.3551-0.2199-1.811,0.2977
		c-0.8858,0.8051-1.021,2.0561-0.3806,3.5229c0.619,1.3032,1.5209,2.4519,2.6398,3.3625
		C20.8165,46.2775,20.44,46.885,19.7796,46.9418z M19.3063,41.8779c-0.3224-0.7379-0.5603-1.7508,0.1367-2.3839
		c0.1116-0.1204,0.2592-0.2013,0.4207-0.2305c0.0764-0.0056,0.1525,0.0144,0.2164,0.0568c0.8049,0.4687,1.4664,3.0204,1.1949,5.1956
		C20.4515,43.7746,19.7826,42.8782,19.3063,41.8779z"/>
	<path class="st3" d="M15.7739,43.8405c-0.1415-0.1416-0.371-0.1416-0.5126,0l-1.1861,1.186l-1.1861-1.186
		c-0.1415-0.1416-0.371-0.1416-0.5126,0c-0.1416,0.1415-0.1416,0.371,0,0.5126l1.1861,1.186l-1.1861,1.1863
		c-0.1416,0.1415-0.1416,0.371,0,0.5126c0.1415,0.1416,0.371,0.1416,0.5126,0l1.1861-1.186l1.1861,1.186
		c0.1415,0.1416,0.371,0.1416,0.5126,0c0.1416-0.1415,0.1416-0.371,0-0.5126l-1.1861-1.1863l1.1861-1.186
		C15.9155,44.2115,15.9155,43.982,15.7739,43.8405z"/>
	<path class="st2" d="M46.5928,47.4609c0.2764,0,0.5-0.2236,0.5-0.5s-0.2236-0.5-0.5-0.5H27.4795c-0.2764,0-0.5,0.2236-0.5,0.5
		s0.2236,0.5,0.5,0.5H46.5928z"/>
	<path class="st2" d="M19.7471,21.5127c0-4.4949-3.2095-8.2532-7.4565-9.1077v-1.6813c0-0.4233-0.3438-0.7681-0.7671-0.7681h-1.855
		c-0.4229,0-0.7666,0.3447-0.7666,0.7681v1.6382c-4.3844,0.7429-7.7373,4.5582-7.7373,9.1508c0,5.1235,4.168,9.292,9.291,9.292
		S19.7471,26.6362,19.7471,21.5127z M9.8271,10.8813h1.5381v1.3859c-0.2995-0.0292-0.6026-0.0461-0.9097-0.0461
		c-0.2121,0-0.4198,0.0178-0.6284,0.0318V10.8813z M2.0903,21.5127c0-4.6128,3.7524-8.3657,8.3652-8.3657
		s8.3662,3.7529,8.3662,8.3657c0,4.6133-3.7534,8.3662-8.3662,8.3662S2.0903,26.126,2.0903,21.5127z"/>
	<path class="st2" d="M10.2686,21.9805c0.0903,0.0903,0.209,0.1357,0.3271,0.1357s0.2368-0.0454,0.3271-0.1357l4.7651-4.7651
		c0.1807-0.1807,0.1807-0.4736,0-0.6543s-0.4736-0.1807-0.6543,0l-4.7651,4.7651C10.0879,21.5068,10.0879,21.7998,10.2686,21.9805z"
		/>
	<path class="st2" d="M10.5957,16.2959c0.2554,0,0.4629-0.2075,0.4629-0.4629v-1.4009c0-0.2554-0.2075-0.4624-0.4629-0.4624
		s-0.4629,0.207-0.4629,0.4624v1.4009C10.1328,16.0884,10.3403,16.2959,10.5957,16.2959z"/>
	<path class="st2" d="M11.0586,28.6597v-1.4009c0-0.2554-0.2075-0.4629-0.4629-0.4629s-0.4629,0.2075-0.4629,0.4629v1.4009
		c0,0.2554,0.2075,0.4624,0.4629,0.4624S11.0586,28.915,11.0586,28.6597z"/>
	<path class="st2" d="M15.6729,21.3726c0,0.2554,0.2075,0.4629,0.4629,0.4629h1.4009c0.2554,0,0.4624-0.2075,0.4624-0.4629
		s-0.207-0.4629-0.4624-0.4629h-1.4009C15.8804,20.9097,15.6729,21.1172,15.6729,21.3726z"/>
	<path class="st2" d="M4.71,20.9097H3.3086c-0.2554,0-0.4624,0.2075-0.4624,0.4629s0.207,0.4629,0.4624,0.4629H4.71
		c0.2554,0,0.4624-0.2075,0.4624-0.4629S4.9653,20.9097,4.71,20.9097z"/>
	<path class="st1" d="M26.8198,13.3252c0-0.2764-0.2236-0.5-0.5-0.5h-7.9917c-0.2764,0-0.5,0.2236-0.5,0.5s0.2236,0.5,0.5,0.5
		h7.9917C26.5962,13.8252,26.8198,13.6016,26.8198,13.3252z"/>
	<path class="st1" d="M29.7344,17.1191c0-0.2764-0.2236-0.5-0.5-0.5h-7.9912c-0.2764,0-0.5,0.2236-0.5,0.5s0.2236,0.5,0.5,0.5
		h7.9912C29.5107,17.6191,29.7344,17.3955,29.7344,17.1191z"/>
	<path class="st1" d="M26.1152,20.9126c0-0.2764-0.2236-0.5-0.5-0.5h-3.5459c-0.2764,0-0.5,0.2236-0.5,0.5s0.2236,0.5,0.5,0.5
		h3.5459C25.8916,21.4126,26.1152,21.189,26.1152,20.9126z"/>
</g>
</svg>
