<?xml version="1.0" encoding="utf-8"?>
<!-- Generator: Adobe Illustrator 25.3.0, SVG Export Plug-In . SVG Version: 6.00 Build 0)  -->
<svg version="1.1" id="Layer_1" xmlns="http://www.w3.org/2000/svg" xmlns:xlink="http://www.w3.org/1999/xlink" x="0px" y="0px"
	 viewBox="0 0 56 56" style="enable-background:new 0 0 56 56;" xml:space="preserve">
<style type="text/css">
	.st0{fill:#B3B3B3;}
	.st1{fill:#6A68EF;}
	.st2{fill:#B1B1B1;}
</style>
<g>
	<g id="document_acrobat_stack_3_">
		<g id="document_acrobat_stack_lg_5_">
			<g id="document_acrobat_stack_lg_6_">
				<path class="st0" d="M50.0479,15.6152c-0.2764,0-0.5-0.2236-0.5-0.5c0-0.9575-0.3047-1.9136-0.8584-2.6929
					c-0.0713-0.1016-0.1475-0.1968-0.2256-0.2886c-0.0928-0.1133-0.1836-0.2139-0.2803-0.3081l-7.0742-7.021
					c-0.874-0.8682-2.0352-1.3462-3.2695-1.3462H14.2891c-2.3018,0-4.1743,1.8726-4.1743,4.1743v0.5303c0,0.2764-0.2236,0.5-0.5,0.5
					s-0.5-0.2236-0.5-0.5V7.6328c0-2.853,2.3213-5.1743,5.1743-5.1743h23.5508c1.5,0,2.9111,0.5811,3.9746,1.6362l7.0693,7.0171
					c0.1211,0.1177,0.2393,0.2476,0.3486,0.3823c0.0908,0.1064,0.1865,0.2271,0.2744,0.3525
					c0.6699,0.9434,1.041,2.1055,1.041,3.2686C50.5479,15.3916,50.3242,15.6152,50.0479,15.6152z"/>
				<path class="st0" d="M45.374,53.167h-31.085c-0.1797,0-0.3555-0.0088-0.5312-0.0303c-2.6426-0.2617-4.6431-2.4736-4.6431-5.1445
					V31.6855c0-0.2764,0.2236-0.5,0.5-0.5s0.5,0.2236,0.5,0.5v16.3066c0,2.1543,1.6128,3.9385,3.7515,4.1514
					c0.1465,0.0166,0.2832,0.0234,0.4229,0.0234h31.085c2.3018,0,4.1738-1.873,4.1738-4.1748V31.1445c0-0.2764,0.2236-0.5,0.5-0.5
					s0.5,0.2236,0.5,0.5v16.8477C50.5479,50.8457,48.2266,53.167,45.374,53.167z"/>
			</g>
		</g>
	</g>
</g>
<path class="st1" d="M25.8687,47.7416c-0.0237-0.2747-0.2656-0.4782-0.5403-0.4545c-0.9871,0.0849-2.1632-0.419-3.2367-1.2048
	c0.4907-2.3933-0.1264-5.9489-1.5827-6.7963c-0.5976-0.3444-1.3551-0.2199-1.811,0.2977c-0.8858,0.8051-1.021,2.0561-0.3806,3.5229
	c0.619,1.3031,1.5209,2.4519,2.6398,3.3625c-0.2142,0.6372-0.5907,1.2447-1.2511,1.3015c-0.333,0.0242-0.6677,0.0019-0.9945-0.0662
	l0,0c-0.2706-0.0531-0.533,0.1232-0.5861,0.3938s0.1232,0.533,0.3938,0.5861c0.4183,0.0863,0.8465,0.1137,1.2724,0.0815
	c0.8829-0.0759,1.5725-0.6605,1.9954-1.6715c1.0437,0.7873,2.3196,1.2052,3.6269,1.1879c0.0001,0,0.0002,0,0.0003,0
	c0.2747-0.0237,0.4782-0.2656,0.4545-0.5404C25.8687,47.7418,25.8687,47.7417,25.8687,47.7416z M21.2014,45.3448
	c-0.8234-0.7413-1.4923-1.6377-1.9686-2.638c-0.3224-0.7379-0.5603-1.7508,0.1366-2.3839c0.1116-0.1204,0.2592-0.2013,0.4207-0.2305
	c0.0764-0.0056,0.1525,0.0144,0.2164,0.0568C20.8115,40.6178,21.473,43.1695,21.2014,45.3448z"/>
<path class="st2" d="M16.1546,45.1819l-1.1861,1.186l1.1861,1.1863c0.1416,0.1416,0.1416,0.3711,0,0.5126
	c-0.1416,0.1416-0.3711,0.1416-0.5126,0l-1.1861-1.186l-1.1861,1.186c-0.1416,0.1416-0.3711,0.1416-0.5126,0
	c-0.1416-0.1416-0.1416-0.3711,0-0.5126l0,0l1.1861-1.1863l-1.1861-1.186c-0.1416-0.1416-0.1416-0.3711,0-0.5126
	c0.1416-0.1416,0.3711-0.1416,0.5126,0l1.1861,1.186l1.1861-1.186c0.1416-0.1416,0.3711-0.1416,0.5126,0
	C16.2962,44.8108,16.2962,45.0403,16.1546,45.1819L16.1546,45.1819z"/>
<path class="st1" d="M46.9736,48.29H27.8604c-0.2764,0-0.5-0.2236-0.5-0.5s0.2236-0.5,0.5-0.5h19.1133c0.2764,0,0.5,0.2236,0.5,0.5
	S47.25,48.29,46.9736,48.29z"/>
<path class="st0" d="M40.6299,16.5415H24.1035c-0.2764,0-0.5-0.2236-0.5-0.5s0.2236-0.5,0.5-0.5h16.5264
	c0.2764,0,0.5,0.2236,0.5,0.5S40.9062,16.5415,40.6299,16.5415z"/>
<path class="st0" d="M33.7285,24.1079h-9.625c-0.2764,0-0.5-0.2236-0.5-0.5s0.2236-0.5,0.5-0.5h9.625c0.2764,0,0.5,0.2236,0.5,0.5
	S34.0049,24.1079,33.7285,24.1079z"/>
<path class="st0" d="M9.502,28.8979c-4.7891,0-8.6851-3.896-8.6851-8.6846c0-1.8867,0.5952-3.6816,1.7212-5.1904
	c0.165-0.2222,0.4795-0.2666,0.6997-0.1021c0.2217,0.1655,0.2671,0.4785,0.1021,0.6997c-0.9966,1.335-1.5229,2.9233-1.5229,4.5928
	c0,4.2373,3.4473,7.6846,7.6851,7.6846c4.2373,0,7.6846-3.4473,7.6846-7.6846c0-4.2378-3.4473-7.6851-7.6846-7.6851
	c-0.7886,0-1.5659,0.1187-2.3105,0.3535c-0.2651,0.083-0.5439-0.0625-0.6274-0.3267c-0.083-0.2637,0.0635-0.5444,0.3267-0.6274
	c0.8423-0.2651,1.7207-0.3994,2.6113-0.3994c4.7886,0,8.6846,3.896,8.6846,8.6851C18.1865,25.002,14.2905,28.8979,9.502,28.8979z"/>
<path class="st1" d="M13.4815,22.6224l-0.1171-0.2343c-0.3652-0.7311-0.5556-1.5369-0.5564-2.3541v-1.4832
	c0.0247-1.7882-1.3621-3.2792-3.1474-3.384c-1.8241-0.088-3.3742,1.3194-3.4621,3.1435c-0.0026,0.0531-0.0038,0.1062-0.0038,0.1593
	v1.5637c-0.0007,0.8173-0.1912,1.6232-0.5564,2.3544L5.5212,22.622c-0.1208,0.2178-0.1175,0.4833,0.0085,0.6981
	c0.1654,0.239,0.4438,0.3738,0.7338,0.3552H8.308v0.3748c-0.0103,0.6598,0.5161,1.203,1.1759,1.2133
	c0.6598,0.0103,1.203-0.5161,1.2133-1.1759c0.0002-0.0125,0.0002-0.025,0-0.0375v-0.3748h2.0446
	c0.29,0.0185,0.5685-0.1163,0.7338-0.3552C13.6007,23.105,13.603,22.8397,13.4815,22.6224z M9.8161,24.0503
	c0.0053,0.1746-0.1319,0.3204-0.3065,0.3258c-0.1746,0.0053-0.3204-0.1319-0.3258-0.3065c-0.0002-0.0064-0.0002-0.0129,0-0.0193
	v-0.3748H9.816v0.3748H9.8161z M6.4137,22.7969l0.0079-0.0155c0.4266-0.8533,0.6492-1.794,0.6504-2.7479v-1.5637
	c0-1.341,1.0872-2.4282,2.4282-2.4281c0.0393,0,0.0787,0.001,0.1179,0.0029c1.3163,0.0834,2.3341,1.1876,2.3102,2.5064v1.4829
	c0.0011,0.954,0.2238,1.8947,0.6504,2.748l0.0079,0.0155L6.4137,22.7969z"/>
<path class="st2" d="M54.0215,22.4819c-0.2041-0.1875-0.5195-0.1743-0.707,0.0293l-16,17.3853l-3.4736-3.1338l19.8623-21.5908
	c0.1865-0.2031,0.1738-0.5195-0.0293-0.7065c-0.2041-0.186-0.5195-0.1733-0.707,0.0298l-20.5459,22.334l0.8093,0.7302
	l-0.5854,0.6428l-2.0374,1.1406c-0.416,0.2334-0.7266,0.6094-0.875,1.0596l-1.1807,3.5557
	c-0.1201,0.3633-0.0156,0.7627,0.2666,1.0186l0.5859,0.5342c0.1807,0.166,0.4141,0.252,0.6514,0.252
	c0.1309,0,0.2637-0.0264,0.3887-0.0811l3.4307-1.5068c0.4346-0.1914,0.7803-0.5361,0.9727-0.9697l0.9401-2.1219l0.6078-0.6677
	l0.9833,0.8872L54.0508,23.188C54.2373,22.9849,54.2246,22.6689,54.0215,22.4819z M35.334,40.0967l-1.6738-1.5254l0.2695-0.2949
	l1.6738,1.5244L35.334,40.0967z M33.9336,42.7988c-0.0908,0.2061-0.2549,0.3691-0.4609,0.46l-3.1609,1.4095l1.7039-1.8705
	l-0.7393-0.6738l-1.6711,1.8352l1.0764-3.2424c0.0703-0.2129,0.2178-0.3906,0.4141-0.501l1.7852-1l1.8809,1.7129L33.9336,42.7988z"
	/>
</svg>
