<svg xmlns="http://www.w3.org/2000/svg" width="24" height="30" viewBox="0 0 24 30"><path fill="#B3B3B3" d="M9.47149731 14.3000241C11.0788756 14.519212 12.2955276 15.370648 12.9770095 16.6901971L12.2441938 17.041043C12.0731815 17.1310774 11.9104163 17.2312005 11.7565173 17.3405789 11.3123069 16.5158627 10.6295846 15.9476606 9.70959741 15.7353559L9.62516613 15.8197871C8.94971587 16.5796687 8.10540306 17.0018251 7.09222767 17.0018251L6.67007126 17.0018251C5.65689588 17.0018251 4.81258306 16.5796687 4.13713281 15.8197871L4.05270153 15.6509246C2.95509486 15.9042184 2.27964461 16.5796687 1.8574882 17.5928441L1.77305692 17.7617066C1.43533179 18.6060194 1.35090051 19.5347635 1.35090051 20.4635076 1.35090051 20.885664 1.01317538 21.1389579.675450255 21.1389579.337725127 21.1389579 1.16415322e-10 20.885664 1.16415322e-10 20.4635076 1.16415322e-10 19.365901.168862564 18.2682943.506587691 17.2551189 1.18203795 15.6509246 2.36407589 14.5533179 4.22156409 14.3000241 4.47485794 14.3000241 4.72815178 14.3844553 4.81258306 14.5533179 5.23473947 15.2287682 5.99462101 15.6509246 6.83893383 15.6509246 7.59881536 15.6509246 8.3586969 15.2287682 8.78085331 14.5533179 8.86528459 14.3844553 9.11857844 14.3000241 9.287441 14.3000241L9.47149731 14.3000241ZM6.83893383 6.11018973C8.86528459 6.11018973 10.3850477 7.71438408 10.3850477 9.82516613 10.3850477 12.0203795 8.69642203 14.0467302 6.83893383 14.0467302 4.98144563 14.0467302 3.29281999 12.0203795 3.29281999 9.82516613 3.29281999 7.6299528 4.81258306 6.11018973 6.83893383 6.11018973ZM6.83893383 7.46109024C5.48803332 7.46109024 4.55928922 8.38983434 4.55928922 9.90959741 4.55928922 11.5137918 5.74132716 12.8646923 6.83893383 12.8646923 7.93654049 12.8646923 9.11857844 11.4293605 9.11857844 9.90959741 9.11857844 8.47426562 8.18983434 7.46109024 6.83893383 7.46109024ZM20.0911146 8.38983434C22.2018966 8.64312818 23.4718963 10.07846 23.978484 12.0203795 24.0629153 12.3581046 23.8940528 12.6958297 23.5563276 12.780261 23.2186025 12.8646923 22.8808774 12.6958297 22.7964461 12.3581046 22.3742897 11.0072041 21.6988394 10.1628913 20.5168015 9.82516613L20.3479389 9.74073485 20.2635076 9.82516613C19.5880574 10.5850477 18.7437446 11.0072041 17.7305692 11.0072041L17.5617066 11.0072041C16.5485312 11.0072041 15.5353559 10.5850477 14.8599056 9.82516613L14.7754743 9.74073485C13.5090051 9.99402869 12.7491236 10.8383415 12.3269671 12.1048107L12.2425359 12.2736733C12.1581046 12.6113984 11.8203795 12.780261 11.4826543 12.6958297 11.1449292 12.6113984 10.9760666 12.2736733 11.0604979 11.9359482 11.6515169 9.99402869 12.9179861 8.64312818 14.9443369 8.38983434 15.1976307 8.38983434 15.4509246 8.47426562 15.5353559 8.64312818 15.9575123 9.31857844 16.7173938 9.74073485 17.5617066 9.74073485 18.3215882 9.74073485 19.0814697 9.31857844 19.5036261 8.64312818 19.5880574 8.47426562 19.8413512 8.38983434 20.0102138 8.38983434L20.0911146 8.38983434ZM17.4772753.2C19.5036261.2 21.0233892 1.80419435 21.0233892 3.9149764 21.0233892 6.11018973 19.3347635 8.13654049 17.4772753 8.13654049 15.6197871 8.13654049 13.9311615 6.11018973 13.9311615 3.9149764 13.9311615 1.71976307 15.4509246.2 17.4772753.2ZM17.4772753 1.55090051C16.1263748 1.55090051 15.1131994 2.47964461 15.1976307 3.99940768 15.1976307 5.60360204 16.3796687 6.95450255 17.4772753 6.95450255 18.574882 6.95450255 19.7569199 5.51917076 19.7569199 3.99940768 19.7569199 2.56407589 18.8281758 1.55090051 17.4772753 1.55090051ZM19.2113942 15.174382C19.5445669 15.174382 19.8631078 15.3080906 20.0946061 15.5425368L20.0946061 15.5425368 23.2473436 18.6952918C23.4848576 18.9298368 23.6182866 19.2484968 23.6182866 19.5827552 23.6182866 19.9159278 23.4845781 20.2344688 23.2485825 20.4675109L23.2485825 20.4675109 21.622 22.082 19.9207485 25.5052921C19.7128465 25.9079851 19.3813995 26.2300662 18.9597924 26.4333644L18.9597924 26.4333644 18.7975286 26.5039588 12.066934 28.8226398C11.6033528 29.0045514 11.0757126 28.896381 10.7234465 28.5499211L10.7234465 28.5499211 10.1417367 27.9845609C9.79175997 27.6286524 9.68461707 27.0979602 9.86265813 26.66629L9.86265813 26.66629 12.2220136 19.9201755C12.3913202 19.4786926 12.7122645 19.1122999 13.1602046 18.8652059L13.1602046 18.8652059 16.685 17.175 18.3239309 15.545325C18.5247596 15.3419542 18.7885797 15.2146895 19.0696395 15.1824786L19.0696395 15.1824786ZM16.9009594 18.456382 13.7335051 19.9753701C13.5739459 20.0638304 13.4525348 20.2024343 13.3955415 20.3502749L13.3955415 20.3502749 11.2479594 26.487382 14.8644116 22.8549373C14.8634354 22.8362368 14.8629412 22.8174076 14.8629412 22.7984618 14.8629412 22.2108217 15.340076 21.7347195 15.9277162 21.7347195 16.2096595 21.7347195 16.4802425 21.8462576 16.6805978 22.0455801 16.8809532 22.2459355 16.9924912 22.5165185 16.9924912 22.7984618 16.9924912 23.3871347 16.5153563 23.8632368 15.9277162 23.8632368 15.83558 23.8632368 15.7461604 23.8515327 15.6608705 23.8295257L11.9689594 27.533382 18.3662602 25.3309917C18.5202247 25.2707745 18.6515277 25.1683289 18.7439713 25.0405834L18.8057647 24.940295 20.3289594 21.876382 16.9009594 18.456382ZM19.21 16.426 17.9209594 17.708382 21.0789594 20.859382 22.366 19.581 19.21 16.426Z"/></svg>