<?xml version="1.0" encoding="UTF-8"?>
<svg width="129px" height="127px" viewBox="0 0 129 127" version="1.1" xmlns="http://www.w3.org/2000/svg" xmlns:xlink="http://www.w3.org/1999/xlink">
    <!-- Generator: Sketch 49 (51002) - http://www.bohemiancoding.com/sketch -->
    <title>S_IlluError_dark_136x136</title>
    <desc>Created with Sketch.</desc>
    <defs></defs>
    <g id="Page-1" stroke="none" stroke-width="1" fill="none" fill-rule="evenodd">
        <g id="S_IlluError_dark_136x136" fill="#999999" fill-rule="nonzero">
            <path d="M43.06152,114.0752 C42.5281643,113.933184 41.9805742,114.250023 41.83789,114.7832 L40.03418,121.54688 C39.9656107,121.803037 40.0017049,122.075947 40.134509,122.305471 C40.267313,122.534995 40.4859279,122.702297 40.74218,122.77051 C40.8265496,122.793311 40.9135738,122.804804 41.00097,122.80469 C41.4535025,122.804201 41.8492638,122.499767 41.96581,122.0625 L43.76952,115.29883 C43.8380921,115.042673 43.8019991,114.769762 43.6691946,114.540237 C43.5363902,114.310713 43.3177735,114.143411 43.06152,114.0752 Z" id="Shape"></path>
            <path d="M49.25781,90.83887 C49.0016509,90.7702451 48.7287159,90.8063149 48.4991778,90.9391271 C48.2696396,91.0719393 48.1023462,91.2905885 48.03418,91.54687 L46.7334,96.4248 C46.6648277,96.6809585 46.7009204,96.9538706 46.8337247,97.1833969 C46.966529,97.4129232 47.1851457,97.5802267 47.4414,97.64844 C47.5257696,97.6712407 47.6127938,97.6827345 47.70019,97.68262 C48.1527225,97.6821314 48.5484838,97.3776975 48.66503,96.94043 L49.96581,92.0625 C50.0343821,91.8063428 49.9982891,91.533432 49.8654846,91.3039073 C49.7326802,91.0743825 49.5140635,90.907081 49.25781,90.83887 Z" id="Shape"></path>
            <path d="M46.41113,101.51465 C45.8778325,101.37307 45.3305341,101.689741 45.1875,102.22265 L43.38379,108.98534 C43.3152179,109.241497 43.3513109,109.514408 43.4841154,109.743933 C43.6169198,109.973457 43.8355365,110.140759 44.09179,110.20897 C44.1761596,110.231771 44.2631838,110.243264 44.35058,110.24315 C44.8031096,110.242663 45.19887,109.938233 45.31542,109.50097 L47.11913,102.73827 C47.187699,102.482114 47.1516045,102.209206 47.0188003,101.979684 C46.8859961,101.750161 46.6673813,101.582861 46.41113,101.51465 Z" id="Shape"></path>
            <path d="M71.20215,108.28809 C70.665527,108.162122 70.1274179,108.491265 69.99515,109.02637 L68.35547,115.832 C68.2264632,116.369107 68.55683,116.909217 69.09375,117.039 C69.1708784,117.057187 69.2498563,117.066365 69.3291,117.06635 C69.7907236,117.06554 70.1920111,116.749347 70.30078,116.30072 L71.94043,109.49506 C72.0694178,108.957963 71.7390554,108.417873 71.20215,108.28809 Z" id="Shape"></path>
            <path d="M74.24609,95.64941 C73.709565,95.5240715 73.1718669,95.8529672 73.03909,96.3877 L71.39944,103.19336 C71.2704456,103.730468 71.600813,104.270572 72.13773,104.40036 C72.2148587,104.418544 72.2938367,104.427719 72.37308,104.4277 C72.8347019,104.426894 73.2359904,104.110705 73.34476,103.66208 L74.98441,96.85642 C75.1134031,96.3193001 74.7830206,95.7791888 74.24609,95.64941 Z" id="Shape"></path>
            <path d="M83.09277,99.43164 C82.8355105,99.3659945 82.5626825,99.4059481 82.3350484,99.5426026 C82.1074142,99.6792571 81.9438775,99.9012642 81.88086,100.15918 L80.18359,106.95018 C80.0970656,107.296631 80.2019433,107.662925 80.4587166,107.911083 C80.71549,108.159241 81.0851489,108.251562 81.4284466,108.153268 C81.7717443,108.054975 82.0365256,107.781001 82.12305,107.43455 L83.82031,100.64355 C83.8848245,100.386348 83.8443806,100.114047 83.7078976,99.8866987 C83.5714146,99.6593502 83.3501032,99.4956286 83.09277,99.43164 Z" id="Shape"></path>
            <path d="M79.93945,112.044 C79.682169,111.977888 79.4091244,112.017637 79.1813723,112.154361 C78.9536201,112.291084 78.7901587,112.513376 78.72754,112.77153 L77.03027,119.56253 C76.9426011,119.909389 77.0470072,120.276653 77.3040299,120.525522 C77.5610525,120.774392 77.9314905,120.866909 78.2753438,120.768108 C78.6191971,120.669307 78.8840208,120.394258 78.96973,120.04691 L80.66699,113.25591 C80.7315073,112.998708 80.6910646,112.726406 80.5545812,112.499057 C80.4180978,112.271707 80.1967847,112.107986 79.93945,112.044 Z" id="Shape"></path>
            <path d="M85.24219,90.835 C84.9849524,90.7698153 84.7123381,90.8099686 84.484819,90.9465529 C84.2572998,91.0831372 84.0936858,91.3048606 84.03027,91.56254 L83.33594,94.33891 C83.2492941,94.6854028 83.3541209,95.0517984 83.6109193,95.3000309 C83.8677177,95.5482633 84.2374575,95.6406044 84.5808126,95.5422579 C84.9241677,95.4439114 85.1889524,95.1698248 85.27539,94.82328 L85.96973,92.04692 C86.0342419,91.789717 85.9937972,91.5174161 85.8573147,91.2900667 C85.7208323,91.0627173 85.4995226,90.8989933 85.24219,90.835 Z" id="Shape"></path>
            <path d="M63.68555,103.58887 C63.1540538,103.441907 62.6034747,103.750979 62.45215,104.28125 L60.55664,111.01953 C60.4095068,111.550513 60.719532,112.100486 61.2499893,112.249505 C61.7804467,112.398524 62.3315175,112.090455 62.48242,111.56053 L64.37793,104.82225 C64.4496971,104.566878 64.4170655,104.293455 64.2872153,104.062144 C64.1573652,103.830834 63.9409358,103.660589 63.68555,103.58887 Z" id="Shape"></path>
            <path d="M60.166,116.10352 C59.6347205,115.95833 59.0853257,116.266738 58.9326,116.7959 L57.03709,123.53418 C56.8899568,124.065163 57.199982,124.615136 57.7304393,124.764155 C58.2608967,124.913174 58.8119675,124.605105 58.96287,124.07518 L60.85838,117.33689 C60.9301469,117.081519 60.897515,116.808097 60.7676647,116.576789 C60.6378143,116.34548 60.421385,116.175237 60.166,116.10352 Z" id="Shape"></path>
            <path d="M67.20508,91.07422 C66.673696,90.9281777 66.1237326,91.2369045 65.97168,91.7666 L64.07617,98.50488 C63.9290368,99.0358634 64.239062,99.5858363 64.7695193,99.7348551 C65.2999767,99.8838739 65.8510475,99.5758045 66.00195,99.04588 L67.89746,92.3076 C67.9692299,92.0522277 67.9365995,91.7788033 67.806749,91.5474923 C67.6768984,91.3161813 67.4604673,91.1459368 67.20508,91.07422 Z" id="Shape"></path>
            <path d="M57.81348,93.00586 C57.5557433,92.9426267 57.2834352,92.9846498 57.0567516,93.1226396 C56.830068,93.2606295 56.6676783,93.4832216 56.60548,93.74121 L54.94922,100.542 C54.8647874,100.889148 54.9719697,101.25497 55.2303922,101.501665 C55.4888148,101.748359 55.8592171,101.838448 56.2020722,101.737995 C56.5449273,101.637541 56.8081474,101.361808 56.89258,101.01466 L58.54883,94.21388 C58.6115745,93.9561693 58.5693413,93.6840877 58.4314266,93.4575238 C58.2935119,93.2309599 58.0712199,93.0684844 57.81348,93.00586 Z" id="Shape"></path>
            <path d="M51.66113,118.26758 C51.1247638,118.138823 50.5850874,118.467342 50.45313,119.00293 L48.79689,125.80371 C48.6663686,126.340351 48.9955937,126.881194 49.532235,127.011715 C50.0688763,127.142236 50.6097185,126.813011 50.74024,126.27637 L52.39649,119.47559 C52.4592312,119.217879 52.4169952,118.945799 52.2790787,118.719237 C52.1411622,118.492675 51.9188696,118.330202 51.66113,118.26758 Z" id="Shape"></path>
            <path d="M54.7373,105.63672 C54.4795847,105.573854 54.2074485,105.616035 53.9808572,105.753969 C53.7542659,105.891903 53.5918147,106.114269 53.5293,106.37207 L51.87305,113.17285 C51.7886174,113.519998 51.8957997,113.88582 52.1542222,114.132515 C52.4126448,114.379209 52.7830471,114.469298 53.1259022,114.368845 C53.4687573,114.268391 53.7319774,113.992658 53.81641,113.64551 L55.47266,106.84473 C55.5353984,106.58702 55.4931612,106.314941 55.3552452,106.088379 C55.2173291,105.861818 54.9950382,105.699345 54.7373,105.63672 Z" id="Shape"></path>
            <path d="M64.61035,72.72363 C63.9772712,72.6867601 63.357415,72.9150795 62.8995173,73.3538024 C62.4416195,73.7925253 62.187009,74.4020538 62.19678,75.03613 C62.2880626,76.3016716 63.3414006,77.2817696 64.61023,77.2817696 C65.8790594,77.2817696 66.9323974,76.3016716 67.02368,75.03613 C67.0448138,74.3986953 66.7937759,73.7823679 66.3332765,73.3411084 C65.8727771,72.8998489 65.2463032,72.6753273 64.61035,72.72363 Z" id="Shape"></path>
            <path d="M63.26953,69.63965 L65.95117,69.63965 C66.15234,69.63965 66.18555,69.53906 66.18555,69.43848 C66.28613,68.43311 66.85596,60.52248 66.85596,57.70703 L66.85596,55.29346 C66.8594199,55.1433699 66.782795,55.0027658 66.65479,54.92432 C65.9933325,54.7172754 65.3034142,54.6156086 64.61035,54.62305 C63.9213735,54.6367255 63.2403354,54.7729649 62.59912,55.02539 C62.4726434,55.1017678 62.4061104,55.2480229 62.43164,55.39355 L62.43164,57.80762 C62.43164,60.62305 62.96777,68.5 63.03491,69.43848 C63.0458586,69.5579442 63.1497943,69.6470617 63.26953,69.63965 Z" id="Shape"></path>
            <path d="M68.94434,42.52344 C68.07926,41.0242324 66.4799169,40.100591 64.749025,40.100591 C63.0181331,40.100591 61.41879,41.0242324 60.55371,42.52344 L40.23926,77.73535 C39.3747017,79.2340583 39.3751363,81.080104 40.2403999,82.5784051 C41.1056636,84.0767063 42.7043713,84.9997548 44.43457,85 L85.06348,85 C86.7936787,84.9997548 88.3923864,84.0767063 89.2576501,82.5784051 C90.1229137,81.080104 90.1233483,79.2340583 89.25879,77.73535 L68.94434,42.52344 Z M86.66016,81.07812 C86.3359175,81.6536371 85.724014,82.0069337 85.06348,82 L44.43457,82 C43.7760918,81.9999072 43.1676254,81.6487156 42.8381561,81.0785897 C42.5086868,80.5084638 42.5082118,79.8059209 42.83691,79.23535 L63.15137,44.02344 C63.4807344,43.4524152 64.0898208,43.10059 64.749025,43.10059 C65.4082292,43.10059 66.0173156,43.4524152 66.34668,44.02344 L86.66113,79.23535 C86.996707,79.8038691 86.9963353,80.5099545 86.66016,81.07812 Z" id="Shape"></path>
            <path d="M104.11426,31.44141 C103.287992,31.3810039 102.569201,32.0018573 102.508795,32.828125 C102.448389,33.6543927 103.069242,34.3731839 103.89551,34.43359 C116.374464,35.3795869 125.86689,46.0316486 125.374658,58.5367244 C124.882426,71.0418002 114.582083,80.9147676 102.06738,80.87695 L97.95117,80.88281 C97.1227429,80.8833485 96.4516065,81.5553579 96.452145,82.383785 C96.4526835,83.2122121 97.1246929,83.8833485 97.95312,83.88281 L97.95512,83.88281 L102.07133,83.87695 C116.19926,83.9121883 127.821972,72.7613729 128.372011,58.6441106 C128.922049,44.5268482 118.202173,32.5055181 104.11433,31.44141 L104.11426,31.44141 Z" id="Shape"></path>
            <path d="M97.23047,42.60742 C97.8150041,42.608291 98.3465944,42.2688976 98.5918,41.73828 C103.269109,31.6556805 101.758764,19.7851678 94.7056364,11.1950908 C87.6525088,2.60501381 76.3029261,-1.18671231 65.502816,1.43886452 C54.7027058,4.06444135 46.3605088,12.6433668 44.03809,23.5127 C43.9255124,24.0372476 44.1017497,24.5819742 44.5002483,24.9411715 C44.8987469,25.3003689 45.458784,25.4193027 45.9688692,25.2530593 C46.4789545,25.0868159 46.8613617,24.6607273 46.97168,24.1357 C49.0544004,14.3930537 56.5327403,6.70394926 66.2137536,4.35132053 C75.8947669,1.99869181 86.0678149,5.39824924 92.389421,13.0985205 C98.7110271,20.7987917 100.064161,31.4391358 95.87109,40.47656 C95.656146,40.9408311 95.6925738,41.4826254 95.9677332,41.9139441 C96.2428925,42.3452629 96.7188569,42.6066553 97.23047,42.60742 Z" id="Shape"></path>
            <path d="M35.47266,23.67285 C37.2577666,23.5492459 39.0513409,23.6522795 40.81055,23.97949 C41.6249546,24.1321221 42.4088928,23.5956496 42.561525,22.781245 C42.7141571,21.9668404 42.1776846,21.1829022 41.36328,21.03027 C33.4095767,19.5336144 25.2407108,22.1848548 19.6818517,28.0670703 C14.1229925,33.9492857 11.9373652,42.2548548 13.88086,50.11133 C5.87568775,51.7330301 0.112299401,58.7570617 0.085,66.9248 C0.105264233,76.3507648 7.75174349,83.9815375 17.17773,83.98242 L17.21773,83.98242 L34.71383,83.96094 C35.5422571,83.9603877 36.2133823,83.2883671 36.21283,82.45994 C36.2122777,81.6315129 35.5402571,80.9603877 34.71183,80.96094 L34.71,80.96094 L17.21293,80.98242 L17.17973,80.98242 C9.40814155,80.9812181 3.10348485,74.6905666 3.085,66.919 C3.10525245,59.6214904 8.66251145,53.5317437 15.92773,52.8457 C16.3839145,52.805473 16.796761,52.5591411 17.0488104,52.1767884 C17.3008598,51.7944357 17.3645204,51.3179182 17.22168,50.88281 C15.2257008,44.8016996 16.1429873,38.1401045 19.7082323,32.824762 C23.2734772,27.5094196 29.0889656,24.133274 35.47268,23.67281 L35.47266,23.67285 Z" id="Shape"></path>
        </g>
    </g>
</svg>