<svg xmlns="http://www.w3.org/2000/svg" xmlns:xlink="http://www.w3.org/1999/xlink" width="300" height="150" viewBox="0 0 300 150">
  <defs>
    <clipPath id="clip-s_share_send_confirmation_300">
      <rect width="300" height="150"/>
    </clipPath>
  </defs>
  <g id="s_share_send_confirmation_300" clip-path="url(#clip-s_share_send_confirmation_300)">
    <path id="S_IlluShareSendConfirmation_256x100" d="M252.723,25.919a1.485,1.485,0,0,0,.038-.333c0-.03,0-.059,0-.089a1.479,1.479,0,0,0-.067-.378c-.005-.016-.014-.031-.02-.047a1.5,1.5,0,0,0-.091-.213c-.019-.035-.044-.063-.066-.1-.01-.016-.014-.034-.025-.049s-.022-.021-.032-.033a1.478,1.478,0,0,0-.268-.282c-.01-.008-.023-.014-.033-.021a1.483,1.483,0,0,0-.29-.166c-.039-.017-.076-.033-.116-.046a1.5,1.5,0,0,0-.333-.077c-.029,0-.057,0-.086,0a1.518,1.518,0,0,0-.332.024c-.017,0-.034,0-.051,0l-48,10.364a2.722,2.722,0,0,0-1.082,4.822l10.018,7.676-1.07,9.492a2.522,2.522,0,0,0,4.216,2.143l4.185-3.843a1.5,1.5,0,0,0,.106-2.093l9.12,6.989a2.731,2.731,0,0,0,1.656.56,2.769,2.769,0,0,0,.491-.044,2.727,2.727,0,0,0,1.824-1.246h0l20.125-32.564c.007-.011.008-.023.015-.034a1.49,1.49,0,0,0,.154-.357C252.717,25.958,252.718,25.938,252.723,25.919Zm-11.218,3.3L213.611,44.516l-9.439-7.232ZM217.192,52.559l-3.248,2.982.726-6.436,4.291,3.288a1.484,1.484,0,0,0-1.769.165Zm12.836,4.536L216.214,46.51,247,29.629ZM111.084,55.328h.063c2.045,0,4.108-2.858,5.491-5.285.788-.267,1.61-.514,2.447-.733.916-.238,1.788-.431,2.593-.571a7.911,7.911,0,0,0,5.121,2.2c1.293,0,1.773-.548,1.949-1.009a1.437,1.437,0,0,0,.093-.52,1.548,1.548,0,0,0-.381-1.028c-.6-.641-1.817-.979-3.523-.979a19.379,19.379,0,0,0-2.927.251,14.143,14.143,0,0,1-1.714-1.97,18.177,18.177,0,0,1-1.064-1.642,16.312,16.312,0,0,0,.933-4.642c0-1.377-.544-2.848-2.076-2.848a1.5,1.5,0,0,0-1.249.732c-.668,1.14-.388,3.5.7,5.9-.406,1.182-.822,2.273-1.307,3.428a30.7,30.7,0,0,1-1.481,3.036c-3.237,1.284-5.149,2.668-5.387,3.9a1.394,1.394,0,0,0,.451,1.316,1.985,1.985,0,0,0,1.272.463Zm13.594-6.93a11.813,11.813,0,0,1,1.6.108c.544.112.779.378.7.791-.061.317-.411.522-.891.522a1.86,1.86,0,0,1-.425-.05,7.475,7.475,0,0,1-2.632-1.256A11.852,11.852,0,0,1,124.679,48.4Zm-6.959-10.6.038-.066a.43.43,0,0,1,.321-.168c.4,0,.487.535.489.97a13.948,13.948,0,0,1-.546,3.134C117.395,39.853,117.381,38.375,117.719,37.8Zm.329,9.4c.289-.688.536-1.316.75-1.908.218.345.44.672.672.99a16.058,16.058,0,0,0,1.248,1.517h-.011l.073.075c-.636.128-1.291.28-1.949.455-.49.127-.986.267-1.5.425.267-.531.512-1.062.717-1.555Zm-4.2,3.943c-1.225,1.876-2.41,3.058-3.1,3.058a.4.4,0,0,1-.385-.458C110.494,53.067,111.839,52.072,113.85,51.142ZM134,63a1,1,0,0,1-1,1H106a1,1,0,0,1,0-2h27a1,1,0,0,1,1,1Zm0,5a1,1,0,0,1-1,1H106a1,1,0,0,1,0-2h27a1,1,0,0,1,1,1ZM116.537,9.189a1.5,1.5,0,1,1-1.5,1.5,1.5,1.5,0,0,1,1.5-1.5ZM52,24.5V9a5,5,0,0,1,5-5H178a5,5,0,0,1,5,5V61.5a1.5,1.5,0,0,1-3,0V9a2,2,0,0,0-2-2H57a2,2,0,0,0-2,2V24.5a1.5,1.5,0,0,1-3,0ZM200,86H35a1.5,1.5,0,0,0-1.5,1.5v3A4.5,4.5,0,0,0,38,95H197a4.5,4.5,0,0,0,4.5-4.5v-3A1.5,1.5,0,0,0,200,86Zm-1.5,4.5A1.5,1.5,0,0,1,197,92H38a1.5,1.5,0,0,1-1.5-1.5V89H104a2,2,0,0,0,2,2h22a2,2,0,0,0,2-2h68.5Zm6.2-33.966a66.82,66.82,0,0,1-27.569,9.92.945.945,0,0,0-.348-.016c-13.061,1.793-23.82.317-33.786-4.629V35.724a7.167,7.167,0,0,0-2.109-5.059l-7.675-7.6A7.077,7.077,0,0,0,128.207,21h-25.6A6.616,6.616,0,0,0,96,27.608v.913a55.724,55.724,0,0,0-20.727-3.763c-12.209,0-22.857,2.524-32.554,7.717a1,1,0,1,0,.944,1.764c9.4-5.033,19.739-7.48,31.61-7.48A53.552,53.552,0,0,1,96,30.686V71.393A6.615,6.615,0,0,0,102.607,78h33.785A6.616,6.616,0,0,0,143,71.392V64.019a53.673,53.673,0,0,0,23.565,5.16,75.167,75.167,0,0,0,8.816-.553.983.983,0,0,0,.259.048,1.091,1.091,0,0,0,.113-.006,69.142,69.142,0,0,0,30.032-10.45,1,1,0,0,0-1.082-1.682ZM140,71.392A3.613,3.613,0,0,1,136.392,75H102.607A3.611,3.611,0,0,1,99,71.393V27.608A3.613,3.613,0,0,1,102.608,24h25.6a4.1,4.1,0,0,1,2.9,1.192l7.675,7.6A4.149,4.149,0,0,1,140,35.724ZM35.521,45.253a16.154,16.154,0,1,1-3.972-10.547l3.391-3.391a1.5,1.5,0,1,1,2.121,2.121L20.441,50.055a1.5,1.5,0,0,1-2.121,0l-5.54-5.54A1.5,1.5,0,1,1,14.9,42.394l4.479,4.479L29.424,36.83a13.068,13.068,0,1,0,3.1,8.423,1.5,1.5,0,0,1,3,0ZM53.5,84A1.5,1.5,0,0,1,52,82.5v-49a1.5,1.5,0,0,1,3,0v49A1.5,1.5,0,0,1,53.5,84Zm128,0a1.5,1.5,0,0,1-1.5-1.5v-11a1.5,1.5,0,0,1,3,0v11a1.5,1.5,0,0,1-1.5,1.5Z" transform="translate(32.664 26)" fill="#b3b3b3"/>
  </g>
</svg>