<svg xmlns="http://www.w3.org/2000/svg" xmlns:xlink="http://www.w3.org/1999/xlink" width="64" height="64" viewBox="0 0 64 64">
  <defs>
    <clipPath id="clip-s_education_recipients_sign_64">
      <rect width="64" height="64"/>
    </clipPath>
  </defs>
  <g id="s_education_recipients_sign_64" clip-path="url(#clip-s_education_recipients_sign_64)">
    <rect id="Rectangle_4" data-name="Rectangle 4" width="64" height="64" fill="#a2d8ff" opacity="0"/>
    <g id="Group_2" data-name="Group 2" transform="translate(-1617.667 3385.664)">
      <path id="Path_1" data-name="Path 1" d="M1666.993-3336.951c.02.028.053.039.075.065a.886.886,0,0,0,.1.123l4.853,4.137a1,1,0,0,0,.649.239,1,1,0,0,0,.581-.186,1,1,0,0,0,.349-1.18l-2.335-5.934a1.039,1.039,0,0,0-.063-.1,1.122,1.122,0,0,0-.047-.109l-5.462-7.834c.086.006.172.021.256.021a3.011,3.011,0,0,0,2.194-.856c.78-.807,1.123-2.3-.256-4.067-2.524-3.236-5.219-6.39-8.738-10.225a22.529,22.529,0,0,0-4.773-3.98,11.1,11.1,0,0,0-2.751-1.071l-8.151-11.692a2.53,2.53,0,0,0-1.653-1.032,2.533,2.533,0,0,0-1.9.439,2.528,2.528,0,0,0-1.033,1.654,2.523,2.523,0,0,0,.433,1.89l5.861,8.407a20.819,20.819,0,0,0-5.011,1.246c-1.323.519-2.628,1.121-3.891,1.7a33.894,33.894,0,0,1-7.8,2.861,1,1,0,0,0-.8,1.168,1,1,0,0,0,.982.815.968.968,0,0,0,.186-.018,35.9,35.9,0,0,0,8.263-3.01c1.237-.57,2.516-1.159,3.786-1.658a18.99,18.99,0,0,1,5.6-1.211l4.268,6.121a6.18,6.18,0,0,0-2.968.987l-.538.3a12.045,12.045,0,0,0-3.218,2.3,19.479,19.479,0,0,1-2.312-.947,1,1,0,0,0-1.339.454,1,1,0,0,0,.453,1.339c3.74,1.847,7.885,2.386,11.893,2.907a63.229,63.229,0,0,1,6.857,1.148c.91.222,1.845.748,1.765,1.207-.06.348-.7.658-1.724.829a238.736,238.736,0,0,1-29.509,3.048,1,1,0,0,0-.958,1.039,1,1,0,0,0,1,.96h.041a240.609,240.609,0,0,0,29.319-3Zm1.568-1.249-6.968-9.994a3.6,3.6,0,0,0,.93-.578l6.921,9.928.827,2.1Zm-10.889-23.3c3.482,3.794,6.145,6.909,8.635,10.1.387.5.695,1.136.4,1.446a1.687,1.687,0,0,1-2.018-.183,1.147,1.147,0,0,0-.1-.066c-.365-.2-.727-.434-1.092-.683l-.207-.3a2.849,2.849,0,0,0-1.049-1.5l-8.5-12.194A21.683,21.683,0,0,1,1657.672-3361.5Zm-16.813-16.706a.542.542,0,0,1,.221-.355.543.543,0,0,1,.757.119l17.091,24.516q-.765-.16-1.537-.295l-3.177-4.557a.947.947,0,0,0-.206-.295l-13.055-18.726A.541.541,0,0,1,1640.859-3378.207Zm5.434,22.222a16.6,16.6,0,0,1,1.939-1.2l.554-.309c1.271-.719,2.07-1.15,3.77-.165l2.1,3.014q-.834-.112-1.658-.219A63.487,63.487,0,0,1,1646.293-3355.985Z" fill="#b3b3b3"/>
      <path id="Path_2" data-name="Path 2" d="M1672.779-3331.251c-.938-.115-1.888-.282-2.807-.443-1.288-.227-2.62-.461-3.994-.57-1.4-.11-4.879-.2-7.064,1.333a15.3,15.3,0,0,0-1.887,1.5,7.266,7.266,0,0,1-1.441,1.138,5.5,5.5,0,0,1,.148-1.4l.95-4.634a1.408,1.408,0,0,0-.677-1.486,2.257,2.257,0,0,0-2.449.082l-7.557,5.725,2.912-11.1a1.392,1.392,0,0,0-.562-1.488,2.273,2.273,0,0,0-2.433-.078c-6.525,4.1-10.261,9.766-10.251,15.546a1,1,0,0,0,1,1h0a1,1,0,0,0,1-1c-.009-5.019,3.311-10.01,9.111-13.719l-3.446,13.136a1,1,0,0,0,.411,1.085.994.994,0,0,0,1.16-.034l9.672-7.33-.8,3.921c-.41,1.981-.166,3.191.747,3.7,1.231.685,2.723-.495,3.886-1.6a13.323,13.323,0,0,1,1.658-1.309c1.148-.8,3.3-1.171,5.759-.977,1.278.1,2.506.317,3.806.545.943.165,1.919.337,2.908.458a.992.992,0,0,0,1.115-.87A1,1,0,0,0,1672.779-3331.251Z" fill="#2680eb"/>
    </g>
  </g>
</svg>
