<svg xmlns="http://www.w3.org/2000/svg" width="18" height="18" viewBox="0 0 18 18">
  <g fill="none" fill-rule="evenodd">
    <path fill="#999" fill-rule="nonzero" d="M9.924,11.4519414 C9.8806851,11.5327642 9.809674,11.595254 9.724,11.6279414 L2.67,14.3149414 L6.332,10.6609414 C6.48245069,10.7403598 6.64987602,10.7822161 6.82,10.7829414 C7.3123459,10.7869039 7.74735857,10.4632124 7.88499751,9.99048018 C8.02263645,9.51774798 7.82937358,9.01113013 7.41185157,8.75017887 C6.99432956,8.48922761 6.45425447,8.53750927 6.08964036,8.86838197 C5.72502626,9.19925467 5.62469112,9.73211968 5.844,10.1729414 L2.177,13.8269414 L2.177,13.8359414 L4.891,6.75394138 C4.91674498,6.68997874 4.9627653,6.63622981 5.022,6.60094138 L9.235,4.58694138 L11.913,7.26494138 L9.924,11.4519414 Z M14.8,5.19194138 L11.311,1.70294138 C11.1820254,1.57304987 11.0065471,1.5 10.8235,1.5 C10.6404529,1.5 10.4649746,1.57304987 10.336,1.70294138 L8.436,3.59094138 L4.487,5.48194138 L4.428,5.51294138 C4.11183385,5.68669953 3.86713088,5.96646124 3.737,6.30294138 L1.05,13.6199414 C0.94669479,13.8759428 1.00567261,14.168866 1.2,14.3649414 L2.116,15.2989414 C2.31328591,15.4945639 2.60759134,15.5549946 2.866,15.4529414 L10.177,12.7839414 C10.5456129,12.6403506 10.8492355,12.3673036 11.031,12.0159414 L12.923,8.03294138 L14.8,6.16794138 C14.9301398,6.03909942 15.0033617,5.86357144 15.0033617,5.68044138 C15.0033617,5.49731132 14.9301398,5.32178334 14.8,5.19294138 L14.8,5.19194138 Z"/>
    <path fill="#999" d="M12.3974753,15.1735329 C12.5727878,15.4365016 12.6923191,15.6915016 12.8676316,15.9544704 C13.1624753,16.3449391 13.5210691,16.4644704 13.7601316,16.4804079 C14.2940378,16.5043141 14.7641941,16.2811891 14.9952878,15.9624391 C15.1865378,16.2971266 15.4200222,16.4047047 15.8240378,16.5441579 C16.4121316,16.651736 17.3062253,16.3449391 17.7843503,15.0460329 L17.9158347,14.6595485 L17.0751316,13.6754079 C17.0751316,13.6754079 16.7611628,15.2372829 16.0631003,15.2372829 C16.0073191,15.2372829 15.8240378,15.1735329 15.6487253,14.9743141 C16.0631003,14.2571266 16.110116,13.6084704 16.0073191,13.2132204 C15.8973503,12.7924704 15.733991,12.5661579 15.4447253,12.5103766 C14.4924597,12.3262985 13.955366,13.9877829 14.2302878,14.7830641 C14.3267097,15.0619704 13.9099441,15.070736 13.8159128,15.0460329 C13.5768503,14.9838766 13.4015378,14.3208766 13.2820066,13.8666579 L13.2820066,13.8029079 C14.2271003,12.0091422 11.4340535,11.793986 11.9193503,13.6754079 L11.9193503,13.7391579 C11.5687253,14.2571266 10.4212253,15.3807204 9.8713816,15.3807204 L10.4371628,16.5441579 C10.9790378,16.5441579 12.0548191,15.6994704 12.3974753,15.1735329 Z"/>
  </g>
</svg>
