<?xml version="1.0" encoding="UTF-8" standalone="no"?>
<svg width="15px" height="15px" viewBox="0 0 15 15" version="1.1" xmlns="http://www.w3.org/2000/svg" xmlns:xlink="http://www.w3.org/1999/xlink" xmlns:sketch="http://www.bohemiancoding.com/sketch/ns">
    <!-- Generator: Sketch 3.3.2 (12043) - http://www.bohemiancoding.com/sketch -->
    <title>Artboard 3</title>
    <desc>Created with Sketch.</desc>
    <defs></defs>
    <g id="Page-1" stroke="none" stroke-width="1" fill="none" fill-rule="evenodd" sketch:type="MSPage">
        <g id="Artboard-3" sketch:type="MSArtboardGroup" fill="#7E7E7E">
            <g id="A12_CollapseFile" sketch:type="MSLayerGroup">
                <path d="M6.49,7.5 L0.21,13.79 C-0.07,14.06 -0.07,14.51 0.21,14.79 C0.49,15.07 0.94,15.07 1.21,14.79 L7.5,8.51 L13.79,14.79 C14.06,15.07 14.51,15.07 14.79,14.79 C15.07,14.51 15.07,14.06 14.79,13.79 L8.51,7.5 L14.79,1.21 C15.07,0.94 15.07,0.49 14.79,0.21 C14.51,-0.07 14.06,-0.07 13.79,0.21 L7.5,6.49 L1.21,0.21 C0.94,-0.07 0.49,-0.07 0.21,0.21 C-0.07,0.49 -0.07,0.94 0.21,1.21 L6.49,7.5 Z" id="Shape" sketch:type="MSShapeGroup"></path>
            </g>
        </g>
        <g id="Components" sketch:type="MSArtboardGroup" transform="translate(-1155.000000, -2076.000000)">
            <g id="Icons" sketch:type="MSLayerGroup" transform="translate(-53.000000, 1108.000000)"></g>
        </g>
    </g>
</svg>