<svg xmlns="http://www.w3.org/2000/svg" data-name="S_ThumbUp_22_N@1x" height="22" id="S_ThumbUp_22_N_1x" viewBox="0 0 22 22" width="22">
  <defs>
    <style>
	.fill {
        fill: #268e6c;
      }
    </style>
  </defs>
  <title>S_ThumbUp_22_N@1x</title>
  <rect id="ToDelete" fill="#268e6c" opacity="0" width="22" height="22" /><rect class="fill" height="10.5" rx="0.5" ry="0.5" width="3.5" x="2" y="8.5" />
  <path class="fill" d="M19.281,8.583H13.467a32.046,32.046,0,0,0,.583-5.3c0-.969-.6-1.7-1.167-1.7A1.073,1.073,0,0,0,11.717,2.75,6.609,6.609,0,0,1,10.25,6.4a27,27,0,0,1-3.2,2.79v8.726s1.638-.019,8.167,0A2.3,2.3,0,0,0,17.362,16.5l2.992-6.293A1.167,1.167,0,0,0,19.281,8.583Z" />
  </svg>