<?xml version="1.0" encoding="UTF-8" standalone="no"?>
<svg width="80px" height="80px" viewBox="0 0 80 80" version="1.1" xmlns="http://www.w3.org/2000/svg" xmlns:xlink="http://www.w3.org/1999/xlink" xmlns:sketch="http://www.bohemiancoding.com/sketch/ns">
    <!-- Generator: Sketch 3.1.1 (8761) - http://www.bohemiancoding.com/sketch -->
    <title>A12_SelectFile_Lg</title>
    <desc>Created with Sketch.</desc>
    <defs></defs>
    <g id="Page-1" stroke="none" stroke-width="1" fill="none" fill-rule="evenodd" sketch:type="MSPage">
        <g id="A12_SelectFile_Lg" sketch:type="MSArtboardGroup" fill="#6F6F6F">
            <path d="M63,65 L63,33.47 C63,32.36 62.37,30.83 61.59,30.05 L44.07,12.42 C43.29,11.64 41.76,11 40.66,11 L21,11 C18.24,11 16,13.24 16,16 L16,65 C16,67.76 18.24,70 21,70 L58,70 C60.76,70 63,67.76 63,65 L63,65 Z M60,65 C60,66.1 59.1,67 58,67 L21,67 C19.9,67 19,66.1 19,65 L19,16 C19,14.9 19.9,14 21,14 L38,14 C39.1,14 40,14.9 40,16 L40,29 C40,31.76 42.24,34 45,34 L58.48,34 C59.3,34 60.02,34.59 60.02,35.54 L60,65 L60,65 Z M45,31 C43.9,31 43,30.1 43,29 L43,16.62 C43,16.07 43.32,15.94 43.71,16.33 L57.67,30.29 C58.06,30.68 57.93,31 57.38,31 L45,31 L45,31 Z" id="Fill-1" sketch:type="MSShapeGroup"></path>
            <path d="M26,54.5 C26,53.67 26.67,53 27.5,53 L51.5,53 C52.33,53 53,53.67 53,54.5 C53,55.33 52.33,56 51.5,56 L27.5,56 C26.67,56 26,55.33 26,54.5" id="Fill-2" sketch:type="MSShapeGroup"></path>
            <path d="M26,47.5 C26,46.67 26.67,46 27.5,46 L51.5,46 C52.33,46 53,46.67 53,47.5 C53,48.33 52.33,49 51.5,49 L27.5,49 C26.67,49 26,48.33 26,47.5" id="Fill-3" sketch:type="MSShapeGroup"></path>
            <path d="M43.55,35.5 C43.55,34.67 44.17,34 45,34 L58.5,34 C59.33,34 60,34.67 60,35.5 C60,36.33 59.33,37 58.5,37 L45,37 C44.17,37 43.55,36.33 43.55,35.5" id="Fill-4" fill-opacity="0.2" sketch:type="MSShapeGroup"></path>
        </g>
    </g>
</svg>