<?xml version="1.0" encoding="UTF-8"?>
<svg width="135px" height="40px" viewBox="0 0 135 40" version="1.1" xmlns="http://www.w3.org/2000/svg" xmlns:xlink="http://www.w3.org/1999/xlink">
    <!-- Generator: Sketch 43.2 (39069) - http://www.bohemiancoding.com/sketch -->
    <title>Download_on_the_App_Store_Badge_fi_135x40</title>
    <desc>Created with Sketch.</desc>
    <defs>
        <path d="M130.197,40 L4.729,40 C2.122,40 0,37.872 0,35.267 L0,4.726 C0,2.12 2.122,0 4.729,0 L130.197,0 C132.803,0 135,2.12 135,4.726 L135,35.267 C135,37.872 132.803,40 130.197,40 Z" id="path-1"></path>
        <path d="M134.032,35.268 C134.032,37.384 132.318,39.098 130.198,39.098 L4.729,39.098 C2.61,39.098 0.89,37.384 0.89,35.268 L0.89,4.725 C0.89,2.61 2.61,0.89 4.729,0.89 L130.197,0.89 C132.318,0.89 134.031,2.61 134.031,4.725 L134.032,35.268 Z" id="path-3"></path>
        <path d="M18.128,7.784 C18.099,4.561 20.767,2.993 20.889,2.92 C19.378,0.717 17.036,0.416 16.213,0.392 C14.246,0.185 12.338,1.569 11.336,1.569 C10.314,1.569 8.771,0.412 7.108,0.446 C4.968,0.479 2.966,1.718 1.868,3.642 C-0.398,7.565 1.292,13.33 3.463,16.501 C4.549,18.054 5.818,19.788 7.479,19.727 C9.104,19.66 9.711,18.691 11.672,18.691 C13.615,18.691 14.185,19.727 15.879,19.688 C17.623,19.66 18.721,18.128 19.769,16.561 C21.024,14.781 21.528,13.028 21.548,12.938 C21.507,12.924 18.161,11.647 18.128,7.784 Z" id="path-5"></path>
        <path d="M3.928,4.306 C4.802,3.213 5.4,1.726 5.234,0.217 C3.969,0.273 2.387,1.092 1.476,2.161 C0.67,3.103 -0.05,4.647 0.136,6.099 C1.557,6.205 3.016,5.382 3.928,4.306 Z" id="path-7"></path>
        <path d="M9.143,10.516 L7.395,10.516 L6.437,7.506 L3.108,7.506 L2.196,10.516 L0.494,10.516 L3.792,0.27 L5.829,0.27 L9.143,10.516 Z M6.148,6.244 L5.282,3.568 C5.191,3.295 5.018,2.652 4.765,1.638 L4.735,1.638 C4.633,2.074 4.471,2.716 4.249,3.568 L3.398,6.244 L6.148,6.244 Z" id="path-9"></path>
        <path d="M7.608,4.73 C7.608,5.986 7.267,6.98 6.584,7.709 C5.972,8.357 5.213,8.682 4.306,8.682 C3.327,8.682 2.624,8.332 2.197,7.633 L2.197,11.51 L0.555,11.51 L0.555,3.557 C0.555,2.768 0.534,1.957 0.494,1.129 L1.938,1.129 L2.029,2.299 L2.06,2.299 C2.607,1.416 3.438,0.977 4.553,0.977 C5.424,0.977 6.151,1.321 6.734,2.01 C7.317,2.699 7.608,3.605 7.608,4.73 Z M5.937,4.791 C5.937,4.072 5.774,3.479 5.451,3.014 C5.096,2.526 4.62,2.284 4.022,2.284 C3.617,2.284 3.25,2.419 2.92,2.686 C2.591,2.956 2.376,3.307 2.274,3.743 C2.223,3.946 2.198,4.114 2.198,4.245 L2.198,5.475 C2.198,6.012 2.363,6.465 2.692,6.836 C3.021,7.205 3.449,7.391 3.976,7.391 C4.594,7.391 5.076,7.153 5.42,6.676 C5.764,6.199 5.937,5.572 5.937,4.791 Z" id="path-11"></path>
        <path d="M8.105,4.73 C8.105,5.986 7.764,6.98 7.081,7.709 C6.469,8.357 5.71,8.682 4.803,8.682 C3.824,8.682 3.121,8.332 2.694,7.633 L2.694,11.51 L1.052,11.51 L1.052,3.557 C1.052,2.768 1.031,1.957 0.991,1.129 L2.435,1.129 L2.526,2.299 L2.557,2.299 C3.104,1.416 3.935,0.977 5.05,0.977 C5.921,0.977 6.648,1.321 7.231,2.01 C7.813,2.699 8.105,3.605 8.105,4.73 Z M6.433,4.791 C6.433,4.072 6.27,3.479 5.947,3.014 C5.592,2.526 5.116,2.284 4.518,2.284 C4.113,2.284 3.746,2.419 3.416,2.686 C3.087,2.956 2.872,3.307 2.77,3.743 C2.719,3.946 2.694,4.114 2.694,4.245 L2.694,5.475 C2.694,6.012 2.859,6.465 3.188,6.836 C3.517,7.205 3.945,7.391 4.472,7.391 C5.09,7.391 5.572,7.153 5.916,6.676 C6.261,6.199 6.433,5.572 6.433,4.791 Z" id="path-13"></path>
        <path d="M6.605,7.643 C6.605,8.514 6.301,9.223 5.695,9.77 C5.028,10.37 4.097,10.668 2.905,10.668 C1.802,10.668 0.919,10.455 0.252,10.029 L0.632,8.66 C1.351,9.086 2.142,9.299 3.003,9.299 C3.621,9.299 4.103,9.16 4.446,8.881 C4.791,8.604 4.964,8.231 4.964,7.764 C4.964,7.348 4.821,6.998 4.538,6.715 C4.254,6.432 3.783,6.168 3.124,5.924 C1.331,5.256 0.434,4.278 0.434,2.99 C0.434,2.15 0.751,1.461 1.384,0.924 C2.018,0.387 2.856,0.119 3.9,0.119 C4.833,0.119 5.608,0.281 6.226,0.605 L5.814,1.941 C5.234,1.629 4.578,1.47 3.845,1.47 C3.266,1.47 2.813,1.613 2.488,1.896 C2.214,2.15 2.076,2.458 2.076,2.824 C2.076,3.228 2.233,3.564 2.548,3.826 C2.821,4.07 3.318,4.334 4.037,4.617 C4.919,4.972 5.567,5.388 5.983,5.863 C6.397,6.34 6.605,6.934 6.605,7.643 Z" id="path-15"></path>
        <path d="M5.046,3.359 L3.237,3.359 L3.237,6.947 C3.237,7.857 3.556,8.314 4.195,8.314 C4.489,8.314 4.732,8.289 4.924,8.238 L4.97,9.484 C4.645,9.605 4.219,9.668 3.693,9.668 C3.045,9.668 2.538,9.469 2.173,9.074 C1.808,8.679 1.625,8.015 1.625,7.084 L1.625,3.359 L0.546,3.359 L0.546,2.129 L1.625,2.129 L1.625,0.775 L3.236,0.289 L3.236,2.129 L5.045,2.129 L5.045,3.359 L5.046,3.359 Z" id="path-17"></path>
        <path d="M8.193,4.76 C8.193,5.897 7.869,6.828 7.22,7.557 C6.541,8.307 5.639,8.682 4.514,8.682 C3.43,8.682 2.567,8.323 1.923,7.604 C1.279,6.883 0.957,5.977 0.957,4.883 C0.957,3.738 1.289,2.801 1.953,2.071 C2.616,1.341 3.511,0.977 4.636,0.977 C5.72,0.977 6.592,1.336 7.25,2.055 C7.879,2.754 8.193,3.656 8.193,4.76 Z M6.491,4.799 C6.491,4.121 6.344,3.541 6.051,3.057 C5.706,2.471 5.214,2.176 4.576,2.176 C3.917,2.176 3.415,2.471 3.071,3.057 C2.777,3.541 2.63,4.133 2.63,4.83 C2.63,5.506 2.777,6.088 3.071,6.572 C3.425,7.158 3.922,7.451 4.56,7.451 C5.188,7.451 5.68,7.152 6.035,6.556 C6.339,6.062 6.491,5.477 6.491,4.799 Z" id="path-19"></path>
        <path d="M4.529,2.572 C4.366,2.541 4.194,2.525 4.011,2.525 C3.434,2.525 2.988,2.744 2.674,3.179 C2.4,3.564 2.263,4.05 2.263,4.638 L2.263,8.515 L0.621,8.515 L0.621,3.453 C0.621,2.601 0.606,1.826 0.576,1.129 L2.005,1.129 L2.066,2.541 L2.112,2.541 C2.284,2.055 2.557,1.666 2.932,1.371 C3.297,1.107 3.692,0.976 4.118,0.976 C4.27,0.976 4.407,0.986 4.529,1.005 L4.529,2.572 Z" id="path-21"></path>
        <path d="M6.869,4.473 C6.869,4.766 6.848,5.014 6.808,5.217 L1.883,5.217 C1.904,5.947 2.142,6.504 2.598,6.889 C3.013,7.233 3.55,7.407 4.208,7.407 C4.938,7.407 5.602,7.29 6.199,7.057 L6.458,8.196 C5.759,8.501 4.933,8.653 3.98,8.653 C2.834,8.653 1.936,8.315 1.282,7.641 C0.629,6.967 0.302,6.063 0.302,4.928 C0.302,3.813 0.607,2.887 1.214,2.147 C1.853,1.356 2.714,0.961 3.798,0.961 C4.862,0.961 5.668,1.356 6.215,2.147 C6.651,2.775 6.869,3.551 6.869,4.473 Z M5.304,4.047 C5.314,3.561 5.207,3.139 4.985,2.785 C4.702,2.328 4.265,2.101 3.678,2.101 C3.141,2.101 2.705,2.324 2.37,2.769 C2.097,3.124 1.934,3.55 1.884,4.046 L5.304,4.046 L5.304,4.047 Z" id="path-23"></path>
        <path d="M5.057,6.387 C5.057,7.076 4.804,7.629 4.297,8.043 C3.79,8.459 3.091,8.668 2.199,8.668 C1.358,8.668 0.643,8.5 0.055,8.166 L0.405,6.949 C0.972,7.295 1.576,7.467 2.215,7.467 C3.056,7.467 3.476,7.158 3.476,6.539 C3.476,6.266 3.385,6.041 3.203,5.863 C3.021,5.685 2.696,5.511 2.23,5.338 C0.913,4.852 0.254,4.143 0.254,3.211 C0.254,2.572 0.497,2.039 0.983,1.615 C1.469,1.189 2.113,0.976 2.914,0.976 C3.643,0.976 4.267,1.122 4.783,1.415 L4.433,2.587 C3.956,2.302 3.454,2.161 2.928,2.161 C2.583,2.161 2.315,2.241 2.122,2.403 C1.929,2.565 1.833,2.774 1.833,3.026 C1.833,3.28 1.935,3.487 2.138,3.649 C2.31,3.801 2.644,3.969 3.141,4.151 C4.418,4.639 5.057,5.385 5.057,6.387 Z" id="path-25"></path>
        <path d="M4.619,3.359 L2.81,3.359 L2.81,6.947 C2.81,7.857 3.129,8.314 3.768,8.314 C4.062,8.314 4.305,8.289 4.497,8.238 L4.543,9.484 C4.218,9.605 3.792,9.668 3.266,9.668 C2.618,9.668 2.111,9.469 1.746,9.074 C1.381,8.679 1.198,8.015 1.198,7.084 L1.198,3.359 L0.119,3.359 L0.119,2.129 L1.198,2.129 L1.198,0.775 L2.809,0.289 L2.809,2.129 L4.618,2.129 L4.618,3.359 L4.619,3.359 Z" id="path-27"></path>
        <path d="M6.81,8.516 L5.335,8.516 L5.213,7.664 L5.168,7.664 C4.661,8.344 3.941,8.682 3.009,8.682 C2.31,8.682 1.747,8.459 1.322,8.014 C0.936,7.608 0.744,7.108 0.744,6.508 C0.744,5.608 1.122,4.918 1.877,4.442 C2.632,3.966 3.693,3.733 5.062,3.743 L5.062,3.606 C5.062,2.633 4.55,2.147 3.527,2.147 C2.797,2.147 2.153,2.329 1.596,2.694 L1.261,1.616 C1.95,1.19 2.796,0.977 3.8,0.977 C5.736,0.977 6.703,1.995 6.703,4.032 L6.703,6.753 C6.703,7.492 6.738,8.08 6.81,8.516 Z M5.106,5.977 L5.106,4.836 C3.293,4.807 2.385,5.303 2.385,6.326 C2.385,6.711 2.49,7 2.702,7.193 C2.914,7.384 3.181,7.482 3.504,7.482 C3.866,7.482 4.201,7.367 4.509,7.138 C4.817,6.911 5.005,6.62 5.075,6.265 C5.097,6.184 5.106,6.088 5.106,5.977 Z" id="path-29"></path>
        <polygon id="path-31" points="4.394 7.216 0.677 7.216 0.677 0.675 1.725 0.675 1.725 6.333 4.394 6.333"></polygon>
        <path d="M3.389,5.216 L3.312,4.673 L3.283,4.673 C2.963,5.11 2.497,5.323 1.905,5.323 C1.06,5.323 0.459,4.731 0.459,3.935 C0.459,2.771 1.468,2.169 3.215,2.169 L3.215,2.082 C3.215,1.461 2.885,1.15 2.235,1.15 C1.77,1.15 1.362,1.267 1.003,1.5 L0.79,0.811 C1.227,0.539 1.77,0.403 2.41,0.403 C3.642,0.403 4.264,1.053 4.264,2.354 L4.264,4.091 C4.264,4.567 4.284,4.936 4.332,5.217 L3.389,5.217 L3.389,5.216 Z M3.244,2.868 C2.08,2.868 1.497,3.15 1.497,3.819 C1.497,4.314 1.798,4.556 2.216,4.556 C2.749,4.556 3.244,4.149 3.244,3.596 L3.244,2.868 Z" id="path-33"></path>
        <path d="M3.471,2.286 L2.317,2.286 L2.317,4.576 C2.317,5.159 2.521,5.45 2.928,5.45 C3.113,5.45 3.268,5.43 3.394,5.401 L3.423,6.197 C3.219,6.275 2.947,6.314 2.608,6.314 C1.783,6.314 1.289,5.858 1.289,4.664 L1.289,2.287 L0.6,2.287 L0.6,1.5 L1.289,1.5 L1.289,0.636 L2.317,0.325 L2.317,1.5 L3.471,1.5 L3.471,2.286 Z" id="path-35"></path>
        <path d="M3.517,5.216 L3.44,4.673 L3.411,4.673 C3.091,5.11 2.625,5.323 2.033,5.323 C1.188,5.323 0.587,4.731 0.587,3.935 C0.587,2.771 1.596,2.169 3.343,2.169 L3.343,2.082 C3.343,1.461 3.013,1.15 2.364,1.15 C1.897,1.15 1.49,1.267 1.131,1.5 L0.918,0.811 C1.355,0.539 1.897,0.403 2.538,0.403 C3.77,0.403 4.392,1.053 4.392,2.354 L4.392,4.091 C4.392,4.567 4.412,4.936 4.46,5.217 L3.517,5.217 L3.517,5.216 Z M3.372,2.868 C2.207,2.868 1.625,3.15 1.625,3.819 C1.625,4.314 1.926,4.556 2.344,4.556 C2.877,4.556 3.372,4.149 3.372,3.596 L3.372,2.868 Z" id="path-37"></path>
        <path d="M3.813,5.216 L3.736,4.673 L3.707,4.673 C3.387,5.11 2.921,5.323 2.329,5.323 C1.484,5.323 0.883,4.731 0.883,3.935 C0.883,2.771 1.892,2.169 3.639,2.169 L3.639,2.082 C3.639,1.461 3.309,1.15 2.659,1.15 C2.194,1.15 1.786,1.267 1.427,1.5 L1.214,0.811 C1.651,0.539 2.194,0.403 2.834,0.403 C4.066,0.403 4.688,1.053 4.688,2.354 L4.688,4.091 C4.688,4.567 4.708,4.936 4.756,5.217 L3.813,5.217 L3.813,5.216 Z M3.667,2.868 C2.503,2.868 1.92,3.15 1.92,3.819 C1.92,4.314 2.221,4.556 2.639,4.556 C3.172,4.556 3.667,4.149 3.667,3.596 L3.667,2.868 Z" id="path-39"></path>
    </defs>
    <g id="Page-1" stroke="none" stroke-width="1" fill="none" fill-rule="evenodd">
        <g id="Download_on_the_App_Store_Badge_fi_135x40">
            <g id="Group-3">
                <mask id="mask-2" fill="white">
                    <use xlink:href="#path-1"></use>
                </mask>
                <g id="Clip-2"></g>
                <polygon id="Fill-1" fill="#A6A6A6" mask="url(#mask-2)" points="-5 45 140 45 140 -5 -5 -5"></polygon>
            </g>
            <g id="Group-6">
                <mask id="mask-4" fill="white">
                    <use xlink:href="#path-3"></use>
                </mask>
                <g id="Clip-5"></g>
                <polygon id="Fill-4" fill="#000000" mask="url(#mask-4)" points="-4.11 44.098 139.032 44.098 139.032 -4.11 -4.11 -4.11"></polygon>
            </g>
            <g id="Group-9" transform="translate(12.000000, 12.000000)">
                <mask id="mask-6" fill="white">
                    <use xlink:href="#path-5"></use>
                </mask>
                <g id="Clip-8"></g>
                <polygon id="Fill-7" fill="#FFFFFF" mask="url(#mask-6)" points="-4.208096 24.728565 26.548004 24.728565 26.548004 -4.629105 -4.208096 -4.629105"></polygon>
            </g>
            <g id="Group-12" transform="translate(23.000000, 6.000000)">
                <mask id="mask-8" fill="white">
                    <use xlink:href="#path-7"></use>
                </mask>
                <g id="Clip-11"></g>
                <polygon id="Fill-10" fill="#FFFFFF" mask="url(#mask-8)" points="-4.89359 11.1082 10.26172 11.1082 10.26172 -4.783 -4.89359 -4.783"></polygon>
            </g>
            <g id="Group-15" transform="translate(42.000000, 21.000000)">
                <mask id="mask-10" fill="white">
                    <use xlink:href="#path-9"></use>
                </mask>
                <g id="Clip-14"></g>
                <polygon id="Fill-13" fill="#FFFFFF" mask="url(#mask-10)" points="-4.506 15.516 14.143 15.516 14.143 -4.73 -4.506 -4.73"></polygon>
            </g>
            <g id="Group-18" transform="translate(52.000000, 23.000000)">
                <mask id="mask-12" fill="white">
                    <use xlink:href="#path-11"></use>
                </mask>
                <g id="Clip-17"></g>
                <polygon id="Fill-16" fill="#FFFFFF" mask="url(#mask-12)" points="-4.506 16.51 12.608 16.51 12.608 -4.023 -4.506 -4.023"></polygon>
            </g>
            <g id="Group-21" transform="translate(60.000000, 23.000000)">
                <mask id="mask-14" fill="white">
                    <use xlink:href="#path-13"></use>
                </mask>
                <g id="Clip-20"></g>
                <polygon id="Fill-19" fill="#FFFFFF" mask="url(#mask-14)" points="-4.009 16.51 13.105 16.51 13.105 -4.023 -4.009 -4.023"></polygon>
            </g>
            <g id="Group-24" transform="translate(71.000000, 21.000000)">
                <mask id="mask-16" fill="white">
                    <use xlink:href="#path-15"></use>
                </mask>
                <g id="Clip-23"></g>
                <polygon id="Fill-22" fill="#FFFFFF" mask="url(#mask-16)" points="-4.748 15.668 11.605 15.668 11.605 -4.881 -4.748 -4.881"></polygon>
            </g>
            <g id="Group-27" transform="translate(78.000000, 22.000000)">
                <mask id="mask-18" fill="white">
                    <use xlink:href="#path-17"></use>
                </mask>
                <g id="Clip-26"></g>
                <polygon id="Fill-25" fill="#FFFFFF" mask="url(#mask-18)" points="-4.454 14.668 10.046 14.668 10.046 -4.711 -4.454 -4.711"></polygon>
            </g>
            <g id="Group-30" transform="translate(83.000000, 23.000000)">
                <mask id="mask-20" fill="white">
                    <use xlink:href="#path-19"></use>
                </mask>
                <g id="Clip-29"></g>
                <polygon id="Fill-28" fill="#FFFFFF" mask="url(#mask-20)" points="-4.043 13.682 13.193 13.682 13.193 -4.023 -4.043 -4.023"></polygon>
            </g>
            <g id="Group-33" transform="translate(92.000000, 23.000000)">
                <mask id="mask-22" fill="white">
                    <use xlink:href="#path-21"></use>
                </mask>
                <g id="Clip-32"></g>
                <polygon id="Fill-31" fill="#FFFFFF" mask="url(#mask-22)" points="-4.424 13.515 9.529 13.515 9.529 -4.024 -4.424 -4.024"></polygon>
            </g>
            <g id="Group-36" transform="translate(97.000000, 23.000000)">
                <mask id="mask-24" fill="white">
                    <use xlink:href="#path-23"></use>
                </mask>
                <g id="Clip-35"></g>
                <polygon id="Fill-34" fill="#FFFFFF" mask="url(#mask-24)" points="-4.698 13.653 11.869 13.653 11.869 -4.039 -4.698 -4.039"></polygon>
            </g>
            <g id="Group-39" transform="translate(105.000000, 23.000000)">
                <mask id="mask-26" fill="white">
                    <use xlink:href="#path-25"></use>
                </mask>
                <g id="Clip-38"></g>
                <polygon id="Fill-37" fill="#FFFFFF" mask="url(#mask-26)" points="-4.945 13.668 10.057 13.668 10.057 -4.024 -4.945 -4.024"></polygon>
            </g>
            <g id="Group-42" transform="translate(111.000000, 22.000000)">
                <mask id="mask-28" fill="white">
                    <use xlink:href="#path-27"></use>
                </mask>
                <g id="Clip-41"></g>
                <polygon id="Fill-40" fill="#FFFFFF" mask="url(#mask-28)" points="-4.881 14.668 9.619 14.668 9.619 -4.711 -4.881 -4.711"></polygon>
            </g>
            <g id="Group-45" transform="translate(116.000000, 23.000000)">
                <mask id="mask-30" fill="white">
                    <use xlink:href="#path-29"></use>
                </mask>
                <g id="Clip-44"></g>
                <polygon id="Fill-43" fill="#FFFFFF" mask="url(#mask-30)" points="-4.256 13.682 11.81 13.682 11.81 -4.023 -4.256 -4.023"></polygon>
            </g>
            <g id="Group-48" transform="translate(43.000000, 9.000000)">
                <mask id="mask-32" fill="white">
                    <use xlink:href="#path-31"></use>
                </mask>
                <g id="Clip-47"></g>
                <polygon id="Fill-46" fill="#FFFFFF" mask="url(#mask-32)" points="-4.323 12.216 9.394 12.216 9.394 -4.325 -4.323 -4.325"></polygon>
            </g>
            <g id="Group-51" transform="translate(48.000000, 11.000000)">
                <mask id="mask-34" fill="white">
                    <use xlink:href="#path-33"></use>
                </mask>
                <g id="Clip-50"></g>
                <polygon id="Fill-49" fill="#FFFFFF" mask="url(#mask-34)" points="-4.541 10.323 9.332 10.323 9.332 -4.597 -4.541 -4.597"></polygon>
            </g>
            <g id="Group-54" transform="translate(53.000000, 10.000000)">
                <mask id="mask-36" fill="white">
                    <use xlink:href="#path-35"></use>
                </mask>
                <g id="Clip-53"></g>
                <polygon id="Fill-52" fill="#FFFFFF" mask="url(#mask-36)" points="-4.4 11.314 8.471 11.314 8.471 -4.675 -4.4 -4.675"></polygon>
            </g>
            <g id="Group-57" transform="translate(57.000000, 11.000000)">
                <mask id="mask-38" fill="white">
                    <use xlink:href="#path-37"></use>
                </mask>
                <g id="Clip-56"></g>
                <polygon id="Fill-55" fill="#FFFFFF" mask="url(#mask-38)" points="-4.413 10.323 9.46 10.323 9.46 -4.597 -4.413 -4.597"></polygon>
            </g>
            <g id="Group-60" transform="translate(62.000000, 11.000000)">
                <mask id="mask-40" fill="white">
                    <use xlink:href="#path-39"></use>
                </mask>
                <g id="Clip-59"></g>
                <polygon id="Fill-58" fill="#FFFFFF" mask="url(#mask-40)" points="-4.117 10.323 9.756 10.323 9.756 -4.597 -4.117 -4.597"></polygon>
            </g>
        </g>
    </g>
</svg>