<svg xmlns="http://www.w3.org/2000/svg" xmlns:xlink="http://www.w3.org/1999/xlink" viewBox="0 0 135 40"><defs><style>.cls-1{fill:#a5a5a5;}.cls-10,.cls-2,.cls-9{fill:#fff;}.cls-3{fill:url(#linear-gradient);}.cls-4{fill:url(#linear-gradient-2);}.cls-5{fill:url(#linear-gradient-3);}.cls-6{fill:url(#linear-gradient-4);}.cls-7{opacity:0.2;}.cls-7,.cls-8,.cls-9{isolation:isolate;}.cls-8{opacity:0.12;}.cls-9{opacity:0.25;}.cls-10{stroke:#fff;stroke-miterlimit:10;stroke-width:0.2px;}</style><linearGradient id="linear-gradient" x1="21.8" y1="506.71" x2="5.02" y2="523.49" gradientTransform="translate(0 -498)" gradientUnits="userSpaceOnUse"><stop offset="0" stop-color="#00a0ff"/><stop offset="0.01" stop-color="#00a1ff"/><stop offset="0.26" stop-color="#00beff"/><stop offset="0.51" stop-color="#00d2ff"/><stop offset="0.76" stop-color="#00dfff"/><stop offset="1" stop-color="#00e3ff"/></linearGradient><linearGradient id="linear-gradient-2" x1="33.83" y1="518" x2="9.64" y2="518" gradientTransform="translate(0 -498)" gradientUnits="userSpaceOnUse"><stop offset="0" stop-color="#ffe000"/><stop offset="0.41" stop-color="#ffbd00"/><stop offset="0.78" stop-color="orange"/><stop offset="1" stop-color="#ff9c00"/></linearGradient><linearGradient id="linear-gradient-3" x1="24.83" y1="520.3" x2="2.07" y2="543.05" gradientTransform="translate(0 -498)" gradientUnits="userSpaceOnUse"><stop offset="0" stop-color="#ff3a44"/><stop offset="1" stop-color="#c31162"/></linearGradient><linearGradient id="linear-gradient-4" x1="7.3" y1="498.18" x2="17.46" y2="508.34" gradientTransform="translate(0 -498)" gradientUnits="userSpaceOnUse"><stop offset="0" stop-color="#32a071"/><stop offset="0.07" stop-color="#2da771"/><stop offset="0.48" stop-color="#15cf74"/><stop offset="0.8" stop-color="#06e775"/><stop offset="1" stop-color="#00f076"/></linearGradient></defs><title>Asset 3</title><g id="Layer_2" data-name="Layer 2"><g id="artwork"><rect width="135" height="40" rx="5" ry="5"/><path class="cls-1" d="M130,.8A4.2,4.2,0,0,1,134.2,5V35a4.2,4.2,0,0,1-4.2,4.2H5A4.2,4.2,0,0,1,.8,35h0V5A4.2,4.2,0,0,1,5,.8H130m0-.8H5A5,5,0,0,0,0,5V35a5,5,0,0,0,5,5H130a5,5,0,0,0,5-5V5A5,5,0,0,0,130,0Z"/><path class="cls-2" d="M64.72,12.79a3.72,3.72,0,1,0,3.73,3.72,3.66,3.66,0,0,0-3.6-3.72Zm0,6a2.26,2.26,0,1,1,2.09-2.41q0,.08,0,.16a2.15,2.15,0,0,1-2.08,2.22h0Zm-8.14-6a3.72,3.72,0,1,0,3.73,3.72,3.66,3.66,0,0,0-3.6-3.72Zm0,6a2.26,2.26,0,1,1,2.09-2.41q0,.08,0,.16a2.15,2.15,0,0,1-2.08,2.22h0ZM46.9,13.93v1.58h3.77a3.29,3.29,0,0,1-.86,2,3.86,3.86,0,0,1-2.91,1.15,4.2,4.2,0,0,1,0-8.39,4,4,0,0,1,2.84,1.13l1.11-1.11a5.5,5.5,0,0,0-4-1.59,5.78,5.78,0,1,0,0,11.55,5.28,5.28,0,0,0,4-1.62,5.21,5.21,0,0,0,1.37-3.69,5.14,5.14,0,0,0-.08-1Zm39.6,1.23a3.46,3.46,0,0,0-3.18-2.37,3.53,3.53,0,0,0-3.52,3.54q0,.09,0,.18a3.64,3.64,0,0,0,3.56,3.72h.13a3.7,3.7,0,0,0,3.1-1.65l-1.27-.84a2.12,2.12,0,0,1-1.83,1,1.89,1.89,0,0,1-1.8-1.13l5-2.06ZM81.43,16.4a2,2,0,0,1,1.82-2.16h.12a1.44,1.44,0,0,1,1.38.79Zm-4,3.61H79V9.07H77.39Zm-2.68-6.38h-.06a2.58,2.58,0,0,0-2-.83,3.72,3.72,0,1,0,0,7.44,2.53,2.53,0,0,0,2-.84h.06v.54a1.91,1.91,0,0,1-2,2.18,2.06,2.06,0,0,1-1.87-1.32l-1.42.59a3.54,3.54,0,0,0,3.3,2.2c1.92,0,3.53-1.13,3.53-3.87V13H74.72Zm-1.87,5.14a2.26,2.26,0,0,1,0-4.51,2.1,2.1,0,0,1,2,2.19v.08A2.08,2.08,0,0,1,73,18.75h-.08ZM94.19,9.08H90.28V20h1.63V15.86h2.28a3.4,3.4,0,1,0,.37-6.79h-.37Zm0,5.27H91.87V10.59h2.32a1.87,1.87,0,0,1,0,3.75h0Zm10.08-1.57a3.06,3.06,0,0,0-2.91,1.67l1.45.6a1.55,1.55,0,0,1,1.49-.8,1.57,1.57,0,0,1,1.7,1.4v.11a3.61,3.61,0,0,0-1.7-.42c-1.56,0-3.15.86-3.15,2.46a2.52,2.52,0,0,0,2.63,2.4h.08A2.3,2.3,0,0,0,106,19.14h0V20h1.57V15.79c0-1.94-1.42-3-3.29-3Zm-.2,6c-.53,0-1.28-.27-1.28-.93,0-.84.93-1.17,1.73-1.17A2.91,2.91,0,0,1,106,17a2,2,0,0,1-1.92,1.76ZM113.33,13l-1.87,4.74h-.06L109.46,13H107.7l2.91,6.62L109,23.31h1.7L115.14,13ZM98.64,20h1.63V9.07H98.64Z"/><path class="cls-3" d="M10.44,7.54A2,2,0,0,0,10,8.94V31.06a2,2,0,0,0,.46,1.4l.07.07L22.9,20.15v-.29L10.51,7.47Z"/><path class="cls-4" d="M27,24.28l-4.1-4.13v-.29L27,15.72l.09,0L32,18.56c1.4.79,1.4,2.09,0,2.89l-4.89,2.78Z"/><path class="cls-5" d="M27.12,24.22,22.9,20,10.44,32.46a1.63,1.63,0,0,0,2.08.06l14.61-8.3"/><path class="cls-6" d="M27.12,15.78,12.51,7.48a1.63,1.63,0,0,0-2.08.06L22.9,20Z"/><path class="cls-7" d="M27,24.13,12.51,32.38a1.67,1.67,0,0,1-2,0h0l-.07.07h0l.07.07h0a1.66,1.66,0,0,0,2,0l14.61-8.3Z"/><path class="cls-8" d="M32,21.3l-5,2.83.09.09L32,21.44A1.75,1.75,0,0,0,33,20h0A1.86,1.86,0,0,1,32,21.3Z"/><path class="cls-9" d="M12.51,7.62,32,18.7A1.86,1.86,0,0,1,33,20h0a1.75,1.75,0,0,0-1-1.44L12.51,7.48C11.11,6.69,10,7.35,10,8.95V9.1C10,7.49,11.12,6.83,12.51,7.62Z"/><g id="Layer_3" data-name="Layer 3"><path class="cls-10" d="M45.27,33H44.5l-1.32-3.88a1.15,1.15,0,0,0-.63.31,1.89,1.89,0,0,0-.38.72,10,10,0,0,0-.31,1.43h-.73a8.46,8.46,0,0,1,.37-1.66,2.51,2.51,0,0,1,.57-1,1.67,1.67,0,0,1,.91-.43l-.43-1.24h.76Z"/><path class="cls-10" d="M48.2,32.46a3.23,3.23,0,0,1-.81-1.29,4.86,4.86,0,0,1-.3-1.7,2.8,2.8,0,0,1,.44-1.66,1.4,1.4,0,0,1,1.21-.61,1.66,1.66,0,0,1,.73.15,1.1,1.1,0,0,1,.47.43,1.19,1.19,0,0,1,.17.62,1.21,1.21,0,0,1-.58,1.09,3.14,3.14,0,0,1-1.68.37,4.47,4.47,0,0,0,.32,1.34,2.55,2.55,0,0,0,.63.93,1.14,1.14,0,0,0,.76.34.93.93,0,0,0,.77-.34,1.48,1.48,0,0,0,.28-1v-.3h.73v.23a2,2,0,0,1-.45,1.41,1.74,1.74,0,0,1-1.34.48H47.13a1,1,0,0,1-.27.46.58.58,0,0,1-.4.18h-.15l.13-.9-.13-.91h.15a.58.58,0,0,1,.4.18,1,1,0,0,1,.27.46Zm.57-4.72a.79.79,0,0,0-.7.41,2,2,0,0,0-.26,1.09v0A2.67,2.67,0,0,0,49,29.08.78.78,0,0,0,49.23,28l-.05-.07A.57.57,0,0,0,48.77,27.74Z"/><path class="cls-10" d="M55.74,33a1,1,0,0,1-.27.46.58.58,0,0,1-.4.18h-.15l.13-.9-.13-.91h.15a.58.58,0,0,1,.4.18,1,1,0,0,1,.27.46h.87v-.23a4.54,4.54,0,0,0-.12-1.09,3.76,3.76,0,0,0-.37-.92q-.27-.48-.38-.72a3.13,3.13,0,0,1-.17-.47,1.81,1.81,0,0,1-.06-.46,1.34,1.34,0,0,1,.38-1,1.38,1.38,0,0,1,1-.37,1.53,1.53,0,0,1,1.08.35,1.29,1.29,0,0,1,.38,1,1.36,1.36,0,0,1-.43,1,1.74,1.74,0,0,1-1.09.47,4.82,4.82,0,0,1,.38,1,4.41,4.41,0,0,1,.11,1v1Zm1.19-5.25a.66.66,0,0,0-.51.21.82.82,0,0,0-.19.57,1.71,1.71,0,0,0,.36,1,1.32,1.32,0,0,0,.79-.32.91.91,0,0,0,.27-.68.84.84,0,0,0-.19-.58.66.66,0,0,0-.52-.2Z"/><path class="cls-10" d="M64.09,30a4.09,4.09,0,0,0-.16-1.34,1.1,1.1,0,0,0-.54-.62,2.51,2.51,0,0,0-1.09-.2,1.1,1.1,0,0,1,.14.57,1.06,1.06,0,0,1-.37.85,1.79,1.79,0,0,1-2,0,1.07,1.07,0,0,1-.37-.85,1,1,0,0,1,.35-.82,1.62,1.62,0,0,1,1-.28h1.13a4.19,4.19,0,0,1,1.61.24,1.5,1.5,0,0,1,.78.77,3.61,3.61,0,0,1,.24,1.47V33h-.73Zm-3-2.23a.68.68,0,0,0-.49.17.62.62,0,0,0-.18.47.73.73,0,0,0,.19.52.69.69,0,0,0,1,0l0,0a.73.73,0,0,0,.19-.52.62.62,0,0,0-.18-.47.68.68,0,0,0-.56-.19Z"/><path class="cls-10" d="M69.54,29.1v1.14H71l.16,1.17H71a.58.58,0,0,1-.41-.18,1,1,0,0,1-.27-.46h-.74V33h-.73V29.66a1.43,1.43,0,0,1-1-.38,1.62,1.62,0,0,1-.31-1.09v-.45h-.7a.83.83,0,0,1-.26.41.62.62,0,0,1-.41.15H66l.13-.79L66,26.72h.15a.63.63,0,0,1,.4.15.85.85,0,0,1,.27.41H68.9a.8.8,0,0,1,.26-.41.63.63,0,0,1,.41-.16h.15l-.13.79.13.79h-.15a.63.63,0,0,1-.42-.16.78.78,0,0,1-.26-.4H68.2v.43a1.49,1.49,0,0,0,.08.56.53.53,0,0,0,.25.29,1.35,1.35,0,0,0,.57.09Z"/><path class="cls-10" d="M74.67,28.21v1h1.54l.16,1.17h-.15a.59.59,0,0,1-.41-.18,1,1,0,0,1-.27-.46h-.87V33h-.73V29.72h-.88a1,1,0,0,1-.26.45.58.58,0,0,1-.42.19h-.15l.16-1.17h1.55v-.41a1.88,1.88,0,0,1-.79-.19,1,1,0,0,1-.41-.47,2.12,2.12,0,0,1-.14-.83v-.37h.73v.37a1.45,1.45,0,0,0,.08.54.55.55,0,0,0,.24.29,1.32,1.32,0,0,0,.58.09Z"/></g></g></g></svg>