<svg xmlns="http://www.w3.org/2000/svg" xmlns:xlink="http://www.w3.org/1999/xlink" viewBox="0 0 135 40"><defs><style>.cls-1{fill:#a6a6a6;}.cls-10,.cls-2,.cls-9{fill:#fff;}.cls-3{fill:url(#linear-gradient);}.cls-4{fill:url(#linear-gradient-2);}.cls-5{fill:url(#linear-gradient-3);}.cls-6{fill:url(#linear-gradient-4);}.cls-7{opacity:0.2;}.cls-7,.cls-8,.cls-9{isolation:isolate;}.cls-8{opacity:0.12;}.cls-9{opacity:0.25;}.cls-10{stroke:#fff;stroke-miterlimit:10;stroke-width:0.2px;}</style><linearGradient id="linear-gradient" x1="21.8" y1="366.71" x2="5.02" y2="383.49" gradientTransform="translate(0 -358)" gradientUnits="userSpaceOnUse"><stop offset="0" stop-color="#00a0ff"/><stop offset="0.01" stop-color="#00a1ff"/><stop offset="0.26" stop-color="#00beff"/><stop offset="0.51" stop-color="#00d2ff"/><stop offset="0.76" stop-color="#00dfff"/><stop offset="1" stop-color="#00e3ff"/></linearGradient><linearGradient id="linear-gradient-2" x1="33.83" y1="378" x2="9.64" y2="378" gradientTransform="translate(0 -358)" gradientUnits="userSpaceOnUse"><stop offset="0" stop-color="#ffe000"/><stop offset="0.41" stop-color="#ffbd00"/><stop offset="0.78" stop-color="orange"/><stop offset="1" stop-color="#ff9c00"/></linearGradient><linearGradient id="linear-gradient-3" x1="24.83" y1="380.3" x2="2.07" y2="403.05" gradientTransform="translate(0 -358)" gradientUnits="userSpaceOnUse"><stop offset="0" stop-color="#ff3a44"/><stop offset="1" stop-color="#c31162"/></linearGradient><linearGradient id="linear-gradient-4" x1="7.3" y1="358.18" x2="17.46" y2="368.34" gradientTransform="translate(0 -358)" gradientUnits="userSpaceOnUse"><stop offset="0" stop-color="#32a071"/><stop offset="0.07" stop-color="#2da771"/><stop offset="0.48" stop-color="#15cf74"/><stop offset="0.8" stop-color="#06e775"/><stop offset="1" stop-color="#00f076"/></linearGradient></defs><title>Asset 1</title><g id="Layer_2" data-name="Layer 2"><g id="artwork"><rect width="135" height="40" rx="5" ry="5"/><path class="cls-1" d="M130,.8A4.2,4.2,0,0,1,134.2,5V35a4.2,4.2,0,0,1-4.2,4.2H5A4.2,4.2,0,0,1,.8,35h0V5A4.2,4.2,0,0,1,5,.8H130m0-.8H5A5,5,0,0,0,0,5V35a5,5,0,0,0,5,5H130a5,5,0,0,0,5-5V5A5,5,0,0,0,130,0Z"/><path class="cls-2" d="M68.14,21.75A4.25,4.25,0,1,0,72.41,26a4.19,4.19,0,0,0-4.13-4.25Zm0,6.83a2.58,2.58,0,1,1,2.39-2.75q0,.09,0,.17a2.46,2.46,0,0,1-2.34,2.58Zm-9.31-6.83A4.25,4.25,0,1,0,63.09,26,4.19,4.19,0,0,0,59,21.75h-.13Zm0,6.83a2.58,2.58,0,1,1,2.38-2.76q0,.09,0,.18a2.46,2.46,0,0,1-2.34,2.58h-.05ZM47.74,23.06v1.8h4.32a3.77,3.77,0,0,1-1,2.27,4.42,4.42,0,0,1-3.33,1.32,4.8,4.8,0,0,1,0-9.6A4.6,4.6,0,0,1,51,20.14l1.27-1.27A6.29,6.29,0,0,0,47.74,17a6.61,6.61,0,1,0-.51,13.21h.51a5.84,5.84,0,0,0,6.17-6.07,5.87,5.87,0,0,0-.1-1.13Zm45.31,1.4a3.92,3.92,0,0,0-7.65,1.28q0,.13,0,.26a4.16,4.16,0,0,0,4.07,4.25h.15a4.23,4.23,0,0,0,3.54-1.88l-1.45-1a2.43,2.43,0,0,1-2.09,1.18,2.16,2.16,0,0,1-2.06-1.29l5.69-2.35Zm-5.8,1.42a2.33,2.33,0,0,1,2.17-2.48h0a1.65,1.65,0,0,1,1.58.9ZM82.63,30H84.5V17.5H82.63Zm-3.06-7.3H79.5a3,3,0,0,0-2.24-1,4.26,4.26,0,0,0,0,8.51,2.9,2.9,0,0,0,2.24-1h.06v.61c0,1.63-.87,2.5-2.27,2.5a2.35,2.35,0,0,1-2.14-1.51l-1.63.68A4.05,4.05,0,0,0,77.29,34c2.19,0,4-1.29,4-4.43V22H79.57Zm-2.14,5.88a2.59,2.59,0,0,1,0-5.16,2.4,2.4,0,0,1,2.27,2.52V26a2.38,2.38,0,0,1-2.17,2.57h-.1ZM101.81,17.5H97.34V30h1.87V25.26h2.61a3.89,3.89,0,1,0,0-7.76Zm0,6H99.2V19.24h2.65a2.14,2.14,0,0,1,0,4.29Zm11.53-1.8A3.5,3.5,0,0,0,110,23.61l1.66.69a1.77,1.77,0,0,1,1.7-.92,1.8,1.8,0,0,1,2,1.58v.16a4.13,4.13,0,0,0-1.95-.48c-1.79,0-3.6,1-3.6,2.81a2.89,2.89,0,0,0,3,2.75h.08a2.63,2.63,0,0,0,2.4-1.2h.06v1h1.8V25.19c0-2.19-1.66-3.46-3.79-3.46Zm-.23,6.85c-.61,0-1.46-.31-1.46-1.06,0-1,1.06-1.33,2-1.33a3.32,3.32,0,0,1,1.7.42,2.26,2.26,0,0,1-2.19,2ZM123.74,22l-2.14,5.42h-.06L119.32,22h-2l3.33,7.58-1.9,4.21h1.95L125.82,22Zm-16.81,8h1.87V17.5h-1.87Z"/><path class="cls-3" d="M10.44,7.54A2,2,0,0,0,10,8.94V31.06a2,2,0,0,0,.46,1.4l.07.07L22.9,20.15v-.29L10.51,7.47Z"/><path class="cls-4" d="M27,24.28l-4.1-4.13v-.29L27,15.72l.09,0L32,18.56c1.4.79,1.4,2.09,0,2.89l-4.89,2.78Z"/><path class="cls-5" d="M27.12,24.22,22.9,20,10.44,32.46a1.63,1.63,0,0,0,2.08.06l14.61-8.3"/><path class="cls-6" d="M27.12,15.78,12.51,7.48a1.63,1.63,0,0,0-2.08.06L22.9,20Z"/><path class="cls-7" d="M27,24.13,12.51,32.38a1.67,1.67,0,0,1-2,0h0l-.07.07h0l.07.07h0a1.66,1.66,0,0,0,2,0l14.61-8.3Z"/><path class="cls-8" d="M10.44,32.32a2,2,0,0,1-.46-1.4v.15a2,2,0,0,0,.46,1.4l.07-.07Z"/><path class="cls-8" d="M32,21.3l-5,2.83.09.09L32,21.44A1.75,1.75,0,0,0,33,20h0A1.86,1.86,0,0,1,32,21.3Z"/><path class="cls-9" d="M12.51,7.62,32,18.7A1.86,1.86,0,0,1,33,20h0a1.75,1.75,0,0,0-1-1.44L12.51,7.48C11.11,6.69,10,7.35,10,8.95V9.1C10,7.49,11.12,6.83,12.51,7.62Z"/><path class="cls-10" d="M70.43,14.51A2,2,0,0,1,69,14a2.1,2.1,0,0,1-.53-1.53,4.18,4.18,0,0,1,0-.6,5.2,5.2,0,0,1,.17-.82l.4.1a3.3,3.3,0,0,0-.12.78,1.81,1.81,0,0,0,.4,1.25,1.43,1.43,0,0,0,1.12.45,3.67,3.67,0,0,0,1.63-.4,2.2,2.2,0,0,0,1.08-1,6.73,6.73,0,0,1-.72-2.1.88.88,0,0,1,.16-.52,1.8,1.8,0,0,1,.56-.47,7.29,7.29,0,0,0,.25,1.42h0a1.77,1.77,0,0,0,.8.18.08.08,0,0,1,.09.09v.66a.08.08,0,0,1-.07.09h0a1.59,1.59,0,0,1-.67-.13v.32a2.23,2.23,0,0,1-.43,1.29,3.23,3.23,0,0,1-1.18,1A3.28,3.28,0,0,1,70.43,14.51Zm.88-6a5.59,5.59,0,0,1-.71.81,6.81,6.81,0,0,1-.79-.71q.56-.56.77-.81a9,9,0,0,0,.72.7Z"/><path class="cls-10" d="M74.28,11.63a.08.08,0,0,1-.09-.09v-.66a.08.08,0,0,1,.07-.09h0a1.2,1.2,0,0,0,.71-.2,1.63,1.63,0,0,0,.5-.62l.22-.44a4.13,4.13,0,0,1,.83-1.27,1.29,1.29,0,0,1,.89-.37.87.87,0,0,1,.64.39,3,3,0,0,1,.52,1,3.93,3.93,0,0,1,.2,1.19,1.35,1.35,0,0,1-.55,1.14,5.91,5.91,0,0,1-1.41-.18A4.71,4.71,0,0,1,75.57,11a1.46,1.46,0,0,1-1.29.66Zm3.7-.84a4,4,0,0,0-.26-1.31q-.24-.62-.47-.62a.69.69,0,0,0-.39.12,1.5,1.5,0,0,0-.37.38,7.67,7.67,0,0,0-.49.87,5.28,5.28,0,0,0,2,.56Z"/><path class="cls-10" d="M84.78,11.2a7.47,7.47,0,0,1-.83-.1,3.4,3.4,0,0,1-.47-.15,3.8,3.8,0,0,1-.5-.24,1.76,1.76,0,0,1-.39-.28.38.38,0,0,1-.13-.25,1.57,1.57,0,0,1,.15-.5,4.81,4.81,0,0,1,.24-.52,2.44,2.44,0,0,1,.73-.71,5.7,5.7,0,0,1,1.19-.65V7.5a4.27,4.27,0,0,1,.8-.57l.1,3.57a2.23,2.23,0,0,0,1.14.29.08.08,0,0,1,.09.09v.66a.08.08,0,0,1-.07.09h0a2.06,2.06,0,0,1-1.08-.25,1,1,0,0,1-.48-.71v-.23ZM83,9.67a2.28,2.28,0,0,0,1,.5,5.71,5.71,0,0,0,1.19.13l-.28-1.77h0A4,4,0,0,0,83,9.67Z"/><path class="cls-10" d="M89.77,9.12a.45.45,0,0,1,.27.09q-.2.48-.35.8a3,3,0,0,1-.18.36,2.68,2.68,0,0,0,.69.33,2.51,2.51,0,0,0,.7.09.08.08,0,0,1,.09.09v.66a.08.08,0,0,1-.07.09h0A2.54,2.54,0,0,1,89.16,11l-.18.24a1.94,1.94,0,0,1-.8.26,6.71,6.71,0,0,1-1.35.14.08.08,0,0,1-.09-.09v-.66a.08.08,0,0,1,.07-.09h0A9.55,9.55,0,0,0,88,10.73a1.54,1.54,0,0,0,.67-.2,2.93,2.93,0,0,0,.58-.88l.19-.35A.35.35,0,0,1,89.77,9.12Zm-1,3.89a4.3,4.3,0,0,1-.65.75,5.86,5.86,0,0,1-.73-.67q.29-.27.71-.74Zm1.66-.16a4.29,4.29,0,0,1-.66.75,5.42,5.42,0,0,1-.73-.67q.25-.23.71-.74Z"/><path class="cls-10" d="M91.07,11.63a.08.08,0,0,1-.09-.09v-.66a.08.08,0,0,1,.07-.09h0a2.7,2.7,0,0,0,1.2-.28q-.15-1.16-.35-4.18l-.11-1.47a4.43,4.43,0,0,1,.74-.61q.07,1.51.11,4.74V10.5a2.23,2.23,0,0,0,1.14.29c.06,0,.1,0,.1.09v.66c0,.06,0,.09-.1.09a1.88,1.88,0,0,1-1.26-.39,3.11,3.11,0,0,1-.72.31A3.25,3.25,0,0,1,91.07,11.63Z"/><path class="cls-10" d="M93.9,11.63a.08.08,0,0,1-.09-.09v-.66a.08.08,0,0,1,.07-.09h1.39a1.6,1.6,0,0,1-.46-.47,1.15,1.15,0,0,1-.2-.64,2.22,2.22,0,0,1,.25-1,2.39,2.39,0,0,1,.66-.83,1.35,1.35,0,0,1,.84-.32,1.51,1.51,0,0,1,.73.19,4.81,4.81,0,0,1,.81.59l-.19.35a5,5,0,0,0-.63-.21,2.06,2.06,0,0,0-.44,0,2.94,2.94,0,0,0-1.41.4,1.64,1.64,0,0,0,.89,1.49,2.4,2.4,0,0,0,1,.27,7.69,7.69,0,0,0,.8-.21Q98.3,10.28,99,10a.51.51,0,0,1,.15.39v.11a.55.55,0,0,1-.46.47q-1.31.33-2,.45t-1.38.19Z"/><path class="cls-10" d="M107.34,12.22l-.28-1.78q-.47-2.79-.61-3.89a13.82,13.82,0,0,1-.15-1.45.86.86,0,0,1,.17-.57,1,1,0,0,1,.55-.28v.13l.36,1.18-.26.23V6l.36,3.26q.1.71.15,1.37h0a1.69,1.69,0,0,0,.81.19.08.08,0,0,1,.09.09v.66a.08.08,0,0,1-.07.09h0a1.66,1.66,0,0,1-.75-.18v.36a2.26,2.26,0,0,1-.42,1.3,3.17,3.17,0,0,1-1.17,1,3.25,3.25,0,0,1-1.53.39,2,2,0,0,1-1.47-.54,2.09,2.09,0,0,1-.53-1.53,4.16,4.16,0,0,1,0-.6,4.25,4.25,0,0,1,.17-.82l.4.1a3.35,3.35,0,0,0-.12.78,1.81,1.81,0,0,0,.4,1.25,1.43,1.43,0,0,0,1.12.45,3.53,3.53,0,0,0,1.09-.18,3.44,3.44,0,0,0,1-.5A1.87,1.87,0,0,0,107.34,12.22Z"/><path class="cls-10" d="M117.19,11.63a2.44,2.44,0,0,1-.93-.19,2.17,2.17,0,0,1-.76-.49,4,4,0,0,1-1.2.5,5.62,5.62,0,0,1-1.41.18,8.11,8.11,0,0,1-1.63-.17,4.78,4.78,0,0,1-1.33-.45l-.19.21a1.56,1.56,0,0,1-1.2.4.08.08,0,0,1-.09-.09v-.66a.08.08,0,0,1,.07-.09h0a1.48,1.48,0,0,0,.78-.18,1.93,1.93,0,0,0,.59-.7l.17-.31a.38.38,0,0,1,.35-.19.35.35,0,0,1,.26.1q-.23.56-.33.76a4,4,0,0,0,.55.21q2.1-2.79,3.59-2.79a1.68,1.68,0,0,1,.77.25,3.16,3.16,0,0,1,.82.65,1.12,1.12,0,0,1,.36.7,1.83,1.83,0,0,1-.42,1.19,2.23,2.23,0,0,0,1.17.3c.06,0,.1,0,.1.09v.66C117.28,11.6,117.25,11.63,117.19,11.63ZM113,10.79a5.53,5.53,0,0,0,2.94-.94,2.73,2.73,0,0,0-.8-.9,1.61,1.61,0,0,0-.92-.33,2.28,2.28,0,0,0-1.24.51,8.81,8.81,0,0,0-1.56,1.5A8.66,8.66,0,0,0,113,10.79Z"/><path class="cls-10" d="M117.24,11.63a.08.08,0,0,1-.09-.09v-.66a.08.08,0,0,1,.07-.09h0a9.15,9.15,0,0,0,2.54-.28l.61-.21a6.28,6.28,0,0,1,1.11-.3,4.82,4.82,0,0,1-.85-.55,4.49,4.49,0,0,0-.72-.49,1.26,1.26,0,0,0-.57-.14,1.71,1.71,0,0,0-.95.27l-.26.16a.58.58,0,0,1-.16-.43.77.77,0,0,1,.37-.67,1.66,1.66,0,0,1,1-.25A1.81,1.81,0,0,1,120,8a4.33,4.33,0,0,1,.83.49,8,8,0,0,0,1,.64,3.28,3.28,0,0,0,.82.3,6,6,0,0,0,1.2.09l-.42.81-.62-.06h-.26a2.33,2.33,0,0,0-.73.11,8.34,8.34,0,0,0-1.08.49,6.09,6.09,0,0,1-1.49.57A10.5,10.5,0,0,1,117.24,11.63Z"/><path class="cls-10" d="M125.25,8v.69q0,1.06-.08,2.88l-.5.09q-.07-3.86-.3-6.4V5.12a.83.83,0,0,1,.17-.56.93.93,0,0,1,.55-.28v.13l.36,1.18-.3.25v.05Q125.25,7,125.25,8Z"/></g></g></svg>