<svg xmlns="http://www.w3.org/2000/svg" xmlns:xlink="http://www.w3.org/1999/xlink" viewBox="0 0 135 40"><defs><style>.cls-1{fill:#a6a6a6;}.cls-10,.cls-2,.cls-9{fill:#fff;}.cls-3{fill:url(#linear-gradient);}.cls-4{fill:url(#linear-gradient-2);}.cls-5{fill:url(#linear-gradient-3);}.cls-6{fill:url(#linear-gradient-4);}.cls-7{opacity:0.2;}.cls-7,.cls-8,.cls-9{isolation:isolate;}.cls-8{opacity:0.12;}.cls-9{opacity:0.25;}.cls-10{stroke:#fff;stroke-miterlimit:10;stroke-width:0.2px;}</style><linearGradient id="linear-gradient" x1="21.8" y1="506.71" x2="5.02" y2="523.49" gradientTransform="translate(0 -498)" gradientUnits="userSpaceOnUse"><stop offset="0" stop-color="#00a0ff"/><stop offset="0.01" stop-color="#00a1ff"/><stop offset="0.26" stop-color="#00beff"/><stop offset="0.51" stop-color="#00d2ff"/><stop offset="0.76" stop-color="#00dfff"/><stop offset="1" stop-color="#00e3ff"/></linearGradient><linearGradient id="linear-gradient-2" x1="33.83" y1="518" x2="9.64" y2="518" gradientTransform="translate(0 -498)" gradientUnits="userSpaceOnUse"><stop offset="0" stop-color="#ffe000"/><stop offset="0.41" stop-color="#ffbd00"/><stop offset="0.78" stop-color="orange"/><stop offset="1" stop-color="#ff9c00"/></linearGradient><linearGradient id="linear-gradient-3" x1="24.83" y1="520.3" x2="2.07" y2="543.05" gradientTransform="translate(0 -498)" gradientUnits="userSpaceOnUse"><stop offset="0" stop-color="#ff3a44"/><stop offset="1" stop-color="#c31162"/></linearGradient><linearGradient id="linear-gradient-4" x1="7.3" y1="498.18" x2="17.46" y2="508.34" gradientTransform="translate(0 -498)" gradientUnits="userSpaceOnUse"><stop offset="0" stop-color="#32a071"/><stop offset="0.07" stop-color="#2da771"/><stop offset="0.48" stop-color="#15cf74"/><stop offset="0.8" stop-color="#06e775"/><stop offset="1" stop-color="#00f076"/></linearGradient></defs><title>Asset 4</title><g id="Layer_2" data-name="Layer 2"><g id="artwork"><rect width="135" height="40" rx="5" ry="5"/><path class="cls-1" d="M130,.8A4.2,4.2,0,0,1,134.2,5V35a4.2,4.2,0,0,1-4.2,4.2H5A4.2,4.2,0,0,1,.8,35h0V5A4.2,4.2,0,0,1,5,.8H130m0-.8H5A5,5,0,0,0,0,5V35a5,5,0,0,0,5,5H130a5,5,0,0,0,5-5V5A5,5,0,0,0,130,0Z"/><path class="cls-2" d="M64.72,12.79a3.72,3.72,0,1,0,3.73,3.72,3.66,3.66,0,0,0-3.6-3.72Zm0,6a2.26,2.26,0,1,1,2.09-2.41q0,.08,0,.16a2.15,2.15,0,0,1-2.08,2.22h0Zm-8.14-6a3.72,3.72,0,1,0,3.73,3.72,3.66,3.66,0,0,0-3.6-3.72Zm0,6a2.26,2.26,0,1,1,2.09-2.41q0,.08,0,.16a2.15,2.15,0,0,1-2.08,2.22h0ZM46.9,13.93v1.58h3.77a3.29,3.29,0,0,1-.86,2,3.86,3.86,0,0,1-2.91,1.15,4.2,4.2,0,0,1,0-8.39,4,4,0,0,1,2.84,1.13l1.11-1.11a5.5,5.5,0,0,0-4-1.59,5.78,5.78,0,1,0,0,11.55,5.28,5.28,0,0,0,4-1.62,5.21,5.21,0,0,0,1.37-3.69,5.14,5.14,0,0,0-.08-1Zm39.6,1.23a3.46,3.46,0,0,0-3.18-2.37,3.53,3.53,0,0,0-3.52,3.54q0,.09,0,.18a3.64,3.64,0,0,0,3.56,3.72h.13a3.7,3.7,0,0,0,3.1-1.65l-1.27-.84a2.12,2.12,0,0,1-1.83,1,1.89,1.89,0,0,1-1.8-1.13l5-2.06ZM81.43,16.4a2,2,0,0,1,1.82-2.16h.12a1.44,1.44,0,0,1,1.38.79Zm-4,3.61H79V9.07H77.39Zm-2.68-6.38h-.06a2.58,2.58,0,0,0-2-.83,3.72,3.72,0,1,0,0,7.44,2.53,2.53,0,0,0,2-.84h.06v.54a1.91,1.91,0,0,1-2,2.18,2.06,2.06,0,0,1-1.87-1.32l-1.42.59a3.54,3.54,0,0,0,3.3,2.2c1.92,0,3.53-1.13,3.53-3.87V13H74.72Zm-1.87,5.14a2.26,2.26,0,0,1,0-4.51,2.1,2.1,0,0,1,2,2.19v.08A2.08,2.08,0,0,1,73,18.75h-.08ZM94.19,9.08H90.28V20h1.63V15.86h2.28a3.4,3.4,0,1,0,.37-6.79h-.37Zm0,5.27H91.87V10.59h2.32a1.87,1.87,0,0,1,0,3.75h0Zm10.08-1.57a3.06,3.06,0,0,0-2.91,1.67l1.45.6a1.55,1.55,0,0,1,1.49-.8,1.57,1.57,0,0,1,1.7,1.4v.11a3.61,3.61,0,0,0-1.7-.42c-1.56,0-3.15.86-3.15,2.46a2.52,2.52,0,0,0,2.63,2.4h.08A2.3,2.3,0,0,0,106,19.14h0V20h1.57V15.79c0-1.94-1.42-3-3.29-3Zm-.2,6c-.53,0-1.28-.27-1.28-.93,0-.84.93-1.17,1.73-1.17A2.91,2.91,0,0,1,106,17a2,2,0,0,1-1.92,1.76ZM113.33,13l-1.87,4.74h-.06L109.46,13H107.7l2.91,6.62L109,23.31h1.7L115.14,13ZM98.64,20h1.63V9.07H98.64Z"/><path class="cls-3" d="M10.44,7.54A2,2,0,0,0,10,8.94V31.06a2,2,0,0,0,.46,1.4l.07.07L22.9,20.15v-.29L10.51,7.47Z"/><path class="cls-4" d="M27,24.28l-4.1-4.13v-.29L27,15.72l.09,0L32,18.56c1.4.79,1.4,2.09,0,2.89l-4.89,2.78Z"/><path class="cls-5" d="M27.12,24.22,22.9,20,10.44,32.46a1.63,1.63,0,0,0,2.08.06l14.61-8.3"/><path class="cls-6" d="M27.12,15.78,12.51,7.48a1.63,1.63,0,0,0-2.08.06L22.9,20Z"/><path class="cls-7" d="M27,24.13,12.51,32.38a1.67,1.67,0,0,1-2,0h0l-.07.07h0l.07.07h0a1.66,1.66,0,0,0,2,0l14.61-8.3Z"/><path class="cls-8" d="M10.44,32.32a2,2,0,0,1-.46-1.4v.15a2,2,0,0,0,.46,1.4l.07-.07Z"/><path class="cls-8" d="M32,21.3l-5,2.83.09.09L32,21.44A1.75,1.75,0,0,0,33,20h0A1.86,1.86,0,0,1,32,21.3Z"/><path class="cls-9" d="M12.51,7.62,32,18.7A1.86,1.86,0,0,1,33,20h0a1.75,1.75,0,0,0-1-1.44L12.51,7.48C11.11,6.69,10,7.35,10,8.95V9.1C10,7.49,11.12,6.83,12.51,7.62Z"/><g id="Layer_3" data-name="Layer 3"><path class="cls-10" d="M42,27l-.17,2.16H41.4L41.23,27Z"/><path class="cls-10" d="M48.34,30a3,3,0,0,1-.81,2.27,3.2,3.2,0,0,1-2.32.78H43.55V27h1.84a3,3,0,0,1,2.17.77A2.91,2.91,0,0,1,48.34,30Zm-.79,0A2.41,2.41,0,0,0,47,28.25a2.25,2.25,0,0,0-1.7-.59h-1v4.69h.81A2.12,2.12,0,0,0,47.55,30Z"/><path class="cls-10" d="M51.81,27.59a5.84,5.84,0,0,0-1.91.34v-.69a5.37,5.37,0,0,1,1-.25,6.36,6.36,0,0,1,1-.07,2.74,2.74,0,0,1,2.12.82A3.22,3.22,0,0,1,54.69,30,3.31,3.31,0,0,1,54,32.27a2.49,2.49,0,0,1-2,.82,2.25,2.25,0,0,1-1.86-.77,3.6,3.6,0,0,1-.62-2.3v-.29H53.9a2.43,2.43,0,0,0-.6-1.6A2,2,0,0,0,51.81,27.59ZM52,32.42a1.74,1.74,0,0,0,1.34-.53,2.36,2.36,0,0,0,.56-1.5H50.32a2.39,2.39,0,0,0,.41,1.54A1.55,1.55,0,0,0,52,32.42Z"/><path class="cls-10" d="M60.51,27.59a5.83,5.83,0,0,0-1.91.34v-.69a5.37,5.37,0,0,1,1-.25,6.36,6.36,0,0,1,1-.07,2.74,2.74,0,0,1,2.12.82A3.22,3.22,0,0,1,63.4,30a3.31,3.31,0,0,1-.71,2.25,2.49,2.49,0,0,1-2,.82,2.25,2.25,0,0,1-1.86-.77,3.6,3.6,0,0,1-.62-2.3v-.29H62.6a2.43,2.43,0,0,0-.6-1.6A2,2,0,0,0,60.51,27.59Zm.19,4.84a1.74,1.74,0,0,0,1.3-.54,2.36,2.36,0,0,0,.56-1.5H59a2.39,2.39,0,0,0,.41,1.54,1.55,1.55,0,0,0,1.29.49Z"/><path class="cls-10" d="M64.9,33V27h.75v5.31h2.61V33Z"/><path class="cls-10" d="M74.25,30a3,3,0,0,1-.81,2.27,3.2,3.2,0,0,1-2.32.78H69.46V27H71.3a3,3,0,0,1,2.17.77A2.91,2.91,0,0,1,74.25,30Zm-.79,0a2.41,2.41,0,0,0-.56-1.73,2.25,2.25,0,0,0-1.7-.59h-1v4.69H71A2.12,2.12,0,0,0,73.45,30Z"/><path class="cls-10" d="M77.71,27.59a5.84,5.84,0,0,0-1.91.34v-.69a5.38,5.38,0,0,1,1-.25,6.36,6.36,0,0,1,1-.07,2.74,2.74,0,0,1,2.12.82A3.22,3.22,0,0,1,80.6,30a3.31,3.31,0,0,1-.71,2.25,2.49,2.49,0,0,1-2,.82A2.25,2.25,0,0,1,76,32.31a3.6,3.6,0,0,1-.62-2.3v-.29H79.8a2.43,2.43,0,0,0-.6-1.6A2,2,0,0,0,77.71,27.59Zm.19,4.84a1.74,1.74,0,0,0,1.34-.53,2.36,2.36,0,0,0,.56-1.5H76.22a2.39,2.39,0,0,0,.41,1.54,1.55,1.55,0,0,0,1.27.48Z"/><path class="cls-10" d="M87.79,33H84.45V27h3.34v.66H85.2v1.87h2.44v.65H85.2v2.14h2.59Z"/><path class="cls-10" d="M94.06,30a3,3,0,0,1-.81,2.27,3.2,3.2,0,0,1-2.32.78H89.27V27h1.84a3,3,0,0,1,2.17.77A2.91,2.91,0,0,1,94.06,30Zm-.79,0a2.41,2.41,0,0,0-.56-1.73,2.25,2.25,0,0,0-1.7-.59H90v4.69h.81A2.12,2.12,0,0,0,93.27,30Z"/><path class="cls-10" d="M97.24,33H95.08v-.43l.7-.16V27.62l-.7-.17V27h2.16v.43l-.7.17v4.79l.7.16Z"/><path class="cls-10" d="M103.31,33h-.88l-3.2-5h0v5h-.7V27h.87l.18.29,2,3,1,1.62h0V27h.7Z"/></g></g></g></svg>