<?xml version="1.0" encoding="UTF-8" standalone="no"?>
<svg width="24px" height="24px" viewBox="0 0 24 24" version="1.1" xmlns="http://www.w3.org/2000/svg" xmlns:xlink="http://www.w3.org/1999/xlink" xmlns:sketch="http://www.bohemiancoding.com/sketch/ns">
    <!-- Generator: Sketch 3.5.2 (25235) - http://www.bohemiancoding.com/sketch -->
    <title>Up_ExitFullScreen</title>
    <desc>Created with Sketch.</desc>
    <defs></defs>
    <g id="Page-1" stroke="none" stroke-width="1" fill="none" fill-rule="evenodd" sketch:type="MSPage">
        <g id="Up_ExitFullScreen" sketch:type="MSArtboardGroup" fill="#7E7E7E">
            <g id="Group-2" sketch:type="MSLayerGroup" transform="translate(3.000000, 3.000000)">
                <path d="M0.385294118,12.9749522 L0.425437487,17.7561797 C0.425437487,18.0796454 0.666297702,18.3323529 0.977408813,18.3323529 L5.87489985,18.3222446 C5.87489985,18.3222446 6.34658444,18.3222446 6.5272296,18.1402952 C6.74801813,17.9179125 6.74801813,17.5439053 6.5272296,17.3215226 L5.17239089,15.835602 L7.21970272,13.8442663 C7.44049125,13.6218836 7.44049125,13.2478764 7.21970272,13.0254937 L5.73439806,11.4991399 C5.51360953,11.2767573 5.16235505,11.2767573 4.94156652,11.4991399 L2.85411132,13.6421002 L1.39891419,12.166288 C1.17812566,11.9439053 0.826871179,11.9439053 0.606082648,12.166288 C0.475616698,12.3078042 0.385294118,12.9749522 0.385294118,12.9749522" id="Fill-2" sketch:type="MSShapeGroup" transform="translate(3.692647, 14.666176) rotate(-180.000000) translate(-3.692647, -14.666176) "></path>
                <path d="M0.385294118,1.64259928 L0.425437487,6.42382671 C0.425437487,6.74729242 0.666297702,7 0.977408813,7 L5.87489985,6.9898917 C5.87489985,6.9898917 6.34658444,6.9898917 6.5272296,6.80794224 C6.74801813,6.58555957 6.74801813,6.21155235 6.5272296,5.98916968 L5.17239089,4.5032491 L7.21970272,2.51191336 C7.44049125,2.28953069 7.44049125,1.91552347 7.21970272,1.69314079 L5.73439806,0.166787004 C5.51360953,-0.0555956679 5.16235505,-0.0555956679 4.94156652,0.166787004 L2.85411132,2.30974729 L1.39891419,0.833935018 C1.17812566,0.611552347 0.826871179,0.611552347 0.606082648,0.833935018 C0.475616698,0.975451264 0.385294118,1.64259928 0.385294118,1.64259928" id="Fill-2" sketch:type="MSShapeGroup" transform="translate(3.692647, 3.666176) scale(1, -1) rotate(-180.000000) translate(-3.692647, -3.666176) "></path>
                <path d="M11.0401434,6.42382671 C11.0401434,6.74729242 11.2810036,7 11.5921147,7 L16.4896057,6.9898917 C16.4896057,6.9898917 16.9612903,6.9898917 17.1419355,6.80794224 C17.362724,6.58555957 17.362724,6.21155235 17.1419355,5.98916968 L15.7870968,4.5032491 L17.8344086,2.51191336 C18.0551971,2.28953069 18.0551971,1.91552347 17.8344086,1.69314079 L16.3491039,0.166787004 C16.1283154,-0.0555956679 15.7770609,-0.0555956679 15.5562724,0.166787004 L13.4688172,2.30974729 L12.0136201,0.833935018 C11.7928315,0.611552347 11.4415771,0.611552347 11.2207885,0.833935018 C11.0903226,0.975451264 11,1.64259928 11,1.64259928 L11.0401434,6.42382671 Z" id="Fill-2" sketch:type="MSShapeGroup" transform="translate(14.692647, 3.666176) scale(-1, -1) rotate(-180.000000) translate(-14.692647, -3.666176) "></path>
                <path d="M11,12.9749522 L11.0401434,17.7561797 C11.0401434,18.0796454 11.2810036,18.3323529 11.5921147,18.3323529 L16.4896057,18.3222446 C16.4896057,18.3222446 16.9612903,18.3222446 17.1419355,18.1402952 C17.362724,17.9179125 17.362724,17.5439053 17.1419355,17.3215226 L15.7870968,15.835602 L17.8344086,13.8442663 C18.0551971,13.6218836 18.0551971,13.2478764 17.8344086,13.0254937 L16.3491039,11.4991399 C16.1283154,11.2767573 15.7770609,11.2767573 15.5562724,11.4991399 L13.4688172,13.6421002 L12.0136201,12.166288 C11.7928315,11.9439053 11.4415771,11.9439053 11.2207885,12.166288 C11.0903226,12.3078042 11,12.9749522 11,12.9749522" id="Fill-2" sketch:type="MSShapeGroup" transform="translate(14.692647, 14.666176) scale(-1, 1) rotate(-180.000000) translate(-14.692647, -14.666176) "></path>
            </g>
        </g>
    </g>
</svg>