<?xml version="1.0" encoding="UTF-8" standalone="no"?>
<svg width="24px" height="24px" viewBox="0 0 24 24" version="1.1" xmlns="http://www.w3.org/2000/svg" xmlns:xlink="http://www.w3.org/1999/xlink" xmlns:sketch="http://www.bohemiancoding.com/sketch/ns">
    <!-- Generator: Sketch 3.5.2 (25235) - http://www.bohemiancoding.com/sketch -->
    <title>Up_FullScreen</title>
    <desc>Created with Sketch.</desc>
    <defs></defs>
    <g id="Page-1" stroke="none" stroke-width="1" fill="none" fill-rule="evenodd" sketch:type="MSPage">
        <g id="Up_FullScreen" sketch:type="MSArtboardGroup" fill="#7E7E7E">
            <g id="Group-2" sketch:type="MSLayerGroup" transform="translate(3.000000, 3.000000)">
                <path d="M1.86517468e-14,12.3088235 L0.0423529412,17.3170588 C0.0423529412,17.6558824 0.296470588,17.9205882 0.624705882,17.9205882 L5.79176471,17.91 C5.79176471,17.91 6.28941176,17.91 6.48,17.7194118 C6.71294118,17.4864706 6.71294118,17.0947059 6.48,16.8617647 L5.05058824,15.3052941 L7.21058824,13.2194118 C7.44352941,12.9864706 7.44352941,12.5947059 7.21058824,12.3617647 L5.64352941,10.7629412 C5.41058824,10.53 5.04,10.53 4.80705882,10.7629412 L2.60470588,13.0076471 L1.06941176,11.4617647 C0.836470588,11.2288235 0.465882353,11.2288235 0.232941176,11.4617647 C0.0952941176,11.61 1.86517468e-14,12.3088235 1.86517468e-14,12.3088235" id="Fill-2" sketch:type="MSShapeGroup"></path>
                <path d="M1.86517468e-14,1.72058824 L0.0423529412,6.72882353 C0.0423529412,7.06764706 0.296470588,7.33235294 0.624705882,7.33235294 L5.79176471,7.32176471 C5.79176471,7.32176471 6.28941176,7.32176471 6.48,7.13117647 C6.71294118,6.89823529 6.71294118,6.50647059 6.48,6.27352941 L5.05058824,4.71705882 L7.21058824,2.63117647 C7.44352941,2.39823529 7.44352941,2.00647059 7.21058824,1.77352941 L5.64352941,0.174705882 C5.41058824,-0.0582352941 5.04,-0.0582352941 4.80705882,0.174705882 L2.60470588,2.41941176 L1.06941176,0.873529412 C0.836470588,0.640588235 0.465882353,0.640588235 0.232941176,0.873529412 C0.0952941176,1.02176471 1.86517468e-14,1.72058824 1.86517468e-14,1.72058824" id="Fill-2" sketch:type="MSShapeGroup" transform="translate(3.692647, 3.666176) scale(1, -1) translate(-3.692647, -3.666176) "></path>
                <path d="M10.5882353,1.72058824 L10.6305882,6.72882353 C10.6305882,7.06764706 10.8847059,7.33235294 11.2129412,7.33235294 L16.38,7.32176471 C16.38,7.32176471 16.8776471,7.32176471 17.0682353,7.13117647 C17.3011765,6.89823529 17.3011765,6.50647059 17.0682353,6.27352941 L15.6388235,4.71705882 L17.7988235,2.63117647 C18.0317647,2.39823529 18.0317647,2.00647059 17.7988235,1.77352941 L16.2317647,0.174705882 C15.9988235,-0.0582352941 15.6282353,-0.0582352941 15.3952941,0.174705882 L13.1929412,2.41941176 L11.6576471,0.873529412 C11.4247059,0.640588235 11.0541176,0.640588235 10.8211765,0.873529412 C10.6835294,1.02176471 10.5882353,1.72058824 10.5882353,1.72058824" id="Fill-2" sketch:type="MSShapeGroup" transform="translate(14.280882, 3.666176) scale(-1, -1) translate(-14.280882, -3.666176) "></path>
                <path d="M10.5882353,12.3088235 L10.6305882,17.3170588 C10.6305882,17.6558824 10.8847059,17.9205882 11.2129412,17.9205882 L16.38,17.91 C16.38,17.91 16.8776471,17.91 17.0682353,17.7194118 C17.3011765,17.4864706 17.3011765,17.0947059 17.0682353,16.8617647 L15.6388235,15.3052941 L17.7988235,13.2194118 C18.0317647,12.9864706 18.0317647,12.5947059 17.7988235,12.3617647 L16.2317647,10.7629412 C15.9988235,10.53 15.6282353,10.53 15.3952941,10.7629412 L13.1929412,13.0076471 L11.6576471,11.4617647 C11.4247059,11.2288235 11.0541176,11.2288235 10.8211765,11.4617647 C10.6835294,11.61 10.5882353,12.3088235 10.5882353,12.3088235" id="Fill-2" sketch:type="MSShapeGroup" transform="translate(14.280882, 14.254412) scale(-1, 1) translate(-14.280882, -14.254412) "></path>
            </g>
        </g>
    </g>
</svg>