<?xml version="1.0" encoding="UTF-8" standalone="no"?>
<svg width="24px" height="24px" viewBox="0 0 24 24" version="1.1" xmlns="http://www.w3.org/2000/svg" xmlns:xlink="http://www.w3.org/1999/xlink" xmlns:sketch="http://www.bohemiancoding.com/sketch/ns">
    <!-- Generator: Sketch 3.5.2 (25235) - http://www.bohemiancoding.com/sketch -->
    <title>Rollover_ExitFullScreen</title>
    <desc>Created with Sketch.</desc>
    <defs></defs>
    <g id="Page-1" stroke="none" stroke-width="1" fill="none" fill-rule="evenodd" sketch:type="MSPage">
        <g id="Rollover_ExitFullScreen" sketch:type="MSArtboardGroup" fill="#2175C8">
            <path d="M3.38529412,15.9749522 L3.42543749,20.7561797 C3.42543749,21.0796454 3.6662977,21.3323529 3.97740881,21.3323529 L8.87489985,21.3222446 C8.87489985,21.3222446 9.34658444,21.3222446 9.5272296,21.1402952 C9.74801813,20.9179125 9.74801813,20.5439053 9.5272296,20.3215226 L8.17239089,18.835602 L10.2197027,16.8442663 C10.4404913,16.6218836 10.4404913,16.2478764 10.2197027,16.0254937 L8.73439806,14.4991399 C8.51360953,14.2767573 8.16235505,14.2767573 7.94156652,14.4991399 L5.85411132,16.6421002 L4.39891419,15.166288 C4.17812566,14.9439053 3.82687118,14.9439053 3.60608265,15.166288 C3.4756167,15.3078042 3.38529412,15.9749522 3.38529412,15.9749522" id="Fill-2" sketch:type="MSShapeGroup" transform="translate(6.692647, 17.666176) rotate(-180.000000) translate(-6.692647, -17.666176) "></path>
            <path d="M3.38529412,4.64259928 L3.42543749,9.42382671 C3.42543749,9.74729242 3.6662977,10 3.97740881,10 L8.87489985,9.9898917 C8.87489985,9.9898917 9.34658444,9.9898917 9.5272296,9.80794224 C9.74801813,9.58555957 9.74801813,9.21155235 9.5272296,8.98916968 L8.17239089,7.5032491 L10.2197027,5.51191336 C10.4404913,5.28953069 10.4404913,4.91552347 10.2197027,4.69314079 L8.73439806,3.166787 C8.51360953,2.94440433 8.16235505,2.94440433 7.94156652,3.166787 L5.85411132,5.30974729 L4.39891419,3.83393502 C4.17812566,3.61155235 3.82687118,3.61155235 3.60608265,3.83393502 C3.4756167,3.97545126 3.38529412,4.64259928 3.38529412,4.64259928" id="Fill-2" sketch:type="MSShapeGroup" transform="translate(6.692647, 6.666176) scale(1, -1) rotate(-180.000000) translate(-6.692647, -6.666176) "></path>
            <path d="M14.0401434,9.42382671 C14.0401434,9.74729242 14.2810036,10 14.5921147,10 L19.4896057,9.9898917 C19.4896057,9.9898917 19.9612903,9.9898917 20.1419355,9.80794224 C20.362724,9.58555957 20.362724,9.21155235 20.1419355,8.98916968 L18.7870968,7.5032491 L20.8344086,5.51191336 C21.0551971,5.28953069 21.0551971,4.91552347 20.8344086,4.69314079 L19.3491039,3.166787 C19.1283154,2.94440433 18.7770609,2.94440433 18.5562724,3.166787 L16.4688172,5.30974729 L15.0136201,3.83393502 C14.7928315,3.61155235 14.4415771,3.61155235 14.2207885,3.83393502 C14.0903226,3.97545126 14,4.64259928 14,4.64259928 L14.0401434,9.42382671 Z" id="Fill-2" sketch:type="MSShapeGroup" transform="translate(17.692647, 6.666176) scale(-1, -1) rotate(-180.000000) translate(-17.692647, -6.666176) "></path>
            <path d="M14,15.9749522 L14.0401434,20.7561797 C14.0401434,21.0796454 14.2810036,21.3323529 14.5921147,21.3323529 L19.4896057,21.3222446 C19.4896057,21.3222446 19.9612903,21.3222446 20.1419355,21.1402952 C20.362724,20.9179125 20.362724,20.5439053 20.1419355,20.3215226 L18.7870968,18.835602 L20.8344086,16.8442663 C21.0551971,16.6218836 21.0551971,16.2478764 20.8344086,16.0254937 L19.3491039,14.4991399 C19.1283154,14.2767573 18.7770609,14.2767573 18.5562724,14.4991399 L16.4688172,16.6421002 L15.0136201,15.166288 C14.7928315,14.9439053 14.4415771,14.9439053 14.2207885,15.166288 C14.0903226,15.3078042 14,15.9749522 14,15.9749522" id="Fill-2" sketch:type="MSShapeGroup" transform="translate(17.692647, 17.666176) scale(-1, 1) rotate(-180.000000) translate(-17.692647, -17.666176) "></path>
        </g>
    </g>
</svg>