<?xml version="1.0" encoding="UTF-8" standalone="no"?>
<svg width="24px" height="24px" viewBox="0 0 24 24" version="1.1" xmlns="http://www.w3.org/2000/svg" xmlns:xlink="http://www.w3.org/1999/xlink" xmlns:sketch="http://www.bohemiancoding.com/sketch/ns">
    <!-- Generator: Sketch 3.5.2 (25235) - http://www.bohemiancoding.com/sketch -->
    <title>Rollover_FullScreen</title>
    <desc>Created with Sketch.</desc>
    <defs></defs>
    <g id="Page-1" stroke="none" stroke-width="1" fill="none" fill-rule="evenodd" sketch:type="MSPage">
        <g id="Rollover_FullScreen" sketch:type="MSArtboardGroup" fill="#2175C8">
            <path d="M3,15.3088235 L3.04235294,20.3170588 C3.04235294,20.6558824 3.29647059,20.9205882 3.62470588,20.9205882 L8.79176471,20.91 C8.79176471,20.91 9.28941176,20.91 9.48,20.7194118 C9.71294118,20.4864706 9.71294118,20.0947059 9.48,19.8617647 L8.05058824,18.3052941 L10.2105882,16.2194118 C10.4435294,15.9864706 10.4435294,15.5947059 10.2105882,15.3617647 L8.64352941,13.7629412 C8.41058824,13.53 8.04,13.53 7.80705882,13.7629412 L5.60470588,16.0076471 L4.06941176,14.4617647 C3.83647059,14.2288235 3.46588235,14.2288235 3.23294118,14.4617647 C3.09529412,14.61 3,15.3088235 3,15.3088235" id="Fill-2" sketch:type="MSShapeGroup"></path>
            <path d="M3,4.72058824 L3.04235294,9.72882353 C3.04235294,10.0676471 3.29647059,10.3323529 3.62470588,10.3323529 L8.79176471,10.3217647 C8.79176471,10.3217647 9.28941176,10.3217647 9.48,10.1311765 C9.71294118,9.89823529 9.71294118,9.50647059 9.48,9.27352941 L8.05058824,7.71705882 L10.2105882,5.63117647 C10.4435294,5.39823529 10.4435294,5.00647059 10.2105882,4.77352941 L8.64352941,3.17470588 C8.41058824,2.94176471 8.04,2.94176471 7.80705882,3.17470588 L5.60470588,5.41941176 L4.06941176,3.87352941 C3.83647059,3.64058824 3.46588235,3.64058824 3.23294118,3.87352941 C3.09529412,4.02176471 3,4.72058824 3,4.72058824" id="Fill-2" sketch:type="MSShapeGroup" transform="translate(6.692647, 6.666176) scale(1, -1) translate(-6.692647, -6.666176) "></path>
            <path d="M13.5882353,4.72058824 L13.6305882,9.72882353 C13.6305882,10.0676471 13.8847059,10.3323529 14.2129412,10.3323529 L19.38,10.3217647 C19.38,10.3217647 19.8776471,10.3217647 20.0682353,10.1311765 C20.3011765,9.89823529 20.3011765,9.50647059 20.0682353,9.27352941 L18.6388235,7.71705882 L20.7988235,5.63117647 C21.0317647,5.39823529 21.0317647,5.00647059 20.7988235,4.77352941 L19.2317647,3.17470588 C18.9988235,2.94176471 18.6282353,2.94176471 18.3952941,3.17470588 L16.1929412,5.41941176 L14.6576471,3.87352941 C14.4247059,3.64058824 14.0541176,3.64058824 13.8211765,3.87352941 C13.6835294,4.02176471 13.5882353,4.72058824 13.5882353,4.72058824" id="Fill-2" sketch:type="MSShapeGroup" transform="translate(17.280882, 6.666176) scale(-1, -1) translate(-17.280882, -6.666176) "></path>
            <path d="M13.5882353,15.3088235 L13.6305882,20.3170588 C13.6305882,20.6558824 13.8847059,20.9205882 14.2129412,20.9205882 L19.38,20.91 C19.38,20.91 19.8776471,20.91 20.0682353,20.7194118 C20.3011765,20.4864706 20.3011765,20.0947059 20.0682353,19.8617647 L18.6388235,18.3052941 L20.7988235,16.2194118 C21.0317647,15.9864706 21.0317647,15.5947059 20.7988235,15.3617647 L19.2317647,13.7629412 C18.9988235,13.53 18.6282353,13.53 18.3952941,13.7629412 L16.1929412,16.0076471 L14.6576471,14.4617647 C14.4247059,14.2288235 14.0541176,14.2288235 13.8211765,14.4617647 C13.6835294,14.61 13.5882353,15.3088235 13.5882353,15.3088235" id="Fill-2" sketch:type="MSShapeGroup" transform="translate(17.280882, 17.254412) scale(-1, 1) translate(-17.280882, -17.254412) "></path>
        </g>
    </g>
</svg>