<svg id="production" xmlns="http://www.w3.org/2000/svg" width="250" height="150" viewBox="0 0 250 150">
  <defs>
    <style>
      .cls-1 {
        fill: #b3b3b3;
      }
    </style>
  </defs>
  <title>S_IlluApps_250x150</title>
  <path class="cls-1" d="M157,33h22v7.789a2.334,2.334,0,0,0,3.941,1.694l10-9.483H209a4.008,4.008,0,0,0,4-4V6a4.008,4.008,0,0,0-4-4H157a4.008,4.008,0,0,0-4,4V29A4.008,4.008,0,0,0,157,33ZM156,6a1,1,0,0,1,1-1H209a1,1,0,0,1,1,1V29a1,1,0,0,1-1,1H192.342a1.5,1.5,0,0,0-1.032.411L182,39.24V31.5a1.5,1.5,0,0,0-1.5-1.5H157a1,1,0,0,1-1-1Z"/>
  <path class="cls-1" d="M160.051,19.816a.982.982,0,0,0,.556-.17l2.666-1.789.765,1.431a1,1,0,0,0,1.439.358l2.666-1.789.763,1.429a1,1,0,0,0,1.44.36l2.665-1.791.764,1.431a1,1,0,0,0,1.439.359l2.666-1.79.764,1.43a1,1,0,0,0,1.439.36l2.666-1.791.764,1.431a1,1,0,0,0,1.44.359l2.665-1.79.764,1.429a1,1,0,0,0,1.439.36l3.466-2.327a1,1,0,1,0-1.114-1.66l-2.548,1.71-.764-1.429a1,1,0,0,0-1.44-.36l-2.665,1.79-.764-1.43a1,1,0,0,0-1.44-.359l-2.665,1.789-.764-1.429a1,1,0,0,0-1.439-.359l-2.666,1.789-.764-1.43a1,1,0,0,0-1.44-.359l-2.665,1.789-.764-1.429a1,1,0,0,0-1.439-.359l-2.666,1.79-.764-1.431a1,1,0,0,0-1.439-.358l-3.584,2.405a1,1,0,0,0,.558,1.83Z"/>
  <path class="cls-1" d="M182.436,21.5l-2.548,1.71-.764-1.43a1,1,0,0,0-1.439-.359l-2.666,1.79-.764-1.43a1,1,0,0,0-1.439-.359l-2.667,1.79-.763-1.43a1,1,0,0,0-1.439-.359l-2.667,1.79-.763-1.43a1,1,0,0,0-1.439-.359l-3.585,2.406a1,1,0,0,0,.558,1.83.982.982,0,0,0,.556-.17l2.667-1.79.764,1.43a1,1,0,0,0,1.439.359l2.666-1.79.764,1.43a1,1,0,0,0,1.439.359l2.666-1.79.764,1.43a1,1,0,0,0,1.439.359l2.666-1.79.764,1.43a1,1,0,0,0,1.439.359l3.466-2.326a1,1,0,1,0-1.114-1.66Z"/>
  <path class="cls-1" d="M201.064,12.848a1,1,0,0,0,1.414,0l1.379-1.379,1.379,1.379a1,1,0,0,0,1.414-1.414l-1.379-1.379,1.379-1.379a1,1,0,0,0-1.414-1.414l-1.379,1.379-1.379-1.379a1,1,0,0,0-1.414,1.414l1.379,1.379-1.379,1.379A1,1,0,0,0,201.064,12.848Z"/>
  <path class="cls-1" d="M101.579,127h33.842A9.59,9.59,0,0,0,145,117.421V112.5a1.5,1.5,0,0,0-3,0v4.921A6.586,6.586,0,0,1,135.421,124H101.579A6.586,6.586,0,0,1,95,117.421V25.579A6.586,6.586,0,0,1,101.579,19h33.842A6.586,6.586,0,0,1,142,25.579V54.5a1.485,1.485,0,0,0,.232.793c-1.322-1.034-2.6-2.046-3.8-2.991-2.46-1.946-4.4-3.482-5.359-4.14a3.158,3.158,0,0,0-4,.448,5.871,5.871,0,0,0-.775,7.273c1.255,2.263,4.759,5.729,8.149,9.082a59.78,59.78,0,0,1,5.4,5.727c.122.18.289.422.492.714,1.4,2.017,4.668,6.738,5.587,9.888,1.086,3.725,1.739,7.112,1.745,7.146a1.5,1.5,0,0,0,1.472,1.218,1.631,1.631,0,0,0,.284-.026,1.5,1.5,0,0,0,1.19-1.756c-.027-.143-.684-3.555-1.812-7.422-1.054-3.618-4.395-8.439-6-10.756-.193-.279-.353-.51-.468-.681a56.548,56.548,0,0,0-5.783-6.186c-3.089-3.054-6.589-6.516-7.636-8.4a3.171,3.171,0,0,1-.185-3.141,1.449,1.449,0,0,1,.633-.654c.875.6,2.878,2.187,5.2,4.021,2.292,1.813,4.891,3.867,7.521,5.873,5.151,3.927,12.716,12.926,15.662,17.4a1.5,1.5,0,1,0,2.5-1.651A101.606,101.606,0,0,0,154.1,66.037a4.693,4.693,0,0,1,2.119-.408c1.554.362,6.9,7.042,10.917,13.054a1.5,1.5,0,1,0,2.494-1.666,94.5,94.5,0,0,0-8.052-10.624,1.466,1.466,0,0,0,.33-.208,3.474,3.474,0,0,1,2.836-.213c1.089.262,3.85,2.748,10.826,13.1a1.5,1.5,0,1,0,2.488-1.677c-2.074-3.077-3.969-5.78-5.684-7.992a1.528,1.528,0,0,0,.333-.129,2.631,2.631,0,0,1,1.965.051c1.5.584,8.631,6.079,10.4,11.075.4,1.132.823,2.537,1.313,4.163,2.154,7.148,5.408,17.952,12.382,22.987a1.5,1.5,0,1,0,1.756-2.432c-3.71-2.678-6.3-7.459-8.216-12.314a1.562,1.562,0,0,0,.086-.174A72.463,72.463,0,0,0,195.6,71.253a73.195,73.195,0,0,0-1.177-13.067,60.659,60.659,0,0,1-.857-6.337l3.555,3.534a1.5,1.5,0,1,0,2.115-2.127L192.8,46.865a1.5,1.5,0,0,0-1.058-.436h0a1.5,1.5,0,0,0-1.06.442l-6.39,6.43a1.5,1.5,0,0,0,2.128,2.115l4.1-4.13a56.769,56.769,0,0,0,.945,7.437,69.818,69.818,0,0,1-.9,29.209c-.486-1.5-.919-2.932-1.313-4.238-.5-1.663-.933-3.1-1.357-4.3-2.122-6-10.021-12.046-12.14-12.871a5.487,5.487,0,0,0-4.49.112,1.49,1.49,0,0,0-.62.641c-2.038-2.38-3.778-3.88-5.2-4.223-3.574-.869-5.413.77-5.611.959a1.449,1.449,0,0,0-.271.389,6.01,6.01,0,0,0-3.186-1.767A7.583,7.583,0,0,0,152,63.768a55.186,55.186,0,0,0-6.081-5.625c-.97-.74-1.931-1.485-2.88-2.225A1.472,1.472,0,0,0,143.5,56a1.5,1.5,0,0,0,1.5-1.5V25.579A9.59,9.59,0,0,0,135.421,16H101.579A9.59,9.59,0,0,0,92,25.579v91.842A9.59,9.59,0,0,0,101.579,127Z"/>
  <path class="cls-1" d="M124,20v.461a.54.54,0,0,1-.539.539h-8.922a.54.54,0,0,1-.539-.539V20a1,1,0,0,0-2,0v.461A2.542,2.542,0,0,0,114.539,23h8.922A2.542,2.542,0,0,0,126,20.461V20a1,1,0,0,0-2,0Z"/>
  <path class="cls-1" d="M117,115a3,3,0,0,0,0,6h5a3,3,0,0,0,0-6Zm6,3a1,1,0,0,1-1,1h-5a1,1,0,0,1,0-2h5A1,1,0,0,1,123,118Z"/>
  <path class="cls-1" d="M174.838,125.779a1.5,1.5,0,0,0,2.112-2.131,13.887,13.887,0,0,0-3.912-2.721l-.059-.025c-.363-.168-.727-.332-1.106-.469l-1.8-.649a92.131,92.131,0,0,1-12.565-5.286c-6.792-3.493-15.456-14.366-18.516-19.319-1.111-3.764-2.557-7.584-3.723-10.664a55.173,55.173,0,0,1-2.155-6.276c.5-.19,2.119-.245,4.3,1.3,1.617,1.148,3.813,4.356,5.576,6.933a46.231,46.231,0,0,0,3.211,4.363,24.292,24.292,0,0,0,4.878,4.152,1.5,1.5,0,0,0,1.557-2.563,21.733,21.733,0,0,1-4.212-3.6,44.887,44.887,0,0,1-2.958-4.044c-2-2.919-4.261-6.226-6.317-7.685-2.326-1.651-4.854-2.3-6.762-1.764a3.148,3.148,0,0,0-2.129,1.76c-.5,1.207.13,3,2.208,8.489,1.168,3.084,2.621,6.922,3.706,10.637a1.478,1.478,0,0,0,.159.359c2.461,4.043,11.727,16.436,19.808,20.593a96.024,96.024,0,0,0,12.923,5.441l.576.208a69.408,69.408,0,0,1-84.761,6.355,1.5,1.5,0,1,0-1.658,2.5,72.405,72.405,0,0,0,89.438-7.557A10.956,10.956,0,0,1,174.838,125.779Z"/>
  <path class="cls-1" d="M46,92h6a1,1,0,0,0,0-2H46a1,1,0,0,0,0,2Z"/>
  <path class="cls-1" d="M38,92h5a1,1,0,0,0,0-2H38a1,1,0,0,0,0,2Z"/>
  <path class="cls-1" d="M48,107a1,1,0,0,0,0,2h2a1,1,0,0,0,0-2Z"/>
  <path class="cls-1" d="M38,82h3a1,1,0,0,0,0-2H38a1,1,0,0,0,0,2Z"/>
  <path class="cls-1" d="M38,96h2a1,1,0,0,0,0-2H38a1,1,0,0,0,0,2Z"/>
  <path class="cls-1" d="M49,95a1,1,0,0,0-1-1H43a1,1,0,0,0,0,2h5A1,1,0,0,0,49,95Z"/>
  <path class="cls-1" d="M46,100h4a1,1,0,0,0,0-2H46a1,1,0,0,0,0,2Z"/>
  <path class="cls-1" d="M53,100a1,1,0,0,0,.38-.08,1.155,1.155,0,0,0,.33-.21,1.169,1.169,0,0,0,.21-.33A1,1,0,0,0,54,99a1.05,1.05,0,0,0-.29-.71,1.034,1.034,0,0,0-1.42,0A1.05,1.05,0,0,0,52,99a.986.986,0,0,0,.07.38,1.2,1.2,0,0,0,.22.33A.994.994,0,0,0,53,100Z"/>
  <path class="cls-1" d="M38,100h5a1,1,0,0,0,0-2H38a1,1,0,0,0,0,2Z"/>
  <path class="cls-1" d="M38,105h7a1,1,0,0,0,0-2H38a1,1,0,0,0,0,2Z"/>
  <path class="cls-1" d="M38,109h6a1,1,0,0,0,0-2H38a1,1,0,0,0,0,2Z"/>
  <path class="cls-1" d="M47,104a1,1,0,0,0,1,1h5a1,1,0,0,0,0-2H48A1,1,0,0,0,47,104Z"/>
  <path class="cls-1" d="M38,113h3a1,1,0,0,0,0-2H38a1,1,0,0,0,0,2Z"/>
  <path class="cls-1" d="M56.044,91.727H60a1,1,0,0,0,0-2H56.044a1,1,0,0,0,0,2Z"/>
  <path class="cls-1" d="M63,111H59a1,1,0,0,0,0,2h4a1,1,0,0,0,0-2Z"/>
  <path class="cls-1" d="M52,95a1,1,0,0,0,1,1h1a1,1,0,0,0,0-2H53A1,1,0,0,0,52,95Z"/>
  <path class="cls-1" d="M57,95a1,1,0,0,0,1,1h5a1,1,0,0,0,0-2H58A1,1,0,0,0,57,95Z"/>
  <path class="cls-1" d="M51,111H46a1,1,0,0,0,0,2h5a1,1,0,0,0,0-2Z"/>
  <path class="cls-1" d="M56,100h4a1,1,0,0,0,0-2H56a1,1,0,0,0,0,2Z"/>
  <path class="cls-1" d="M56,111H54a1,1,0,0,0,0,2h2a1,1,0,0,0,0-2Z"/>
  <path class="cls-1" d="M63,103H56a1,1,0,0,0,0,2h7a1,1,0,0,0,0-2Z"/>
  <path class="cls-1" d="M56,109h4a1,1,0,0,0,0-2H53a1,1,0,0,0,0,2Z"/>
  <path class="cls-1" d="M48.618,40H54.5a1.5,1.5,0,0,0,0-3H48.618c-3.174,0-3.266-2.6-3.266-2.9,0-1.04,1.212-3.037,2.885-3.037h0l.189.017a1.5,1.5,0,0,0,1.506-2,3.591,3.591,0,0,1-.208-1.184A5.287,5.287,0,0,1,55.3,22.94a7.353,7.353,0,0,1,1.927.257,1.5,1.5,0,0,0,1.843-1.059,7.457,7.457,0,0,1,7.318-5.519h.047a6.579,6.579,0,0,1,6.55,6.606,4.91,4.91,0,0,1-.1.927,1.5,1.5,0,0,0,1.247,1.78c2.375.357,5.811,2.64,5.811,5.835C79.949,36.94,74.892,37,74.84,37H68.5a1.5,1.5,0,0,0,0,3h6.34a7.934,7.934,0,0,0,8.109-8.233c0-4.121-3.395-7.363-6.962-8.477v-.046a9.582,9.582,0,0,0-9.536-9.625H66.39a10.36,10.36,0,0,0-9.745,6.408A10.553,10.553,0,0,0,55.3,19.94c-4.727,0-8.573,3.568-8.573,7.958,0,.125.005.249.012.373A6.545,6.545,0,0,0,42.352,34.1,5.888,5.888,0,0,0,48.618,40Z"/>
  <path class="cls-1" d="M29,75.157v56.686A3.16,3.16,0,0,0,32.157,135H70.843A3.16,3.16,0,0,0,74,131.843V75.157A3.16,3.16,0,0,0,70.843,72H32.157A3.16,3.16,0,0,0,29,75.157Zm42,0v56.686a.157.157,0,0,1-.157.157H32.157a.157.157,0,0,1-.157-.157V75.157A.157.157,0,0,1,32.157,75H70.843A.157.157,0,0,1,71,75.157Z"/>
  <path class="cls-1" d="M77.41,66H66.5a1.5,1.5,0,0,0,0,3H77.41a.591.591,0,0,1,.59.591V81.5a1.5,1.5,0,0,0,3,0V69.591A3.594,3.594,0,0,0,77.41,66Z"/>
  <path class="cls-1" d="M38.5,138H26.59a.591.591,0,0,1-.59-.591V125.5a1.5,1.5,0,0,0-3,0v11.909A3.594,3.594,0,0,0,26.59,141H38.5a1.5,1.5,0,0,0,0-3Z"/>
  <path class="cls-1" d="M24.5,83A1.5,1.5,0,0,0,26,81.5V69.591A.591.591,0,0,1,26.59,69H38.5a1.5,1.5,0,0,0,0-3H26.59A3.594,3.594,0,0,0,23,69.591V81.5A1.5,1.5,0,0,0,24.5,83Z"/>
  <path class="cls-1" d="M79.5,124a1.5,1.5,0,0,0-1.5,1.5v11.909a.591.591,0,0,1-.59.591H66.5a1.5,1.5,0,0,0,0,3H77.41A3.594,3.594,0,0,0,81,137.409V125.5A1.5,1.5,0,0,0,79.5,124Z"/>
  <path class="cls-1" d="M63.886,32.275a1.5,1.5,0,0,0-2.069.471A72.432,72.432,0,0,0,50.986,65.3a1.5,1.5,0,0,0,1.373,1.617c.042,0,.083,0,.123,0a1.5,1.5,0,0,0,1.494-1.378,69.421,69.421,0,0,1,10.381-31.2A1.5,1.5,0,0,0,63.886,32.275Z"/>
  <path class="cls-1" d="M235.853,85.716a2.84,2.84,0,0,0-5.234-.367L209.894,126.81a.993.993,0,0,0-.082.231l-1.637,7.406a1,1,0,0,0,1.737.866l4.929-5.764a1.039,1.039,0,0,0,.135-.2L235.7,87.884A2.817,2.817,0,0,0,235.853,85.716Zm-1.941,1.274-20.67,41.352-2.251,2.632.747-3.38,20.671-41.352a.839.839,0,0,1,1.5.748Z"/>
  <path class="cls-1" d="M208,144H171a1,1,0,0,0,0,2h37a1,1,0,0,0,0-2Z"/>
  <path class="cls-1" d="M183.565,141.708a1,1,0,0,0,0,2,4.69,4.69,0,0,0,3.169-1.6,2.48,2.48,0,0,0,2.211,1.6c1.455,0,3.027-1.084,4.327-2.6a3.6,3.6,0,0,0,3.122,2.042c2.146,0,3.451-1.4,4.832-2.893,1.442-1.554,3.076-3.314,6.1-3.861a1,1,0,0,0-.356-1.969c-3.685.667-5.642,2.775-7.215,4.469-1.336,1.44-2.152,2.254-3.366,2.254-.594,0-1.12-.458-1.562-1.363q-.126-.258-.231-.535a12.6,12.6,0,0,0,1.038-2.187c.833-2.341.59-4.2-.683-5.237a1.5,1.5,0,0,0-1.835-.149c-1.434.964-1.375,4.747-.707,7.283-1.1,1.577-2.486,2.75-3.469,2.75-.08,0-.343-.227-.606-.9-.059-.153-.114-.314-.165-.481a16.422,16.422,0,0,0,1.312-2.367c1.485-3.3,1.562-6.177.208-7.708a1.718,1.718,0,0,0-2.178-.575c-1.982,1.038-2.138,6.931-1.5,10.212C185.094,141.05,184.167,141.708,183.565,141.708Zm10.5-7.689a3.647,3.647,0,0,1-.1,1.679A9.354,9.354,0,0,1,194.063,134.019Zm-5.765-2.31c.639.943.4,3.094-.6,5.359A14.773,14.773,0,0,1,188.3,131.709Z"/>
  <path class="cls-1" d="M180.7,136.478a1,1,0,0,0-1.414,0l-2.1,2.1-2.1-2.1a1,1,0,0,0-1.414,1.414l2.1,2.1-2.1,2.1a1,1,0,1,0,1.414,1.414l2.1-2.1,2.1,2.1a1,1,0,0,0,1.414-1.414l-2.1-2.1,2.1-2.1A1,1,0,0,0,180.7,136.478Z"/>
</svg>
