<svg id="Icons_on_Artboards" data-name="Icons on Artboards" xmlns="http://www.w3.org/2000/svg" width="40" height="39" viewBox="0 0 40 39">
  <g id="Group_294190" data-name="Group 294190">
    <g id="Surfaces">
      <path id="Path_585897" data-name="Path 585897" d="M7.083,0H32.917A7.077,7.077,0,0,1,40,7.071V31.917A7.077,7.077,0,0,1,32.929,39H7.083A7.077,7.077,0,0,1,0,31.929V7.083A7.077,7.077,0,0,1,7.071,0Z" fill="#b30b00"/>
    </g>
    <g id="Outlined_Mnemonics_Logos" data-name="Outlined Mnemonics Logos">
      <path id="_256" data-name=" 256" d="M32.167,22.583c-.8-.85-2.317-1.283-4.517-1.283a24.339,24.339,0,0,0-3.65.317,17.335,17.335,0,0,1-2.1-2.45,18.663,18.663,0,0,1-1.317-2.05,20.477,20.477,0,0,0,1.167-5.9c0-1.8-.717-3.733-2.717-3.733a2.027,2.027,0,0,0-1.683.983c-.85,1.467-.517,4.5.85,7.567-.483,1.417-1,2.783-1.633,4.317a40.122,40.122,0,0,1-1.833,3.817c-2.05.817-6.4,2.817-6.817,5.033a1.872,1.872,0,0,0,.6,1.767,2.537,2.537,0,0,0,1.767.633c2.617,0,5.233-3.633,7-6.75,1-.333,2.017-.65,3.033-.917,1.117-.3,2.183-.533,3.2-.717A9.935,9.935,0,0,0,30,26c1.7,0,2.333-.733,2.567-1.35a2.082,2.082,0,0,0-.4-2.067ZM30.35,23.85a1.163,1.163,0,0,1-1.267.8,2.112,2.112,0,0,1-.567-.067,9.367,9.367,0,0,1-3.633-1.833,18.066,18.066,0,0,1,2.7-.2,9.355,9.355,0,0,1,1.8.133C29.9,22.767,30.5,23.067,30.35,23.85ZM18.417,9.1A.67.67,0,0,1,19,8.733c.633,0,.767.767.767,1.4a17.681,17.681,0,0,1-.833,4.45C17.883,11.75,18.033,9.783,18.417,9.1Zm1.517,13.383c-.55.15-1.1.3-1.65.467q.45-.9.8-1.75c.3-.75.6-1.483.867-2.217.233.367.467.717.717,1.067a21.211,21.211,0,0,0,1.533,1.9C22.2,21.933,20.683,22.283,19.933,22.483Zm-5.85,3.333c-1.683,2.7-3.333,4.4-4.3,4.4a.685.685,0,0,1-.433-.15.621.621,0,0,1-.217-.617C9.333,28.483,11.233,27.083,14.083,25.817Z" fill="#fff"/>
    </g>
  </g>
</svg>
