<svg xmlns="http://www.w3.org/2000/svg" width="18" height="18" viewBox="0 0 18 18">
  <path fill="#FFF" d="M15.455,13.365 C15.2146218,13.9271626 14.9174105,14.4632822 14.568,14.965 C14.2395033,15.4663781 13.8561356,15.9295721 13.425,16.346 C13.0334331,16.7369901 12.509805,16.967415 11.957,16.992 C11.4881554,16.9714422 11.0275598,16.8614694 10.6,16.668 C10.1385911,16.4677072 9.64285414,16.3583734 9.14,16.346 C8.62401995,16.3565156 8.11483618,16.4658204 7.64,16.668 C7.22863045,16.8533021 6.78930046,16.9688797 6.34,17.01 C5.77045474,17.0021028 5.22875444,16.7623102 4.84,16.346 C4.38885888,15.9146982 3.98644683,15.4351572 3.64,14.916 C3.10172565,14.1418238 2.67708267,13.2945584 2.379,12.4 C2.03753761,11.4389522 1.85809519,10.4278566 1.848,9.408 C1.82068551,8.40719573 2.06907184,7.41814767 2.566,6.549 C2.92668906,5.92155903 3.44339119,5.39796754 4.066,5.029 C4.68109745,4.66079066 5.38315009,4.46301476 6.1,4.456 C6.64098065,4.48785528 7.17258303,4.6116253 7.672,4.822 C8.06986959,4.99706456 8.48865793,5.12007943 8.918,5.188 C9.39168104,5.08952355 9.85456296,4.94483108 10.3,4.756 C10.8959301,4.51404084 11.5362141,4.40056846 12.179,4.423 C13.4184137,4.45663344 14.5717608,5.06453348 15.3,6.068 C14.1380734,6.68723618 13.4257435,7.90981107 13.46,9.226 C13.4465287,10.2235949 13.8616254,11.1790455 14.6,11.85 C14.9320671,12.1676212 15.3194451,12.4218062 15.743,12.6 C15.6536667,12.8666667 15.5576667,13.1216667 15.455,13.365 Z M12.272,0.836 C12.2617209,1.68929943 11.9418961,2.50982758 11.372,3.145 C10.7788414,3.95792148 9.82504116,4.42865719 8.819,4.405 C8.8063886,4.30147759 8.8000437,4.19728775 8.8,4.093 C8.82839815,3.22532731 9.16809496,2.39685045 9.757,1.759 C10.082914,1.39321314 10.478227,1.09579362 10.92,0.884 C11.3349307,0.670100325 11.7885373,0.541567106 12.254,0.506 C12.2659499,0.615594646 12.2719587,0.725755797 12.272,0.836 L12.272,0.836 Z"/>
</svg>
