<svg id="S_CrossLarge_18_N" xmlns="http://www.w3.org/2000/svg" width="32" height="32" viewBox="0 0 32 32">
  <g id="target_area" data-name="target area" transform="translate(-841 -261)" opacity="0">
    <rect id="canvas_32" width="32" height="32" transform="translate(841 261)" fill="#f6e0f6"/>
  </g>
  <g id="Group_294194" data-name="Group 294194">
    <rect id="target_area_18px" data-name="target area 18px" width="18" height="18" transform="translate(7 7)" fill="none"/>
    <g id="S_CrossLarge_18_N-2" data-name="S_CrossLarge_18_N" transform="translate(6.99 7)">
      <path id="Path_121568" data-name="Path 121568" d="M14.706,13.283,10.423,9l4.283-4.283A1,1,0,0,0,13.294,3.3l0,0L9.009,7.586,4.727,3.3A1,1,0,1,0,3.31,4.715l0,0L7.6,9,3.312,13.283A1,1,0,0,0,4.724,14.7l0,0,4.283-4.283L13.292,14.7a1,1,0,1,0,1.416-1.412Z" fill="#4b4b4b"/>
    </g>
  </g>
</svg>
