<svg xmlns="http://www.w3.org/2000/svg" width="18" height="18" viewBox="0 0 18 18">
  <g fill="none" fill-rule="evenodd">
    <path fill="#4285F4" d="M16.85,9.29583333 C16.8506207,8.78137742 16.8048802,8.26791211 16.7133333,7.76166667 L9.65,7.76166667 L9.65,10.6666667 L13.6866667,10.6666667 C13.51696,11.5943889 12.9749449,12.4122294 12.1866667,12.93 L12.1866667,14.8083333 L14.61,14.8083333 C16.1027201,13.3705971 16.9155886,11.3671973 16.8466667,9.29583333 L16.85,9.29583333 Z"/>
    <path fill="#34A853" d="M9.65,16.625 C11.4755555,16.6744183 13.2510276,16.0245645 14.6133333,14.8083333 L12.19,12.9258333 C11.0149526,13.6800729 9.55751085,13.8495977 8.24071569,13.385201 C6.92392053,12.9208043 5.89526647,11.8745033 5.45333333,10.55 L2.9475,10.55 L2.9475,12.4933333 C4.22098674,15.0268484 6.81442828,16.6255409 9.65,16.625 L9.65,16.625 Z"/>
    <path fill="#FBBC05" d="M5.45333333,10.55 C5.14002643,9.6258319 5.14002643,8.6241681 5.45333333,7.7 L5.45333333,5.75666667 L2.9475,5.75666667 C1.88411033,7.87632937 1.88411033,10.3736706 2.9475,12.4933333 L5.45333333,10.55 Z"/>
    <path fill="#EA4335" d="M9.65,4.60833333 C10.7157749,4.5903964 11.7457037,4.99308656 12.5166667,5.72916667 L14.6666667,3.57833333 C13.309369,2.30392341 11.5117022,1.6039681 9.65,1.625 C6.81442828,1.62445913 4.22098674,3.22315156 2.9475,5.75666667 L5.45333333,7.7 C6.0443951,5.87605575 7.73282572,4.63219602 9.65,4.60833333 Z"/>
  </g>
</svg>
