<svg xmlns="http://www.w3.org/2000/svg" width="18" height="18" viewBox="0 0 18 18">
  <path fill="#FFF" d="M9,-1.77635684e-15 C4.02943725,-1.77635684e-15 0,4.02943725 0,9 C0,13.9705627 4.02943725,18 9,18 C13.9705627,18 18,13.9705627 18,9 C18,6.61305159 17.0517884,4.32386638 15.363961,2.63603897 C13.6761336,0.948211563 11.3869484,-1.77635684e-15 9,-1.77635684e-15 L9,-1.77635684e-15 Z M14.638,5.609 L8.1,13.652 C8.01069133,13.7619608 7.8789305,13.8288773 7.73745641,13.8361226 C7.59598232,13.8433679 7.45807479,13.7902619 7.358,13.69 L3.086,9.5 C2.89080903,9.30475007 2.89080903,8.98824993 3.086,8.793 L3.793,8.086 C3.98824993,7.89080903 4.30475007,7.89080903 4.5,8.086 L7.6,11.1 L13.086,4.349 C13.259801,4.1367627 13.5721483,4.10418934 13.786,4.276 L14.562,4.907 C14.776467,5.0800683 14.8104585,5.39404233 14.638,5.609 L14.638,5.609 Z"/>
</svg>
