<svg xmlns="http://www.w3.org/2000/svg" xmlns:xlink="http://www.w3.org/1999/xlink" viewBox="0 0 135 40"><defs><style>.cls-1{fill:#a6a6a6;}.cls-10,.cls-2,.cls-9{fill:#fff;}.cls-3{fill:url(#linear-gradient);}.cls-4{fill:url(#linear-gradient-2);}.cls-5{fill:url(#linear-gradient-3);}.cls-6{fill:url(#linear-gradient-4);}.cls-7{opacity:0.2;}.cls-7,.cls-8,.cls-9{isolation:isolate;}.cls-8{opacity:0.12;}.cls-9{opacity:0.25;}.cls-10{stroke:#fff;stroke-miterlimit:10;stroke-width:0.2px;}</style><linearGradient id="linear-gradient" x1="21.8" y1="366.71" x2="5.02" y2="383.49" gradientTransform="translate(0 -358)" gradientUnits="userSpaceOnUse"><stop offset="0" stop-color="#00a0ff"/><stop offset="0.01" stop-color="#00a1ff"/><stop offset="0.26" stop-color="#00beff"/><stop offset="0.51" stop-color="#00d2ff"/><stop offset="0.76" stop-color="#00dfff"/><stop offset="1" stop-color="#00e3ff"/></linearGradient><linearGradient id="linear-gradient-2" x1="33.83" y1="378" x2="9.64" y2="378" gradientTransform="translate(0 -358)" gradientUnits="userSpaceOnUse"><stop offset="0" stop-color="#ffe000"/><stop offset="0.41" stop-color="#ffbd00"/><stop offset="0.78" stop-color="orange"/><stop offset="1" stop-color="#ff9c00"/></linearGradient><linearGradient id="linear-gradient-3" x1="24.83" y1="380.3" x2="2.07" y2="403.05" gradientTransform="translate(0 -358)" gradientUnits="userSpaceOnUse"><stop offset="0" stop-color="#ff3a44"/><stop offset="1" stop-color="#c31162"/></linearGradient><linearGradient id="linear-gradient-4" x1="7.3" y1="358.18" x2="17.46" y2="368.34" gradientTransform="translate(0 -358)" gradientUnits="userSpaceOnUse"><stop offset="0" stop-color="#32a071"/><stop offset="0.07" stop-color="#2da771"/><stop offset="0.48" stop-color="#15cf74"/><stop offset="0.8" stop-color="#06e775"/><stop offset="1" stop-color="#00f076"/></linearGradient></defs><title>Asset 36</title><g id="Layer_2" data-name="Layer 2"><g id="artwork"><rect width="135" height="40" rx="5" ry="5"/><path class="cls-1" d="M130,.8A4.2,4.2,0,0,1,134.2,5V35a4.2,4.2,0,0,1-4.2,4.2H5A4.2,4.2,0,0,1,.8,35h0V5A4.2,4.2,0,0,1,5,.8H130m0-.8H5A5,5,0,0,0,0,5V35a5,5,0,0,0,5,5H130a5,5,0,0,0,5-5V5A5,5,0,0,0,130,0Z"/><path class="cls-2" d="M68.14,21.75A4.25,4.25,0,1,0,72.41,26a4.19,4.19,0,0,0-4.13-4.25Zm0,6.83a2.58,2.58,0,1,1,2.39-2.75q0,.09,0,.17a2.46,2.46,0,0,1-2.34,2.58Zm-9.31-6.83A4.25,4.25,0,1,0,63.09,26,4.19,4.19,0,0,0,59,21.75h-.13Zm0,6.83a2.58,2.58,0,1,1,2.38-2.76q0,.09,0,.18a2.46,2.46,0,0,1-2.34,2.58h-.05ZM47.74,23.06v1.8h4.32a3.77,3.77,0,0,1-1,2.27,4.42,4.42,0,0,1-3.33,1.32,4.8,4.8,0,0,1,0-9.6A4.6,4.6,0,0,1,51,20.14l1.27-1.27A6.29,6.29,0,0,0,47.74,17a6.61,6.61,0,1,0-.51,13.21h.51a5.84,5.84,0,0,0,6.17-6.07,5.87,5.87,0,0,0-.1-1.13Zm45.31,1.4a3.92,3.92,0,0,0-7.65,1.28q0,.13,0,.26a4.16,4.16,0,0,0,4.07,4.25h.15a4.23,4.23,0,0,0,3.54-1.88l-1.45-1a2.43,2.43,0,0,1-2.09,1.18,2.16,2.16,0,0,1-2.06-1.29l5.69-2.35Zm-5.8,1.42a2.33,2.33,0,0,1,2.17-2.48h0a1.65,1.65,0,0,1,1.58.9ZM82.63,30H84.5V17.5H82.63Zm-3.06-7.3H79.5a3,3,0,0,0-2.24-1,4.26,4.26,0,0,0,0,8.51,2.9,2.9,0,0,0,2.24-1h.06v.61c0,1.63-.87,2.5-2.27,2.5a2.35,2.35,0,0,1-2.14-1.51l-1.63.68A4.05,4.05,0,0,0,77.29,34c2.19,0,4-1.29,4-4.43V22H79.57Zm-2.14,5.88a2.59,2.59,0,0,1,0-5.16,2.4,2.4,0,0,1,2.27,2.52V26a2.38,2.38,0,0,1-2.17,2.57h-.1ZM101.81,17.5H97.34V30h1.87V25.26h2.61a3.89,3.89,0,1,0,0-7.76Zm0,6H99.2V19.24h2.65a2.14,2.14,0,0,1,0,4.29Zm11.53-1.8A3.5,3.5,0,0,0,110,23.61l1.66.69a1.77,1.77,0,0,1,1.7-.92,1.8,1.8,0,0,1,2,1.58v.16a4.13,4.13,0,0,0-1.95-.48c-1.79,0-3.6,1-3.6,2.81a2.89,2.89,0,0,0,3,2.75h.08a2.63,2.63,0,0,0,2.4-1.2h.06v1h1.8V25.19c0-2.19-1.66-3.46-3.79-3.46Zm-.23,6.85c-.61,0-1.46-.31-1.46-1.06,0-1,1.06-1.33,2-1.33a3.32,3.32,0,0,1,1.7.42,2.26,2.26,0,0,1-2.19,2ZM123.74,22l-2.14,5.42h-.06L119.32,22h-2l3.33,7.58-1.9,4.21h1.95L125.82,22Zm-16.81,8h1.87V17.5h-1.87Z"/><path class="cls-3" d="M10.44,7.54A2,2,0,0,0,10,8.94V31.06a2,2,0,0,0,.46,1.4l.07.07L22.9,20.15v-.29L10.51,7.47Z"/><path class="cls-4" d="M27,24.28l-4.1-4.13v-.29L27,15.72l.09,0L32,18.56c1.4.79,1.4,2.09,0,2.89l-4.89,2.78Z"/><path class="cls-5" d="M27.12,24.22,22.9,20,10.44,32.46a1.63,1.63,0,0,0,2.08.06l14.61-8.3"/><path class="cls-6" d="M27.12,15.78,12.51,7.48a1.63,1.63,0,0,0-2.08.06L22.9,20Z"/><path class="cls-7" d="M27,24.13,12.51,32.38a1.67,1.67,0,0,1-2,0h0l-.07.07h0l.07.07h0a1.66,1.66,0,0,0,2,0l14.61-8.3Z"/><path class="cls-8" d="M10.44,32.32a2,2,0,0,1-.46-1.4v.15a2,2,0,0,0,.46,1.4l.07-.07Z"/><path class="cls-8" d="M32,21.3l-5,2.83.09.09L32,21.44A1.75,1.75,0,0,0,33,20h0A1.86,1.86,0,0,1,32,21.3Z"/><path class="cls-9" d="M12.51,7.62,32,18.7A1.86,1.86,0,0,1,33,20h0a1.75,1.75,0,0,0-1-1.44L12.51,7.48C11.11,6.69,10,7.35,10,8.95V9.1C10,7.49,11.12,6.83,12.51,7.62Z"/><path class="cls-10" d="M43.52,11.29a.87.87,0,0,1-.59-.25.85.85,0,0,1-.21-.6A.84.84,0,0,1,43,9.8a1,1,0,0,1,.68-.23.91.91,0,0,1,.69.25,1,1,0,0,1,.24.71,1.57,1.57,0,0,1-.06.44,1.53,1.53,0,0,1-.17.37,2,2,0,0,1-.25.33l-.32.31-.37.3-.39.28-.34.25a1.59,1.59,0,0,0-.22.19H41.7V11.81a1.75,1.75,0,0,0-.07-.51,1.84,1.84,0,0,0-.09-.42l-.09-.37a1.09,1.09,0,0,0-.07-.38,3.12,3.12,0,0,1,0-.42,1.8,1.8,0,0,1,.16-.77,1.66,1.66,0,0,1,.47-.6A2.21,2.21,0,0,1,42.76,8a3.81,3.81,0,0,1,2.07,0,1.91,1.91,0,0,1,.72.42A1.59,1.59,0,0,1,46,9a2.53,2.53,0,0,1,.13.82V13h-.76V9.91a1.82,1.82,0,0,0-.1-.62,1.2,1.2,0,0,0-.29-.46,1.29,1.29,0,0,0-.49-.29,2.13,2.13,0,0,0-.69-.1,2.42,2.42,0,0,0-.68.09,1.53,1.53,0,0,0-.51.25,1.1,1.1,0,0,0-.32.4,1.18,1.18,0,0,0-.11.52,3.67,3.67,0,0,0,0,.6,1.76,1.76,0,0,0,.11.59,2.37,2.37,0,0,1,.13.66,7,7,0,0,1,.09.79,2.42,2.42,0,0,1,.28-.23l.35-.27a3.69,3.69,0,0,0,.32-.28A.53.53,0,0,0,43.52,11.29Zm.55-.86a.41.41,0,0,0-.12-.31.45.45,0,0,0-.32-.11.44.44,0,0,0-.31.11.45.45,0,0,0,0,.62.43.43,0,0,0,.31.12.44.44,0,0,0,.32-.12A.41.41,0,0,0,44.07,10.43Z"/><path class="cls-10" d="M50,13h-.76V9.71a1.82,1.82,0,0,0-.07-.52,1.1,1.1,0,0,0-.21-.4.91.91,0,0,0-.35-.26,1.24,1.24,0,0,0-.5-.09,2.14,2.14,0,0,0-.78.15,3.4,3.4,0,0,0-.75.41l-.35-.56A3.56,3.56,0,0,1,47.07,8a2.88,2.88,0,0,1,1-.17,2.29,2.29,0,0,1,.8.13,1.55,1.55,0,0,1,1,1,2.33,2.33,0,0,1,.12.78Z"/><path class="cls-10" d="M52.15,12.22a.79.79,0,0,1,.71-.86h.38V9.75a1.89,1.89,0,0,0-.07-.52A1.19,1.19,0,0,0,53,8.81a.93.93,0,0,0-.35-.27,1.17,1.17,0,0,0-.5-.1,2.25,2.25,0,0,0-.77.14A3,3,0,0,0,50.6,9l-.36-.53A3.56,3.56,0,0,1,51.08,8a2.88,2.88,0,0,1,1-.17,2.29,2.29,0,0,1,.8.13,1.55,1.55,0,0,1,1,1,2.33,2.33,0,0,1,.12.78v2.52a.83.83,0,0,1-.24.63,1.14,1.14,0,0,1-1.37,0A.82.82,0,0,1,52.15,12.22Zm.49,0a.42.42,0,0,0,.12.31.44.44,0,0,0,.32.12.43.43,0,0,0,.31-.12.41.41,0,0,0,.12-.31.39.39,0,0,0-.12-.3.43.43,0,0,0-.31-.11.44.44,0,0,0-.32.11A.4.4,0,0,0,52.64,12.22Z"/><path class="cls-10" d="M58.83,7.91v3.31a2,2,0,0,1,.54.13,1.17,1.17,0,0,1,.36.22.78.78,0,0,1,.2.3,1,1,0,0,1,.06.36.82.82,0,0,1-.24.63,1,1,0,0,1-.73.23,1.32,1.32,0,0,1-.45-.07.68.68,0,0,1-.29-.19.78.78,0,0,1-.16-.32,1.83,1.83,0,0,1,0-.45v-.31a1.83,1.83,0,0,0-.46.16,2.63,2.63,0,0,0-.45.29,3.36,3.36,0,0,0-.4.38,2.75,2.75,0,0,0-.33.43h-.76V9.57H55.5a.86.86,0,0,1-.63-.22.85.85,0,0,1-.23-.63.84.84,0,0,1,.24-.63,1.13,1.13,0,0,1,1.36,0,.84.84,0,0,1,.24.63V12.1a1.93,1.93,0,0,1,.33-.33,2.51,2.51,0,0,1,.4-.25,2.94,2.94,0,0,1,.44-.18,2.75,2.75,0,0,1,.46-.1V7.91Zm-3.74.81a.41.41,0,0,0,.12.3.44.44,0,0,0,.32.12A.43.43,0,0,0,55.84,9a.4.4,0,0,0,.12-.3.41.41,0,0,0-.12-.31.43.43,0,0,0-.31-.11.44.44,0,0,0-.32.11.41.41,0,0,0-.12.32Zm4.38,3.5a.45.45,0,0,0-.15-.35.92.92,0,0,0-.49-.19v.51a.58.58,0,0,0,.07.31.26.26,0,0,0,.24.11.31.31,0,0,0,.24-.1A.41.41,0,0,0,59.47,12.22Z"/><path class="cls-10" d="M58,4.31a.68.68,0,0,1-.22.53,1,1,0,0,1-1.23,0,.73.73,0,0,1-.23-.57.82.82,0,0,1,.07-.35.65.65,0,0,1,.23-.26A1.33,1.33,0,0,1,57,3.48a3.93,3.93,0,0,1,.64-.1,4.16,4.16,0,0,0,.82-.1A2.14,2.14,0,0,0,59,3.14a.57.57,0,0,0,.25-.19.71.71,0,0,0,.1-.26H60a1.81,1.81,0,0,1-.12.42.78.78,0,0,1-.23.3,1.18,1.18,0,0,1-.39.2,3.22,3.22,0,0,1-.61.11h-.84A.66.66,0,0,1,58,4,.61.61,0,0,1,58,4.31Zm-1.22-.05a.37.37,0,0,0,.11.28.39.39,0,0,0,.28.1.38.38,0,0,0,.27-.1.4.4,0,0,0,0-.55.38.38,0,0,0-.27-.1.39.39,0,0,0-.28.1.36.36,0,0,0-.09.26Z"/><path class="cls-10" d="M62.36,6.83A1.1,1.1,0,0,0,62.08,6a1.23,1.23,0,0,0-.89-.28h-.66a4.11,4.11,0,0,1,.09-1,1.31,1.31,0,0,1,.3-.6,1.12,1.12,0,0,1,.55-.31,3.38,3.38,0,0,1,.83-.09h2.2v.6H62.24a1.39,1.39,0,0,0-.37,0,.91.91,0,0,0-.3.14.67.67,0,0,0-.2.24.7.7,0,0,0-.08.33h0a3.14,3.14,0,0,1,.82.09,1.23,1.23,0,0,1,.55.3A1.26,1.26,0,0,1,63,6a3,3,0,0,1,.1.82v4.49h.22a.86.86,0,0,1,.63.22.85.85,0,0,1,.23.63.84.84,0,0,1-.24.63,1.13,1.13,0,0,1-1.36,0,.84.84,0,0,1-.24-.63Zm1.35,5.39a.4.4,0,0,0-.12-.3.44.44,0,0,0-.32-.11.43.43,0,0,0-.31.11.39.39,0,0,0-.12.3.41.41,0,0,0,.12.31.43.43,0,0,0,.31.12.44.44,0,0,0,.32-.12A.42.42,0,0,0,63.71,12.22Z"/><path class="cls-10" d="M69.27,13h-.76V10.74a2.17,2.17,0,0,0-.06-.54.56.56,0,0,0-.13-.28q-.33.28-.65.6a6.71,6.71,0,0,0-.61.7,6.09,6.09,0,0,0-.53.82,5.09,5.09,0,0,0-.4,1h-.76V9.57h-.22a.86.86,0,0,1-.63-.22.85.85,0,0,1-.23-.63.84.84,0,0,1,.24-.63,1.13,1.13,0,0,1,1.36,0,.84.84,0,0,1,.24.63V11.6a4,4,0,0,1,.35-.57,5.92,5.92,0,0,1,.46-.55l.51-.5A6.22,6.22,0,0,1,68,9.57l-.2-.17a1.25,1.25,0,0,1-.17-.2A1.08,1.08,0,0,1,67.47,9a.79.79,0,0,1,0-.27.92.92,0,0,1,.07-.36.72.72,0,0,1,.18-.26A.81.81,0,0,1,68,7.91a1.24,1.24,0,0,1,.38,0,1.28,1.28,0,0,1,.37,0,.82.82,0,0,1,.3.16.72.72,0,0,1,.19.26.85.85,0,0,1,.07.36.8.8,0,0,1-.13.45,1.64,1.64,0,0,1-.34.37,1.52,1.52,0,0,1,.24.27,1.19,1.19,0,0,1,.14.29,1.47,1.47,0,0,1,.07.32v.36ZM64.79,8.73a.41.41,0,0,0,.12.3.44.44,0,0,0,.32.12A.43.43,0,0,0,65.54,9a.4.4,0,0,0,.12-.3.41.41,0,0,0-.12-.31.43.43,0,0,0-.31-.11.44.44,0,0,0-.32.11.41.41,0,0,0-.13.31Zm3.9,0a.38.38,0,0,0-.09-.27.34.34,0,0,0-.25-.1.32.32,0,0,0-.26.1.38.38,0,0,0-.09.26.4.4,0,0,0,0,.16.55.55,0,0,0,.09.14l.12.11.14.09a1,1,0,0,0,.21-.2.45.45,0,0,0,.13-.32Z"/><path class="cls-10" d="M74.8,13h-.72a6.47,6.47,0,0,0-.4-.94,4.36,4.36,0,0,0-.5-.77,2.41,2.41,0,0,0-.57-.52,1.16,1.16,0,0,0-.62-.19,1.36,1.36,0,0,0-.34,0,.79.79,0,0,0-.27.12.58.58,0,0,0-.17.2.61.61,0,0,0-.06.28v.15h.22a.86.86,0,0,1,.63.22.85.85,0,0,1,.23.63.83.83,0,0,1-.24.63.94.94,0,0,1-.67.23,1,1,0,0,1-.69-.23.83.83,0,0,1-.24-.63v-1a1.47,1.47,0,0,1,.08-.51,1,1,0,0,1,.26-.4,1.2,1.2,0,0,1,.45-.26,2,2,0,0,1,.65-.09,1.86,1.86,0,0,1,.77.16,2.41,2.41,0,0,1,.63.41,2.82,2.82,0,0,1,.49.57,3.19,3.19,0,0,1,.32.65V10a1.85,1.85,0,0,0-.12-.68,1.27,1.27,0,0,0-.82-.77,2.1,2.1,0,0,0-.65-.09,3.25,3.25,0,0,0-1,.15,3.48,3.48,0,0,0-.84.41l-.35-.56a3.48,3.48,0,0,1,1-.46,4.22,4.22,0,0,1,1.26-.17,3.23,3.23,0,0,1,1,.14,2,2,0,0,1,.74.42,1.74,1.74,0,0,1,.45.67,2.5,2.5,0,0,1,.15.9Zm-3.06-.78a.4.4,0,0,0-.12-.3.44.44,0,0,0-.32-.11.43.43,0,0,0-.31.11.4.4,0,0,0-.12.3.42.42,0,0,0,.12.31.43.43,0,0,0,.31.12.44.44,0,0,0,.32-.12A.42.42,0,0,0,71.74,12.22Z"/><path class="cls-10" d="M78,11.29a.87.87,0,0,1-.59-.25.85.85,0,0,1-.21-.6.84.84,0,0,1,.24-.63,1,1,0,0,1,.68-.23.91.91,0,0,1,.69.25,1,1,0,0,1,.24.71A1.56,1.56,0,0,1,79,11a1.53,1.53,0,0,1-.16.37,2,2,0,0,1-.25.33l-.32.31-.37.3-.39.28-.34.25a1.59,1.59,0,0,0-.22.19h-.79V11.84a1.19,1.19,0,0,0-.07-.51,1.76,1.76,0,0,1-.09-.42l-.09-.37a1.09,1.09,0,0,0-.07-.38,3.12,3.12,0,0,1,0-.42A1.8,1.8,0,0,1,76,9a1.66,1.66,0,0,1,.47-.6A2.21,2.21,0,0,1,77.22,8a3.81,3.81,0,0,1,2.07,0,1.91,1.91,0,0,1,.72.42,1.59,1.59,0,0,1,.41.65,2.52,2.52,0,0,1,.13.82V13H79.7V9.91a1.82,1.82,0,0,0-.1-.62,1.2,1.2,0,0,0-.29-.46,1.29,1.29,0,0,0-.49-.29,2.13,2.13,0,0,0-.69-.1,2.42,2.42,0,0,0-.68.09,1.53,1.53,0,0,0-.51.25,1.1,1.1,0,0,0-.32.4,1.18,1.18,0,0,0-.11.52,3.67,3.67,0,0,0,0,.6,1.76,1.76,0,0,0,.11.59,2.37,2.37,0,0,1,.13.66,7,7,0,0,1,.09.79,2.41,2.41,0,0,1,.28-.23l.35-.27a3.7,3.7,0,0,0,.32-.28A.53.53,0,0,0,78,11.29Zm.55-.86a.41.41,0,0,0-.12-.31.45.45,0,0,0-.32-.11.44.44,0,0,0-.31.11.45.45,0,0,0,0,.62.43.43,0,0,0,.31.12.44.44,0,0,0,.32-.12.41.41,0,0,0,.11-.31Z"/><path class="cls-10" d="M81.17,5.37l.28-.59a5.55,5.55,0,0,1,.26-.5A1.87,1.87,0,0,1,82,3.93a.85.85,0,0,1,.28-.2.9.9,0,0,1,.35-.06.66.66,0,0,1,.54.25,1.35,1.35,0,0,1,.2.83v6.63h.22a.86.86,0,0,1,.63.22.85.85,0,0,1,.23.63.84.84,0,0,1-.24.63,1.13,1.13,0,0,1-1.36,0,.84.84,0,0,1-.24-.63V4.73a1.2,1.2,0,0,0,0-.35.1.1,0,0,0-.11-.1h-.08l-.09.07-.11.15a3,3,0,0,0-.14.27l-.8,1.62h-.56l-.44-2.73h.7Zm2.75,6.85a.4.4,0,0,0-.12-.3.51.51,0,0,0-.63,0,.39.39,0,0,0-.12.3.41.41,0,0,0,.12.31.47.47,0,0,0,.63,0A.42.42,0,0,0,83.92,12.22Z"/><path class="cls-10" d="M87,11.29a.87.87,0,0,1-.59-.25.85.85,0,0,1-.21-.6.84.84,0,0,1,.24-.63,1,1,0,0,1,.68-.23.91.91,0,0,1,.69.25,1,1,0,0,1,.24.71A1.56,1.56,0,0,1,88,11a1.53,1.53,0,0,1-.17.37,2,2,0,0,1-.25.33l-.32.31-.37.3-.39.28-.34.25L86,13h-.79V11.81a1.75,1.75,0,0,0-.07-.51,1.84,1.84,0,0,0-.09-.42L85,10.51a1.09,1.09,0,0,0-.07-.38,3.12,3.12,0,0,1,0-.42,1.8,1.8,0,0,1,.16-.77,1.66,1.66,0,0,1,.47-.6A2.21,2.21,0,0,1,86.27,8a3.81,3.81,0,0,1,2.07,0,1.91,1.91,0,0,1,.72.42,1.59,1.59,0,0,1,.41.65,2.52,2.52,0,0,1,.13.82V13h-.76V9.91a1.82,1.82,0,0,0-.1-.62,1.2,1.2,0,0,0-.29-.46A1.29,1.29,0,0,0,88,8.54a2.13,2.13,0,0,0-.69-.1,2.42,2.42,0,0,0-.68.09,1.53,1.53,0,0,0-.51.25,1.1,1.1,0,0,0-.32.4,1.18,1.18,0,0,0-.11.52,3.66,3.66,0,0,0,0,.6,1.76,1.76,0,0,0,.11.59,2.37,2.37,0,0,1,.13.66,7,7,0,0,1,.09.79,2.42,2.42,0,0,1,.28-.23l.35-.27a3.7,3.7,0,0,0,.32-.28A.53.53,0,0,0,87,11.29Zm.55-.86a.41.41,0,0,0-.12-.31.45.45,0,0,0-.32-.11.44.44,0,0,0-.31.11.45.45,0,0,0,0,.62.43.43,0,0,0,.31.12.44.44,0,0,0,.32-.12.41.41,0,0,0,.14-.31Z"/><path class="cls-10" d="M89.09,3.72A.69.69,0,0,1,89,4a1.26,1.26,0,0,1-.12.24,1.48,1.48,0,0,1-.15.2l-.14.14a2.4,2.4,0,0,0,.7-.09.79.79,0,0,0,.4-.27,1,1,0,0,0,.18-.48,5.26,5.26,0,0,0,0-.71h.67a5.12,5.12,0,0,1-.07.88,1.29,1.29,0,0,1-.27.62,1.23,1.23,0,0,1-.59.37,3.56,3.56,0,0,1-1,.12h-.5V4.58l.17-.14.15-.17a.88.88,0,0,0,.11-.18.44.44,0,0,0,0-.18.71.71,0,0,1-.19.11.64.64,0,0,1-.23,0,.35.35,0,0,1-.29-.14.59.59,0,0,1-.11-.37.54.54,0,0,1,.13-.38A.57.57,0,0,1,88.29,3a.83.83,0,0,1,.33.06.6.6,0,0,1,.22.16.64.64,0,0,1,.13.23A.92.92,0,0,1,89.09,3.72Zm-.93-.2a.18.18,0,0,0,.05.14.2.2,0,0,0,.14,0,.19.19,0,0,0,.13,0,.18.18,0,0,0,.05-.14.19.19,0,0,0-.05-.14.18.18,0,0,0-.13-.05.17.17,0,0,0-.19.19Z"/><path class="cls-10" d="M93.66,13.09a2.12,2.12,0,0,1-.51,0,.85.85,0,0,1-.35-.18,1.17,1.17,0,0,1-.26-.34A4.4,4.4,0,0,1,92.3,12l-.24-.63-.2.06h-.22a.93.93,0,0,1-.68-.23.84.84,0,0,1-.23-.64A.83.83,0,0,1,91,9.91a.94.94,0,0,1,.68-.23,1,1,0,0,1,.36.06.73.73,0,0,1,.27.18,1.33,1.33,0,0,1,.21.32,4.74,4.74,0,0,1,.2.47l.43,1.15a1.33,1.33,0,0,0,.24.43.4.4,0,0,0,.3.12.42.42,0,0,0,.31-.12.61.61,0,0,0,.12-.43V9.75A1.47,1.47,0,0,0,94,9.23a1.12,1.12,0,0,0-.27-.41,1.23,1.23,0,0,0-.44-.27,1.8,1.8,0,0,0-.62-.1,2.56,2.56,0,0,0-.85.15A3.66,3.66,0,0,0,91,9l-.35-.56a4.09,4.09,0,0,1,.9-.45,3.29,3.29,0,0,1,1.12-.18,2.93,2.93,0,0,1,.91.13,2,2,0,0,1,.69.38,1.63,1.63,0,0,1,.43.59,1.93,1.93,0,0,1,.15.77v2.16a2.15,2.15,0,0,1-.06.54.91.91,0,0,1-.2.38.86.86,0,0,1-.37.23A1.75,1.75,0,0,1,93.66,13.09ZM91.2,10.57a.4.4,0,0,0,.12.31.44.44,0,0,0,.32.11.43.43,0,0,0,.31-.11.4.4,0,0,0,.12-.31.41.41,0,0,0-.12-.31.43.43,0,0,0-.31-.11.44.44,0,0,0-.32.11A.41.41,0,0,0,91.2,10.57Z"/><path class="cls-10" d="M100.23,13h-.76V9.71a1.82,1.82,0,0,0-.07-.52,1.1,1.1,0,0,0-.21-.4.91.91,0,0,0-.35-.26,1.24,1.24,0,0,0-.5-.09,2.14,2.14,0,0,0-.78.15,3.4,3.4,0,0,0-.75.41l-.35-.56A3.56,3.56,0,0,1,97.3,8a2.88,2.88,0,0,1,1-.17,2.29,2.29,0,0,1,.8.13,1.55,1.55,0,0,1,1,1,2.33,2.33,0,0,1,.12.78Z"/><path class="cls-10" d="M101.4,13V11.23a1.56,1.56,0,0,1,.05-.43.9.9,0,0,1,.17-.33,1,1,0,0,1,.31-.24,1.91,1.91,0,0,1,.46-.16,1,1,0,0,0-.28-.16l-.33-.11-.32-.07h-.22a2.4,2.4,0,0,1,.15-.76,1.61,1.61,0,0,1,.4-.6,1.8,1.8,0,0,1,.67-.39,3,3,0,0,1,1-.14,3.17,3.17,0,0,1,1.05.15,1.68,1.68,0,0,1,.67.42,1.55,1.55,0,0,1,.36.65,3,3,0,0,1,.11.82V13h-.76V9.91a2.3,2.3,0,0,0-.08-.62,1.19,1.19,0,0,0-.25-.46,1.09,1.09,0,0,0-.44-.29,2,2,0,0,0-.67-.1,2.1,2.1,0,0,0-.62.08,1.27,1.27,0,0,0-.41.21.93.93,0,0,0-.25.29,1.07,1.07,0,0,0-.11.33,1.8,1.8,0,0,1,.35.09l.32.14a1.67,1.67,0,0,1,.26.17,1.29,1.29,0,0,1,.18.17v.26a2.35,2.35,0,0,0-.44.14.91.91,0,0,0-.3.21.76.76,0,0,0-.17.3,1.35,1.35,0,0,0-.06.42V13Z"/></g></g></svg>