<svg xmlns="http://www.w3.org/2000/svg" xmlns:xlink="http://www.w3.org/1999/xlink" viewBox="0 0 135 40"><defs><style>.cls-1{fill:#a6a6a6;}.cls-10,.cls-2,.cls-9{fill:#fff;}.cls-3{fill:url(#linear-gradient);}.cls-4{fill:url(#linear-gradient-2);}.cls-5{fill:url(#linear-gradient-3);}.cls-6{fill:url(#linear-gradient-4);}.cls-7{opacity:0.2;}.cls-7,.cls-8,.cls-9{isolation:isolate;}.cls-8{opacity:0.12;}.cls-9{opacity:0.25;}.cls-10{stroke:#fff;stroke-miterlimit:10;stroke-width:0.2px;}</style><linearGradient id="linear-gradient" x1="21.8" y1="366.71" x2="5.02" y2="383.49" gradientTransform="translate(0 -358)" gradientUnits="userSpaceOnUse"><stop offset="0" stop-color="#00a0ff"/><stop offset="0.01" stop-color="#00a1ff"/><stop offset="0.26" stop-color="#00beff"/><stop offset="0.51" stop-color="#00d2ff"/><stop offset="0.76" stop-color="#00dfff"/><stop offset="1" stop-color="#00e3ff"/></linearGradient><linearGradient id="linear-gradient-2" x1="33.83" y1="378" x2="9.64" y2="378" gradientTransform="translate(0 -358)" gradientUnits="userSpaceOnUse"><stop offset="0" stop-color="#ffe000"/><stop offset="0.41" stop-color="#ffbd00"/><stop offset="0.78" stop-color="orange"/><stop offset="1" stop-color="#ff9c00"/></linearGradient><linearGradient id="linear-gradient-3" x1="24.83" y1="380.3" x2="2.07" y2="403.05" gradientTransform="translate(0 -358)" gradientUnits="userSpaceOnUse"><stop offset="0" stop-color="#ff3a44"/><stop offset="1" stop-color="#c31162"/></linearGradient><linearGradient id="linear-gradient-4" x1="7.3" y1="358.18" x2="17.46" y2="368.34" gradientTransform="translate(0 -358)" gradientUnits="userSpaceOnUse"><stop offset="0" stop-color="#32a071"/><stop offset="0.07" stop-color="#2da771"/><stop offset="0.48" stop-color="#15cf74"/><stop offset="0.8" stop-color="#06e775"/><stop offset="1" stop-color="#00f076"/></linearGradient></defs><title>Asset 39</title><g id="Layer_2" data-name="Layer 2"><g id="artwork"><rect width="135" height="40" rx="5" ry="5"/><path class="cls-1" d="M130,.8A4.2,4.2,0,0,1,134.2,5V35a4.2,4.2,0,0,1-4.2,4.2H5A4.2,4.2,0,0,1,.8,35h0V5A4.2,4.2,0,0,1,5,.8H130m0-.8H5A5,5,0,0,0,0,5V35a5,5,0,0,0,5,5H130a5,5,0,0,0,5-5V5A5,5,0,0,0,130,0Z"/><path class="cls-2" d="M68.14,21.75A4.25,4.25,0,1,0,72.41,26a4.19,4.19,0,0,0-4.13-4.25Zm0,6.83a2.58,2.58,0,1,1,2.39-2.75q0,.09,0,.17a2.46,2.46,0,0,1-2.34,2.58Zm-9.31-6.83A4.25,4.25,0,1,0,63.09,26,4.19,4.19,0,0,0,59,21.75h-.13Zm0,6.83a2.58,2.58,0,1,1,2.38-2.76q0,.09,0,.18a2.46,2.46,0,0,1-2.34,2.58h-.05ZM47.74,23.06v1.8h4.32a3.77,3.77,0,0,1-1,2.27,4.42,4.42,0,0,1-3.33,1.32,4.8,4.8,0,0,1,0-9.6A4.6,4.6,0,0,1,51,20.14l1.27-1.27A6.29,6.29,0,0,0,47.74,17a6.61,6.61,0,1,0-.51,13.21h.51a5.84,5.84,0,0,0,6.17-6.07,5.87,5.87,0,0,0-.1-1.13Zm45.31,1.4a3.92,3.92,0,0,0-7.65,1.28q0,.13,0,.26a4.16,4.16,0,0,0,4.07,4.25h.15a4.23,4.23,0,0,0,3.54-1.88l-1.45-1a2.43,2.43,0,0,1-2.09,1.18,2.16,2.16,0,0,1-2.06-1.29l5.69-2.35Zm-5.8,1.42a2.33,2.33,0,0,1,2.17-2.48h0a1.65,1.65,0,0,1,1.58.9ZM82.63,30H84.5V17.5H82.63Zm-3.06-7.3H79.5a3,3,0,0,0-2.24-1,4.26,4.26,0,0,0,0,8.51,2.9,2.9,0,0,0,2.24-1h.06v.61c0,1.63-.87,2.5-2.27,2.5a2.35,2.35,0,0,1-2.14-1.51l-1.63.68A4.05,4.05,0,0,0,77.29,34c2.19,0,4-1.29,4-4.43V22H79.57Zm-2.14,5.88a2.59,2.59,0,0,1,0-5.16,2.4,2.4,0,0,1,2.27,2.52V26a2.38,2.38,0,0,1-2.17,2.57h-.1ZM101.81,17.5H97.34V30h1.87V25.26h2.61a3.89,3.89,0,1,0,0-7.76Zm0,6H99.2V19.24h2.65a2.14,2.14,0,0,1,0,4.29Zm11.53-1.8A3.5,3.5,0,0,0,110,23.61l1.66.69a1.77,1.77,0,0,1,1.7-.92,1.8,1.8,0,0,1,2,1.58v.16a4.13,4.13,0,0,0-1.95-.48c-1.79,0-3.6,1-3.6,2.81a2.89,2.89,0,0,0,3,2.75h.08a2.63,2.63,0,0,0,2.4-1.2h.06v1h1.8V25.19c0-2.19-1.66-3.46-3.79-3.46Zm-.23,6.85c-.61,0-1.46-.31-1.46-1.06,0-1,1.06-1.33,2-1.33a3.32,3.32,0,0,1,1.7.42,2.26,2.26,0,0,1-2.19,2ZM123.74,22l-2.14,5.42h-.06L119.32,22h-2l3.33,7.58-1.9,4.21h1.95L125.82,22Zm-16.81,8h1.87V17.5h-1.87Z"/><path class="cls-3" d="M10.44,7.54A2,2,0,0,0,10,8.94V31.06a2,2,0,0,0,.46,1.4l.07.07L22.9,20.15v-.29L10.51,7.47Z"/><path class="cls-4" d="M27,24.28l-4.1-4.13v-.29L27,15.72l.09,0L32,18.56c1.4.79,1.4,2.09,0,2.89l-4.89,2.78Z"/><path class="cls-5" d="M27.12,24.22,22.9,20,10.44,32.46a1.63,1.63,0,0,0,2.08.06l14.61-8.3"/><path class="cls-6" d="M27.12,15.78,12.51,7.48a1.63,1.63,0,0,0-2.08.06L22.9,20Z"/><path class="cls-7" d="M27,24.13,12.51,32.38a1.67,1.67,0,0,1-2,0h0l-.07.07h0l.07.07h0a1.66,1.66,0,0,0,2,0l14.61-8.3Z"/><path class="cls-8" d="M10.44,32.32a2,2,0,0,1-.46-1.4v.15a2,2,0,0,0,.46,1.4l.07-.07Z"/><path class="cls-8" d="M32,21.3l-5,2.83.09.09L32,21.44A1.75,1.75,0,0,0,33,20h0A1.86,1.86,0,0,1,32,21.3Z"/><path class="cls-9" d="M12.51,7.62,32,18.7A1.86,1.86,0,0,1,33,20h0a1.75,1.75,0,0,0-1-1.44L12.51,7.48C11.11,6.69,10,7.35,10,8.95V9.1C10,7.49,11.12,6.83,12.51,7.62Z"/><path class="cls-10" d="M44.69,7.56v1.3l.09-.11a18,18,0,0,1,2.59,1.51l-.38.49a16.68,16.68,0,0,0-2.3-1.45v3.84h-.58V7.56H41.33V7h6.44v.54Z"/><path class="cls-10" d="M54.78,9.08a9.55,9.55,0,0,1-1.1,2.5c.2.63.47,1,.79,1s.26-.31.3-1.17a1.18,1.18,0,0,0,.42.28c-.09,1.09-.26,1.41-.77,1.41s-.83-.36-1.1-1a6.33,6.33,0,0,1-1,1.07,2.08,2.08,0,0,0-.38-.37,5.07,5.07,0,0,0,1.22-1.27,14.44,14.44,0,0,1-.42-3H48.61V8.09h1.76V7.47H49V7h1.39V6.45h.52V7h1.28v.44h-1.3v.62h1.79V6.46h.53V8.09H55.1v.44H53.21a16.47,16.47,0,0,0,.28,2.34,8.81,8.81,0,0,0,.8-2ZM52.46,12l-1.31.14v1h-.51V12.2l-1.89.2-.06-.5,2-.16V11h-1a1.13,1.13,0,0,0-.58.1,3.25,3.25,0,0,0-.17-.5c.11,0,.22-.17.34-.36s.15-.28.28-.53h-.82V9.27h1A5.86,5.86,0,0,0,50,8.56l.53.15a5.55,5.55,0,0,1-.24.56h2.14v.44H50.09a8.88,8.88,0,0,1-.47.82h1V10h.51v.59h1.15V11H51.14v.68l1.31-.12Zm2-4.18a5.23,5.23,0,0,0-.88-1L54,6.57a4.41,4.41,0,0,1,.9.92Z"/><path class="cls-10" d="M57.13,7.93V9.4a8.63,8.63,0,0,1-.69,3.8,1.91,1.91,0,0,0-.46-.3,7.82,7.82,0,0,0,.61-3.5v-2h2.9a7.94,7.94,0,0,0-.39-.85l.53-.13a7.52,7.52,0,0,1,.47,1h2.44v.52Zm5.5,4.35v.52h-5.4v-.52H60.1a13.34,13.34,0,0,0,1.54-3.85l.57.2a16.49,16.49,0,0,1-1.55,3.65ZM58.4,11.5A19,19,0,0,0,57.61,9l.47-.19a18.51,18.51,0,0,1,.82,2.47Zm1.39-.41a20.2,20.2,0,0,0-.61-2.49l.49-.13a19.84,19.84,0,0,1,.63,2.47Z"/><path class="cls-10" d="M69.71,12.41c0,.35-.09.51-.33.61A4.76,4.76,0,0,1,68,13.1a2.12,2.12,0,0,0-.18-.53H69c.14,0,.2,0,.2-.19V10.92h-2v2.15h-.54V10.92H64.85a4.19,4.19,0,0,1-.91,2.26,1.79,1.79,0,0,0-.42-.36,4.73,4.73,0,0,0,.88-3.2V7h5.31Zm-3-2V9.19H64.93V10.4ZM65,7.52V8.69h1.74V7.51Zm4.25,0h-2V8.69h2Zm0,2.89V9.19h-2V10.4Z"/><path class="cls-10" d="M71.25,13a1.27,1.27,0,0,0,.92-1.07H72a.5.5,0,0,1-.55-.52.51.51,0,0,1,.49-.53H72c.4,0,.62.33.62.84a1.74,1.74,0,0,1-1.26,1.66Z"/><path class="cls-10" d="M78,11.31a2.13,2.13,0,0,0,.19.45A11.55,11.55,0,0,0,76.7,13a2.17,2.17,0,0,0-.28-.46.73.73,0,0,0,.34-.62V9.28H75.67V8.76h1.61v3.11Zm-.8-3.22a9,9,0,0,0-1-1.09l.35-.32a9.16,9.16,0,0,1,1.1,1.07Zm5.08.74v.42H77.92V8.83h1.9V8.32h-1.5V7.93h1.5V7.47H78.14V7.05h1.68V6.48h.53v.57H82.1v.42H80.35v.46h1.53v.39H80.35v.51Zm-.57,3.7c0,.28-.06.42-.25.5a3.21,3.21,0,0,1-1.05.08,2.09,2.09,0,0,0-.16-.47h.81c.09,0,.14,0,.14-.12V12H78.95v1.12h-.51V9.67h3.3Zm-2.79-2.44v.56H81.2v-.56Zm2.28,1.53V11H78.95v.59Z"/><path class="cls-10" d="M87,11.9v.49l-3.74.53-.09-.54,1.68-.2V10.9H83.49v-.5h1.39V9.53h.53v.87h1.37v.5H85.41v1.21ZM86,7.82a8.43,8.43,0,0,1,1.15,1.63l-.42.25-.25-.45c-1.15.08-2.32.14-3.15.19V8.92H84a12.27,12.27,0,0,0,.54-1.45H83.28V7H87v.48H85.07c-.18.46-.39,1-.6,1.43l1.68-.07c-.18-.26-.39-.52-.58-.75Zm1.85,3.54h-.52v-4h.52Zm1.72-4.68v5.73c0,.37-.09.54-.33.63a4.51,4.51,0,0,1-1.26.09,3.19,3.19,0,0,0-.18-.56h1.07c.14,0,.18,0,.18-.18V6.68Z"/></g></g></svg>