<svg width="83" height="88" viewBox="0 0 83 88" fill="none" xmlns="http://www.w3.org/2000/svg">
<g opacity="0.75">
<path d="M37.2676 80.4511V1.59033H64.855V80.4511" stroke="#B1EFFA" stroke-width="2" stroke-miterlimit="10" stroke-linecap="round" stroke-linejoin="round"/>
<path d="M27.7676 42.9503V9.86021L37.2673 1.59033" stroke="#B1EFFA" stroke-width="2" stroke-miterlimit="10" stroke-linecap="round" stroke-linejoin="round"/>
<path d="M27.7676 80.133V75.3619" stroke="#B1EFFA" stroke-width="2" stroke-miterlimit="10" stroke-linecap="round" stroke-linejoin="round"/>
<path opacity="0.75" d="M42.6958 8.45007H60.2746" stroke="#B1EFFA" stroke-width="2" stroke-miterlimit="10" stroke-linecap="round" stroke-linejoin="round" stroke-dasharray="0.3 3"/>
<path opacity="0.75" d="M42.6958 13.3802H60.2746" stroke="#B1EFFA" stroke-width="2" stroke-miterlimit="10" stroke-linecap="round" stroke-linejoin="round" stroke-dasharray="0.3 3"/>
<path opacity="0.75" d="M42.6958 18.3103H60.2746" stroke="#B1EFFA" stroke-width="2" stroke-miterlimit="10" stroke-linecap="round" stroke-linejoin="round" stroke-dasharray="0.3 3"/>
<path opacity="0.75" d="M42.6958 23.2299H60.2746" stroke="#B1EFFA" stroke-width="2" stroke-miterlimit="10" stroke-linecap="round" stroke-linejoin="round" stroke-dasharray="0.3 3"/>
<path opacity="0.75" d="M42.6958 28.16H60.2746" stroke="#B1EFFA" stroke-width="2" stroke-miterlimit="10" stroke-linecap="round" stroke-linejoin="round" stroke-dasharray="0.3 3"/>
<path opacity="0.75" d="M42.6958 33.0901H60.2746" stroke="#B1EFFA" stroke-width="2" stroke-miterlimit="10" stroke-linecap="round" stroke-linejoin="round" stroke-dasharray="0.3 3"/>
<path opacity="0.75" d="M42.6958 38.0203H60.2746" stroke="#B1EFFA" stroke-width="2" stroke-miterlimit="10" stroke-linecap="round" stroke-linejoin="round" stroke-dasharray="0.3 3"/>
<path opacity="0.75" d="M42.6958 42.9503H60.2746" stroke="#B1EFFA" stroke-width="2" stroke-miterlimit="10" stroke-linecap="round" stroke-linejoin="round" stroke-dasharray="0.3 3"/>
<path opacity="0.75" d="M42.6958 47.8805H60.2746" stroke="#B1EFFA" stroke-width="2" stroke-miterlimit="10" stroke-linecap="round" stroke-linejoin="round" stroke-dasharray="0.3 3"/>
<path opacity="0.75" d="M42.6958 52.8105H60.2746" stroke="#B1EFFA" stroke-width="2" stroke-miterlimit="10" stroke-linecap="round" stroke-linejoin="round" stroke-dasharray="0.3 3"/>
<path opacity="0.75" d="M42.6958 57.7407H60.2746" stroke="#B1EFFA" stroke-width="2" stroke-miterlimit="10" stroke-linecap="round" stroke-linejoin="round" stroke-dasharray="0.3 3"/>
<path opacity="0.75" d="M42.6958 62.6709H60.2746" stroke="#B1EFFA" stroke-width="2" stroke-miterlimit="10" stroke-linecap="round" stroke-linejoin="round" stroke-dasharray="0.3 3"/>
<path opacity="0.75" d="M42.6958 67.5903H60.2746" stroke="#B1EFFA" stroke-width="2" stroke-miterlimit="10" stroke-linecap="round" stroke-linejoin="round" stroke-dasharray="0.3 3"/>
<path d="M26.485 55.8746C27.6831 55.0159 28.4571 53.6163 28.4571 52.026C28.4571 49.4072 26.3366 47.2867 23.7178 47.2867C23.0711 47.2867 22.4561 47.4139 21.8942 47.6578C22.0638 47.1913 22.1699 46.693 22.1699 46.1734C22.1699 43.8303 20.2614 41.9219 17.9183 41.9219C15.5752 41.9219 13.6667 43.8303 13.6667 46.1734C13.6667 47.1701 14.0166 48.0819 14.5891 48.8028C14.4619 48.7922 14.3241 48.7816 14.1968 48.7816C11.1327 48.7816 8.65178 51.2626 8.65178 54.3161C8.65178 55.8852 9.30913 57.2954 10.3482 58.3026C7.66576 59.3416 5.75732 61.9286 5.75732 64.9821C5.75732 68.9368 8.95925 72.1387 12.914 72.1387C15.66 72.1387 17.6108 70.5908 18.8089 68.3219C20.1448 69.6366 22.4137 70.4424 24.4388 70.4424C28.5419 70.4424 31.8711 67.1132 31.8711 63.0101C31.8711 59.6173 29.5915 56.7652 26.485 55.8746Z" stroke="#B1EFFA" stroke-width="2" stroke-miterlimit="10" stroke-linecap="round" stroke-linejoin="round"/>
<path d="M18.8195 64.7064L13.2744 61.7272" stroke="#B1EFFA" stroke-width="2" stroke-miterlimit="10" stroke-linecap="round" stroke-linejoin="round"/>
<path d="M18.8193 80.4511V50.5099" stroke="#B1EFFA" stroke-width="2" stroke-miterlimit="10" stroke-linecap="round" stroke-linejoin="round"/>
<path d="M22.6894 53.1923L18.8195 55.599L14.5361 53.1923" stroke="#B1EFFA" stroke-width="2" stroke-miterlimit="10" stroke-linecap="round" stroke-linejoin="round"/>
<path d="M18.8193 64.7065L24.7991 62.0771" stroke="#B1EFFA" stroke-width="2" stroke-miterlimit="10" stroke-linecap="round" stroke-linejoin="round"/>
</g>
</svg>
