<svg width="85" height="88" viewBox="0 0 85 88" fill="none" xmlns="http://www.w3.org/2000/svg">
<g opacity="0.75">
<path d="M66.4665 80.2284V16.0202H27.4602V46.0357" stroke="#B1EFFA" stroke-width="2" stroke-miterlimit="10" stroke-linecap="round" stroke-linejoin="round"/>
<path d="M27.4602 76.348V80.2284" stroke="#B1EFFA" stroke-width="2" stroke-miterlimit="10" stroke-linecap="round" stroke-linejoin="round"/>
<path d="M44.3923 80.2284V69.1595H49.5345V80.2284" stroke="#B1EFFA" stroke-width="2" stroke-miterlimit="10" stroke-linecap="round" stroke-linejoin="round"/>
<path d="M4.6333 63.4236C4.6333 67.3783 7.84583 70.5908 11.8005 70.5908C13.7514 70.5908 15.9355 69.8063 17.229 68.5446C18.3846 70.7287 20.2719 72.2236 22.9119 72.2236C26.7287 72.2236 29.814 69.1383 29.814 65.3214C29.814 62.3846 27.9798 59.8824 25.3928 58.8858C26.4001 57.9104 27.0362 56.5533 27.0362 55.0371C27.0362 52.0896 24.64 49.6935 21.6926 49.6935C21.5653 49.6935 21.4381 49.7041 21.3109 49.7147C21.8622 49.0149 22.2015 48.1349 22.2015 47.1701C22.2015 44.9012 20.3673 43.067 18.0984 43.067C15.8294 43.067 13.9952 44.9012 13.9952 47.1701C13.9952 47.679 14.0907 48.1561 14.2603 48.6014C13.7196 48.3788 13.1258 48.2516 12.5003 48.2516C9.97692 48.2516 7.93065 50.2978 7.93065 52.8212C7.93065 54.348 8.68342 55.6945 9.83908 56.532C6.8386 57.3908 4.6333 60.1475 4.6333 63.4236Z" stroke="#B1EFFA" stroke-width="2" stroke-miterlimit="10" stroke-linecap="round" stroke-linejoin="round"/>
<path d="M17.2183 65.0564L22.5725 62.1831" stroke="#B1EFFA" stroke-width="2" stroke-miterlimit="10" stroke-linecap="round" stroke-linejoin="round"/>
<path d="M17.229 80.2284V51.3581" stroke="#B1EFFA" stroke-width="2" stroke-miterlimit="10" stroke-linecap="round" stroke-linejoin="round"/>
<path d="M13.4863 53.9451L17.229 56.2776L21.3533 53.9451" stroke="#B1EFFA" stroke-width="2" stroke-miterlimit="10" stroke-linecap="round" stroke-linejoin="round"/>
<path d="M17.2183 65.0564L11.4612 62.5224" stroke="#B1EFFA" stroke-width="2" stroke-miterlimit="10" stroke-linecap="round" stroke-linejoin="round"/>
<path d="M54.9948 16.0202V8.99084H38.9321V16.0202" stroke="#B1EFFA" stroke-width="2" stroke-miterlimit="10" stroke-linecap="round" stroke-linejoin="round"/>
<path d="M46.958 8.99084V1.59036" stroke="#B1EFFA" stroke-width="2" stroke-miterlimit="10" stroke-linecap="round" stroke-linejoin="round"/>
<path opacity="0.6" d="M39.176 35.0728H34.0232V41.2752H39.176V35.0728Z" stroke="#B1EFFA" stroke-width="2" stroke-miterlimit="10" stroke-linecap="round" stroke-linejoin="round"/>
<path opacity="0.6" d="M49.5451 35.0728H44.3923V41.2752H49.5451V35.0728Z" stroke="#B1EFFA" stroke-width="2" stroke-miterlimit="10" stroke-linecap="round" stroke-linejoin="round"/>
<path opacity="0.6" d="M59.9035 35.0728H54.7507V41.2752H59.9035V35.0728Z" stroke="#B1EFFA" stroke-width="2" stroke-miterlimit="10" stroke-linecap="round" stroke-linejoin="round"/>
<path opacity="0.6" d="M39.176 46.3219H34.0232V52.5243H39.176V46.3219Z" stroke="#B1EFFA" stroke-width="2" stroke-miterlimit="10" stroke-linecap="round" stroke-linejoin="round"/>
<path opacity="0.6" d="M49.5451 46.3219H44.3923V52.5243H49.5451V46.3219Z" stroke="#B1EFFA" stroke-width="2" stroke-miterlimit="10" stroke-linecap="round" stroke-linejoin="round"/>
<path opacity="0.6" d="M59.9035 46.3219H54.7507V52.5243H59.9035V46.3219Z" stroke="#B1EFFA" stroke-width="2" stroke-miterlimit="10" stroke-linecap="round" stroke-linejoin="round"/>
<path opacity="0.6" d="M39.176 57.5605H34.0232V63.7629H39.176V57.5605Z" stroke="#B1EFFA" stroke-width="2" stroke-miterlimit="10" stroke-linecap="round" stroke-linejoin="round"/>
<path opacity="0.6" d="M49.5451 57.5605H44.3923V63.7629H49.5451V57.5605Z" stroke="#B1EFFA" stroke-width="2" stroke-miterlimit="10" stroke-linecap="round" stroke-linejoin="round"/>
<path opacity="0.6" d="M59.9035 57.5605H54.7507V63.7629H59.9035V57.5605Z" stroke="#B1EFFA" stroke-width="2" stroke-miterlimit="10" stroke-linecap="round" stroke-linejoin="round"/>
<path opacity="0.6" d="M39.176 23.8342H34.0232V30.0366H39.176V23.8342Z" stroke="#B1EFFA" stroke-width="2" stroke-miterlimit="10" stroke-linecap="round" stroke-linejoin="round"/>
<path opacity="0.6" d="M49.5451 23.8342H44.3923V30.0366H49.5451V23.8342Z" stroke="#B1EFFA" stroke-width="2" stroke-miterlimit="10" stroke-linecap="round" stroke-linejoin="round"/>
<path opacity="0.6" d="M59.9035 23.8342H54.7507V30.0366H59.9035V23.8342Z" stroke="#B1EFFA" stroke-width="2" stroke-miterlimit="10" stroke-linecap="round" stroke-linejoin="round"/>
</g>
</svg>
