<svg version="1.1" id="Layer_1" xmlns="http://www.w3.org/2000/svg" xmlns:xlink="http://www.w3.org/1999/xlink" x="0px" y="0px" width="32" height="32"
	 viewBox="0 0 32 32" style="enable-background:new 0 0 32 32;" xml:space="preserve">
<g>
	<g>
		<g id="acrobat_parcel_generic_32">
			<g id="filetype_multiple_32" transform="translate(-4127 -656)">
				<g id="Group_56320" transform="translate(-6102 -6608)">
					<g id="filetype_generic_32" transform="translate(5542.529 5424)">
						<g id="Group_56321-2" transform="translate(3 4)">
							<path fill="#B3B3B3" d="M4712.2,1845.1l-8.5-8.5c-0.5-0.4-1-0.6-1.6-0.6h-13.5c-1.4,0-2.6,1.1-2.6,2.5v22.8
								c0,1.4,1.1,2.6,2.5,2.6h1.5v1.4c0,1.4,1.1,2.6,2.5,2.6h17.6c1.4,0,2.6-1.1,2.6-2.5v-18.8
								C4712.8,1846.1,4712.6,1845.6,4712.2,1845.1z M4707.2,1841.4l4.4,4.4h-3.9c-0.2,0-0.4-0.1-0.4-0.4V1841.4z M4690.1,1842.6
								v20.5h-1.4c-1,0-1.7-0.8-1.8-1.8v-22.7c0-1,0.8-1.7,1.8-1.8h13.6v3.2h-9.5C4691.3,1840,4690.2,1841.2,4690.1,1842.6z
								 M4712,1865.4L4712,1865.4c0,1-0.8,1.8-1.8,1.8h-17.5c-1,0-1.8-0.8-1.8-1.7v-22.7c0-1,0.8-1.7,1.8-1.7h13.5v4.4
								c0,0.7,0.6,1.3,1.3,1.3h4.4V1865.4z"/>
							<path fill="#FFFFFF" d="M4712,1846.6v18.8h0c0,1-0.8,1.8-1.7,1.8h-17.5c-1,0-1.8-0.8-1.8-1.7v-22.7c0-1,0.8-1.7,1.8-1.7h13.5
								v4.4c0,0.7,0.6,1.3,1.3,1.3H4712z"/>
							<path fill="#FFFFFF" d="M4702.3,1836.9v3.2h-9.5c-1.4,0-2.6,1.1-2.6,2.5v20.5h-1.4c-1,0-1.7-0.8-1.8-1.8v-22.7
								c0-1,0.8-1.7,1.8-1.8H4702.3z"/>
							<polygon fill="#FFFFFF" points="4705.9,1840 4703.1,1840 4703.1,1837.3 							"/>
							<path fill="#FFFFFF" d="M4711.5,1845.7h-3.9c-0.2,0-0.4-0.1-0.4-0.4v-4L4711.5,1845.7z"/>
						</g>
					</g>
				</g>
			</g>
		</g>
	</g>
</g>
</svg>
