<?xml version="1.0" encoding="UTF-8"?>
<svg id="Icon_Strokes" data-name="Icon Strokes" xmlns="http://www.w3.org/2000/svg" width="18" height="18" viewBox="0 0 18 18">
  <path d="m9.6001,3.59998l.03491.04028.09766.10767h-.00415l.00146.00195H2.43994c-.12988-.02002-.33984.07007-.46997.19995-.00562.00562-.00806.01465-.01343.02051-.11938.13306-.19189.30859-.19189.49243l-.01465,8.10718c0,.04932.01489.09351.02222.14087.00757.04932.00806.10107.02368.14648.02979.08838.07446.16797.13403.23242.03198.04004.07129.06787.11084.09399.0603.03809.12354.06421.18872.06421h3.53516v2.44775l2.30273-2.06641.4248-.38232h5.11914c.15527,0,.29492-.06274.40894-.16138.01489-.01318.03369-.01929.04761-.03394.02295-.02417.03394-.05713.05322-.08423.08569-.12305.14722-.27124.13892-.42749v-3.82935l-.00049-.4502-.14966.12964c-.40991.37988-.97998.58984-1.55981.58984-.40991,0-.81006-.10986-1.15015-.30005-.85986-.5-1.2998-1.48999-1.08984-2.47998l.31982-1.48999-1.02002-1.12012-.04883-.04883c.00244.00293.00342.00635.00586.00928.00854.0166.0166.0332.0332.0498Zm.45996,4.80981l-.11011.52002.36011.39014c.20996.23999.25.59985.08984.87988-.15991.28003-.48999.42993-.80981.36011l-.52002-.11011-.39014.36011c-.13989.11987-.32983.18994-.51001.18994-.12988,0-.25-.03003-.36987-.1001-.28003-.15991-.42993-.48999-.36011-.81006l.11011-.51978-.36011-.39014c-.20996-.23999-.25-.59985-.08984-.87988.15991-.29004.48999-.42017.80981-.36011l.52002.11011.39014-.36011c.25-.20996.59985-.25.87988-.08984.28003.15991.42993.48975.36011.80981Z" fill="#584ccc" opacity=".1" stroke-width="0"/>
  <path d="m1.75,12.57313c-.00024.04834.01489.09155.02222.1377-.00732-.04736-.02222-.09155-.02222-.14087v.00317Z" fill="#584ccc" stroke-width="0"/>
  <path d="m9.56689,3.55018c.0127.01489.01807.03467.03125.04932l.03687.04077-.03491-.04028c-.0166-.0166-.02466-.0332-.0332-.0498Z" fill="#584ccc" stroke-width="0"/>
  <path d="m2.43994,3.74988h7.29004l-.00146-.00195H2.44043c-.13379-.01953-.34082.06738-.46777.19727-.00684.00732-.00952.01782-.01611.02515.00537-.00586.00781-.01489.01343-.02051.13013-.12988.34009-.21997.46997-.19995Z" fill="#584ccc" stroke-width="0"/>
  <path d="m14.06641,13.05359c.00049-.00049.00073-.00146.00146-.00195-.01392.01465-.03271.02075-.04761.03394.0144-.01245.03296-.01807.04614-.03198Z" fill="#584ccc" stroke-width="0"/>
  <path d="m1.7959,12.85731c.03027.0896.0752.17041.13281.23633.03394.03906.073.06543.11206.09009-.03955-.02612-.07886-.05396-.11084-.09399-.05957-.06445-.10425-.14404-.13403-.23242Z" fill="#584ccc" stroke-width="0"/>
  <polygon points="5.76465 15.70008 8.06738 13.62928 5.76465 15.69568 5.76465 15.70008" fill="#584ccc" stroke-width="0"/>
  <path d="m14.12109,12.96741c.08691-.12329.14502-.26855.14355-.42554l-.00464-3.8313v3.82935c.0083.15625-.05322.30444-.13892.42749Z" fill="#584ccc" stroke-width="0"/>
  <path d="m8.82007,7.68983l-.39014.36011-.52002-.11011c-.31982-.06006-.6499.07007-.80981.36011-.16016.28003-.12012.63989.08984.87988l.36011.39014-.11011.51978c-.06982.32007.08008.65015.36011.81006.11987.07007.23999.1001.36987.1001.18018,0,.37012-.07007.51001-.18994l.39014-.36011.52002.11011c.31982.06982.6499-.08008.80981-.36011.16016-.28003.12012-.63989-.08984-.87988l-.36011-.39014.11011-.52002c.06982-.32007-.08008-.6499-.36011-.80981-.28003-.16016-.62988-.12012-.87988.08984Z" fill="#584ccc" stroke-width="0"/>
  <path d="m17.80127,4.89832l-1.53711-1.69531.48389-2.23926c.07324-.34277-.08154-.69043-.38525-.86523-.28174-.16406-.70264-.11816-.94385.10059l-1.6958,1.53711-2.23291-.48242c-.34033-.06934-.69238.07617-.87012.38086-.16455.28223-.12061.70508.09912.94727l1.53711,1.69531-.48389,2.23926c-.07324.34277.08154.69043.38525.86523.11426.06641.25146.09766.39014.09766.20312,0,.41016-.06836.55371-.19824l1.6958-1.53711,2.23291.48242c.34229.07422.69287-.07617.87012-.38086.16455-.28223.12061-.70508-.09912-.94727Zm-3.03174-.69531c-.23779-.05371-.53564.02637-.71582.19043l-.35791.32422.10205-.4707c.05127-.2373-.02734-.5332-.19043-.71289l-.3252-.3584.46875.10156c.23779.05078.53564-.02734.71582-.19043l.35791-.32422-.10107.46777c-.05322.23828.02588.53516.18945.71582l.3252.3584-.46875-.10156Z" fill="#584ccc" stroke-width="0"/>
  <path d="m15.22363,7.3827l-.96411.87402v.00366l.00049.4502.00464,3.8313c.00146.15698-.05664.30225-.14355.42554-.01929.0271-.03027.06006-.05322.08423-.00073.00049-.00098.00146-.00146.00195-.01318.01392-.03174.01953-.04614.03198-.11401.09863-.25366.16138-.40894.16138h-5.11914l-.4248.38232-2.30273,2.0708v-2.45215h-3.53516c-.06519,0-.12842-.02612-.18872-.06421-.03906-.02466-.07812-.05103-.11206-.09009-.05762-.06592-.10254-.14673-.13281-.23633-.01562-.04541-.01611-.09717-.02368-.14648-.00732-.04614-.02246-.08936-.02222-.1377v-.00317l.01465-8.10718c0-.18384.07251-.35938.19189-.49243.00659-.00732.00928-.01782.01611-.02515.12695-.12988.33398-.2168.46777-.19727h7.29224l-.09766-.10767-.03687-.04077c-.01318-.01465-.01855-.03442-.03125-.04932-.00244-.00293-.00342-.00635-.00586-.00928-.30957-.36499-.49609-.81982-.5376-1.29297H2.43457c-.57031,0-1.12793.23438-1.5332.64746-.40918.41797-.63477.97363-.63672,1.56445l-.01465,8.11035c-.00098.56543.19238,1.10059.54785,1.50977.37793.43066.90723.625,1.44434.66797h2.02246v2.25293c-.00488.50488.375.91797.90039.94141.24805,0,.48926-.10449.61621-.24414l3.28516-2.95117h4.52734c.60156.01953,1.14551-.23047,1.55273-.65234.39844-.41309.62402-.98535.61816-1.56152l-.0061-5.03467-.53491-.11572Z" fill="#584ccc" stroke-width="0"/>
</svg>