<svg xmlns="http://www.w3.org/2000/svg" xmlns:xlink="http://www.w3.org/1999/xlink" viewBox="1276 1074 32 32"><defs><style>.a{clip-path:url(#b);}.b{fill:#fff;}.c{fill:red;opacity:0;}.d{fill:#707070;}.e,.f{stroke:none;}.f{fill:#2680eb;}</style><clipPath id="b"><rect x="1276" y="1074" width="32" height="32"/></clipPath></defs><g id="a" class="a"><g transform="translate(3475 1861) rotate(180)"><g transform="translate(432 8)"><g class="b" transform="translate(1735 747)"><path class="e" d="M 16 31 C 11.9933500289917 31 8.226519584655762 29.43972969055176 5.393400192260742 26.60659980773926 C 2.560270071029663 23.77347946166992 1 20.00665092468262 1 16 C 1 11.9933500289917 2.560270071029663 8.226519584655762 5.393400192260742 5.393400192260742 C 8.226519584655762 2.560270071029663 11.9933500289917 1 16 1 C 20.00665092468262 1 23.77347946166992 2.560270071029663 26.60659980773926 5.393400192260742 C 29.43972969055176 8.226519584655762 31 11.9933500289917 31 16 C 31 20.00665092468262 29.43972969055176 23.77347946166992 26.60659980773926 26.60659980773926 C 23.77347946166992 29.43972969055176 20.00665092468262 31 16 31 Z"/><path class="f" d="M 16 30 C 19.73954010009766 30 23.25525093078613 28.54375076293945 25.89949989318848 25.89949989318848 C 28.54375076293945 23.25525093078613 30 19.73954010009766 30 16 C 30 12.26045989990234 28.54375076293945 8.744750022888184 25.89949989318848 6.100500106811523 C 23.25525093078613 3.456249952316284 19.73954010009766 2 16 2 C 12.26045989990234 2 8.744750022888184 3.456249952316284 6.100500106811523 6.100500106811523 C 3.456249952316284 8.744750022888184 2 12.26045989990234 2 16 C 2 19.73954010009766 3.456249952316284 23.25525093078613 6.100500106811523 25.89949989318848 C 8.744750022888184 28.54375076293945 12.26045989990234 30 16 30 M 16 32 C 7.163440227508545 32 0 24.8365592956543 0 16 C 0 7.163440227508545 7.163440227508545 0 16 0 C 24.8365592956543 0 32 7.163440227508545 32 16 C 32 24.8365592956543 24.8365592956543 32 16 32 Z"/></g><g transform="translate(446 262)"><g transform="translate(1302.004 496.004)"><rect class="c" width="6" height="10" transform="translate(0 0)"/><path class="d" d="M6,5a1,1,0,0,0-.29-.709l-4-4A1,1,0,1,0,.29,1.709L3.59,5,.29,8.283A1,1,0,0,0,1.71,9.7l4-4A1,1,0,0,0,6,5Z" transform="translate(0 0)"/></g></g></g></g></g></svg>