<svg xmlns="http://www.w3.org/2000/svg" viewBox="0 0 17 18"><defs><style>.cls-1{fill:#707070;}</style></defs><title>ConvertPDFicon</title><g id="Layer_2" data-name="Layer 2"><g id="Layer_1-2" data-name="Layer 1"><path class="cls-1" d="M12,8a5,5,0,1,0,5,5A5,5,0,0,0,12,8Zm-1.6,6a.13.13,0,0,1-.14.12.12.12,0,0,1-.09,0l-2-2.19a.14.14,0,0,1,0-.17l2-2.15a.14.14,0,0,1,.19,0,.09.09,0,0,1,0,.08v1.59h2a.3.3,0,0,1,.3.3v.57a.29.29,0,0,1-.3.29h-2Zm3.43,2.35a.14.14,0,0,1-.19,0,.09.09,0,0,1,0-.08V14.72h-2a.3.3,0,0,1-.3-.3v-.57a.29.29,0,0,1,.3-.29h2V12a.13.13,0,0,1,.14-.12.12.12,0,0,1,.09,0l2,2.19a.14.14,0,0,1,0,.17Z"/><path class="cls-1" d="M8.48,0H1.38A1.4,1.4,0,0,0,0,1.41V13.59A1.4,1.4,0,0,0,1.38,15h5a5.08,5.08,0,0,1-.26-1H1.38A.39.39,0,0,1,1,13.59V1.41A.39.39,0,0,1,1.38,1h7.1a.15.15,0,0,1,.11,0L11,3.44a.18.18,0,0,1,.05.12V7.08A6.74,6.74,0,0,1,12,7V3.56a1.17,1.17,0,0,0-.34-.83L9.3.34A1.15,1.15,0,0,0,8.48,0Z"/><path class="cls-1" d="M9.39,7.58a.67.67,0,0,0-.21-.09,2.41,2.41,0,0,0-.37-.07l-.44,0h-.3l-.3,0-.32,0-.32,0-.19-.18-.19-.21L6.56,6.9l-.18-.24-.12-.18L6.14,6.3,6,6.11l-.1-.18c.06-.17.11-.34.16-.51s.08-.32.12-.51.06-.3.08-.47a2.77,2.77,0,0,0,0-.42,1.84,1.84,0,0,0,0-.33,1.35,1.35,0,0,0-.11-.34A.73.73,0,0,0,6,3.08.59.59,0,0,0,5.59,3H5.46L5.35,3a.27.27,0,0,0-.1.08.39.39,0,0,0-.08.1,1,1,0,0,0-.12.42,2.63,2.63,0,0,0,0,.56,4.54,4.54,0,0,0,.14.66q.12.36.27.72c-.12.36-.25.72-.39,1.06L4.92,7c0,.1-.08.21-.14.33s-.09.21-.15.33-.1.21-.16.32l-.17.31c-.31.12-.59.25-.85.38s-.44.25-.65.39a2.32,2.32,0,0,0-.44.39.75.75,0,0,0-.2.37.49.49,0,0,0,0,.12s0,.07,0,.11l.06.11.08.09.07.06.1.05.13,0,.15,0h0a1.1,1.1,0,0,0,.56-.19,3,3,0,0,0,.57-.49,5.89,5.89,0,0,0,.53-.68c.17-.24.33-.51.49-.79l.2-.07h0l.26-.09.27-.07L6,8l.29-.07.28-.07h0l.27-.06.26,0a4.91,4.91,0,0,0,.63.47,4.39,4.39,0,0,0,.44.21l.17-.13H8.23l-.35-.17a3.53,3.53,0,0,1-.32-.21l-.24-.18a6.13,6.13,0,0,1,.95-.1h.38l.27,0a.67.67,0,0,1,.18.07l0,0h0l.28-.14ZM3.73,9.22h0a5.52,5.52,0,0,1-.43.53,1.75,1.75,0,0,1-.39.33.56.56,0,0,1-.3.12h-.1l0,0,0,0-.05-.06a.09.09,0,0,1,0-.06.14.14,0,0,1,0-.07s0,0,0-.06a.67.67,0,0,1,.16-.3,3.09,3.09,0,0,1,.39-.33,4.85,4.85,0,0,1,.57-.35l.68-.32C4,8.82,3.86,9,3.73,9.22ZM5.35,4.65a3.71,3.71,0,0,1-.11-.58,2.36,2.36,0,0,1,0-.46.75.75,0,0,1,.09-.29h0s0-.05,0-.06a.1.1,0,0,1,.06,0s0,0,.06,0h.08a.27.27,0,0,1,.22.12.44.44,0,0,1,.06.16.9.9,0,0,1,0,.23,1.72,1.72,0,0,1,0,.32,3.1,3.1,0,0,1-.06.39c0,.13-.06.28-.11.46s-.08.29-.13.44A5.81,5.81,0,0,1,5.35,4.65ZM6.69,7.6l-.26.06-.26.06-.26.07-.24.06-.23.07L5.22,8,5.05,8a1.74,1.74,0,0,0,.1-.19,2.4,2.4,0,0,0,.11-.23l.11-.23a1.28,1.28,0,0,0,.09-.22c0-.08.07-.17.11-.25s.06-.18.1-.27l.09-.26.08-.21a.75.75,0,0,0,.07.12l.1.16.07.11,0,0a.91.91,0,0,1,.11.16A2.65,2.65,0,0,1,6.39,7l.18.21a1.9,1.9,0,0,0,.18.2l.14.15Z"/></g></g></svg>