<?xml version="1.0" encoding="UTF-8"?>
<svg id="h" data-name="Layer 8" xmlns="http://www.w3.org/2000/svg" width="18" height="18" viewBox="0 0 18 18">
  <path d="M15.08838,16.75h-6.07617c-3.84863,0-7.58545-3.04785-8.16016-6.65625-.40625-2.55273.40479-5.05859,2.22461-6.87793C4.91748,1.37598,7.46582.55859,10.06787.97461c3.80957.6084,6.68213,4.07812,6.68213,8.07129v6.04297c0,.91602-.74561,1.66113-1.66162,1.66113ZM8.74658,2.36816c-1.73145,0-3.36865.66895-4.60986,1.90918-1.47559,1.47461-2.13281,3.50879-1.80322,5.58008.45752,2.87305,3.57861,5.39258,6.67871,5.39258h6.07617c.0874,0,.16162-.07422.16162-.16113v-6.04297c0-3.26367-2.32959-6.09668-5.41846-6.59082-.36377-.05762-.72656-.08691-1.08496-.08691Z" fill="#707070" stroke-width="0"/>
  <rect x="5" y="6.25" width="8" height="1.5" rx=".5" ry=".5" fill="#707070" stroke-width="0"/>
  <rect x="5" y="9.25" width="6" height="1.5" rx=".5" ry=".5" fill="#707070" stroke-width="0"/>
</svg>