<svg width="12" height="12" viewBox="0 0 12 12" fill="none" xmlns="http://www.w3.org/2000/svg">
<g id="SVG" clip-path="url(#clip0_4491_15497)">
<path id="Vector" d="M7.34294 6L10.7389 2.604C10.8327 2.51712 10.908 2.41221 10.9603 2.29554C11.0126 2.17888 11.0408 2.05286 11.0432 1.92504C11.0456 1.79722 11.0222 1.67022 10.9744 1.55166C10.9266 1.43309 10.8553 1.3254 10.7649 1.23504C10.6744 1.14467 10.5667 1.07349 10.4481 1.02575C10.3295 0.978013 10.2025 0.954705 10.0747 0.957223C9.94685 0.95974 9.82085 0.988031 9.70423 1.0404C9.5876 1.09277 9.48274 1.16814 9.39594 1.262L5.99994 4.657L2.60394 1.262C2.51745 1.16691 2.41256 1.09037 2.29562 1.037C2.17869 0.983624 2.05214 0.954539 1.92364 0.951499C1.79514 0.948459 1.66735 0.971528 1.54803 1.01931C1.4287 1.06709 1.32031 1.13859 1.22942 1.22948C1.13853 1.32037 1.06703 1.42876 1.01925 1.54809C0.971467 1.66742 0.948398 1.7952 0.951438 1.9237C0.954478 2.0522 0.983563 2.17875 1.03693 2.29569C1.0903 2.41262 1.16685 2.51751 1.26194 2.604L4.65794 6L1.26194 9.396C1.16685 9.48249 1.0903 9.58738 1.03693 9.70431C0.983563 9.82124 0.954478 9.94779 0.951438 10.0763C0.948398 10.2048 0.971467 10.3326 1.01925 10.4519C1.06703 10.5712 1.13853 10.6796 1.22942 10.7705C1.32031 10.8614 1.4287 10.9329 1.54803 10.9807C1.66735 11.0285 1.79514 11.0515 1.92364 11.0485C2.05214 11.0455 2.17869 11.0164 2.29562 10.963C2.41256 10.9096 2.51745 10.8331 2.60394 10.738L5.99994 7.343L9.39594 10.738C9.48274 10.8319 9.5876 10.9072 9.70423 10.9596C9.82085 11.012 9.94685 11.0403 10.0747 11.0428C10.2025 11.0453 10.3295 11.022 10.4481 10.9742C10.5667 10.9265 10.6744 10.8553 10.7649 10.765C10.8553 10.6746 10.9266 10.5669 10.9744 10.4483C11.0222 10.3298 11.0456 10.2028 11.0432 10.075C11.0408 9.94714 11.0126 9.82112 10.9603 9.70445C10.908 9.58779 10.8327 9.48287 10.7389 9.396L7.34294 6Z" fill="white"/>
</g>
<defs>
<clipPath id="clip0_4491_15497">
<rect width="12" height="12" fill="white"/>
</clipPath>
</defs>
</svg>
