<svg xmlns="http://www.w3.org/2000/svg" xmlns:xlink="http://www.w3.org/1999/xlink" viewBox="928 1029 32 32"><defs><style>.a{clip-path:url(#b);}.b{fill:#eaeaea;stroke:#eaeaea;}.c{fill:red;opacity:0;}.d{fill:#707070;}.e{stroke:none;}.f{fill:none;}</style><clipPath id="b"><rect x="928" y="1029" width="32" height="32"/></clipPath></defs><g id="a" class="a"><g transform="translate(-807 282)"><g class="b" transform="translate(1735 747)"><circle class="e" cx="16" cy="16" r="16"/><circle class="f" cx="16" cy="16" r="15.5"/></g><g transform="translate(446 262)"><g transform="translate(1302.004 496.004)"><rect class="c" width="6" height="10" transform="translate(0 0)"/><path class="d" d="M6,5a1,1,0,0,0-.29-.709l-4-4A1,1,0,1,0,.29,1.709L3.59,5,.29,8.283A1,1,0,0,0,1.71,9.7l4-4A1,1,0,0,0,6,5Z" transform="translate(0 0)"/></g></g></g></g></svg>