<svg xmlns="http://www.w3.org/2000/svg" width="18" height="18" viewBox="0 0 18 18">
  <path fill="#C9252D" d="M8.564,0.289 L0.2,15.256 C0.113465138,15.4107773 0.115382036,15.5998098 0.205037842,15.7528004 C0.294693648,15.905791 0.458674656,16 0.636,16 L17.364,16 C17.5413253,16 17.7053064,15.905791 17.7949622,15.7528004 C17.884618,15.5998098 17.8865349,15.4107773 17.8,15.256 L9.436,0.289 C9.34750141,0.131349658 9.18079168,0.0337529367 9,0.0337529367 C8.81920832,0.0337529367 8.65249859,0.131349658 8.564,0.289 Z M10,13.75 C10,13.8880712 9.88807119,14 9.75,14 L8.25,14 C8.11192881,14 8,13.8880712 8,13.75 L8,12.25 C8,12.1119288 8.11192881,12 8.25,12 L9.75,12 C9.88807119,12 10,12.1119288 10,12.25 L10,13.75 Z M10,10.75 C10,10.8880712 9.88807119,11 9.75,11 L8.25,11 C8.11192881,11 8,10.8880712 8,10.75 L8,4.75 C8,4.61192881 8.11192881,4.5 8.25,4.5 L9.75,4.5 C9.88807119,4.5 10,4.61192881 10,4.75 L10,10.75 Z"/>
</svg>
