<?xml version="1.0" encoding="utf-8"?>
<!-- Generator: Adobe Illustrator 22.0.1, SVG Export Plug-In . SVG Version: 6.00 Build 0)  -->
<svg version="1.1" id="Layer_1" xmlns="http://www.w3.org/2000/svg" xmlns:xlink="http://www.w3.org/1999/xlink" x="0px" y="0px"
	 viewBox="0 0 24 24" style="enable-background:new 0 0 24 24;" xml:space="preserve">
<style type="text/css">
	.st0{fill:#FFFFFF;}
	.st1{fill:#CACACA;}
</style>
<g>
	<g>
		<g id="s_anonymoususer_24">
			<g id="Group_59890" transform="translate(5924.021 1763.021)">
				<g id="s_profile_24" transform="translate(141 836)">
					<path id="Path_1114" class="st0" d="M-6063-2587c0,5.5,4.5,10,10,10s10-4.5,10-10s-4.5-10-10-10S-6063-2592.5-6063-2587
						L-6063-2587z"/>
				</g>
				<g id="s_profile_24-2" transform="translate(141 836)">
					<path id="Path_1114-2" class="st1" d="M-6048.6-2582h-8.9c-0.2,0-0.3-0.1-0.3-0.3v-0.1c0-1.5,1.3-2.8,3.1-3.3
						c0.1,0,0.2-0.1,0.2-0.1c0.1-0.3,0.2-0.6,0.1-0.8c0-0.1,0-0.2-0.1-0.2c-0.6-0.6-0.9-1.5-0.8-2.3c-0.1-1.3,0.9-2.5,2.2-2.7
						c1.3,0.1,2.3,1.3,2.2,2.7c0,0,0,0,0,0c0,0.8-0.3,1.7-0.8,2.3c-0.1,0.1-0.1,0.1-0.1,0.2c0,0.3,0,0.5,0.1,0.8
						c0,0.1,0.1,0.2,0.2,0.2c1.8,0.5,3.1,1.8,3.1,3.3v0.2C-6048.3-2582.2-6048.4-2582-6048.6-2582L-6048.6-2582z M-6063-2587
						c0,5.5,4.5,10,10,10s10-4.5,10-10s-4.5-10-10-10S-6063-2592.5-6063-2587L-6063-2587z"/>
				</g>
			</g>
		</g>
	</g>
</g>
</svg>
