<svg xmlns="http://www.w3.org/2000/svg" width="18" height="18" viewBox="0 0 18 18">
  <path fill="#707070" d="M5,13 C4.781,13.016 4.807,12.874 4.8,12.73 L4.8,12.595 C4.8,11.204 5.894,10.387 7.559,9.937 C7.65728535,9.91345575 7.74006328,9.84752642 7.785,9.757 C7.86257228,9.52537092 7.89316906,9.28059675 7.875,9.037 C7.87350841,8.96654006 7.840473,8.90046924 7.785,8.857 C7.28011588,8.28687444 7.0068626,7.54844849 7.019,6.787 C6.95479845,6.20115104 7.12834083,5.6140383 7.50073423,5.15724074 C7.87312762,4.70044319 8.41323073,4.41216041 9,4.357 C10.353,4.357 10.969,5.616 10.98,6.787 C10.9833127,7.54673648 10.7115822,8.2820073 10.215,8.857 C10.1635894,8.90378751 10.1311971,8.96786009 10.124,9.037 C10.1099445,9.28054902 10.1407907,9.52460667 10.215,9.757 C10.2445677,9.84121154 10.3107885,9.90743225 10.395,9.937 C12.06,10.387 13.22,11.201 13.22,12.595 L13.22,12.73 C13.23,12.865 13.22,13.016 12.999,13 L5,13 Z M9,18 C13.9705627,18 18,13.9705627 18,9 C18,4.02943725 13.9705627,3.04359188e-16 9,0 C4.02943725,-3.04359188e-16 6.08718376e-16,4.02943725 0,9 C-6.08718376e-16,13.9705627 4.02943725,18 9,18 Z"/>
</svg>
