<svg xmlns="http://www.w3.org/2000/svg" width="18" height="18" viewBox="0 0 18 18">
  <path fill="#707070" d="M5.366,15.942 L3.72,14.17 C3.64730711,14.0817514 3.65159176,13.9532119 3.73,13.87 L4.168,13.482 C4.19997645,13.4454787 4.24521739,13.4232445 4.29366604,13.4202399 C4.3421147,13.4172354 4.38975614,13.4337094 4.426,13.466 C4.43213154,13.4708168 4.43782079,13.4761714 4.443,13.482 L5.5,14.625 L7.866,12.064 C7.89829162,12.0275588 7.94377418,12.0054887 7.99238264,12.0026735 C8.04099109,11.9998583 8.08871741,12.0165303 8.125,12.049 L8.139,12.064 L8.612,12.456 C8.69026786,12.5406854 8.69026786,12.6713146 8.612,12.756 L5.641,15.943 C5.57350858,16.0181391 5.45822654,16.0252607 5.382,15.959 L5.366,15.943 L5.366,15.942 Z M3.966,5 C3.96324525,4.4250813 4.42707343,3.95678322 5.00199211,3.95402405 C5.57691079,3.95126489 6.04521244,4.41508946 6.04797602,4.99000812 C6.05073961,5.56492678 5.58691863,6.03323199 5.012,6.036 L5,6.036 C4.42812642,6.03490156 3.96465017,5.57187226 3.963,5 L3.966,5 Z M3.966,8 C3.96324525,7.4250813 4.42707343,6.95678322 5.00199211,6.95402405 C5.57691079,6.95126489 6.04521244,7.41508946 6.04797602,7.99000812 C6.05073961,8.56492678 5.58691863,9.03323199 5.012,9.036 L5,9.036 C4.42812642,9.03490156 3.96465017,8.57187226 3.963,8 L3.966,8 Z M3.966,11 C3.96324525,10.4250813 4.42707343,9.95678322 5.00199211,9.95402405 C5.57691079,9.95126489 6.04521244,10.4150895 6.04797602,10.9900081 C6.05073961,11.5649268 5.58691863,12.033232 5.012,12.036 L5,12.036 C4.42835333,12.0343552 3.96519628,11.5716448 3.963,11 L3.966,11 Z M7.503,10 L13,10 L13,11 L7.5,11 L7.503,10 Z M9.503,13 L13,13 L13,14 L9.512,14.007 L9.503,13 Z M7.503,4 L13,4 L13,5 L7.5,5 L7.503,4 Z M7.503,7 L13,7 L13,8 L7.5,8 L7.503,7 Z M15.003,1.5 C15.003,1.22385763 14.7791424,1 14.503,1 L2.503,1 C2.22685763,1 2.003,1.22385763 2.003,1.5 L2.003,16.5 C2.003,16.7761424 2.22685763,17 2.503,17 L14.503,17 C14.7791424,17 15.003,16.7761424 15.003,16.5 L15.003,1.5 Z"/>
</svg>
