<svg xmlns="http://www.w3.org/2000/svg" width="18" height="18" viewBox="0 0 18 18">
  <g fill="none" fill-rule="evenodd">
    <path fill="#707070" fill-rule="nonzero" d="M9.48,-4.71511536e-13 L2.38,-4.71511536e-13 C1.61071233,0.0109707517 0.994426307,0.640654297 1,1.41 L1,13.59 C0.994426307,14.3593457 1.61071233,14.9890292 2.38,15 L7.345,15 C7.22982049,14.6747383 7.14283318,14.3401717 7.085,14 L2.38,14 C2.16300679,13.9892117 1.99430045,13.8071865 2,13.59 L2,1.41 C1.99430045,1.19281355 2.16300679,1.01078829 2.38,1 L9.48,1 C9.52027268,0.998381324 9.55940193,1.01359826 9.588,1.042 L11.953,3.442 C11.9831479,3.47389624 11.9999622,3.51611077 12,3.56 L12,7.085 C12.3303835,7.02885916 12.6648808,7.00042689 13,7 L13,3.56 C13.0009402,3.24954122 12.8786601,2.95139353 12.66,2.731 L10.3,0.34 C10.0831869,0.121488582 9.78782168,-0.000979935948 9.48,-4.57300681e-13 Z"/>
    <path fill="#707070" fill-rule="nonzero" d="M6.92,7.75 L6.49,7.86 L6.05,7.98 C6.12785264,7.83379128 6.19794976,7.68358318 6.26,7.53 L6.44,7.09 L6.63,6.601 L6.81,6.111 L7.01,6.441 L7.22,6.76 C7.33,6.91 7.43,7.04 7.54,7.17 C7.63898957,7.29661032 7.74586853,7.41684915 7.86,7.53 L7.4,7.63 L6.92,7.75 Z M6.28,3.85 C6.2785643,3.74256889 6.28862148,3.63529228 6.31,3.53 C6.31989455,3.44987012 6.3435771,3.37205603 6.38,3.3 C6.40813369,3.26184372 6.44184372,3.22813369 6.48,3.2 C6.51659692,3.17805898 6.55755786,3.16440534 6.6,3.16 C6.71748401,3.16194757 6.82301608,3.23230229 6.87,3.34 C6.9257509,3.43441634 6.95671129,3.54140168 6.96,3.651 C6.9589929,3.90822631 6.92196663,4.16404415 6.85,4.411 C6.78,4.682 6.69,4.981 6.59,5.301 C6.48982198,5.0442239 6.40958435,4.78010836 6.35,4.511 C6.30535546,4.29378488 6.28191208,4.07274735 6.28,3.851 L6.28,3.85 Z M3.68,10.16 C3.64964274,10.1621063 3.61915449,10.1587187 3.59,10.15 C3.56008624,10.1392015 3.53281484,10.1221568 3.51,10.1 C3.47544003,10.0677011 3.45110374,10.0259817 3.44,9.98 C3.42971419,9.93356275 3.42971419,9.88543725 3.44,9.839 C3.55574379,9.57038826 3.75123284,9.34383041 4,9.19 C4.36065192,8.9285009 4.74777623,8.70561114 5.155,8.525 C5.10417928,8.55990317 5.05870357,8.60201031 5.02,8.65 C4.81984362,8.95212649 4.64747235,9.27176641 4.505,9.605 L4.405,9.705 C4.22226884,9.93488059 3.96646948,10.0954167 3.68,10.16 Z M8.04,7.7 C8.35915722,8.00322446 8.73224684,8.24403686 9.14,8.41 L9.315,8.27 C9.1995331,8.22153866 9.0875938,8.16506778 8.98,8.101 C8.73633099,7.96502561 8.50539882,7.80738931 8.29,7.63 C8.60700596,7.57500733 8.9282643,7.5482358 9.25,7.55 C9.48723788,7.54970777 9.72429615,7.56306316 9.96,7.59 C10.0534241,7.60601655 10.1442492,7.63460964 10.23,7.675 L10.445,7.57 C10.3534322,7.52759066 10.2579912,7.4941026 10.16,7.47 C9.88281512,7.39667056 9.59663512,7.36300233 9.31,7.37 C9.1229472,7.37056178 8.93604225,7.38057454 8.75,7.4 C8.56,7.42 8.35,7.44 8.13,7.48 C7.99904154,7.35709972 7.87549108,7.22653693 7.76,7.089 C7.64,6.949 7.52,6.799 7.4,6.64 L7.17,6.28 L6.95,5.92 C7.07053389,5.57057442 7.16741938,5.21343442 7.24,4.851 C7.29485472,4.58096932 7.32497937,4.30650027 7.33,4.031 C7.33896384,3.78668365 7.29103699,3.54362604 7.19,3.321 C7.12194663,3.17705929 6.99753133,3.06756532 6.84611013,3.01835344 C6.69468893,2.96914155 6.52967366,2.98457057 6.39,3.061 C6.30813812,3.10159765 6.23896659,3.16385203 6.19,3.241 C6.06051048,3.5542895 6.02912809,3.89949583 6.1,4.231 C6.1738457,4.70416037 6.31177954,5.16506127 6.51,5.601 C6.43823081,5.8360157 6.35138401,6.06615971 6.25,6.29 L5.95,7 C5.87,7.21 5.78,7.41 5.69,7.6 C5.6,7.79 5.5,7.99 5.39,8.19 C4.85607911,8.39567504 4.35170579,8.67106287 3.89,9.009 C3.58790021,9.18854977 3.35799569,9.46797218 3.24,9.799 C3.22659847,9.87610339 3.23349097,9.9553671 3.26,10.029 C3.28347292,10.1095004 3.32841218,10.1820946 3.39,10.239 C3.43350493,10.2786934 3.48450352,10.3092925 3.54,10.329 C3.63948842,10.3777187 3.74925706,10.4017306 3.86,10.399 C4.33493027,10.3232472 4.75600557,10.0510002 5.02,9.649 C5.35337141,9.22847732 5.64476188,8.77631969 5.89,8.299 L5.9,8.279 L6.44,8.109 L6.98,7.959 L7.52,7.819 C7.7,7.771 7.87,7.73 8.04,7.7 Z"/>
    <path fill="#707070" fill-rule="nonzero" d="M6.92,7.75 L6.49,7.86 L6.05,7.98 C6.12785264,7.83379128 6.19794976,7.68358318 6.26,7.53 L6.44,7.09 L6.63,6.601 L6.81,6.111 L7.01,6.441 L7.22,6.76 C7.33,6.91 7.43,7.04 7.54,7.17 C7.63898957,7.29661032 7.74586853,7.41684915 7.86,7.53 L7.4,7.63 L6.92,7.75 Z M6.28,3.85 C6.2785643,3.74256889 6.28862148,3.63529228 6.31,3.53 C6.31989455,3.44987012 6.3435771,3.37205603 6.38,3.3 C6.40813369,3.26184372 6.44184372,3.22813369 6.48,3.2 C6.51659692,3.17805898 6.55755786,3.16440534 6.6,3.16 C6.71748401,3.16194757 6.82301608,3.23230229 6.87,3.34 C6.9257509,3.43441634 6.95671129,3.54140168 6.96,3.651 C6.9589929,3.90822631 6.92196663,4.16404415 6.85,4.411 C6.78,4.682 6.69,4.981 6.59,5.301 C6.48982198,5.0442239 6.40958435,4.78010836 6.35,4.511 C6.30535546,4.29378488 6.28191208,4.07274735 6.28,3.851 L6.28,3.85 Z M3.68,10.16 C3.64964274,10.1621063 3.61915449,10.1587187 3.59,10.15 C3.56008624,10.1392015 3.53281484,10.1221568 3.51,10.1 C3.47544003,10.0677011 3.45110374,10.0259817 3.44,9.98 C3.42971419,9.93356275 3.42971419,9.88543725 3.44,9.839 C3.55574379,9.57038826 3.75123284,9.34383041 4,9.19 C4.36065192,8.9285009 4.74777623,8.70561114 5.155,8.525 C5.10417928,8.55990317 5.05870357,8.60201031 5.02,8.65 C4.81984362,8.95212649 4.64747235,9.27176641 4.505,9.605 L4.405,9.705 C4.22226884,9.93488059 3.96646948,10.0954167 3.68,10.16 Z M8.04,7.7 C8.35915722,8.00322446 8.73224684,8.24403686 9.14,8.41 L9.315,8.27 C9.1995331,8.22153866 9.0875938,8.16506778 8.98,8.101 C8.73633099,7.96502561 8.50539882,7.80738931 8.29,7.63 C8.60700596,7.57500733 8.9282643,7.5482358 9.25,7.55 C9.48723788,7.54970777 9.72429615,7.56306316 9.96,7.59 C10.0534241,7.60601655 10.1442492,7.63460964 10.23,7.675 L10.445,7.57 C10.3534322,7.52759066 10.2579912,7.4941026 10.16,7.47 C9.88281512,7.39667056 9.59663512,7.36300233 9.31,7.37 C9.1229472,7.37056178 8.93604225,7.38057454 8.75,7.4 C8.56,7.42 8.35,7.44 8.13,7.48 C7.99904154,7.35709972 7.87549108,7.22653693 7.76,7.089 C7.64,6.949 7.52,6.799 7.4,6.64 L7.17,6.28 L6.95,5.92 C7.07053389,5.57057442 7.16741938,5.21343442 7.24,4.851 C7.29485472,4.58096932 7.32497937,4.30650027 7.33,4.031 C7.33896384,3.78668365 7.29103699,3.54362604 7.19,3.321 C7.12194663,3.17705929 6.99753133,3.06756532 6.84611013,3.01835344 C6.69468893,2.96914155 6.52967366,2.98457057 6.39,3.061 C6.30813812,3.10159765 6.23896659,3.16385203 6.19,3.241 C6.06051048,3.5542895 6.02912809,3.89949583 6.1,4.231 C6.1738457,4.70416037 6.31177954,5.16506127 6.51,5.601 C6.43823081,5.8360157 6.35138401,6.06615971 6.25,6.29 L5.95,7 C5.87,7.21 5.78,7.41 5.69,7.6 C5.6,7.79 5.5,7.99 5.39,8.19 C4.85607911,8.39567504 4.35170579,8.67106287 3.89,9.009 C3.58790021,9.18854977 3.35799569,9.46797218 3.24,9.799 C3.22659847,9.87610339 3.23349097,9.9553671 3.26,10.029 C3.28347292,10.1095004 3.32841218,10.1820946 3.39,10.239 C3.43350493,10.2786934 3.48450352,10.3092925 3.54,10.329 C3.63948842,10.3777187 3.74925706,10.4017306 3.86,10.399 C4.33493027,10.3232472 4.75600557,10.0510002 5.02,9.649 C5.35337141,9.22847732 5.64476188,8.77631969 5.89,8.299 L5.9,8.279 L6.44,8.109 L6.98,7.959 L7.52,7.819 C7.7,7.771 7.87,7.73 8.04,7.7 Z"/>
    <path fill="#707070" fill-rule="nonzero" d="M13,14 L10.38,14 C10.1701318,14 10,13.8298682 10,13.62 L10,12.38 C10,12.1701318 10.1701318,12 10.38,12 L13,12 L13,10.2 C13.0099758,10.1097714 13.0894516,10.0435415 13.18,10.05 C13.2236287,10.0476071 13.2665328,10.0619085 13.3,10.09 L15.91,12.92 C15.9699702,12.9810728 15.9699702,13.0789272 15.91,13.14 L13.3,15.91 C13.2269334,15.9685001 13.1230666,15.9685001 13.05,15.91 C13.0198566,15.8810929 13.001959,15.8417182 13,15.8 L13,14 Z M13,8 C10.2385763,8 8,10.2385763 8,13 C8,15.7614237 10.2385763,18 13,18 C15.7614237,18 18,15.7614237 18,13 C18,10.2385763 15.7614237,8 13,8 Z" transform="rotate(90 13 13)"/>
  </g>
</svg>
