<svg xmlns="http://www.w3.org/2000/svg" width="18" height="18" viewBox="0 0 18 18">
  <g fill="none" fill-rule="evenodd">
    <path fill="#707070" fill-rule="nonzero" d="M6,2 L11,2 L11,3 L6,3 L6,2 Z M6,5 L11,5 L11,6 L6,6 L6,5 Z M3,3 C3,2.44771525 3.44771525,2 4,2 C4.55228475,2 5,2.44771525 5,3 C5,3.55228475 4.55228475,4 4,4 C3.44771525,4 3,3.55228475 3,3 Z M3,6 C3,5.44771525 3.44771525,5 4,5 C4.55228475,5 5,5.44771525 5,6 C5,6.55228475 4.55228475,7 4,7 C3.44771525,7 3,6.55228475 3,6 Z M3,9 C3,8.44771525 3.44771525,8 4,8 C4.55228475,8 5,8.44771525 5,9 C5,9.55228475 4.55228475,10 4,10 C3.44771525,10 3,9.55228475 3,9 Z M6.757,13 C6.757,11.3442535 7.41474275,9.75632198 8.58553237,8.58553237 C9.75632198,7.41474275 11.3442535,6.757 13,6.757 L12.985,0.501 C12.985,0.224857625 12.7611424,0.000999999999 12.485,0.000999999999 L1.511,0.000999999999 C1.25108873,-0.0143926459 1.0276088,0.183163614 1.011,0.443 L1.011,14.484 C0.995044804,14.7441051 1.19290222,14.9679257 1.453,14.984 L7.084,14.998 C6.86682417,14.3542757 6.7563669,13.6793717 6.757,13 Z"/>
    <path fill="#707070" fill-rule="nonzero" d="M12,13 L12,10.38 C12,10.1701318 12.1701318,10 12.38,10 L13.62,10 C13.8298682,10 14,10.1701318 14,10.38 L14,13 L15.8,13 C15.8902286,13.0099758 15.9564585,13.0894516 15.95,13.18 C15.9518082,13.2235482 15.9375755,13.2662463 15.91,13.3 L13.08,15.91 C13.0183734,15.9695635 12.9206266,15.9695635 12.859,15.91 L10.089,13.3 C10.0304999,13.2269334 10.0304999,13.1230666 10.089,13.05 C10.1179071,13.0198566 10.1572818,13.001959 10.199,13 L12,13 Z M18,13 C18,10.2385763 15.7614237,8 13,8 C10.2385763,8 8,10.2385763 8,13 C8,15.7614237 10.2385763,18 13,18 C15.7614237,18 18,15.7614237 18,13 Z"/>
  </g>
</svg>
