<svg xmlns="http://www.w3.org/2000/svg" width="18" height="18" viewBox="0 0 18 18">
  <g fill="none" fill-rule="evenodd">
    <path fill="#707070" fill-rule="nonzero" d="M4.5,4 L13,4 L13,1.5 C13,1.22385763 12.7761424,1 12.5,1 L1.5,1 C1.22385763,1 1,1.22385763 1,1.5 L1,12.5 C1,12.7761424 1.22385763,13 1.5,13 L4,13 L4,4.5 C4,4.22385763 4.22385763,4 4.5,4 Z"/>
    <path fill="#707070" fill-rule="nonzero" d="M5,5.5 L5,16.5 C5,16.7761424 5.22385763,17 5.5,17 L16.5,17 C16.7761424,17 17,16.7761424 17,16.5 L17,5.5 C17,5.22385763 16.7761424,5 16.5,5 L5.5,5 C5.22385763,5 5,5.22385763 5,5.5 Z M14.75,12 L12,12 L12,14.75 C12,14.8880712 11.8880712,15 11.75,15 L10.25,15 C10.1119288,15 10,14.8880712 10,14.75 L10,12 L7.25,12 C7.11192881,12 7,11.8880712 7,11.75 L7,10.25 C7,10.1119288 7.11192881,10 7.25,10 L10,10 L10,7.25 C10,7.11192881 10.1119288,7 10.25,7 L11.75,7 C11.8880712,7 12,7.11192881 12,7.25 L12,10 L14.75,10 C14.8880712,10 15,10.1119288 15,10.25 L15,11.75 C15,11.8880712 14.8880712,12 14.75,12 Z"/>
  </g>
</svg>
