<svg id="production" xmlns="http://www.w3.org/2000/svg" width="192" height="192" viewBox="0 0 192 192">
  <defs>
    <style>
      .cls-1 {
        fill: #b3b3b3;
      }
    </style>
  </defs>
  <title>S_IlluSharedFiles_192</title>
  <path class="cls-1" d="M165.46973,71.76562a16.54789,16.54789,0,0,0-.09473-2.043,16.06411,16.06411,0,0,0-31.23682-3.19825,13.20355,13.20355,0,0,0-4.55908-.4248,13.32,13.32,0,0,0-12.02978,15.78516,9.73874,9.73874,0,0,0-6.08448,4.91406A1.5,1.5,0,1,0,114.124,88.1875a6.74716,6.74716,0,0,1,5.41065-3.62109,1.5,1.5,0,0,0,1.29345-1.96289,10.32222,10.32222,0,0,1,13.76563-12.75684,1.50027,1.50027,0,0,0,2.04395-1.07227,13.06284,13.06284,0,0,1,25.75488,1.27051,13.355,13.355,0,0,1-.02344,3.10449,1.5,1.5,0,0,0,1.644,1.67969,9.41153,9.41153,0,0,1,1.24024-.06543,11.61381,11.61381,0,0,1,11.61279,11.585c0,10.32813-10.5542,10.64942-10.65185,10.65137H138.5a1.5,1.5,0,0,0,0,3h27.71436a17.11146,17.11146,0,0,0,7.00683-1.97266c3.03125-1.6455,6.645-5.00683,6.645-11.68261a14.61315,14.61315,0,0,0-14.39648-14.57911Z"/>
  <path class="cls-1" d="M88.3042,45.84082a.99974.99974,0,0,0,1,1h19.28857a1,1,0,0,0,0-2H89.3042A.99974.99974,0,0,0,88.3042,45.84082Z"/>
  <path class="cls-1" d="M108.75293,50.34375H89.3042a1,1,0,1,0,0,2h19.44873a1,1,0,0,0,0-2Z"/>
  <path class="cls-1" d="M112.31348,149.34082c-1.14649-5.50586-3.82178-14.61719-5.59229-20.64648l-.56787-1.93555a4.15368,4.15368,0,0,0-6.31006-2.48535,5.92764,5.92764,0,0,0-1.8374,1.6582c-1.30127,1.91992-1.09863,4.34082-.96436,5.94434.03955.46875.31836,2.15136.8086,5.085.45117,2.7041,1.06933,6.40625,1.1167,7.09179a8.93437,8.93437,0,0,1-2.02735,6.36329,18.0766,18.0766,0,0,0-2.96484,4.55078,10.98289,10.98289,0,0,0-.81152,5.793,1.5,1.5,0,0,0,2.96-.48829,8.07273,8.07273,0,0,1,.64355-4.207,14.89376,14.89376,0,0,1,2.47949-3.73047A11.92157,11.92157,0,0,0,101.96,143.8457c-.05322-.77148-.49023-3.42285-1.15088-7.3789-.3501-2.09571-.74707-4.47266-.77832-4.8418-.13574-1.624-.19482-3.0459.4585-4.00977a3.17117,3.17117,0,0,1,.92529-.78515,1.27822,1.27822,0,0,1,1.12012-.1582,1.31868,1.31868,0,0,1,.73974.92871l.56836,1.93847c1.75684,5.9834,4.41211,15.02637,5.53418,20.41309a45.52337,45.52337,0,0,1,.97022,6.42871c.30713,4.97754-.75244,9.832-1.87451,14.97168-.66846,3.06445-1.35987,6.23242-1.73,9.417a1.56791,1.56791,0,0,0-.0083.23926l.312,6.99219a1.5,1.5,0,0,0,1.49756,1.43359c.02246,0,.04492,0,.06787-.002a1.49884,1.49884,0,0,0,1.43164-1.56446l-.30664-6.87109c.35644-2.999,1.02246-6.05078,1.667-9.00488,1.11621-5.11328,2.27051-10.40137,1.9375-15.7959A48.04723,48.04723,0,0,0,112.31348,149.34082Z"/>
  <path class="cls-1" d="M84.53271,174.24512c-.45947-.8877-.96093-1.7627-1.46337-2.6377-.62207-1.085-1.20948-2.10937-1.72266-3.167a13.12755,13.12755,0,0,1-1.2915-5.70117V151.55664a1.5,1.5,0,0,0-3,0v11.18262a16.15425,16.15425,0,0,0,1.59228,7.01172c.55859,1.15039,1.19971,2.26855,1.81983,3.34863.48046.83789.96093,1.67383,1.40039,2.52344a27.36664,27.36664,0,0,0,1.63525,2.74511c1.1875,1.79688,1.6792,2.541,1.8125,9.59473a1.49972,1.49972,0,0,0,1.499,1.47168h.02881a1.50023,1.50023,0,0,0,1.47119-1.52832c-.14355-7.62109-.77246-8.86816-2.30859-11.19238A24.4013,24.4013,0,0,1,84.53271,174.24512Z"/>
  <path class="cls-1" d="M174.17139,123.67285l-3.21729,3.21729a14.479,14.479,0,1,0-15.61694,23.1875c-7.16431,15.26513-27.35816,22.9292-36.73853,22.9292a1.5,1.5,0,0,0,0,3c9.53662,0,31.668-7.541,39.60987-24.97266a1.50091,1.50091,0,0,0,.08935-.26318,14.31877,14.31877,0,0,0,8.89942-1.769,15.30635,15.30635,0,0,0,7.54052-12.50976,1.49989,1.49989,0,1,0-2.99121-.22657,12.20052,12.20052,0,0,1-6.02588,10.125,11.42893,11.42893,0,1,1,3.09571-17.36279l-9.50245,9.50244-4.07617-4.07617a1.49984,1.49984,0,0,0-2.12109,2.1211l5.13672,5.13671a1.49943,1.49943,0,0,0,2.12109,0l15.918-15.918a1.49984,1.49984,0,1,0-2.12109-2.1211Z"/>
  <path class="cls-1" d="M75.65479,171.74219a70.06928,70.06928,0,0,1-39.54-37.583,16.26379,16.26379,0,0,0-5.70118-30.73633A69.60573,69.60573,0,0,1,54.96191,53.15527l-.21,8.53809a1.50045,1.50045,0,0,0,1.46241,1.53711H56.252a1.49993,1.49993,0,0,0,1.499-1.46289l.29638-12.03809a1.50082,1.50082,0,0,0-1.46289-1.53711l-12.03808-.2959a1.50045,1.50045,0,0,0-.07325,3l8.2771.20313a72.59289,72.59289,0,0,0-25.33813,52.31494A16.27251,16.27251,0,1,0,33.321,135.25684a73.07407,73.07407,0,0,0,41.281,39.29394,1.4997,1.4997,0,1,0,1.05274-2.80859ZM15.54932,119.62207a13.27954,13.27954,0,1,1,24.29858,7.40234c-.68628-2.15673-2.68042-4.74707-7.24438-5.21191l.02587-1.44434a8.62835,8.62835,0,0,0,1.95411-5.373c0-4.00293-2.26661-6.58887-5.77491-6.58887-3.48584,0-5.82812,2.64746-5.82763,6.61719a8.60079,8.60079,0,0,0,2.0625,5.35058l.05175,1.43164c-5.04223.43946-6.73486,3.249-7.302,5.19092A13.19871,13.19871,0,0,1,15.54932,119.62207Zm3.96338,9.44873c-.00269-.11035-.00489-.208-.00489-.25732,0-.75391.27783-4.53809,5.8003-5.01953a1.97939,1.97939,0,0,0,1.73535-1.98829v-1.45214a1.97414,1.97414,0,0,0-.48926-1.26661,6.67944,6.67944,0,0,1-1.57373-4.09179c0-2.87305,1.43115-4.58887,3.82812-4.58887,2.39893,0,3.77491,1.67285,3.77491,4.57813a6.596,6.596,0,0,1-1.47168,4.082,2.01275,2.01275,0,0,0-.5083,1.30859v1.4248a2.00356,2.00356,0,0,0,1.75878,2.00391c5.72168.57715,5.7876,4.82617,5.7876,5.00684,0,.0459-.00146.14355-.00342.25879a13.3217,13.3217,0,0,1-4.17578,2.79492,1.495,1.495,0,0,0-.41943.09765,1.51787,1.51787,0,0,0-.29443.16407A13.18041,13.18041,0,0,1,19.5127,129.0708Z"/>
  <path class="cls-1" d="M35.9624,12.61816c4.50391-.85254,8.66651-2.7705,12.6919-4.625,1.90039-.876,3.86572-1.78125,5.8164-2.54785,5.4668-2.14843,13.8086-3.04785,19.20606.05274a31.784,31.784,0,0,1,6.60986,5.53808c1.6853,1.83594,3.22046,3.54248,4.65967,5.1753A5.44382,5.44382,0,0,0,81.144,20.208a40.58019,40.58019,0,0,0-6.77978-5.62012c-4.07373-2.54883-6.60156-1.51367-9.25537-.01465l-.82666.46a18.37329,18.37329,0,0,0-4.95459,3.54737A29.936,29.936,0,0,1,55.749,17.11621a1.49975,1.49975,0,1,0-1.32812,2.68945c5.74072,2.835,12.1084,3.66309,18.26611,4.46387a97.48825,97.48825,0,0,1,10.54,1.76367c1.416.34668,2.8667,1.17188,2.7417,1.89844-.09521.55176-1.09668,1.03906-2.67969,1.30274a366.71894,366.71894,0,0,1-45.355,4.68457,1.50013,1.50013,0,0,0,.05957,2.999c.02051,0,.041,0,.06153-.001a369.94667,369.94667,0,0,0,43.2644-4.33252A1.48585,1.48585,0,0,0,81,33.5V55.56934A5.43693,5.43693,0,0,0,86.43066,61h25.13819A5.43735,5.43735,0,0,0,117,55.56934V27.71875a5.79167,5.79167,0,0,0-1.65088-4.06152L109.6123,17.7627A5.85454,5.85454,0,0,0,105.43848,16H88.74561c-1.88721-2.17969-3.93165-4.46875-6.249-6.99316A34.43438,34.43438,0,0,0,75.1709,2.89648C68.88037-.71484,59.69141.1709,53.37354,2.65234c-2.03077.79883-4.03565,1.72266-5.97461,2.61621-4.03858,1.86036-7.853,3.61817-11.99414,4.40235a1.49977,1.49977,0,1,0,.55761,2.94726ZM62.668,19.55029a24.92863,24.92863,0,0,1,3.06445-1.89111l.85254-.47461c2.05566-1.16113,3.29736-1.86133,6.18848-.05371A36.30525,36.30525,0,0,1,78.793,22.10254c-1.916-.30908-3.834-.5625-5.71875-.80762A96.63592,96.63592,0,0,1,62.668,19.55029Zm44.79443.3042,5.73731,5.89453A2.81045,2.81045,0,0,1,114,27.71875V55.56934A2.43407,2.43407,0,0,1,111.56885,58H86.43066A2.43365,2.43365,0,0,1,84,55.56934V33.5a1.49776,1.49776,0,0,0-.65356-1.2373c.14526-.02393.29126-.04493.43627-.06934,3.07129-.5127,4.80127-1.77441,5.14258-3.75195.40869-2.376-1.52514-4.45166-4.92529-5.3042V21.43066A2.43407,2.43407,0,0,1,86.43115,19h19.00733A2.84058,2.84058,0,0,1,107.4624,19.85449Z"/>
  <path class="cls-1" d="M132.9668,141.9043l9.75146-26.665A6.11649,6.11649,0,0,0,136.98145,107H77.82715A7.9159,7.9159,0,0,0,70.23,112.59863L60.92285,142.6123a1.98891,1.98891,0,0,1-2.00439,1.38477A2.14137,2.14137,0,0,1,57,141.79V91.22949A4.234,4.234,0,0,1,61.229,87H80.79492a3.06534,3.06534,0,0,1,2.16113.88477L90.105,94.91211A3.7658,3.7658,0,0,0,92.76221,96H120.771A4.234,4.234,0,0,1,125,100.22949V102.5a1.5,1.5,0,0,0,3,0v-2.27051A7.2373,7.2373,0,0,0,120.771,93H92.76221a.78858.78858,0,0,1-.5542-.22656l-7.14844-7.02735A6.04709,6.04709,0,0,0,80.79492,84H61.229A7.23761,7.23761,0,0,0,54,91.22949V141.79a5.1683,5.1683,0,0,0,4.78809,5.20508,5.01213,5.01213,0,0,0,4.99609-3.48145l9.311-30.02637A4.93042,4.93042,0,0,1,77.82715,110h59.1543a3.11663,3.11663,0,0,1,2.92138,4.20312l-9.75342,26.66993A4.77882,4.77882,0,0,1,125.67676,144H116.5a1.5,1.5,0,0,0,0,3h9.17676A7.78825,7.78825,0,0,0,132.9668,141.9043Z"/>
  <path class="cls-1" d="M94.5,147a1.5,1.5,0,0,0,0-3H71.50049a1.5,1.5,0,0,0,0,3Z"/>
</svg>
