<svg xmlns="http://www.w3.org/2000/svg" width="144.709" height="160" viewBox="0 0 144.709 160">
  <g id="S_IlluEmptyStateCreateReusableTemplates_192x144" transform="translate(-39.5 -9.1)">
    <path id="Path_597417" data-name="Path 597417" d="M149.834,152.339H69.275a14.528,14.528,0,0,1-9.448-3.481A1.854,1.854,0,0,1,62.189,146a11.3,11.3,0,0,0,7.086,2.611h80.559a15.811,15.811,0,0,0,15.789-15.789V47.04a12.416,12.416,0,0,0-2.113-6.962,1.879,1.879,0,0,1,3.108-2.113,16.014,16.014,0,0,1,2.859,9.075v85.781A19.821,19.821,0,0,1,149.834,152.339Z" transform="translate(4.786 6.815)" fill="#b3b3b3"/>
    <path id="Path_597418" data-name="Path 597418" d="M151.843,163.725H77.375a14.528,14.528,0,0,1-9.448-3.481,1.854,1.854,0,1,1,2.362-2.859A11.3,11.3,0,0,0,77.375,160h74.468A21.78,21.78,0,0,0,173.6,138.24V58.426a12.416,12.416,0,0,0-2.113-6.962,1.879,1.879,0,0,1,3.108-2.113,16.014,16.014,0,0,1,2.859,9.075V138.24A25.789,25.789,0,0,1,151.843,163.725ZM126.233,53.578H72.775a3.078,3.078,0,0,1-3.108-3.108V34.308A3.078,3.078,0,0,1,72.775,31.2h53.458a3.078,3.078,0,0,1,3.108,3.108V50.47A3.078,3.078,0,0,1,126.233,53.578ZM72.775,33.686a.587.587,0,0,0-.622.622V50.47a.587.587,0,0,0,.622.622h53.458a.587.587,0,0,0,.622-.622V34.308a.587.587,0,0,0-.622-.622Z" transform="translate(6.756 5.375)" fill="#b3b3b3"/>
    <path id="Path_597419" data-name="Path 597419" d="M157.5,33.094l-19.394-19.27A16.106,16.106,0,0,0,126.792,9.1H62.27A14.7,14.7,0,0,0,47.6,23.77v12.8a1.912,1.912,0,0,0,1.865,1.865h0a1.912,1.912,0,0,0,1.865-1.865V23.77A10.956,10.956,0,0,1,62.27,12.83h64.522a12.23,12.23,0,0,1,8.7,3.605L154.888,35.7a12.23,12.23,0,0,1,3.605,8.7v90.505a10.956,10.956,0,0,1-10.94,10.94H62.27a10.956,10.956,0,0,1-10.94-10.94V119.869A1.912,1.912,0,0,0,49.465,118h0a1.912,1.912,0,0,0-1.865,1.865v15.043a14.7,14.7,0,0,0,14.67,14.67h85.284a14.7,14.7,0,0,0,14.67-14.67V44.407A15.6,15.6,0,0,0,157.5,33.094Z" transform="translate(1.97)" fill="#b3b3b3"/>
    <path id="Path_597420" data-name="Path 597420" d="M125.766,80.053H72.308A3.078,3.078,0,0,1,69.2,76.945V60.908A3.078,3.078,0,0,1,72.308,57.8h53.458a3.078,3.078,0,0,1,3.108,3.108V76.945A3.078,3.078,0,0,1,125.766,80.053ZM72.308,60.162a.587.587,0,0,0-.622.622V76.821a.587.587,0,0,0,.622.622h53.458a.587.587,0,0,0,.622-.622V60.784a.587.587,0,0,0-.622-.622Z" transform="translate(7.223 11.844)" fill="#b3b3b3"/>
    <path id="Path_597421" data-name="Path 597421" d="M61.878,45.3l-6.092-6.092a1.934,1.934,0,0,0-2.735,2.735L55.91,44.8H54.17A14.7,14.7,0,0,0,39.5,59.474V90.056a14.7,14.7,0,0,0,14.67,14.67h4.848a1.865,1.865,0,1,0,0-3.73H54.17a10.956,10.956,0,0,1-10.94-10.94V59.474a10.956,10.956,0,0,1,10.94-10.94h1.74l-2.859,2.859a1.934,1.934,0,1,0,2.735,2.735l6.092-6.092A1.949,1.949,0,0,0,61.878,45.3Z" transform="translate(0 7.187)" fill="#1473e6"/>
    <g id="Group_298716" data-name="Group 298716" transform="translate(77.045 103.086)">
      <path id="Path_597422" data-name="Path 597422" d="M32.644,26.7H31.433a1.243,1.243,0,0,1,0-2.486h1.211a1.243,1.243,0,1,1,0,2.486Zm-6.056,0H25.377a1.243,1.243,0,0,1,0-2.486h1.211a1.243,1.243,0,1,1,0,2.486Zm-6.056,0H19.322a1.243,1.243,0,1,1,0-2.486h1.211a1.243,1.243,0,1,1,0,2.486Zm-6.054,0H13.266a1.243,1.243,0,1,1,0-2.486h1.212a1.243,1.243,0,1,1,0,2.486Zm-6.057,0H7.211a1.243,1.243,0,1,1,0-2.486H8.421a1.243,1.243,0,0,1,0,2.486Zm-5.989-.363a1.233,1.233,0,0,1-.648-.183A3.757,3.757,0,0,1,.522,24.879,1.244,1.244,0,0,1,2.66,23.608a1.243,1.243,0,0,0,.421.428,1.243,1.243,0,0,1-.649,2.3ZM1.243,10.163A1.243,1.243,0,0,1,0,8.92V7.708a1.243,1.243,0,0,1,2.486,0V8.919a1.243,1.243,0,0,1-1.243,1.244Zm.149-6.039A1.258,1.258,0,0,1,.968,4.05,1.243,1.243,0,0,1,.223,2.458a3.767,3.767,0,0,1,1-1.494A1.244,1.244,0,0,1,2.9,2.807a1.243,1.243,0,0,0-.334.5,1.243,1.243,0,0,1-1.169.819ZM32.177,2.486H30.966a1.243,1.243,0,0,1,0-2.486h1.211a1.243,1.243,0,0,1,0,2.486Zm-6.056,0H24.91A1.243,1.243,0,1,1,24.91,0h1.211a1.243,1.243,0,0,1,0,2.486Zm-6.056,0H18.854a1.243,1.243,0,0,1,0-2.486h1.211a1.243,1.243,0,1,1,0,2.486Zm-6.054,0H12.8A1.243,1.243,0,1,1,12.8,0h1.212a1.243,1.243,0,1,1,0,2.486Zm-6.054,0H6.743A1.243,1.243,0,1,1,6.743,0H7.956a1.243,1.243,0,1,1,0,2.486ZM1.243,15.136A1.243,1.243,0,0,1,0,13.893V12.681a1.243,1.243,0,0,1,2.486,0v1.211a1.243,1.243,0,0,1-1.243,1.244ZM52.029,26.7H50.817a1.243,1.243,0,0,1,0-2.486h1.212a1.243,1.243,0,1,1,0,2.486Zm-6.793,0H44.025a1.243,1.243,0,0,1,0-2.486h1.211a1.243,1.243,0,1,1,0,2.486Zm-6.056,0H37.97a1.243,1.243,0,1,1,0-2.486h1.211a1.243,1.243,0,0,1,0,2.486ZM51.562,2.486H50.35A1.243,1.243,0,1,1,50.35,0h1.212a1.243,1.243,0,0,1,0,2.486Zm-6.793,0H43.558a1.243,1.243,0,1,1,0-2.486h1.211a1.243,1.243,0,0,1,0,2.486Zm-6.056,0H37.5A1.243,1.243,0,0,1,37.5,0h1.211a1.243,1.243,0,1,1,0,2.486ZM55.505,25.745a1.243,1.243,0,0,1,.412-1.709,1.253,1.253,0,0,0,.423-.428,1.244,1.244,0,0,1,2.138,1.271,3.757,3.757,0,0,1-1.263,1.279,1.243,1.243,0,0,1-1.709-.413ZM56.513,8.92V7.708a1.243,1.243,0,0,1,2.486,0V8.919a1.243,1.243,0,0,1-2.486,0ZM56.441,3.3a1.243,1.243,0,0,0-.336-.5A1.243,1.243,0,0,1,57.773.963a3.757,3.757,0,0,1,1,1.492,1.243,1.243,0,0,1-.746,1.593,1.268,1.268,0,0,1-.424.073A1.243,1.243,0,0,1,56.441,3.3Zm.072,10.588V12.681a1.243,1.243,0,0,1,2.486,0v1.211a1.243,1.243,0,0,1-2.486,0ZM1.243,20.48A1.243,1.243,0,0,1,0,19.237V18.026a1.243,1.243,0,1,1,2.486,0v1.211A1.243,1.243,0,0,1,1.243,20.48Zm55.27-1.243V18.026a1.243,1.243,0,0,1,2.486,0v1.211a1.243,1.243,0,1,1-2.486,0Z" transform="translate(0)" fill="#b6b6b6"/>
    </g>
  </g>
</svg>
