<svg xmlns="http://www.w3.org/2000/svg" xmlns:xlink="http://www.w3.org/1999/xlink" viewBox="874 533 32 32"><defs><style>.a{clip-path:url(#b);}.b{fill:#eaeaea;}.c{fill:#ff13dc;opacity:0;}.d{fill:#323232;}</style><clipPath id="b"><rect x="874" y="533" width="32" height="32"/></clipPath></defs><g id="a" class="a"><g transform="translate(29 -448)"><g transform="translate(845 981)"><rect class="b" width="32" height="32" rx="4"/></g></g><g transform="translate(881 540)"><rect class="c" width="18" height="18"/><path class="d" d="M16.5,16H1.5a.5.5,0,0,1-.5-.5V5H16.5a.5.5,0,0,1,.5.5v10A.5.5,0,0,1,16.5,16Z"/><path class="d" d="M6.5,2.3A1,1,0,0,0,5.78,2H2A1,1,0,0,0,1,3V4H8.133Z"/></g></g></svg>