<svg xmlns="http://www.w3.org/2000/svg" width="18" height="18" viewBox="0 0 18 18">
  <path fill="#707070" d="M13,3 L13,0.671 C13.0006248,0.570109381 13.061833,0.479482836 13.1551894,0.441222017 C13.2485457,0.402961198 13.3557504,0.424566137 13.427,0.496 L17.827,4.844 C17.8741496,4.89042641 17.9006997,4.95382977 17.9006997,5.02 C17.9006997,5.08617023 17.8741496,5.14957359 17.827,5.196 L13.427,9.545 C13.3288665,9.64183479 13.1711335,9.64183479 13.073,9.545 C13.0262596,9.49876506 12.999971,9.43574448 13,9.37 L13,7 L5,7 L4.985,13.521 C4.98171421,13.7947964 4.7588161,14.0150197 4.485,14.015 L1.485,14.015 C1.2111839,14.0150197 0.988285792,13.7947964 0.985,13.521 L1,6 C1.00603283,4.34565107 2.34565107,3.00603283 4,3 L13,3 Z" transform="translate(0 2)"/>
</svg>
