<svg xmlns="http://www.w3.org/2000/svg" xmlns:xlink="http://www.w3.org/1999/xlink" viewBox="580 1074 32 32"><defs><style>.a{clip-path:url(#b);}.b{fill:red;}.b,.c{opacity:0;}.c{fill:#e1e1e1;stroke:#e1e1e1;}.d{fill:#2c2c2c;}.e{stroke:none;}.f{fill:none;}</style><clipPath id="b"><rect x="580" y="1074" width="32" height="32"/></clipPath></defs><g id="a" class="a"><g transform="translate(580 1074)"><rect class="b" width="32" height="32"/><g class="c"><rect class="e" width="32" height="32" rx="4"/><rect class="f" x="0.5" y="0.5" width="31" height="31" rx="3.5"/></g><g transform="translate(-1239.5 -57.5)"><path class="d" d="M-3841.2-5439.5a.5.5,0,0,1-.5-.5v-6.2a.5.5,0,0,1,.5-.5h6.2a.5.5,0,0,1,.5.5v6.2a.5.5,0,0,1-.5.5Zm-8.8,0a.5.5,0,0,1-.5-.5v-6.2a.5.5,0,0,1,.5-.5h6.2a.5.5,0,0,1,.5.5v6.2a.5.5,0,0,1-.5.5Zm8.8-8.8a.5.5,0,0,1-.5-.5v-6.2a.5.5,0,0,1,.5-.5h6.2a.5.5,0,0,1,.5.5v6.2a.5.5,0,0,1-.5.5Zm-8.8,0a.5.5,0,0,1-.5-.5v-6.2a.5.5,0,0,1,.5-.5h6.2a.5.5,0,0,1,.5.5v6.2a.5.5,0,0,1-.5.5Z" transform="translate(5098 5521)"/></g></g></g></svg>