<svg id="production" xmlns="http://www.w3.org/2000/svg" width="180" height="180" viewBox="0 0 180 180">
  <defs>
    <style>
      .cls-1 {
        fill: #b3b3b3;
      }
    </style>
  </defs>
  <title>S_IlluCCFilesEmpty_180x180</title>
  <path class="cls-1" d="M15.86133,50.999a3.89938,3.89938,0,0,0,3.70117-2.69726l6.2832-20.26367A2.88223,2.88223,0,0,1,28.61133,26H68.6377a1.62027,1.62027,0,0,1,1.51757,2.18652L69.501,29.97461a1.49963,1.49963,0,1,0,2.8164,1.03125l.65332-1.7832A4.62067,4.62067,0,0,0,68.6377,23H28.61133a5.86817,5.86817,0,0,0-5.63086,4.14941l-6.2793,20.25a.87185.87185,0,0,1-.9248.59571A1.00625,1.00625,0,0,1,15,46.96387V12.40137A2.404,2.404,0,0,1,17.40137,10H30.60352a1.6131,1.6131,0,0,1,1.12988.458l4.82617,4.67871A3.04387,3.04387,0,0,0,38.68945,16H57.59863A2.404,2.404,0,0,1,60,18.40137V19.5a1.5,1.5,0,0,0,3,0V18.40137A5.40724,5.40724,0,0,0,57.59863,13l-18.95117-.01758L33.82129,8.30371A4.5987,4.5987,0,0,0,30.60352,7H17.40137A5.40724,5.40724,0,0,0,12,12.40137v34.5625a3.99644,3.99644,0,0,0,3.47754,4.01562A3.63458,3.63458,0,0,0,15.86133,50.999Z"/>
  <path class="cls-1" d="M22.5,48a1.5,1.5,0,0,0,0,3h16a1.5,1.5,0,0,0,0-3Z"/>
  <path class="cls-1" d="M161.53027,113.03418l-48.46289,40.8125a1.45163,1.45163,0,0,0-.26172.28516l-7.42382,10.56445a1.50027,1.50027,0,0,0,1.90429,2.20117l11.52149-5.82812a1.51493,1.51493,0,0,0,.28906-.19141l48.47949-40.82617a4.63141,4.63141,0,0,0-6.0459-7.01758Zm4.09864,4.73633L117.29785,158.4707l-6.01172,3.041,3.86231-5.4961,48.32812-40.69921a1.63214,1.63214,0,0,1,2.69629,1.35156A1.60978,1.60978,0,0,1,165.62891,117.77051Z"/>
  <path class="cls-1" d="M125,124.35449V60.19922a11.48579,11.48579,0,0,0-3.37012-8.1582L108.044,38.40234A11.6353,11.6353,0,0,0,99.85449,35h-45.209A10.65735,10.65735,0,0,0,44,45.64551v78.709A10.65735,10.65735,0,0,0,54.64551,135h59.709A10.65735,10.65735,0,0,0,125,124.35449Zm-78,0v-78.709A7.65408,7.65408,0,0,1,54.64551,38h45.209a8.61466,8.61466,0,0,1,6.06446,2.51953L119.50488,54.1582A8.51132,8.51132,0,0,1,122,60.19922v64.15527A7.65408,7.65408,0,0,1,114.35449,132h-59.709A7.65408,7.65408,0,0,1,47,124.35449Z"/>
  <path class="cls-1" d="M165.96973,58.43457c-2.3584-2.64551-5.29493-5.93652-9.40821-7.02832a20.09593,20.09593,0,0,0-5.165-.4834l-7.42871-.03906a8.02335,8.02335,0,0,0-.916-5.4082l-6.09082-10.7793a8.03123,8.03123,0,0,0-4.88672-3.81445l-28.08008-7.748a7.48676,7.48676,0,0,0-9.20605,5.22363l-.68848,2.49512a1.50043,1.50043,0,0,0,2.89258.79883l.68847-2.49512a4.48685,4.48685,0,0,1,5.51465-3.12988l28.08008,7.748a5.05191,5.05191,0,0,1,3.07422,2.39844l6.09082,10.77832a5.05405,5.05405,0,0,1,.47363,3.85352l-4.08349,14.80224c-1.54737-.41308-3.1001-.7998-4.66162-1.12841a8.61893,8.61893,0,0,0-3.91211-.15235,2.993,2.993,0,0,0-1.41211.73926A3.0298,3.0298,0,0,0,126,67a7.03766,7.03766,0,0,0,2.08008,5.42773,17.93714,17.93714,0,0,0,4.14355,3.01075l1.63086.9541-3.94238,14.28711a4.4622,4.4622,0,0,1-1.94531,2.6084,1.50035,1.50035,0,0,0,1.58984,2.54492,7.46743,7.46743,0,0,0,3.24805-4.35449l3.73-13.51856.55224.32324c1.98926,1.16407,4.04688,2.36719,5.94922,3.69141,1.084.75488,2.166,1.582,3.21192,2.38281a60.39072,60.39072,0,0,0,5.19824,3.69043,30.92012,30.92012,0,0,0,9.28613,3.76563,15.57032,15.57032,0,0,0,3.41992.43554,8.31189,8.31189,0,0,0,3.58887-.74316,1.50007,1.50007,0,1,0-1.28516-2.71094c-1.207.57422-2.81445.60254-5.06054.09278a27.93922,27.93922,0,0,1-8.38672-3.4004,57.60181,57.60181,0,0,1-4.9375-3.51269c-1.07324-.82129-2.18164-1.66895-3.32129-2.46289-1.999-1.3916-4.10938-2.625-6.14844-3.81836l-4.86328-2.84473a15.4075,15.4075,0,0,1-3.47558-2.47949,4.133,4.133,0,0,1-1.27832-3.06934c.00292-.02441.00488-.04589.00781-.06542a6.15727,6.15727,0,0,1,2.55957.17968,87.45118,87.45118,0,0,1,13.543,4.02051l.55078.21484a23.54827,23.54827,0,0,0,5.0039,1.53516,1.496,1.496,0,0,0,.91455-2.80908,1.4859,1.4859,0,0,0-.062-.59717c-1.05468-3.33984-3.375-6.001-5.42285-8.34961a4.60409,4.60409,0,0,0-3.15722-1.89062,3.71955,3.71955,0,0,0-1.37354.25048l1.67773-6.082a1.49156,1.49156,0,0,0,.686.17725l7.46875.03906a17.85425,17.85425,0,0,1,4.41016.38281c3.24414.86133,5.84765,3.78028,7.94043,6.125l7.27734,8.16211a1.49952,1.49952,0,1,0,2.23828-1.99609Zm-24.02246,4.49414a2.80122,2.80122,0,0,1,.84863-.39258h.00781c.26953.01075.83106.6543,1.01465.86426a26.83139,26.83139,0,0,1,4.3042,5.98242c-.45606-.168-.915-.34326-1.3833-.52636l-.56055-.21875c-2.11816-.82081-4.27783-1.55567-6.46045-2.21631l.71826-2.60254Z"/>
  <path class="cls-1" d="M97.40527,76.62158a9.7225,9.7225,0,0,1-14.48291,12.9292l-5.68164-5.69873a1.07228,1.07228,0,0,0-1.59717,1.43115c.02.022.04053.04346.062.06348l5.70947,5.728a11.867,11.867,0,1,0,.27978-17.061,11.67823,11.67823,0,0,1,2.04786,1.061A9.72282,9.72282,0,0,1,97.40527,76.62158Z"/>
  <path class="cls-1" d="M77.24463,99.294H88.7002c1.70947,0,3.73535-.21485,3.81982-.22461A16.60371,16.60371,0,1,0,78.52539,70.55273l-.18066.16846q-.54931-.04028-1.09912-.04053a14.30665,14.30665,0,0,0-.001,28.61329Zm-.00635-27.01563a13.16032,13.16032,0,0,1,1.66358.105l.70947-.66455a15.0054,15.0054,0,1,1,12.74023,25.7627s-2.01025.21484-3.65039.21484H77.24561a12.70959,12.70959,0,0,1-.00733-25.418Z"/>
  <path class="cls-1" d="M77.3335,94.55518h5.00976A14.06016,14.06016,0,0,1,79.70508,92.418H77.33594a7.45508,7.45508,0,1,1,0-14.91016,7.1034,7.1034,0,0,1,4.88525,1.83155l4.3169,4.42968A1.07179,1.07179,0,1,0,88.07324,82.273l-4.31347-4.437a9.283,9.283,0,0,0-6.43116-2.47168,9.58778,9.58778,0,0,0-9.59033,9.58594v.00585l.001.00733A9.593,9.593,0,0,0,77.3335,94.55518Z"/>
  <path class="cls-1" d="M109,108H62a1,1,0,0,0,0,2h47a1,1,0,0,0,0-2Z"/>
  <path class="cls-1" d="M109,118H62a1,1,0,0,0,0,2h47a1,1,0,0,0,0-2Z"/>
  <path class="cls-1" d="M71.80664,136.76367a1.49983,1.49983,0,0,0-2.61328,1.47266l4.59863,8.16308A3.79409,3.79409,0,0,1,72.03027,151.46L41.41992,166.26172A3.78919,3.78919,0,0,1,36.35938,164.5L16.83691,124.127a3.79408,3.79408,0,0,1,1.76172-5.06054L39.7373,108.84473a1.50031,1.50031,0,1,0-1.30664-2.70118L17.292,116.36523a6.79956,6.79956,0,0,0-3.15625,9.06836l19.52246,40.373a6.74929,6.74929,0,0,0,3.87989,3.45606,6.74821,6.74821,0,0,0,5.18847-.29981l30.61035-14.80176a6.81511,6.81511,0,0,0,3.11231-9.15136Z"/>
  <path class="cls-1" d="M54.98633,137.37793a1.93039,1.93039,0,0,0-1.48047.06641,1.95034,1.95034,0,0,0-1.01465,1.11425l-.99512,3.00684-6.97461-2.67481a1.75717,1.75717,0,0,0-2.26757,1.06055L36.57227,156.168a1.00009,1.00009,0,0,0,1.38085,1.23047l28.46094-13.8291a1.0002,1.0002,0,0,0-.0791-1.833ZM39.26172,154.53906l4.79492-13.68457,13.06055,5.00781Zm20.31933-9.873-6.21582-2.38379.99415-3.00293,9.10742,3.498Z"/>
</svg>
