<svg id="production" xmlns="http://www.w3.org/2000/svg" width="280" height="192" viewBox="0 0 280 192">
  <defs>
    <style>
      .cls-1 {
        fill: #b3b3b3;
      }
    </style>
  </defs>
  <title>S_IlluEmptyStateDCFiles_280x192</title>
  <path class="cls-1" d="M97.28223,140.99268a1.513,1.513,0,0,0,.00024-.334c-.00317-.02978-.00513-.05859-.01025-.08838a1.48125,1.48125,0,0,0-.10938-.36914c-.0061-.01367-.01513-.02539-.02173-.03857a1.503,1.503,0,0,0-.1167-.20752c-.02343-.0332-.053-.05957-.07861-.09033-.011-.01319-.01636-.02979-.02783-.04248-.00977-.01075-.02319-.01709-.0332-.02784a1.48117,1.48117,0,0,0-.30274-.25244c-.00537-.0039-.01172-.00537-.01733-.00879a1.49943,1.49943,0,0,0-.33228-.14258c-.03418-.01025-.06738-.01953-.10205-.02783a1.49487,1.49487,0,0,0-.36645-.04248c-.01856,0-.03638.00537-.05494.00635a1.48549,1.48549,0,0,0-.3374.061c-.01733.00537-.03515.0039-.05224.00976L46.00391,156.00977a2.79678,2.79678,0,0,0-.54786,5.04589l11.50489,6.92041v10.17334a2.56634,2.56634,0,0,0,1.68066,2.42286,2.613,2.613,0,0,0,.915.166,2.56157,2.56157,0,0,0,1.94043-.8916l3.95117-4.543a1.5,1.5,0,0,0-2.26367-1.96875L59.96094,177.041v-7.26075l15.89746,9.5625a2.79487,2.79487,0,0,0,3.96875-1.20117L97.1543,141.46c.00586-.01221.0061-.02539.01147-.03808a1.50139,1.50139,0,0,0,.11157-.36915C97.28076,141.03271,97.27979,141.0127,97.28223,140.99268Zm-10.77881,4.54L58.396,165.33789l-11.01612-6.626Zm-9.29248,31.12256-16.0044-9.62646,30.80469-21.70557Z"/>
  <path class="cls-1" d="M234.84082,155.31641a1,1,0,0,0,.64746-1.76172l-11.52148-9.79395a.99971.99971,0,1,0-1.29492,1.52344l11.52148,9.79394A.99335.99335,0,0,0,234.84082,155.31641Z"/>
  <path class="cls-1" d="M220.28223,146.55176a.99964.99964,0,0,0,.11425,1.40918l11.52051,9.79394a.99971.99971,0,1,0,1.29492-1.52343l-11.5205-9.79395A.99977.99977,0,0,0,220.28223,146.55176Z"/>
  <path class="cls-1" d="M238.87793,155.93066l-4.47656,5.26368a1.556,1.556,0,0,1-2.19239.17871l-15.15234-12.88086a1.55909,1.55909,0,0,1-.17773-2.19336l16.97754-19.96973a1.556,1.556,0,0,1,2.19238-.17871l11.47265,9.75293a1.87857,1.87857,0,0,1,.6504,1.27148l.50585,6.38868a1.85,1.85,0,0,1-.4375,1.35254,1.49988,1.49988,0,0,0,2.28516,1.94336,4.82559,4.82559,0,0,0,1.14258-3.53223l-.50586-6.38867a4.89507,4.89507,0,0,0-1.69727-3.32032l-11.47265-9.7539a4.558,4.558,0,0,0-6.42188.52148l-16.97754,19.96973a4.56272,4.56272,0,0,0,.52051,6.42187l15.15234,12.88184a4.52493,4.52493,0,0,0,2.94336,1.084c.125,0,.25-.00488.376-.01562a4.52131,4.52131,0,0,0,3.10254-1.58984l4.47559-5.26368a1.49988,1.49988,0,0,0-2.28516-1.94336Z"/>
  <path class="cls-1" d="M67.93555,40.25a1.49516,1.49516,0,0,0,.97168-.3584c16.333-13.91894,38.20215-20.999,63.19726-20.50293h17.42407l-4.97192,4.97266a1.49984,1.49984,0,1,0,2.12109,2.12109l7.39869-7.39941a1.494,1.494,0,0,0,.60131-1.19434l-.00195-.01855c0-.01367-.00366-.02637-.0039-.04a1.4853,1.4853,0,0,0-.08594-.44092,1.41607,1.41607,0,0,0-.08863-.19922,1.48888,1.48888,0,0,0-.16284-.24512,1.40627,1.40627,0,0,0-.09619-.145l-7.65723-7.6582A1.49984,1.49984,0,0,0,144.46,11.2627l5.12525,5.126H132.13477c-25.7334-.5-48.27442,6.81641-65.17286,21.21973a1.5,1.5,0,0,0,.97364,2.6416Z"/>
  <path class="cls-1" d="M62.08984,148.61426a1.5,1.5,0,0,0,1.08692-2.53321,73.20744,73.20744,0,0,1-18.11719-33.22851,1.35733,1.35733,0,0,0-.18457-.42676A75.79066,75.79066,0,0,1,45.44556,77H67.9834c3.35254,0,12.9209-2.374,12.9209-12.9248a13.82737,13.82737,0,0,0-13.5293-13.79,15.86957,15.86957,0,0,0-.16895-2.45606,15.19032,15.19032,0,0,0-29.42871-2.49121,12.60835,12.60835,0,0,0-4.12988-.38672A12.73665,12.73665,0,0,0,22.5293,53.72266a1.5,1.5,0,0,0,2.85547.91992,9.71413,9.71413,0,0,1,8.46972-6.69922,9.58563,9.58563,0,0,1,4.376.71,1.49906,1.49906,0,0,0,2.043-1.07324,12.18853,12.18853,0,0,1,23.96386.68652,12.57933,12.57933,0,0,1,.043,3.39746,1.50123,1.50123,0,0,0,.417,1.23633,1.52021,1.52021,0,0,0,1.22753.44238,10.30571,10.30571,0,0,1,1.15528-.06054A10.82613,10.82613,0,0,1,77.9043,64.0791c0,3.85254-1.5625,6.66992-4.64551,8.376A13.30471,13.30471,0,0,1,67.9834,74l-43.3711.00293a6.1472,6.1472,0,0,1-4.667-1.49414,5.00071,5.00071,0,0,1-1.54687-3.74512,6.28675,6.28675,0,0,1,.74023-2.97558,1.50035,1.50035,0,1,0-2.64453-1.418,9.3036,9.3036,0,0,0-1.0957,4.39941,8.02776,8.02776,0,0,0,2.49707,5.92871A8.9197,8.9197,0,0,0,24.043,77.02148c.21973,0,.44238-.00683.665-.02148H42.34912a78.9201,78.9201,0,0,0-.29639,36.55371,1.36222,1.36222,0,0,0,.20411.46777,76.22006,76.22006,0,0,0,18.74609,34.126A1.49385,1.49385,0,0,0,62.08984,148.61426Z"/>
  <path class="cls-1" d="M216.916,156.46191c-14.4375,12.20655-33.34009,19.145-54.80323,20.18067l4.88037-4.88086a1.49984,1.49984,0,1,0-2.12109-2.1211l-7.56055,7.56153a1.49946,1.49946,0,0,0,0,2.12109l7.65723,7.65723a1.49984,1.49984,0,0,0,2.12109-2.12109l-5.20459-5.20459c22.27979-1.00489,41.93653-8.19385,56.96827-20.90186a1.50022,1.50022,0,0,0-1.9375-2.291Z"/>
  <path class="cls-1" d="M246.18359,148.69336a2.31206,2.31206,0,0,0-3.96191,1.61914v26.75391a2.28824,2.28824,0,0,0,1.54,2.17968,2.37677,2.37677,0,0,0,.78516.13575,2.28614,2.28614,0,0,0,1.7832-.86036l6.457-7.97168,10.50391,1.51368a2.31232,2.31232,0,0,0,1.97949-3.90723Zm6.18848,18.76562a1.49605,1.49605,0,0,0-1.37988.54l-5.77051,7.124v-23.126l16.48242,16.80664Z"/>
  <path class="cls-1" d="M181.01367,143.46289a10.5044,10.5044,0,0,0,10.49219-10.49219V69.62793a11.33509,11.33509,0,0,0-2.01465-6.4668,1.49961,1.49961,0,1,0-2.46875,1.70313,8.35341,8.35341,0,0,1,1.4834,4.76367V132.9707a7.50112,7.50112,0,0,1-7.49219,7.49219H121.376a7.49291,7.49291,0,0,1-4.80274-1.74316,1.50018,1.50018,0,0,0-1.92578,2.30078,10.49547,10.49547,0,0,0,6.72852,2.44238Z"/>
  <path class="cls-1" d="M197.69238,139.1582V75.81543a11.3369,11.3369,0,0,0-2.01367-6.4668A1.49961,1.49961,0,0,0,193.21,71.05176a8.35517,8.35517,0,0,1,1.48242,4.76367V139.1582a7.49945,7.49945,0,0,1-7.49121,7.49121H127.56348a7.49739,7.49739,0,0,1-4.80274-1.74218A1.50018,1.50018,0,0,0,120.835,147.208a10.50383,10.50383,0,0,0,6.72852,2.4414h59.63769A10.50272,10.50272,0,0,0,197.69238,139.1582Z"/>
  <path class="cls-1" d="M175.00488,136.72949a10.5044,10.5044,0,0,0,10.49219-10.49219V62.89453a11.464,11.464,0,0,0-3.35352-8.07129l-13.5664-13.50683A11.31745,11.31745,0,0,0,160.54,37.99707H115.36816A10.50356,10.50356,0,0,0,104.876,48.48828v77.749a10.5044,10.5044,0,0,0,10.49218,10.49219ZM107.876,126.2373v-77.749a7.50028,7.50028,0,0,1,7.49218-7.49121H160.54A8.33407,8.33407,0,0,1,166.46,43.44238l13.56641,13.50684a8.44277,8.44277,0,0,1,2.4707,5.94531V126.2373a7.50112,7.50112,0,0,1-7.49219,7.49219H115.36816A7.50111,7.50111,0,0,1,107.876,126.2373Z"/>
  <path class="cls-1" d="M127.87842,96.51953c4.15014,0,8.48974-6.55517,10.74145-10.52978,1.67066-.56885,3.38135-1.08155,5.08033-1.52735,1.92871-.50244,3.75659-.90185,5.43505-1.188a15.47788,15.47788,0,0,0,10.14038,4.43848c2.36866,0,3.228-.9585,3.53492-1.76123a2.48448,2.48448,0,0,0,.15918-.90576,2.67784,2.67784,0,0,0-.65577-1.78369c-1.13378-1.21045-3.47607-1.83789-6.77075-1.83789a38.39048,38.39048,0,0,0-6.00634.53027,28.67227,28.67227,0,0,1-3.6316-4.14209,36.45522,36.45522,0,0,1-2.25146-3.49219,32.29051,32.29051,0,0,0,1.9104-9.34521c0-2.56641-.98462-5.31055-3.75049-5.31055a2.623,2.623,0,0,0-2.1709,1.271c-1.27319,2.16894-.668,6.92871,1.48291,11.61523-.80713,2.36084-1.65454,4.604-2.68335,7.05127a61.72659,61.72659,0,0,1-3.06079,6.2544c-6.35522,2.5039-10.24707,5.26416-10.69311,7.57617a2.37886,2.37886,0,0,0,.7688,2.25342A3.56837,3.56837,0,0,0,127.87842,96.51953Zm30.42871-13.6709c.75879.15723,1.99145.6333,1.71289,2.05567-.15918.83349-1.00879,1.374-2.18091,1.374a4.15119,4.15119,0,0,1-.95019-.11279,15.30042,15.30042,0,0,1-6.14136-3.15772A23.97252,23.97252,0,0,1,158.30713,82.84863Zm-17.59107-21.2832h-.008a1.25821,1.25821,0,0,1,1.06543-.668c1.14184,0,1.386,1.28711,1.38989,2.36865a28.38235,28.38235,0,0,1-1.46655,7.49317C140.002,66.50635,139.89893,62.95312,140.71606,61.56543Zm.6355,18.89844c.64966-1.54981,1.25489-3.09278,1.77759-4.59424.57886.95849,1.16211,1.83594,1.77124,2.67139a31.67654,31.67654,0,0,0,3.02637,3.585h-.01l.095.09521c-1.50122.28223-3.05078.63526-4.61841,1.05127-1.26294.32666-2.5481.69775-3.906,1.13379C140.1875,83.07227,140.82715,81.7207,141.35156,80.46387ZM125.91333,93.66455c.31665-1.65234,3.52271-3.93994,8.43335-6.04248-2.82471,4.60791-5.57056,7.43848-7.241,7.43848a1.18592,1.18592,0,0,1-1.19238-1.396Z"/>
  <path class="cls-1" d="M120.93164,108.46484h47.01074a1,1,0,0,0,0-2H120.93164a1,1,0,0,0,0,2Z"/>
  <path class="cls-1" d="M120.93164,118.07422h47.01074a1,1,0,0,0,0-2H120.93164a1,1,0,1,0,0,2Z"/>
  <path class="cls-1" d="M199.49414,41h14.28027l11.99024,11.58008A2.50023,2.50023,0,0,0,230,50.78027V41h20.50586A10.50649,10.50649,0,0,0,261,30.50586V14.49414A10.50649,10.50649,0,0,0,250.50586,4H199.49414A10.50649,10.50649,0,0,0,189,14.49414V30.50586A10.50649,10.50649,0,0,0,199.49414,41ZM192,14.49414A7.5032,7.5032,0,0,1,199.49414,7h51.01172A7.5032,7.5032,0,0,1,258,14.49414V30.50586A7.5032,7.5032,0,0,1,250.50586,38H228.5a1.50039,1.50039,0,0,0-1.5,1.5V49.60254L215.42285,38.4209a1.50178,1.50178,0,0,0-1.042-.4209H199.49414A7.5032,7.5032,0,0,1,192,30.50586Z"/>
  <path class="cls-1" d="M201.66016,20.30566a.99311.99311,0,0,0,.55664-.16992l3.376-2.2666,1.01953,1.90723a.99914.99914,0,0,0,1.43946.3584l3.37695-2.26661,1.01856,1.90723a.99913.99913,0,0,0,1.43945.3584l3.376-2.2666,1.01953,1.9082a.99914.99914,0,0,0,1.43945.3584l3.376-2.2666,1.01953,1.90625a.99843.99843,0,0,0,1.43945.35937l3.377-2.2666,1.01856,1.90625a.99844.99844,0,0,0,1.43945.35938l3.37695-2.26661,1.01856,1.90625a.99844.99844,0,0,0,1.43945.35938l4.1543-2.78809a1,1,0,1,0-1.11524-1.66015l-3.23535,2.17187-1.01855-1.90625a.99843.99843,0,0,0-1.43945-.35937l-3.377,2.2666-1.01855-1.90723a.99843.99843,0,0,0-1.43946-.35937l-3.37695,2.26758-1.01953-1.90821a.99914.99914,0,0,0-1.43945-.3584l-3.376,2.26661-1.01953-1.90723a.99914.99914,0,0,0-1.43945-.3584l-3.377,2.2666L212.6709,15.9502a.99912.99912,0,0,0-1.43945-.3584l-3.376,2.2666-1.01953-1.90723a.99721.99721,0,0,0-.63965-.5,1.00833,1.00833,0,0,0-.79981.14063l-4.29492,2.88379a1,1,0,0,0,.5586,1.83007Z"/>
  <path class="cls-1" d="M201.66016,30.30469a.99319.99319,0,0,0,.55664-.16992l3.37695-2.26661,1.01855,1.90723a.99914.99914,0,0,0,1.43946.3584l3.37695-2.2666,1.01953,1.90722a.99912.99912,0,0,0,1.43946.3584l3.37695-2.2666,1.01855,1.90723a.99914.99914,0,0,0,1.43946.3584l3.377-2.26661,1.01855,1.90723a.99914.99914,0,0,0,1.43946.3584l4.15429-2.78809a1,1,0,1,0-1.11523-1.66015l-3.23633,2.17187-1.01855-1.90722a.99912.99912,0,0,0-1.43946-.3584l-3.377,2.2666-1.01855-1.90723a.99914.99914,0,0,0-1.43946-.3584l-3.377,2.26661-1.01855-1.90723a.99914.99914,0,0,0-1.43946-.3584l-3.37695,2.2666-1.01953-1.90722a.99912.99912,0,0,0-1.43946-.3584l-4.29492,2.88281a1,1,0,0,0,.5586,1.83008Z"/>
  <path class="cls-1" d="M263.85938,78.667a22,22,0,1,0-22,22q.58154,0,1.15551-.03076a73.39526,73.39526,0,0,1-3.18969,21.30225,1.50008,1.50008,0,0,0,2.86914.877,76.40618,76.40618,0,0,0,3.32421-22.375c0-.05762-.00122-.11523-.00146-.17285A22.03318,22.03318,0,0,0,263.85938,78.667Zm-22,19a18.87469,18.87469,0,0,1-11.12159-3.62793.98557.98557,0,0,0,.7085-.35937c1.418-1.77344,3.77539-2.71,5.56348-3.38965a4.616,4.616,0,0,0,3.124,1.9873,6.07824,6.07824,0,0,0,6.0498-2.55761,1.00036,1.00036,0,1,0-1.71093-1.03711,4.06562,4.06562,0,0,1-4.00879,1.62207,2.46348,2.46348,0,0,1-1.99121-1.56641,1.00253,1.00253,0,0,0-.52051-.61133.9912.9912,0,0,0-.80274-.03125l-.6582.252c-2.02441.76757-4.79687,1.81933-6.60742,4.084a.98266.98266,0,0,0-.1875.81445,18.98466,18.98466,0,1,1,12.16309,4.4209Z"/>
  <path class="cls-1" d="M242.14844,82.31738a4.65288,4.65288,0,0,1-4.6084,1.82813c-.94629-.21387-3.69043-2.48731-3.69043-7.54785V73.64453a1,1,0,0,0-2,0v2.95313c0,6.21875,3.60449,9.12695,5.249,9.499a6.42549,6.42549,0,0,0,1.42383.16309,6.85315,6.85315,0,0,0,5.27051-2.80372,1.00013,1.00013,0,0,0-1.64453-1.13867Z"/>
  <path class="cls-1" d="M255.49805,90.334c-2.10157-2.10058-1.708-3.57714-1.16407-5.62109a8.23749,8.23749,0,0,0,.00977-5.71,4.05853,4.05853,0,0,0-1.73828-2.17481,4.56284,4.56284,0,0,1-2.207-4.14648,15.00689,15.00689,0,0,0-.14453-3.48242c-.72364-3.73438-3.66211-7.72559-9.74121-7.72559-6.293,0-9.08008,5.42969-9.19629,5.66114a.99246.99246,0,0,0-.07911.2207c-.03613.15234-.80371,3.77637,4.97266,6.85742a18.78925,18.78925,0,0,0,6.3418,1.916.987.987,0,0,0,1.03515-.65821,3.59137,3.59137,0,0,1,1.0752-1.67285.63349.63349,0,0,1,.41211.09668,1.34015,1.34015,0,0,1,.16016.84766,3.42841,3.42841,0,0,1-1.52637,2.35547c-.19727.1748-.38184.33984-.53906.49707a.99989.99989,0,0,0,1.41406,1.41406c.13183-.13184.28711-.26856.45215-.415a5.25266,5.25266,0,0,0,2.19922-3.80859,3.02265,3.02265,0,0,0-.73047-2.29,2.4691,2.4691,0,0,0-1.8418-.69727c-1.30664,0-2.18359,1.32617-2.63379,2.23926a16.67287,16.67287,0,0,1-4.877-1.58984c-3.876-2.06641-3.999-4.10059-3.97559-4.54883a8.63625,8.63625,0,0,1,7.33692-4.42481c6.11914,0,7.5,4.67383,7.77832,6.10742a13.12029,13.12029,0,0,1,.10937,2.99415,6.56557,6.56557,0,0,0,3.168,5.96386,2.12953,2.12953,0,0,1,.92578,1.22461,6.43017,6.43017,0,0,1-.09277,4.43457c-.57813,2.17285-1.2334,4.63379,1.68261,7.54981a.9999.9999,0,1,0,1.41407-1.41407Z"/>
  <path class="cls-1" d="M249.07617,88.57812,248.0293,87.625a3.56376,3.56376,0,0,1-1.00879-1.68359V81.75195a1,1,0,0,0-2,0v4.19043a5.17787,5.17787,0,0,0,1.66308,3.16211l1.04688.95313c1.23926,1.126,2.668,2.42578,4.0918,3.73437a1.00009,1.00009,0,0,0,1.35351-1.47265C251.749,91.00781,250.31738,89.70605,249.07617,88.57812Z"/>
  <path class="cls-1" d="M36.8418,66.96387a1.50053,1.50053,0,0,0,2.127,2.11718l6.6416-6.67285a1.50152,1.50152,0,0,0-.00488-2.12207l-6.67383-6.64258a1.50054,1.50054,0,0,0-2.11719,2.127L40.93994,59.876H13.79883a1.5,1.5,0,1,0,0,3h27.1123Z"/>
</svg>
