<svg id="production" xmlns="http://www.w3.org/2000/svg" width="188" height="168" viewBox="0 0 188 168">
  <defs>
    <style>
      .cls-1 {
        fill: #b3b3b3;
      }
    </style>
  </defs>
  <title>S_IlluDCFilesEmpty_180x180</title>
  <path class="cls-1" d="M74.77783,94.23975c4.231,0,8.65576-6.68311,10.95117-10.73487,1.70313-.58008,3.44776-1.10254,5.17969-1.55761,1.96631-.51172,3.83008-.919,5.54151-1.21143a15.77639,15.77639,0,0,0,10.33789,4.52539c2.415,0,3.2915-.977,3.604-1.79541a2.52971,2.52971,0,0,0,.1626-.92383,2.7311,2.7311,0,0,0-.66846-1.81836c-1.15625-1.23437-3.54443-1.874-6.90332-1.874a39.1749,39.1749,0,0,0-6.12353.541A29.28368,29.28368,0,0,1,93.15674,75.168a37.24028,37.24028,0,0,1-2.29541-3.56055,32.927,32.927,0,0,0,1.94775-9.52832c0-2.61621-1.0039-5.41357-3.82373-5.41357a2.67446,2.67446,0,0,0-2.21338,1.2959c-1.29785,2.21093-.68066,7.06347,1.51172,11.84179-.82275,2.40674-1.68652,4.69385-2.73584,7.189a62.903,62.903,0,0,1-3.12012,6.377c-6.47949,2.55225-10.44726,5.36621-10.90185,7.72363a2.42567,2.42567,0,0,0,.78369,2.29785A3.63721,3.63721,0,0,0,74.77783,94.23975Zm31.023-13.938c.77344.16064,2.03027.646,1.74658,2.09619-.16259.84961-1.02881,1.40088-2.22363,1.40088a4.23147,4.23147,0,0,1-.96875-.11524,15.60064,15.60064,0,0,1-6.26123-3.21923A24.43878,24.43878,0,0,1,105.80078,80.30176ZM87.86621,58.603h-.0083a1.284,1.284,0,0,1,1.08643-.68067c1.16406,0,1.41308,1.312,1.417,2.41455a28.92145,28.92145,0,0,1-1.49512,7.63965C87.13818,63.64062,87.0332,60.01807,87.86621,58.603Zm.648,19.26758c.6626-1.57959,1.2793-3.15332,1.812-4.6836.59082.97705,1.18506,1.87158,1.80615,2.72315a32.32871,32.32871,0,0,0,3.08545,3.65527h-.01025l.09668.09668c-1.53027.28809-3.10986.64795-4.7085,1.07178-1.28759.33349-2.59765.71191-3.98193,1.15576C87.32715,80.53027,87.97949,79.15234,88.51416,77.87061ZM72.77441,91.3291c.32276-1.68457,3.59131-4.01709,8.59815-6.16015-2.87988,4.69775-5.6792,7.584-7.38233,7.584a1.21006,1.21006,0,0,1-1.23486-1.18408A1.232,1.232,0,0,1,72.77441,91.3291Z"/>
  <path class="cls-1" d="M20.47754,47.97949a3.63458,3.63458,0,0,0,.38379.01953,3.89938,3.89938,0,0,0,3.70117-2.69726l6.2832-20.26367A2.88223,2.88223,0,0,1,33.61133,23H73.9248a1.62027,1.62027,0,0,1,1.51758,2.18652l-.65429,1.78809a1.49963,1.49963,0,1,0,2.8164,1.03125l.65332-1.7832A4.62067,4.62067,0,0,0,73.9248,20H33.61133a5.86817,5.86817,0,0,0-5.63086,4.14941l-6.2793,20.25a.87859.87859,0,0,1-.9248.59571A1.00625,1.00625,0,0,1,20,43.96387V9.40137A2.404,2.404,0,0,1,22.40137,7H35.60352a1.6131,1.6131,0,0,1,1.12988.458l4.82617,4.67871A3.04387,3.04387,0,0,0,43.68945,13H62.59863A2.404,2.404,0,0,1,65,15.40137V16.5a1.5,1.5,0,0,0,3,0V15.40137A5.40724,5.40724,0,0,0,62.59863,10L43.64746,9.98242,38.82129,5.30371A4.5987,4.5987,0,0,0,35.60352,4H22.40137A5.40724,5.40724,0,0,0,17,9.40137v34.5625A3.99644,3.99644,0,0,0,20.47754,47.97949Z"/>
  <path class="cls-1" d="M27.5,45a1.5,1.5,0,0,0,0,3h17a1.5,1.5,0,0,0,0-3Z"/>
  <path class="cls-1" d="M166.81836,110.03418l-48.46387,40.8125a1.47976,1.47976,0,0,0-.26172.28516l-7.42285,10.56445a1.50028,1.50028,0,0,0,1.9043,2.20117l11.52051-5.82812a1.51493,1.51493,0,0,0,.28906-.19141l48.47949-40.82617a4.63109,4.63109,0,0,0-6.04492-7.01758Zm4.09766,4.73633L122.585,155.4707l-6.01074,3.041,3.86133-5.4961,48.33007-40.69921a1.6315,1.6315,0,0,1,2.1504,2.4541Z"/>
  <path class="cls-1" d="M172.46289,55.43457c-2.35937-2.64551-5.29492-5.93652-9.4082-7.02832a20.09253,20.09253,0,0,0-5.16407-.4834l-7.42919-.03906a8.02269,8.02269,0,0,0-.91651-5.4082l-6.09082-10.7793a8.02928,8.02928,0,0,0-4.88574-3.81445l-28.08106-7.748a7.49323,7.49323,0,0,0-9.20605,5.22461l-.6875,2.49512a1.50017,1.50017,0,0,0,2.89258.79687l.6875-2.49414a4.4887,4.4887,0,0,1,5.51465-3.12988l28.08105,7.748a5.05,5.05,0,0,1,3.07324,2.39844l6.09082,10.7793a5.04841,5.04841,0,0,1,.47461,3.85156l-4.085,14.80274c-1.54687-.4126-3.09961-.79981-4.66113-1.12793a8.59426,8.59426,0,0,0-3.90918-.15235,2.99012,2.99012,0,0,0-1.41211.73731A3.02507,3.02507,0,0,0,132.49316,64a7.03869,7.03869,0,0,0,2.08008,5.42773,17.937,17.937,0,0,0,4.14356,3.01075l1.63086.9541-3.94239,14.28711a4.4646,4.4646,0,0,1-1.94433,2.6084,1.50035,1.50035,0,0,0,1.58984,2.54492,7.46486,7.46486,0,0,0,3.24707-4.35449l3.73-13.51856.55225.32324c1.98926,1.16407,4.04687,2.36719,5.94922,3.69141,1.08593.75586,2.16894,1.584,3.21679,2.38574a60.56731,60.56731,0,0,0,5.19336,3.68848,30.92918,30.92918,0,0,0,9.28711,3.76465,15.56094,15.56094,0,0,0,3.41895.43554,8.31192,8.31192,0,0,0,3.58887-.74316,1.50007,1.50007,0,1,0-1.28516-2.71094c-1.20606.57324-2.81445.60254-5.05957.09278a27.94,27.94,0,0,1-8.3877-3.4004,57.50628,57.50628,0,0,1-4.93359-3.50976c-1.07422-.82129-2.18457-1.6709-3.3252-2.46582-1.999-1.3916-4.10937-2.625-6.14843-3.81836l-4.86328-2.84473a15.40756,15.40756,0,0,1-3.47559-2.47949,4.13159,4.13159,0,0,1-1.27832-3.06934c.00293-.02441.00488-.04589.00781-.06542a6.17374,6.17374,0,0,1,2.55957.17968,87.30184,87.30184,0,0,1,13.543,4.02051l.55078.21484a23.514,23.514,0,0,0,5.00586,1.53516,1.50931,1.50931,0,0,0,1.71-1.25488,1.49355,1.49355,0,0,0-.79736-1.5542,1.4852,1.4852,0,0,0-.062-.59717c-1.05274-3.33789-3.374-6-5.42188-8.34863a4.59691,4.59691,0,0,0-3.15722-1.8916,3.69335,3.69335,0,0,0-1.37452.251l1.67871-6.083a1.48594,1.48594,0,0,0,.686.17774l7.46875.03906a17.8505,17.8505,0,0,1,4.40918.38281c3.24414.86036,5.84766,3.78028,7.94043,6.125l7.27734,8.16211a1.49952,1.49952,0,1,0,2.23828-1.99609Zm-24.02246,4.49414a3.8788,3.8788,0,0,1,.85742-.39258c.26953.01075.83008.65332,1.01367.86426a26.42249,26.42249,0,0,1,4.30762,5.9834c-.45752-.16846-.91748-.34424-1.38769-.52832l-.55957-.21777c-2.11817-.82129-4.27784-1.55616-6.46-2.2168l.71778-2.60156Z"/>
  <path class="cls-1" d="M50,42.64551v78.709A10.65735,10.65735,0,0,0,60.64551,132h59.709A10.65735,10.65735,0,0,0,131,121.35449V57.19922a11.48579,11.48579,0,0,0-3.37012-8.1582L114.044,35.40234A11.6353,11.6353,0,0,0,105.85449,32h-45.209A10.65735,10.65735,0,0,0,50,42.64551Zm61.919-5.126L125.50488,51.1582A8.51132,8.51132,0,0,1,128,57.19922v64.15527A7.65408,7.65408,0,0,1,120.35449,129h-59.709A7.65408,7.65408,0,0,1,53,121.35449v-78.709A7.65408,7.65408,0,0,1,60.64551,35h45.209A8.61466,8.61466,0,0,1,111.919,37.51953Z"/>
  <path class="cls-1" d="M68,106h46a1,1,0,0,0,0-2H68a1,1,0,0,0,0,2Z"/>
  <path class="cls-1" d="M68,116h46a1,1,0,0,0,0-2H68a1,1,0,0,0,0,2Z"/>
  <path class="cls-1" d="M36.33105,118h-2a1.5,1.5,0,0,0,0,3h2a1.5,1.5,0,1,0,0-3Z"/>
  <path class="cls-1" d="M61.33105,140h-2a1.5,1.5,0,0,0,0,3h2a1.5,1.5,0,1,0,0-3Z"/>
  <path class="cls-1" d="M65,139.5v2a1.5,1.5,0,0,0,3,0v-2a1.5,1.5,0,0,0-3,0Z"/>
  <path class="cls-1" d="M65,131.5v2a1.5,1.5,0,0,0,3,0v-2a1.5,1.5,0,0,0-3,0Z"/>
  <path class="cls-1" d="M3,139.5v2a1.5,1.5,0,0,0,3,0v-2a1.5,1.5,0,0,0-3,0Z"/>
  <path class="cls-1" d="M3,129.5v2a1.5,1.5,0,0,0,3,0v-2a1.5,1.5,0,0,0-3,0Z"/>
  <path class="cls-1" d="M3,119.5v2a1.5,1.5,0,0,0,3,0v-2a1.5,1.5,0,0,0-3,0Z"/>
  <path class="cls-1" d="M52.99772,140h-2a1.5,1.5,0,0,0,0,3h2a1.5,1.5,0,1,0,0-3Z"/>
  <path class="cls-1" d="M36.33105,140h-2a1.5,1.5,0,0,0,0,3h2a1.5,1.5,0,1,0,0-3Z"/>
  <path class="cls-1" d="M44.66439,140h-2a1.5,1.5,0,0,0,0,3h2a1.5,1.5,0,0,0,0-3Z"/>
  <path class="cls-1" d="M44.66439,118h-2a1.5,1.5,0,0,0,0,3h2a1.5,1.5,0,0,0,0-3Z"/>
  <path class="cls-1" d="M13.33105,118h-2a1.5,1.5,0,0,0,0,3h2a1.5,1.5,0,1,0,0-3Z"/>
  <path class="cls-1" d="M13.33105,140h-2a1.5,1.5,0,0,0,0,3h2a1.5,1.5,0,1,0,0-3Z"/>
  <path class="cls-1" d="M21.66439,140h-2a1.5,1.5,0,1,0,0,3h2a1.5,1.5,0,0,0,0-3Z"/>
  <path class="cls-1" d="M21.66439,118h-2a1.5,1.5,0,1,0,0,3h2a1.5,1.5,0,0,0,0-3Z"/>
  <path class="cls-1" d="M34.66113,148.67676h-1.2207a3.60436,3.60436,0,0,1-2.00879-.6084l-2.20019-1.4668V134.957h4.76464a1.5,1.5,0,1,0,0-3H29.23145V112.98047l2.20019-1.4668a3.60669,3.60669,0,0,1,2.00879-.6084h1.2207a1.5,1.5,0,0,0,0-3h-1.2207a6.60179,6.60179,0,0,0-3.67285,1.11231L27.73145,110.375l-2.03614-1.35742a6.60176,6.60176,0,0,0-3.67285-1.11231H20.80078a1.5,1.5,0,0,0,0,3h1.22168a3.60669,3.60669,0,0,1,2.00879.6084l2.2002,1.4668V131.957H21.4668a1.5,1.5,0,0,0,0,3h4.76465v11.64453l-2.20118,1.46778a3.60568,3.60568,0,0,1-2.00781.60742H20.80078a1.5,1.5,0,0,0,0,3h1.22168a6.59,6.59,0,0,0,3.67285-1.11231l2.03614-1.35742,2.03515,1.35645a6.58879,6.58879,0,0,0,3.67383,1.11328h1.2207a1.5,1.5,0,1,0,0-3Z"/>
</svg>
