<svg id="production" xmlns="http://www.w3.org/2000/svg" width="180" height="160" viewBox="0 0 180 160">
  <defs>
    <style>
      .cls-1 {
        fill: #b3b3b3;
      }
    </style>
  </defs>
  <title>S_IlluNoSearchResults_180x160</title>
  <path class="cls-1" d="M62.5,104a1.50039,1.50039,0,0,0-1.5,1.5v15.91992A2.58276,2.58276,0,0,1,58.41992,124H14.58008A2.58276,2.58276,0,0,1,12,121.41992V84.58008A2.58276,2.58276,0,0,1,14.58008,82h18.04a1.77431,1.77431,0,0,1,1.248.51758l3.43116,3.43359H16.88281a1.5,1.5,0,1,0,0,3H41.14429A3.13868,3.13868,0,0,0,41.64355,89H48.5a1.5,1.5,0,0,0,0-3H42.75a1.49443,1.49443,0,0,0-.36133-.04883H41.541l-5.55079-5.55469A4.79782,4.79782,0,0,0,32.62012,79h-18.04A5.586,5.586,0,0,0,9,84.58008v36.83984A5.586,5.586,0,0,0,14.58008,127H58.41992A5.586,5.586,0,0,0,64,121.41992V105.5A1.50039,1.50039,0,0,0,62.5,104Z"/>
  <path class="cls-1" d="M110.54688,115.55957a1,1,0,0,0-1.71485,1.0293l10.54981,17.584a1,1,0,1,0,1.71484-1.0293Z"/>
  <path class="cls-1" d="M121.8623,82.43359a35.72627,35.72627,0,1,0-43.32519,25.99317,35.96292,35.96292,0,0,0,8.72949,1.08105,35.7688,35.7688,0,0,0,34.5957-27.07422Zm-42.59668,23.083A32.7269,32.7269,0,1,1,104.04,101.83008,32.76468,32.76468,0,0,1,79.26562,105.5166Z"/>
  <path class="cls-1" d="M114.90332,107.917a2.61342,2.61342,0,0,0-3.57715-.89258l-.07886.04737-1.552-2.5874a1,1,0,1,0-1.71484,1.02929l1.55176,2.58692-4.43116,2.6582-1.55224-2.58691a1,1,0,1,0-1.71485,1.02929l1.55225,2.58692-.20068.12011a2.60987,2.60987,0,0,0-.89453,3.57715l21.09472,35.16016a7.30569,7.30569,0,0,0,4.52246,3.35156,7.42745,7.42745,0,0,0,1.79688.22266,7.35674,7.35674,0,0,0,6.293-11.14161Zm19.0127,40.001a4.35462,4.35462,0,0,1-7.958,1.18457l-20.89258-34.82422,7.46777-4.48047,20.89258,34.82324A4.32551,4.32551,0,0,1,133.916,147.918Z"/>
  <path class="cls-1" d="M30.82031,47H58.5a1.5,1.5,0,0,0,0-3H30.82324a5.71984,5.71984,0,0,1-.50879-11.417,1.50035,1.50035,0,0,0,1.293-1.96192,8.81192,8.81192,0,0,1,11.751-10.89062,1.49958,1.49958,0,0,0,2.04394-1.07324,11.20361,11.20361,0,0,1,22.02735.63183,11.53956,11.53956,0,0,1,.03808,3.12207,1.4997,1.4997,0,0,0,.418,1.23828,1.48045,1.48045,0,0,0,1.23047.44043,6.662,6.662,0,0,1,1.05762-.05566,9.93754,9.93754,0,0,1,9.9375,9.916,1.49956,1.49956,0,0,0,1.5,1.49609h.0039a1.49978,1.49978,0,0,0,1.4961-1.50391A12.93795,12.93795,0,0,0,70.55566,21.04a14.753,14.753,0,0,0-.1582-2.18945,14.20483,14.20483,0,0,0-27.4873-2.42676A11.81477,11.81477,0,0,0,28.34766,29.9209,8.71883,8.71883,0,0,0,30.82031,47Z"/>
  <path class="cls-1" d="M135.54688,49.93555a1,1,0,0,0,.31152-1.9502l-20.17383-6.623a1,1,0,0,0-.623,1.9004l20.17383,6.623A.98916.98916,0,0,0,135.54688,49.93555Z"/>
  <path class="cls-1" d="M121.5752,50.4375l12.15136,4.03223a1.019,1.019,0,0,0,.31543.05078,1.0001,1.0001,0,0,0,.31543-1.94922l-12.15137-4.03223a1.00026,1.00026,0,0,0-.63085,1.89844Z"/>
  <path class="cls-1" d="M109.06543,39.86523a1.49331,1.49331,0,0,0,1.89258-.957l8.498-25.88476a2.6992,2.6992,0,0,1,3.40528-1.72168l19.65039,6.45117a3.09916,3.09916,0,0,1,1.8125,1.56152l3.958,7.86231a3.1,3.1,0,0,1,.17773,2.374l-9.1543,27.88281a2.69708,2.69708,0,0,1-3.40527,1.72168l-8.71387-2.86035a1.49963,1.49963,0,0,0-.93554,2.84961l8.71386,2.86035a5.69572,5.69572,0,0,0,7.19043-3.63574l9.1543-27.88281a6.07861,6.07861,0,0,0-.34766-4.65918l-3.958-7.86133a6.07736,6.07736,0,0,0-3.55567-3.0625L123.79688,8.45215a5.69572,5.69572,0,0,0-7.19043,3.63574l-8.498,25.88477A1.49878,1.49878,0,0,0,109.06543,39.86523Z"/>
  <path class="cls-1" d="M99.89551,60.96973a1.49946,1.49946,0,0,0-2.1211,0L87.14062,71.60352,76.50684,60.96973a1.49984,1.49984,0,0,0-2.1211,2.12109L85.01953,73.72461,74.38574,84.3584a1.49984,1.49984,0,1,0,2.1211,2.12109L87.14062,75.8457,97.77441,86.47949a1.49984,1.49984,0,0,0,2.1211-2.12109L89.26172,73.72461,99.89551,63.09082A1.49944,1.49944,0,0,0,99.89551,60.96973Z"/>
  <path class="cls-1" d="M152.542,85.54a4.43931,4.43931,0,0,0,3.40528.51953A4.5116,4.5116,0,1,0,152.542,85.54Zm1.69531-6.32324a2.44962,2.44962,0,0,1,.59571-.07325,2.53115,2.53115,0,0,1,.62988,4.97657,2.46759,2.46759,0,0,1-1.88281-.29,2.53271,2.53271,0,0,1,.65722-4.61328Z"/>
  <path class="cls-1" d="M147.06445,87.47559a2.34823,2.34823,0,0,0-1.45117,1.082l-2.06982,3.70019-8.314-5.17383a2.0829,2.0829,0,0,0-2.87109.71778l-2.09082,3.50683a1.00019,1.00019,0,1,0,1.71875,1.02344l2.09082-3.50683.10547-.03711,20.07422,12.49121a.99965.99965,0,0,0,1.05664-1.69727L145.2439,93.31592l2.10278-3.76123a.36284.36284,0,0,1,.45117-.11524l15.4082,9.4375a.99989.99989,0,0,0,1.04493-1.70507l-15.41211-9.44043A2.33384,2.33384,0,0,0,147.06445,87.47559Z"/>
  <path class="cls-1" d="M124.75586,97.27051a1.0004,1.0004,0,0,0,1.57617,1.23242,3.87713,3.87713,0,0,1,2.96826-1.56006,17.35983,17.35983,0,0,0-.604,10.06592.99969.99969,0,0,0,.9707.76562.9753.9753,0,0,0,.23535-.02832.99837.99837,0,0,0,.73731-1.206,15.32394,15.32394,0,0,1,.70312-9.3252,4.03165,4.03165,0,0,1,3.22461,1.62305,1.00055,1.00055,0,0,0,1.65625-1.12305,5.642,5.642,0,0,0-3.48242-2.31543,3.25148,3.25148,0,0,1,2.64746-.65039.99983.99983,0,0,0,.50977-1.93359,5.59371,5.59371,0,0,0-5.332,1.81543,6.49381,6.49381,0,0,0-2.09668-1.46289,1.00023,1.00023,0,1,0-.77149,1.8457c.084.03516.15991.07959.2395.12012A5.81741,5.81741,0,0,0,124.75586,97.27051Z"/>
  <path class="cls-1" d="M163.03711,70.90137a2.34593,2.34593,0,0,0-2.86914-1.66309l-34.55371,9.19238a1.49968,1.49968,0,0,0,.77148,2.89844l33.9209-9.02344,7.04688,26.49024L126.169,109.751l-4.293-16.13672a1.49968,1.49968,0,0,0-2.89844.77148l4.46094,16.76953a2.33848,2.33848,0,0,0,2.86816,1.66309l42.45117-11.292a2.343,2.343,0,0,0,1.66309-2.86817Z"/>
</svg>
