<svg id="production" xmlns="http://www.w3.org/2000/svg" width="280" height="192" viewBox="0 0 280 192">
  <defs>
    <style>
      .cls-1 {
        fill: #b3b3b3;
      }
    </style>
  </defs>
  <title>S_IlluEmptyStateCCFiles_280x192</title>
  <path class="cls-1" d="M83.53516,29.31445a1.47339,1.47339,0,0,0,.5205-.09375,103.86223,103.86223,0,0,1,38.31446-6.0664H139.794L134.82227,28.126a1.49984,1.49984,0,1,0,2.12109,2.12109l7.394-7.394a1.49363,1.49363,0,0,0,.60694-1.19873l-.002-.01953c0-.01368-.0039-.02735-.00415-.041a1.47888,1.47888,0,0,0-.0852-.437,1.39111,1.39111,0,0,0-.092-.20654,1.49758,1.49758,0,0,0-.1565-.23584,1.42416,1.42416,0,0,0-.09961-.14991l-7.65722-7.65722a1.49984,1.49984,0,1,0-2.1211,2.12109l5.126,5.126H122.40039a106.83981,106.83981,0,0,0-39.38574,6.2539,1.49981,1.49981,0,0,0,.52051,2.90625Z"/>
  <path class="cls-1" d="M243.51465,120.37012a2.05356,2.05356,0,0,1-1.1084-1.81543A2.04543,2.04543,0,0,1,246.208,117.502a1.50032,1.50032,0,1,0,2.56054-1.56445,5.04586,5.04586,0,0,0-9.3623,2.61719,5.02013,5.02013,0,0,0,.40991,1.9873l-10.04785,14.56934a76.44443,76.44443,0,0,0,2.99146-53.832,1.49948,1.49948,0,0,0-2.85938.90429,73.24382,73.24382,0,0,1-8.85083,62.53809H218.707a3.24417,3.24417,0,0,0-3.24023,3.24121v3.67676a3.1471,3.1471,0,0,0,.03662.36084c-14.83936,17.13769-37.14209,27.16406-63.13819,28.42041l4.89454-4.89453a1.49984,1.49984,0,0,0-2.1211-2.1211l-7.56152,7.56153a1.49946,1.49946,0,0,0,0,2.12109l7.6582,7.65723a1.49984,1.49984,0,1,0,2.1211-2.1211l-5.18775-5.187c23.31275-1.05859,43.7937-8.979,58.89819-22.62793l-9.95751,13.59863a5.12517,5.12517,0,1,0,1.65478,1.125l15.19336-20.749a3.21577,3.21577,0,0,0,.74951.09619h3.67774a3.24333,3.24333,0,0,0,3.24023-3.24023v-3.67676a3.21575,3.21575,0,0,0-.81982-2.1333l16.24731-23.55811a5.11166,5.11166,0,0,0,1.06372.75293,1.50007,1.50007,0,1,0,1.39844-2.65429Zm-42.45313,59.46875a2.03569,2.03569,0,0,1-1.10449,1.1123h-.001a2.04745,2.04745,0,1,1,1.10547-1.1123ZM222.625,151.63965a.24006.24006,0,0,1-.24023.24023H218.707a.24006.24006,0,0,1-.24023-.24023v-3.67676a.2409.2409,0,0,1,.24023-.24121h2.32813a1.4278,1.4278,0,0,0,1.39111.01709.23379.23379,0,0,1,.19873.22412Z"/>
  <path class="cls-1" d="M248.62109,119.32812a2.4388,2.4388,0,0,0-4.18066,1.707v30.95507a2.41224,2.41224,0,0,0,1.625,2.29883,2.48072,2.48072,0,0,0,.82812.14356,2.412,2.412,0,0,0,1.88184-.90723l7.55566-9.32812,12.28418,1.7705a2.43975,2.43975,0,0,0,2.08985-4.123Zm7.29493,21.77833a1.51155,1.51155,0,0,0-1.37989.54l-7.0957,8.75977V122.4082l19.96191,20.35352Z"/>
  <path class="cls-1" d="M164.0708,28.44287c0,7.85938,5.87134,12.9375,14.95776,12.9375a30.6355,30.6355,0,0,0,13.8816-3.187,2.21134,2.21134,0,0,0,1.28564-2.0874,1.97072,1.97072,0,0,0-.01562-.24854,24.713,24.713,0,0,1-.124-3.0957V17.22656c0-9.45361-5.46142-15.09717-14.60937-15.09717A25.09365,25.09365,0,0,0,168.67847,4.4209a2.0153,2.0153,0,0,0-.23194.13232,2.58259,2.58259,0,0,0-1.24048,2.22315v4.24951a2.33124,2.33124,0,0,0,2.33985,2.37256,2.45234,2.45234,0,0,0,.78174-.12793,1.96091,1.96091,0,0,0,.31958-.13867,16.59563,16.59563,0,0,1,7.894-1.84717c4.729,0,5.73462,2.66553,5.85815,4.53271-.73828-.02-1.65576-.03369-2.79272-.03369C170.79,15.78369,164.0708,20.63428,164.0708,28.44287Zm14.47046-19.1582a18.65541,18.65541,0,0,0-8.8479,2.08935.47023.47023,0,0,1-.14746.02442.3292.3292,0,0,1-.33985-.37256V6.77637a.62.62,0,0,1,.34815-.55762,22.99777,22.99777,0,0,1,9.89258-2.08936c8.91748,0,12.60937,5.85157,12.60937,13.09717V32.76172a26.239,26.239,0,0,0,.13965,3.34424c0,.13916,0,.20947-.13965.27881a28.70063,28.70063,0,0,1-13.02759,2.9956c-7.38452,0-12.95776-3.62256-12.95776-10.9375,0-7.38476,6.89673-10.65918,15.53589-10.65918,2.57764,0,4.04028.06983,4.80688.13916V16.251C186.41357,14.09131,185.36816,9.28467,178.54126,9.28467Z"/>
  <path class="cls-1" d="M171.78369,28.44287c0,3.13477,2.15967,6.19971,8.29028,6.19971a16.29021,16.29021,0,0,0,6.3396-1.1836V22.521a33.20867,33.20867,0,0,0-4.59814-.27881C175.05786,22.24219,171.78369,24.5415,171.78369,28.44287Zm12.62988,3.60645a15.026,15.026,0,0,1-4.3396.59326c-2.34912,0-6.29028-.54541-6.29028-4.19971,0-2.7876,2.70215-4.20068,8.03174-4.20068,1.022,0,1.886.03418,2.59814.08349Z"/>
  <path class="cls-1" d="M64.96875,113.01074a2.5922,2.5922,0,0,0-3.48437-.875L40.583,123.88965l-31.33545,8.998a2.58134,2.58134,0,0,0-1.55811,1.249,2.46228,2.46228,0,0,0-.1792,1.92383l10.75342,33.83984a2.59986,2.59986,0,0,0,3.1836,1.669l5.88037-1.68848,2.54638,4.0918a2.57427,2.57427,0,0,0,2.19141,1.21191,2.62631,2.62631,0,0,0,1.28906-.33887l24.33008-13.68213,18.96191-5.44482a2.58081,2.58081,0,0,0,1.55664-1.251,2.46194,2.46194,0,0,0,.17872-1.92187l-.81446-2.56348,5.416-3.0459a2.54056,2.54056,0,0,0,1.21484-1.57519,2.45846,2.45846,0,0,0-.29785-1.92871Zm-2.33789,1.92188,1.38623,2.22754-10.92651,3.13769ZM32.209,172.04785,30.3252,169.02l14.85131-4.26465ZM20.9917,168.5791,10.52539,135.64258l54.375-15.61524,9.43579,29.69287.00611.019,1.0249,3.22558ZM76.63916,147.062l-6.24585-19.65576,10.67993,17.16211Z"/>
  <path class="cls-1" d="M57.69336,137.4043a6.14688,6.14688,0,0,0,1.6875-.23633,5.86,5.86,0,0,0,3.59668-2.86426,5.57118,5.57118,0,0,0,.415-4.35059,6.07748,6.07748,0,0,0-7.45508-3.89062,5.86718,5.86718,0,0,0-3.59961,2.86523,5.57409,5.57409,0,0,0-.41406,4.35157A6.02677,6.02677,0,0,0,57.69336,137.4043ZM54.09961,129.876a3.87734,3.87734,0,0,1,2.38574-1.88965,4.15511,4.15511,0,0,1,1.14649-.16113,4.01119,4.01119,0,0,1,3.85254,2.72949,3.58573,3.58573,0,0,1-.26758,2.80078,3.88,3.88,0,0,1-2.38477,1.88867,4.05565,4.05565,0,0,1-5-2.56641A3.58424,3.58424,0,0,1,54.09961,129.876Z"/>
  <path class="cls-1" d="M72.96387,146.01855a.99961.99961,0,0,0-1.23731-.68457c-.73633.21143-1.5686.42481-2.45068.62989h-.00342l-.01.00293c-4.60254,1.06738-10.71557,1.87549-13.53784.668l-11.97754-6.22559a2.63493,2.63493,0,0,0-3.459,1.02441l-2.23584,4.25049L27.83594,140.3916a2.304,2.304,0,0,0-3.05371.88867l-2.248,3.99707a1.00042,1.00042,0,1,0,1.74414.98047l2.249-3.999a.29755.29755,0,0,1,.38868-.0918l15.7666,8.168a.99978.99978,0,0,0,.91992-1.77539L39.82788,146.604l2.218-4.21728a.62993.62993,0,0,1,.78027-.20215l12.044,6.25684a10.69367,10.69367,0,0,0,3.28589.71484l-12.87183,3.69629c-1.22168.35058-4.10449,1.334-4.49121,2.88867a1.37715,1.37715,0,0,0,.38867,1.35742c.36133.34864,1.46289,1.41114,8.33887-.56347a45.73213,45.73213,0,0,1,4.75586-1.13868,40.54925,40.54925,0,0,1-4.54492,1.55372l-1.9043.58007a3.7932,3.7932,0,0,0-2.376,1.53125,1.54908,1.54908,0,0,0-.11133,1.21289,1.00111,1.00111,0,0,0,.95313.69727.988.988,0,0,0,.30273-.04688,1.00045,1.00045,0,0,0,.69727-.9873,3.94509,3.94509,0,0,1,1.11719-.49414l1.88867-.5752c8.62012-2.47461,8.167-4.05468,7.99609-4.64843-.21191-.73828-.60644-2.10938-9.32715.39355a23.82936,23.82936,0,0,1-5.45215,1.08106,11.21831,11.21831,0,0,1,2.32129-.91993l23.98829-6.88867c.00732-.00195.0122-.00781.01928-.00976,1.37647-.32032,2.304-.582,2.43482-.62012A1.00011,1.00011,0,0,0,72.96387,146.01855Z"/>
  <path class="cls-1" d="M28.98047,146.73047a6.55712,6.55712,0,0,0-6.05371,2.36816,6.364,6.364,0,0,0-7.01221-1.39453,1.00029,1.00029,0,0,0,.80371,1.832,3.97978,3.97978,0,0,1,3.5044.09082,6.62664,6.62664,0,0,0-3.80274,2.55664.99962.99962,0,1,0,1.60254,1.19532,4.78254,4.78254,0,0,1,3.74268-1.96192,18.32242,18.32242,0,0,0-.2085,11.29981.99993.99993,0,0,0,.95606.708.97642.97642,0,0,0,.292-.04394.999.999,0,0,0,.66406-1.24805,16.332,16.332,0,0,1,.34595-10.50488,5.104,5.104,0,0,1,4.13354,1.69629,1.00007,1.00007,0,0,0,1.57227-1.23633,6.55941,6.55941,0,0,0-4.32739-2.36768,4.2372,4.2372,0,0,1,3.38891-1.03076.99954.99954,0,0,0,.39844-1.959Z"/>
  <path class="cls-1" d="M169.7207,147.91113a10.31477,10.31477,0,0,0,10.30274-10.30273V75.59961A11.13313,11.13313,0,0,0,178.0459,69.251a1.49961,1.49961,0,1,0-2.46875,1.70312,8.14688,8.14688,0,0,1,1.44629,4.64551V137.6084a7.31148,7.31148,0,0,1-7.30274,7.30273H111.33887a7.31359,7.31359,0,0,1-4.68262-1.69824,1.49956,1.49956,0,0,0-1.92383,2.30078,10.31289,10.31289,0,0,0,6.60645,2.39746Z"/>
  <path class="cls-1" d="M187,144.69727V82.68848a11.124,11.124,0,0,0-1.97754-6.34864,1.49989,1.49989,0,1,0-2.46875,1.70411A8.137,8.137,0,0,1,184,82.68848v62.00879A7.31149,7.31149,0,0,1,176.69727,152H118.31543a7.31365,7.31365,0,0,1-4.68262-1.69824,1.49956,1.49956,0,0,0-1.92383,2.30078A10.31289,10.31289,0,0,0,118.31543,155h58.38184A10.31476,10.31476,0,0,0,187,144.69727Z"/>
  <path class="cls-1" d="M163.6709,142A10.341,10.341,0,0,0,174,131.6709V69.4668a11.13987,11.13987,0,0,0-3.29-7.93457L157.43555,48.27832A11.13848,11.13848,0,0,0,149.51367,45H105.3291a10.359,10.359,0,0,0-9.95215,7.55469,1.50027,1.50027,0,0,0,2.89063.80469A7.34917,7.34917,0,0,1,105.3291,48h44.18457a8.15929,8.15929,0,0,1,5.80274,2.40137l13.27343,13.2539A8.157,8.157,0,0,1,171,69.4668v62.2041A7.33775,7.33775,0,0,1,163.6709,139H105.3291A7.33775,7.33775,0,0,1,98,131.6709V62.5a1.49975,1.49975,0,0,0-1.21729-1.47168l-4.23486-8.27441a1.49224,1.49224,0,0,0-.206-.30469l-3.92139-4.47949a4.78124,4.78124,0,0,0,3.3208-1.667c1.1084-1.39648,1.41113-3.81445-1.06055-6.41211C86.04883,35.02246,81.14844,30.31348,74.793,24.624a36.56662,36.56662,0,0,0-8.38867-5.7041,17.76326,17.76326,0,0,0-4.4541-1.30664c-.03687-.00635-.07276-.0039-.10938-.00732L50.26855,4.38574a4.03523,4.03523,0,1,0-6.07617,5.31153l7.31787,8.35986a34.07048,34.07048,0,0,0-8.18115,2.87744c-2.07129,1.05859-4.10351,2.249-6.06836,3.39941C33.16406,26.7334,29.29492,29,24.9707,30.2666a1.5,1.5,0,0,0,.84375,2.87891c4.67774-1.3711,8.88965-3.83692,12.96289-6.22266,1.92774-1.12988,3.92188-2.29687,5.917-3.3164a31.27673,31.27673,0,0,1,9.1123-2.92627l8.353,9.54248A9.378,9.378,0,0,0,57.042,32.35449l-.82812.57422a19.31043,19.31043,0,0,0-4.92334,4.31055A32.08472,32.08472,0,0,1,47.28027,36.043a1.49982,1.49982,0,0,0-1.05859,2.80664c6.373,2.40332,13.21,2.61719,19.82227,2.82422a104.03062,104.03062,0,0,1,11.38281.77148c1.61816.23242,3.25488.98242,3.19336,1.83594-.03955.54883-.77808,1.08936-2.04541,1.5249l-.00635.00244c-.228.07813-.46777.15381-.72949.22461a391.18915,391.18915,0,0,1-47.665,9.71094,1.49971,1.49971,0,1,0,.41406,2.9707q6.42993-.89648,12.85523-2.0166a76.2456,76.2456,0,0,0-9.617,65.71094,1.49948,1.49948,0,1,0,2.85938-.9043A73.22484,73.22484,0,0,1,47.666,55.93994c10.39257-1.92041,20.72827-4.25488,30.88525-6.99219l7.71435,8.813a1.53687,1.53687,0,0,0,.27247.24317L95,63.89062V131.6709A10.341,10.341,0,0,0,105.3291,142ZM72.792,26.8584c6.29395,5.63476,11.14063,10.292,15.71485,15.10058.36523.38282,1.50683,1.69532.88476,2.4795-.47949.60449-1.96289.96191-3.5.05957a1.47032,1.47032,0,0,0-.166-.084c-.23682-.10254-.469-.21386-.70142-.32422l-19.478-22.25146A35.04019,35.04019,0,0,1,72.792,26.8584ZM46.19727,6.97168a1.0246,1.0246,0,0,1,.35253-.71,1.03684,1.03684,0,0,1,1.46094.09961l28.88989,33.0039q-1.50623-.189-3.02148-.31054L67.772,32.07812c-.01513-.019-.032-.03613-.04785-.05468l-12.20141-13.938-.01685-.019L46.4502,7.72168A1.02815,1.02815,0,0,1,46.19727,6.97168ZM54.6958,37.88184a25.06434,25.06434,0,0,1,3.21826-2.48145c.28809-.19824.57324-.39453.85254-.59082,2.01953-1.41992,3.35352-2.35645,6.667-.71.07276.03613.14453.07373.2168.11084l4.01953,4.5918c-1.18457-.04932-2.36523-.09082-3.53222-.12745A101.05725,101.05725,0,0,1,54.6958,37.88184ZM88.40234,55.64648l-6.92016-7.90625A4.90771,4.90771,0,0,0,82.981,46.31152l.00219.002,6.97876,7.97265L91.90527,58.083Z"/>
  <path class="cls-1" d="M145.78516,76.291a9.85536,9.85536,0,0,1-1.54273,13.75878A9.62858,9.62858,0,0,1,131.3396,89.311l-5.6665-5.73877a1.06268,1.06268,0,0,0-1.51026-.0835,1.08709,1.08709,0,0,0-.08276,1.5249c.01953.02246.04028.04395.06177.06445l5.69458,5.76807a11.75637,11.75637,0,0,0,16.739-.0083,12.03267,12.03267,0,0,0-.00806-16.90088,11.75474,11.75474,0,0,0-16.4519-.27246,11.6442,11.6442,0,0,1,2.04272,1.06885A9.63465,9.63465,0,0,1,145.78516,76.291Z"/>
  <path class="cls-1" d="M125.76562,94.35107h4.99659a14.03621,14.03621,0,0,1-2.63111-2.15234h-2.363a7.50816,7.50816,0,0,1,0-15.01562,7.04576,7.04576,0,0,1,4.87231,1.84521l4.30591,4.46045a1.06157,1.06157,0,0,0,1.51172.02,1.08675,1.08675,0,0,0,.01953-1.52637l-4.30225-4.46826a9.20941,9.20941,0,0,0-6.41455-2.48926,9.60971,9.60971,0,0,0-9.56567,9.65332v.00635l.00122.00732A9.6141,9.6141,0,0,0,125.76562,94.35107Z"/>
  <path class="cls-1" d="M125.67676,99.12305h11.42578c1.70508,0,3.72607-.21631,3.81006-.22608a16.73925,16.73925,0,0,0-2.65552-33.22656,16.40665,16.40665,0,0,0-11.30249,4.50879l-.18042.16943q-.54822-.04027-1.09644-.04052a14.40814,14.40814,0,0,0-.001,28.81494ZM125.67065,71.917a13.09057,13.09057,0,0,1,1.65894.10547l.70776-.66894a14.83058,14.83058,0,0,1,10.21973-4.07422,15.12689,15.12689,0,0,1,2.48755,30.01855s-2.00513.2168-3.64111.2168H125.67773a12.80125,12.80125,0,0,1-.00708-25.59766Z"/>
  <path class="cls-1" d="M111,114a.99943.99943,0,0,0,1,1h46a1,1,0,0,0,0-2H112A.99943.99943,0,0,0,111,114Z"/>
  <path class="cls-1" d="M112,124h46a1,1,0,0,0,0-2H112a1,1,0,0,0,0,2Z"/>
  <path class="cls-1" d="M206.17871,58.61035a1.50059,1.50059,0,0,0,1.8877-.96777,9.71413,9.71413,0,0,1,8.46972-6.69922,9.59854,9.59854,0,0,1,4.376.71,1.49906,1.49906,0,0,0,2.043-1.07324,12.18853,12.18853,0,0,1,23.96387.68652,12.57974,12.57974,0,0,1,.043,3.39746,1.50123,1.50123,0,0,0,.417,1.23633,1.52989,1.52989,0,0,0,1.22656.44238,11.09427,11.09427,0,0,1,1.13086-.06054h.02441a10.8375,10.8375,0,0,1,10.8252,10.79687c0,3.85254-1.5625,6.6709-4.64551,8.376A13.30471,13.30471,0,0,1,250.665,77l-43.37109.00293a6.142,6.142,0,0,1-4.667-1.49414,5.00071,5.00071,0,0,1-1.54687-3.74512,6.28191,6.28191,0,0,1,.74121-2.97558,1.50035,1.50035,0,1,0-2.64453-1.418,9.29876,9.29876,0,0,0-1.09668,4.39941,8.02776,8.02776,0,0,0,2.49707,5.92871,8.9197,8.9197,0,0,0,6.14746,2.32324c.21973,0,.44238-.00683.665-.02148H250.665c3.35254,0,12.9209-2.374,12.9209-12.9248a13.84157,13.84157,0,0,0-13.5293-13.79,15.8708,15.8708,0,0,0-.16894-2.45606A15.19033,15.19033,0,0,0,220.459,48.33789a12.53209,12.53209,0,0,0-4.12988-.38672,12.73665,12.73665,0,0,0-11.11816,8.77149A1.49977,1.49977,0,0,0,206.17871,58.61035Z"/>
  <path class="cls-1" d="M196.48047,65.81836h27.11182l-4.06885,4.08887a1.49984,1.49984,0,1,0,2.12695,2.11523l6.6416-6.67383a1.50034,1.50034,0,0,0-.00488-2.12109l-6.67285-6.6416a1.50053,1.50053,0,1,0-2.11719,2.127l4.12549,4.10547H196.48047a1.5,1.5,0,0,0,0,3Z"/>
</svg>
