<svg id="production" xmlns="http://www.w3.org/2000/svg" width="160" height="160" viewBox="0 0 160 160">
  <defs>
    <style>
      .cls-1 {
        fill: #b3b3b3;
      }
    </style>
  </defs>
  <title>S_IlluEmptyFolder_160</title>
  <path class="cls-1" d="M83.5,85a1.5,1.5,0,0,0,0,3h22.54834A4.9567,4.9567,0,0,1,111,92.95117V96.5a1.5,1.5,0,0,0,3,0V92.95117A7.96,7.96,0,0,0,106.04834,85Z"/>
  <path class="cls-1" d="M125.07715,100H55.96777a6.23689,6.23689,0,0,0-5.98486,4.41016L38.853,140.30371A2.47282,2.47282,0,0,1,37.2041,141.917a3.08782,3.08782,0,0,1-2.83008-.7373,1.15455,1.15455,0,0,1-.374-.90235V79.73047A2.73353,2.73353,0,0,1,36.73047,77H54.72559a3.63362,3.63362,0,0,1,2.59033,1.07422L63.65576,84.419a1.50019,1.50019,0,1,0,2.12207-2.1211L59.43848,75.9541A6.61694,6.61694,0,0,0,54.72559,74H36.73047A5.7368,5.7368,0,0,0,31,79.73047v60.54687a4.11656,4.11656,0,0,0,1.48877,3.23633,6.41013,6.41013,0,0,0,4.01074,1.50586,5.47165,5.47165,0,0,0,5.21485-3.81445l11.13378-35.90625A3.251,3.251,0,0,1,55.96777,103h69.10938A3.74151,3.74151,0,0,1,128.584,108.044l-11.08544,30.31152A5.57052,5.57052,0,0,1,112.28467,142H45.5a1.5,1.5,0,0,0,0,3h66.78467a8.58083,8.58083,0,0,0,8.03125-5.61426l11.08349-30.30566A6.74061,6.74061,0,0,0,125.07715,100Z"/>
  <path class="cls-1" d="M67.22314,83.43359a5.06918,5.06918,0,0,0,6.49122,3.03028l28.90673-10.5a5.06779,5.06779,0,0,0,3.03174-6.4961l-2.19433-6.02832a1.5,1.5,0,0,0-2.81934,1.02539l2.19434,6.02832a2.06708,2.06708,0,0,1-1.23682,2.65039l-28.90625,10.5a2.06942,2.06942,0,0,1-2.648-1.23535L54.38525,39.3916a2.07024,2.07024,0,0,1,1.23536-2.65039l10.47851-3.81348a1.49971,1.49971,0,1,0-1.02637-2.81835L54.59424,33.92285A5.07274,5.07274,0,0,0,51.56592,40.417Z"/>
  <path class="cls-1" d="M74.5293,75.56055A.99757.99757,0,0,0,74.87109,75.5L94.687,68.28809a.9997.9997,0,1,0-.68359-1.87891L74.1875,73.62109a.99989.99989,0,0,0,.3418,1.93946Z"/>
  <path class="cls-1" d="M82.30762,63.60938a1.00139,1.00139,0,0,0-1.293-.57227l-9.38086,3.625a.99981.99981,0,1,0,.7207,1.86523l9.38086-3.625A.99981.99981,0,0,0,82.30762,63.60938Z"/>
  <path class="cls-1" d="M77.9165,51.5h24a1,1,0,0,0,0-2h-24a1,1,0,1,0,0,2Z"/>
  <path class="cls-1" d="M77.9165,43.5h24a1,1,0,0,0,0-2h-24a1,1,0,0,0,0,2Z"/>
  <path class="cls-1" d="M74.73926,61h30.52148A5.68973,5.68973,0,0,0,111,55.374V22.65234a5.53083,5.53083,0,0,0-1.68848-3.98535l-7.19384-7.02637A5.8383,5.8383,0,0,0,98.06689,10H74.73926A5.68973,5.68973,0,0,0,69,15.626V55.374A5.68973,5.68973,0,0,0,74.73926,61ZM72,15.626A2.68739,2.68739,0,0,1,74.73926,13H98.06689a2.81692,2.81692,0,0,1,1.95459.78711l7.19434,7.02637A2.55464,2.55464,0,0,1,108,22.65234V55.374A2.68739,2.68739,0,0,1,105.26074,58H74.73926A2.68739,2.68739,0,0,1,72,55.374Z"/>
</svg>
