<svg id="production" xmlns="http://www.w3.org/2000/svg" width="120" height="80" viewBox="0 0 120 80">
  <defs>
    <style>
      .cls-1 {
        fill: #b3b3b3;
      }
    </style>
  </defs>
  <title>S_IlluNoInternetConnection_120x80</title>
  <path class="cls-1" d="M95.7251,29.06738c-.61328-.02734-1.229-.03222-1.84229-.01465a27.061,27.061,0,0,0-.04345-3.70019,26.46276,26.46276,0,0,0-51.83643-5.03027,21.63217,21.63217,0,0,0-4.752-.97168,1.50016,1.50016,0,0,0-.26856,2.98828,18.61289,18.61289,0,0,1,5.498,1.35644,1.50026,1.50026,0,0,0,2.04394-1.07226,23.46114,23.46114,0,0,1,46.32471,2.96972,23.994,23.994,0,0,1-.10644,4.88868,1.499,1.499,0,0,0,1.647,1.67773,20.98665,20.98665,0,0,1,23.1709,19.55176A20.98077,20.98077,0,0,1,94.67236,74H17.29248a12.07572,12.07572,0,0,1-8.90723-4.14551,14.34763,14.34763,0,0,1-3.78466-9.51367c-.0201-9.10874,9.04314-11.71906,11.561-11.94043a1.5,1.5,0,0,0,1.29346-1.96289,18.75619,18.75619,0,0,1-.84278-3.99414,1.5,1.5,0,1,0-2.98535.29687,21.73126,21.73126,0,0,0,.49512,2.93067c-.10012.02049-12.54926,2.4364-12.52148,14.67578a17.3812,17.3812,0,0,0,4.57177,11.5332A15.03441,15.03441,0,0,0,17.28906,77H94.67578a23.97993,23.97993,0,0,0,23.87891-25.4707A24.18933,24.18933,0,0,0,95.7251,29.06738Z"/>
  <path class="cls-1" d="M10.36719,35.06738a1.49943,1.49943,0,0,0,2.12109,0l7.02222-7.022,7.02221,7.022a1.49984,1.49984,0,0,0,2.1211-2.12109l-7.02222-7.022,7.02222-7.022a1.49984,1.49984,0,1,0-2.1211-2.12109l-7.02221,7.022-7.02222-7.022a1.49984,1.49984,0,1,0-2.12109,2.12109l7.02221,7.022-7.02221,7.022A1.49944,1.49944,0,0,0,10.36719,35.06738Z"/>
</svg>
