<svg xmlns="http://www.w3.org/2000/svg" width="18" height="18" viewBox="0 0 18 18">
  <path fill="#707070" d="M9,1 C4.581722,1 1,4.581722 1,9 C1,13.418278 4.581722,17 9,17 C13.418278,17 17,13.418278 17,9 C17,4.581722 13.418278,1 9,1 Z M14,9.5 C14.0159674,9.7597385 13.8186988,9.98339903 13.559,10 L10,10 L10,13.5 C10.0159674,13.7597385 9.81869877,13.983399 9.559,14 L8.5,14 C8.23989488,14.0159552 8.01607428,13.8180978 8,13.558 C8,13.538 8,13.52 8,10 L4.5,10 C4.23989488,10.0159552 4.01607428,9.81809778 4,9.558 C4,9.539 4,9.519 4,8.5 C3.98403264,8.2402615 4.18130123,8.01660097 4.441,8 L8,8 L8,4.5 C7.98403264,4.2402615 8.18130123,4.01660097 8.441,4 L9.5,4 C9.76010512,3.9840448 9.98392572,4.18190222 10,4.442 C10,4.461 10,4.481 10,8 L13.5,8 C13.7601051,7.9840448 13.9839257,8.18190222 14,8.442 C14,8.461 14,8.481 14,9.5 Z"/>
</svg>
