<svg xmlns="http://www.w3.org/2000/svg" width="18" height="18" viewBox="0 0 18 18"><g fill="#707070" transform="translate(1 1)"><path d="M15.5,8 L14.5,8 C14.2238576,8 14,8.22385763 14,8.5 L14,14 L2,14 L2,2 L7.5,2 C7.77614237,2 8,1.77614237 8,1.5 L8,0.5 C8,0.223857625 7.77614237,0 7.5,0 L0.5,0 C0.223857625,0 0,0.223857625 0,0.5 L0,15.5 C0,15.7761424 0.223857625,16 0.5,16 L15.5,16 C15.7761424,16 16,15.7761424 16,15.5 L16,8.5 C16,8.22385763 15.7761424,8 15.5,8 Z"/><path d="M15.752,0 L10.377,0 C10.1651159,0.0122032327 9.99964887,0.187765104 10,0.4 C10.0002029,0.505378899 10.0427178,0.606261644 10.118,0.68 L12.011,2.573 L8.489,6.1 C8.29380903,6.29524993 8.29380903,6.61175007 8.489,6.807 L9.197,7.514 C9.39224993,7.70919097 9.70875007,7.70919097 9.904,7.514 L13.425,3.993 L15.318,5.886 C15.392888,5.96031088 15.4945088,6.00139165 15.6,6 C15.8122349,6.00035113 15.9877968,5.83488406 16,5.623 L16,0.248 C15.9994519,0.111261039 15.888739,0.000548058543 15.752,0 Z"/></g></svg>