<svg xmlns="http://www.w3.org/2000/svg" width="18" height="18" viewBox="0 0 18 18">
  <g fill="none" fill-rule="evenodd">
    <path fill="#707070 " fill-rule="nonzero" d="M15.1326 2.1709C14.4014 2.1734 13.6694 2.2549 12.9563 2.4146 12.6423 2.4746 12.3381 2.2705 12.2781 1.9571 12.2693 1.919 12.2661 1.8794 12.2661 1.8408L12.2661 1.1641C12.271.7915 12.0171.4644 11.6558.376 10.915.2105 10.1582.1275 9.3997.1275 7.5845.125 5.5388.8741 3.9746 1.7969L3.9746 9.8242C5.5396 8.9009 7.5881 8.1538 9.4043 8.1597 9.7195 8.168 9.9712 8.4268 9.9712 8.7412L9.9712 10.2798C9.9719 10.7266 10.3337 11.0894 10.7815 11.0884 10.8992 11.0884 11.0154 11.063 11.1223 11.0132 12.991 10.2173 15.0527 9.9966 17.0474 10.3784 17.4814 10.4615 17.9028 10.1763 17.9858 9.7412 17.9954 9.6914 18 3.2066 18 3.2066 18.0046 2.8345 17.7517 2.5078 17.3896 2.4195 16.6489 2.2539 15.8909 2.1704 15.1326 2.1709zM1.4048.0303L2.5986.0303C2.8218.0303 3.0034.2115 3.0034.4351L3.0034 16.6255C3.0034 16.8491 2.8218 17.0303 2.5986 17.0303L1.4048 17.0303C1.1814 17.0303 1 16.8491 1 16.6255L1 .4351C1 .2115 1.1814.0303 1.4048.0303z"/>
  </g>
</svg>
