<svg xmlns="http://www.w3.org/2000/svg" width="18" height="18" viewBox="0 0 18 18">
  <g fill="none" fill-rule="evenodd">
    <polygon fill="#707070" fill-rule="nonzero" points="16.136 18 17 18 17 0 16.136 0"/>
    <path fill="#707070" fill-rule="nonzero" d="M6.027,11.5 L4.614,15.625 C4.6099824,15.6617728 4.59147272,15.6954274 4.56256881,15.718513 C4.5336649,15.7415986 4.49675119,15.7522107 4.46,15.748 L3.123,15.748 C3.023,15.748 2.986,15.686 3.005,15.585 L7.283,3.185 C7.38090856,2.91707724 7.42771717,2.63317288 7.421,2.348 C7.42057146,2.29747407 7.4579008,2.25456679 7.508,2.248 L9.441,2.248 C9.52,2.248 9.541,2.268 9.558,2.348 L14.168,15.603 C14.207,15.685 14.188,15.746 14.089,15.746 L12.6,15.746 C12.5327372,15.7458143 12.4716059,15.7068771 12.443,15.646 L11.011,11.5 L6.027,11.5 Z M10.559,9.928 C10.127,8.601 8.892,5.028 8.518,3.637 L8.498,3.637 C8.165,4.948 7.223,7.682 6.478,9.928 L10.559,9.928 Z"/>
    <path fill="#707070" fill-rule="nonzero" d="M6.027,11.5 L4.614,15.625 C4.6099824,15.6617728 4.59147272,15.6954274 4.56256881,15.718513 C4.5336649,15.7415986 4.49675119,15.7522107 4.46,15.748 L3.123,15.748 C3.023,15.748 2.986,15.686 3.005,15.585 L7.283,3.185 C7.38090856,2.91707724 7.42771717,2.63317288 7.421,2.348 C7.42057146,2.29747407 7.4579008,2.25456679 7.508,2.248 L9.441,2.248 C9.52,2.248 9.541,2.268 9.558,2.348 L14.168,15.603 C14.207,15.685 14.188,15.746 14.089,15.746 L12.6,15.746 C12.5327372,15.7458143 12.4716059,15.7068771 12.443,15.646 L11.011,11.5 L6.027,11.5 Z M10.559,9.928 C10.127,8.601 8.892,5.028 8.518,3.637 L8.498,3.637 C8.165,4.948 7.223,7.682 6.478,9.928 L10.559,9.928 Z"/>
  </g>
</svg>
