<svg id="production" xmlns="http://www.w3.org/2000/svg" width="288" height="192" viewBox="0 0 288 192">
  <defs>
    <style>
      .cls-1 {
        fill: #b3b3b3;
      }
    </style>
  </defs>
  <title>S_IlluEmptyStateFillSign_280x192</title>
  <path class="cls-1" d="M243.38574,137.165l-4.29053,3.99414A17.11433,17.11433,0,1,0,211.4873,161.3916c-13.49194,9.30371-30.25659,14.65039-48.71484,15.5459l4.88574-4.88574a1.49984,1.49984,0,0,0-2.12109-2.1211l-7.56055,7.56055a1.49944,1.49944,0,0,0,0,2.12109l7.65723,7.65821a1.49984,1.49984,0,1,0,2.12109-2.1211l-5.2-5.20068c19.2981-.877,36.84644-6.48144,50.93994-16.29492a17.0722,17.0722,0,0,0,21.17993,1.83154c5.00489-3.30078,7.88868-8.96484,7.91114-15.54a1.49977,1.49977,0,0,0-1.49512-1.50488h-.00488a1.5,1.5,0,0,0-1.5,1.49512c-.01953,5.63379-2.35059,10.2666-6.56348,13.04492a14.13223,14.13223,0,1,1,3.85425-19.75586l-12.89819,12.00781a.12344.12344,0,0,1-.16309-.00195l-5.35645-4.95606a1.49958,1.49958,0,0,0-2.0371,2.20118l5.35644,4.957a3.09925,3.09925,0,0,0,2.11035.83008,3.16857,3.16857,0,0,0,2.10742-.81055l19.43457-18.0918a1.50009,1.50009,0,1,0-2.04492-2.19531Z"/>
  <path class="cls-1" d="M60.91016,48.07422a1.49923,1.49923,0,0,0,1.124-.50488A79.12354,79.12354,0,0,1,91.56055,26.876c12.36914-5.0791,26.22265-7.49317,41.209-7.19727h17.4231l-4.971,4.97168a1.49984,1.49984,0,1,0,2.12109,2.12109l7.39307-7.394a1.49294,1.49294,0,0,0,.60693-1.19873l-.00195-.01953c0-.01367-.00391-.02734-.00415-.041a1.479,1.479,0,0,0-.08521-.437,1.391,1.391,0,0,0-.092-.20654,1.49683,1.49683,0,0,0-.15649-.23584,1.4256,1.4256,0,0,0-.09961-.1499l-7.65723-7.65723a1.49984,1.49984,0,1,0-2.12109,2.12109l5.126,5.126H132.7998c-15.377-.2998-29.627,2.18555-42.37792,7.42188A82.12417,82.12417,0,0,0,59.78809,45.5791a1.5,1.5,0,0,0,1.12207,2.49512Z"/>
  <path class="cls-1" d="M181.67871,143.752a10.5044,10.5044,0,0,0,10.49219-10.49218V69.918a11.33809,11.33809,0,0,0-2.01465-6.46777,1.49961,1.49961,0,1,0-2.46875,1.70312,8.35421,8.35421,0,0,1,1.4834,4.76465v63.3418a7.50112,7.50112,0,0,1-7.49219,7.49218H122.041a7.49737,7.49737,0,0,1-4.80274-1.74218,1.50018,1.50018,0,0,0-1.92578,2.30078,10.50381,10.50381,0,0,0,6.72852,2.4414Z"/>
  <path class="cls-1" d="M198.35742,139.44727V76.10449a11.33687,11.33687,0,0,0-2.01367-6.46679,1.49961,1.49961,0,1,0-2.46875,1.70312,8.35517,8.35517,0,0,1,1.48242,4.76367v63.34278a7.50028,7.50028,0,0,1-7.49121,7.49218H128.22852a7.49737,7.49737,0,0,1-4.80274-1.74218A1.50018,1.50018,0,0,0,121.5,147.49805a10.50381,10.50381,0,0,0,6.72852,2.4414h59.63769A10.50356,10.50356,0,0,0,198.35742,139.44727Z"/>
  <path class="cls-1" d="M175.66992,137.01855a10.50356,10.50356,0,0,0,10.49219-10.49121V63.18457a11.46971,11.46971,0,0,0-3.35352-8.07227l-13.5664-13.50683a11.31745,11.31745,0,0,0-8.03711-3.31934H116.0332A10.5044,10.5044,0,0,0,105.541,48.77832v77.749a10.50356,10.50356,0,0,0,10.49218,10.49121ZM108.541,126.52734v-77.749a7.50111,7.50111,0,0,1,7.49218-7.49219h45.17188a8.33408,8.33408,0,0,1,5.91992,2.44532L180.69141,57.2373a8.44906,8.44906,0,0,1,2.4707,5.94727v63.34277a7.50028,7.50028,0,0,1-7.49219,7.49121H116.0332A7.50028,7.50028,0,0,1,108.541,126.52734Z"/>
  <path class="cls-1" d="M128.54346,96.80908c4.15014,0,8.48974-6.55517,10.74145-10.52978,1.67066-.56885,3.38135-1.08106,5.08032-1.52686,1.92872-.50244,3.7566-.90185,5.43506-1.18848a15.4755,15.4755,0,0,0,10.14038,4.43848c2.36866,0,3.228-.95849,3.53492-1.76123a2.48448,2.48448,0,0,0,.15918-.90576,2.67875,2.67875,0,0,0-.65577-1.78369c-1.13379-1.21045-3.47607-1.83789-6.77075-1.83789a38.39071,38.39071,0,0,0-6.00635.53027,28.69508,28.69508,0,0,1-3.63159-4.1416,36.52372,36.52372,0,0,1-2.25146-3.49268,32.29078,32.29078,0,0,0,1.9104-9.34521c0-2.56641-.98462-5.31006-3.75049-5.31006a2.623,2.623,0,0,0-2.1709,1.271c-1.27319,2.16894-.66772,6.92822,1.48291,11.61523-.80713,2.36035-1.65454,4.604-2.68335,7.05127a61.82583,61.82583,0,0,1-3.06079,6.25439c-6.35522,2.50391-10.24707,5.26368-10.69311,7.57569a2.3797,2.3797,0,0,0,.76879,2.2539A3.57038,3.57038,0,0,0,128.54346,96.80908Zm30.42871-13.6709c.75879.15723,1.99145.6333,1.71289,2.05616-.15918.833-1.00879,1.37353-2.18091,1.37353a4.1241,4.1241,0,0,1-.95019-.11279,15.30562,15.30562,0,0,1-6.14136-3.15723A23.95839,23.95839,0,0,1,158.97217,83.13818ZM141.3811,61.855h-.008a1.25821,1.25821,0,0,1,1.06543-.668c1.14184,0,1.386,1.2876,1.38989,2.36865a28.37465,28.37465,0,0,1-1.46655,7.49317C140.667,66.7959,140.564,63.24316,141.3811,61.855Zm.6355,18.89844c.64966-1.54932,1.25488-3.09278,1.77759-4.59424.57886.9585,1.16211,1.83643,1.77124,2.67139A31.68159,31.68159,0,0,0,148.5918,82.416h-.01l.095.09472c-1.50122.28223-3.05078.63574-4.61817,1.05127-1.26318.32666-2.54834.69776-3.90625,1.13379C140.85254,83.3623,141.49219,82.01025,142.0166,80.75342ZM126.57837,93.9541c.31665-1.65234,3.5227-3.93994,8.43335-6.04248-2.82471,4.6084-5.57056,7.439-7.241,7.439a1.18628,1.18628,0,0,1-1.19238-1.39649Z"/>
  <path class="cls-1" d="M121.59668,108.75488h47.01074a1,1,0,0,0,0-2H121.59668a1,1,0,0,0,0,2Z"/>
  <path class="cls-1" d="M121.59668,118.36328h47.01074a1,1,0,0,0,0-2H121.59668a1,1,0,0,0,0,2Z"/>
  <path class="cls-1" d="M79.96484,138.90039a21.48693,21.48693,0,0,0-16.20068,7.38525,73.1969,73.1969,0,0,1-18.03955-33.144A1.44771,1.44771,0,0,0,45.67505,113H81a1,1,0,0,0,0-2H15a1,1,0,0,0,0,2H42.85278a1.488,1.488,0,0,0-.04419.84473A76.19879,76.19879,0,0,0,61.668,148.43652a1.50485,1.50485,0,0,0,.27881.22608,21.53548,21.53548,0,1,0,18.01806-9.76221Zm0,40.09961a18.54981,18.54981,0,1,1,18.54981-18.5498A18.57066,18.57066,0,0,1,79.96484,179Z"/>
  <path class="cls-1" d="M87.57031,168.15137a.834.834,0,0,0-.07568-.05225.93762.93762,0,0,0-.15674-.10889.94946.94946,0,0,0-.18286-.084.97631.97631,0,0,0-.16724-.03613c-.02929-.00391-.05688-.01709-.08618-.01856a3.51973,3.51973,0,0,0,.75659-.751c1.37207-1.92383,1.70313-7.33692,1.71582-7.56739a22.743,22.743,0,0,0-2.06445-10.65527c-2.29687-5.54785-8.415-5.99707-12.02344-4.54785-4.97461,1.998-6.86816,6.55176-6.125,9.82129.24878,1.09424.46509,1.86621.647,2.42578a2.26637,2.26637,0,0,0-1.41944,1.71191,4.01026,4.01026,0,0,0,.793,2.90625c.43164.625,1.96,2.69824,3.50488,3.15235a2.27849,2.27849,0,0,0,.65235.09863,1.86837,1.86837,0,0,0,.85132-.207.98993.98993,0,0,0-.10914.70019l.25391,1.11914a3.53134,3.53134,0,0,1-.873,2.86817.99445.99445,0,0,0-.26416.82275.99582.99582,0,0,0-.75341-.05029c-.209.06933-.28711.0957-4.291,3.27246a1.00019,1.00019,0,0,0,1.24414,1.56641c1.61987-1.28565,3.44238-2.71778,3.82764-2.99707a.98188.98188,0,0,0,.31689.85644l4.42578,3.88086a1.00157,1.00157,0,0,0,.65918.248.84339.84339,0,0,0,.08594-.00391.99952.99952,0,0,0,.69238-.36816l1.91748-2.376,1.98877,2.3877a1.00015,1.00015,0,0,0,.75684.36035h.01172a.99971.99971,0,0,0,.75293-.3418l3.791-4.335a.98226.98226,0,0,0,.23047-.61084,15.29219,15.29219,0,0,0,2.12207.70752l2.0791.65332a1.00009,1.00009,0,1,0,.59961-1.9082l-2.14355-.6709A9.91212,9.91212,0,0,1,87.57031,168.15137Zm-13.82617,2.60449a.97833.97833,0,0,0-.00879-.24854.94691.94691,0,0,0,.10645.0542l.249.08985A.99768.99768,0,0,0,73.74414,170.75586Zm2.28809-24.57031a7.98439,7.98439,0,0,1,7.14453.61084,18.88509,18.88509,0,0,1-8.54,1.75439c-.332.00195-.56445.00781-.67578.02149a1.5917,1.5917,0,0,0-1.26563,1.05566,3.18279,3.18279,0,0,0,.666,3.10352c.16992.20117-.23047,1.33691-.38086,1.76464A5.007,5.007,0,0,0,72.544,156.584a2.66835,2.66835,0,0,0,.2583.82276,7.12592,7.12592,0,0,0-.75-.54785c-.01319-.0293-.01465-.061-.03077-.08936a13.49818,13.49818,0,0,1-.91015-3.06152C70.55078,151.24512,72.08594,147.77148,76.03223,146.18555Zm-2.51075,15.874c-.03515.15039-.13769.35352-.2705.37012a6.934,6.934,0,0,1-2.42383-2.3711,2.16174,2.16174,0,0,1-.47852-1.373.36827.36827,0,0,1,.19239-.25684c.18066-.11719.54589.14649,1.20507.69922.24317.20508.48829.40918.73243.583a1.00052,1.00052,0,0,0,1.39453-.23633.98251.98251,0,0,0,.16211-.40234c.29394.29248.5498.51171.6582.59961a.99975.99975,0,0,0,1.25976-1.55274,4.4772,4.4772,0,0,1-1.42089-1.75781,5.17167,5.17167,0,0,1,.335-1.20117c.415-1.17774.93066-2.64454.02051-3.72071a1.424,1.424,0,0,1-.3545-.88867h.11426c1.71607-.00928,6.168-.03906,10.03565-2.30371a6.73582,6.73582,0,0,1,.7788,1.39648,20.63694,20.63694,0,0,1,1.916,9.77344c-.14551,2.48047-.68945,5.59766-1.34863,6.52246-.36231.50879-1.70508,1.31543-4.19336.72852a12.05643,12.05643,0,0,1-3.0625-.97363.99994.99994,0,0,0-1.376,1.44628c.42188.45313,1.76074.94825,3.97754,1.47364a9.19512,9.19512,0,0,0,2.10449.25879,6.58691,6.58691,0,0,0,1.79395-.24268l-4.07276,2.46777-5.46142-1.977a5.01655,5.01655,0,0,0,.5459-3.50683l-.25293-1.11621a.99907.99907,0,0,0-1.18067-.75537,2.96179,2.96179,0,0,0,.62793-1.27588,1,1,0,0,0-1.958-.40723Zm4.98145,12.02832-3.57129-3.13184,4.71973,1.708Zm8.61523-3.55469-3.01953,3.45313-1.27636-1.53223,3.92236-2.376c.16308.123.33594.2378.51245.34864A.93607.93607,0,0,0,87.11816,170.5332Z"/>
  <path class="cls-1" d="M200.49414,44H221v9.78027a2.49941,2.49941,0,0,0,4.23633,1.79883L237.22559,44h14.28027A10.50649,10.50649,0,0,0,262,33.50586V17.49414A10.50649,10.50649,0,0,0,251.50586,7H200.49414A10.50649,10.50649,0,0,0,190,17.49414V33.50586A10.50649,10.50649,0,0,0,200.49414,44ZM193,17.49414A7.5032,7.5032,0,0,1,200.49414,10h51.01172A7.5032,7.5032,0,0,1,259,17.49414V33.50586A7.5032,7.5032,0,0,1,251.50586,41H236.61914a1.50178,1.50178,0,0,0-1.042.4209L224,52.60254V42.5a1.50039,1.50039,0,0,0-1.5-1.5H200.49414A7.5032,7.5032,0,0,1,193,33.50586Z"/>
  <path class="cls-1" d="M202.3252,23.5957a.99311.99311,0,0,0,.55664-.16992l3.376-2.2666,1.01953,1.90723a.99913.99913,0,0,0,1.43946.35839l3.376-2.2666,1.01953,1.90723a.99914.99914,0,0,0,1.43946.3584l3.37695-2.2666,1.01856,1.90722a.99911.99911,0,0,0,1.43945.3584l3.376-2.2666,1.01953,1.90723a.99843.99843,0,0,0,1.43945.35937l3.377-2.2666,1.01856,1.90625a.99844.99844,0,0,0,1.43945.35938l3.377-2.26661,1.01856,1.90625a.99844.99844,0,0,0,1.43945.35938l4.1543-2.78809a1,1,0,1,0-1.11524-1.66015l-3.23535,2.17187-1.01855-1.90723a.99843.99843,0,0,0-1.43946-.35937l-3.37695,2.2666-1.01855-1.90625a.99843.99843,0,0,0-1.43946-.35937l-3.377,2.26757-1.01953-1.9082a.99914.99914,0,0,0-1.43945-.3584l-3.377,2.2666-1.01855-1.90722a.99912.99912,0,0,0-1.43945-.3584l-3.376,2.2666-1.01953-1.9082a.99912.99912,0,0,0-1.43946-.3584l-3.376,2.2666L207.501,19.24121a.99843.99843,0,0,0-1.43946-.35937l-4.29492,2.88378a1,1,0,0,0,.5586,1.83008Z"/>
  <path class="cls-1" d="M202.3252,33.59473a.99312.99312,0,0,0,.55664-.16993l3.376-2.2666,1.01953,1.90723a.99914.99914,0,0,0,1.43946.3584l3.37695-2.26758,1.01953,1.9082a.99912.99912,0,0,0,1.43945.3584l3.376-2.2666,1.01953,1.90625a.99718.99718,0,0,0,.63965.5,1.00833,1.00833,0,0,0,.79981-.14062l3.376-2.26661,1.01953,1.90723a.99914.99914,0,0,0,1.43946.3584l4.15429-2.78809a1,1,0,0,0-1.11523-1.66015l-3.23535,2.17187-1.01953-1.90723a.99843.99843,0,0,0-1.43946-.35937l-3.376,2.2666-1.01953-1.90723a.99913.99913,0,0,0-1.43946-.35839l-3.376,2.2666-1.01954-1.90723a.99913.99913,0,0,0-1.43945-.3584l-3.37695,2.26758L207.501,29.24023a.99721.99721,0,0,0-.63965-.5,1.00837,1.00837,0,0,0-.79981.14063l-4.29492,2.88379a1,1,0,0,0,.5586,1.83008Z"/>
  <path class="cls-1" d="M30.41211,96.8584a.99962.99962,0,0,0-1.41406,0l-4.293,4.293-4.293-4.293a.99989.99989,0,1,0-1.41406,1.41406l4.293,4.293-4.293,4.293a.99989.99989,0,1,0,1.41406,1.41406l4.293-4.293,4.293,4.293a.99989.99989,0,0,0,1.41406-1.41406l-4.293-4.293,4.293-4.293A.99964.99964,0,0,0,30.41211,96.8584Z"/>
  <path class="cls-1" d="M264.18066,82.21484a15.749,15.749,0,0,0-.168-2.456A15.19125,15.19125,0,0,0,234.583,77.26758a12.572,12.572,0,0,0-4.12989-.38672,12.7361,12.7361,0,0,0-11.11718,8.77246,1.5,1.5,0,1,0,2.85547.91992,9.71245,9.71245,0,0,1,8.46875-6.70019,9.54489,9.54489,0,0,1,4.375.71,1.49986,1.49986,0,0,0,2.04394-1.07227,12.18911,12.18911,0,0,1,23.96485.68653,12.494,12.494,0,0,1,.042,3.39648,1.49866,1.49866,0,0,0,1.64746,1.67871,11.00961,11.00961,0,0,1,1.12793-.06055h.02539A10.82445,10.82445,0,0,1,274.71,96.00879c0,3.85254-1.5625,6.6709-4.64551,8.376a13.30467,13.30467,0,0,1-5.27539,1.54492l-43.37011.00293a6.15966,6.15966,0,0,1-4.668-1.49414,4.99857,4.99857,0,0,1-1.54688-3.74414,6.28888,6.28888,0,0,1,.74121-2.97657,1.50035,1.50035,0,1,0-2.64453-1.418,9.31132,9.31132,0,0,0-1.09668,4.4004,8.03,8.03,0,0,0,2.4961,5.92773,8.9228,8.9228,0,0,0,6.14941,2.32324c.21973,0,.44238-.00683.665-.02148h21.7395a1.50764,1.50764,0,0,0-.04517.209,72.39864,72.39864,0,0,1-6.71777,23.3086,1.50033,1.50033,0,0,0,2.70313,1.30273,75.41113,75.41113,0,0,0,6.99511-24.27148,1.49446,1.49446,0,0,0-.04248-.54883h18.64209c3.35254,0,12.9209-2.374,12.9209-12.92383a13.82564,13.82564,0,0,0-13.5293-13.791Z"/>
  <path class="cls-1" d="M209,92.5a1.50039,1.50039,0,0,0,1.5,1.5h27.228l-4.08057,4.10059a1.49984,1.49984,0,1,0,2.12695,2.11523L242.416,93.542a1.50034,1.50034,0,0,0-.00489-2.12109l-6.67285-6.64258a1.50053,1.50053,0,1,0-2.11719,2.127L237.73511,91H210.5A1.50039,1.50039,0,0,0,209,92.5Z"/>
  <path class="cls-1" d="M69.00293,87.57617a1.46466,1.46466,0,0,0,.23926.27539l6.68457,6.03174c-5.06665,1.47119-8.02149,4.64356-10.44434,7.25342-2.21094,2.38183-3.958,4.26367-6.56738,4.26367-2.19141,0-3.44336-2.50586-4.04785-4.23828A22.11144,22.11144,0,0,0,56.83594,97.082c1.36328-3.832,1.01758-6.83594-.97364-8.457a1.861,1.861,0,0,0-2.33886-.22266c-2.08789,1.40235-2.15625,7.85938-.84668,12.46094-2.13867,3.17285-4.96289,5.53711-7.02539,5.53711-.8418,0-1.65235-1.27637-2.21973-3.38769a27.7864,27.7864,0,0,0,2.4707-4.38575c2.51465-5.58007,2.7002-10.39843.498-12.88867-1.25293-1.418-2.374-1.13867-2.93164-.85058C40.47461,86.457,40.02051,96.7168,41.27051,102.582c-1.77539,2.334-3.7041,3.81836-5.19727,3.81836a1,1,0,0,0,0,2c2.01074,0,4.0625-1.41309,5.8711-3.47461,1.07519,2.82422,2.56445,3.47461,3.707,3.47461,2.65332,0,5.56543-2.24512,7.85937-5.25391,1.27442,2.76075,3.15039,4.25391,5.4043,4.25391,3.48144,0,5.69238-2.38184,8.0332-4.90332,2.65039-2.85449,5.6543-6.09082,11.30274-7.1123a.98564.98564,0,0,0,.66919-.47217,1.49151,1.49151,0,0,0,.4978-1.68213l-3.55176-9.83008a1.50443,1.50443,0,0,0-.167-.32812l-3.313-4.918c.04224.001.08545.01074.12744.01074a4.754,4.754,0,0,0,3.36426-1.26563c1.27441-1.24609,1.87891-3.60644-.24609-6.49414-3.98536-5.418-8.25293-10.70605-13.83887-17.1455A36.58187,36.58187,0,0,0,54.18945,46.544a17.831,17.831,0,0,0-4.2539-1.85645c-.03589-.01074-.07178-.0127-.10767-.02051L40.01172,30.0957a4.03515,4.03515,0,1,0-6.69727,4.50293L39.522,43.81348a34.09035,34.09035,0,0,0-8.478,1.82422c-2.18653.78906-4.35059,1.71289-6.44239,2.60644C20.2334,50.11035,16.1084,51.87207,11.65723,52.585a1.50015,1.50015,0,0,0,.23535,2.98145,1.52752,1.52752,0,0,0,.23926-.01856c4.81543-.77246,9.30566-2.68945,13.64746-4.54394,2.05371-.877,4.17675-1.78418,6.28222-2.54395a31.36358,31.36358,0,0,1,9.40821-1.75537l7.08642,10.519A9.39432,9.39432,0,0,0,43.21,58.69336l-.89453.46582a19.307,19.307,0,0,0-5.425,3.65674,32.05,32.05,0,0,1-3.82886-1.69287,1.50058,1.50058,0,1,0-1.40429,2.65234c6.0205,3.18652,12.77636,4.25977,19.30957,5.29688a103.943,103.943,0,0,1,11.19629,2.19921c1.57617.4336,3.10546,1.38282,2.93554,2.22266-.12793.6377-1.21386,1.14356-2.97949,1.38672a391.11471,391.11471,0,0,1-48.50781,3.63379,1.50006,1.50006,0,0,0,.01855,3h.01856a394.48656,394.48656,0,0,0,48.81079-3.65186ZM42.88379,100.14258c-.87109-6.66406.45508-13.14942,1.50781-13.48633.002,0,.17578.02832.51074.40625,1.61621,1.82812,1.293,6.04492-.82324,10.74316C43.71094,98.62207,43.30859,99.4043,42.88379,100.14258Zm11.6709-10.001c.01367.00977.02832.02051.04492.03418,1.79883,1.46484.8457,4.84961.35254,6.23633a18.61971,18.61971,0,0,1-.81153,1.9209C53.44727,94.43945,53.9541,90.84668,54.55469,90.1416Zm20.00293-1.53418-3.16895-2.85937-5.87012-8.71387a4.89861,4.89861,0,0,0,1.667-1.22852l.00512.00586,5.91675,8.78321ZM59.52734,55.22461c5.53028,6.37793,9.752,11.60742,13.68848,16.958.31348.42676,1.28125,1.87109.56543,2.57129-.55176.541-2.06836.708-3.48047-.38086a1.45632,1.45632,0,0,0-.15039-.10254c-.22339-.13233-.44043-.27246-.65771-.41162L52.97,49.33154A34.98932,34.98932,0,0,1,59.52734,55.22461ZM35.64746,32.14746a1.025,1.025,0,0,1,.43848-.65918,1.03339,1.03339,0,0,1,1.43652.28223l24.5061,36.37793q-1.47107-.37721-2.95947-.688l-5.17847-7.687c-.01269-.021-.02734-.041-.0415-.06153L43.50488,44.35645l-.02075-.03077L35.80371,32.9248A1.0273,1.0273,0,0,1,35.64746,32.14746Zm4.53882,31.73438a25.13112,25.13112,0,0,1,3.50513-2.05762c.31152-.16016.61914-.31934.91992-.47852,2.18457-1.15136,3.625-1.91308,6.69531.12891.06982.04736.1394.0957.20947.14307l3.41016,5.0625c-1.16919-.19776-2.33545-.3877-3.48877-.5708A101.1294,101.1294,0,0,1,40.18628,63.88184Z"/>
</svg>
