<svg xmlns="http://www.w3.org/2000/svg" width="18" height="18" viewBox="0 0 18 18">
  <path fill="#2C2C2C" d="M13,9.992 C13.0003183,9.58742209 12.7568255,9.22251363 12.3831167,9.06751316 C12.0094079,8.91251268 11.5791229,8.9979632 11.293,9.284 L10,10.577 L10,5 C10,4.44771525 9.55228475,4 9,4 C8.44771525,4 8,4.44771525 8,5 L8,10.578 L6.707,9.285 C6.3190199,8.89177362 5.68572697,8.8875205 5.29250038,9.27550039 C4.89927379,9.66348027 4.89502033,10.2967732 5.283,10.69 L5.293,10.7 L8.251,13.657 C8.265,13.673 8.27,13.693 8.285,13.708 C8.47249273,13.8955494 8.72680519,14.0009434 8.992,14.001 L9.009,14.001 C9.27384822,14.0006784 9.52775236,13.8953046 9.715,13.708 C9.731,13.693 9.736,13.673 9.749,13.657 L12.707,10.7 C12.8947946,10.5122623 13.0002088,10.2575413 13,9.992 Z"/>
</svg>
