<svg xmlns="http://www.w3.org/2000/svg" width="24" height="24" viewBox="0 0 24 24">
  <path fill="#1973CB" d="M12.414,0.371 L15.166,7.65 L22.94,8.018 C23.1540995,8.02798762 23.3397334,8.16928802 23.4063772,8.37299601 C23.473021,8.576704 23.4067973,8.80040056 23.24,8.935 L17.165,13.8 L19.217,21.307 C19.2741393,21.5138707 19.1969982,21.7344894 19.023401,21.8606812 C18.8498037,21.9868731 18.6161476,21.99218 18.437,21.874 L11.932,17.603 L5.426,21.876 C5.24685237,21.99418 5.01319631,21.9888731 4.83959904,21.8626812 C4.66600177,21.7364894 4.58886072,21.5158707 4.646,21.309 L6.7,13.8 L0.625,8.935 C0.458202707,8.80040056 0.391978961,8.576704 0.458622796,8.37299601 C0.525266631,8.16928802 0.710900507,8.02798762 0.925,8.018 L8.7,7.65 L11.452,0.371 C11.529071,0.172548589 11.7201083,0.0418020343 11.933,0.0418020343 C12.1458917,0.0418020343 12.336929,0.172548589 12.414,0.371 Z" transform="translate(0 1)"/>
</svg>
