<svg xmlns="http://www.w3.org/2000/svg" xmlns:xlink="http://www.w3.org/1999/xlink" viewBox="0 0 18 18"><defs><style>.a{clip-path:url(#b);}.b{fill:#707070;}</style><clipPath id="b"><rect width="18" height="18"/></clipPath></defs><g id="a" class="a"><path class="b" d="M17.5,15.531,10.319,2.475a.771.771,0,0,0-1.351,0L1.787,15.531a.771.771,0,0,0,.676,1.143H16.824a.771.771,0,0,0,.676-1.143Zm-7.857-.014A1.157,1.157,0,1,1,10.8,14.36,1.157,1.157,0,0,1,9.643,15.517ZM8.718,11.66V6.26A.386.386,0,0,1,9.1,5.874h1.08a.386.386,0,0,1,.386.386v5.4a.386.386,0,0,1-.386.386H9.1A.386.386,0,0,1,8.718,11.66Z" transform="translate(-0.691 -1.075)"/></g></svg>