<svg xmlns="http://www.w3.org/2000/svg" width="18" height="18" viewBox="0 0 18 18">
  <path fill="#707070" d="M7,6.026 L7,2.542 C7.00907861,2.33313791 6.8872552,2.14067629 6.69459554,2.05950949 C6.50193588,1.97834269 6.27911657,2.02560761 6.136,2.178 L0.736,7.862 C0.567857966,8.04066068 0.567857966,8.31933932 0.736,8.498 L6.136,14.214 C6.23007024,14.3102064 6.35894565,14.3644378 6.4935,14.3644378 C6.62805435,14.3644378 6.75692976,14.3102064 6.851,14.214 C6.94579975,14.1169408 6.99891124,13.9866741 6.999,13.851 L6.999,10.784 C10.7348656,9.9931615 14.5961465,11.388105 16.964,14.384 C17.0198993,14.4609643 17.104494,14.5121115 17.1986184,14.5258537 C17.2927427,14.5395958 17.3884295,14.5147697 17.464,14.457 C17.5533159,14.3895685 17.606761,14.2848898 17.609,14.173 C17.609,12.622 15.379,6.029 7,6.029 L7,6.026 Z"/>
</svg>
