<svg xmlns="http://www.w3.org/2000/svg" height="18" id="S_Unlink_18_N" viewBox="0 0 18 18" width="18">
  <defs>
    <style>
      .fill {
        fill: #6e6e6e;
      }

      
    </style>
  </defs>
  <polygon class="fill" points="5.568 4.762 4.82 5.481 2.156 2.861 2.904 2.142 5.568 4.762" />
  <polygon class="fill" points="15.901 15.139 15.153 15.858 12.503 13.191 13.251 12.471 15.901 15.139" />
  <rect class="fill" height="2.314" width="1.157" x="5.529" y="0.9" />
  <rect class="fill" height="1.157" width="2.314" x="0.9" y="5.529" />
  <rect class="fill" height="1.157" width="2.314" x="14.786" y="11.314" />
  <rect class="fill" height="2.314" width="1.157" x="11.314" y="14.786" />
  <path class="fill" d="M9.026,11.854c-1.122,1.129-2.844,2.864-2.92,2.939a2.05,2.05,0,0,1-2.9-2.9L6.136,8.964,5.049,7.877,2.12,10.806A3.588,3.588,0,0,0,7.194,15.88l2.921-2.937Z" />
  <path class="fill" d="M8.956,6.128,11.861,3.24a2.05,2.05,0,0,1,2.9,2.9l-2.9,2.9,1.087,1.087,2.9-2.9a3.588,3.588,0,0,0-5.075-5.074l-2.9,2.89Z" />
  </svg>