<svg xmlns="http://www.w3.org/2000/svg" width="18" height="18" viewBox="0 0 18 18">
  <g fill="none" fill-rule="evenodd">
    <path fill="#707070" fill-rule="nonzero" d="M1.5,16 L8,16 L8.0049,8.947 C8.0103,8.4218 8.4072,8 8.8916,8.004 L13,8 L13,6 L8.5,6 C8.2241,6 8,5.7764 8,5.5 L8,1 L1.5,1 C1.2241,1 1,1.2236 1,1.5 L1,15.5 C1,15.7764 1.2241,16 1.5,16 Z"/>
    <path fill="#707070" fill-rule="nonzero" d="M9 1L9.043 1C9.1758 1 9.3032 1.0527 9.396 1.1465L12.854 4.6035C12.9468 4.6973 13 4.8242 13 4.957L13 5 9 5 9 1zM11 11L16 11 16 12 11 12 11 11zM11 13L15 13 15 14 11 14 11 13zM17.1255 9L9.8916 9.004C9.4072 9 9.0103 9.4218 9.0049 9.947L9 15.0406C9.0005 15.5635 9.3911 15.9875 9.8735 15.9898L11.0225 15.9944 11.0293 17.8511C11.0278 17.9166 11.0752 17.9708 11.1353 17.973 11.1655 17.973 11.1943 17.9606 11.2163 17.9385L13.7012 16 17.0249 16C17.5015 16.0012 17.9927 15.5822 18 15.0649L18 9.9487C17.999 9.4257 17.6084 9.0011 17.1255 9z"/>
  </g>
</svg>
