<svg xmlns="http://www.w3.org/2000/svg" width="18" height="18" viewBox="0 0 18 18">
  <g fill="none" fill-rule="evenodd">
    <path fill="#707070" fill-rule="nonzero" d="M12.6 12.033C12.1542389 12.4361079 11.5805993 12.6691048 10.98 12.691 10.645 12.691 9.839 12.663 9.042 10.642 8.536 11.291 7.151 12.691 7.151 12.691L6.218 11.2C7.03271524 10.4351025 7.80076416 9.62197247 8.518 8.765 8.05019923 6.72493295 8.16770371 4.59425447 8.857 2.618 9.26710007 1.63554828 10.2666202 1.03219423 11.327 1.127 11.9539509 1.2471131 12.4528533 1.72255611 12.603 2.343 12.947 3.834 11.67 6.672 10.303 8.913 10.4632472 9.5485394 10.7377105 10.1496479 11.113 10.687 11.3575164 10.6105203 11.5734829 10.4624787 11.733 10.262 11.6288008 9.6203153 11.694303 8.96253466 11.923 8.354 12.348 7.605 12.773 7.192 13.281 7.284 13.7077709 7.33692901 14.0698866 7.622384 14.221 8.025 14.3861646 8.89875354 14.2011941 9.80241526 13.706 10.541 13.8556204 10.7327328 14.0680919 10.8655275 14.306 10.916 14.732 11.008 14.985 10.358 15.157 9.983L15.757 8.683 17.027 9.972 16.78 10.641C16.5115014 11.6791185 15.7435631 12.5153013 14.732 12.871 13.912967 13.1204973 13.0299395 12.7734162 12.6 12.033zM10.17 3.563C9.90530034 4.66357037 9.76376452 5.79015525 9.748 6.922 10.2502465 6.09269382 10.663856 5.21285186 10.982 4.297 11.088 3.972 11.182 3.261 10.904 3.078 10.555 3.011 10.425 3.1 10.172 3.563L10.17 3.563zM3.902 7.163L2.512 8.58 1.129 7.163C1.00537176 7.03909718.837531 6.96946616.6625 6.96946616.487469 6.96946616.319628237 7.03909718.196 7.163-.0577149691 7.42884723-.0577149691 7.84715277.196 8.113L1.587 9.521.196 10.938C-.0576212137 11.2003991-.0576212137 11.6166009.196 11.879.319497073 12.0031493.487386979 12.0729507.6625 12.0729507.837613021 12.0729507 1.00550293 12.0031493 1.129 11.879L2.512 10.462 3.902 11.879C4.02399087 12.002921 4.19060869 12.0727037 4.3645 12.0727037 4.53839131 12.0727037 4.70500913 12.002921 4.827 11.879 5.07906959 11.6159755 5.07906959 11.2010245 4.827 10.938L3.435 9.521 4.827 8.113C5.07919658 7.84654632 5.07919658 7.42945368 4.827 7.163 4.70487481 7.03932944 4.53830728 6.96972065 4.3645 6.96972065 4.19069272 6.96972065 4.02412519 7.03932944 3.902 7.163zM0 15.5C0 15.2238576.223857625 15 .5 15L17.5 15C17.7761424 15 18 15.2238576 18 15.5 18 15.7761424 17.7761424 16 17.5 16L.5 16C.223857625 16 0 15.7761424 0 15.5z"/>
  </g>
</svg>
