<svg xmlns="http://www.w3.org/2000/svg" width="18" height="18" viewBox="0 0 18 18">
  <g id="Icons_on_Artboards" data-name="Icons on Artboards">
    <g>
      <path d="M9,8.78906a3.89453,3.89453,0,1,1,3.89453-3.89453A3.89893,3.89893,0,0,1,9,8.78906ZM9,2.5a2.39453,2.39453,0,1,0,2.39453,2.39453A2.39729,2.39729,0,0,0,9,2.5Z" fill="#b9b9b9"/>
      <path d="M8.648,15.24951,3.53223,15.25a.346.346,0,0,1-.34473-.34375c.00049-.72559,2.252-3.625,5.8125-3.625.074,0,.14337.00854.21613.011a5.5185,5.5185,0,0,1,1.12628-1.39173A8.069,8.069,0,0,0,9,9.78125c-4.47461,0-7.3125,3.60352-7.3125,5.127A1.85021,1.85021,0,0,0,3.53125,16.75l5.71027-.00049A5.45692,5.45692,0,0,1,8.648,15.24951Z" fill="#b9b9b9"/>
      <path d="M15.06061,14l1.94464-1.94434a.49988.49988,0,0,0,.00006-.707l-.35345-.35351a.49989.49989,0,0,0-.7071,0L14,12.93945l-1.94476-1.94433a.49989.49989,0,0,0-.7071,0l-.35345.35351a.49988.49988,0,0,0,.00006.707L12.93939,14l-1.94464,1.94434a.49987.49987,0,0,0-.00006.707l.35345.35351a.49989.49989,0,0,0,.7071,0L14,15.06042l1.94476,1.94446a.49989.49989,0,0,0,.7071,0l.35345-.35351a.49987.49987,0,0,0-.00006-.707Z" fill="#b9b9b9"/>
    </g>
  </g>
</svg>