<svg xmlns="http://www.w3.org/2000/svg" width="18" height="18" viewBox="0 0 18 18">
  <g id="Icons_on_Artboards" data-name="Icons on Artboards">
    <g>
      <path d="M9.25611,1.749l.40569.00915a8.73765,8.73765,0,0,1,1.20656.13968l.20433.04218.00009.54375a1.24412,1.24412,0,0,0,.46372.97419,1.27837,1.27837,0,0,0,1.04033.26229,8.57923,8.57923,0,0,1,1.81038-.19581l.35472.00685a9.43125,9.43125,0,0,1,1.41412.16125l.11263.02449v6.986l-.03021-.00542a10.37358,10.37358,0,0,0-5.44648.49868l-.2743.10874.00089-1.28564a1.26334,1.26334,0,0,0-1.24032-1.2565l-.36135.00517a10.79432,10.79432,0,0,0-3.5315.71466l-.13572.05531V2.67A16.38258,16.38258,0,0,1,9.25611,1.749ZM9.65133.25645,9.25569.25a10.60191,10.60191,0,0,0-4.84,1.16005A1.10566,1.10566,0,0,0,3.75,2.39312v8.16335c0,.87485.86278.95587,1.36922.69089l.31-.15333a9.16569,9.16569,0,0,1,3.47065-.825l.1178-.00293.00089,1.47572A1.20069,1.20069,0,0,0,9.5844,12.7641a1.23083,1.23083,0,0,0,1.15706.08025,8.82813,8.82813,0,0,1,5.52909-.61227,1.22931,1.22931,0,0,0,1.0164-.219,1.21036,1.21036,0,0,0,.48236-.9517V3.48662a1.21076,1.21076,0,0,0-.924-1.179,10.78,10.78,0,0,0-2.459-.28311l-.42472.00933a10.01271,10.01271,0,0,0-1.26485.13548l-.124.02377.00009-.45273A1.25143,1.25143,0,0,0,11.61957.52418,10.27116,10.27116,0,0,0,9.65133.25645Z" fill="#b9b9b9"/>
      <g id="Stroke-1">
        <rect x="1.25" y="1.24219" width="1.5" height="16.5" rx="0.5" fill="#b9b9b9"/>
      </g>
    </g>
  </g>
</svg>