<svg xmlns="http://www.w3.org/2000/svg" width="18" height="18" viewBox="0 0 18 18">
  <path fill="#999999" d="M4,6.236 C3.99973285,6.16961434 4.02598627,6.10587053 4.0729284,6.0589284 C4.11987053,6.01198627 4.18361434,5.98573285 4.25,5.986 L12.77,5.986 C12.9080712,5.986 13.02,6.09792881 13.02,6.236 L13.02,6.752 C13.0194519,6.88984352 12.9078435,7.00145191 12.77,7.002 L4.25,7.002 C4.11192881,7.002 4,6.89007119 4,6.752 L4,6.236 Z M4,9.236 C3.99973285,9.16961434 4.02598627,9.10587053 4.0729284,9.0589284 C4.11987053,9.01198627 4.18361434,8.98573285 4.25,8.986 L10.769,8.986 C10.9070712,8.986 11.019,9.09792881 11.019,9.236 L11.019,9.752 C11.0184519,9.88984352 10.9068435,10.0014519 10.769,10.002 L4.25,10.002 C4.11192881,10.002 4,9.89007119 4,9.752 L4,9.236 Z M14.36,2 L2.674,2.007 C1.76503845,1.99977832 1.02143847,2.7290697 1.011,3.638 L1.002,12.338 C1.00364444,13.2424472 1.7355573,13.9757006 2.64,13.979 L4.989,13.987 L5,17.746 C4.99828715,17.8589825 5.08708765,17.952667 5.2,17.957 C5.25608779,17.9567013 5.31000331,17.9352779 5.351,17.897 L10.011,13.997 L14.362,13.989 C15.2563164,13.9912939 15.98632,13.2742147 16,12.38 L16,3.641 C15.9983508,2.73577488 15.2652239,2.002201 14.36,2 Z"/>
</svg>
