<?xml version="1.0" encoding="UTF-8"?>
<svg width="18px" height="18px" viewBox="0 0 18 18" version="1.1" xmlns="http://www.w3.org/2000/svg" xmlns:xlink="http://www.w3.org/1999/xlink">
    <!-- Generator: Sketch 48.2 (47327) - http://www.bohemiancoding.com/sketch -->
    <title>s_createpdf_18</title>
    <desc>Created with Sketch.</desc>
    <defs></defs>
    <g id="Page-1" stroke="none" stroke-width="1" fill="none" fill-rule="evenodd">
        <g id="s_createpdf_18" fill="#707070" fill-rule="nonzero">
            <g transform="translate(3.000000, 1.000000)">
                <path d="M8.48,1 C8.52023222,0.998621574 8.55926945,1.01380272 8.588,1.042 L10.953,3.442 C10.9828917,3.47405919 10.9996641,3.51616861 11,3.56 L11,13.59 C11.0056995,13.8071865 10.8369932,13.9892117 10.62,14 L1.38,14 C1.16300679,13.9892117 0.994300453,13.8071865 1,13.59 L1,1.41 C0.994300453,1.19281355 1.16300679,1.01078829 1.38,1 L8.48,1 Z M8.48,-4.57467219e-13 L1.38,-4.57467219e-13 C0.61071233,0.0109707517 -0.0055736932,0.640654297 2.04279817e-14,1.41 L2.04279817e-14,13.59 C-0.0055736932,14.3593457 0.61071233,14.9890292 1.38,15 L10.62,15 C11.3892877,14.9890292 12.0055737,14.3593457 12,13.59 L12,3.56 C12.0009861,3.24923793 11.878719,2.95076238 11.66,2.73 L9.3,0.34 C9.08318693,0.121488582 8.78782168,-0.000979935948 8.48,-4.57467219e-13 Z" id="Path_1430"></path>
                <path d="M9.5,9.07 C9.48823775,9.11668023 9.4678914,9.16076399 9.44,9.2 C9.41215332,9.24568136 9.36995402,9.28084745 9.32,9.3 C9.23731339,9.34699005 9.14493859,9.37436036 9.05,9.38 C8.92692183,9.39640543 8.80201236,9.3930295 8.68,9.37 C8.43152482,9.3256733 8.19388256,9.23401129 7.98,9.1 C7.73635569,8.96436688 7.50542277,8.80706474 7.29,8.63 C7.60697763,8.57478655 7.9282557,8.54801338 8.25,8.55 C8.48724481,8.5494536 8.72431781,8.56280982 8.96,8.59 C9.1101899,8.61265196 9.25167482,8.67476729 9.37,8.77 C9.46590156,8.83792128 9.51602006,8.95357935 9.5,9.07 Z M5.92,8.75 L5.49,8.86 C5.34,8.9 5.19,8.94 5.05,8.98 C5.12794823,8.833839 5.19804774,8.68362578 5.26,8.53 L5.44,8.09 L5.63,7.6 L5.81,7.11 L6.01,7.44 L6.22,7.76 C6.33,7.91 6.43,8.04 6.54,8.17 C6.63884823,8.29672812 6.74573497,8.41697571 6.86,8.53 L6.4,8.63 L5.92,8.75 Z M5.28,4.85 C5.27854898,4.74256828 5.28860631,4.63529003 5.31,4.53 C5.31973473,4.44983628 5.34342553,4.3719951 5.38,4.3 C5.40815663,4.26186346 5.44186346,4.22815663 5.48,4.2 C5.51649882,4.17784636 5.55750876,4.16417638 5.6,4.16 C5.71748401,4.16194757 5.82301608,4.23230229 5.87,4.34 C5.92579042,4.4340347 5.95676028,4.54070865 5.96,4.65 C5.95907189,4.90723215 5.92204404,5.16306095 5.85,5.41 C5.78,5.68 5.69,5.98 5.59,6.3 C5.489893,6.0431993 5.40965704,5.77908929 5.35,5.51 C5.3053928,5.29277908 5.28194981,5.07174519 5.28,4.85 Z M2.68,11.16 C2.64964274,11.1621063 2.61915449,11.1587187 2.59,11.15 C2.56009963,11.1391739 2.53283371,11.1221327 2.51,11.1 C2.47529946,11.0678135 2.45093669,11.0260487 2.44,10.98 C2.42979721,10.933891 2.42979721,10.886109 2.44,10.84 C2.55557143,10.5710191 2.75107683,10.3440932 3,10.19 C3.39153318,9.90603163 3.81428484,9.66781443 4.26,9.48 C4.03966931,9.9322971 3.74944335,10.3470502 3.4,10.709 C3.21776,10.936067 2.96396319,11.0946901 2.68,11.159 L2.68,11.16 Z M9.69,8.74 C9.54006831,8.60507839 9.35728761,8.51196369 9.16,8.47 C8.8827651,8.39693401 8.59662264,8.36327019 8.31,8.37 C8.14,8.37 7.95,8.38 7.75,8.4 C7.55,8.42 7.35,8.44 7.13,8.48 C6.99918054,8.35731279 6.87563693,8.22709115 6.76,8.09 C6.64,7.95 6.52,7.8 6.4,7.64 L6.17,7.28 L5.95,6.92 C6.07060897,6.57025765 6.16749544,6.21277999 6.24,5.85 C6.29493735,5.57998223 6.32506284,5.3055056 6.33,5.03 C6.33896384,4.78568365 6.29103699,4.54262604 6.19,4.32 C6.12172312,4.17626797 5.99730193,4.06697074 5.84596904,4.01778756 C5.69463616,3.96860437 5.52973179,3.98387079 5.39,4.06 C5.30813812,4.10059765 5.23896659,4.16285203 5.19,4.24 C5.06051048,4.5532895 5.02912809,4.89849583 5.1,5.23 C5.17366304,5.70320173 5.3116042,6.16412705 5.51,6.6 C5.43835352,6.83538313 5.35150428,7.06586764 5.25,7.29 L4.95,8 C4.87,8.21 4.78,8.41 4.69,8.6 C4.6,8.79 4.5,8.99 4.39,9.19 C3.8558372,9.39558015 3.35140925,9.6713341 2.89,10.01 C2.58745336,10.1890286 2.35739824,10.4686341 2.24,10.8 C2.22650546,10.8770994 2.23340004,10.9563871 2.26,11.03 C2.28361118,11.1104387 2.32852901,11.1829983 2.39,11.24 C2.43323589,11.2800533 2.48431256,11.3106993 2.54,11.33 C2.63948842,11.3787187 2.74925706,11.4027306 2.86,11.4 C3.33493027,11.3242472 3.75600557,11.0520002 4.02,10.65 C4.35758468,10.2233209 4.65233978,9.7644408 4.9,9.28 L5.44,9.11 L5.98,8.96 L6.52,8.82 C6.7,8.77 6.87,8.73 7.04,8.7 C7.38769516,9.03025204 7.79954633,9.28553169 8.25,9.45 C8.52039372,9.55870587 8.80859585,9.61634629 9.1,9.62 C9.27170778,9.63044486 9.44254959,9.58860605 9.59,9.5 C9.68239659,9.4501789 9.75349166,9.36841958 9.79,9.27 L9.81,9.19 L9.81,9.1 C9.81062913,9.03216706 9.80050353,8.96466304 9.78,8.9 C9.75433066,8.84434383 9.72423395,8.79083858 9.69,8.74 Z" id="Path_1431"></path>
                <path d="M9.5,9.07 C9.48823775,9.11668023 9.4678914,9.16076399 9.44,9.2 C9.41215332,9.24568136 9.36995402,9.28084745 9.32,9.3 C9.23731339,9.34699005 9.14493859,9.37436036 9.05,9.38 C8.92692183,9.39640543 8.80201236,9.3930295 8.68,9.37 C8.43152482,9.3256733 8.19388256,9.23401129 7.98,9.1 C7.73635569,8.96436688 7.50542277,8.80706474 7.29,8.63 C7.60697763,8.57478655 7.9282557,8.54801338 8.25,8.55 C8.48724481,8.5494536 8.72431781,8.56280982 8.96,8.59 C9.1101899,8.61265196 9.25167482,8.67476729 9.37,8.77 C9.46590156,8.83792128 9.51602006,8.95357935 9.5,9.07 Z M5.92,8.75 L5.49,8.86 C5.34,8.9 5.19,8.94 5.05,8.98 C5.12794823,8.833839 5.19804774,8.68362578 5.26,8.53 L5.44,8.09 L5.63,7.6 L5.81,7.11 L6.01,7.44 L6.22,7.76 C6.33,7.91 6.43,8.04 6.54,8.17 C6.63884823,8.29672812 6.74573497,8.41697571 6.86,8.53 L6.4,8.63 L5.92,8.75 Z M5.28,4.85 C5.27854898,4.74256828 5.28860631,4.63529003 5.31,4.53 C5.31973473,4.44983628 5.34342553,4.3719951 5.38,4.3 C5.40815663,4.26186346 5.44186346,4.22815663 5.48,4.2 C5.51649882,4.17784636 5.55750876,4.16417638 5.6,4.16 C5.71748401,4.16194757 5.82301608,4.23230229 5.87,4.34 C5.92579042,4.4340347 5.95676028,4.54070865 5.96,4.65 C5.95907189,4.90723215 5.92204404,5.16306095 5.85,5.41 C5.78,5.68 5.69,5.98 5.59,6.3 C5.489893,6.0431993 5.40965704,5.77908929 5.35,5.51 C5.3053928,5.29277908 5.28194981,5.07174519 5.28,4.85 Z M2.68,11.16 C2.64964274,11.1621063 2.61915449,11.1587187 2.59,11.15 C2.56009963,11.1391739 2.53283371,11.1221327 2.51,11.1 C2.47529946,11.0678135 2.45093669,11.0260487 2.44,10.98 C2.42979721,10.933891 2.42979721,10.886109 2.44,10.84 C2.55557143,10.5710191 2.75107683,10.3440932 3,10.19 C3.39153318,9.90603163 3.81428484,9.66781443 4.26,9.48 C4.03966931,9.9322971 3.74944335,10.3470502 3.4,10.709 C3.21776,10.936067 2.96396319,11.0946901 2.68,11.159 L2.68,11.16 Z M9.69,8.74 C9.54006831,8.60507839 9.35728761,8.51196369 9.16,8.47 C8.8827651,8.39693401 8.59662264,8.36327019 8.31,8.37 C8.14,8.37 7.95,8.38 7.75,8.4 C7.55,8.42 7.35,8.44 7.13,8.48 C6.99918054,8.35731279 6.87563693,8.22709115 6.76,8.09 C6.64,7.95 6.52,7.8 6.4,7.64 L6.17,7.28 L5.95,6.92 C6.07060897,6.57025765 6.16749544,6.21277999 6.24,5.85 C6.29493735,5.57998223 6.32506284,5.3055056 6.33,5.03 C6.33896384,4.78568365 6.29103699,4.54262604 6.19,4.32 C6.12172312,4.17626797 5.99730193,4.06697074 5.84596904,4.01778756 C5.69463616,3.96860437 5.52973179,3.98387079 5.39,4.06 C5.30813812,4.10059765 5.23896659,4.16285203 5.19,4.24 C5.06051048,4.5532895 5.02912809,4.89849583 5.1,5.23 C5.17366304,5.70320173 5.3116042,6.16412705 5.51,6.6 C5.43835352,6.83538313 5.35150428,7.06586764 5.25,7.29 L4.95,8 C4.87,8.21 4.78,8.41 4.69,8.6 C4.6,8.79 4.5,8.99 4.39,9.19 C3.8558372,9.39558015 3.35140925,9.6713341 2.89,10.01 C2.58745336,10.1890286 2.35739824,10.4686341 2.24,10.8 C2.22650546,10.8770994 2.23340004,10.9563871 2.26,11.03 C2.28361118,11.1104387 2.32852901,11.1829983 2.39,11.24 C2.43323589,11.2800533 2.48431256,11.3106993 2.54,11.33 C2.63948842,11.3787187 2.74925706,11.4027306 2.86,11.4 C3.33493027,11.3242472 3.75600557,11.0520002 4.02,10.65 C4.35758468,10.2233209 4.65233978,9.7644408 4.9,9.28 L5.44,9.11 L5.98,8.96 L6.52,8.82 C6.7,8.77 6.87,8.73 7.04,8.7 C7.38769516,9.03025204 7.79954633,9.28553169 8.25,9.45 C8.52039372,9.55870587 8.80859585,9.61634629 9.1,9.62 C9.27170778,9.63044486 9.44254959,9.58860605 9.59,9.5 C9.68239659,9.4501789 9.75349166,9.36841958 9.79,9.27 L9.81,9.19 L9.81,9.1 C9.81062913,9.03216706 9.80050353,8.96466304 9.78,8.9 C9.75433066,8.84434383 9.72423395,8.79083858 9.69,8.74 Z" id="Path_1432"></path>
            </g>
        </g>
    </g>
</svg>