<svg xmlns="http://www.w3.org/2000/svg" width="18" height="18" viewBox="0 0 18 18">
  <g fill="none" fill-rule="evenodd">
    <path fill="#999999" fill-rule="nonzero" d="M12.4,10 L10,10 L10,1.5 C10,1.22385763 9.77614237,1 9.5,1 L8.5,1 C8.22385763,1 8,1.22385763 8,1.5 L8,10 L5.6,10 C5.49874556,9.99981884 5.40738076,10.0607314 5.36860785,10.1542684 C5.32983493,10.2478053 5.35131158,10.3554929 5.423,10.427 L8.644,13.647 C8.83924993,13.842191 9.15575007,13.842191 9.351,13.647 L12.571,10.427 C12.6409909,10.3559311 12.6622577,10.2501626 12.6251751,10.1575646 C12.5880925,10.0649665 12.4996987,10.0031136 12.4,10 Z"/>
    <path fill="#999999" fill-rule="nonzero" d="M15,15 L3,15 L3,13.5 C3,13.2238576 2.77614237,13 2.5,13 L1.5,13 C1.22385763,13 1,13.2238576 1,13.5 L1,16.5 C1,16.7761424 1.22385763,17 1.5,17 L16.5,17 C16.7761424,17 17,16.7761424 17,16.5 L17,13.5 C17,13.2238576 16.7761424,13 16.5,13 L15.5,13 C15.2238576,13 15,13.2238576 15,13.5 L15,15 Z"/>
  </g>
</svg>
