<svg xmlns="http://www.w3.org/2000/svg" width="18" height="18" viewBox="0 0 18 18">
  <g fill="none" fill-rule="evenodd">
    <path fill="#999999" fill-rule="nonzero" d="M1.017 1.5C1.017 1.22385763 1.24085763 1 1.517 1L15.517 1C15.7931424 1 16.017 1.22385763 16.017 1.5L16.017 7.5C16.017 7.77614237 15.7931424 8 15.517 8L1.517 8C1.24085763 8 1.017 7.77614237 1.017 7.5L1.017 1.5zM1 10.49C1 10.2138576 1.22385763 9.99 1.5 9.99L7.5 9.99C7.77614237 9.99 8 10.2138576 8 10.49L8 16.49C8 16.7661424 7.77614237 16.99 7.5 16.99L1.5 16.99C1.22385763 16.99 1 16.7661424 1 16.49L1 10.49zM10 10.5C10 10.2238576 10.2238576 10 10.5 10L15.5 10C15.7761424 10 16 10.2238576 16 10.5 16 10.7761424 15.7761424 11 15.5 11L10.5 11C10.2238576 11 10 10.7761424 10 10.5zM10 12.5C10 12.2238576 10.2238576 12 10.5 12L15.5 12C15.7761424 12 16 12.2238576 16 12.5 16 12.7761424 15.7761424 13 15.5 13L10.5 13C10.2238576 13 10 12.7761424 10 12.5zM10 14.5C10 14.2238576 10.2238576 14 10.5 14L15.5 14C15.7761424 14 16 14.2238576 16 14.5 16 14.7761424 15.7761424 15 15.5 15L10.5 15C10.2238576 15 10 14.7761424 10 14.5zM10 16.5C10 16.2238576 10.2238576 16 10.5 16L15.5 16C15.7761424 16 16 16.2238576 16 16.5 16 16.7761424 15.7761424 17 15.5 17L10.5 17C10.2238576 17 10 16.7761424 10 16.5z"/>
  </g>
</svg>
