<svg xmlns="http://www.w3.org/2000/svg" width="18" height="18" viewBox="0 0 18 18">
  <g fill="none" fill-rule="evenodd">
    <path fill="#999999" fill-rule="nonzero" d="M9.48,-4.67064755e-13 L2.38,-4.67064755e-13 C1.61071233,0.0109707517 0.994426307,0.640654297 1,1.41 L1,13.59 C0.994426307,14.3593457 1.61071233,14.9890292 2.38,15 L7.346,15 C7.23040018,14.6747939 7.14307632,14.3402197 7.085,14 L2.38,14 C2.16300679,13.9892117 1.99430045,13.8071865 2,13.59 L2,1.41 C1.99430045,1.19281355 2.16300679,1.01078829 2.38,1 L9.48,1 C9.5199504,0.998540474 9.55870958,1.01375436 9.587,1.042 L11.952,3.442 C11.981912,3.4736446 11.9987083,3.51545666 11.999,3.559 L11.999,7.084 C12.3293858,7.02787767 12.6638816,6.99944553 12.999,6.999 L12.999,3.559 C12.9998944,3.24884442 12.8776012,2.95102452 12.659,2.731 L10.299,0.339 C10.0823039,0.120924572 9.78743102,-0.00148909283 9.48,-0.001 L9.48,-4.67064755e-13 Z"/>
    <path fill="#999999" fill-rule="nonzero" d="M6.92,7.75 L6.49,7.86 L6.05,7.98 C6.12802535,7.83387754 6.19812681,7.68366013 6.26,7.53 L6.44,7.09 L6.63,6.602 L6.811,6.112 L7.011,6.442 L7.222,6.76 C7.331,6.91 7.431,7.04 7.541,7.17 C7.64001553,7.29629043 7.74654141,7.41650773 7.86,7.53 L7.401,7.63 L6.92,7.75 Z M6.279,3.85 C6.27754623,3.7425184 6.28794232,3.63520393 6.31,3.53 C6.31975537,3.4499678 6.34308997,3.37218581 6.379,3.3 C6.40700379,3.26173218 6.44073218,3.22800379 6.479,3.2 C6.51517167,3.17792551 6.55583887,3.16425586 6.598,3.16 C6.71584852,3.16155809 6.82186677,3.23197611 6.869,3.34 C6.924994,3.43467589 6.95596645,3.54204706 6.959,3.652 C6.95813799,3.90923702 6.92110881,4.16507501 6.849,4.412 C6.779,4.683 6.689,4.982 6.589,5.302 C6.48949627,5.04499082 6.40927435,4.78092697 6.349,4.512 C6.30471403,4.2950668 6.28127401,4.07439577 6.279,3.853 L6.279,3.85 Z M3.679,10.16 C3.64864229,10.1621283 3.61815009,10.1587403 3.589,10.15 C3.55910495,10.1386922 3.53186888,10.1213292 3.509,10.099 C3.47516816,10.0665247 3.45094702,10.0253487 3.439,9.98 C3.42915355,9.93317874 3.42915355,9.88482126 3.439,9.838 C3.55540158,9.56975573 3.7511858,9.34360926 4,9.19 C4.36049165,8.9288015 4.74725211,8.70592827 5.154,8.525 C5.10335144,8.56011804 5.05790458,8.60219847 5.019,8.65 C4.81884362,8.95212649 4.64647235,9.27176641 4.504,9.605 L4.404,9.705 C4.22192822,9.93561644 3.96584537,10.0963305 3.679,10.16 Z M8.039,7.7 C8.35830307,8.00303898 8.7313558,8.24382755 9.139,8.41 L9.313,8.27 C9.19803415,8.22115292 9.08645331,8.16469435 8.979,8.101 C8.73524898,7.96477686 8.50430946,7.80680084 8.289,7.629 C8.60601263,7.57405939 8.92726634,7.54728825 9.249,7.549 C9.48622509,7.54916445 9.72325757,7.56251839 9.959,7.589 C10.0526868,7.60525732 10.1438108,7.63383865 10.23,7.674 L10.445,7.574 C10.3534299,7.53159641 10.2579895,7.49810855 10.16,7.474 C9.88280254,7.40073675 9.596632,7.36706963 9.31,7.374 C9.12259115,7.37369703 8.93530774,7.38371219 8.749,7.404 C8.56,7.424 8.349,7.444 8.129,7.484 C7.99796297,7.36082557 7.87440911,7.22992526 7.759,7.092 C7.64,6.952 7.519,6.802 7.4,6.644 L7.17,6.284 L6.95,5.924 C7.06999089,5.57474725 7.1668669,5.21797631 7.24,4.856 C7.294789,4.58595907 7.32491299,4.31149603 7.33,4.036 C7.33894526,3.7915813 7.29066204,3.54845303 7.189,3.326 C7.12357216,3.18721838 7.00564951,3.08014535 6.86121641,3.02837452 C6.7167833,2.97660369 6.55769258,2.98438362 6.419,3.05 L6.39,3.067 C6.30813812,3.10759765 6.23896659,3.16985203 6.19,3.247 C6.06106322,3.56042528 6.02969625,3.90546194 6.1,4.237 C6.17460136,4.70998884 6.3125052,5.17078949 6.51,5.607 C6.43799889,5.8416108 6.35115713,6.07140747 6.25,6.295 L5.95,7.005 C5.87,7.215 5.779,7.415 5.689,7.605 C5.599,7.795 5.5,7.995 5.389,8.195 C4.85482902,8.39970663 4.35037408,8.67480272 3.889,9.013 C3.58645336,9.19202863 3.35639824,9.47163408 3.239,9.803 C3.22517288,9.88008464 3.232075,9.95945903 3.259,10.033 C3.28347191,10.1132874 3.32865327,10.1857155 3.39,10.243 C3.4331776,10.2826232 3.48383544,10.3132219 3.539,10.333 C3.63832664,10.3811592 3.74763475,10.4051453 3.858,10.403 C4.33288487,10.3271288 4.75391622,10.0549102 5.018,9.653 C5.35160178,9.23208088 5.64331841,8.77960193 5.889,8.302 L5.899,8.282 L6.438,8.112 L6.979,7.962 L7.518,7.822 C7.699,7.774 7.869,7.733 8.039,7.703 L8.039,7.7 Z"/>
    <path fill="#999999" fill-rule="nonzero" d="M6.92 7.75L6.49 7.86 6.05 7.98C6.12802535 7.83387754 6.19812681 7.68366013 6.26 7.53L6.44 7.09 6.63 6.602 6.811 6.112 7.011 6.442 7.222 6.76C7.331 6.91 7.431 7.04 7.541 7.17 7.64001553 7.29629043 7.74654141 7.41650773 7.86 7.53L7.401 7.63 6.92 7.75zM6.279 3.85C6.27754623 3.7425184 6.28794232 3.63520393 6.31 3.53 6.31975537 3.4499678 6.34308997 3.37218581 6.379 3.3 6.40700379 3.26173218 6.44073218 3.22800379 6.479 3.2 6.51517167 3.17792551 6.55583887 3.16425586 6.598 3.16 6.71584852 3.16155809 6.82186677 3.23197611 6.869 3.34 6.924994 3.43467589 6.95596645 3.54204706 6.959 3.652 6.95813799 3.90923702 6.92110881 4.16507501 6.849 4.412 6.779 4.683 6.689 4.982 6.589 5.302 6.48949627 5.04499082 6.40927435 4.78092697 6.349 4.512 6.30471403 4.2950668 6.28127401 4.07439577 6.279 3.853L6.279 3.85zM3.679 10.16C3.64864229 10.1621283 3.61815009 10.1587403 3.589 10.15 3.55910495 10.1386922 3.53186888 10.1213292 3.509 10.099 3.47516816 10.0665247 3.45094702 10.0253487 3.439 9.98 3.42915355 9.93317874 3.42915355 9.88482126 3.439 9.838 3.55540158 9.56975573 3.7511858 9.34360926 4 9.19 4.36049165 8.9288015 4.74725211 8.70592827 5.154 8.525 5.10335144 8.56011804 5.05790458 8.60219847 5.019 8.65 4.81884362 8.95212649 4.64647235 9.27176641 4.504 9.605L4.404 9.705C4.22192822 9.93561644 3.96584537 10.0963305 3.679 10.16zM8.039 7.7C8.35830307 8.00303898 8.7313558 8.24382755 9.139 8.41L9.313 8.27C9.19803415 8.22115292 9.08645331 8.16469435 8.979 8.101 8.73524898 7.96477686 8.50430946 7.80680084 8.289 7.629 8.60601263 7.57405939 8.92726634 7.54728825 9.249 7.549 9.48622509 7.54916445 9.72325757 7.56251839 9.959 7.589 10.0526868 7.60525732 10.1438108 7.63383865 10.23 7.674L10.445 7.574C10.3534299 7.53159641 10.2579895 7.49810855 10.16 7.474 9.88280254 7.40073675 9.596632 7.36706963 9.31 7.374 9.12259115 7.37369703 8.93530774 7.38371219 8.749 7.404 8.56 7.424 8.349 7.444 8.129 7.484 7.99796297 7.36082557 7.87440911 7.22992526 7.759 7.092 7.64 6.952 7.519 6.802 7.4 6.644L7.17 6.284 6.95 5.924C7.06999089 5.57474725 7.1668669 5.21797631 7.24 4.856 7.294789 4.58595907 7.32491299 4.31149603 7.33 4.036 7.33894526 3.7915813 7.29066204 3.54845303 7.189 3.326 7.12357216 3.18721838 7.00564951 3.08014535 6.86121641 3.02837452 6.7167833 2.97660369 6.55769258 2.98438362 6.419 3.05L6.39 3.067C6.30813812 3.10759765 6.23896659 3.16985203 6.19 3.247 6.06106322 3.56042528 6.02969625 3.90546194 6.1 4.237 6.17460136 4.70998884 6.3125052 5.17078949 6.51 5.607 6.43799889 5.8416108 6.35115713 6.07140747 6.25 6.295L5.95 7.005C5.87 7.215 5.779 7.415 5.689 7.605 5.599 7.795 5.5 7.995 5.389 8.195 4.85482902 8.39970663 4.35037408 8.67480272 3.889 9.013 3.58645336 9.19202863 3.35639824 9.47163408 3.239 9.803 3.22517288 9.88008464 3.232075 9.95945903 3.259 10.033 3.28347191 10.1132874 3.32865327 10.1857155 3.39 10.243 3.4331776 10.2826232 3.48383544 10.3132219 3.539 10.333 3.63832664 10.3811592 3.74763475 10.4051453 3.858 10.403 4.33288487 10.3271288 4.75391622 10.0549102 5.018 9.653 5.35160178 9.23208088 5.64331841 8.77960193 5.889 8.302L5.899 8.282 6.438 8.112 6.979 7.962 7.518 7.822C7.699 7.774 7.869 7.733 8.039 7.703L8.039 7.7zM13 14L10.38 14C10.1701318 14 10 13.8298682 10 13.62L10 12.38C10 12.1701318 10.1701318 12 10.38 12L13 12 13 10.2C13.0131603 10.1362946 13.0583182 10.0839193 13.1193926 10.0615253 13.180467 10.0391314 13.2487782 10.0499014 13.3 10.09L15.91 12.92C15.9705114 12.9808505 15.9705114 13.0791495 15.91 13.14L13.3 15.911C13.2269334 15.9695001 13.1230666 15.9695001 13.05 15.911 13.0198566 15.8820929 13.001959 15.8427182 13 15.801L13 14zM13 8C10.2385763 8 8 10.2385763 8 13 8 15.7614237 10.2385763 18 13 18 15.7614237 18 18 15.7614237 18 13 18 10.2385763 15.7614237 8 13 8z"/>
  </g>
</svg>
