<svg xmlns="http://www.w3.org/2000/svg" xmlns:xlink="http://www.w3.org/1999/xlink" width="18" height="18" viewBox="0 0 18 18">
  <defs>
    <style>
      .cls-1 {
        fill: #b9b9b9;
      }

      .cls-2 {
        clip-path: url(#clip-path);
      }

      .cls-3 {
        clip-path: url(#clip-path-2);
      }
    </style>
    <clipPath id="clip-path">
      <path class="cls-1" d="M-33.88408-209.83531c.0425,0,.0595-.017.0595-.068v-.9095c0-.0595,0-.0595-.0595-.0765-.68-.102-.7565-.425-.7565-.697,0-.374.0595-.833.051-1.2325a1.03506,1.03506,0,0,0-.9605-1.0795v-.034a1.03364,1.03364,0,0,0,.9435-1.071c0-.357-.034-.7565-.034-1.156,0-.255.085-.612.731-.7225.0425-.0085.051-.017.051-.068v-.901c0-.051-.0255-.0595-.068-.051-1.496.1615-1.9125,1.071-1.9125,1.6405,0,.374.0425.85.034,1.2155-.0255.5015-.272.6205-.969.6205a.04507.04507,0,0,0-.051.03825.04464.04464,0,0,0,0,.01275v.935c0,.0425,0,.068.051.068.7225,0,.9945.187.9945.697,0,.4845-.0595.7225-.0595,1.19C-35.83908-210.43031-35.00608-209.89481-33.88408-209.83531Z"/>
    </clipPath>
    <clipPath id="clip-path-2">
      <path class="cls-1" d="M-30.73158-209.84381c1.496-.1785,1.9125-1.0795,1.9125-1.6405,0-.374-.051-.8925-.0425-1.258.0255-.5015.2805-.6205.969-.6205a.04509.04509,0,0,0,.051-.03826.04531.04531,0,0,0,0-.01274v-.935c0-.034,0-.068-.051-.068-.714,0-.9945-.1785-.9945-.6885,0-.493.068-.68.068-1.1645,0-1.037-.8415-1.5725-1.955-1.632-.0425-.0085-.0595.017-.0595.0595v.9095c0,.068,0,.068.0595.085.6715.102.7565.4165.7565.697,0,.374-.0595.7905-.051,1.1815a1.029,1.029,0,0,0,.952,1.0795v.034c-.6375.1615-.935.5015-.935,1.071,0,.3655.034.799.034,1.19,0,.255-.085.612-.7395.731-.0425.0085-.051.017-.051.0595l.0085.901C-30.79958-209.84381-30.78258-209.83531-30.73158-209.84381Z"/>
    </clipPath>
  </defs>
  <g id="Icons_on_Artboards" data-name="Icons on Artboards">
    <g id="Icons_on_Artboards-2" data-name="Icons on Artboards">
      <g>
        <g>
          <path class="cls-1" d="M-33.88408-209.83531c.0425,0,.0595-.017.0595-.068v-.9095c0-.0595,0-.0595-.0595-.0765-.68-.102-.7565-.425-.7565-.697,0-.374.0595-.833.051-1.2325a1.03506,1.03506,0,0,0-.9605-1.0795v-.034a1.03364,1.03364,0,0,0,.9435-1.071c0-.357-.034-.7565-.034-1.156,0-.255.085-.612.731-.7225.0425-.0085.051-.017.051-.068v-.901c0-.051-.0255-.0595-.068-.051-1.496.1615-1.9125,1.071-1.9125,1.6405,0,.374.0425.85.034,1.2155-.0255.5015-.272.6205-.969.6205a.04507.04507,0,0,0-.051.03825.04464.04464,0,0,0,0,.01275v.935c0,.0425,0,.068.051.068.7225,0,.9945.187.9945.697,0,.4845-.0595.7225-.0595,1.19C-35.83908-210.43031-35.00608-209.89481-33.88408-209.83531Z"/>
          <g class="cls-2">
            <g>
              <rect class="cls-1" x="-233.31308" y="-1178.33333" width="587.00002" height="1212"/>
              <rect class="cls-1" x="-233.31308" y="-1178.33333" width="587.00002" height="1212"/>
            </g>
          </g>
        </g>
        <g>
          <path class="cls-1" d="M-30.73158-209.84381c1.496-.1785,1.9125-1.0795,1.9125-1.6405,0-.374-.051-.8925-.0425-1.258.0255-.5015.2805-.6205.969-.6205a.04509.04509,0,0,0,.051-.03826.04531.04531,0,0,0,0-.01274v-.935c0-.034,0-.068-.051-.068-.714,0-.9945-.1785-.9945-.6885,0-.493.068-.68.068-1.1645,0-1.037-.8415-1.5725-1.955-1.632-.0425-.0085-.0595.017-.0595.0595v.9095c0,.068,0,.068.0595.085.6715.102.7565.4165.7565.697,0,.374-.0595.7905-.051,1.1815a1.029,1.029,0,0,0,.952,1.0795v.034c-.6375.1615-.935.5015-.935,1.071,0,.3655.034.799.034,1.19,0,.255-.085.612-.7395.731-.0425.0085-.051.017-.051.0595l.0085.901C-30.79958-209.84381-30.78258-209.83531-30.73158-209.84381Z"/>
          <g class="cls-3">
            <g>
              <rect class="cls-1" x="-233.31308" y="-1178.33333" width="587.00002" height="1212"/>
              <rect class="cls-1" x="-233.31308" y="-1178.33333" width="587.00002" height="1212"/>
            </g>
          </g>
        </g>
        <g>
          <path class="cls-1" d="M-33.88408-209.83531c.0425,0,.0595-.017.0595-.068v-.9095c0-.0595,0-.0595-.0595-.0765-.68-.102-.7565-.425-.7565-.697,0-.374.0595-.833.051-1.2325a1.03506,1.03506,0,0,0-.9605-1.0795v-.034a1.03364,1.03364,0,0,0,.9435-1.071c0-.357-.034-.7565-.034-1.156,0-.255.085-.612.731-.7225.0425-.0085.051-.017.051-.068v-.901c0-.051-.0255-.0595-.068-.051-1.496.1615-1.9125,1.071-1.9125,1.6405,0,.374.0425.85.034,1.2155-.0255.5015-.272.6205-.969.6205a.04507.04507,0,0,0-.051.03825.04464.04464,0,0,0,0,.01275v.935c0,.0425,0,.068.051.068.7225,0,.9945.187.9945.697,0,.4845-.0595.7225-.0595,1.19C-35.83908-210.43031-35.00608-209.89481-33.88408-209.83531Z"/>
          <g class="cls-2">
            <g>
              <rect class="cls-1" x="-233.31308" y="-1178.33333" width="587.00002" height="1212"/>
              <rect class="cls-1" x="-233.31308" y="-1178.33333" width="587.00002" height="1212"/>
            </g>
          </g>
        </g>
        <g>
          <path class="cls-1" d="M-30.73158-209.84381c1.496-.1785,1.9125-1.0795,1.9125-1.6405,0-.374-.051-.8925-.0425-1.258.0255-.5015.2805-.6205.969-.6205a.04509.04509,0,0,0,.051-.03826.04531.04531,0,0,0,0-.01274v-.935c0-.034,0-.068-.051-.068-.714,0-.9945-.1785-.9945-.6885,0-.493.068-.68.068-1.1645,0-1.037-.8415-1.5725-1.955-1.632-.0425-.0085-.0595.017-.0595.0595v.9095c0,.068,0,.068.0595.085.6715.102.7565.4165.7565.697,0,.374-.0595.7905-.051,1.1815a1.029,1.029,0,0,0,.952,1.0795v.034c-.6375.1615-.935.5015-.935,1.071,0,.3655.034.799.034,1.19,0,.255-.085.612-.7395.731-.0425.0085-.051.017-.051.0595l.0085.901C-30.79958-209.84381-30.78258-209.83531-30.73158-209.84381Z"/>
          <g class="cls-3">
            <g>
              <rect class="cls-1" x="-233.31308" y="-1178.33333" width="587.00002" height="1212"/>
              <rect class="cls-1" x="-233.31308" y="-1178.33333" width="587.00002" height="1212"/>
            </g>
          </g>
        </g>
      </g>
    </g>
    <g>
      <path class="cls-1" d="M10.075,5A1.075,1.075,0,1,1,9,3.925H9A1.075,1.075,0,0,1,10.075,5Z"/>
      <path class="cls-1" d="M9,17.25A8.25,8.25,0,1,1,17.25,9,8.25965,8.25965,0,0,1,9,17.25Zm0-15A6.75,6.75,0,1,0,15.75,9,6.75769,6.75769,0,0,0,9,2.25Z"/>
      <path class="cls-1" d="M11,13.00006a.5.5,0,0,1-.5.5H8a.5.5,0,0,1-.5-.5v-.5a.5.5,0,0,1,.5-.5h.5v-3.5H8a.5.5,0,0,1-.5-.5v-.5a.5.5,0,0,1,.5-.5H9.5a.5.5,0,0,1,.5.5v4.5h.5a.5.5,0,0,1,.5.5Z"/>
    </g>
  </g>
</svg>
