<svg xmlns="http://www.w3.org/2000/svg" width="18" height="18" viewBox="0 0 18 18">
  <g fill="none" fill-rule="evenodd">
    <path fill="#999999" fill-rule="nonzero" d="M11.978,9.172 C11.7827501,9.36719097 11.4662499,9.36719097 11.271,9.172 L8.866,6.772 C8.67080903,6.57675007 8.67080903,6.26024993 8.866,6.065 L12.928,2.004 L2.538,2.004 C2.26185763,2.004 2.038,2.22785763 2.038,2.504 L2.038,15.504 C2.038,15.7801424 2.26185763,16.004 2.538,16.004 L15.482,16.004 C15.7581424,16.004 15.982,15.7801424 15.982,15.504 L15.982,5.116 L11.978,9.172 Z"/>
    <path fill="#999999" fill-rule="nonzero" d="M12.854,1.79046955e-13 C12.7527456,-0.000181161899 12.6613808,0.0607314368 12.6226078,0.154268357 C12.5838349,0.247805278 12.6053116,0.355492903 12.677,0.427 L14.418,2.168 L10.349,6.237 C10.3019791,6.28390213 10.2755531,6.34758637 10.2755531,6.414 C10.2755531,6.48041363 10.3019791,6.54409787 10.349,6.591 L11.41,7.652 C11.4569021,7.69902085 11.5205864,7.72544689 11.587,7.72544689 C11.6534136,7.72544689 11.7170979,7.69902085 11.764,7.652 L15.833,3.582 L17.574,5.323 C17.6455071,5.39468842 17.7531947,5.41616507 17.8467316,5.37739215 C17.9402686,5.33861924 18.0011812,5.24725444 18.001,5.146 L18.001,0.5 C18.001,0.223857625 17.7771424,1.79046955e-13 17.501,1.79046955e-13 L12.854,1.79046955e-13 Z"/>
  </g>
</svg>
