<svg xmlns="http://www.w3.org/2000/svg" width="18" height="18" viewBox="0 0 18 18">
  <g fill="none" fill-rule="evenodd">
    <path fill="#999999" fill-rule="nonzero" d="M11.006 1.5C11.006 1.22385763 11.2298576 1 11.506 1L17.5 1C17.7761424 1 18 1.22385763 18 1.5L18 15.493C18 15.7691424 17.7761424 15.993 17.5 15.993L11.505 15.993C11.2288576 15.993 11.005 15.7691424 11.005 15.493L11.006 1.5zM10 1.812L10 1.195C10.0011136 1.09100104 9.91799191 1.00564491 9.814 1.004L7.754 1.004C7.01111202.999989631 6.29871971 1.299125 5.78139761 1.83230083 5.2640755 2.36547666 4.98657379 3.08657136 5.013 3.829L5.006 5.002 3.633 5.002C3.58296279 5.00252592 3.53519985 5.02297842 3.50028859 5.05882815 3.46537733 5.09467789 3.44619873 5.14296644 3.447 5.193 3.44698063 5.24345959 3.4667238 5.29192009 3.502 5.328L5.336 7.383C5.38194424 7.43028655 5.44506904 7.45696765 5.511 7.45696765 5.57693096 7.45696765 5.64005576 7.43028655 5.686 7.383L7.586 5.328C7.65591527 5.25157818 7.65591527 5.13442182 7.586 5.058 7.55125253 5.02244211 7.50371594 5.00227507 7.454 5.002L6.01 5.002 6.01 3.602C6.00022954 2.75278996 6.66192577 2.04698064 7.51 2.002L9.821 2.002C9.921845 1.99665907 10.0006757 1.91298407 10 1.812z"/>
    <polygon fill="#999999" fill-rule="nonzero" points="5 9 7 9 7 8 5 8"/>
    <polygon fill="#999999" fill-rule="nonzero" points="8 9 10 9 10 8 8 8"/>
    <polygon fill="#999999" fill-rule="nonzero" points="2 9 4 9 4 8 2 8"/>
    <path fill="#999999" fill-rule="nonzero" d="M0.515,8.031 C0.238857625,8.031 0.015,8.25485763 0.015,8.531 L0,10 L1,10 L1,8 L0.515,8.031 Z"/>
    <polygon fill="#999999" fill-rule="nonzero" points="1 13 0 13 0 11 1 11"/>
    <path fill="#999999" fill-rule="nonzero" d="M1,14 L0,14 L0,15.5 C0,15.7761424 0.223857625,16 0.5,16 L1,16 L1,14 Z"/>
    <polygon fill="#999999" fill-rule="nonzero" points="7 16 5 16 5 15 7 15"/>
    <polygon fill="#999999" fill-rule="nonzero" points="10 16 8 16 8 15 10 15"/>
    <polygon fill="#999999" fill-rule="nonzero" points="4 16 2 16 2 15 4 15"/>
  </g>
</svg>
