<?xml version="1.0" encoding="UTF-8"?>
<svg width="18px" height="18px" viewBox="0 0 18 18" version="1.1" xmlns="http://www.w3.org/2000/svg" xmlns:xlink="http://www.w3.org/1999/xlink">
    <title>S_AcrobatSolid_18_N_D</title>
    <g id="S_AcrobatSolid_18_N_D" stroke="none" stroke-width="1" fill="none" fill-rule="evenodd">
        <g id="Group" transform="translate(1.000000, 1.000000)" fill="#C8C8C8" fill-rule="nonzero">
            <path d="M7.91064,3.45361 C7.91064,3.19739 7.85522,2.89124 7.60132,2.89124 C7.502825,2.89622373 7.41446564,2.95336134 7.36951,3.04114 C7.16168465,3.77168595 7.23605979,4.55366183 7.57788,5.23193 C7.76489565,4.65595419 7.87674074,4.05823701 7.91064,3.45361 L7.91064,3.45361 Z M7.97754,6.99023 C7.87122,7.28137 7.75537,7.5791 7.63208,7.87671 C7.53857,8.10205 7.43115,8.33911 7.31421,8.57825 C7.53421,8.51125 7.75439,8.44849 7.97121,8.39111 C8.27297,8.31152 8.5707,8.24133 8.85878,8.18066 L8.88234,8.17517 C8.66267069,7.9343347 8.45708228,7.68102362 8.2666,7.4165 C8.16772,7.2793 8.07136667,7.13721 7.97754,6.99023 Z M11.74365,8.46448 C11.5067126,8.42378043 11.2664957,8.40526693 11.02612,8.40918 C10.6656246,8.40992755 10.3056914,8.4376718 9.94934,8.49218 C10.3743122,8.84176898 10.8711925,9.09327199 11.40454,9.22875 C11.4796828,9.2475573 11.5568201,9.25723052 11.63428,9.25756 C11.90628,9.25756 12.1051,9.13305 12.14228,8.94066 C12.20288,8.62817 11.95947,8.50916 11.74365,8.46448 Z" id="Shape"></path>
            <path d="M13.22168,0 L2.77832,0 C1.24389623,0 0,1.24389623 0,2.77832 L0,12.22168 C0,13.7561038 1.24389623,15 2.77832,15 L13.22168,15 C14.7561038,15 16,13.7561038 16,12.22168 L16,2.77832 C16,1.24389623 14.7561038,0 13.22168,0 Z M13.24854,9.34644 C13.0373847,9.83504461 12.5248133,10.1213491 11.99805,10.04492 C11.0091164,10.0059081 10.066258,9.61659838 9.33789,8.94653 C8.97559,9.0144 8.58889,9.10229 8.18652,9.20874 C7.81396,9.30737 7.44043,9.41919 7.07471,9.54174 C6.03613,11.36107 5.04053,12.28344 4.11471,12.28344 C3.79335066,12.2914324 3.48088827,12.1774229 3.24019,11.96435 C2.98409755,11.7319887 2.86721997,11.3832004 2.9316,11.04345 C3.10934,10.09423 4.72066,9.29516 5.7226,8.88451 C5.97536025,8.4194389 6.20385649,7.94158514 6.40717,7.45287 C6.64301,6.88646 6.83978,6.3684 7.02289,5.82982 C6.48816701,4.86343188 6.38245451,3.7173125 6.73139,2.66942 C6.91449075,2.3558983 7.2477689,2.16048457 7.61078,2.1538 C8.41791,2.1538 8.93939,2.83422 8.93939,3.8872 C8.90258408,4.68105445 8.75195986,5.4655087 8.49213,6.21654 C8.63226,6.45604 8.78656,6.69286 8.95213,6.92187 C9.17175387,7.22949812 9.41552422,7.51915013 9.68113,7.78808 C11.33592,7.54491 12.51707,7.7058 13.041,8.26808 C13.3043883,8.56143894 13.3842273,8.97627542 13.24854,9.34644 L13.24854,9.34644 Z" id="Shape"></path>
            <path d="M3.65747,11.17944 C3.63846292,11.2716991 3.67256549,11.366849 3.74585,11.42603 C3.79293584,11.4683266 3.85473792,11.4904593 3.91797,11.48767 C4.30383,11.48767 4.96397,10.80518 5.63477,9.72522 C4.49512,10.23438 3.731,10.79248 3.65747,11.17944 Z" id="Path"></path>
        </g>
    </g>
</svg>