<svg xmlns="http://www.w3.org/2000/svg" width="18" height="18" viewBox="0 0 18 18">
  <path fill="#707070" d="M14.657,3.343 C12.3690948,1.05480828 8.92807361,0.370178597 5.93855548,1.60836789 C2.94903736,2.84655718 0.999791523,5.76371086 0.999791523,8.9995 C0.999791523,12.2352891 2.94903736,15.1524428 5.93855548,16.3906321 C8.92807361,17.6288214 12.3690948,16.9441917 14.657,14.656 C17.780722,11.5318867 17.780722,6.46711328 14.657,3.343 Z M12.182,12.889 C12.009457,13.0834847 11.7121269,13.1018163 11.517,12.93 C11.5023135,12.9170547 11.4882954,12.9033703 11.475,12.889 L9,10.414 L6.525,12.889 C6.35236507,13.0841385 6.05426671,13.1024899 5.859,12.93 C5.84462702,12.9170584 5.83094162,12.903373 5.818,12.889 L5.111,12.182 C4.91586148,12.0093651 4.89751008,11.7112667 5.07,11.516 C5.083,11.502 5.096,11.488 5.111,11.475 L7.586,9 L5.111,6.525 C5.01698766,6.44206425 4.95983171,6.32513481 4.95214006,6.20000488 C4.94444842,6.07487496 4.98685305,5.9518256 5.07,5.858 C5.082,5.844 5.097,5.83 5.111,5.818 L5.818,5.111 C5.99063493,4.91586148 6.28873329,4.89751008 6.484,5.07 C6.49875931,5.08286659 6.51278155,5.09655497 6.526,5.111 L9,7.586 L11.475,5.111 C11.6476349,4.91586148 11.9457333,4.89751008 12.141,5.07 C12.155373,5.08294162 12.1690584,5.09662702 12.182,5.111 L12.889,5.818 C13.0841385,5.99063493 13.1024899,6.28873329 12.93,6.484 C12.918,6.498 12.903,6.512 12.889,6.525 L10.414,9 L12.889,11.475 C12.9830123,11.5579357 13.0401683,11.6748652 13.0478599,11.7999951 C13.0555516,11.925125 13.013147,12.0481744 12.93,12.142 C12.918,12.156 12.903,12.17 12.889,12.183 L12.182,12.889 Z"/>
</svg>
