<svg xmlns="http://www.w3.org/2000/svg" width="18" height="18" viewBox="0 0 18 18">
  <path fill="#707070" d="M9,1 C4.581722,1 1,4.581722 1,9 C1,13.418278 4.581722,17 9,17 C13.418278,17 17,13.418278 17,9 C17,4.581722 13.418278,1 9,1 Z M15,9 C15.0021399,10.2463169 14.6143666,11.4620856 13.891,12.477 L5.524,4.11 C7.35380023,2.80945241 9.75654507,2.63915828 11.7514849,3.66862806 C13.7464247,4.69809785 14.9997963,6.75509625 15,9 Z M3,9 C2.99792709,7.75369345 3.38569395,6.53794467 4.109,5.523 L12.476,13.89 C10.6461998,15.1905476 8.24345493,15.3608417 6.24851511,14.3313719 C4.2535753,13.3019022 3.00020366,11.2449038 3,9 Z"/>
</svg>
