<svg xmlns="http://www.w3.org/2000/svg" width="18" height="18" viewBox="0 0 18 18">
  <g fill="none" fill-rule="evenodd">
    <path fill="#999999" fill-rule="nonzero" d="M14.746,4 L13.591,16 L5.409,16 L4.254,4 L14.746,4 Z M12,1 L7,1 C6.44771525,1 6,1.4477151 6,1.99999966 L6,2.99999932 L2.25,2.99999932 C2.11192881,2.99999932 2,3.1119281 2,3.24999924 L2,3.74999907 C2,3.88807021 2.11192881,3.99999898 2.25,3.99999898 L3.25,3.99999898 L4.457,16.5479947 C4.48180717,16.805238 4.698566,17.0011879 4.957,16.9999946 L14.049,16.9999946 C14.307434,17.0011879 14.5241928,16.805238 14.549,16.5479947 L15.75,3.99999898 L16.75,3.99999898 C16.8880712,3.99999898 17,3.88807021 17,3.74999907 L17,3.24999924 C17,3.1119281 16.8880712,2.99999932 16.75,2.99999932 L13,2.99999932 L13,1.99999966 C13,1.4477151 12.5522847,1 12,1 Z M7,2 L12,2 L12,3 L7,3 L7,2 Z"/>
    <path fill="#999999" fill-rule="nonzero" d="M9.75 14.489L9.25 14.489C9.18361434 14.4892671 9.11987053 14.4630137 9.0729284 14.4160716 9.02598627 14.3691295 8.99973285 14.3053857 9 14.239L9 5.699C9 5.56092881 9.11192881 5.449 9.25 5.449L9.75 5.449C9.88807119 5.449 10 5.56092881 10 5.699L10 14.239C10.0002671 14.3053857 9.97401373 14.3691295 9.9270716 14.4160716 9.88012947 14.4630137 9.81638566 14.4892671 9.75 14.489zM7.771 14.473L7.271 14.502C7.13340185 14.5099887 7.01510338 14.4055289 7.006 14.268L6.435 5.746C6.43061743 5.67992813 6.45273272 5.61483182 6.4964564 5.56510317 6.54018007 5.51537452 6.6019106 5.48510972 6.668 5.481L7.168 5.451C7.30597709 5.44243882 7.42490231 5.54705725 7.434 5.685L8.005 14.207C8.01357588 14.3446126 7.9095435 14.4633792 7.772 14.473L7.771 14.473zM11.229 14.473L11.729 14.502C11.8665981 14.5099887 11.9848966 14.4055289 11.994 14.268L12.565 5.746C12.5693826 5.67992813 12.5472673 5.61483182 12.5035436 5.56510317 12.4598199 5.51537452 12.3980894 5.48510972 12.332 5.481L11.832 5.451C11.6940229 5.44243882 11.5750977 5.54705725 11.566 5.685L10.995 14.207C10.9864241 14.3446126 11.0904565 14.4633792 11.228 14.473L11.229 14.473z"/>
  </g>
</svg>
