<svg id="Layer_1" data-name="Layer 1" xmlns="http://www.w3.org/2000/svg" viewBox="0 0 256 192"><defs><style>.cls-1,.cls-2{fill:#e3e3e3;}.cls-2{fill-rule:evenodd;}</style></defs><title>S_IlluZeroStateGraphicShared_384x192_D</title><path class="cls-1" d="M84.59,153.16l-18.3-29.62a2.52,2.52,0,0,0-3.41-.87l-13,6.94L64,125.43l1.15,1.86L11.6,142.77A2.57,2.57,0,0,0,10.07,144a2.47,2.47,0,0,0-.17,1.9l10.51,33.33a2.52,2.52,0,0,0,3.11,1.64l54-15.61A2.53,2.53,0,0,0,79,164a2.44,2.44,0,0,0,.17-1.89l-.79-2.53,5.29-3A2.48,2.48,0,0,0,84.86,155,2.45,2.45,0,0,0,84.59,153.16Zm-24-.48-1.16-4.28,11.3-3.24,1.34,4.23ZM72.7,151.3l1.3,4.24L62.3,158.9l-1.16-4.29ZM44,152.84l1.21,4.28-11.64,3.33-1.26-4.25Zm-12.3,1.44L30.43,150l11.78-3.38,1.2,4.28Zm12.43-8.19,11.73-3.36L57,147l-11.68,3.35ZM45.71,159l1.21,4.27-11.55,3.31-1.27-4.25Zm.17-6.75L57.54,149l1.16,4.28-11.61,3.33Zm13.34,2.88,1.16,4.28-11.54,3.31-1.21-4.27Zm10.94-11.92-11.22,3.21-1.16-4.28,11-3.17ZM15,152.37l-2.18-6.88L66,130.11l2.21,7Zm2,6.15-1.35-4.26,12.9-3.69,1.26,4.26Zm1.93,6.13-1.34-4.24,12.79-3.66L31.61,161Zm1.94,6.16-1.34-4.26,12.69-3.63,1.26,4.26Zm2.25,7.12-1.65-5.22L34,169.09l1.55,5.22Zm14.41-4.17L36,168.54l11.52-3.3L49,170.45Zm13.37-3.87-1.48-5.2,11.52-3.31,1.4,5.2ZM64.23,166l-1.41-5.19,11.77-3.37h0l.61,1.91h0l1,3.18Zm13.26-9.29-6.11-19.35,10.44,16.9Z"/><path class="cls-2" d="M49.29,42.44a1.48,1.48,0,0,0,1-.35c16.46-13.91,38.37-20.8,63.27-20l17.37.23-5.07,4.94a1.53,1.53,0,0,0,.64,2.56,1.48,1.48,0,0,0,1.46-.36l7.48-7.42a1.52,1.52,0,0,0,.62-1.2h0a1.32,1.32,0,0,0-.08-.44l-.09-.21a1.58,1.58,0,0,0-.15-.24.78.78,0,0,0-.1-.15L128.12,12a1.47,1.47,0,0,0-2.08-.06l0,0a1.53,1.53,0,0,0,0,2.14l5,5.27-17.4-.23C88,18.25,65.4,25.38,48.35,39.77a1.54,1.54,0,0,0-.45,1.65A1.49,1.49,0,0,0,49.29,42.44Z"/><path class="cls-2" d="M211,155a1,1,0,0,0,1.06-1,1,1,0,0,0-.36-.82l-11.93-10a1.09,1.09,0,0,0-1-.18,1,1,0,0,0-.63,1.33,1,1,0,0,0,.3.44l11.93,10A1.07,1.07,0,0,0,211,155Zm-15.71-8.64a1,1,0,0,0-.25.74,1.09,1.09,0,0,0,.36.69l11.93,10a1.09,1.09,0,0,0,1,.18,1,1,0,0,0,.63-1.32,1,1,0,0,0-.31-.45l-11.92-10a1.05,1.05,0,0,0-1.48.16h0Z"/><path class="cls-2" d="M212.25,158.18l-4.45,5.27a1.56,1.56,0,0,1-2.19.18l-15.08-12.9a1.56,1.56,0,0,1-.18-2.19l16.9-20a1.56,1.56,0,0,1,2.19-.18l11.42,9.76a1.93,1.93,0,0,1,.64,1.28l.51,6.39a1.88,1.88,0,0,1-.44,1.36,1.5,1.5,0,0,0,2.15,2.09l.13-.15a4.85,4.85,0,0,0,1.13-3.54l-.5-6.39a4.87,4.87,0,0,0-1.69-3.32l-11.42-9.77a4.52,4.52,0,0,0-6.37.51h0l0,0-16.9,20a4.58,4.58,0,0,0,.52,6.43l15.08,12.9a4.51,4.51,0,0,0,2.93,1.08,2.29,2.29,0,0,0,.37,0,4.44,4.44,0,0,0,3.09-1.59l4.46-5.27a1.5,1.5,0,0,0-2.27-2h0Zm-29.61-.39c-13.87,12.87-32.51,20.8-54.06,23l4.65-5.09a1.47,1.47,0,0,0,.31-1.46,1.52,1.52,0,0,0-1.12-1,1.56,1.56,0,0,0-1.44.47l-7.2,7.89a1.47,1.47,0,0,0-.38,1.08,1.45,1.45,0,0,0,.5,1l8.12,7.15a1.55,1.55,0,0,0,2.14-.12,1.47,1.47,0,0,0-.09-2.07h0l0,0-5.52-4.87c22.37-2.22,41.77-10.4,56.21-23.79a1.47,1.47,0,0,0,.07-2.07h0l0,0a1.52,1.52,0,0,0-2.13-.07Z"/><path class="cls-1" d="M220,150.68a2.38,2.38,0,0,0-2.55-.51,2.3,2.3,0,0,0-1.46,2.11v26.43a2.28,2.28,0,0,0,1.56,2.16,2.67,2.67,0,0,0,.79.13,2.3,2.3,0,0,0,1.81-.85l6.53-7.87,10.64,1.49a2.37,2.37,0,0,0,2.42-1.23,2.25,2.25,0,0,0-.42-2.63Zm6.26,18.54a1.53,1.53,0,0,0-1.39.54l-5.84,7V154l16.68,16.6Z"/><path class="cls-1" d="M217.59,100.76a1.56,1.56,0,0,0-1.44,1.54A73.28,73.28,0,0,1,213,122.07a1.49,1.49,0,0,0,2.86.87h0a75.6,75.6,0,0,0,3.32-20.9,1.29,1.29,0,0,0-1.28-1.3h-.11Z"/><path class="cls-2" d="M112.13,91.58c-2.95,4.88-5.82,7.88-7.56,7.88a1.24,1.24,0,0,1-1.26-1.23,1,1,0,0,1,0-.25C103.66,96.23,107,93.81,112.13,91.58Zm6.64-27.08a1.29,1.29,0,0,1,1.11-.7c1.19,0,1.44,1.36,1.45,2.5a30.59,30.59,0,0,1-1.53,7.93c-1.77-4.5-1.88-8.26-1-9.73Zm2.52,14.6c.61,1,1.22,1.94,1.85,2.82a33.76,33.76,0,0,0,3.16,3.79h0l.1.11c-1.57.29-3.18.67-4.82,1.11-1.32.34-2.66.74-4.08,1.2.73-1.41,1.4-2.84,2-4.17.62-1.64,1.25-3.28,1.79-4.86Zm8,7.6a24.58,24.58,0,0,1,7.89-.17c.8.17,2.08.67,1.79,2.18-.16.88-1,1.45-2.27,1.45a4.21,4.21,0,0,1-1-.12,15.79,15.79,0,0,1-6.46-3.34Zm12.08.27c-1.19-1.28-3.63-2-7.07-2a38.77,38.77,0,0,0-6.27.57,30.47,30.47,0,0,1-3.79-4.39,38.36,38.36,0,0,1-2.35-3.69,34.45,34.45,0,0,0,2-9.89c0-2.72-1-5.62-3.91-5.62a2.76,2.76,0,0,0-2.27,1.34c-1.32,2.3-.69,7.34,1.55,12.3-.84,2.49-1.72,4.87-2.8,7.46a67,67,0,0,1-3.19,6.61c-6.63,2.65-10.7,5.58-11.16,8a2.53,2.53,0,0,0,.8,2.39,3.73,3.73,0,0,0,2.53.88c4.33,0,8.86-6.94,11.21-11.14,1.74-.61,3.53-1.15,5.3-1.62,2-.53,3.92-1,5.67-1.26a16,16,0,0,0,10.59,4.7c2.47,0,3.36-1,3.68-1.86a2.63,2.63,0,0,0,.17-1,2.85,2.85,0,0,0-.74-1.75Z"/><path class="cls-1" d="M145.5,123h-47a1,1,0,0,1,0-2h47a1,1,0,0,1,0,2Zm0-10h-47a1,1,0,0,1,0-2h47a1,1,0,0,1,0,2Z"/><path class="cls-1" d="M152.27,138H92.73A10.74,10.74,0,0,1,82,127.27V98.09a1.5,1.5,0,0,1,3,0v29.18A7.74,7.74,0,0,0,92.73,135h59.54a7.74,7.74,0,0,0,7.73-7.73v-64a8.59,8.59,0,0,0-2.52-6.11L144,43.55A8.72,8.72,0,0,0,137.82,41H92.73A7.74,7.74,0,0,0,85,48.73v4.19a1.5,1.5,0,1,1-3,0V48.73A10.74,10.74,0,0,1,92.73,38h45.09a11.71,11.71,0,0,1,8.25,3.43L159.6,55a11.54,11.54,0,0,1,3.4,8.22v64A10.74,10.74,0,0,1,152.3,138h0Z"/><path class="cls-2" d="M158.56,144A10.49,10.49,0,0,0,169,133.5V70.12a11.49,11.49,0,0,0-2-6.47,1.48,1.48,0,0,0-2.05-.41,1.45,1.45,0,0,0-.53.62,1.5,1.5,0,0,0,.12,1.49A8.46,8.46,0,0,1,166,70.12V133.5a7.49,7.49,0,0,1-7.46,7.5H99.23a7.41,7.41,0,0,1-4.78-1.75,1.5,1.5,0,0,0-2.11.21,1.62,1.62,0,0,0-.32.69,1.56,1.56,0,0,0,.51,1.41,10.46,10.46,0,0,0,6.7,2.44Z"/><path class="cls-2" d="M175,139.5V76.12a11.53,11.53,0,0,0-2-6.48,1.5,1.5,0,0,0-2.46,1.71A8.38,8.38,0,0,1,172,76.12V139.5a7.49,7.49,0,0,1-7.46,7.5H105.22a7.36,7.36,0,0,1-4.77-1.75,1.5,1.5,0,1,0-1.92,2.31,10.49,10.49,0,0,0,6.69,2.44h59.34A10.49,10.49,0,0,0,175,139.5Z"/><path class="cls-1" d="M238.93,78.4l-2.53-.2A18.27,18.27,0,0,1,235,83.68l3.19,1.41a22,22,0,0,0,1.73-6.57Z"/><path class="cls-1" d="M232.18,88.47c.17-.23.34-.46.49-.7-1.06-2.73-3.74-5.84-9.41-6.45V79.57a11.46,11.46,0,0,0,2.61-7.2c0-5.38-3-8.86-7.77-8.86s-7.85,3.57-7.85,8.9a11.22,11.22,0,0,0,2.74,7.1v1.77c-5.75.56-8.19,3.43-9.23,5.87l-.18-.22L200.78,89a21.63,21.63,0,0,0,4.8,4.75l2-2.83a19.3,19.3,0,0,1-1.56-1.28c.35-1.8,1.78-5,7.49-5.48a2.74,2.74,0,0,0,2.4-2.74V79.49a2.78,2.78,0,0,0-.69-1.75,8.77,8.77,0,0,1-2.06-5.36c0-3.73,1.86-6,5-6s4.89,2.18,4.89,6a8.52,8.52,0,0,1-1.92,5.34,2.78,2.78,0,0,0-.7,1.82v1.92a2.77,2.77,0,0,0,2.35,2.71c6.47.65,7.43,4.85,7.57,6.16-.37.31-.75.62-1.15.91L231.27,94a21.63,21.63,0,0,0,4.75-4.8l-2.82-2A15.74,15.74,0,0,1,232.18,88.47Z"/><path class="cls-1" d="M207.65,61.74l-2.07-2.81a21.63,21.63,0,0,0-4.75,4.8l2.83,2A18,18,0,0,1,207.65,61.74Z"/><path class="cls-1" d="M201.78,69.05l-3.19-1.4a21.33,21.33,0,0,0-1.71,6.5v0l3.47.31A18.06,18.06,0,0,1,201.78,69.05Z"/><path class="cls-1" d="M216.38,58.33,216,54.87a21.49,21.49,0,0,0-6.52,1.78l1.44,3.18A17.88,17.88,0,0,1,216.38,58.33Z"/><path class="cls-1" d="M200.35,78.33l-3.46.37a21.05,21.05,0,0,0,1.78,6.52l3.17-1.43A18.23,18.23,0,0,1,200.35,78.33Z"/><path class="cls-1" d="M211.06,92.94l-1.4,3.19a21.54,21.54,0,0,0,6.51,1.72h0l.2-2,.26-1.46-.13,0A18.22,18.22,0,0,1,211.06,92.94Z"/><path class="cls-1" d="M220.33,94.37l.38,3.47a21.49,21.49,0,0,0,6.52-1.78l-1.43-3.17A17.9,17.9,0,0,1,220.33,94.37Z"/><path class="cls-1" d="M227.05,56.55a21.88,21.88,0,0,0-6.51-1.7h0l-.08.72-.23,2.75a18,18,0,0,1,5.43,1.43Z"/><path class="cls-1" d="M233,65.61l2.81-2.07a21.63,21.63,0,0,0-4.8-4.75l-2,2.83A18,18,0,0,1,233,65.61Z"/><path class="cls-1" d="M236.39,74.34l3.47-.39a21.52,21.52,0,0,0-1.8-6.52l-3.17,1.45A17.8,17.8,0,0,1,236.39,74.34Z"/><path class="cls-1" d="M27.49,93.79H41.77l12,11.51A2.49,2.49,0,0,0,58,103.51V93.79H78.51A10.48,10.48,0,0,0,89,83.36V67.43A10.48,10.48,0,0,0,78.51,57h-51A10.48,10.48,0,0,0,17,67.43V83.36A10.48,10.48,0,0,0,27.49,93.79ZM20,67.43A7.47,7.47,0,0,1,27.49,60h51A7.48,7.48,0,0,1,86,67.43V83.36a7.48,7.48,0,0,1-7.49,7.45h-22A1.49,1.49,0,0,0,55,92.28h0v10L43.42,91.23a1.51,1.51,0,0,0-1-.42H27.49A7.48,7.48,0,0,1,20,83.36Z"/><path class="cls-1" d="M214.82,21.61v-.67a13.88,13.88,0,0,0-14-13.74,14.86,14.86,0,0,0-14.51,9.59,16,16,0,0,0-2.59-.23c-6.85,0-12.42,5.13-12.42,11.45a11.3,11.3,0,0,0,.08,1.17c-4.21.79-6.83,5.23-6.83,8.37,0,4,2.77,8.28,8.85,8.37h40.45c4.71,0,11.7-3.16,11.74-11.87C225.59,27.92,220.22,23.05,214.82,21.61Zm-1,21.32H173.39c-5.69,0-5.85-4.74-5.85-5.28,0-2.16,2.21-5.49,5.16-5.49h.45a1.51,1.51,0,0,0,1.51-2,6.77,6.77,0,0,1-.37-2.1c0-4.65,4.23-8.44,9.42-8.44a12.57,12.57,0,0,1,3.18.43,1.46,1.46,0,0,0,1.14-.15,1.43,1.43,0,0,0,.7-.91,12,12,0,0,1,12-8.73H201A10.75,10.75,0,0,1,211.81,21h0a8,8,0,0,1-.14,1.46A1.66,1.66,0,0,0,213,24.31c4,.66,9.52,4.42,9.52,9.76C222.55,41.08,216.85,42.93,213.85,42.93Z"/><path class="cls-1" d="M40.36,102.6A1.29,1.29,0,0,0,39,103.79v.11a75.6,75.6,0,0,0,3.32,20.9h0a1.49,1.49,0,0,0,2.86-.87A73.29,73.29,0,0,1,42,104.15a1.55,1.55,0,0,0-1.44-1.53Z"/><path class="cls-1" d="M208.23,25.7l0,0a1.29,1.29,0,0,0-1.74.43v0h0l-.44.74a9,9,0,0,0-8.79-6.26,9.09,9.09,0,0,0-7.9,4.72,1.3,1.3,0,0,0,2.28,1.23,6.47,6.47,0,0,1,5.65-3.36h.23a6.41,6.41,0,0,1,6.05,4.4l-.73-.5a1.3,1.3,0,0,0-1.81.27,1.28,1.28,0,0,0,.27,1.81l3.45,2.33a1.28,1.28,0,0,0,.69.22h.32a1.23,1.23,0,0,0,.82-.62l2.13-3.67A1.3,1.3,0,0,0,208.23,25.7Z"/><path class="cls-1" d="M205.1,33.35h0a1.3,1.3,0,0,0-1.74.51,6.55,6.55,0,0,1-5.65,3.32h-.11a6.46,6.46,0,0,1-6.18-4.4l.76.51a1.29,1.29,0,0,0,1.78-.42,1.3,1.3,0,0,0-.35-1.73l-3.34-2.29a1.38,1.38,0,0,0-1-.19,1.3,1.3,0,0,0-.83.62l-2.12,3.64a1.31,1.31,0,0,0,.43,1.8l0,0a1.29,1.29,0,0,0,1.75-.47l.43-.74a9,9,0,0,0,8.55,6.26h.26a9.14,9.14,0,0,0,7.88-4.68,1.3,1.3,0,0,0-.53-1.75Z"/><path class="cls-1" d="M32,72.25H71.69a.75.75,0,0,0,0-1.5H32a.75.75,0,0,0,0,1.5Z"/><path class="cls-1" d="M32,80.83H71.69a.75.75,0,0,0,0-1.5H32a.75.75,0,0,0,0,1.5Z"/><path class="cls-1" d="M32,76.54H67.4a.75.75,0,0,0,0-1.5H32a.75.75,0,0,0,0,1.5Z"/></svg>