<?xml version="1.0" encoding="UTF-8"?>
<svg width="168px" height="190px" viewBox="0 0 168 190" version="1.1" xmlns="http://www.w3.org/2000/svg" xmlns:xlink="http://www.w3.org/1999/xlink">
    <!-- Generator: Sketch 49 (51002) - http://www.bohemiancoding.com/sketch -->
    <title>S_IlluSharedFiles_dark_192</title>
    <desc>Created with Sketch.</desc>
    <defs></defs>
    <g id="Page-1" stroke="none" stroke-width="1" fill="none" fill-rule="evenodd">
        <g id="S_IlluSharedFiles_dark_192" fill="#999999" fill-rule="nonzero">
            <path d="M153.46973,71.76562 C153.480307,71.0833182 153.44867,70.4010154 153.375,69.72262 C152.535378,62.2078333 146.568655,56.2959674 139.046434,55.5257884 C131.524213,54.7556094 124.483252,59.3356552 122.13818,66.52437 C120.654824,66.1183342 119.111936,65.974573 117.5791,66.09957 C113.803101,66.3987888 110.33308,68.2914901 108.037126,71.3041797 C105.741173,74.3168693 104.836461,78.1645778 105.54932,81.88473 C102.923625,82.6006248 100.717276,84.3825564 99.46484,86.79879 C99.2127496,87.2742267 99.2346588,87.8482735 99.5222543,88.3031124 C99.8098499,88.7579513 100.319058,89.0238781 100.856663,88.9999889 C101.394267,88.9760996 101.877881,88.6660553 102.124,88.1875 C103.187378,86.1326002 105.229526,84.7658877 107.53465,84.56641 C107.990851,84.5262754 108.403725,84.2799346 108.655712,83.8975299 C108.907698,83.5151253 108.971186,83.0385564 108.8281,82.60352 C107.567237,78.7691507 108.657005,74.5516379 111.617557,71.8080454 C114.578108,69.0644529 118.866215,68.2981981 122.59373,69.84668 C123.00555,70.0181371 123.47231,69.99744 123.867338,69.7902057 C124.262366,69.5829715 124.544686,69.2106956 124.63768,68.77441 C125.976932,62.5117778 131.658867,58.1435935 138.055319,58.4591359 C144.45177,58.7746783 149.676192,63.6808823 150.39256,70.04492 C150.505463,71.0771423 150.497597,72.1190102 150.36912,73.14941 C150.311796,73.6036592 150.465074,74.059216 150.785329,74.3864237 C151.105584,74.7136315 151.557745,74.8766565 152.01312,74.8291 C152.424642,74.7800066 152.838957,74.758149 153.25336,74.76367 C159.655858,74.7642126 164.850268,79.9461918 164.86615,86.34867 C164.86615,96.6768 154.31195,96.99809 154.2143,97.00004 L126.5,97.00004 C125.671573,97.00004 125,97.6716129 125,98.50004 C125,99.3284671 125.671573,100.00004 126.5,100.00004 L154.21436,100.00004 C156.664419,99.8526312 159.054092,99.1798573 161.22119,98.02738 C164.25244,96.38188 167.86619,93.02055 167.86619,86.34477 C167.848493,78.3712692 161.442354,71.8838642 153.46971,71.76566 L153.46973,71.76562 Z" id="Shape"></path>
            <path d="M76.3042,45.84082 C76.304131,46.1060576 76.4094657,46.3604516 76.597017,46.548003 C76.7845684,46.7355543 77.0389624,46.840889 77.3042,46.84082 L96.59277,46.84082 C97.1450547,46.84082 97.59277,46.3931047 97.59277,45.84082 C97.59277,45.2885353 97.1450547,44.84082 96.59277,44.84082 L77.3042,44.84082 C77.0389624,44.840751 76.7845684,44.9460857 76.597017,45.133637 C76.4094657,45.3211884 76.304131,45.5755824 76.3042,45.84082 Z" id="Shape"></path>
            <path d="M96.75293,50.34375 L77.3042,50.34375 C76.7519153,50.34375 76.3042,50.7914653 76.3042,51.34375 C76.3042,51.8960347 76.7519153,52.34375 77.3042,52.34375 L96.75293,52.34375 C97.3052147,52.34375 97.75293,51.8960347 97.75293,51.34375 C97.75293,50.7914653 97.3052147,50.34375 96.75293,50.34375 Z" id="Shape"></path>
            <path d="M100.31348,149.34082 C99.16699,143.83496 96.4917,134.72363 94.72119,128.69434 L94.15332,126.75879 C93.8322323,125.44948 92.8956908,124.377432 91.6413724,123.883392 C90.387054,123.389352 88.9709855,123.534776 87.84326,124.27344 C87.1209375,124.690728 86.4948249,125.255776 86.00586,125.93164 C84.70459,127.85156 84.90723,130.27246 85.0415,131.87598 C85.08105,132.34473 85.35986,134.02734 85.8501,136.96098 C86.30127,139.66508 86.91943,143.36723 86.9668,144.05277 C87.1389905,146.356189 86.4123915,148.636782 84.93945,150.41606 C83.7276182,151.775011 82.7280579,153.309252 81.97461,154.96684 C81.1853897,156.788973 80.9049352,158.790985 81.16309,160.75984 C81.2979276,161.577221 82.0698536,162.130533 82.887235,161.995695 C83.7046164,161.860857 84.2579276,161.088931 84.12309,160.27155 C83.9574357,158.836897 84.1796759,157.384074 84.76664,156.06455 C85.4003509,154.703175 86.2362995,153.445464 87.24613,152.33408 C89.2140479,149.961835 90.1866993,146.919599 89.96,143.8457 C89.90678,143.07422 89.46977,140.42285 88.80912,136.4668 C88.45902,134.37109 88.06205,131.99414 88.0308,131.625 C87.89506,130.001 87.83598,128.5791 88.4893,127.61523 C88.7443116,127.29639 89.0584931,127.029793 89.41459,126.83008 C89.7430373,126.606005 90.1570532,126.547532 90.53471,126.67188 C90.9145913,126.846653 91.1890653,127.191243 91.27445,127.60059 L91.84281,129.53906 C93.59965,135.52246 96.25492,144.56543 97.37699,149.95215 C97.8532004,152.069191 98.1774337,154.217572 98.34721,156.38086 C98.65434,161.3584 97.59477,166.21286 96.4727,171.35254 C95.80424,174.41699 95.11283,177.58496 94.7427,180.76954 C94.7338397,180.848965 94.731065,180.928952 94.7344,181.0088 L95.0464,188.00099 C95.0819171,188.80243 95.7417338,189.434062 96.54396,189.43458 C96.56642,189.43458 96.58888,189.43458 96.61183,189.43258 C97.0092009,189.415145 97.3833466,189.240477 97.6518686,188.947043 C97.9203906,188.653609 98.0612661,188.265475 98.04347,187.86812 L97.73683,180.99703 C98.09327,177.99803 98.75929,174.94625 99.40383,171.99215 C100.52004,166.87887 101.67434,161.59078 101.34133,156.19625 C101.164221,153.889339 100.82071,151.598235 100.31348,149.34082 Z" id="Shape"></path>
            <path d="M72.53271,174.24512 C72.07324,173.35742 71.57178,172.48242 71.06934,171.60742 C70.44727,170.52242 69.85986,169.49805 69.34668,168.44042 C68.4931574,166.661252 68.0517141,164.712554 68.05518,162.73925 L68.05518,151.55664 C68.05518,150.728213 67.3836071,150.05664 66.55518,150.05664 C65.7267529,150.05664 65.05518,150.728213 65.05518,151.55664 L65.05518,162.73926 C65.0524433,165.166441 65.596683,167.56304 66.64746,169.75098 C67.20605,170.90137 67.84717,172.01953 68.46729,173.09961 C68.94775,173.9375 69.42822,174.77344 69.86768,175.62305 C70.3588339,176.569154 70.9048476,177.485753 71.50293,178.36816 C72.69043,180.16504 73.18213,180.90916 73.31543,187.96289 C73.3307083,188.779912 73.9972655,189.434321 74.81443,189.43457 L74.84324,189.43457 C75.6714833,189.418683 76.3300931,188.734498 76.31443,187.90625 C76.17088,180.28516 75.54197,179.03809 74.00584,176.71387 C73.4667049,175.92062 72.9748081,175.096273 72.53271,174.24512 Z" id="Shape"></path>
            <path d="M162.17139,123.67285 L158.9541,126.89014 C154.962106,122.285651 148.514314,120.673598 142.825081,122.857624 C137.135848,125.041649 133.423105,130.554205 133.537729,136.647168 C133.652353,142.740131 137.569807,148.109142 143.33716,150.07764 C136.17285,165.34277 115.979,173.00684 106.59863,173.00684 C105.770203,173.00684 105.09863,173.678413 105.09863,174.50684 C105.09863,175.335267 105.770203,176.00684 106.59863,176.00684 C116.13525,176.00684 138.26663,168.46584 146.2085,151.03418 C146.246359,150.949406 146.276271,150.861301 146.29785,150.771 C149.377655,151.161677 152.501006,150.540827 155.19727,149.002 C159.666637,146.377667 162.504359,141.669872 162.73779,136.49224 C162.778819,135.957599 162.531314,135.441724 162.088616,135.139164 C161.645919,134.836603 161.075376,134.793387 160.592156,135.025814 C160.108935,135.25824 159.78655,135.730949 159.74658,136.26567 C159.608752,140.45118 157.333892,144.273519 153.7207,146.39067 C148.468351,149.3496 141.82088,147.720123 138.53236,142.667591 C135.24384,137.61506 136.445198,130.877048 141.277259,127.272381 C146.10932,123.667713 152.91033,124.436042 156.81641,129.02788 L147.31396,138.53032 L143.23779,134.45415 C142.652064,133.868427 141.702418,133.868429 141.116695,134.454155 C140.530972,135.039881 140.530974,135.989527 141.1167,136.57525 L146.25342,141.71196 C146.534641,141.993334 146.91615,142.151421 147.313965,142.151421 C147.71178,142.151421 148.093289,141.993334 148.37451,141.71196 L164.29251,125.79396 C164.671408,125.415064 164.819386,124.86281 164.680701,124.345226 C164.542016,123.827643 164.137739,123.423363 163.620156,123.284676 C163.102573,123.145989 162.550318,123.293964 162.17142,123.67286 L162.17139,123.67285 Z" id="Shape"></path>
            <path d="M63.65479,171.74219 C45.9390581,165.070105 31.6767851,151.513731 24.11479,134.15919 C30.6010726,130.917855 34.1580924,123.774139 32.835671,116.644671 C31.5132496,109.515203 25.6308671,104.122371 18.41361,103.42286 C19.2067943,83.9713759 28.1096558,65.7409731 42.96191,53.15527 L42.75191,61.69336 C42.7314076,62.5216062 43.38608,63.2097193 44.21432,63.23047 L44.252,63.23047 C45.0657751,63.2302136 45.7309043,62.5811069 45.751,61.76758 L46.04738,49.72949 C46.067674,48.9011405 45.4128297,48.2130725 44.58449,48.19238 L32.54641,47.89648 C31.7191016,47.8779175 31.0329488,48.5326573 31.0127497,49.3599274 C30.9925505,50.1871975 31.6459315,50.8746442 32.47316,50.89648 L40.75026,51.09961 C25.3863464,64.2476156 16.2029832,83.2082528 15.41213,103.41455 C9.23551061,103.938041 3.89278341,107.925298 1.63333819,113.69761 C-0.62610703,119.469921 0.590218944,126.024576 4.77021974,130.60194 C8.95022053,135.179305 15.3677864,136.984242 21.321,135.25684 C29.1959295,153.402162 44.0905639,167.579843 62.602,174.55078 C63.1037063,174.738834 63.6676276,174.644946 64.0813402,174.304482 C64.4950528,173.964019 64.6957039,173.428705 64.6077102,172.900187 C64.5197165,172.37167 64.1564463,171.930244 63.65474,171.74219 L63.65479,171.74219 Z M3.54932,119.62207 C3.54549168,113.926972 7.17350746,108.863512 12.5674032,107.035934 C17.961299,105.208355 23.9199863,107.023615 27.3787881,111.548087 C30.8375899,116.072559 31.0263157,122.298754 27.8479,127.02441 C27.16162,124.86768 25.16748,122.27734 20.60352,121.8125 L20.62939,120.36816 C21.8724505,118.851282 22.5616776,116.956191 22.5835,114.99516 C22.5835,110.99223 20.31689,108.40629 16.80859,108.40629 C13.32275,108.40629 10.98047,111.05375 10.98096,115.02348 C11.0361548,116.990429 11.7641382,118.878978 13.04346,120.37406 L13.09521,121.8057 C8.05298,122.24516 6.36035,125.0547 5.79321,126.99662 C4.32809819,124.816481 3.54680824,122.24877 3.54932,119.62207 Z M7.5127,129.0708 C7.51001,128.96045 7.50781,128.8628 7.50781,128.81348 C7.50781,128.05957 7.78564,124.27539 13.30811,123.79395 C14.3084529,123.669744 15.0556738,122.81361 15.04346,121.80566 L15.04346,120.35352 C15.0352673,119.886748 14.8619204,119.437982 14.5542,119.08691 C13.5842139,117.938877 13.0297581,116.497259 12.98047,114.99512 C12.98047,112.12207 14.41162,110.40625 16.80859,110.40625 C19.20752,110.40625 20.5835,112.0791 20.5835,114.98438 C20.5673458,116.472082 20.0487078,117.910629 19.11182,119.06638 C18.7908296,119.427438 18.6104146,119.891907 18.60352,120.37497 L18.60352,121.79977 C18.5957218,122.817493 19.3521674,123.679368 20.3623,123.80368 C26.08398,124.38083 26.1499,128.62985 26.1499,128.81052 C26.1499,128.85642 26.14844,128.95407 26.14648,129.06931 C24.9444488,130.257402 23.5273179,131.205912 21.9707,131.86423 C21.82691,131.876367 21.6856346,131.909258 21.55127,131.96188 C21.44734,132.00547 21.3485879,132.060499 21.25684,132.12595 C16.4697372,133.844816 11.1208159,132.655818 7.5127,129.0708 Z" id="Shape"></path>
            <path d="M23.9624,12.61816 C28.46631,11.76562 32.62891,9.84766 36.6543,7.99316 C38.55469,7.11716 40.52002,6.21191 42.4707,5.44531 C47.9375,3.29688 56.2793,2.39746 61.67676,5.49805 C64.1213999,7.03523233 66.3451477,8.89840241 68.28662,11.03613 C69.97192,12.87207 71.50708,14.57861 72.94629,16.21143 C71.0477518,16.7553026 69.5926664,18.2847363 69.144,20.208 C67.0946369,18.0942338 64.8213279,16.2097671 62.36422,14.58788 C58.29049,12.03905 55.76266,13.07421 53.10885,14.57323 L52.28219,15.03323 C50.4447221,15.9316661 48.770167,17.1306082 47.3276,18.5806 C46.1044226,18.1700977 44.9090631,17.6809477 43.749,17.11621 C43.268576,16.8789642 42.6980768,16.9160432 42.252404,17.2134796 C41.8067311,17.5109161 41.5535928,18.0235224 41.5883439,18.5582047 C41.6230951,19.0928869 41.940456,19.5684142 42.42088,19.80566 C48.1616,22.64066 54.52928,23.46875 60.68699,24.26953 C64.2299269,24.6642694 67.7485453,25.2530437 71.22699,26.0332 C72.64299,26.37988 74.09369,27.20508 73.96869,27.93164 C73.87348,28.4834 72.87201,28.9707 71.289,29.23438 C56.2824731,31.7351764 41.1348681,33.2997231 25.934,33.91895 C25.1185256,33.9523786 24.4794004,34.6316145 24.4956088,35.4476128 C24.5118172,36.2636111 25.1774114,36.916931 25.99357,36.91795 C26.01408,36.91795 26.03457,36.91795 26.0551,36.91695 C40.5490362,36.3222548 54.995448,34.8755834 69.3195,32.58443 C69.1136058,32.8453013 69.001112,33.1676673 69,33.5 L69,55.56934 C69.0034552,58.5671783 71.4328217,60.9965448 74.43066,61 L99.56885,61 C102.566784,60.9965838 104.996313,58.5672736 105,55.56934 L105,27.71875 C105.003184,26.2008865 104.410369,24.7424349 103.34912,23.65723 L97.6123,17.7627 C96.513981,16.6387817 95.0099392,16.0035903 93.43848,16 L76.74561,16 C74.8584,13.82031 72.81396,11.53125 70.49661,9.00684 C68.3500306,6.64003375 65.8844733,4.58351735 63.1709,2.89648 C56.88037,-0.71484 47.69141,0.1709 41.37354,2.65234 C39.34277,3.45117 37.33789,4.375 35.39893,5.26855 C31.36035,7.12891 27.54593,8.88672 23.40479,9.6709 C22.8783127,9.77050742 22.4449675,10.1434208 22.2679914,10.6491672 C22.0910154,11.1549136 22.1972952,11.7166582 22.5467965,12.1227972 C22.8962977,12.5289362 23.4359227,12.7177675 23.9624,12.61816 Z M50.668,19.55029 C51.642559,18.8468701 52.6667137,18.2148516 53.73245,17.65918 L54.58499,17.18457 C56.64065,16.02344 57.88235,15.32324 60.77347,17.13086 C62.9528527,18.5668986 64.9710287,20.2337606 66.793,22.10254 C64.877,21.79346 62.959,21.54004 61.07425,21.29492 C57.576316,20.9033249 54.102389,20.3209136 50.668,19.55029 Z M95.46243,19.85449 L101.19974,25.74902 C101.714131,26.275474 102.001468,26.9827132 102,27.71875 L102,55.56934 C101.998121,56.9111687 100.910679,57.9983916 99.56885,58 L74.43066,58 C73.0889265,57.9983525 72.0016475,56.9110735 72,55.56934 L72,33.5 C72.0000401,33.0048957 71.7554058,32.5417615 71.34644,32.2627 C71.4917,32.23877 71.6377,32.21777 71.78271,32.19336 C74.854,31.68066 76.58398,30.41895 76.92529,28.44141 C77.33398,26.06541 75.40015,23.98975 72,23.13721 L72,21.43066 C72.0018789,20.0888313 73.089321,19.0016084 74.43115,19 L93.43848,19 C94.2004179,19.0018604 94.9296654,19.3097454 95.4624,19.85449 L95.46243,19.85449 Z" id="Shape"></path>
            <path d="M130.71826,115.2393 C131.412904,113.362219 131.145224,111.264031 130.001556,109.621477 C128.857888,107.978922 126.98294,106.999833 124.98145,107 L65.82715,107 C62.3375522,106.987655 59.251516,109.261872 58.23,112.59863 L48.92285,142.6123 C48.6486696,143.476957 47.8241957,144.04656 46.91846,143.99707 C45.7979832,143.880535 44.9593931,142.915788 45,141.79 L45,91.22949 C45.0024852,88.8948286 46.8943389,87.0027557 49.229,87 L68.79492,87 C69.6038186,86.9982251 70.3806299,87.3162528 70.95605,87.88477 L78.105,94.91211 C78.8123075,95.6114313 79.7675604,96.002522 80.76221,96 L108.771,96 C111.105661,96.0027557 112.997515,97.8948286 113,100.22949 L113,102.5 C113,103.328427 113.671573,104 114.5,104 C115.328427,104 116,103.328427 116,102.5 L116,100.22949 C115.995696,96.2387283 112.761761,93.0045744 108.771,93 L80.76221,93 C80.5548762,93.0002718 80.3557765,92.9188788 80.20801,92.77344 L73.05957,85.74609 C71.9242056,84.6239876 70.3912134,83.9963294 68.79492,84 L49.229,84 C45.2383093,84.0047449 42.0044744,87.238799 42,91.22949 L42,141.79 C41.9732187,144.516383 44.0689538,146.794633 46.78809,146.99508 C49.0483371,147.095217 51.0954516,145.668717 51.78418,143.51363 L61.09518,113.48726 C61.7313855,111.40887 63.6535808,109.992294 65.82715,110 L124.98145,110 C126.002209,109.999914 126.958314,110.499688 127.540893,111.337871 C128.123473,112.176055 128.258678,113.246395 127.90283,114.20312 L118.14941,140.87305 C117.458788,142.747864 115.674725,143.99515 113.67676,144 L104.5,144 C103.671573,144 103,144.671573 103,145.5 C103,146.328427 103.671573,147 104.5,147 L113.67676,147 C116.933103,146.992483 119.841024,144.959862 120.9668,141.9043 L130.71826,115.2393 Z" id="Shape"></path>
            <path d="M82.5,147 C83.3284271,147 84,146.328427 84,145.5 C84,144.671573 83.3284271,144 82.5,144 L59.50049,144 C58.6720629,144 58.00049,144.671573 58.00049,145.5 C58.00049,146.328427 58.6720629,147 59.50049,147 L82.5,147 Z" id="Shape"></path>
        </g>
    </g>
</svg>