<svg xmlns="http://www.w3.org/2000/svg" xmlns:xlink="http://www.w3.org/1999/xlink" viewBox="1222 909 32 32"><defs><style>.a{clip-path:url(#b);}.b{fill:rgba(225,225,225,0);}.c{fill:#ff13dc;opacity:0;}.d{fill:#e2e2e2;}.e,.f{stroke:none;}.f{fill:#2680eb;}</style><clipPath id="b"><rect x="1222" y="909" width="32" height="32"/></clipPath></defs><g id="a" class="a"><g class="b" transform="translate(1222 909)"><path class="e" d="M 27 31 L 5 31 C 2.794389963150024 31 1 29.20561027526855 1 27 L 1 5 C 1 2.794389963150024 2.794389963150024 1 5 1 L 27 1 C 29.20561027526855 1 31 2.794389963150024 31 5 L 31 27 C 31 29.20561027526855 29.20561027526855 31 27 31 Z"/><path class="f" d="M 27 30 C 28.65420913696289 30 30 28.65420913696289 30 27 L 30 5 C 30 3.345789909362793 28.65420913696289 2 27 2 L 5 2 C 3.345789909362793 2 2 3.345789909362793 2 5 L 2 27 C 2 28.65420913696289 3.345789909362793 30 5 30 L 27 30 M 27 32 L 5 32 C 2.238579988479614 32 0 29.76141929626465 0 27 L 0 5 C 0 2.238579988479614 2.238579988479614 0 5 0 L 27 0 C 29.76141929626465 0 32 2.238579988479614 32 5 L 32 27 C 32 29.76141929626465 29.76141929626465 32 27 32 Z"/></g><g transform="translate(1229 916)"><rect class="c" width="18" height="18"/><path class="d" d="M15.473,1H1.527a.5.5,0,0,0-.394.808L7,9.294v7.657a.5.5,0,0,0,.84.412l1.99-2.077a.611.611,0,0,0,.17-.422V9.294l5.866-7.486A.5.5,0,0,0,15.473,1Z"/></g></g></svg>