<svg xmlns="http://www.w3.org/2000/svg" xmlns:xlink="http://www.w3.org/1999/xlink" viewBox="1570 965 32 32"><defs><style>.a{clip-path:url(#b);}.b{fill:#262626;}.c{fill:#ff13dc;opacity:0;}.d{fill:#3c3c3c;}</style><clipPath id="b"><rect x="1570" y="965" width="32" height="32"/></clipPath></defs><g id="a" class="a"><path class="b" d="M4,0H28a4,4,0,0,1,4,4V28a4,4,0,0,1-4,4H4a4,4,0,0,1-4-4V4A4,4,0,0,1,4,0Z" transform="translate(1570 965)"/><g transform="translate(1577 972)"><rect class="c" width="18" height="18"/><path class="d" d="M15.473,1H1.527a.5.5,0,0,0-.394.808L7,9.294v7.657a.5.5,0,0,0,.84.412l1.99-2.077a.611.611,0,0,0,.17-.422V9.294l5.866-7.486A.5.5,0,0,0,15.473,1Z"/></g></g></svg>