<svg xmlns="http://www.w3.org/2000/svg" width="18" height="18" viewBox="0 0 18 18">
  <path fill="#707070" d="M12.795,11.22 C12.882,11.22 12.935,11.32 12.915,11.413 C12.6713169,11.8985181 12.3353952,12.3319217 11.926,12.689 C12.0123658,12.1884155 12.2391704,11.7226684 12.58,11.346 C12.644,11.284 12.68,11.219 12.795,11.219 L12.795,11.22 Z M7.095,15.961 C8.38028178,15.8514478 9.63327509,15.4999446 10.788,14.925 C10.9933552,15.4605323 11.4723231,15.8430945 12.04,15.925 C12.14,15.935 12.24,15.945 12.34,15.945 C13.107896,15.9104989 13.8395101,15.608372 14.408,15.091 C14.4345828,15.2089247 14.4809015,15.3215097 14.545,15.424 C14.7777807,15.7705815 15.181266,15.9623521 15.597,15.924 C16.5724853,15.7290439 17.4079751,15.1044473 17.871,14.224 C17.93984,13.9779485 17.8557391,13.7145271 17.6570568,13.5538858 C17.4583745,13.3932444 17.1831828,13.3661655 16.957,13.485 C16.8139244,13.5584368 16.705975,13.685817 16.657,13.839 C16.3883878,14.1542956 16.0613975,14.4147334 15.694,14.606 C15.7642577,14.4018155 15.8453733,14.2015301 15.937,14.006 C16.124,13.585 16.269,13.258 16.081,12.886 C15.9757415,12.7005229 15.7916713,12.5731464 15.581,12.54 C15.159,12.477 14.905,12.759 14.499,13.204 C13.976,13.786 13.099,14.767 12.199,14.648 C12.154,14.642 12.019,14.626 11.912,14.271 C12.9567342,13.6705005 13.7674034,12.7340013 14.212,11.614 C14.3821995,11.0248696 14.1064187,10.398363 13.557,10.126 C12.9733313,9.81235513 12.254728,9.90524678 11.77,10.357 C10.9413572,11.2376655 10.5020155,12.4147694 10.551,13.623 C9.55197165,14.1687247 8.45561522,14.5132259 7.324,14.637 L2.684,14.637 L3.913,11.406 L12.003,2.706 C12.049044,2.65534238 12.1135864,2.62541489 12.182,2.623 C12.2473851,2.62296571 12.3104566,2.64719657 12.359,2.691 L13.602,3.855 C13.7201856,3.96941104 13.7242003,4.15765419 13.611,4.277 L6.435,12.187 C6.15746384,12.4797345 6.16727538,12.9413232 6.457,13.222 C6.59218024,13.357201 6.77677871,13.4312267 6.96791779,13.4268826 C7.15905686,13.4225385 7.34010166,13.3402028 7.469,13.199 L14.745,5.199 C15.0824206,4.91156016 15.2854803,4.49702503 15.3057622,4.05423504 C15.3260441,3.61144506 15.1617306,3.18008246 14.852,2.863 L13.5,1.693 C13.1558275,1.36397657 12.6971311,1.1817891 12.221,1.185 C11.7409704,1.18959529 11.2843522,1.39309997 10.96,1.747 L2.786,10.476 C2.71114946,10.5497117 2.65433912,10.6397184 2.62,10.739 L1.054,14.988 C0.972063915,15.2192992 1.00589915,15.4758521 1.145,15.678 C1.29304185,15.8773627 1.52668194,15.9949244 1.775,15.995 L7.095,15.961 Z"/>
</svg>
