<svg xmlns="http://www.w3.org/2000/svg" xmlns:xlink="http://www.w3.org/1999/xlink" viewBox="526 909 32 32"><defs><style>.a{clip-path:url(#b);}.b{fill:red;}.b,.c{opacity:0;}.c{fill:#ff13dc;}.d{fill:#e2e2e2;}</style><clipPath id="b"><rect x="526" y="909" width="32" height="32"/></clipPath></defs><g id="a" class="a"><g transform="translate(-319 -72)"><g transform="translate(845 981)"><rect class="b" width="32" height="32"/></g></g><g transform="translate(533 916)"><rect class="c" width="18" height="18"/><path class="d" d="M16.5,16H1.5a.5.5,0,0,1-.5-.5V5H16.5a.5.5,0,0,1,.5.5v10A.5.5,0,0,1,16.5,16Z"/><path class="d" d="M6.5,2.3A1,1,0,0,0,5.78,2H2A1,1,0,0,0,1,3V4H8.133Z"/></g></g></svg>