<svg xmlns="http://www.w3.org/2000/svg" xmlns:xlink="http://www.w3.org/1999/xlink" viewBox="232 1608 32 32"><defs><style>.a{clip-path:url(#b);}.b{fill:red;opacity:0;}.c{fill:#3e3e3e;}.d{fill:#cdcdcd;}</style><clipPath id="b"><rect x="232" y="1608" width="32" height="32"/></clipPath></defs><g id="a" class="a"><g transform="translate(232 1608)"><rect class="b" width="32" height="32"/><rect class="c" width="32" height="32" rx="4"/><g transform="translate(-1239.5 -57.5)"><path class="d" d="M-3841.2-5439.5a.5.5,0,0,1-.5-.5v-6.2a.5.5,0,0,1,.5-.5h6.2a.5.5,0,0,1,.5.5v6.2a.5.5,0,0,1-.5.5Zm-8.8,0a.5.5,0,0,1-.5-.5v-6.2a.5.5,0,0,1,.5-.5h6.2a.5.5,0,0,1,.5.5v6.2a.5.5,0,0,1-.5.5Zm8.8-8.8a.5.5,0,0,1-.5-.5v-6.2a.5.5,0,0,1,.5-.5h6.2a.5.5,0,0,1,.5.5v6.2a.5.5,0,0,1-.5.5Zm-8.8,0a.5.5,0,0,1-.5-.5v-6.2a.5.5,0,0,1,.5-.5h6.2a.5.5,0,0,1,.5.5v6.2a.5.5,0,0,1-.5.5Z" transform="translate(5098 5521)"/></g></g></g></svg>