<svg xmlns="http://www.w3.org/2000/svg" width="18" height="18" viewBox="0 0 18 18">
  <g fill="#707070" transform="translate(0 1)">
    <path d="M9.487,3.011 L8.487,3.011 C8.21085763,3.011 7.987,3.23485763 7.987,3.511 L7.987,7.964 C7.986763,8.09669886 8.03928605,8.22404927 8.133,8.318 L10.933,10.962 C11.1282499,11.157191 11.4447501,11.157191 11.64,10.962 L12.308,10.294 C12.503191,10.0987501 12.503191,9.78224993 12.308,9.587 L10.129,7.568 C10.0352861,7.47404927 9.982763,7.34669886 9.983,7.214 L9.983,3.514 C9.98466335,3.23824333 9.76275291,3.01320108 9.487,3.011 Z"/>
    <path d="M8.987,0.011 C6.90589479,0.00826297057 4.90620156,0.819337397 3.415,2.271 C2.35291224,3.26205829 1.64952402,4.57739425 1.415,6.011 L0.284,6.011 C0.191994669,6.0116069 0.10769535,6.06250399 0.0643111997,6.14364069 C0.0209270496,6.2247774 0.0254122938,6.32314798 0.076,6.4 L2.093,8.837 C2.16407757,8.94191244 2.2790993,9.00870632 2.40544758,9.01844039 C2.53179587,9.02817447 2.65569133,8.97978715 2.742,8.887 L4.565,6.439 C4.63668842,6.3674929 4.65816507,6.25980528 4.61939215,6.16626836 C4.58061924,6.07273144 4.48925444,6.01181884 4.388,6.012 L2.476,6.012 C2.71764647,4.81468118 3.32739438,3.72279888 4.22,2.889 C7.02550338,0.276543875 11.410445,0.406669018 14.0560963,3.18089064 C16.7017475,5.95511227 16.6238039,10.3412918 13.8812568,13.0197636 C11.1387096,15.6982354 6.75191325,15.6724844 4.041,12.962 L3.334,13.669 C5.89434672,16.2292148 9.85506174,16.7505908 12.9907433,14.9401831 C16.126425,13.1297754 17.6552205,9.43899225 16.7181476,5.94156898 C15.7810747,2.44414572 12.6117838,0.0121319369 8.991,0.012 L8.987,0.011 Z"/>
  </g>
</svg>
