<?xml version="1.0" encoding="UTF-8"?>
<svg width="162px" height="149px" viewBox="0 0 162 149" version="1.1" xmlns="http://www.w3.org/2000/svg" xmlns:xlink="http://www.w3.org/1999/xlink">
    <!-- Generator: Sketch 49 (51002) - http://www.bohemiancoding.com/sketch -->
    <title>S_IlluNoSearchResults_dark_180x160</title>
    <desc>Created with Sketch.</desc>
    <defs></defs>
    <g id="Page-1" stroke="none" stroke-width="1" fill="none" fill-rule="evenodd">
        <g id="S_IlluNoSearchResults_dark_180x160" fill="#999999" fill-rule="nonzero">
            <path d="M53.5,98 C52.6716621,98.0002153 52.0002153,98.6716621 52,99.5 L52,115.41992 C51.9985228,116.844247 50.8442465,117.998523 49.41992,118 L5.58008,118 C4.15575348,117.998523 3.00147719,116.844247 3,115.41992 L3,78.58008 C3.00147719,77.1557535 4.15575348,76.0014772 5.58008,76 L23.62008,76 C24.0880583,76.0011936 24.536615,76.1872225 24.86808,76.51758 L28.29924,79.95117 L7.88281,79.95117 C7.05438288,79.95117 6.38281,80.6227429 6.38281,81.45117 C6.38281,82.2795971 7.05438288,82.95117 7.88281,82.95117 L32.14429,82.95117 C32.3091407,82.980741 32.4760937,82.9970698 32.64355,83 L39.5,83 C40.3284271,83 41,82.3284271 41,81.5 C41,80.6715729 40.3284271,80 39.5,80 L33.75,80 C33.6320012,79.9690362 33.5106549,79.9526376 33.38867,79.95117 L32.541,79.95117 L26.99021,74.39648 C26.0945334,73.5054173 24.8835345,73.00361 23.62012,73 L5.58012,73 C2.49966384,73.0032409 0.00326294083,75.4996239 -3.55271368e-15,78.58008 L-3.55271368e-15,115.41992 C0.00326290103,118.500361 2.49963946,120.996737 5.58008,121 L49.41992,121 C52.5003605,120.996737 54.9967371,118.500361 55,115.41992 L55,99.5 C54.9997847,98.6716621 54.3283379,98.0002153 53.5,98 Z" id="Shape"></path>
            <path d="M101.54688,109.55957 C101.262647,109.086027 100.648348,108.932562 100.174805,109.216795 C99.7012622,109.501028 99.5477967,110.115327 99.83203,110.58887 L110.38184,128.17287 C110.565707,128.479197 110.89903,128.664162 111.25625,128.658093 C111.61347,128.652023 111.940317,128.455839 112.11367,128.143443 C112.287023,127.831046 112.280547,127.449897 112.09668,127.14357 L101.54688,109.55957 Z" id="Shape"></path>
            <path d="M112.8623,76.43359 C116.367433,62.4152083 111.082946,47.6657269 99.472993,39.0628219 C87.86304,30.4599169 72.2140092,29.6977882 59.8230362,37.131816 C47.4320633,44.5658438 40.7393452,58.7320194 42.8656933,73.0246617 C44.9920414,87.317304 55.5187067,98.9217137 69.53711,102.42676 C72.3917429,103.142951 75.323497,103.506016 78.2666,103.50781 C94.6349022,103.461902 108.883588,92.3110353 112.8623,76.43359 Z M70.26562,99.51659 C55.118482,95.730035 44.7555279,81.7708877 45.5143844,66.1760833 C46.273241,50.5812789 57.9425536,37.6942406 73.3857713,35.3962386 C88.828989,33.0982365 103.744908,42.029304 109.011465,56.7275069 C114.278021,71.4257098 108.428388,87.797344 95.04,95.83008 C87.5960079,100.291481 78.6860789,101.617312 70.26562,99.5166 L70.26562,99.51659 Z" id="Shape"></path>
            <path d="M105.90332,101.917 C105.159718,100.685799 103.561015,100.286887 102.32617,101.02442 L102.24731,101.07179 L100.69531,98.48439 C100.511445,98.1780633 100.178124,97.9930965 99.8209043,97.9991649 C99.4636852,98.0052333 99.1368385,98.2014149 98.9634843,98.5138099 C98.7901301,98.826205 98.796605,99.2073533 98.98047,99.51368 L100.53223,102.1006 L96.10107,104.7588 L94.54883,102.17189 C94.3649651,101.865562 94.0316425,101.680593 93.6744219,101.686661 C93.3172012,101.692728 92.9903526,101.88891 92.8169969,102.201306 C92.6436411,102.513702 92.6501151,102.894852 92.83398,103.20118 L94.38623,105.7881 L94.18555,105.90821 C92.9519547,106.649902 92.5517429,108.250316 93.29102,109.48536 L114.38574,144.64552 C115.385042,146.321928 117.013557,147.528808 118.9082,147.99708 C119.495838,148.144301 120.099281,148.219077 120.70508,148.21974 C123.352717,148.214188 125.793151,146.786354 127.095248,144.481022 C128.397345,142.17569 128.360236,139.348492 126.99808,137.07813 L105.90332,101.917 Z M124.91602,141.918 C124.488686,143.626354 123.074493,144.909171 121.332694,145.168443 C119.590895,145.427714 117.864389,144.612398 116.95802,143.10257 L96.06544,108.27835 L103.53321,103.79788 L124.42579,138.62112 C125.023048,139.61047 125.199573,140.79768 124.916,141.918 L124.91602,141.918 Z" id="Shape"></path>
            <path d="M21.82031,41 L49.5,41 C50.3284271,41 51,40.3284271 51,39.5 C51,38.6715729 50.3284271,38 49.5,38 L21.82324,38 C18.7633127,37.999963 16.2453685,35.591701 16.1091403,32.5348076 C15.9729122,29.4779143 18.2666558,26.855223 21.31445,26.583 C21.7702743,26.5425339 22.1827099,26.2962515 22.4345313,25.9141529 C22.6863527,25.5320543 22.7500247,25.05592 22.60745,24.62108 C21.5310511,21.3478202 22.4612611,17.7474575 24.9885026,15.4052545 C27.5157441,13.0630515 31.1763179,12.4087566 34.35845,13.73046 C34.7703901,13.9021658 35.2374047,13.881466 35.6325379,13.6739879 C36.0276712,13.4665098 36.3098591,13.0938154 36.40239,12.65722 C37.5335765,7.37219464 42.2765925,3.64811939 47.6790977,3.80308423 C53.0816028,3.95804908 57.6033543,7.94787386 58.42974,13.28905 C58.5838166,14.3232089 58.5966272,15.3735107 58.46782,16.41112 C58.4105159,16.866078 58.564504,17.3222509 58.88582,17.6494 C59.2054704,17.9791025 59.6600238,18.1418037 60.11629,18.08983 C60.4667943,18.0432393 60.8204515,18.0246272 61.17391,18.03417 C66.6538453,18.0341792 71.099532,22.4702476 71.11141,27.95017 C71.1133237,28.7771705 71.7844074,29.4465049 72.61141,29.44626 L72.61531,29.44626 C73.0131549,29.4452853 73.3943112,29.2862758 73.6748975,29.0042247 C73.9554839,28.7221736 74.1125068,28.3401946 74.11141,27.94235 C74.095238,20.9573749 68.5376059,15.246325 61.55566,15.04 C61.5573714,14.3072674 61.5044917,13.5754253 61.39746,12.85055 C60.4059204,6.38250896 55.1241372,1.42866367 48.6058908,0.853189924 C42.0876445,0.277716176 36.0196115,4.22952489 33.91016,10.42379 C30.0220897,9.4295428 25.8951627,10.4769377 22.9517905,13.2049733 C20.0084184,15.9330089 18.6511011,19.9686318 19.34766,23.9209 C15.1938643,25.1504271 12.5727473,29.2431781 13.1934395,33.5304263 C13.8141317,37.8176745 17.4883642,40.9990077 21.82031,41 Z" id="Shape"></path>
            <path d="M126.54688,43.93555 C127.038227,43.9354907 127.456736,43.5784838 127.53424,43.0932877 C127.611744,42.6080916 127.325278,42.1384738 126.8584,41.98535 L106.68457,35.36235 C106.16166,35.196334 105.602634,35.4826219 105.431728,36.0039538 C105.260822,36.5252857 105.541862,37.086969 106.06157,37.26275 L126.2354,43.88575 C126.335894,43.9189045 126.441058,43.9357182 126.54688,43.93555 Z" id="Shape"></path>
            <path d="M112.5752,44.4375 L124.72656,48.46973 C124.828379,48.5031369 124.934831,48.5202742 125.04199,48.52051 C125.532737,48.5206072 125.95105,48.1646167 126.029445,47.6801716 C126.10784,47.1957265 125.823151,46.7259737 125.35742,46.57129 L113.20605,42.53906 C112.682385,42.3667425 112.118018,42.6506146 111.944172,43.1737746 C111.770327,43.6969346 112.05255,44.2621277 112.5752,44.4375 Z" id="Shape"></path>
            <path d="M100.06543,33.86523 C100.443271,33.9910578 100.855719,33.9607508 101.211109,33.7810447 C101.566499,33.6013387 101.835386,33.2871224 101.95801,32.90823 L110.45601,7.02347 C110.921395,5.60810484 112.445566,4.83749735 113.86129,5.30179 L133.51168,11.75296 C134.300494,12.0098956 134.953364,12.572362 135.32418,13.31448 L139.28218,21.17679 C139.655024,21.9129295 139.71899,22.7673413 139.45991,23.55079 L130.30561,51.4336 C130.082595,52.1136474 129.598437,52.677174 128.959747,53.000091 C128.321057,53.3230079 127.58021,53.3788354 126.90034,53.15528 L118.18647,50.29493 C117.400263,50.0388314 116.555113,50.4674366 116.297193,51.2530477 C116.039273,52.0386588 116.465919,52.8848005 117.25093,53.14454 L125.96479,56.00489 C127.40042,56.4767393 128.964717,56.3587261 130.313307,55.6768307 C131.661897,54.9949352 132.684221,53.8050594 133.15522,52.36915 L142.30952,24.48634 C142.818949,22.9489806 142.693808,21.2718899 141.96186,19.82716 L138.00386,11.96583 C137.27646,10.5101186 135.995633,9.40694183 134.44819,8.90333 L114.79688,2.45215 C113.36125,1.98030073 111.796953,2.0983139 110.448363,2.78020934 C109.099773,3.46210479 108.077449,4.65198063 107.60645,6.08789 L99.10845,31.97266 C98.984154,32.3505293 99.0151717,32.7623108 99.1946706,33.1172964 C99.3741695,33.4722821 99.6874241,33.7413503 100.06543,33.86523 Z" id="Shape"></path>
            <path d="M90.89551,54.96973 C90.6142846,54.6883605 90.2327747,54.5302766 89.83496,54.5302766 C89.4371453,54.5302766 89.0556354,54.6883605 88.77441,54.96973 L78.14062,65.60352 L67.50684,54.96973 C66.9211172,54.3840044 65.9714706,54.3840022 65.385745,54.969725 C64.8000194,55.5554478 64.8000172,56.5050944 65.38574,57.09082 L76.01953,67.72461 L65.38574,78.3584 C65.0068438,78.737298 64.8588689,79.289553 64.9975561,79.8071357 C65.1362433,80.3247185 65.5405227,80.728996 66.0581061,80.8676807 C66.5756895,81.0063655 67.1279438,80.858388 67.50684,80.47949 L78.14062,69.8457 L88.77441,80.47949 C89.1533062,80.858388 89.7055605,81.0063655 90.2231439,80.8676807 C90.7407273,80.728996 91.1450067,80.3247185 91.2836939,79.8071357 C91.4223811,79.289553 91.2744062,78.737298 90.89551,78.3584 L80.26172,67.72461 L90.89551,57.09082 C91.1768814,56.8095977 91.3349667,56.4280888 91.3349667,56.030275 C91.3349667,55.6324612 91.1768814,55.2509523 90.89551,54.96973 Z" id="Shape"></path>
            <path d="M143.542,79.54 C144.560898,80.1644565 145.788528,80.3517511 146.94728,80.05953 C149.038628,79.547078 150.476372,77.6281767 150.380692,75.4770861 C150.285011,73.3259956 148.682578,71.5423208 146.553991,71.2175708 C144.425404,70.8928207 142.363996,72.1175178 141.631232,74.142216 C140.898468,76.1669141 141.698604,78.4272397 143.542,79.54 Z M145.23731,73.21676 C145.432127,73.1680172 145.632198,73.143416 145.83302,73.14351 C147.099277,73.1549714 148.16222,74.1004402 148.321227,75.3567266 C148.480234,76.613013 147.686371,77.7934959 146.4629,78.12008 C145.82178,78.279336 145.143574,78.1748752 144.58009,77.83008 C143.71181,77.3044111 143.241225,76.3111418 143.38438,75.3062814 C143.527535,74.3014209 144.256776,73.479082 145.23731,73.2168 L145.23731,73.21676 Z" id="Shape"></path>
            <path d="M138.06445,81.47559 C137.455568,81.6278321 136.932969,82.0174842 136.61328,82.55759 L134.54346,86.25778 L126.22946,81.08395 C125.754206,80.795758 125.183482,80.7094642 124.644271,80.8442684 C124.105059,80.9790727 123.64209,81.3237926 123.35837,81.80173 L121.26755,85.30856 C120.984935,85.7831797 121.140585,86.3970398 121.615205,86.679655 C122.089825,86.9622702 122.703685,86.8066197 122.9863,86.332 L125.07712,82.82517 L125.18259,82.78806 L145.25681,95.27927 C145.725498,95.571053 146.341982,95.4276431 146.633765,94.958955 C146.925548,94.4902668 146.782138,93.8737831 146.31345,93.582 L136.2439,87.31592 L138.34668,83.55469 C138.449337,83.4121135 138.639394,83.3635682 138.79785,83.43945 L154.20605,92.87695 C154.676892,93.1654994 155.2925,93.017722 155.58105,92.5468799 C155.869599,92.0760379 155.721822,91.4604295 155.25098,91.17188 L139.83887,81.73145 C139.305048,81.4133306 138.666399,81.3212415 138.06445,81.47559 Z" id="Shape"></path>
            <path d="M115.75586,91.27051 C115.417376,91.7058445 115.495001,92.3329916 115.929412,92.6726608 C116.363822,93.01233 116.991179,92.9364136 117.33203,92.50293 C118.033779,91.5598096 119.125528,90.9860076 120.30029,90.94287 C119.107405,94.164501 118.897201,97.6676317 119.69629,101.00879 C119.804347,101.457462 120.20549,101.773856 120.66699,101.77441 C120.7463,101.774574 120.825333,101.765064 120.90234,101.74609 C121.160201,101.684212 121.38285,101.522288 121.521171,101.29604 C121.659493,101.069791 121.70212,100.797808 121.63965,100.54009 C120.896655,97.4343587 121.142478,94.1740975 122.34277,91.21489 C123.613342,91.2175634 124.808312,91.8190304 125.56738,92.83794 C125.767994,93.1338006 126.111208,93.3001609 126.467737,93.2743548 C126.824267,93.2485486 127.139946,93.0344965 127.295862,92.7128298 C127.451778,92.3911631 127.424244,92.0107506 127.22363,91.71489 C126.402278,90.5254897 125.155758,89.6966901 123.74121,89.39946 C124.485815,88.8053113 125.453517,88.56758 126.38867,88.74907 C126.922368,88.8891769 127.468674,88.5704451 127.609339,88.0368935 C127.750004,87.503342 127.431844,86.9567031 126.89844,86.81548 C124.923871,86.4163482 122.887205,87.1097888 121.56644,88.63091 C120.971389,88.0091629 120.258686,87.5118977 119.46976,87.16802 C119.139816,87.0289596 118.760707,87.0768697 118.475731,87.2936409 C118.190756,87.510412 118.043386,87.8629761 118.089327,88.218068 C118.135268,88.5731598 118.36751,88.8766108 118.69827,89.01372 C118.78227,89.04888 118.85818,89.09331 118.93777,89.13384 C117.666227,89.46619 116.54469,90.2193084 115.75586,91.27051 Z" id="Shape"></path>
            <path d="M154.03711,64.90137 C153.703616,63.6501751 152.419435,62.9058029 151.16797,63.23828 L116.61426,72.43066 C115.815165,72.6447709 115.340384,73.4655351 115.553174,74.2649828 C115.765963,75.0644306 116.585942,75.5405677 117.38574,75.3291 L151.30664,66.30566 L158.35352,92.7959 L117.169,103.751 L112.876,87.61428 C112.661889,86.8151851 111.841125,86.3404042 111.041677,86.5531938 C110.242229,86.7659834 109.766092,87.5859616 109.97756,88.38576 L114.4385,105.15529 C114.596907,105.757039 114.988611,106.270841 115.526912,106.582973 C116.065214,106.895105 116.705719,106.979824 117.30666,106.81838 L159.75783,95.52638 C160.358916,95.3669025 160.871942,94.9750036 161.183889,94.43702 C161.495835,93.8990363 161.581107,93.2591068 161.42092,92.65821 L154.03711,64.90137 Z" id="Shape"></path>
        </g>
    </g>
</svg>