<?xml version="1.0" encoding="UTF-8"?>
<svg width="178px" height="161px" viewBox="0 0 178 161" version="1.1" xmlns="http://www.w3.org/2000/svg" xmlns:xlink="http://www.w3.org/1999/xlink">
    <!-- Generator: Sketch 49 (51002) - http://www.bohemiancoding.com/sketch -->
    <title>S_IlluDCFilesEmpty_dark_180x180</title>
    <desc>Created with Sketch.</desc>
    <defs></defs>
    <g id="Page-1" stroke="none" stroke-width="1" fill="none" fill-rule="evenodd">
        <g id="S_IlluDCFilesEmpty_dark_180x180" fill="#999999" fill-rule="nonzero">
            <path d="M71.77783,90.23975 C76.00883,90.23975 80.43359,83.55664 82.729,79.50488 C84.43213,78.9248 86.17676,78.40234 87.90869,77.94727 C89.875,77.43555 91.73877,77.02827 93.4502,76.73584 C96.2203344,79.4673275 99.902031,81.0789826 103.78809,81.26123 C106.20309,81.26123 107.07959,80.28423 107.39209,79.46582 C107.503409,79.1707062 107.558557,78.8573772 107.55469,78.54199 C107.561558,77.8745495 107.323766,77.2277001 106.88623,76.72363 C105.72998,75.48926 103.3418,74.84963 99.98291,74.84963 C97.9307135,74.8692855 95.8832346,75.0501756 93.85938,75.39063 C92.492735,74.10496 91.2528211,72.6909156 90.15674,71.168 C89.3246626,70.0256663 88.5582862,68.8368934 87.86133,67.60745 C88.978636,64.5452624 89.6350442,61.334138 89.80908,58.07913 C89.80908,55.46292 88.80518,52.66556 85.98535,52.66556 C85.0750382,52.6925004 84.2410004,53.1808167 83.77197,53.96146 C82.47412,56.17239 83.09131,61.02493 85.28369,65.80325 C84.46094,68.20999 83.59717,70.4971 82.54785,72.99225 C81.6286889,75.1749592 80.5869903,77.3040158 79.42773,79.36925 C72.94824,81.9215 68.98047,84.73546 68.52588,87.09288 C68.3574257,87.9438606 68.6562433,88.8200208 69.30957,89.39073 C69.9989392,89.9693768 70.8783692,90.2718788 71.77783,90.23975 Z M102.80083,76.30175 C103.57427,76.46239 104.8311,76.94775 104.54741,78.39794 C104.38482,79.24755 103.5186,79.79882 102.32378,79.79882 C101.9975,79.7978844 101.672424,79.7592141 101.35503,79.68358 C99.0499226,79.1016072 96.9083173,78.0004944 95.0938,76.46435 C97.6380149,76.002776 100.239362,75.9478968 102.80078,76.30176 L102.80083,76.30175 Z M84.86621,54.603 L84.85791,54.603 C85.0727675,54.1986117 85.4867297,53.9392561 85.94434,53.92233 C87.1084,53.92233 87.35742,55.23433 87.36134,56.33688 C87.2095282,58.9391718 86.7066003,61.5089947 85.86622,63.97653 C84.13818,59.64062 84.0332,56.01807 84.86621,54.603 Z M85.51421,73.87058 C86.17681,72.29099 86.79351,70.71726 87.32621,69.18698 C87.91703,70.16403 88.51127,71.05856 89.13236,71.91013 C90.0691686,73.203074 91.1004742,74.4248408 92.21781,75.5654 L92.20756,75.5654 L92.30424,75.66208 C90.77397,75.95017 89.19438,76.31003 87.59574,76.73386 C86.30815,77.06735 84.99809,77.44577 83.61381,77.88962 C84.32715,76.53027 84.97949,75.15234 85.51416,73.87061 L85.51421,73.87058 Z M69.77441,87.3291 C70.09717,85.64453 73.36572,83.31201 78.37256,81.16895 C75.49268,85.8667 72.69336,88.75295 70.99023,88.75295 C70.3223284,88.7667924 69.7695695,88.2367641 69.75537,87.56887 C69.753881,87.488517 69.7602581,87.408211 69.77441,87.3291 Z" id="Shape"></path>
            <path d="M17.47754,43.97949 C17.6050361,43.9927632 17.7331451,43.9992823 17.86133,43.99902 C19.5486946,43.9954327 21.0423136,42.9069448 21.5625,41.30176 L27.8457,21.03809 C28.2177293,19.8235085 29.3410562,18.9956894 30.61133,19 L70.9248,19 C71.45562,19.0001712 71.9526921,19.2603406 72.255357,19.6964184 C72.558022,20.1324961 72.6278904,20.6891712 72.44238,21.18652 L71.78809,22.97461 C71.6038749,23.4777114 71.7020546,24.0408738 72.0456457,24.4519595 C72.3892367,24.8630451 72.9260395,25.0596002 73.4538457,24.9675845 C73.9816518,24.8755687 74.4202749,24.5089614 74.60449,24.00586 L75.25781,22.22266 C75.7818284,20.8049635 75.5793602,19.2206018 74.7156645,17.9802436 C73.8519688,16.7398854 72.4362425,16.0003488 70.9248,16 L30.61133,16 C28.025072,15.9911717 25.7379624,17.6765547 24.98047,20.14941 L18.70117,40.39941 C18.5707361,40.790275 18.1861887,41.0379812 17.77637,40.99512 C17.3021439,40.8845073 16.9751724,40.450192 17,39.96387 L17,5.40137 C17.0014495,4.07573083 18.0757308,3.00144947 19.40137,3 L32.60352,3 C33.0255589,2.99898143 33.431189,3.1634047 33.7334,3.458 L38.55957,8.13671 C39.129447,8.69173209 39.8939585,9.00160643 40.68945,9 L59.59863,9 C60.9242692,9.00144947 61.9985505,10.0757308 62,11.40137 L62,12.5 C62,13.3284271 62.6715729,14 63.5,14 C64.3284271,14 65,13.3284271 65,12.5 L65,11.40137 C64.9967648,8.41961681 62.5803832,6.00323518 59.59863,6 L40.64746,5.98242 L35.82129,1.30371 C34.9602438,0.465397946 33.8052526,-0.0025576959 32.60352,-2.22044605e-16 L19.40137,-2.22044605e-16 C16.4196168,0.00323518309 14.0032352,2.41961681 14,5.40137 L14,39.96387 C13.9731376,41.990601 15.4677657,43.716493 17.47754,43.97949 Z" id="Shape"></path>
            <path d="M24.5,41 C23.6715729,41 23,41.6715729 23,42.5 C23,43.3284271 23.6715729,44 24.5,44 L41.5,44 C42.3284271,44 43,43.3284271 43,42.5 C43,41.6715729 42.3284271,41 41.5,41 L24.5,41 Z" id="Shape"></path>
            <path d="M163.81836,106.03418 L115.35449,146.84668 C115.255141,146.929865 115.167149,147.025738 115.09277,147.13184 L107.66992,157.69629 C107.27454,158.259498 107.313004,159.019475 107.763228,159.539886 C108.213451,160.060297 108.959988,160.207698 109.57422,159.89746 L121.09473,154.06934 C121.198091,154.016808 121.295079,153.952585 121.38379,153.87793 L169.86328,113.05176 C171.793863,111.380695 172.00766,108.462314 170.341222,106.527736 C168.674783,104.593158 165.756921,104.372376 163.81836,106.03418 Z M167.91602,110.77051 L119.585,151.4707 L113.57426,154.5117 L117.43559,149.0156 L165.76566,108.31639 C166.443979,107.728778 167.469527,107.799339 168.060975,108.474317 C168.652422,109.149294 168.587674,110.175226 167.91606,110.77049 L167.91602,110.77051 Z" id="Shape"></path>
            <path d="M169.46289,51.43457 C167.10352,48.78906 164.16797,45.49805 160.05469,44.40625 C158.361447,44.0226865 156.625632,43.8601997 154.89062,43.92285 L147.46143,43.88379 C147.800844,42.0293667 147.476363,40.1146452 146.54492,38.47559 L140.4541,27.69629 C139.40173,25.8221071 137.641853,24.4481162 135.56836,23.88184 L107.4873,16.13384 C103.502996,15.0393184 99.3846065,17.3765833 98.28125,21.35845 L97.59375,23.85357 C97.3750952,24.6518294 97.8442487,25.4763587 98.6421874,25.6961809 C99.4401261,25.9160032 100.265341,25.4480563 100.48633,24.65044 L101.17383,22.1563 C101.834709,19.7710051 104.301726,18.3708315 106.68848,19.02642 L134.76953,26.77442 C136.073671,27.1303365 137.180668,27.9942669 137.84277,29.17286 L143.93359,39.95216 C144.598629,41.1215029 144.76947,42.5079098 144.4082,43.80372 L140.3232,58.60646 C138.77633,58.19386 137.22359,57.80665 135.66207,57.47853 C134.388049,57.1278987 133.050335,57.0757648 131.75289,57.32618 C131.224174,57.439736 130.736151,57.6945494 130.34078,58.06349 C129.834559,58.58606 129.533633,59.2735696 129.49316,60 C129.372207,62.02442 130.130322,64.0026353 131.57324,65.42773 C132.803292,66.6243594 134.198701,67.6382771 135.7168,68.43848 L137.34766,69.39258 L133.40527,83.67969 C133.10829,84.7627527 132.414046,85.694111 131.46094,86.28809 C130.75818,86.7271122 130.544378,87.6527097 130.9834,88.35547 C131.422422,89.0582303 132.34802,89.2720322 133.05078,88.83301 C134.641565,87.8407815 135.800732,86.2862783 136.29785,84.47852 L140.02785,70.95996 L140.5801,71.2832 C142.56936,72.44727 144.62697,73.65039 146.52932,74.97461 C147.61525,75.73047 148.69826,76.55861 149.74611,77.36035 C151.411333,78.680087 153.14485,79.9112826 154.93947,81.04883 C157.809947,82.800212 160.946815,84.0717819 164.22658,84.81348 C165.346587,85.0848116 166.493268,85.2308873 167.64553,85.24902 C168.882213,85.2714132 170.108305,85.0175219 171.2344,84.50586 C171.719187,84.276603 172.044717,83.8059919 172.08823,83.2714976 C172.131743,82.7370033 171.88662,82.2199355 171.445298,81.9152842 C171.003976,81.6106329 170.433591,81.564743 169.94924,81.79492 C168.74318,82.36816 167.13479,82.39746 164.88967,81.8877 C161.927546,81.2176214 159.094484,80.069089 156.50197,78.4873 C154.79695,77.4048253 153.150138,76.2332819 151.56838,74.97754 C150.49416,74.15625 149.38381,73.30664 148.24318,72.51172 C146.24418,71.12012 144.13381,69.88672 142.09475,68.69336 L137.23147,65.84863 C135.963489,65.1874281 134.793732,64.3529219 133.75588,63.36914 C132.918735,62.5701947 132.455022,61.4567865 132.47756,60.2998 C132.48049,60.27539 132.48244,60.25391 132.48537,60.23438 C133.341728,60.1143587 134.213749,60.1755739 135.04494,60.41406 C139.660472,61.386175 144.18963,62.7307461 148.58794,64.43457 L149.13872,64.64941 C150.744986,65.3458931 152.424012,65.8608046 154.14458,66.18457 C154.961963,66.3047933 155.724102,65.7454988 155.85458,64.92969 C155.951039,64.2939998 155.629838,63.6679202 155.05722,63.37549 C155.077422,63.1742882 155.056324,62.9710803 154.99522,62.77832 C153.94248,59.44043 151.62122,56.77832 149.57334,54.42969 C148.830291,53.3869824 147.686035,52.7014187 146.41612,52.53809 C145.94615,52.5335382 145.47963,52.6187291 145.0416,52.78909 L146.72031,46.70609 C146.931296,46.8197937 147.166655,46.8807744 147.40631,46.88383 L154.87506,46.92289 C156.354976,46.8670954 157.836084,46.9956868 159.28424,47.3057 C162.52838,48.16606 165.1319,51.08598 167.22467,53.4307 L174.50201,61.59281 C174.858577,61.9926402 175.401366,62.1718723 175.925912,62.0629912 C176.450459,61.9541101 176.877073,61.5736575 177.045052,61.0649462 C177.213032,60.5562349 177.096857,59.9965502 176.74029,59.59672 L169.46289,51.43457 Z M145.44043,55.92871 C145.709206,55.7634648 145.99714,55.6316307 146.29785,55.53613 C146.56738,55.54688 147.12793,56.18945 147.31152,56.40039 C149.019964,58.1837446 150.469949,60.1978132 151.61914,62.38379 C151.16162,62.21533 150.70166,62.03955 150.23145,61.85547 L149.67188,61.6377 C147.55371,60.81641 145.39404,60.08154 143.21188,59.4209 L143.92966,56.81934 L145.44043,55.92871 Z" id="Shape"></path>
            <path d="M47,38.64551 L47,117.35451 C47.0065362,123.23115 51.7688699,127.993475 57.64551,128 L117.35451,128 C123.23115,127.993464 127.993475,123.23113 128,117.35449 L128,53.19922 C128.008118,50.1394837 126.795059,47.2029761 124.62988,45.04102 L111.044,31.40234 C108.870344,29.231597 105.926433,28.0085464 102.85449,28 L57.64549,28 C51.7688499,28.0065362 47.0065251,32.7688699 47,38.64551 Z M108.919,33.51951 L122.50488,47.1582 C124.107425,48.7595543 125.005423,50.9337277 125,53.19922 L125,117.35449 C124.995277,121.575031 121.575031,124.995277 117.35449,125 L57.64549,125 C53.4249571,124.995266 50.0047229,121.575023 50,117.35449 L50,38.64549 C50.004734,34.4249571 53.4249771,31.0047229 57.64551,31 L102.85451,31 C105.12938,31.0061736 107.309463,31.9119026 108.919,33.51953 L108.919,33.51951 Z" id="Shape"></path>
            <path d="M65,102 L111,102 C111.552285,102 112,101.552285 112,101 C112,100.447715 111.552285,100 111,100 L65,100 C64.4477153,100 64,100.447715 64,101 C64,101.552285 64.4477153,102 65,102 Z" id="Shape"></path>
            <path d="M65,112 L111,112 C111.552285,112 112,111.552285 112,111 C112,110.447715 111.552285,110 111,110 L65,110 C64.4477153,110 64,110.447715 64,111 C64,111.552285 64.4477153,112 65,112 Z" id="Shape"></path>
            <path d="M33.33105,114 L31.33105,114 C30.5026229,114 29.83105,114.671573 29.83105,115.5 C29.83105,116.328427 30.5026229,117 31.33105,117 L33.33105,117 C34.1594771,117 34.83105,116.328427 34.83105,115.5 C34.83105,114.671573 34.1594771,114 33.33105,114 Z" id="Shape"></path>
            <path d="M58.33105,136 L56.33105,136 C55.5026229,136 54.83105,136.671573 54.83105,137.5 C54.83105,138.328427 55.5026229,139 56.33105,139 L58.33105,139 C59.1594771,139 59.83105,138.328427 59.83105,137.5 C59.83105,136.671573 59.1594771,136 58.33105,136 Z" id="Shape"></path>
            <path d="M62,135.5 L62,137.5 C62,138.328427 62.6715729,139 63.5,139 C64.3284271,139 65,138.328427 65,137.5 L65,135.5 C65,134.671573 64.3284271,134 63.5,134 C62.6715729,134 62,134.671573 62,135.5 Z" id="Shape"></path>
            <path d="M62,127.5 L62,129.5 C62,130.328427 62.6715729,131 63.5,131 C64.3284271,131 65,130.328427 65,129.5 L65,127.5 C65,126.671573 64.3284271,126 63.5,126 C62.6715729,126 62,126.671573 62,127.5 Z" id="Shape"></path>
            <path d="M0,135.5 L0,137.5 C0,138.328427 0.671572875,139 1.5,139 C2.32842712,139 3,138.328427 3,137.5 L3,135.5 C3,134.671573 2.32842712,134 1.5,134 C0.671572875,134 0,134.671573 0,135.5 Z" id="Shape"></path>
            <path d="M0,125.5 L0,127.5 C0,128.328427 0.671572875,129 1.5,129 C2.32842712,129 3,128.328427 3,127.5 L3,125.5 C3,124.671573 2.32842712,124 1.5,124 C0.671572875,124 0,124.671573 0,125.5 Z" id="Shape"></path>
            <path d="M0,115.5 L0,117.5 C0,118.328427 0.671572875,119 1.5,119 C2.32842712,119 3,118.328427 3,117.5 L3,115.5 C3,114.671573 2.32842712,114 1.5,114 C0.671572875,114 0,114.671573 0,115.5 Z" id="Shape"></path>
            <path d="M49.99772,136 L47.99772,136 C47.1692929,136 46.49772,136.671573 46.49772,137.5 C46.49772,138.328427 47.1692929,139 47.99772,139 L49.99772,139 C50.8261471,139 51.49772,138.328427 51.49772,137.5 C51.49772,136.671573 50.8261471,136 49.99772,136 Z" id="Shape"></path>
            <path d="M33.33105,136 L31.33105,136 C30.5026229,136 29.83105,136.671573 29.83105,137.5 C29.83105,138.328427 30.5026229,139 31.33105,139 L33.33105,139 C34.1594771,139 34.83105,138.328427 34.83105,137.5 C34.83105,136.671573 34.1594771,136 33.33105,136 Z" id="Shape"></path>
            <path d="M41.66439,136 L39.66439,136 C38.8359629,136 38.16439,136.671573 38.16439,137.5 C38.16439,138.328427 38.8359629,139 39.66439,139 L41.66439,139 C42.4928171,139 43.16439,138.328427 43.16439,137.5 C43.16439,136.671573 42.4928171,136 41.66439,136 Z" id="Shape"></path>
            <path d="M41.66439,114 L39.66439,114 C38.8359629,114 38.16439,114.671573 38.16439,115.5 C38.16439,116.328427 38.8359629,117 39.66439,117 L41.66439,117 C42.4928171,117 43.16439,116.328427 43.16439,115.5 C43.16439,114.671573 42.4928171,114 41.66439,114 Z" id="Shape"></path>
            <path d="M10.33105,114 L8.33105,114 C7.50262288,114 6.83105,114.671573 6.83105,115.5 C6.83105,116.328427 7.50262288,117 8.33105,117 L10.33105,117 C11.1594771,117 11.83105,116.328427 11.83105,115.5 C11.83105,114.671573 11.1594771,114 10.33105,114 Z" id="Shape"></path>
            <path d="M10.33105,136 L8.33105,136 C7.50262288,136 6.83105,136.671573 6.83105,137.5 C6.83105,138.328427 7.50262288,139 8.33105,139 L10.33105,139 C11.1594771,139 11.83105,138.328427 11.83105,137.5 C11.83105,136.671573 11.1594771,136 10.33105,136 Z" id="Shape"></path>
            <path d="M18.66439,136 L16.66439,136 C15.8359629,136 15.16439,136.671573 15.16439,137.5 C15.16439,138.328427 15.8359629,139 16.66439,139 L18.66439,139 C19.4928171,139 20.16439,138.328427 20.16439,137.5 C20.16439,136.671573 19.4928171,136 18.66439,136 Z" id="Shape"></path>
            <path d="M18.66439,114 L16.66439,114 C15.8359629,114 15.16439,114.671573 15.16439,115.5 C15.16439,116.328427 15.8359629,117 16.66439,117 L18.66439,117 C19.4928171,117 20.16439,116.328427 20.16439,115.5 C20.16439,114.671573 19.4928171,114 18.66439,114 Z" id="Shape"></path>
            <path d="M31.66113,144.67676 L30.44043,144.67676 C29.725305,144.677728 29.026055,144.465947 28.43164,144.06836 L26.23145,142.60156 L26.23145,130.957 L30.99609,130.957 C31.8245171,130.957 32.49609,130.285427 32.49609,129.457 C32.49609,128.628573 31.8245171,127.957 30.99609,127.957 L26.23145,127.957 L26.23145,108.98047 L28.43164,107.51367 C29.0261157,107.116211 29.7253257,106.904442 30.44043,106.90527 L31.66113,106.90527 C32.4895571,106.90527 33.16113,106.233697 33.16113,105.40527 C33.16113,104.576843 32.4895571,103.90527 31.66113,103.90527 L30.44043,103.90527 C29.133015,103.904176 27.8547137,104.291305 26.76758,105.01758 L24.73145,106.375 L22.69531,105.01758 C21.6081771,104.291303 20.3298753,103.904174 19.02246,103.90527 L17.80078,103.90527 C16.9723529,103.90527 16.30078,104.576843 16.30078,105.40527 C16.30078,106.233697 16.9723529,106.90527 17.80078,106.90527 L19.02246,106.90527 C19.7375643,106.904442 20.4367743,107.116211 21.03125,107.51367 L23.23145,108.98047 L23.23145,127.957 L18.4668,127.957 C17.6383729,127.957 16.9668,128.628573 16.9668,129.457 C16.9668,130.285427 17.6383729,130.957 18.4668,130.957 L23.23145,130.957 L23.23145,142.60153 L21.03027,144.06931 C20.4359882,144.466292 19.737138,144.677714 19.02246,144.67673 L17.80078,144.67673 C16.9723529,144.67673 16.30078,145.348303 16.30078,146.17673 C16.30078,147.005157 16.9723529,147.67673 17.80078,147.67673 L19.02246,147.67673 C20.3299799,147.678535 21.6084834,147.291345 22.69531,146.56442 L24.73145,145.207 L26.7666,146.56345 C27.8535635,147.29097 29.132465,147.678516 30.44043,147.67673 L31.66113,147.67673 C32.4895571,147.67673 33.16113,147.005157 33.16113,146.17673 C33.16113,145.348303 32.4895571,144.67673 31.66113,144.67673 L31.66113,144.67676 Z" id="Shape"></path>
        </g>
    </g>
</svg>