<?xml version="1.0" encoding="UTF-8"?>
<svg width="162px" height="163px" viewBox="0 0 162 163" version="1.1" xmlns="http://www.w3.org/2000/svg" xmlns:xlink="http://www.w3.org/1999/xlink">
    <!-- Generator: Sketch 49 (51002) - http://www.bohemiancoding.com/sketch -->
    <title>S_IlluCCFilesEmpty_dark_180x180</title>
    <desc>Created with Sketch.</desc>
    <defs></defs>
    <g id="Page-1" stroke="none" stroke-width="1" fill="none" fill-rule="evenodd">
        <g id="S_IlluCCFilesEmpty_dark_180x180" fill="#999999" fill-rule="nonzero">
            <path d="M3.86133,43.999 C5.54869461,43.9954127 7.0423136,42.9069248 7.5625,41.30174 L13.8457,21.03807 C14.2177365,19.8234964 15.3410617,18.9956867 16.61133,19 L56.6377,19 C57.1685182,19.0001745 57.6655873,19.2603452 57.9682499,19.6964225 C58.2709125,20.1324997 58.3407798,20.6891729 58.15527,21.18652 L57.501,22.97461 C57.2162282,23.7523374 57.6158476,24.6136632 58.393575,24.898435 C59.1713024,25.1832068 60.0326282,24.7835874 60.3174,24.00586 L60.97072,22.22266 C61.494739,20.8049618 61.2922696,19.2205982 60.4285716,17.9802395 C59.5648736,16.7398808 58.1491443,16.0003456 56.6377,16 L16.61133,16 C14.025072,15.9911717 11.7379624,17.6765547 10.98047,20.14941 L4.70117,40.39941 C4.57288867,40.7919413 4.18681583,41.0406302 3.77637,40.99512 C3.30214393,40.8845073 2.97517243,40.450192 3,39.96387 L3,5.40137 C3.00144947,4.07573083 4.07573083,3.00144947 5.40137,3 L18.60352,3 C19.0255589,2.99898143 19.431189,3.1634047 19.7334,3.458 L24.55957,8.13671 C25.129447,8.69173209 25.8939585,9.00160643 26.68945,9 L45.59863,9 C46.9242692,9.00144947 47.9985505,10.0757308 48,11.40137 L48,12.5 C48,13.3284271 48.6715729,14 49.5,14 C50.3284271,14 51,13.3284271 51,12.5 L51,11.40137 C50.9967648,8.41961681 48.5803832,6.00323518 45.59863,6 L26.64746,5.98242 L21.82129,1.30371 C20.9602438,0.465397946 19.8052526,-0.0025576959 18.60352,0 L5.40137,0 C2.41961681,0.00323518309 0.00323518309,2.41961681 2.50667542e-16,5.40137 L2.50667542e-16,39.96387 C-0.0268624009,41.990601 1.46776569,43.716493 3.47754,43.97949 C3.60503645,43.9927566 3.73314547,43.999269 3.86133,43.999 Z" id="Shape"></path>
            <path d="M10.5,41 C9.67157288,41 9,41.6715729 9,42.5 C9,43.3284271 9.67157288,44 10.5,44 L26.5,44 C27.3284271,44 28,43.3284271 28,42.5 C28,41.6715729 27.3284271,41 26.5,41 L10.5,41 Z" id="Shape"></path>
            <path d="M149.53027,106.03418 L101.06738,146.84668 C100.967802,146.929624 100.87978,147.02553 100.80566,147.13184 L93.38184,157.69629 C92.9864459,158.259495 93.0249014,159.01948 93.475127,159.539896 C93.9253525,160.060312 94.6718979,160.20771 95.28613,159.89746 L106.80762,154.06934 C106.910981,154.016808 107.007969,153.952585 107.09668,153.87793 L155.57617,113.05176 C157.506702,111.380413 157.720252,108.461852 156.053563,106.527298 C154.386873,104.592743 151.468837,104.372159 149.53027,106.03418 Z M153.62891,110.77051 L105.29785,151.4707 L99.28613,154.5117 L103.14844,149.0156 L151.47656,108.31639 C151.975706,107.884178 152.686091,107.795278 153.276353,108.091157 C153.866615,108.387035 154.220466,109.009401 154.17285,109.66795 C154.144547,110.09296 153.948952,110.489428 153.62891,110.77051 Z" id="Shape"></path>
            <path d="M113,117.35449 L113,53.19922 C113.008118,50.1394837 111.795059,47.2029761 109.62988,45.04102 L96.044,31.40234 C93.8703436,29.231597 90.9264331,28.0085464 87.85449,28 L42.64549,28 C36.7688499,28.0065362 32.0065251,32.7688699 32,38.64551 L32,117.35451 C32.0065362,123.23115 36.7688699,127.993475 42.64551,128 L102.35451,128 C108.23115,127.993464 112.993475,123.23113 113,117.35449 Z M35,117.35449 L35,38.64549 C35.004734,34.4249571 38.4249771,31.0047229 42.64551,31 L87.85451,31 C90.12937,31.0061815 92.3094408,31.9119099 93.91897,33.51953 L107.50488,47.1582 C109.107425,48.7595543 110.005423,50.9337277 110,53.19922 L110,117.35449 C109.995277,121.575031 106.575031,124.995277 102.35449,125 L42.64549,125 C38.4249571,124.995266 35.0047229,121.575023 35,117.35449 Z" id="Shape"></path>
            <path d="M153.96973,51.43457 C151.61133,48.78906 148.6748,45.49805 144.56152,44.40625 C142.867969,44.0226443 141.131841,43.8601575 139.39652,43.92285 L131.96781,43.88379 C132.307321,42.0294262 131.983024,40.114728 131.05181,38.47559 L124.96099,27.69629 C123.908225,25.8220466 122.148028,24.4480819 120.07427,23.88184 L91.99419,16.13384 C88.0097048,15.0354218 83.8888855,17.3736271 82.78814,21.35747 L82.09966,23.85259 C81.8801849,24.6509512 82.3488977,25.4761961 83.1470018,25.6966047 C83.9451059,25.9170133 84.7708983,25.4492658 84.99224,24.65142 L85.68071,22.1563 C86.3407194,19.7703272 88.8084694,18.3697376 91.19536,19.02642 L119.27544,26.77442 C120.579848,27.1302982 121.687166,27.9942034 122.34966,29.17286 L128.44048,39.95118 C129.105116,41.1213966 129.275586,42.5083655 128.91411,43.8047 L124.83062,58.60694 C123.28325,58.19386 121.73052,57.80714 120.169,57.47853 C118.893915,57.128324 117.555348,57.076196 116.25689,57.32618 C115.728018,57.4404301 115.240009,57.6959101 114.84478,58.06544 C114.340382,58.5881732 114.040579,59.2747274 114,60 C113.878911,62.024441 114.637047,64.0027106 116.08008,65.42773 C117.31013,66.6243572 118.705536,67.6382747 120.22363,68.43848 L121.85449,69.39258 L117.91211,83.67969 C117.615104,84.7630168 116.920438,85.6944706 115.9668,86.28809 C115.26404,86.7271122 115.050238,87.6527097 115.48926,88.35547 C115.928282,89.0582302 116.85388,89.2720322 117.55664,88.83301 C119.147621,87.8407749 120.307099,86.286324 120.80469,84.47852 L124.53469,70.95996 L125.08693,71.2832 C127.07619,72.44727 129.13381,73.65039 131.03615,74.97461 C132.12015,75.72949 133.20215,76.55661 134.24807,77.35742 C135.914634,78.6782262 137.649798,79.9100854 139.44631,81.04785 C142.31635,82.7996215 145.452906,84.0715305 148.73244,84.81348 C149.852777,85.0848066 150.999779,85.2308817 152.15236,85.24902 C153.389043,85.2714142 154.615136,85.0175229 155.74123,84.50586 C156.226017,84.276603 156.551547,83.8059919 156.59506,83.2714976 C156.638573,82.7370033 156.39345,82.2199355 155.952128,81.9152842 C155.510806,81.6106329 154.940421,81.564743 154.45607,81.79492 C153.24907,82.36914 151.64162,82.39746 149.39553,81.8877 C146.433741,81.2175336 143.601016,80.0690034 141.00881,78.4873 C139.302487,77.4038425 137.654373,76.2313239 136.07131,74.97461 C134.99807,74.15332 133.88967,73.30566 132.75002,72.51172 C130.75102,71.12012 128.64064,69.88672 126.60158,68.69336 L121.7383,65.84863 C120.470322,65.187428 119.300568,64.3529217 118.26272,63.36914 C117.425721,62.5700944 116.962036,61.4567534 116.9844,60.2998 C116.98732,60.27539 116.98928,60.25391 116.99221,60.23438 C117.848551,60.1138648 118.720675,60.1750873 119.55178,60.41406 C124.167151,61.3868093 128.696259,62.7313653 133.09478,64.43457 L133.64556,64.64941 C135.251297,65.3454862 136.929629,65.860386 138.64946,66.18457 C139.3753,66.2984563 140.076407,65.8684031 140.303858,65.1697765 C140.53131,64.47115 140.217774,63.7107601 139.56401,63.37549 C139.584192,63.1742883 139.563095,62.9710843 139.50201,62.77832 C138.44733,59.43848 136.12701,56.77732 134.07916,54.42871 C133.335318,53.3870268 132.191401,52.7020216 130.92194,52.53809 C130.452387,52.5341345 129.986331,52.6191248 129.5484,52.78857 L131.22613,46.70657 C131.437241,46.8198953 131.672546,46.8806939 131.91213,46.88382 L139.38088,46.92288 C140.861122,46.8670428 142.342559,46.9956342 143.79104,47.30569 C147.03518,48.16702 149.63869,51.08597 151.73147,53.43069 L159.00881,61.5928 C159.365377,61.9926302 159.908166,62.1718623 160.432712,62.0629812 C160.957259,61.9541002 161.383873,61.5736475 161.551852,61.0649362 C161.719832,60.5562249 161.603657,59.9965402 161.24709,59.59671 L153.96973,51.43457 Z M129.94727,55.92871 C130.206154,55.7512292 130.493027,55.6185208 130.7959,55.53613 L130.80371,55.53613 C131.07324,55.54688 131.63477,56.19043 131.81836,56.40039 C133.521437,58.1870566 134.96983,60.2001824 136.12256,62.38281 C135.6665,62.21481 135.20756,62.03955 134.73926,61.85645 L134.17871,61.6377 C132.06055,60.81689 129.90088,60.08203 127.71826,59.42139 L128.43652,56.81885 L129.94727,55.92871 Z" id="Shape"></path>
            <path d="M85.40527,69.62158 C88.618952,73.655783 88.1231308,79.4974472 84.2754993,82.9323092 C80.4278677,86.3671712 74.5675911,86.19973 70.92236,82.55078 L65.24072,76.85205 C64.8455188,76.4110037 64.1676063,76.3738389 63.72656,76.76904 C63.2855137,77.1642412 63.2483489,77.8421537 63.64355,78.2832 C63.66355,78.3052 63.68408,78.32666 63.70555,78.34668 L69.41502,84.07468 C74.014747,88.6700036 81.4558157,88.7082995 86.102598,84.1605637 C90.7493804,79.6128278 90.8713902,72.172661 86.3762212,67.475008 C81.8810521,62.7773551 74.4427289,62.5716468 69.6948,67.01368 C70.410757,67.2989081 71.0967215,67.6543075 71.74266,68.07468 C75.9426784,64.7291172 82.0595596,65.4216792 85.40527,69.62158 Z" id="Shape"></path>
            <path d="M65.24463,92.294 L76.7002,92.294 C78.40967,92.294 80.43555,92.07915 80.52002,92.06939 C87.5467818,90.9321125 93.0668533,85.4423533 94.2428057,78.4219603 C95.418758,71.4015673 91.988929,64.4126533 85.7163206,61.0476621 C79.4437122,57.682671 71.7240471,58.6903493 66.52539,63.55273 L66.34473,63.72119 C65.9785233,63.6943367 65.61215,63.6808267 65.24561,63.68066 C57.3489345,63.6869802 50.9506866,70.0901274 50.9504106,77.9868054 C50.9501346,85.8834834 57.347935,92.2870778 65.24461,92.29395 L65.24463,92.294 Z M65.23828,65.27837 C65.7944683,65.2781813 66.3501092,65.3132516 66.90186,65.38337 L67.61133,64.71882 C72.302702,60.3376377 79.261298,59.4257598 84.9231308,62.4502232 C90.5849636,65.4746866 93.6959507,71.76558 92.6627365,78.1008935 C91.6295223,84.4362071 86.6809612,89.4126841 80.35156,90.48152 C80.35156,90.48152 78.34131,90.69636 76.70117,90.69636 L65.24561,90.69636 C58.2743577,90.6312266 52.6567732,84.9625461 52.6547628,77.9909899 C52.6527523,71.0194336 58.2670665,65.3475141 65.23828,65.27836 L65.23828,65.27837 Z" id="Shape"></path>
            <path d="M65.3335,87.55518 L70.34326,87.55518 C69.3807657,86.951969 68.4949153,86.2343449 67.70508,85.418 L65.33594,85.418 C61.218613,85.418 57.88086,82.080247 57.88086,77.96292 C57.88086,73.845593 61.218613,70.50784 65.33594,70.50784 C67.137728,70.4765863 68.8840473,71.1313064 70.22119,72.33939 L74.53809,76.76907 C74.8051156,77.044333 75.1988647,77.1559487 75.5706184,77.0617599 C75.9423722,76.967571 76.2354717,76.6819329 76.3392133,76.312731 C76.4429549,75.9435291 76.3415274,75.5470333 76.07324,75.273 L71.75977,70.836 C70.0124846,69.2176301 67.7100233,68.3327279 65.32861,68.36432 C62.7856496,68.3636436 60.346584,69.3732306 58.5480278,71.1709635 C56.7494716,72.9686964 55.7387679,75.4072996 55.73828,77.95026 L55.73828,77.95611 L55.73928,77.96344 C55.7399758,83.261492 60.035448,87.5558538 65.3335,87.55518 Z" id="Shape"></path>
            <path d="M97,101 L50,101 C49.4477153,101 49,101.447715 49,102 C49,102.552285 49.4477153,103 50,103 L97,103 C97.5522847,103 98,102.552285 98,102 C98,101.447715 97.5522847,101 97,101 Z" id="Shape"></path>
            <path d="M97,111 L50,111 C49.4477153,111 49,111.447715 49,112 C49,112.552285 49.4477153,113 50,113 L97,113 C97.5522847,113 98,112.552285 98,112 C98,111.447715 97.5522847,111 97,111 Z" id="Shape"></path>
            <path d="M59.80664,129.76367 C59.3998994,129.042195 58.4853473,128.786978 57.7638003,129.193591 C57.0422532,129.600204 56.7868747,130.514711 57.19336,131.23633 L61.79199,139.39941 C62.6999247,141.283512 61.9119372,143.547029 60.03027,144.46 L29.41992,159.26172 C27.5359976,160.172538 25.2704079,159.383821 24.35938,157.5 L4.83691,117.127 C3.92900297,115.242911 4.71698704,112.979427 6.59863,112.06646 L27.7373,101.84473 C28.2209739,101.612002 28.5434727,101.138615 28.5830196,100.603322 C28.6225666,100.068029 28.3731362,99.5523887 27.9289143,99.2511088 C27.4846924,98.9498289 26.9133622,98.9088134 26.43066,99.14355 L5.292,109.36523 C1.92070736,111.001766 0.509100219,115.057516 2.13575,118.43359 L21.65821,158.80659 C22.4384735,160.430219 23.8354149,161.674562 25.5381,162.26265 C27.2382578,162.859412 29.1064649,162.751459 30.72657,161.96284 L61.33692,147.16108 C62.9669762,146.364289 64.2120191,144.950396 64.7962142,143.232644 C65.3804092,141.514891 65.2555253,139.635096 64.44923,138.00972 L59.80664,129.76367 Z" id="Shape"></path>
            <path d="M42.98633,130.37793 C42.503659,130.202215 41.9708599,130.226115 41.50586,130.44434 C41.0320135,130.664809 40.6664752,131.066229 40.49121,131.55859 L39.49609,134.56543 L32.52148,131.89062 C32.0803355,131.726927 31.591969,131.747 31.1657468,131.946346 C30.7395247,132.145691 30.4110599,132.507652 30.25391,132.95117 L24.57227,149.168 C24.4381533,149.550434 24.5480955,149.976001 24.8506657,150.24562 C25.1532359,150.515239 25.5886099,150.575602 25.95312,150.39847 L54.41406,136.56937 C54.7721831,136.395048 54.9927455,136.024859 54.9755737,135.626932 C54.9584018,135.229006 54.706769,134.879193 54.33496,134.73637 L42.98633,130.37793 Z M27.26172,147.53906 L32.05664,133.85449 L45.11719,138.8623 L27.26172,147.53906 Z M47.58105,137.66606 L41.36523,135.28227 L42.35938,132.27934 L51.4668,135.77734 L47.58105,137.66606 Z" id="Shape"></path>
        </g>
    </g>
</svg>