<?xml version="1.0" encoding="UTF-8"?>
<svg width="118px" height="76px" viewBox="0 0 118 76" version="1.1" xmlns="http://www.w3.org/2000/svg" xmlns:xlink="http://www.w3.org/1999/xlink">
    <!-- Generator: Sketch 49 (51002) - http://www.bohemiancoding.com/sketch -->
    <title>S_IlluNoInternetConnection_dark_120x80</title>
    <desc>Created with Sketch.</desc>
    <defs></defs>
    <g id="Page-1" stroke="none" stroke-width="1" fill="none" fill-rule="evenodd">
        <g id="S_IlluNoInternetConnection_dark_120x80" fill="#999999" fill-rule="nonzero">
            <path d="M94.7251,28.06738 C94.11182,28.04004 93.4961,28.03516 92.88281,28.05273 C92.9527726,26.8197868 92.9382553,25.5835004 92.83936,24.35254 C91.7878471,11.5981639 81.7598605,1.42390008 69.0220482,0.187807334 C56.2842359,-1.04828541 44.4871303,7.00804505 41.00293,19.32227 C39.4603648,18.8212585 37.8663476,18.4953168 36.25093,18.35059 C35.4257393,18.2764292 34.6966708,18.8852593 34.62251,19.71045 C34.5483492,20.5356407 35.1571793,21.2647092 35.98237,21.33887 C37.8734937,21.5079497 39.7276143,21.9653893 41.48037,22.69531 C41.892187,22.8667673 42.3589452,22.8460714 42.7539712,22.638839 C43.1489972,22.4316066 43.4313164,22.0593332 43.52431,21.62305 C45.9553226,10.2452122 56.3577163,2.36775115 67.9685298,3.11208101 C79.5793432,3.85641087 88.8907255,12.9976552 89.84902,24.59277 C89.9801133,26.2217027 89.9444481,27.8597668 89.74258,29.48145 C89.6853399,29.9360476 89.8391534,30.3918594 90.1601323,30.7188272 C90.4811113,31.045795 90.934002,31.2080074 91.38958,31.15918 C97.081557,30.5521358 102.7745,32.2964663 107.149378,35.9880174 C111.524255,39.6795684 114.201383,44.9979589 114.56048,50.71094 C114.921083,56.4823171 112.883681,62.1466385 108.929494,66.366027 C104.975308,70.5854155 99.454974,72.9857187 93.67236,73 L16.29248,73 C12.8700609,72.943003 9.63261373,71.4362641 7.38525,68.85449 C4.99658954,66.256647 3.64916973,62.8695772 3.60059,59.34082 C3.58049,50.23208 12.64373,47.62176 15.16159,47.40039 C15.6177931,47.3602582 16.0306698,47.1139186 16.2826583,46.7315135 C16.5346468,46.3491084 16.5981367,45.872538 16.45505,45.4375 C16.0296481,44.1407464 15.7470482,42.8014364 15.61227,41.44336 C15.5592393,40.9100786 15.2257346,40.4455978 14.737384,40.224883 C14.2490334,40.0041682 13.6800289,40.0607513 13.244709,40.373318 C12.8093891,40.6858847 12.5738893,41.2069486 12.62692,41.74023 C12.7248833,42.7272747 12.8903102,43.7064543 13.12204,44.6709 C13.02192,44.69139 0.57278,47.1073 0.60056,59.34668 C0.653864003,63.6225752 2.28155874,67.7287592 5.17233,70.87988 C7.98408222,74.0859215 12.0250415,75.9470979 16.28906,76 L93.67578,76 C100.285016,75.9849424 106.595001,73.2427237 111.115354,68.4210397 C115.635707,63.5993557 117.965587,57.1257681 117.55469,50.5293 C116.700809,38.3549497 106.911708,28.7235026 94.7251,28.06738 Z" id="Shape"></path>
            <path d="M10.427735,34.5068408 C10.8255497,34.5068408 11.207059,34.3487538 11.48828,34.06738 L18.5105,27.04538 L25.53271,34.06738 C26.1184328,34.6531056 27.0680794,34.6531078 27.653805,34.067385 C28.2395306,33.4816622 28.2395328,32.5320156 27.65381,31.94629 L20.63159,24.92429 L27.65381,17.90229 C28.0327062,17.523392 28.1806811,16.971137 28.0419939,16.4535543 C27.9033067,15.9359715 27.4990273,15.531694 26.9814439,15.3930093 C26.4638605,15.2543245 25.9116062,15.402302 25.53271,15.7812 L18.5105,22.8032 L11.48828,15.7812 C11.1096321,15.4010658 10.5567658,15.2521516 10.0384164,15.3906802 C9.52006702,15.5292088 9.11519882,15.934077 8.97667021,16.4524264 C8.83814159,16.9707758 8.98705575,17.5236421 9.36719,17.90229 L16.3894,24.92429 L9.36719,31.94629 C9.08581863,32.2275123 8.92773331,32.6090212 8.92773331,33.006835 C8.92773331,33.4046488 9.08581863,33.7861577 9.36719,34.06738 C9.64841105,34.3487538 10.0299203,34.5068408 10.427735,34.5068408 Z" id="Shape"></path>
        </g>
    </g>
</svg>