<?xml version="1.0" encoding="UTF-8"?>
<svg width="265px" height="190px" viewBox="0 0 265 190" version="1.1" xmlns="http://www.w3.org/2000/svg" xmlns:xlink="http://www.w3.org/1999/xlink">
    <!-- Generator: Sketch 49 (51002) - http://www.bohemiancoding.com/sketch -->
    <title>S_IlluEmptyStateCCFiles_dark_280x192</title>
    <desc>Created with Sketch.</desc>
    <defs></defs>
    <g id="Page-1" stroke="none" stroke-width="1" fill="none" fill-rule="evenodd">
        <g id="S_IlluEmptyStateCCFiles_dark_280x192" fill="#999999" fill-rule="nonzero">
            <path d="M76.53516,27.31445 C76.7128944,27.3148497 76.8892347,27.2830881 77.05566,27.2207 C89.3328365,22.8103206 102.33099,20.7522987 115.37012,21.1543 L132.794,21.1543 L127.82227,26.126 C127.442136,26.5046479 127.293222,27.0575142 127.43175,27.5758636 C127.570279,28.094213 127.975147,28.4990812 128.493496,28.6376098 C129.011846,28.7761384 129.564712,28.6272242 129.94336,28.24709 L137.33736,20.85309 C137.718122,20.5722027 137.943276,20.1275156 137.9443,19.65436 L137.9423,19.63483 C137.9423,19.62115 137.9384,19.60748 137.93815,19.59383 C137.931965,19.4446985 137.90324,19.2973625 137.85295,19.15683 C137.827938,19.0856011 137.79717,19.0165263 137.76095,18.95029 C137.716346,18.8669122 137.663945,18.7879462 137.60445,18.71445 C137.574441,18.6624298 137.541171,18.6123598 137.50484,18.56454 L129.84762,10.90732 C129.468724,10.5284219 128.91647,10.3804444 128.398886,10.5191292 C127.881303,10.6578139 127.477023,11.0620914 127.338336,11.5796742 C127.199649,12.097257 127.347624,12.649512 127.72652,13.02841 L132.85252,18.15441 L115.40039,18.15441 C101.995661,17.7486568 88.6343697,19.8702415 76.01465,24.40831 C75.3336852,24.6605265 74.9312292,25.3643605 75.0592498,26.0791591 C75.1872704,26.7939577 75.8089877,27.3143621 76.53516,27.31456 L76.53516,27.31445 Z" id="Shape"></path>
            <path d="M236.51465,118.37012 C235.836152,118.018374 235.409116,117.318939 235.40625,116.55469 C235.404311,115.633648 236.018199,114.824913 236.905842,114.579128 C237.793486,114.333342 238.73592,114.711139 239.208,115.502 C239.640011,116.209074 240.563421,116.432056 241.270495,116.000045 C241.977569,115.568034 242.200551,114.644624 241.76854,113.93755 C240.595483,111.999945 238.275033,111.081436 236.093631,111.691238 C233.912229,112.301039 232.404468,114.289708 232.40624,116.55474 C232.406179,117.23817 232.545664,117.914415 232.81615,118.54204 L222.7683,133.11138 C230.270172,116.126193 231.33351,96.991183 225.75976,79.27938 C225.598224,78.768601 225.176461,78.3828 224.653346,78.2673046 C224.13023,78.1518093 223.585236,78.324166 223.223656,78.7194496 C222.862076,79.1147333 222.738844,79.672891 222.90038,80.18367 C229.551664,101.296154 226.298243,124.284134 214.04955,142.72176 L211.707,142.72176 C209.917988,142.723932 208.468401,144.173958 208.46677,145.96297 L208.46677,149.63973 C208.47203,149.760614 208.484257,149.881094 208.50339,150.00057 C193.66403,167.13826 171.3613,177.16463 145.3652,178.42098 L150.25974,173.52645 C150.845466,172.940724 150.845465,171.991076 150.25974,171.40535 C149.674014,170.819625 148.724366,170.819624 148.13864,171.40535 L140.57712,178.96688 C140.295754,179.248105 140.137672,179.629613 140.137672,180.027425 C140.137672,180.425237 140.295754,180.806745 140.57712,181.08797 L148.23532,188.7452 C148.614218,189.124098 149.166474,189.272075 149.684058,189.133388 C150.201643,188.994702 150.605922,188.590423 150.744608,188.072838 C150.883295,187.555254 150.735318,187.002998 150.35642,186.6241 L145.16867,181.4371 C168.48142,180.37851 188.96237,172.4581 204.06686,158.80917 L194.10935,172.4078 C191.682166,171.379885 188.87108,172.360625 187.610066,174.675291 C186.349052,176.989956 187.049357,179.883679 189.229185,181.365632 C191.409012,182.847585 194.357468,182.434468 196.04607,180.410497 C197.734672,178.386527 197.612727,175.411768 195.76413,173.5328 L210.95749,152.7838 C211.202678,152.845208 211.454251,152.877494 211.707,152.87999 L215.38474,152.87999 C217.173561,152.878281 218.623261,151.428581 218.62497,149.63976 L218.62497,145.963 C218.622125,145.175506 218.330415,144.41643 217.80515,143.8297 L234.05246,120.27159 C234.373456,120.566923 234.730934,120.819956 235.11618,121.02452 C235.590323,121.274327 236.16172,121.252206 236.615131,120.96649 C237.068542,120.680773 237.335084,120.174869 237.314351,119.639345 C237.293619,119.103821 236.988763,118.620037 236.51462,118.37023 L236.51465,118.37012 Z M194.06152,177.83887 C193.856587,178.342202 193.458905,178.742695 192.95703,178.95117 L192.95603,178.95117 C192.054747,179.327426 191.013187,179.014711 190.468205,178.204233 C189.923223,177.393755 190.026565,176.311185 190.715043,175.618453 C191.403522,174.925721 192.485435,174.815713 193.299254,175.355693 C194.113074,175.895672 194.432198,176.935286 194.0615,177.83887 L194.06152,177.83887 Z M215.625,149.63965 C215.625045,149.703377 215.59975,149.764506 215.554688,149.809568 C215.509626,149.85463 215.448497,149.879925 215.38477,149.87988 L211.707,149.87988 C211.643273,149.879925 211.582144,149.85463 211.537082,149.809568 C211.49202,149.764506 211.466725,149.703377 211.46677,149.63965 L211.46677,145.96289 C211.466598,145.829985 211.574095,145.72205 211.707,145.72168 L214.03513,145.72168 C214.464507,145.968182 214.990937,145.974649 215.42624,145.73877 C215.537927,145.755658 215.621567,145.849984 215.62497,145.96289 L215.625,149.63965 Z" id="Shape"></path>
            <path d="M241.62109,117.32812 C240.927541,116.620386 239.874716,116.40265 238.957333,116.777225 C238.039951,117.1518 237.440409,118.044213 237.44043,119.03512 L237.44043,149.99019 C237.432427,151.025857 238.086427,151.951048 239.06543,152.28902 C239.331295,152.383627 239.611354,152.432177 239.89355,152.43258 C240.626046,152.431605 241.318409,152.097818 241.77539,151.52535 L249.33105,142.19723 L261.61523,143.96773 C262.650811,144.11691 263.666223,143.589183 264.139256,142.655951 C264.612289,141.722718 264.437621,140.591769 263.70508,139.84473 L241.62109,117.32812 Z M248.91602,139.10645 C248.393324,139.033189 247.870268,139.237879 247.53613,139.64645 L240.44043,148.40622 L240.44043,120.4082 L260.40234,140.76172 L248.91602,139.10645 Z" id="Shape"></path>
            <path d="M157.0708,26.44287 C157.0708,34.30225 162.94214,39.38037 172.02856,39.38037 C176.841878,39.4233409 181.59759,38.3315032 185.91016,36.19337 C186.720476,35.8205391 187.227464,34.9973804 187.1958,34.10597 C187.195838,34.0228769 187.190621,33.9398645 187.18018,33.85743 C187.074141,32.8291391 187.032726,31.7952078 187.05618,30.76173 L187.05618,15.22656 C187.05618,5.77295 181.59476,0.12939 172.44681,0.12939 C168.731991,0.0866937743 165.054036,0.869365113 161.67847,2.4209 C161.598316,2.45983048 161.520833,2.50403415 161.44653,2.55322 C160.671139,3.02483453 160.2002,3.86883608 160.20605,4.77637 L160.20605,9.02588 C160.194932,9.65278721 160.436814,10.2577445 160.877086,10.7041713 C161.317358,11.150598 161.918899,11.4008543 162.5459,11.39844 C162.811691,11.3984419 163.075714,11.3552351 163.32764,11.27051 C163.43807,11.2338595 163.545018,11.1874531 163.64722,11.13184 C166.085381,9.87297683 168.797643,9.23831659 171.54122,9.28467 C176.27022,9.28467 177.27584,11.9502 177.39937,13.81738 C176.66109,13.79738 175.74361,13.78369 174.60665,13.78369 C163.79,13.78369 157.0708,18.63428 157.0708,26.44287 Z M171.54126,7.28467 C168.464791,7.24083496 165.425239,7.95859706 162.69336,9.37402 C162.645823,9.3899699 162.596041,9.39821402 162.5459,9.39844 C162.448696,9.40244591 162.354698,9.36325189 162.289133,9.29137704 C162.223569,9.2195022 162.193154,9.12230803 162.20605,9.02588 L162.20605,4.77637 C162.205898,4.53920802 162.341051,4.32273785 162.5542,4.21875 C165.655908,2.7970772 169.03509,2.08337775 172.44678,2.12939 C181.36426,2.12939 185.05615,7.98096 185.05615,15.22656 L185.05615,30.76172 C185.031479,31.8783027 185.078124,32.9953215 185.1958,34.10596 C185.1958,34.24512 185.1958,34.31543 185.05615,34.38477 C181.009929,36.3947662 176.546339,37.4211362 172.02856,37.38037 C164.64404,37.38037 159.0708,33.75781 159.0708,26.44287 C159.0708,19.05811 165.96753,15.78369 174.60669,15.78369 C177.18433,15.78369 178.64697,15.85352 179.41357,15.92285 L179.41357,14.251 C179.41357,12.09131 178.36816,7.28467 171.54126,7.28467 Z" id="Shape"></path>
            <path d="M164.78369,26.44287 C164.78369,29.57764 166.94336,32.64258 173.07397,32.64258 C175.244931,32.6744668 177.400362,32.2720489 179.41357,31.45898 L179.41357,20.521 C177.889158,20.321741 176.352749,20.2285803 174.81543,20.24219 C168.05786,20.24219 164.78369,22.5415 164.78369,26.44287 Z M177.41357,30.04932 C176.003778,30.4579702 174.541715,30.6578465 173.07397,30.64258 C170.72485,30.64258 166.78369,30.09717 166.78369,26.44287 C166.78369,23.65527 169.48584,22.24219 174.81543,22.24219 C175.83743,22.24219 176.70143,22.27637 177.41357,22.32568 L177.41357,30.04932 Z" id="Shape"></path>
            <path d="M57.96875,111.01074 C57.2304779,109.831037 55.6924119,109.444795 54.48438,110.13574 L33.583,121.88965 L2.24755,130.88765 C1.58165263,131.078097 1.02021974,131.528148 0.68944,132.13665 C0.370086967,132.726727 0.305363891,133.421572 0.51024,134.06048 L11.26366,167.90032 C11.7074128,169.218811 13.1104394,169.954347 14.44726,169.56932 L20.32763,167.88084 L22.87401,171.97264 C23.3455321,172.728623 24.1744444,173.187034 25.06542,173.18455 C25.5170975,173.18432 25.961082,173.067605 26.35448,172.84568 L50.68456,159.16355 L69.64647,153.71873 C70.3122007,153.527514 70.8731275,153.076723 71.20311,152.46773 C71.5217927,151.878138 71.5863328,151.184105 71.38183,150.54586 L70.56737,147.98238 L75.98337,144.93648 C76.5855883,144.598368 77.0242015,144.029652 77.19821,143.36129 C77.3692827,142.704828 77.2614947,142.006853 76.90036,141.43258 L57.96875,111.01074 Z M55.63086,112.93262 L57.01709,115.16016 L46.09058,118.29785 L55.63086,112.93262 Z M25.209,170.04785 L23.3252,167.02 L38.17651,162.75535 L25.209,170.04785 Z M13.9917,166.5791 L3.52539,133.64258 L57.90039,118.02734 L67.33618,147.72021 L67.34229,147.73921 L68.36719,150.96479 L13.9917,166.5791 Z M69.63916,145.062 L63.39331,125.40624 L74.07324,142.56835 L69.63916,145.062 Z" id="Shape"></path>
            <path d="M50.69336,135.4043 C51.2641039,135.404248 51.8320596,135.324708 52.38086,135.16797 C53.9198881,134.743057 55.2189046,133.70857 55.97754,132.30371 C56.7026473,130.970565 56.8525282,129.399311 56.39254,127.95312 C55.3506406,124.868848 52.0634333,123.153337 48.93746,124.0625 C47.3975514,124.487692 46.0976061,125.522427 45.33785,126.92773 C44.6131112,128.261378 44.4635778,129.832902 44.92379,131.2793 C45.7486883,133.760176 48.0790305,135.426272 50.69336,135.4043 Z M47.09961,127.876 C47.6040821,126.947291 48.4658004,126.264758 49.48535,125.98635 C49.8581213,125.8794 50.2440299,125.825164 50.63184,125.82522 C52.3721942,125.802864 53.9283804,126.905408 54.48438,128.55471 C54.7804777,129.48577 54.6838349,130.497338 54.2168,131.35549 C53.7121047,132.283418 52.8509005,132.965467 51.83203,133.24416 C49.746686,133.869323 47.539748,132.736542 46.83203,130.67775 C46.535479,129.746414 46.6321341,128.734368 47.09961,127.876 Z" id="Shape"></path>
            <path d="M65.96387,144.01855 C65.8906379,143.76365 65.7191117,143.5483 65.4870509,143.419907 C65.2549901,143.291514 64.9814185,143.260604 64.72656,143.33398 C63.99023,143.54541 63.15796,143.75879 62.27588,143.96387 L62.27246,143.96387 L62.26246,143.9668 C57.65992,145.03418 51.54689,145.84229 48.72462,144.6348 L36.74708,138.40921 C35.5044294,137.784127 33.9899326,138.232657 33.28808,139.43362 L31.05224,143.68411 L20.83594,138.3916 C19.7440176,137.825133 18.3996884,138.216351 17.78223,139.28027 L15.53423,143.27734 C15.3582575,143.588963 15.3621477,143.97085 15.5444319,144.278824 C15.726716,144.586797 16.0596263,144.773943 16.4174761,144.769606 C16.7753259,144.76527 17.103603,144.570111 17.27837,144.25781 L19.52737,140.25881 C19.6141012,140.132893 19.7821471,140.093203 19.91605,140.16701 L35.68265,148.33501 C35.9997929,148.499338 36.3805129,148.481989 36.6813964,148.2895 C36.98228,148.09701 37.1576157,147.758622 37.1413564,147.401805 C37.1250971,147.044987 36.9197129,146.723948 36.60257,146.55962 L32.82788,144.604 L35.04588,140.38672 C35.2231817,140.139979 35.5513444,140.05496 35.82615,140.18457 L47.87015,146.44141 C48.9208929,146.851491 50.0298983,147.092753 51.15604,147.15625 L38.28421,150.85254 C37.06253,151.20312 34.17972,152.18654 33.793,153.74121 C33.6630973,154.230729 33.8123665,154.752048 34.18167,155.09863 C34.543,155.44727 35.64456,156.50977 42.52054,154.53516 C44.0843838,154.071051 45.6719396,153.690948 47.2764,153.39648 C45.7934582,154.003737 44.2758231,154.522553 42.73148,154.9502 L40.82718,155.53027 C39.8674767,155.715505 39.0163171,156.264048 38.45118,157.06152 C38.250017,157.433656 38.2097937,157.871872 38.33985,158.27441 C38.4720454,158.68943 38.8574146,158.97135 39.29298,158.97168 C39.3957136,158.971888 39.497851,158.956071 39.59571,158.9248 C40.0231352,158.789161 40.3080916,158.385676 40.29298,157.9375 C40.6374615,157.71578 41.0143758,157.549068 41.41017,157.44336 L43.29884,156.86816 C51.91896,154.39355 51.46584,152.81348 51.29493,152.21973 C51.08302,151.48145 50.68849,150.11035 41.96778,152.61328 C40.1987898,153.185081 38.3689618,153.547902 36.51563,153.69434 C37.2527505,153.302273 38.0313353,152.993719 38.83692,152.77441 L62.82521,145.88574 C62.83253,145.88379 62.83741,145.87793 62.84449,145.87598 C64.22096,145.55566 65.14849,145.29398 65.27931,145.25586 C65.8099377,145.103119 66.1163768,144.549245 65.96387,144.01855 Z" id="Shape"></path>
            <path d="M21.98047,144.73047 C19.6857566,144.393687 17.3838399,145.294177 15.92676,147.09863 C14.0960092,145.240687 11.3168678,144.687994 8.91455,145.7041 C8.41215797,145.928138 8.18493827,146.515792 8.40593159,147.01953 C8.62692491,147.523269 9.21319324,147.754041 9.71826,147.5361 C10.837532,147.022561 12.1314903,147.056096 13.22266,147.62692 C11.6913861,147.999813 10.3431446,148.906256 9.41992,150.18356 C9.20510453,150.469757 9.15966069,150.848951 9.30076686,151.177803 C9.44187302,151.506654 9.74800193,151.734993 10.1034328,151.776504 C10.4588636,151.818015 10.8093716,151.666365 11.02246,151.37888 C11.8977805,150.179327 13.2806499,149.454424 14.76514,149.41696 C13.5066866,153.067494 13.433714,157.022296 14.55664,160.71677 C14.6850065,161.137301 15.0730139,161.424635 15.5127,161.42477 C15.611698,161.425011 15.710157,161.410195 15.8047,161.38083 C16.0583627,161.303538 16.2708876,161.128565 16.395448,160.894463 C16.5200083,160.660362 16.5463827,160.386342 16.46876,160.13278 C15.4233963,156.688694 15.5450136,152.995746 16.81471,149.6279 C18.3800027,149.528174 19.9042296,150.153674 20.94825,151.32419 C21.2900277,151.757098 21.9177734,151.831563 22.3513463,151.490629 C22.7849193,151.149696 22.8606076,150.522097 22.52052,150.08786 C21.4410568,148.765659 19.8887091,147.916311 18.19313,147.72018 C19.1180742,146.89825 20.3560871,146.5217 21.58204,146.68942 C21.9319816,146.760594 22.2933122,146.639671 22.5299219,146.3722 C22.7665316,146.104728 22.8424738,145.731345 22.7291419,145.3927 C22.6158099,145.054054 22.3304216,144.801594 21.98048,144.73042 L21.98047,144.73047 Z" id="Shape"></path>
            <path d="M162.7207,145.91113 C168.407994,145.904501 173.016805,141.295694 173.02344,135.6084 L173.02344,73.59961 C173.026378,71.3313676 172.336416,69.1163419 171.0459,67.251 C170.741667,66.8100002 170.225273,66.5648061 169.69124,66.6077798 C169.157206,66.6507535 168.686665,66.9753663 168.456865,67.4593398 C168.227064,67.9433133 168.272917,68.5131203 168.57715,68.95412 C169.521182,70.3191558 170.025787,71.9399574 170.02344,73.59963 L170.02344,135.6084 C170.018619,139.639592 166.751892,142.906314 162.7207,142.91113 L104.33887,142.91113 C102.627371,142.910393 100.970333,142.309437 99.65625,141.21289 C99.0208198,140.68272 98.0760246,140.767531 97.5451752,141.402394 C97.0143258,142.037256 97.0981258,142.982142 97.73242,143.51367 C99.585945,145.061678 101.923941,145.910129 104.33887,145.91113 L162.7207,145.91113 Z" id="Shape"></path>
            <path d="M180,142.69727 L180,80.68848 C180.003527,78.4201391 179.313512,76.204932 178.02246,74.33984 C177.551883,73.6581135 176.617756,73.486943 175.93603,73.95752 C175.254304,74.428097 175.083133,75.3622235 175.55371,76.04395 C176.498124,77.4084317 177.002778,79.0290462 177,80.68848 L177,142.69727 C176.995173,146.728455 173.728455,149.995173 169.69727,150 L111.31543,150 C109.603932,149.999258 107.946896,149.398302 106.63281,148.30176 C105.99738,147.77159 105.052585,147.856401 104.521735,148.491264 C103.990886,149.126126 104.074686,150.071012 104.70898,150.60254 C106.562505,152.150548 108.900501,152.998999 111.31543,153 L169.69727,153 C175.384563,152.993371 179.993371,148.384563 180,142.69727 Z" id="Shape"></path>
            <path d="M156.6709,140 C162.372786,139.993442 166.993442,135.372786 167,129.6709 L167,67.4668 C167.008111,64.4884834 165.823256,61.6309405 163.71,59.53223 L150.43555,46.27832 C148.338097,44.1723503 145.485934,42.9920365 142.51367,43 L98.3291,43 C93.6954428,43.0089699 89.6313323,46.0940415 88.37695,50.55469 C88.1547411,51.3529154 88.6216946,52.1801409 89.41992,52.4023499 C90.2181454,52.6245589 91.0453709,52.1576054 91.26758,51.35938 C92.1577021,48.1945407 95.0414731,46.0058866 98.3291,46 L142.51367,46 C144.690833,45.9942161 146.780013,46.8587894 148.31641,48.40137 L161.58984,61.65527 C163.138032,63.1922166 164.006064,65.2852717 164,67.4668 L164,129.6709 C163.995234,133.716674 160.716674,136.995234 156.6709,137 L98.3291,137 C94.2833258,136.995234 91.0047665,133.716674 91,129.6709 L91,60.5 C90.9994099,59.7810892 90.4887557,59.1637181 89.78271,59.02832 L85.54785,50.75391 C85.4920101,50.6442407 85.422818,50.5419002 85.34185,50.44922 L81.42046,45.96973 C82.7068697,45.8845049 83.9043458,45.2833869 84.74126,44.30273 C85.84966,42.90625 86.15239,40.48828 83.68071,37.89062 C79.04883,33.02246 74.14844,28.31348 67.793,22.624 C65.2753766,20.3421212 62.4519911,18.4222849 59.40433,16.9199 C57.9831735,16.2914062 56.4856912,15.8521098 54.95023,15.61326 C54.91336,15.60691 54.87747,15.60936 54.84085,15.60594 L43.26855,2.38574 C42.3203822,1.29795636 40.8635148,0.799279596 39.4476462,1.07786808 C38.0317775,1.35645655 36.8724377,2.36990226 36.4070633,3.73581665 C35.9416888,5.10173103 36.2411212,6.61218836 37.19238,7.69727 L44.51025,16.05713 C41.6717629,16.6638673 38.9224457,17.6308457 36.3291,18.93457 C34.25781,19.99316 32.22559,21.18357 30.26074,22.33398 C26.16406,24.7334 22.29492,27 17.9707,28.2666 C17.175711,28.4995951 16.7201249,29.332941 16.95312,30.12793 C17.1861152,30.922919 18.019461,31.3785051 18.81445,31.14551 C23.49219,29.77441 27.7041,27.30859 31.77734,24.92285 C33.70508,23.79297 35.69922,22.62598 37.69434,21.60645 C40.5636637,20.1693257 43.6370706,19.18235 46.80664,18.68018 L55.15964,28.22266 C53.2778998,28.401284 51.4940555,29.1443712 50.042,30.35449 L49.21388,30.92871 C47.3394923,32.0750108 45.674478,33.5327869 44.29054,35.23926 C42.9291748,34.9282027 41.5895694,34.5285996 40.28027,34.043 C39.5052378,33.7506785 38.6399766,34.1419928 38.3476551,34.917025 C38.0553335,35.6920572 38.4466478,36.5573184 39.22168,36.84964 C45.59468,39.25296 52.43168,39.46683 59.04395,39.67386 C62.8494754,39.7226131 66.6494583,39.9801603 70.42676,40.44534 C72.04492,40.67776 73.68164,41.42776 73.62012,42.28128 C73.58057,42.83011 72.84204,43.37064 71.57471,43.80618 L71.56836,43.80862 C71.34036,43.88675 71.10059,43.96243 70.83887,44.03323 C55.1673745,48.2558851 39.248272,51.4991338 23.17387,53.74417 C22.6426321,53.8174889 22.1909729,54.168889 21.9892939,54.6657943 C21.7876149,55.1626997 21.8666131,55.7294777 22.1964842,56.1522949 C22.5263554,56.5751122 23.0568906,56.7896127 23.58793,56.71487 C27.87455,56.1172167 32.1596267,55.4450167 36.44316,54.69827 C23.3656144,73.9819189 19.8231678,98.1867121 26.82616,120.40921 C27.0758755,121.198806 27.918404,121.636466 28.708,121.38675 C29.497596,121.137034 29.9352555,120.294506 29.68554,119.50491 C22.6424914,97.152032 26.7244476,72.7784326 40.666,53.93994 C51.05857,52.01953 61.39427,49.68506 71.55125,46.94775 L79.2656,55.76075 C79.3464357,55.8523479 79.4379047,55.9339808 79.53807,56.00392 L88,61.89062 L88,129.6709 C88.0065577,135.372786 92.6272141,139.993442 98.3291,140 L156.6709,140 Z M65.792,24.8584 C72.08595,30.49316 76.93263,35.1504 81.50685,39.95898 C81.87208,40.3418 83.01368,41.6543 82.39161,42.43848 C81.91212,43.04297 80.42872,43.40039 78.89161,42.49805 C78.8381054,42.4665738 78.7826611,42.4385177 78.72561,42.41405 C78.48879,42.31151 78.25661,42.20019 78.02419,42.08983 L58.54619,19.83837 C61.1631473,21.2000314 63.5976763,22.8867177 65.792,24.8584 Z M39.19727,4.97168 C39.2147616,4.69730073 39.3417904,4.44146306 39.5498,4.26168 C39.9810002,3.88655101 40.6344479,3.93110447 41.01074,4.36129 L69.90063,37.36519 C68.8964767,37.23919 67.8893167,37.1356767 66.87915,37.05465 L60.772,30.07812 C60.75687,30.05912 60.74,30.04199 60.72415,30.02344 L48.52274,16.08544 L48.50589,16.06644 L39.4502,5.72168 C39.2691837,5.51544936 39.1781175,5.24541558 39.19727,4.97168 Z M47.6958,35.88184 C48.6996189,34.968944 49.775909,34.139067 50.91406,33.40039 C51.20215,33.20215 51.4873,33.00586 51.7666,32.80957 C53.78613,31.38965 55.12012,30.45312 58.4336,32.09957 C58.50636,32.1357 58.57813,32.1733 58.6504,32.21041 L62.66993,36.80221 C61.48536,36.75289 60.3047,36.71139 59.13771,36.67476 C55.3118047,36.6272716 51.491684,36.3625387 47.6958,35.88184 Z M81.40234,53.64648 L74.48218,45.74023 C75.0777115,45.3760103 75.58869,44.8889337 75.981,44.31152 L75.98319,44.31352 L82.96195,52.28617 L84.90527,56.083 L81.40234,53.64648 Z" id="Shape"></path>
            <path d="M138.78516,74.291 C142.121361,78.5270585 141.433942,84.657781 137.24243,88.04978 C133.39052,91.1553206 127.811869,90.8359027 124.3396,87.311 L118.6731,81.57223 C118.484899,81.3592376 118.219217,81.2305143 117.935422,81.2148237 C117.651628,81.1991331 117.373375,81.2977831 117.16284,81.48873 C116.722754,81.8888067 116.685878,82.5682745 117.08008,83.01363 C117.09961,83.03609 117.12036,83.05758 117.14185,83.07808 L122.83643,88.84615 C125.046717,91.0845671 128.061894,92.3437991 131.207666,92.3422392 C134.353437,92.3406794 137.367364,91.0784579 139.57543,88.83785 C144.195512,84.1501564 144.191921,76.6202548 139.56737,71.93697 C135.071705,67.3832881 127.759455,67.2621899 123.11547,71.66451 C123.830058,71.9523431 124.514317,72.3103808 125.15819,72.73336 C127.165217,71.1162141 129.736521,70.3706673 132.297309,70.66338 C134.858098,70.9560926 137.194833,72.2626561 138.78516,74.291 Z" id="Shape"></path>
            <path d="M118.76562,92.35107 L123.76221,92.35107 C122.801215,91.742866 121.917701,91.0201204 121.1311,90.19873 L118.7681,90.19873 C114.649933,90.158965 111.332435,86.8092788 111.332435,82.69092 C111.332435,78.5725612 114.649933,75.222875 118.7681,75.18311 C120.568309,75.1530575 122.311722,75.8133119 123.64041,77.02832 L127.94632,81.48877 C128.143123,81.6937262 128.413876,81.8112303 128.697996,81.8149892 C128.982116,81.8187481 129.255884,81.708448 129.45804,81.50877 C129.880935,81.090961 129.889636,80.4108923 129.47757,79.9824 L125.17532,75.51414 C123.439049,73.8868019 121.140257,72.9947219 118.76077,73.02488 C113.453619,73.0491473 109.17096,77.3710485 109.1951,82.6782 L109.1951,82.68455 L109.19632,82.69187 C109.184331,85.2417481 110.185803,87.6919452 111.980409,89.5034113 C113.775016,91.3148774 116.215741,92.3392161 118.76562,92.35107 Z" id="Shape"></path>
            <path d="M118.67676,97.12305 L130.10254,97.12305 C131.80762,97.12305 133.82861,96.90674 133.9126,96.89697 C142.42323,95.408227 148.402604,87.6869182 147.714287,79.0745203 C147.02597,70.4621224 139.896132,63.7885229 131.25708,63.67041 C127.050911,63.6689674 123.004841,65.2830258 119.95459,68.1792 L119.77417,68.34863 C119.40869,68.3217833 119.04321,68.3082767 118.67773,68.30811 C110.774908,68.3840512 104.408311,74.8118977 104.408037,82.7150848 C104.407763,90.6182719 110.773913,97.0465603 118.67673,97.12305 L118.67676,97.12305 Z M118.67065,69.917 C119.225306,69.916976 119.779403,69.9522037 120.32959,70.02247 L121.03735,69.35353 C123.79556,66.7353849 127.454134,65.27685 131.25708,65.27931 C139.063429,65.3643215 145.522857,71.3759189 146.167575,79.1560636 C146.812293,86.9362083 141.430505,93.9290529 133.74463,95.29786 C133.74463,95.29786 131.7395,95.51466 130.10352,95.51466 L118.67773,95.51466 C111.70608,95.3810233 106.123746,89.6922327 106.121817,82.7193018 C106.119889,75.746371 111.699075,70.0544932 118.67065,69.917 Z" id="Shape"></path>
            <path d="M104,112 C103.999849,112.265263 104.105157,112.519704 104.292726,112.707274 C104.480295,112.894843 104.734737,113.000151 105,113 L151,113 C151.552285,113 152,112.552284 152,112 C152,111.447715 151.552285,111 151,111 L105,111 C104.734737,110.999849 104.480295,111.105157 104.292726,111.292726 C104.105157,111.480295 103.999849,111.734737 104,112 Z" id="Shape"></path>
            <path d="M105,122 L151,122 C151.552285,122 152,121.552285 152,121 C152,120.447715 151.552285,120 151,120 L105,120 C104.447715,120 104,120.447715 104,121 C104,121.552285 104.447715,122 105,122 Z" id="Shape"></path>
            <path d="M199.17871,56.61035 C199.967198,56.8640294 200.812109,56.4308674 201.06641,55.64258 C202.273999,51.9014097 205.617416,49.2568967 209.53613,48.94336 C211.030215,48.8353162 212.52885,49.0784676 213.91213,49.65336 C214.323955,49.8249181 214.790793,49.8041337 215.185743,49.5966568 C215.580692,49.3891798 215.862708,49.0165714 215.95513,48.58012 C217.1855,42.830374 222.345366,38.7786555 228.222869,38.9470349 C234.100371,39.1154144 239.019816,43.4558863 239.919,49.26664 C240.086911,50.3919709 240.101376,51.5348799 239.962,52.6641 C239.905283,53.1182284 240.058816,53.5734258 240.379,53.90043 C240.701403,54.2234592 241.151189,54.3856823 241.60556,54.34281 C241.981237,54.3033913 242.358682,54.283185 242.73642,54.28227 L242.76083,54.28227 C248.725585,54.2889978 253.563672,59.1144236 253.58603,65.07914 C253.58603,68.93168 252.02353,71.75004 248.94052,73.45514 C247.308727,74.3317178 245.511874,74.8579003 243.665,75 L200.29391,75.00293 C198.598326,75.173913 196.907924,74.6327308 195.62691,73.50879 C194.605959,72.5345945 194.044142,71.1743826 194.08004,69.76367 C194.077512,68.7258096 194.332169,67.7034917 194.82125,66.78809 C195.074551,66.3156902 195.056589,65.7440402 194.77413,65.2884749 C194.49167,64.8329097 193.987625,64.5626404 193.451865,64.5794749 C192.916104,64.5963094 192.430021,64.8976902 192.17672,65.37009 C191.453761,66.7236085 191.077001,68.2350055 191.08004,69.7695 C191.049546,72.0074207 191.954688,74.156469 193.57711,75.69821 C195.2559,77.226794 197.454417,78.0576549 199.72457,78.02145 C199.9443,78.02145 200.16695,78.01462 200.38957,77.99997 L243.665,77.99997 C247.01754,77.99997 256.5859,75.62597 256.5859,65.07517 C256.55985,57.5710421 250.558864,51.4544212 243.0566,51.28517 C243.063964,50.463344 243.007481,49.6421875 242.88766,48.82911 C241.823719,41.8926797 236.146792,36.5878837 229.15425,35.9959451 C222.161708,35.4040064 215.673823,39.6790164 213.459,46.33789 C212.113412,45.9804745 210.717671,45.849778 209.32912,45.95117 C204.18935,46.3552752 199.800144,49.818067 198.21096,54.72266 C198.088909,55.101314 198.122306,55.5129472 198.303802,55.8669733 C198.485298,56.2209995 198.800021,56.4884074 199.17871,56.61035 Z" id="Shape"></path>
            <path d="M189.48047,63.81836 L216.59229,63.81836 L212.52344,67.90723 C212.145591,68.287173 211.99914,68.8398351 212.139256,69.3570339 C212.279372,69.8742326 212.684766,70.2773932 213.202731,70.4146489 C213.720696,70.5519046 214.272541,70.4024031 214.65039,70.02246 L221.29199,63.34863 C221.87609,62.7614462 221.873905,61.8120299 221.28711,61.22754 L214.61426,54.58594 C214.234308,54.2077404 213.681451,54.0609714 213.163944,54.2009197 C212.646438,54.3408679 212.242904,54.7462719 212.105349,55.2644198 C211.967795,55.7825676 212.117118,56.3347404 212.49707,56.71294 L216.62256,60.81841 L189.48047,60.81841 C188.652043,60.81841 187.98047,61.4899829 187.98047,62.31841 C187.98047,63.1468371 188.652043,63.81841 189.48047,63.81841 L189.48047,63.81836 Z" id="Shape"></path>
        </g>
    </g>
</svg>