<?xml version="1.0" encoding="UTF-8"?>
<svg width="101px" height="135px" viewBox="0 0 101 135" version="1.1" xmlns="http://www.w3.org/2000/svg" xmlns:xlink="http://www.w3.org/1999/xlink">
    <!-- Generator: Sketch 49 (51002) - http://www.bohemiancoding.com/sketch -->
    <title>S_IlluEmptyFolder_dark_160</title>
    <desc>Created with Sketch.</desc>
    <defs></defs>
    <g id="Page-1" stroke="none" stroke-width="1" fill="none" fill-rule="evenodd">
        <g id="S_IlluEmptyFolder_dark_160" transform="translate(-1.000000, 0.000000)" fill="#999999" fill-rule="nonzero">
            <path d="M53.5,75 C52.6715729,75 52,75.6715729 52,76.5 C52,77.3284271 52.6715729,78 53.5,78 L76.04834,78 C78.7817237,78.0027776 80.9969519,80.2177866 81,82.95117 L81,86.5 C81,87.3284271 81.6715729,88 82.5,88 C83.3284271,88 84,87.3284271 84,86.5 L84,82.95117 C83.9951332,78.5616863 80.437824,75.0045963 76.04834,75 L53.5,75 Z" id="Shape"></path>
            <path d="M95.07715,90 L25.96777,90 C23.2189296,89.9905361 20.7880096,91.7818472 19.98291,94.41016 L8.853,130.30371 C8.60323901,131.080607 7.98626428,131.684258 7.2041,131.917 C6.19678411,132.161877 5.13380707,131.884947 4.37402,131.1797 C4.12199061,130.949064 3.98504411,130.618653 4.00002,130.27735 L4.00002,69.73047 C4.00170635,68.2231799 5.22317994,67.0016974 6.73047,67 L24.72559,67 C25.6979875,66.9970463 26.6309972,67.3839691 27.31592,68.07422 L33.65576,74.419 C34.0344119,74.799297 34.5873669,74.9483629 35.1058612,74.8099189 C35.6243555,74.6714749 36.0294048,74.2666107 36.1680859,73.7481798 C36.3067669,73.2297488 36.1579539,72.6767257 35.77783,72.2979 L29.43848,65.9541 C28.1918883,64.6989317 26.4946054,63.9951893 24.72559,64 L6.73047,64 C3.56706496,64.0034886 1.00348859,66.567065 1,69.73047 L1,130.27734 C0.979625504,131.526102 1.52727053,132.716588 2.48877,133.51367 C3.61341848,134.460743 5.02946048,134.992406 6.49951,135.01953 C8.88306952,135.019614 10.9924507,133.476688 11.71436,131.20508 L22.84814,95.29883 C23.2677941,93.928805 24.5349218,92.9950688 25.96777,93 L95.07715,93 C96.3020563,93.0002063 97.4492923,93.5999747 98.1485214,94.6056954 C98.8477505,95.6114161 99.0104129,96.8957111 98.584,98.044 L87.49856,128.35552 C86.6933223,130.540822 84.6136018,131.994535 82.28467,132 L15.5,132 C14.6715729,132 14,132.671573 14,133.5 C14,134.328427 14.6715729,135 15.5,135 L82.28467,135 C85.872151,134.99144 89.0756605,132.752021 90.31592,129.38574 L101.39941,99.08008 C102.16496,97.0114463 101.869968,94.6991309 100.609582,92.8889543 C99.3491962,91.0787778 97.2828953,89.999786 95.07715,90 Z" id="Shape"></path>
            <path d="M37.22314,73.43359 C38.1804733,76.0613948 41.0851676,77.417386 43.71436,76.46387 L72.62109,65.96387 C73.8847725,65.504749 74.9142184,64.5622855 75.4828237,63.3439367 C76.051429,62.1255879 76.112585,60.731222 75.65283,59.46777 L73.4585,53.43945 C73.1753464,52.6609108 72.3146742,52.2593214 71.536135,52.542475 C70.7575958,52.8256286 70.3560064,53.6863008 70.63916,54.46484 L72.8335,60.49316 C73.0212411,61.0086212 72.9963815,61.5775705 72.7643967,62.0746922 C72.532412,62.5718139 72.112331,62.9563309 71.59668,63.14355 L42.69043,73.64355 C41.6181585,74.0316983 40.4339571,73.4792424 40.04243,72.4082 L24.38525,29.3916 C23.9960199,28.3186463 24.548618,27.1330808 25.62061,26.74121 L36.09912,22.92773 C36.6025698,22.7443867 36.969964,22.3063832 37.0629089,21.7787113 C37.1558538,21.2510393 36.9602288,20.7138648 36.5497239,20.3695362 C36.139219,20.0252076 35.5761997,19.9260366 35.07275,20.10938 L24.59424,23.92285 C21.9670815,24.882529 20.6124038,27.7875984 21.56592,30.417 L37.22314,73.43359 Z" id="Shape"></path>
            <path d="M44.5293,65.56055 C44.645893,65.5604955 44.7615739,65.540002 44.87109,65.5 L64.687,58.28809 C65.0228964,58.1661707 65.2681753,57.874235 65.330361,57.5223491 C65.3925466,57.1704632 65.2621817,56.8121433 64.9884167,56.5824839 C64.7146517,56.3528245 64.3391217,56.2867531 64.00341,56.40918 L44.1875,63.62109 C43.7315843,63.7870588 43.4606116,64.2563792 43.5448204,64.7342009 C43.6290291,65.2120226 44.0441148,65.5604358 44.5293,65.56055 Z" id="Shape"></path>
            <path d="M52.30762,53.60938 C52.1079254,53.0949395 51.5296775,52.8390123 51.01462,53.03711 L41.63376,56.66211 C41.3005687,56.7908506 41.0613696,57.0875673 41.0062666,57.4404898 C40.9511637,57.7934122 41.0885283,58.148923 41.3666167,58.3731048 C41.644705,58.5972866 42.0212687,58.6560807 42.35446,58.52734 L51.73532,54.90234 C51.9826703,54.8067763 52.1819265,54.6168662 52.2892539,54.3743886 C52.3965812,54.1319109 52.4031877,53.8567287 52.30762,53.60938 Z" id="Shape"></path>
            <path d="M47.9165,41.5 L71.9165,41.5 C72.4687847,41.5 72.9165,41.0522847 72.9165,40.5 C72.9165,39.9477153 72.4687847,39.5 71.9165,39.5 L47.9165,39.5 C47.3642153,39.5 46.9165,39.9477153 46.9165,40.5 C46.9165,41.0522847 47.3642153,41.5 47.9165,41.5 Z" id="Shape"></path>
            <path d="M47.9165,33.5 L71.9165,33.5 C72.4687847,33.5 72.9165,33.0522847 72.9165,32.5 C72.9165,31.9477153 72.4687847,31.5 71.9165,31.5 L47.9165,31.5 C47.3642153,31.5 46.9165,31.9477153 46.9165,32.5 C46.9165,33.0522847 47.3642153,33.5 47.9165,33.5 Z" id="Shape"></path>
            <path d="M44.73926,51 L75.26074,51 C78.39765,51.0275038 80.9649831,48.5108351 81,45.374 L81,12.65234 C81.0019294,11.1496779 80.3923647,9.71091138 79.31152,8.66699 L72.11768,1.64062 C71.0307492,0.589923392 69.5786369,0.00179993742 68.06689,-2.06020097e-15 L44.73926,-2.06020097e-15 C41.60235,-0.0275037909 39.0350169,2.48916489 39,5.626 L39,45.374 C39.0350169,48.5108351 41.60235,51.0275038 44.73926,51 Z M42,5.626 C42.0335473,4.14542294 43.2585862,2.97103566 44.73926,3 L68.06689,3 C68.7957115,2.99963512 69.4963074,3.2817639 70.02148,3.78711 L77.21582,10.81348 C77.7161456,11.2944657 77.9992429,11.9583138 78,12.65234 L78,45.374 C77.9664527,46.8545771 76.7414138,48.0289643 75.26074,48 L44.73926,48 C43.2585862,48.0289643 42.0335473,46.8545771 42,45.374 L42,5.626 Z" id="Shape"></path>
        </g>
    </g>
</svg>