<?xml version="1.0" encoding="UTF-8"?>
<svg width="254px" height="184px" viewBox="0 0 254 184" version="1.1" xmlns="http://www.w3.org/2000/svg" xmlns:xlink="http://www.w3.org/1999/xlink">
    <!-- Generator: Sketch 49 (51002) - http://www.bohemiancoding.com/sketch -->
    <title>S_IlluEmptyStateDCFiles_dark_280x192</title>
    <desc>Created with Sketch.</desc>
    <defs></defs>
    <g id="Page-1" stroke="none" stroke-width="1" fill="none" fill-rule="evenodd">
        <g id="S_IlluEmptyStateDCFiles_dark_280x192" fill="#999999" fill-rule="nonzero">
            <path d="M85.28223,136.99268 C85.294636,136.881697 85.2947165,136.769681 85.28247,136.65868 C85.2793,136.6289 85.27734,136.60009 85.27222,136.5703 C85.2519744,136.443019 85.2152039,136.318924 85.16284,136.20116 C85.15674,136.18749 85.14771,136.17577 85.14111,136.16259 C85.1077585,136.09044 85.0687361,136.021049 85.02441,135.95507 C85.00098,135.92187 84.97141,135.8955 84.9458,135.86474 C84.9348,135.85155 84.92944,135.83495 84.91797,135.82226 C84.9082,135.81151 84.89478,135.80517 84.88477,135.79442 C84.7955542,135.697161 84.6937395,135.612263 84.58203,135.54198 C84.57666,135.53808 84.57031,135.53661 84.5647,135.53319 C84.4600969,135.472434 84.3485259,135.424559 84.23242,135.39061 C84.19824,135.38036 84.16504,135.37108 84.13037,135.36278 C84.0104424,135.333544 83.8873554,135.319276 83.76392,135.3203 C83.74536,135.3203 83.72754,135.32567 83.70898,135.32665 C83.5945359,135.333892 83.4813152,135.354362 83.37158,135.38765 C83.35425,135.39302 83.33643,135.39155 83.31934,135.39741 L34.00391,152.00977 C32.9716423,152.358292 32.2357293,153.274557 32.1181257,154.357707 C32.0005222,155.440857 32.522637,156.493713 33.45605,157.05566 L44.96094,163.97607 L44.96094,174.14941 C44.9549672,175.230392 45.6270108,176.199219 46.6416,176.57227 C46.9342212,176.681868 47.2441279,176.738091 47.5566,176.73827 C48.3023596,176.737702 49.0108454,176.412163 49.49703,175.84667 L53.4482,171.30367 C53.9918553,170.678575 53.9258352,169.731115 53.30074,169.18746 C52.6756448,168.643805 51.7281853,168.709825 51.18453,169.33492 L47.96094,173.041 L47.96094,165.78025 L63.8584,175.34275 C64.5353586,175.750268 65.3531822,175.852194 66.1094573,175.623302 C66.8657325,175.39441 67.4897813,174.856091 67.82715,174.14158 L85.1543,137.46 C85.16016,137.44779 85.1604,137.43461 85.16577,137.42192 C85.2186742,137.304178 85.2561734,137.180104 85.27734,137.05277 C85.28076,137.03271 85.27979,137.0127 85.28223,136.99268 Z M74.50342,141.53268 L46.396,161.33789 L35.37988,154.71189 L74.50342,141.53268 Z M65.21094,172.65524 L49.20654,163.02878 L80.01123,141.32321 L65.21094,172.65524 Z" id="Shape"></path>
            <path d="M222.84082,151.31641 C223.259909,151.316223 223.634424,151.054732 223.778992,150.661367 C223.92356,150.268002 223.807509,149.82622 223.48828,149.55469 L211.9668,139.76074 C211.694664,139.529425 211.319794,139.460864 210.983401,139.580883 C210.647008,139.700903 210.400198,139.991269 210.335941,140.342603 C210.271684,140.693938 210.399744,141.052865 210.67188,141.28418 L222.19336,151.07812 C222.373779,151.232353 222.603462,151.316885 222.84082,151.31641 Z" id="Shape"></path>
            <path d="M208.28223,142.55176 C208.110494,142.753772 208.026049,143.015736 208.047475,143.280014 C208.068902,143.544293 208.194444,143.789232 208.39648,143.96094 L219.91699,153.75488 C220.189003,153.987231 220.564438,154.056525 220.901473,153.936586 C221.238508,153.816646 221.485765,153.525756 221.549842,153.173801 C221.613919,152.821846 221.485048,152.462478 221.21191,152.23145 L209.69141,142.4375 C209.270713,142.079951 208.639828,142.131105 208.28223,142.55176 Z" id="Shape"></path>
            <path d="M226.87793,151.93066 L222.40137,157.19434 C221.845143,157.84878 220.863852,157.928769 220.20898,157.37305 L205.05664,144.49219 C204.403508,143.934757 204.324048,142.954148 204.87891,142.29883 L221.85645,122.3291 C222.412676,121.674667 223.39396,121.594678 224.04883,122.15039 L235.52148,131.90332 C235.897214,132.224995 236.130923,132.681876 236.17188,133.1748 L236.67773,139.56348 C236.717844,140.0546 236.560371,140.54143 236.24023,140.91602 C235.703586,141.54705 235.780101,142.493636 236.41113,143.03028 C237.04216,143.566924 237.988746,143.490409 238.52539,142.85938 C239.362036,141.881442 239.773372,140.609815 239.66797,139.32715 L239.16211,132.93848 C239.056583,131.651123 238.446509,130.457654 237.46484,129.61816 L225.99219,119.86426 C224.07445,118.236102 221.200232,118.469499 219.57031,120.38574 L202.59277,140.35547 C200.967059,142.273812 201.199846,145.145855 203.11328,146.77734 L218.26562,159.65918 C219.086119,160.359883 220.129998,160.74433 221.20898,160.74318 C221.33398,160.74318 221.45898,160.7383 221.58498,160.72756 C222.790103,160.633653 223.907442,160.061093 224.68752,159.13772 L229.16311,153.87404 C229.699754,153.24301 229.623239,152.296424 228.99221,151.75978 C228.36118,151.223136 227.414594,151.299651 226.87795,151.93068 L226.87793,151.93066 Z" id="Shape"></path>
            <path d="M55.93555,36.25 C56.2917977,36.2501081 56.6363773,36.1230114 56.90723,35.8916 C73.24023,21.97266 95.10938,14.8926 120.10449,15.38867 L137.52856,15.38867 L132.55664,20.36133 C132.176506,20.7399779 132.027592,21.2928442 132.16612,21.8111936 C132.304649,22.329543 132.709517,22.7344112 133.227866,22.8729398 C133.746216,23.0114684 134.299082,22.8625542 134.67773,22.48242 L142.07642,15.08301 C142.453774,14.8018202 142.676584,14.3592682 142.67773,13.88867 L142.67578,13.87012 C142.67578,13.85645 142.67212,13.84375 142.67188,13.83012 C142.665753,13.6796396 142.636775,13.5309663 142.58594,13.3892 C142.561561,13.3206141 142.53193,13.2540101 142.49731,13.18998 C142.451258,13.1030964 142.396711,13.0209888 142.33447,12.94486 C142.305431,12.8945874 142.273306,12.8461614 142.23828,12.79986 L134.58105,5.14166 C133.994191,4.56272833 133.050104,4.56593699 132.467194,5.14884434 C131.884284,5.73175169 131.881071,6.67583844 132.46,7.2627 L137.58525,12.3887 L120.13477,12.3887 C94.40137,11.8887 71.86035,19.20511 54.96191,33.60843 C54.4835074,34.0161828 54.3100871,34.6789774 54.5274781,35.2687847 C54.744869,35.858592 55.3069553,36.2502939 55.93555,36.25003 L55.93555,36.25 Z" id="Shape"></path>
            <path d="M50.08984,144.61426 C50.6894727,144.614061 51.2313737,144.256768 51.4678119,143.705718 C51.7042501,143.154667 51.589791,142.515751 51.17676,142.08105 C42.3295322,132.784365 36.0816788,121.325256 33.05957,108.85254 C33.0230509,108.700729 32.9606117,108.556358 32.875,108.42578 C30.2636286,96.7379573 30.4591576,84.5976662 33.44556,73 L55.9834,73 C59.33594,73 68.9043,70.626 68.9043,60.0752 C68.8857548,52.5679925 62.8804864,46.4470069 55.375,46.2852 C55.382366,45.4633736 55.3258794,44.6422167 55.20605,43.82914 C54.1421644,36.8926507 48.4652124,31.5877853 41.4726203,30.9958459 C34.4800283,30.4039064 27.9921111,34.6789868 25.77734,41.33793 C24.4315031,40.9819103 23.035996,40.8512357 21.64746,40.95121 C16.5077002,41.3553089 12.1184974,44.8180827 10.5293,49.72266 C10.2772651,50.5105498 10.7106541,51.3537547 11.4980225,51.6074138 C12.2853909,51.8610729 13.1294878,51.4294236 13.38477,50.64258 C14.592359,46.9014097 17.9357758,44.2568967 21.85449,43.94336 C23.3485966,43.8348345 24.8473422,44.0780039 26.23049,44.65336 C26.6423145,44.8249181 27.1091532,44.8041337 27.5041025,44.5966568 C27.8990518,44.3891798 28.1810684,44.0165714 28.27349,43.58012 C29.5038712,37.830387 34.6637306,33.7786828 40.5412229,33.947062 C46.4187153,34.1154413 51.3381549,38.4558986 52.23735,44.26664 C52.405266,45.3919705 52.4197313,46.5348802 52.28035,47.6641 C52.2236333,48.1182284 52.3771662,48.5734258 52.69735,48.90043 C53.0192215,49.2249208 53.470007,49.3873759 53.92488,49.34281 C54.308536,49.3010146 54.6942369,49.2808027 55.08016,49.28227 C61.0470661,49.283345 65.8881512,54.1122157 65.9043,60.0791 C65.9043,63.93164 64.3418,66.74902 61.25879,68.4551 C59.6270397,69.3316744 57.8302326,69.8578701 55.9834,70 L12.6123,70.00293 C10.9167831,70.1732761 9.22662942,69.6321734 7.9453,68.50879 C6.92434859,67.5345945 6.36253186,66.1743826 6.39843,64.76367 C6.39580146,63.7259173 6.65010853,62.7036526 7.13866,61.78809 C7.53022989,61.0578232 7.25566179,60.1483949 6.525395,59.756825 C5.79512821,59.3652551 4.88569989,59.6398232 4.49413,60.37009 C3.77169987,61.7237692 3.39529039,63.2351132 3.39843,64.7695 C3.36793594,67.0074207 4.27307784,69.156469 5.8955,70.69821 C7.5742952,72.2268144 9.77282957,73.0576869 12.043,73.02148 C12.26273,73.02148 12.48538,73.01465 12.708,73 L30.34912,73 C27.3909176,84.9934568 27.2893979,97.513861 30.05273,109.55371 C30.0906895,109.7211 30.1599414,109.879808 30.25684,110.02148 C33.4457022,122.827918 39.9051577,134.586924 49.00293,144.14748 C49.2855723,144.446 49.678743,144.61485 50.08984,144.61426 Z" id="Shape"></path>
            <path d="M204.916,152.46191 C190.4785,164.66846 171.57591,171.60691 150.11277,172.64258 L154.99314,167.76172 C155.372038,167.382824 155.520016,166.83057 155.381331,166.312986 C155.242646,165.795403 154.838369,165.391123 154.320786,165.252436 C153.803203,165.113749 153.250948,165.261724 152.87205,165.64062 L145.3115,173.20215 C145.030134,173.483375 144.872052,173.864883 144.872052,174.262695 C144.872052,174.660507 145.030134,175.042015 145.3115,175.32324 L152.96873,182.98047 C153.554787,183.564236 154.502832,183.563307 155.087745,182.978395 C155.672657,182.393482 155.673586,181.445437 155.08982,180.85938 L149.88523,175.65479 C172.16502,174.6499 191.82176,167.46094 206.8535,154.75293 C207.483762,154.21729 207.561586,153.272586 207.027475,152.641026 C206.493365,152.009467 205.548853,151.929353 204.916,152.46193 L204.916,152.46191 Z" id="Shape"></path>
            <path d="M234.18359,144.69336 C233.525824,144.023374 232.528202,143.817696 231.659078,144.172887 C230.789953,144.528078 230.221931,145.373597 230.22168,146.3125 L230.22168,173.06641 C230.214296,174.048095 230.833926,174.925104 231.76168,175.24609 C232.013896,175.335201 232.279346,175.381096 232.54684,175.38184 C233.241037,175.380667 233.897096,175.064131 234.33004,174.52148 L240.78704,166.5498 L251.29095,168.06348 C252.272035,168.203985 253.233561,167.703636 253.68147,166.819529 C254.129378,165.935421 253.964052,164.864184 253.27044,164.15625 L234.18359,144.69336 Z M240.37207,163.45898 C239.84901,163.382556 239.324447,163.587838 238.99219,163.99898 L233.22168,171.12298 L233.22168,147.99698 L249.7041,164.80362 L240.37207,163.45898 Z" id="Shape"></path>
            <path d="M169.01367,139.46289 C174.805557,139.456162 179.499132,134.762587 179.50586,128.9707 L179.50586,65.62793 C179.509105,63.3173777 178.806163,61.0610143 177.49121,59.16113 C177.186975,58.7201302 176.67058,58.474937 176.136546,58.5179123 C175.602511,58.5608876 175.13197,58.8855023 174.90217,59.3694773 C174.672371,59.8534523 174.718225,60.4232603 175.02246,60.86426 C175.990658,62.263959 176.508216,63.926002 176.50586,65.62793 L176.50586,128.9707 C176.500939,133.106482 173.149452,136.457969 169.01367,136.46289 L109.376,136.46289 C107.620304,136.462457 105.920509,135.845514 104.57326,134.71973 C104.162265,134.375723 103.598965,134.27711 103.095548,134.461038 C102.592131,134.644966 102.22508,135.083492 102.132658,135.611428 C102.040236,136.139363 102.236485,136.676503 102.64748,137.02051 C104.534824,138.597941 106.916253,139.462374 109.376,139.46289 L169.01367,139.46289 Z" id="Shape"></path>
            <path d="M185.69238,135.1582 L185.69238,71.81543 C185.695797,69.5049998 184.993211,67.2486791 183.67871,65.34863 C183.207034,64.6706624 182.275961,64.5016959 181.59614,64.9706957 C180.916318,65.4396954 180.743683,66.3700952 181.21,67.05176 C182.177749,68.4516223 182.694951,70.1136235 182.69242,71.81543 L182.69242,135.1582 C182.687879,139.293599 179.336609,142.644869 175.20121,142.64941 L115.56348,142.64941 C113.807973,142.648871 112.108317,142.032326 110.76074,140.90723 C110.125076,140.379475 109.182345,140.465019 108.652061,141.098575 C108.121776,141.73213 108.203563,142.675195 108.835,143.208 C110.72284,144.784453 113.10402,145.648449 115.56352,145.6494 L175.20121,145.6494 C180.992696,145.643034 185.686031,140.949686 185.69238,135.1582 Z" id="Shape"></path>
            <path d="M163.00488,132.72949 C168.796767,132.722762 173.490342,128.029187 173.49707,122.2373 L173.49707,58.89453 C173.488932,55.866817 172.283373,52.9652645 170.14355,50.82324 L156.57715,37.31641 C154.447014,35.1838381 151.554179,33.9890982 148.54,33.99707 L103.36816,33.99707 C97.5764749,34.003352 92.8828064,38.6965955 92.876,44.48828 L92.876,122.23728 C92.8827284,128.029163 97.5762967,132.722736 103.36818,132.72947 L163.00488,132.72949 Z M95.876,122.2373 L95.876,44.4883 C95.8809987,40.3527126 99.232592,37.0015532 103.36818,36.99709 L148.54,36.99709 C150.760277,36.9910697 152.891174,37.871249 154.46,39.44238 L168.02641,52.94922 C169.602934,54.5268541 170.491158,56.664211 170.49711,58.89453 L170.49711,122.2373 C170.492189,126.373082 167.140702,129.724569 163.00492,129.72949 L103.36816,129.72949 C99.2323871,129.724558 95.8809151,126.373073 95.876,122.2373 Z" id="Shape"></path>
            <path d="M115.87842,92.51953 C120.02856,92.51953 124.36816,85.96436 126.61987,81.98975 C128.29053,81.4209 130.00122,80.9082 131.7002,80.4624 C133.62891,79.95996 135.45679,79.56055 137.13525,79.2744 C139.852685,81.9533052 143.46394,83.5339643 147.27563,83.71288 C149.64429,83.71288 150.50363,82.75438 150.81055,81.95165 C150.919513,81.6622665 150.973498,81.355085 150.96973,81.04589 C150.976562,80.3911491 150.74327,79.7565942 150.31396,79.2622 C149.18018,78.05175 146.83789,77.42431 143.54321,77.42431 C141.530291,77.4433217 139.521985,77.6206251 137.53687,77.95458 C136.196202,76.69364 134.980057,75.3065432 133.90527,73.81249 C133.089002,72.6921772 132.337294,71.5262205 131.65381,70.3203 C132.749725,67.316979 133.393547,64.1675562 133.56421,60.97509 C133.56421,58.40868 132.57959,55.66454 129.81372,55.66454 C128.920878,55.6909331 128.102838,56.1698722 127.64282,56.93554 C126.36963,59.10448 126.97482,63.86425 129.12573,68.55077 C128.3186,70.91161 127.47119,73.15477 126.44238,75.60204 C125.540613,77.7427715 124.518724,79.830893 123.38159,81.85644 C117.02637,84.36034 113.13452,87.1206 112.68848,89.43261 C112.523366,90.2671834 112.816505,91.126402 113.45728,91.68603 C114.133417,92.2538278 114.996049,92.5507968 115.87842,92.51953 Z M146.30713,78.84863 C147.06592,79.00586 148.29858,79.48193 148.02002,80.9043 C147.86084,81.73779 147.01123,82.2783 145.83911,82.2783 C145.519091,82.2774546 145.200244,82.2396066 144.88892,82.16551 C142.627913,81.5946945 140.527296,80.5146146 138.74756,79.00779 C141.243131,78.5551707 143.79472,78.5014493 146.30713,78.84863 Z M128.71606,57.56543 L128.70806,57.56543 C128.918486,57.1685291 129.324561,56.9139292 129.77349,56.89743 C130.91533,56.89743 131.15949,58.18454 131.16338,59.26608 C131.01426,61.8184571 130.520947,64.3389822 129.69683,66.75925 C128.002,62.50635 127.89893,58.95312 128.71606,57.56543 Z M129.35156,76.46387 C130.00122,74.91406 130.60645,73.37109 131.12915,71.86963 C131.70801,72.82812 132.29126,73.70557 132.90039,74.54102 C133.819176,75.8091856 134.83074,77.0074714 135.92676,78.12602 L135.91676,78.12602 L136.01176,78.22123 C134.51054,78.50346 132.96098,78.85649 131.39335,79.2725 C130.13041,79.59916 128.84525,79.97025 127.48735,80.40629 C128.1875,79.07227 128.82715,77.7207 129.35156,76.46387 Z M113.91333,89.66455 C114.22998,88.01221 117.43604,85.72461 122.34668,83.62207 C119.52197,88.22998 116.77612,91.06055 115.10568,91.06055 C114.750005,91.0681288 114.409716,90.9156343 114.178662,90.6451237 C113.947608,90.3746131 113.850199,90.0146646 113.9133,89.66455 L113.91333,89.66455 Z" id="Shape"></path>
            <path d="M108.93164,104.46484 L155.94238,104.46484 C156.494665,104.46484 156.94238,104.017125 156.94238,103.46484 C156.94238,102.912555 156.494665,102.46484 155.94238,102.46484 L108.93164,102.46484 C108.379355,102.46484 107.93164,102.912555 107.93164,103.46484 C107.93164,104.017125 108.379355,104.46484 108.93164,104.46484 Z" id="Shape"></path>
            <path d="M108.93164,114.07422 L155.94238,114.07422 C156.494665,114.07422 156.94238,113.626505 156.94238,113.07422 C156.94238,112.521935 156.494665,112.07422 155.94238,112.07422 L108.93164,112.07422 C108.379355,112.07422 107.93164,112.521935 107.93164,113.07422 C107.93164,113.626505 108.379355,114.07422 108.93164,114.07422 Z" id="Shape"></path>
            <path d="M187.49414,37 L201.77441,37 L213.76465,48.58008 C214.486675,49.2760252 215.554665,49.473226 216.477613,49.0810195 C217.400562,48.688813 217.999867,47.7830958 218,46.78027 L218,37 L238.50586,37 C244.298792,36.9931946 248.993195,32.2987923 249,26.50586 L249,10.49414 C248.993195,4.70120774 244.298792,0.0068053902 238.50586,3.55271368e-15 L187.49414,3.55271368e-15 C181.701208,0.0068053902 177.006805,4.70120774 177,10.49414 L177,26.50586 C177.006805,32.2987923 181.701208,36.9931946 187.49414,37 Z M180,10.49414 C180.004992,6.35731035 183.35731,3.00499215 187.49414,3 L238.50586,3 C242.64269,3.00499215 245.995008,6.35731035 246,10.49414 L246,26.50586 C245.995008,30.6426897 242.64269,33.9950078 238.50586,34 L216.5,34 C215.671662,34.0002153 215.000215,34.6716621 215,35.5 L215,45.60254 L203.42285,34.4209 C203.143078,34.1510332 202.769566,34.0001587 202.38085,34 L187.49414,34 C183.35731,33.9950078 180.004992,30.6426897 180,26.50586 L180,10.49414 Z" id="Shape"></path>
            <path d="M189.66016,16.30566 C189.858512,16.3058793 190.052386,16.2466975 190.2168,16.13574 L193.5928,13.86914 L194.61233,15.77637 C194.745452,16.0258186 194.978033,16.2071839 195.252404,16.2754974 C195.526775,16.343811 195.817244,16.2926756 196.05179,16.13477 L199.42874,13.86816 L200.4473,15.77539 C200.58042,16.024838 200.812999,16.2062033 201.087368,16.2745169 C201.361738,16.3428305 201.652205,16.2916952 201.88675,16.13379 L205.26275,13.86719 L206.28228,15.77539 C206.415403,16.0248356 206.647981,16.2061987 206.92235,16.2745121 C207.196718,16.3428254 207.487184,16.2916921 207.72173,16.13379 L211.09773,13.86719 L212.11726,15.77344 C212.250047,16.0232166 212.482555,16.2049426 212.75701,16.2734625 C213.031466,16.3419825 213.322105,16.2908643 213.55671,16.13281 L216.93371,13.86621 L217.95227,15.77246 C218.085057,16.0222359 218.317564,16.2039619 218.592019,16.2724835 C218.866474,16.3410052 219.157113,16.2898904 219.39172,16.13184 L222.76867,13.86523 L223.78723,15.77148 C223.920017,16.0212559 224.152524,16.2029819 224.426979,16.2715035 C224.701434,16.3400252 224.992073,16.2889104 225.22668,16.13086 L229.38098,13.34277 C229.679905,13.144533 229.849764,12.8013828 229.826127,12.4434787 C229.802491,12.0855746 229.588981,11.7677423 229.266582,11.610538 C228.944184,11.4533336 228.562284,11.4808386 228.26574,11.68262 L225.03039,13.85449 L224.01184,11.94824 C223.879053,11.6984634 223.646545,11.5167374 223.37209,11.4482175 C223.097634,11.3796975 222.806995,11.4308157 222.57239,11.58887 L219.19539,13.85547 L218.17684,11.94824 C218.044053,11.6984604 217.811543,11.5167322 217.537086,11.4482121 C217.262628,11.379692 216.971986,11.4308122 216.73738,11.58887 L213.36043,13.85645 L212.3409,11.94824 C212.207777,11.6987944 211.975199,11.5174313 211.70083,11.4491179 C211.426462,11.3808046 211.135996,11.4319379 210.90145,11.58984 L207.52545,13.85645 L206.50592,11.94922 C206.372797,11.6997744 206.140219,11.5184113 205.86585,11.4500979 C205.591482,11.3817846 205.301016,11.4329179 205.06647,11.59082 L201.68947,13.85742 L200.6709,11.9502 C200.537782,11.7007496 200.305203,11.5193822 200.030833,11.4510683 C199.756462,11.3827545 199.465994,11.4338916 199.23145,11.5918 L195.85545,13.8584 L194.83592,11.95117 C194.703271,11.701323 194.470753,11.5195687 194.19627,11.45117 C193.92174,11.383872 193.631568,11.4348927 193.39646,11.5918 L189.10154,14.47559 C188.736157,14.7210619 188.574255,15.1765902 188.702761,15.5975979 C188.831267,16.0186056 189.219957,16.3060744 189.66014,16.30566 L189.66016,16.30566 Z" id="Shape"></path>
            <path d="M189.66016,26.30469 C189.858511,26.3049044 190.052384,26.245723 190.2168,26.13477 L193.59375,23.86816 L194.6123,25.77539 C194.745422,26.0248386 194.978003,26.2062039 195.252374,26.2745174 C195.526745,26.342831 195.817214,26.2916956 196.05176,26.13379 L199.42871,23.86719 L200.44824,25.77441 C200.581358,26.0238634 200.813938,26.205233 201.088311,26.273547 C201.362684,26.341861 201.653155,26.2907219 201.8877,26.13281 L205.26465,23.86621 L206.2832,25.77344 C206.416322,26.0228886 206.648903,26.2042539 206.923274,26.2725674 C207.197645,26.340881 207.488114,26.2897456 207.72266,26.13184 L211.09966,23.86523 L212.11821,25.77246 C212.251332,26.0219086 212.483913,26.2032739 212.758284,26.2715874 C213.032655,26.339901 213.323124,26.2887656 213.55767,26.13086 L217.71196,23.34277 C218.011065,23.1446098 218.181085,22.8013963 218.157497,22.4433813 C218.133909,22.0853663 217.920329,21.7674265 217.59781,21.6102222 C217.275292,21.4530179 216.893272,21.4806454 216.59673,21.68262 L213.3604,23.85449 L212.34185,21.94727 C212.208732,21.6978166 211.976152,21.516447 211.701779,21.448133 C211.427406,21.379819 211.136935,21.4309581 210.90239,21.58887 L207.52539,23.85547 L206.50684,21.94824 C206.373718,21.6987914 206.141137,21.5174261 205.866766,21.4491126 C205.592395,21.380799 205.301926,21.4319344 205.06738,21.58984 L201.69038,23.85645 L200.67183,21.94922 C200.538708,21.6997714 200.306127,21.5184061 200.031756,21.4500926 C199.757385,21.381779 199.466916,21.4329144 199.23237,21.59082 L195.85542,23.85742 L194.83589,21.9502 C194.702772,21.7007466 194.470192,21.519377 194.195819,21.451063 C193.921446,21.382749 193.630975,21.4338881 193.39643,21.5918 L189.10151,24.47461 C188.736117,24.7200788 188.574209,25.1756127 188.702716,25.5966264 C188.831223,26.0176401 189.219921,26.305111 189.66011,26.30469 L189.66016,26.30469 Z" id="Shape"></path>
            <path d="M251.85938,74.667 C251.85938,62.5167355 242.009644,52.667 229.85938,52.667 C217.709116,52.667 207.85938,62.5167355 207.85938,74.667 C207.85938,86.8172645 217.709116,96.667 229.85938,96.667 C230.247073,96.667 230.632243,96.6567467 231.01489,96.63624 C231.005065,103.855215 229.930263,111.033246 227.8252,117.93849 C227.583023,118.730781 228.028979,119.569383 228.82127,119.81156 C229.613561,120.053737 230.452163,119.607781 230.69434,118.81549 C232.906434,111.563403 234.026779,104.022446 234.01855,96.44049 C234.01855,96.38287 234.01733,96.32526 234.01709,96.26764 C244.365955,94.2626076 251.844883,85.2082972 251.85938,74.667 Z M229.85938,93.667 C225.861521,93.6660433 221.967215,92.3956974 218.73779,90.03907 C219.013915,90.0239824 219.270999,89.8935827 219.44629,89.6797 C220.86429,87.90626 223.22168,86.9697 225.00977,86.29005 C225.72817,87.3593891 226.860748,88.0798671 228.13377,88.27735 C230.477048,88.6815897 232.840864,87.6822641 234.18357,85.71974 C234.369128,85.4140991 234.377445,85.0326589 234.205388,84.7192198 C234.03333,84.4057807 233.707061,84.2080071 233.349582,84.2004584 C232.992103,84.1929096 232.657776,84.3767336 232.47264,84.68263 C231.558598,85.9480961 230.000707,86.578463 228.46385,86.3047 C227.56191,86.1900196 226.796462,85.5878702 226.47264,84.73829 C226.391876,84.4709 226.20322,84.2493275 225.95213,84.12696 C225.700953,84.0037163 225.409388,83.9923659 225.14939,84.09571 L224.49119,84.34771 C222.46678,85.11528 219.69432,86.16704 217.88377,88.43171 C217.703183,88.6617636 217.634455,88.9603014 217.69627,89.24616 C210.625132,83.3331634 208.8231,73.1952715 213.423374,65.2076563 C218.023649,57.2200412 227.696814,53.6910126 236.35994,56.8397858 C245.023066,59.9885591 250.172629,68.9051825 248.570347,77.9824736 C246.968066,87.0597648 239.076977,93.6745127 229.85936,93.66706 L229.85938,93.667 Z" id="Shape"></path>
            <path d="M230.14844,78.31738 C229.091904,79.7625559 227.299949,80.4734161 225.54004,80.14551 C224.59375,79.93164 221.84961,77.6582 221.84961,72.59766 L221.84961,69.64453 C221.84961,69.0922453 221.401895,68.64453 220.84961,68.64453 C220.297325,68.64453 219.84961,69.0922453 219.84961,69.64453 L219.84961,72.59766 C219.84961,78.81641 223.4541,81.72461 225.09861,82.09666 C225.565654,82.2039473 226.043233,82.2586508 226.52244,82.25975 C228.615415,82.1796853 230.556867,81.1469036 231.79295,79.45603 C232.107385,79.0019056 231.994144,78.3788651 231.54002,78.0644301 C231.085896,77.7499951 230.462855,77.8632356 230.14842,78.31736 L230.14844,78.31738 Z" id="Shape"></path>
            <path d="M243.49805,86.334 C241.39648,84.23342 241.79005,82.75686 242.33398,80.71291 C243.0179,78.8716142 243.021365,76.8465354 242.34375,75.00291 C242.038878,74.0956908 241.423202,73.325401 240.60547,72.8281 C239.160227,71.9598423 238.31156,70.3653794 238.39847,68.68162 C238.485716,67.5191399 238.437212,66.3504529 238.25394,65.1992 C237.5303,61.46482 234.59183,57.47361 228.51273,57.47361 C222.21973,57.47361 219.43265,62.9033 219.31644,63.13475 C219.281443,63.2049326 219.254887,63.2790161 219.23733,63.35545 C219.2012,63.50779 218.43362,67.13182 224.20999,70.21287 C226.193755,71.2221137 228.34106,71.8708626 230.55179,72.12887 C231.007844,72.176559 231.436677,71.9038814 231.58694,71.47066 C231.780738,70.8229555 232.153427,70.2431079 232.66214,69.79781 C232.806532,69.7818303 232.952029,69.8159636 233.07425,69.89449 C233.219603,70.1516684 233.275908,70.4496672 233.23441,70.74215 C233.085054,71.7091448 232.529642,72.566248 231.70804,73.09762 C231.51077,73.27242 231.3262,73.43746 231.16898,73.59469 C230.778498,73.9851719 230.778498,74.6182681 231.16898,75.0087499 C231.559462,75.3992318 232.192558,75.3992318 232.58304,75.00875 C232.71487,74.87691 232.87015,74.74019 233.03519,74.59375 C234.290035,73.7069938 235.093681,72.3152479 235.23441,70.78516 C235.317949,69.9536695 235.053521,69.1246964 234.50394,68.49516 C234.013278,68.017361 233.346207,67.7648205 232.66214,67.79789 C231.3555,67.79789 230.47855,69.12406 230.02835,70.03715 C228.330406,69.7619505 226.685274,69.2256582 225.15135,68.44731 C221.27535,66.3809 221.15235,64.34672 221.17576,63.89848 C222.665789,61.2288521 225.456232,59.5459686 228.51268,59.47367 C234.63182,59.47367 236.01268,64.1475 236.291,65.58109 C236.441668,66.5716894 236.478364,67.576288 236.40037,68.57524 C236.274713,70.9955295 237.492587,73.2882145 239.56837,74.5391 C240.018484,74.8180061 240.348542,75.2546034 240.49415,75.76371 C240.990171,77.2061161 240.95729,78.77788 240.40138,80.19828 C239.82325,82.37113 239.16798,84.83207 242.08399,87.74809 C242.336442,88.0014224 242.704977,88.1006293 243.050488,88.0082645 C243.396,87.9158998 243.66587,87.6460298 243.758235,87.3005182 C243.850599,86.9550067 243.751392,86.5864723 243.49806,86.33402 L243.49805,86.334 Z" id="Shape"></path>
            <path d="M237.07617,84.57812 L236.0293,83.625 C235.542084,83.1692864 235.192564,82.5859657 235.02051,81.94141 L235.02051,77.75195 C235.02051,77.1996653 234.572795,76.75195 234.02051,76.75195 C233.468225,76.75195 233.02051,77.1996653 233.02051,77.75195 L233.02051,81.94238 C233.182147,83.1603478 233.771622,84.2811511 234.68359,85.10449 L235.73047,86.05762 C236.96973,87.18362 238.39847,88.4834 239.82227,89.79199 C240.229176,90.1638361 240.86024,90.1363293 241.233248,89.7304883 C241.606256,89.3246473 241.580553,88.6935063 241.17578,88.31934 C239.749,87.00781 238.31738,85.70605 237.07617,84.57812 Z" id="Shape"></path>
            <path d="M24.8418,62.96387 C24.2571569,63.5512248 24.2593552,64.5013169 24.84671,65.08596 C25.4340649,65.6706031 26.3841569,65.6684048 26.9688,65.08105 L33.6104,58.4082 C34.1945014,57.820635 34.1923176,56.8710023 33.60552,56.28613 L26.93169,49.64355 C26.3443352,49.0589041 25.3942409,49.0611002 24.809595,49.648455 C24.2249491,50.2358098 24.2271452,51.1859041 24.8145,51.77055 L28.93994,55.876 L1.79883,55.876 C0.970402875,55.876 0.29883,56.5475729 0.29883,57.376 C0.29883,58.2044271 0.970402875,58.876 1.79883,58.876 L28.91113,58.876 L24.8418,62.96387 Z" id="Shape"></path>
        </g>
    </g>
</svg>