<?xml version="1.0" encoding="utf-8"?>
<!-- Generator: Adobe Illustrator 22.0.1, SVG Export Plug-In . SVG Version: 6.00 Build 0)  -->
<svg version="1.1" id="Layer_1" xmlns="http://www.w3.org/2000/svg" xmlns:xlink="http://www.w3.org/1999/xlink" x="0px" y="0px"
	 viewBox="0 0 24 24" style="enable-background:new 0 0 24 24;" xml:space="preserve">
<style type="text/css">
	.st0{fill:#FFFFFF;}
	.st1{fill:#CACACA;}
</style>
<g>
	<g id="s_invite_24">
		<g id="Group_59889" transform="translate(6063 2557)">
			<path id="Path_36021" class="st0" d="M-6051-2554.9c-5.5,0-10,4.5-10,9.9s4.5,9.9,10,9.9s10-4.5,10-9.9
				S-6045.5-2554.9-6051-2554.9L-6051-2554.9z"/>
			<path id="Path_888" class="st1" d="M-6051-2554.9c-5.5,0-10,4.5-10,9.9s4.5,9.9,10,9.9s10-4.5,10-9.9S-6045.5-2554.9-6051-2554.9
				L-6051-2554.9z M-6045-2544.5c0,0.3-0.2,0.5-0.5,0.5h-4.5v4.5c0,0.3-0.2,0.5-0.5,0.5h-1c-0.3,0-0.5-0.2-0.5-0.5v-4.5h-4.5
				c-0.3,0-0.5-0.2-0.5-0.5v-1c0-0.3,0.2-0.5,0.5-0.5h4.5v-4.5c0-0.3,0.2-0.5,0.5-0.5h1c0.3,0,0.5,0.2,0.5,0.5v4.5h4.5
				c0.3,0,0.5,0.2,0.5,0.5V-2544.5z"/>
		</g>
	</g>
</g>
</svg>
