<svg xmlns="http://www.w3.org/2000/svg" width="18" height="18" viewBox="0 0 18 18">
  <g fill="none" fill-rule="evenodd">
    <path fill="#999999" fill-rule="nonzero" d="M15.848,2.152 C14.4468215,0.750931011 12.1751785,0.750931011 10.774,2.152 C10.581,2.344 8.642,4.263 8.098,4.806 C8.73678109,4.76039883 9.37745766,4.86307136 9.97,5.106 C10.23,4.846 11.754,3.342 11.862,3.235 C12.662813,2.43418752 13.9611868,2.43418772 14.7619996,3.23500043 C15.5628123,4.03581315 15.5628125,5.33418704 14.762,6.135 L11.2,9.7 C10.7497375,10.1360172 10.1413902,10.3699691 9.515,10.348 C9.01006882,10.3420771 8.52645915,10.1435539 8.163,9.793 C7.89264162,9.57749768 7.67967294,9.29857741 7.543,8.981 C7.46480371,9.02367457 7.39280456,9.07683283 7.329,9.139 L6.512,9.995 C6.67423955,10.3022145 6.88078325,10.5838956 7.125,10.831 C8.68664981,12.1685387 11.0161634,12.0729666 12.463,10.612 L15.845,7.23 C17.2449656,5.8283647 17.2449656,3.5576353 15.845,2.156 L15.848,2.152 Z"/>
    <path fill="#999999" fill-rule="nonzero" d="M7.963,12.912 C7.703,13.172 6.214,14.685 6.108,14.793 C5.30280195,15.5673766 4.02595477,15.5549206 3.2360171,14.7649829 C2.44607943,13.9750452 2.43362339,12.698198 3.208,11.893 L6.801,8.299 C7.25121107,7.86311457 7.85978294,7.62979859 8.486,7.653 C9.34108938,7.68833005 10.0891963,8.23902538 10.377,9.045 C10.4553884,9.00222223 10.5274175,8.94870521 10.591,8.886 L11.458,8.026 C11.2955154,7.718939 11.0889967,7.43729197 10.845,7.19 C9.41592644,5.79476575 7.13150549,5.80500779 5.715,7.213 L2.122,10.806 C0.760231807,12.2134397 0.778586952,14.4528368 2.1632427,15.8377655 C3.54789845,17.2226942 5.78729195,17.2414908 7.195,15.88 C7.387,15.688 9.295,13.759 9.836,13.216 C9.19754167,13.2616636 8.55717567,13.158986 7.965,12.916 L7.963,12.912 Z"/>
  </g>
</svg>
