<svg xmlns="http://www.w3.org/2000/svg" xmlns:xlink="http://www.w3.org/1999/xlink" viewBox="232 1442 32 32"><defs><style>.a{clip-path:url(#b);}.b{fill:red;}.b,.c{opacity:0;}.c{fill:#e1e1e1;stroke:#e1e1e1;}.d{fill:rgba(255,19,220,0);}.e{fill:#999;}.f{stroke:none;}.g{fill:none;}</style><clipPath id="b"><rect x="232" y="1442" width="32" height="32"/></clipPath></defs><g id="a" class="a"><g transform="translate(232 1442)"><rect class="b" width="32" height="32"/><g class="c"><rect class="f" width="32" height="32" rx="4"/><rect class="g" x="0.5" y="0.5" width="31" height="31" rx="3.5"/></g><g transform="translate(7 7)"><rect class="d" width="18" height="18"/><path class="e" d="M-5052.5-5504h-3a.47.47,0,0,1-.362-.139.465.465,0,0,1-.138-.361v-3a.465.465,0,0,1,.138-.361.47.47,0,0,1,.362-.139h3a.472.472,0,0,1,.362.139.47.47,0,0,1,.138.361v3a.47.47,0,0,1-.138.361.473.473,0,0,1-.333.14Zm12.249-1h-10.5a.235.235,0,0,1-.181-.069.242.242,0,0,1-.069-.182v-1.5a.24.24,0,0,1,.069-.181.232.232,0,0,1,.181-.069h10.5a.233.233,0,0,1,.182.069.237.237,0,0,1,.069.181v1.5a.239.239,0,0,1-.069.182.235.235,0,0,1-.167.069Zm-12.249-5h-3a.47.47,0,0,1-.362-.139.466.466,0,0,1-.138-.361v-3a.465.465,0,0,1,.138-.362.47.47,0,0,1,.362-.139h3a.472.472,0,0,1,.362.139.471.471,0,0,1,.138.362v3a.472.472,0,0,1-.138.361.473.473,0,0,1-.333.14Zm12.249-1h-10.5a.235.235,0,0,1-.181-.069.242.242,0,0,1-.069-.182v-1.5a.24.24,0,0,1,.069-.181.232.232,0,0,1,.181-.069h10.5a.233.233,0,0,1,.182.069.237.237,0,0,1,.069.181v1.5a.239.239,0,0,1-.069.182.235.235,0,0,1-.167.07Zm-12.249-5h-3a.471.471,0,0,1-.362-.138.468.468,0,0,1-.138-.362v-3a.466.466,0,0,1,.138-.362.466.466,0,0,1,.362-.138h3a.468.468,0,0,1,.362.138.471.471,0,0,1,.138.362v3a.473.473,0,0,1-.138.362.473.473,0,0,1-.333.139Zm12.249-1h-10.5a.239.239,0,0,1-.181-.069.244.244,0,0,1-.069-.182v-1.5a.24.24,0,0,1,.069-.18.235.235,0,0,1,.181-.069h10.5a.236.236,0,0,1,.182.069.237.237,0,0,1,.069.18v1.5a.24.24,0,0,1-.069.182.239.239,0,0,1-.171.069Z" transform="translate(5056.999 5520.999)"/></g></g></g></svg>