<?xml version="1.0" encoding="UTF-8"?>
<svg width="12px" height="12px" viewBox="0 0 12 12" version="1.1" xmlns="http://www.w3.org/2000/svg" xmlns:xlink="http://www.w3.org/1999/xlink">
    <title>S_LinkOut_12_N_D</title>
    <g id="S_LinkOut_12_N_D" stroke="none" stroke-width="1" fill="none" fill-rule="evenodd">
        <path d="M5.1670715,1.15639871 L5.1670715,2.04372937 C5.1670715,2.15870475 5.07387008,2.25191071 4.9589003,2.25191071 L2.2526747,2.25273575 L2.2526747,9.74726424 L9.74683791,9.74726424 L9.74101977,7.04090673 C9.74101977,6.92593134 9.83422118,6.83272538 9.94919097,6.83272538 L10.7876939,6.83272538 C10.9026637,6.83272538 10.9958651,6.92593134 10.9958651,7.04090673 L10.9958651,10.1636269 C11.0177459,10.3711472 10.9521215,10.5783944 10.8147847,10.7354938 C10.6774479,10.8925932 10.4808352,10.9853189 10.272262,10.991356 L1.83633229,10.9963523 C1.60939115,11.0186271 1.38440405,10.9380783 1.22316138,10.7768278 C1.06191869,10.6155772 0.981373804,10.3905792 1.00364749,10.1636269 L1.00364749,1.83637306 C0.981373804,1.60942085 1.06191869,1.38442279 1.22316138,1.22317225 C1.38440405,1.06192171 1.60939115,0.981372893 1.83633229,1.00364767 L4.9589003,1.00364767 C5.07387008,1.00364767 5.1670715,1.04142333 5.1670715,1.15639871 Z" id="Path" fill="#C8C8C8" fill-rule="nonzero"></path>
        <path d="M10.7968315,1.00006063 L6.89334731,1.00006063 C6.81107672,0.998415663 6.73167558,1.03030335 6.67339538,1.08839385 C6.615512,1.1471705 6.58368175,1.22674532 6.58506127,1.30922689 C6.58431178,1.39002896 6.6161544,1.4677242 6.67339538,1.52475993 L7.9966403,2.84622484 L5.12931515,5.70910437 C4.95689495,5.88157491 4.95689495,6.16114967 5.12931515,6.3336202 L5.66550319,6.87068615 C5.83797547,7.04310462 6.11755306,7.04310462 6.29002534,6.87068615 L9.15381713,4.00780663 L10.4699953,5.33280487 C10.5595394,5.42050641 10.6928924,5.44606952 10.8085213,5.39769859 C10.9241502,5.34932766 10.999578,5.23642542 11,5.11108849 L11,1.20322703 C10.9919778,1.09451733 10.9055424,1.00808272 10.7968315,1.00006063 Z" id="Path" fill="#C8C8C8" fill-rule="nonzero"></path>
    </g>
</svg>