<svg xmlns="http://www.w3.org/2000/svg" xmlns:xlink="http://www.w3.org/1999/xlink" viewBox="-410 13615 18 18">
  <defs>
    <style>
      .cls-1 {
        clip-path: url(#clip-S_Replace_Signer_18);
      }

      .cls-2 {
        fill: #6f6f6f;
      }

      .cls-3 {
        fill: #707070;
      }
    </style>
    <clipPath id="clip-S_Replace_Signer_18">
      <rect x="-410" y="13615" width="18" height="18"/>
    </clipPath>
  </defs>
  <g id="S_Replace_Signer_18" class="cls-1">
    <g id="Group_483" data-name="Group 483" transform="translate(-410 13615)">
      <path id="Path_1540" data-name="Path 1540" class="cls-2" d="M1.412,83H9.8a5.19,5.19,0,0,1,1.962-4.07,7.7,7.7,0,0,0-2.143-.9.516.516,0,0,1-.275-.263,2.785,2.785,0,0,1-.135-1.047.489.489,0,0,1,.135-.261,4.521,4.521,0,0,0,1.165-3.015,3.407,3.407,0,0,0-1.764-3.169,2.935,2.935,0,0,0-2.482.009,3.384,3.384,0,0,0-1.776,3.164,4.414,4.414,0,0,0,1.16,3.011.334.334,0,0,1,.138.261,2.927,2.927,0,0,1-.2,1.114.422.422,0,0,1-.275.2C2.778,78.681,1,80.388,1,82.411v.195A.436.436,0,0,0,1.412,83Z" transform="translate(-1 -69)"/>
      <path id="Path_1541" data-name="Path 1541" class="cls-3" d="M18.023,80.246a4.149,4.149,0,0,0-2.956-1.336,4.2,4.2,0,0,0-4.06,4.065h1.028a3.11,3.11,0,0,1,3.032-2.907,2.828,2.828,0,0,1,2.195.956l-1.023.958h2.852V79.119Z" transform="translate(-1.091 -69.091)"/>
      <path id="Path_1542" data-name="Path 1542" class="cls-3" d="M11.976,85.755a4.15,4.15,0,0,0,2.957,1.336,4.2,4.2,0,0,0,4.059-4.065H17.964a3.109,3.109,0,0,1-3.031,2.907,2.831,2.831,0,0,1-2.2-.956l1.024-.958H10.909v2.862Z" transform="translate(-1.091 -69.091)"/>
    </g>
  </g>
</svg>
