<svg xmlns="http://www.w3.org/2000/svg" xmlns:xlink="http://www.w3.org/1999/xlink" viewBox="0 0 18 18"><defs><style>.a{clip-path:url(#b);}.b{fill:#999;}</style><clipPath id="b"><rect width="18" height="18"/></clipPath></defs><g id="a" class="a"><g transform="translate(-0.5)"><path class="b" d="M22.726,3742.581a7.452,7.452,0,0,0-1.289-.46.378.378,0,0,1-.261-.243,2.925,2.925,0,0,1-.146-1.058.39.39,0,0,1,.127-.266,4.3,4.3,0,0,0,1.165-3A3.306,3.306,0,0,0,19.335,3734a3.306,3.306,0,0,0-2.987,3.553,4.283,4.283,0,0,0,1.165,3,.39.39,0,0,1,.127.266,2.645,2.645,0,0,1-.187,1.106.375.375,0,0,1-.243.2c-2.46.644-4.211,2.36-4.211,4.391v.187a.384.384,0,0,0,.384.385h6.083A5.638,5.638,0,0,1,22.726,3742.581Z" transform="translate(-11.5 -3734)"/><path class="b" d="M40.521,4053.3a.252.252,0,0,1-.253-.252v-.505a.254.254,0,0,1,.253-.253h4.548a.253.253,0,0,1,.253.253v.505a.252.252,0,0,1-.253.252Zm6.569-.506a4.3,4.3,0,1,0-4.3,4.3A4.294,4.294,0,0,0,47.09,4052.795Z" transform="translate(-29.227 -4039.09)"/></g></g></svg>