<svg xmlns="http://www.w3.org/2000/svg" width="18" height="18" viewBox="0 0 18 18">
  <path fill="#707070" d="M17.001,8.993 C17.001,4.574722 13.419278,0.993 9.001,0.993 C4.582722,0.993 1.001,4.574722 1.001,8.993 C1.001,13.411278 4.582722,16.993 9.001,16.993 C11.1227319,16.993 13.1575632,16.1501453 14.6578542,14.6498542 C16.1581453,13.1495632 17.001,11.1147319 17.001,8.993 Z M4.501,9.993 C4.23579749,9.99344643 4.01638139,9.78675646 4.001,9.522 L4.001,8.493 C4.00052289,8.22816137 4.20663806,8.00888991 4.471,7.993 L13.501,7.993 C13.7662025,7.99255357 13.9856186,8.19924354 14.001,8.464 L14.001,9.493 C14.0169552,9.75310512 13.8190978,9.97692572 13.559,9.993 C13.539,9.993 4.501,9.993 4.501,9.993 Z"/>
</svg>
