<svg xmlns="http://www.w3.org/2000/svg" width="18" height="18" viewBox="0 0 18 18">
  <g fill="none" fill-rule="evenodd">
    <path fill="#707070" fill-rule="nonzero" d="M.576740758 7.903C.427818983 7.9421685.319030756 8.06991667.304084055 8.22317613.289137353 8.37643559.371193022 8.5227959.509740758 8.59L3.88574076 10.268 16.6247408 2.925.576740758 7.903zM5.48974076 11.037L11.1317408 13.857C11.220555 13.9016468 11.3235985 13.9086788 11.4176547 13.8765116 11.511711 13.8443444 11.5888677 13.7756839 11.6317408 13.686L17.2967408 3.596 5.48974076 11.037zM4.09274076 12.067L4.09274076 15.597C4.09301731 15.7253339 4.1681134 15.8417182 4.28492978 15.8948557 4.40174617 15.9479932 4.53882232 15.9281218 4.63574076 15.844L7.13574076 13.761 4.09274076 12.067z"/>
  </g>
</svg>
