<svg xmlns="http://www.w3.org/2000/svg" width="24" height="24" viewBox="0 0 24 24">
  <g fill="none" fill-rule="evenodd">
    <path fill="#C8C8C8" fill-rule="nonzero" d="M17.3455,20.0000035 C17.5991,20.0000035 17.8086,19.7881 17.8086,19.5264 L17.8086,19.2891 C17.8086,16.7061 15.5962,14.5186 12.5159,13.7021 C12.3628,13.665 12.2424,13.5508 12.1897,13.4014 C12.0488,12.9697 11.99,12.5186 12.0125,12.0654 C12.0146,11.9375 12.0732,11.8135 12.1702,11.7256 C13.1182,10.6992 13.6392,9.3379 13.6228,7.9297 C13.6228,5.4482 11.957,3.4326 9.9004,3.4326 C7.8442,3.4326 6.179,5.4482 6.179,7.9297 C6.1577,9.3389 6.6787,10.7002 7.6284,11.7256 C7.7239,11.8154 7.7815,11.9385 7.7871,12.0654 C7.8081,12.5459 7.7273,13.0215 7.5547,13.4668 C7.4946,13.5947 7.3826,13.6836 7.2485,13.7148 C4.1863,14.5293 2,16.7061 2,19.2793 L2,19.5176 C2.0015,19.7852 2.2178,20.001 2.4827,20.0000035 L17.3455,20.0000035 Z"/>
    <path fill="#C8C8C8" fill-rule="nonzero" d="M20.5344,18.7959 C20.7908,18.7959 21,18.585 21,18.3242 L21,18.085 C20.7224,15.5361 19.2905,13.6172 16.4072,12.6768 C16.26,12.6279 16.0017,12.4971 15.9478,12.3477 C15.8091,11.916 15.8149,11.5508 15.8347,11.0986 C15.8408,10.9658 15.96,10.6719 16.0576,10.584 C16.915,9.1797 17.1519,8.3369 17.1343,6.9268 C17.1343,4.4463 15.7378,3 13.6816,3 C13.3213,3 12.9734,3.0635 12.645,3.1758 C14.105,3.6719 15.3193,5.1836 15.3193,7.3789 C15.3193,9.2178 14.958,9.9834 14.105,11.2334 C14.0022,11.3252 13.9414,11.458 13.9375,11.5986 C13.9143,12.0781 13.8406,12.2666 13.9888,12.7256 C14.0464,12.8857 14.1995,13.1426 14.3623,13.1836 C17.5227,14.0166 19.1375,16.2744 19.4104,18.7959 L20.5344,18.7959 Z"/>
  </g>
</svg>
