<svg id="Layer_1" data-name="Layer 1" xmlns="http://www.w3.org/2000/svg" viewBox="0 0 256 192"><defs><style>.cls-1,.cls-2{fill:#e3e3e3;}.cls-1{fill-rule:evenodd;}</style></defs><title>S_IlluZeroStateGraphicAllAgreements_384x192_D</title><path class="cls-1" d="M123.13,97.58c-2.95,4.88-5.82,7.88-7.56,7.88a1.24,1.24,0,0,1-1.26-1.23,1,1,0,0,1,0-.25C114.66,102.23,118,99.81,123.13,97.58Zm6.64-27.08a1.27,1.27,0,0,1,1.11-.7c1.19,0,1.44,1.36,1.45,2.5a30.59,30.59,0,0,1-1.53,7.93c-1.77-4.5-1.88-8.26-1-9.73Zm2.52,14.6c.61,1,1.22,1.94,1.85,2.82a33.76,33.76,0,0,0,3.16,3.79h0l.1.11c-1.57.29-3.18.67-4.82,1.11-1.32.34-2.66.74-4.08,1.2.73-1.41,1.4-2.84,1.95-4.17C131.12,88.32,131.75,86.68,132.29,85.1Zm8,7.6a24.58,24.58,0,0,1,7.89-.17c.8.17,2.08.67,1.79,2.18-.16.88-1,1.45-2.27,1.45a4.21,4.21,0,0,1-1-.12,15.85,15.85,0,0,1-6.46-3.34Zm12.08.27c-1.19-1.28-3.63-2-7.07-2a38.77,38.77,0,0,0-6.27.57,30.47,30.47,0,0,1-3.79-4.39,38.36,38.36,0,0,1-2.35-3.69,34.45,34.45,0,0,0,2-9.89c0-2.72-1-5.62-3.91-5.62a2.75,2.75,0,0,0-2.27,1.34c-1.32,2.3-.69,7.34,1.55,12.3-.84,2.49-1.72,4.87-2.8,7.46a67,67,0,0,1-3.19,6.61c-6.63,2.65-10.7,5.58-11.16,8a2.53,2.53,0,0,0,.8,2.39,3.73,3.73,0,0,0,2.53.88c4.33,0,8.86-6.94,11.21-11.14,1.74-.61,3.53-1.15,5.3-1.62,2-.53,3.92-1,5.67-1.26a16,16,0,0,0,10.59,4.7c2.47,0,3.36-1,3.68-1.86a2.63,2.63,0,0,0,.17-1,2.85,2.85,0,0,0-.74-1.75Z"/><path class="cls-2" d="M106.15,25.08a1.43,1.43,0,0,0,.58-.12c8.21-3.46,17.64-6.59,30.81-6.14l10,.53-5.5,4.8a1.5,1.5,0,0,0-.14,2.12h0a1.5,1.5,0,0,0,1.13.51,1.53,1.53,0,0,0,1-.37l8.26-7.21a1.56,1.56,0,0,0,.51-1.08,1.49,1.49,0,0,0-.5-1.12l-7.74-7.78a1.5,1.5,0,0,0-2.2,2h0l.08.08,5,5-9.72-.52c-13.81-.48-23.59,2.78-32.11,6.38a1.49,1.49,0,0,0-.8,2,1.53,1.53,0,0,0,1.38.92Z"/><path class="cls-2" d="M172.35,40h9.53v8.18a2.35,2.35,0,0,0,4,1.68L196,40h21.62A8.32,8.32,0,0,0,226,31.74h0V16.09a8.33,8.33,0,0,0-8.35-8.28h-45.3A8.33,8.33,0,0,0,164,16.09v15.6A8.32,8.32,0,0,0,172.33,40h0ZM167,16.09a5.32,5.32,0,0,1,5.35-5.28h45.3A5.32,5.32,0,0,1,223,16.09v15.6A5.32,5.32,0,0,1,217.67,37H195.42a1.45,1.45,0,0,0-1,.43l-9.49,9.22V38.47a1.5,1.5,0,0,0-1.5-1.5h-11A5.32,5.32,0,0,1,167,31.76h0Z"/><path class="cls-2" d="M175,20.25h39.69a.75.75,0,0,0,0-1.5H175a.75.75,0,0,0,0,1.5Z"/><path class="cls-2" d="M175,28.83h39.69a.75.75,0,0,0,0-1.5H175a.75.75,0,0,0,0,1.5Z"/><path class="cls-2" d="M175,24.54h35.4a.75.75,0,0,0,0-1.5H175a.75.75,0,0,0,0,1.5Z"/><path class="cls-2" d="M207.5,51.5a22,22,0,1,0,22,22A22,22,0,0,0,207.5,51.5ZM221,86.88a1,1,0,0,0-.22-.54c-2-2.29-7.05-5.1-7.26-5.21a1,1,0,1,0-1,1.74s5,2.76,6.74,4.79a1,1,0,0,0,.55.3A19,19,0,1,1,221,86.88Z"/><path class="cls-2" d="M204,79a9.46,9.46,0,0,0,5.7-2.2,1,1,0,0,0-1.34-1.49A7.34,7.34,0,0,1,204,77c-.61,0-3-2.1-3-6.43V68a1,1,0,0,0-2,0v2.57C199,75.72,202,79,204,79Z"/><path class="cls-2" d="M215.73,69.71V64.22c0-3.59-2.87-7.22-8.35-7.22a9.63,9.63,0,0,0-8.25,5.07,2,2,0,0,0-.08.22c0,.14-.73,3.43,4.47,6.2A15.36,15.36,0,0,0,208,70.17a1,1,0,0,0,1.09-.65,3.89,3.89,0,0,1,.84-1.41c.2,0,.28,0,.29.06a1.15,1.15,0,0,1,.11.66,2.94,2.94,0,0,1-1.32,2l-.48.45a1,1,0,0,0,1.41,1.42h0l.39-.36a4.75,4.75,0,0,0,2-3.45,2.8,2.8,0,0,0-.68-2.11,2.3,2.3,0,0,0-1.72-.66c-1.15,0-1.93,1.06-2.36,1.9a16.46,16.46,0,0,1-3.07-1.28C201.14,65,201,63.24,201,62.84A7.57,7.57,0,0,1,207.38,59c4.66,0,6.35,3.12,6.35,5.22v6.21a1,1,0,0,0,.76,1c.8.21,3,1.08,3.69,2.6a17.12,17.12,0,0,1,1.12,4.67,22.37,22.37,0,0,0,.51,2.81,10.05,10.05,0,0,1-3-4,24.08,24.08,0,0,0-2.6-4.85,1,1,0,1,0-1.61,1.19,1.33,1.33,0,0,1,.14.19,1,1,0,0,0-1.2.76,1.94,1.94,0,0,0,0,.24v5a1,1,0,0,0,2,0V75.28a24.28,24.28,0,0,1,1.44,3,12.84,12.84,0,0,0,6.7,6.69A1.07,1.07,0,0,0,223,84a1,1,0,0,0-.16-.54,10.92,10.92,0,0,1-1.54-5A19.34,19.34,0,0,0,220,73.21C219.15,71.19,216.92,70.14,215.73,69.71Z"/><path class="cls-2" d="M206.94,80.66a1,1,0,0,0-1.28-.6c-1.24.44-7.53,2.78-9,5A5.22,5.22,0,0,0,196,86.8a1,1,0,0,0,.77,1.19H197a1,1,0,0,0,1-.79,3.57,3.57,0,0,1,.35-1.06c.85-1.28,5.36-3.26,8-4.21A1,1,0,0,0,206.94,80.66Z"/><path class="cls-2" d="M211,82a1,1,0,0,0-1,1,2.06,2.06,0,0,1-2.12,2,2.12,2.12,0,0,1-2-1.24,1,1,0,0,0-1.84.81h0a4.13,4.13,0,0,0,3.8,2.43A4.06,4.06,0,0,0,212,83h0v0A1,1,0,0,0,211,82Z"/><path class="cls-2" d="M223.6,115.94l-6.53,6.5a15.28,15.28,0,1,0-16.5,24.67c-8.6,16.14-30.33,24.24-40.57,24.24a1.5,1.5,0,0,0,0,3c10.63,0,35.3-8.37,44.16-27.73.24-.53.47-1.18-.28-1.55a8.67,8.67,0,0,0-1.48-.52,12.27,12.27,0,1,1,12.55-20L204.48,135l-4.42-4.4a1.5,1.5,0,0,0-2.12,2.12l5.49,5.46a1.48,1.48,0,0,0,2.09,0h0l0,0L216.71,127a12.19,12.19,0,0,1-.92,13,1.5,1.5,0,0,0,2.42,1.77,15.14,15.14,0,0,0,.69-16.91l6.82-6.79A1.5,1.5,0,0,0,223.6,116Z"/><path class="cls-2" d="M72,13.71a1,1,0,0,0,.89-1.1h0a4.7,4.7,0,0,1,1-3.54A4.69,4.69,0,0,1,77.4,7.59c3.84-.15,5.47,1.18,6.16,1.75l.14.11a1.85,1.85,0,0,1,.4.56,14.14,14.14,0,0,1-3.56,0,22.94,22.94,0,0,1-3.07-.54,1,1,0,0,0-1.28.61,1,1,0,0,0,0,.69,7.26,7.26,0,0,1,.38,2.57A4.68,4.68,0,0,1,76,15.11a3,3,0,0,0-1.25-1.45,2.11,2.11,0,0,0-2.45.26,3.2,3.2,0,0,0-.77,3.36c.17.45.53,1.58.53,1.58l1.9-.59s-.37-1.21-.55-1.68a1.24,1.24,0,0,1,.22-1.17s.06-.06.21,0a3.53,3.53,0,0,1,.74,2,1,1,0,0,0,1.1.87.94.94,0,0,0,.53-.23,7.21,7.21,0,0,0,2.27-4.59,9.22,9.22,0,0,0-.08-1.74c.46.08,1,.18,1.78.28a16.54,16.54,0,0,0,5.48-.27,1,1,0,0,0,.74-1.22.11.11,0,0,0,0,0,6.2,6.2,0,0,0-1.53-2.59l-.12-.1c-.87-.71-2.89-2.38-7.51-2.19a6.63,6.63,0,0,0-5,2.15,6.69,6.69,0,0,0-1.46,5.07,1,1,0,0,0,1.07.93h0Z"/><path class="cls-2" d="M81.29,33.63a1,1,0,0,0,.73.31,1.13,1.13,0,0,0,.26,0,1,1,0,0,0,.71-.73l.81-3.3a4.49,4.49,0,0,1,1.23.68c.31.24.83,1.23,1.54,4.63a1,1,0,0,0,1,.8h.2a1,1,0,0,0,.78-1.18h0c-.74-3.53-1.36-5.1-2.29-5.81A7.16,7.16,0,0,0,83,27.65h0a3.12,3.12,0,0,0,1.17-.76c2.15-2.15,2-7.69,1.84-11.35v-.92a1,1,0,0,0-2,0v.94c.1,2.91.28,8.33-1.26,9.87a1.05,1.05,0,0,1-.88.35,8.25,8.25,0,0,1-6-3.81,1,1,0,0,0-1.28-.61,1,1,0,0,0-.55.48,1,1,0,0,0-1.67.85h0a12,12,0,0,1-.13,3.16C70.88,26.76,66,30,64.52,31l-.26.18a1,1,0,1,0,1,1.71h0l.12-.08.19-.12c1.78-1.15,8-5.34,8.09-5.38a1,1,0,0,0,.42-.62,15.1,15.1,0,0,0,.29-3,10.72,10.72,0,0,0,6.23,4,1,1,0,0,0-.62.5l-.64,1.22-3.94-2.59a1,1,0,0,0-1.1,1.67l3.48,2.29-.64,1.55L73.54,28.7A1,1,0,1,0,72,30l0,0a.57.57,0,0,0,.11.11l4.69,4.6a1,1,0,0,0,.7.29h.2a1,1,0,0,0,.72-.6l1.09-2.63Zm.43-5.86a2.81,2.81,0,0,0,.58,0,1,1,0,0,0-.44.68,1,1,0,0,0-.45-.69A1.61,1.61,0,0,1,81.72,27.77ZM81.78,29a.8.8,0,0,0,.09-.3A1,1,0,0,0,82,29v.06l-.44,1.83-.44-.46Z"/><path class="cls-2" d="M150.21,146.3c-1.25-6-4.17-15.86-6.1-22.41l-.61-2.06a4.4,4.4,0,0,0-6.67-2.62,6.49,6.49,0,0,0-2,1.76c-1.39,2-1.17,4.64-1,6.36,0,.51.35,2.33.88,5.51.49,2.93,1.17,6.95,1.22,7.69a9.77,9.77,0,0,1-2.24,7,19.17,19.17,0,0,0-3.2,4.9,11.75,11.75,0,0,0-.88,6.22,1.52,1.52,0,0,0,3-.49h0a8.86,8.86,0,0,1,.71-4.63,16.7,16.7,0,0,1,2.72-4.08,12.77,12.77,0,0,0,2.92-9.11c-.05-.83-.55-3.83-1.25-8-.38-2.28-.81-4.86-.85-5.27-.15-1.78-.21-3.35.52-4.43a3.55,3.55,0,0,1,1.05-.88,1.4,1.4,0,0,1,2,.28,1.61,1.61,0,0,1,.26.62l.61,2.07c1.92,6.5,4.81,16.32,6,22.18a48.47,48.47,0,0,1,1.06,7c.33,5.42-.82,10.69-2,16.27-.73,3.32-1.48,6.75-1.89,10.19v.25l.34,5.57a1.5,1.5,0,0,0,1.49,1.44h.07a1.5,1.5,0,0,0,1.43-1.57h0l-.33-5.46c.39-3.26,1.11-6.57,1.82-9.78,1.21-5.54,2.46-11.26,2.1-17.09A51.89,51.89,0,0,0,150.21,146.3Z"/><path class="cls-2" d="M119.39,173.71c-.51-1-1.06-1.92-1.59-2.85-.68-1.18-1.32-2.29-1.88-3.44a14.38,14.38,0,0,1-1.42-6.18l1.06-13.12a1.5,1.5,0,1,0-3-.24h0l-1.07,13.18v.12a17.49,17.49,0,0,0,1.72,7.55c.61,1.25,1.31,2.46,2,3.63.52.9,1,1.82,1.53,2.74a29.14,29.14,0,0,0,1.77,3c1.52,2.29,2,.06,2,12.14a1.5,1.5,0,0,0,3,0c0-12.43-.57-10.84-2.53-13.8A28.55,28.55,0,0,1,119.39,173.71Z"/><path class="cls-2" d="M148.1,125a1,1,0,0,0,0,2h5.8a1,1,0,0,0,0-2Z"/><path class="cls-2" d="M109,126.89h21a1,1,0,1,0,0-2H108.87a1,1,0,1,0,.13,2Z"/><path class="cls-2" d="M108,115.89a1,1,0,0,0,1,1h47a1,1,0,0,0,0-2H109A1,1,0,0,0,108,115.89Z"/><path class="cls-2" d="M102.1,71.44a1.5,1.5,0,0,0-2.11,0h0l-6.71,6.71-6.71-6.71a1.5,1.5,0,0,0-2.12,2.12l6.71,6.71L84.44,87a1.5,1.5,0,0,0,0,2.11h0a1.51,1.51,0,0,0,2.12,0l6.71-6.71L100,89.1A1.5,1.5,0,0,0,102.12,87l-6.71-6.71,6.71-6.71A1.51,1.51,0,0,0,102.1,71.44Z"/><path class="cls-2" d="M131.24,140.5a1.5,1.5,0,0,0-1.5-1.5h-27A7.73,7.73,0,0,1,95,131.28h0V97.09a1.5,1.5,0,0,0-3,0v34.18A10.72,10.72,0,0,0,102.71,142h27a1.5,1.5,0,0,0,1.51-1.49h0Z"/><path class="cls-2" d="M173,131.27v-64A11.56,11.56,0,0,0,169.6,59L156.07,45.43A11.61,11.61,0,0,0,147.82,42H102.73A10.72,10.72,0,0,0,92,52.71h0V64.92a1.5,1.5,0,1,0,3,0V52.73A7.73,7.73,0,0,1,102.73,45h45.09A8.68,8.68,0,0,1,154,47.55l13.53,13.58A8.62,8.62,0,0,1,170,67.24v64a7.73,7.73,0,0,1-7.73,7.73H154.7a1.5,1.5,0,0,0,0,3h7.57A10.71,10.71,0,0,0,173,131.27Z"/><path class="cls-2" d="M100.43,171.52a78.2,78.2,0,0,1-42.1-37.21,1.5,1.5,0,1,0-2.72,1.26l.06.12a81.18,81.18,0,0,0,43.71,38.64,1.34,1.34,0,0,0,.52.1,1.5,1.5,0,0,0,.53-2.91Z"/><path class="cls-2" d="M71.23,130.22l.24.26,6.46,5.4a2,2,0,0,0,2.82-.19l0,0a1.46,1.46,0,0,0,.19-1.45L77.63,126l-.18-.31L74.1,121.1a4.53,4.53,0,0,0,3.3-1.31c1.17-1.23,1.66-3.51-.47-6.19-4-5-8.26-9.91-13.83-15.86a35.36,35.36,0,0,0-7.5-6.13A17,17,0,0,0,51.47,90h-.1a1.12,1.12,0,0,0,.12-.35A78,78,0,0,1,75.7,43.1l.07-.09a22.3,22.3,0,0,0,2.71.19,21.11,21.11,0,1,0-6.23-.93A81,81,0,0,0,48.92,86.63L41.46,76.42A3.86,3.86,0,1,0,35.24,81h0l6.26,8.57a32.92,32.92,0,0,0-8,2c-2.06.83-4.09,1.8-6.06,2.73-4.07,1.92-7.91,3.74-12.1,4.59a1.51,1.51,0,0,0-1.24,1.46,1.43,1.43,0,0,0,1.46,1.4h0a1,1,0,0,0,.25,0c4.57-.91,8.78-2.91,12.86-4.83C30.6,96,32.59,95,34.58,94.23a29.94,29.94,0,0,1,8.91-2L50.61,102a9,9,0,0,0-5,1.6l-.84.48a18.64,18.64,0,0,0-5,3.68A31.31,31.31,0,0,1,36,106.29a1.42,1.42,0,0,0-1.9.64,1.86,1.86,0,0,0-.1.25,1.47,1.47,0,0,0,.81,1.72c5.85,2.8,12.31,3.57,18.56,4.32a100.47,100.47,0,0,1,10.77,1.69c1.52.36,3,1.21,2.88,2-.08.52-.83,1-2.07,1.28h0l-.71.15A373.91,373.91,0,0,1,18,123.59a1.46,1.46,0,0,0-1.2.78,1.41,1.41,0,0,0,.07,1.43,1.46,1.46,0,0,0,1.28.66c4.13-.21,36.56-3.52,46.45-5.27ZM60.34,22.14A18.14,18.14,0,1,1,78.56,40.2h-.08A18.11,18.11,0,0,1,60.34,22.14ZM75,127.23,76.57,131l-3.13-2.62-5.92-8.1a4.88,4.88,0,0,0,1.55-1.23h0ZM53.68,110.38a96.28,96.28,0,0,1-10.82-1.72,25.51,25.51,0,0,1,3.27-2.09l.86-.49c2-1.18,3.39-2,6.41-.12l.19.13,3.44,4.7Zm7.34,1-5.23-7.15v-.06L45.31,89.9h0L37.55,79.27a1,1,0,1,1,1.6-1.16l24.72,33.83c-.95-.21-1.87-.39-2.87-.55ZM54.53,94.31A33.05,33.05,0,0,1,61,99.69c5.51,5.89,9.73,10.73,13.68,15.69.31.39,1.29,1.74.63,2.43-.5.54-2,.75-3.33-.23l-.15-.1-.64-.37Z"/></svg>