<?xml version="1.0" encoding="UTF-8"?>
<svg width="268px" height="181px" viewBox="0 0 268 181" version="1.1" xmlns="http://www.w3.org/2000/svg" xmlns:xlink="http://www.w3.org/1999/xlink">
    <!-- Generator: Sketch 49 (51002) - http://www.bohemiancoding.com/sketch -->
    <title>S_IlluEmptyStateFillSign_dark_280x192</title>
    <desc>Created with Sketch.</desc>
    <defs></defs>
    <g id="Page-1" stroke="none" stroke-width="1" fill="none" fill-rule="evenodd">
        <g id="S_IlluEmptyStateFillSign_dark_280x192" fill="#999999" fill-rule="nonzero">
            <path d="M233.38574,130.165 L229.09521,134.15914 C225.49798,129.181351 219.509322,126.512683 213.402658,127.166219 C207.295995,127.819755 202.007698,131.695284 199.545317,137.321573 C197.082937,142.947862 197.824044,149.462198 201.4873,154.3916 C187.99536,163.69531 171.23071,169.04199 152.77246,169.9375 L157.6582,165.05176 C158.243926,164.466037 158.243928,163.516391 157.658205,162.930665 C157.072482,162.344939 156.122836,162.344937 155.53711,162.93066 L147.97656,170.49121 C147.695189,170.772432 147.537103,171.153941 147.537103,171.551755 C147.537103,171.949569 147.695189,172.331078 147.97656,172.6123 L155.63379,180.27051 C156.012688,180.649406 156.564943,180.797381 157.082526,180.658694 C157.600109,180.520007 158.004386,180.115727 158.143071,179.598144 C158.281756,179.08056 158.133778,178.528306 157.75488,178.14941 L152.55488,172.94873 C171.85298,172.07173 189.40132,166.46729 203.49482,156.65381 C209.266957,162.121809 218.049626,162.881293 224.67475,158.48535 C229.67964,155.18457 232.56343,149.52051 232.58589,142.94535 C232.587247,142.547506 232.430474,142.165425 232.150071,141.883191 C231.869668,141.600958 231.488614,141.441701 231.09077,141.44047 L231.08589,141.44047 C230.259365,141.440466 229.588579,142.109069 229.58589,142.93559 C229.56636,148.56938 227.2353,153.20219 223.02241,155.98051 C216.539668,160.279664 207.801439,158.531628 203.471445,152.069444 C199.141452,145.607259 200.847834,136.860801 207.289314,132.500066 C213.730794,128.139332 222.485284,129.80402 226.87666,136.22465 L213.97847,148.23246 C213.931358,148.272932 213.861511,148.272097 213.81538,148.23051 L208.45893,143.27445 C208.065727,142.910557 207.508258,142.784078 206.996516,142.942655 C206.484774,143.101232 206.096505,143.520775 205.977966,144.043245 C205.859427,144.565715 206.028627,145.111737 206.42183,145.47563 L211.77827,150.43263 C212.351597,150.965987 213.105566,151.262552 213.88862,151.26271 C214.666793,151.260476 215.416932,150.97196 215.99604,150.45216 L235.43061,132.36036 C236.036828,131.795671 236.070494,130.846463 235.505805,130.240245 C234.941116,129.634027 233.991908,129.600361 233.38569,130.16505 L233.38574,130.165 Z" id="Shape"></path>
            <path d="M50.91016,41.07422 C51.3398676,41.0747834 51.7491607,40.8909365 52.03416,40.56934 C60.1525587,31.4911183 70.2570122,24.4094909 81.56055,19.876 C93.92969,14.7969 107.7832,12.38283 122.76955,12.67873 L140.19265,12.67873 L135.22165,17.65041 C134.841516,18.0290579 134.692602,18.5819242 134.83113,19.1002736 C134.969659,19.618623 135.374527,20.0234912 135.892876,20.1620198 C136.411226,20.3005484 136.964092,20.1516342 137.34274,19.7715 L144.73581,12.3775 C145.116655,12.0966837 145.341828,11.6519503 145.34274,11.17877 L145.34079,11.15924 C145.34079,11.14557 145.33688,11.1319 145.33664,11.11824 C145.33045,10.9691082 145.301722,10.8217725 145.25143,10.68124 C145.226419,10.6100109 145.195651,10.5409361 145.15943,10.4747 C145.114833,10.3913203 145.062435,10.312354 145.00294,10.23886 C144.972927,10.1868452 144.939657,10.1367788 144.90333,10.08896 L137.2461,2.43173 C136.867452,2.05159575 136.314586,1.90268159 135.796236,2.04121021 C135.277887,2.17973882 134.873019,2.58460702 134.73449,3.10295643 C134.595962,3.62130584 134.744876,4.17417209 135.12501,4.55282 L140.25101,9.67882 L122.7998,9.67882 C107.4228,9.37902 93.1728,11.86437 80.42188,17.1007 C68.6940859,21.8078587 58.2108089,29.1580436 49.78809,38.5791 C49.396486,39.0207838 49.3003358,39.6510781 49.5424369,40.1894324 C49.7845379,40.7277866 50.3198735,41.0740981 50.91016,41.07422 Z" id="Shape"></path>
            <path d="M171.67871,136.752 C177.470593,136.745272 182.164166,132.051703 182.1709,126.25982 L182.1709,62.918 C182.174151,60.607146 181.471218,58.3504711 180.15625,56.45023 C179.852017,56.0092302 179.335623,55.7640361 178.80159,55.8070098 C178.267556,55.8499835 177.797015,56.1745964 177.567215,56.6585698 C177.337414,57.1425433 177.383267,57.7123503 177.6875,58.15335 C178.655842,59.5533464 179.173404,61.2157456 179.1709,62.918 L179.1709,126.2598 C179.165974,130.395578 175.814488,133.747059 171.67871,133.75198 L112.041,133.75198 C110.285493,133.751443 108.585836,133.134897 107.23826,132.0098 C106.602917,131.478011 105.656769,131.561957 105.12498,132.1973 C104.593191,132.832643 104.677137,133.778791 105.31248,134.31058 C107.200319,135.887034 109.5815,136.75103 112.041,136.75198 L171.67871,136.752 Z" id="Shape"></path>
            <path d="M188.35742,132.44727 L188.35742,69.10449 C188.360837,66.7940629 187.658251,64.5377455 186.34375,62.6377 C185.873446,61.9559735 184.939541,61.7845814 184.257815,62.254885 C183.576089,62.7251886 183.404696,63.6590935 183.875,64.34082 C184.842749,65.7406823 185.359951,67.4026835 185.35742,69.10449 L185.35742,132.44727 C185.352957,136.582858 182.001797,139.934451 177.86621,139.93945 L118.22852,139.93945 C116.473013,139.938913 114.773356,139.322367 113.42578,138.19727 C112.790437,137.665481 111.844289,137.749427 111.3125,138.38477 C110.780711,139.020113 110.864657,139.966261 111.5,140.49805 C113.387839,142.074504 115.76902,142.9385 118.22852,142.93945 L177.86621,142.93945 C183.657902,142.932644 188.351149,138.238963 188.35742,132.44727 Z" id="Shape"></path>
            <path d="M165.66992,130.01855 C171.461617,130.012285 176.155304,125.319036 176.16211,119.52734 L176.16211,56.18457 C176.153609,53.156642 174.948125,50.2549173 172.80859,48.1123 L159.24219,34.60547 C157.112064,32.4729079 154.219245,31.2781689 151.20508,31.28613 L106.0332,31.28613 C100.241309,31.2928529 95.5477284,35.9864289 95.541,41.77832 L95.541,119.52732 C95.5478064,125.319012 100.241487,130.012259 106.03318,130.01853 L165.66992,130.01855 Z M98.541,119.52734 L98.541,41.77834 C98.5459152,37.6425593 101.897399,34.2910707 106.03318,34.28615 L151.20506,34.28615 C153.425314,34.2801601 155.556178,35.1603486 157.12498,36.73147 L170.69141,50.2373 C172.267832,51.8158034 173.155991,53.9537089 173.16211,56.18457 L173.16211,119.52734 C173.157111,123.662931 169.805512,127.014092 165.66992,127.01855 L106.0332,127.01855 C101.897604,127.014098 98.5459987,123.662935 98.541,119.52734 Z" id="Shape"></path>
            <path d="M118.54346,89.80908 C122.6936,89.80908 127.0332,83.25391 129.28491,79.2793 C130.95557,78.71045 132.66626,78.19824 134.36523,77.75244 C136.29395,77.25 138.12183,76.85059 139.80029,76.56396 C142.517597,79.2430544 146.128928,80.8237468 149.94067,81.00244 C152.30933,81.00244 153.16867,80.04395 153.47559,79.24121 C153.584553,78.9518265 153.638538,78.644645 153.63477,78.33545 C153.641518,77.6807237 153.408236,77.0461979 152.979,76.55176 C151.84521,75.34131 149.50293,74.71387 146.20825,74.71387 C144.195327,74.7328822 142.187018,74.9101856 140.2019,75.24414 C138.861361,73.983256 137.645229,72.5963344 136.57031,71.10254 C135.754148,69.9819844 135.002445,68.8158709 134.31885,67.60986 C135.414761,64.6065379 136.058583,61.4571157 136.22925,58.26465 C136.22925,55.69824 135.24463,52.95459 132.47876,52.95459 C131.585918,52.9809831 130.767878,53.4599222 130.30786,54.22559 C129.03467,56.39453 129.64014,61.15381 131.79077,65.84082 C130.98364,68.20117 130.13623,70.44482 129.10742,72.89209 C128.205461,75.0327308 127.183577,77.1208383 126.04663,79.14648 C119.69141,81.65039 115.79956,84.41016 115.35352,86.72217 C115.1884,87.5568846 115.481522,88.4162453 116.12231,88.97607 C116.798617,89.5435246 117.661178,89.8402936 118.54346,89.80908 Z M148.97217,76.13818 C149.73096,76.29541 150.96362,76.77148 150.68506,78.19434 C150.52588,79.02734 149.67627,79.56787 148.50415,79.56787 C148.184117,79.5672685 147.865241,79.5294171 147.55396,79.45508 C145.293062,78.8842364 143.192486,77.8043452 141.4126,76.29785 C143.90812,75.8448228 146.459747,75.7909284 148.97217,76.13818 Z M131.3811,54.855 L131.3731,54.855 C131.583526,54.4580991 131.989601,54.2034992 132.43853,54.187 C133.58037,54.187 133.82453,55.4746 133.82842,56.55565 C133.679394,59.1080389 133.186078,61.6285766 132.36187,64.04882 C130.667,59.7959 130.564,56.24316 131.3811,54.855 Z M132.0166,73.75344 C132.66626,72.20412 133.27148,70.66066 133.79419,69.1592 C134.37305,70.1177 134.9563,70.99563 135.56543,71.83059 C136.484214,73.0988854 137.495778,74.2973077 138.5918,75.416 L138.5818,75.416 L138.6768,75.51072 C137.17558,75.79295 135.62602,76.14646 134.05863,76.56199 C132.79545,76.88865 131.51029,77.25975 130.15238,77.69578 C130.85254,76.3623 131.49219,75.01025 132.0166,73.75342 L132.0166,73.75344 Z M116.57837,86.9541 C116.89502,85.30176 120.10107,83.01416 125.01172,80.91162 C122.18701,85.52002 119.44116,88.35062 117.77072,88.35062 C117.414986,88.3580946 117.074682,88.2054978 116.843638,87.9349038 C116.612594,87.6643099 116.515211,87.3042974 116.57834,86.95413 L116.57837,86.9541 Z" id="Shape"></path>
            <path d="M111.59668,101.75488 L158.60742,101.75488 C159.159705,101.75488 159.60742,101.307165 159.60742,100.75488 C159.60742,100.202595 159.159705,99.75488 158.60742,99.75488 L111.59668,99.75488 C111.044395,99.75488 110.59668,100.202595 110.59668,100.75488 C110.59668,101.307165 111.044395,101.75488 111.59668,101.75488 Z" id="Shape"></path>
            <path d="M111.59668,111.36328 L158.60742,111.36328 C159.159705,111.36328 159.60742,110.915565 159.60742,110.36328 C159.60742,109.810995 159.159705,109.36328 158.60742,109.36328 L111.59668,109.36328 C111.044395,109.36328 110.59668,109.810995 110.59668,110.36328 C110.59668,110.915565 111.044395,111.36328 111.59668,111.36328 Z" id="Shape"></path>
            <path d="M69.96484,131.90039 C63.7507574,131.903681 57.8424065,134.597065 53.76416,139.28564 C44.9575864,130.004148 38.7377104,118.576392 35.72461,106.14164 C35.7105497,106.093602 35.6940075,106.046325 35.67505,106 L71,106 C71.5522847,106 72,105.552285 72,105 C72,104.447715 71.5522847,104 71,104 L5,104 C4.44771525,104 4,104.447715 4,105 C4,105.552285 4.44771525,106 5,106 L32.85278,106 C32.7566408,106.271373 32.7412904,106.564808 32.80859,106.84473 C35.9538411,119.829265 42.4577208,131.758633 51.668,141.43652 C51.7515838,141.522734 51.8451862,141.598634 51.94681,141.6626 C46.5573935,149.91724 47.4611365,160.777429 54.1408138,168.027726 C60.8204911,175.278022 71.5703776,177.066988 80.2381595,172.370771 C88.9059413,167.674555 93.2782102,157.692385 90.852654,148.137199 C88.4270978,138.582014 79.8231075,131.89383 69.96487,131.90039 L69.96484,131.90039 Z M69.96484,172 C62.4621413,172 55.6982068,167.480483 52.8270493,160.548893 C49.9558917,153.617302 51.5429365,145.638698 56.8481471,140.33349 C62.1533577,135.028282 70.1319633,133.441242 77.0635519,136.312403 C83.9951405,139.183564 88.514654,145.947501 88.51465,153.4502 C88.5031541,163.69021 80.20485,171.98851 69.96484,172 Z" id="Shape"></path>
            <path d="M77.57031,161.15137 C77.5460635,161.132575 77.5207985,161.115131 77.49463,161.09912 C77.446223,161.057587 77.3937044,161.021101 77.33789,160.99023 C77.2800843,160.955832 77.2187868,160.927673 77.15503,160.90623 C77.1004481,160.889316 77.0444866,160.877226 76.98779,160.8701 C76.9585,160.86619 76.93091,160.85301 76.90161,160.85154 C77.1904735,160.641072 77.4455957,160.387835 77.6582,160.10054 C79.03027,158.17671 79.36133,152.76362 79.37402,152.53315 C79.5558582,148.866835 78.84754,145.210984 77.30957,141.87788 C75.0127,136.33003 68.89457,135.88081 65.28613,137.33003 C60.31152,139.32803 58.41797,143.88179 59.16113,147.15132 C59.40991,148.24556 59.62622,149.01753 59.80813,149.5771 C59.0682977,149.860427 58.5301099,150.509506 58.38869,151.28901 C58.2652907,152.324004 58.5497134,153.366378 59.18169,154.19526 C59.61333,154.82026 61.14169,156.8935 62.68657,157.34761 C62.8980833,157.411962 63.1178365,157.445187 63.33892,157.44624 C63.6350889,157.44569 63.9268842,157.374739 64.19024,157.23924 C64.0687054,157.451173 64.0298327,157.700562 64.0811,157.93943 L64.33501,159.05857 C64.4844392,160.096835 64.1645532,161.147794 63.46201,161.92674 C63.2531783,162.146405 63.1559232,162.449314 63.19785,162.74949 C62.9630531,162.634472 62.6924407,162.616408 62.44444,162.6992 C62.23544,162.76853 62.15733,162.7949 58.15344,165.97166 C57.7208878,166.31522 57.6487452,166.944383 57.992305,167.376935 C58.3358648,167.809487 58.9650278,167.88163 59.39758,167.53807 C61.01745,166.25242 62.83996,164.82029 63.22522,164.541 C63.1835934,164.86122 63.3020762,165.181437 63.54211,165.39744 L67.96789,169.2783 C68.1503475,169.438042 68.3845657,169.526161 68.62707,169.5263 C68.6557645,169.526459 68.6844485,169.525154 68.71301,169.52239 C68.9843178,169.499108 69.2343821,169.366141 69.40539,169.15423 L71.32287,166.77823 L73.31164,169.16593 C73.4989853,169.391073 73.7756058,169.522779 74.06848,169.52628 L74.0802,169.52628 C74.3687423,169.526343 74.6432401,169.401732 74.83313,169.18448 L78.62413,164.84948 C78.7683527,164.6781 78.8496701,164.462575 78.8546,164.23864 C79.5437359,164.525968 80.2529896,164.762441 80.97667,164.94616 L83.05577,165.59948 C83.3966371,165.70659 83.7687538,165.623713 84.0319474,165.382069 C84.2951409,165.140424 84.4094259,164.776723 84.3317524,164.427969 C84.2540788,164.079214 83.9962471,163.79839 83.65538,163.69128 L81.51183,163.02038 C80.0755021,162.697795 78.7290603,162.059333 77.57031,161.15137 Z M63.74414,163.75586 C63.7517948,163.672977 63.7488409,163.589455 63.73535,163.50732 C63.7696573,163.527609 63.8052113,163.545712 63.8418,163.56152 L64.0908,163.65137 C63.9698409,163.664765 63.8523533,163.700178 63.74414,163.75586 Z M66.03223,139.18555 C68.3763805,138.248183 71.0257536,138.474698 73.17676,139.79639 C70.5058904,141.039261 67.5812974,141.640066 64.63676,141.55078 C64.30476,141.55273 64.07231,141.55859 63.96098,141.57227 C63.3755853,141.661348 62.8880253,142.068021 62.69535,142.62793 C62.3488515,143.707224 62.6025304,144.889352 63.36135,145.73145 C63.53127,145.93262 63.13088,147.06836 62.98049,147.49609 C62.6867153,148.15263 62.5378408,148.864757 62.544,149.584 C62.584921,149.870444 62.67216,150.148326 62.8023,150.40676 C62.5644797,150.208028 62.3139477,150.025023 62.0523,149.85891 C62.03911,149.82961 62.03765,149.79791 62.02153,149.76955 C61.598054,148.788659 61.2925324,147.76096 61.11138,146.70803 C60.55078,144.24512 62.08594,140.77148 66.03223,139.18555 Z M63.52148,155.05955 C63.48633,155.20994 63.38379,155.41307 63.25098,155.42967 C62.2592637,154.852069 61.4264207,154.037344 60.82715,153.05857 C60.5138965,152.669883 60.3448205,152.18476 60.34863,151.68557 C60.3701256,151.575048 60.4409994,151.480432 60.54102,151.42873 C60.72168,151.31154 61.08691,151.57522 61.74609,152.12795 C61.98926,152.33303 62.23438,152.53713 62.47852,152.71095 C62.9289199,153.030558 63.5531017,152.924778 63.87305,152.47462 C63.9563866,152.354259 64.0117729,152.216796 64.03516,152.07228 C64.3291,152.36476 64.58496,152.58399 64.69336,152.67189 C65.1221788,153.019133 65.7512419,152.953307 66.0988855,152.524812 C66.4465291,152.096318 66.3812897,151.467194 65.95312,151.11915 C65.3369485,150.664378 64.8477289,150.059155 64.53223,149.36134 C64.5950395,148.948904 64.7075237,148.545582 64.86723,148.16017 C65.28223,146.98243 65.79789,145.51563 64.88774,144.43946 C64.6706172,144.192988 64.5453774,143.879033 64.53324,143.55079 L64.6475,143.55079 C66.36357,143.54151 70.8155,143.51173 74.68315,141.24708 C74.9972751,141.680001 75.2587167,142.148796 75.46195,142.64356 C76.8889454,145.696095 77.5467676,149.05162 77.37795,152.417 C77.23244,154.89747 76.6885,158.01466 76.02932,158.93946 C75.66701,159.44825 74.32424,160.25489 71.83596,159.66798 C70.7762542,159.481548 69.7462739,159.154096 68.77346,158.69435 C68.369053,158.35343 67.7690964,158.386422 67.4045099,158.76963 C67.0399233,159.152838 67.0368336,159.753693 67.39746,160.14063 C67.81934,160.59376 69.1582,161.08888 71.375,161.61427 C72.0641705,161.781396 72.7703611,161.868236 73.47949,161.87306 C74.0857924,161.875116 74.6894756,161.793452 75.27344,161.63038 L71.20068,164.09815 L65.73926,162.12115 C66.3424584,161.057776 66.5365831,159.810731 66.28516,158.61432 L66.03223,157.49811 C65.9109408,156.966181 65.3853493,156.629917 64.85156,156.74274 C65.1613761,156.37475 65.3768977,155.936836 65.47949,155.46686 C65.5857822,154.928875 65.2389752,154.405648 64.7020796,154.293983 C64.1651841,154.182318 63.6385165,154.523878 63.52149,155.05963 L63.52148,155.05955 Z M68.50293,167.08787 L64.93164,163.95603 L69.65137,165.66403 L68.50293,167.08787 Z M77.11816,163.53318 L74.09863,166.98631 L72.82227,165.45408 L76.74463,163.07808 C76.90771,163.20108 77.08057,163.31588 77.25708,163.42672 C77.2075493,163.457797 77.1610393,163.493446 77.11816,163.5332 L77.11816,163.53318 Z" id="Shape"></path>
            <path d="M190.49414,37 L211,37 L211,46.78027 C210.999371,47.7837102 211.598906,48.6902461 212.522529,49.0824351 C213.446153,49.474624 214.514781,49.276423 215.23633,48.5791 L227.22559,37 L241.50586,37 C247.298792,36.9931946 251.993195,32.2987923 252,26.50586 L252,10.49414 C251.993195,4.70120774 247.298792,0.0068053902 241.50586,3.55271368e-15 L190.49414,3.55271368e-15 C184.701208,0.0068053902 180.006805,4.70120774 180,10.49414 L180,26.50586 C180.006805,32.2987923 184.701208,36.9931946 190.49414,37 Z M183,10.49414 C183.004992,6.35731035 186.35731,3.00499215 190.49414,3 L241.50586,3 C245.64269,3.00499215 248.995008,6.35731035 249,10.49414 L249,26.50586 C248.995008,30.6426897 245.64269,33.9950078 241.50586,34 L226.61914,34 C226.230424,34.0001587 225.856912,34.1510332 225.57714,34.4209 L214,45.60254 L214,35.5 C213.999785,34.6716621 213.328338,34.0002153 212.5,34 L190.49414,34 C186.35731,33.9950078 183.004992,30.6426897 183,26.50586 L183,10.49414 Z" id="Shape"></path>
            <path d="M192.3252,16.5957 C192.523552,16.5959193 192.717426,16.5367375 192.88184,16.42578 L196.25784,14.15918 L197.27737,16.06641 C197.410492,16.3158593 197.643073,16.4972246 197.917445,16.5655364 C198.191817,16.6338483 198.482286,16.5827095 198.71683,16.4248 L202.09283,14.1582 L203.11236,16.06543 C203.245482,16.3148786 203.478063,16.4962439 203.752434,16.5645574 C204.026805,16.632871 204.317274,16.5817356 204.55182,16.42383 L207.92877,14.15723 L208.94733,16.06445 C209.080446,16.3139028 209.313024,16.4952723 209.587396,16.5635864 C209.861767,16.6319005 210.152237,16.5807616 210.38678,16.42285 L213.76278,14.15625 L214.78231,16.06348 C214.915097,16.3132566 215.147605,16.4949826 215.42206,16.5635025 C215.696516,16.6320225 215.987155,16.5809043 216.22176,16.42285 L219.59876,14.15625 L220.61732,16.0625 C220.750107,16.3122759 220.982614,16.4940019 221.257069,16.5625235 C221.531524,16.6310452 221.822163,16.5799304 222.05677,16.42188 L225.43377,14.15527 L226.45233,16.06152 C226.585117,16.3112959 226.817624,16.4930219 227.092079,16.5615435 C227.366534,16.6300652 227.657173,16.5789504 227.89178,16.4209 L232.04608,13.63281 C232.345005,13.434573 232.514864,13.0914228 232.491227,12.7335187 C232.467591,12.3756146 232.254081,12.0577823 231.931682,11.900578 C231.609284,11.7433736 231.227384,11.7708786 230.93084,11.97266 L227.69549,14.14453 L226.67694,12.2373 C226.544153,11.9875204 226.311643,11.8057922 226.037186,11.7372721 C225.762728,11.668752 225.472086,11.7198722 225.23748,11.87793 L221.86053,14.14453 L220.84198,12.23828 C220.709193,11.9885004 220.476683,11.8067722 220.202226,11.7382521 C219.927768,11.669732 219.637126,11.7208522 219.40252,11.87891 L216.02552,14.14648 L215.00599,12.23828 C214.872867,11.9888344 214.640289,11.8074713 214.36592,11.7391579 C214.091552,11.6708446 213.801086,11.7219779 213.56654,11.87988 L210.18954,14.14648 L209.17099,12.23926 C209.037872,11.9898096 208.805293,11.8084422 208.530923,11.7401283 C208.256552,11.6718145 207.966084,11.7229516 207.73154,11.88086 L204.35554,14.14746 L203.33601,12.23926 C203.202892,11.9898066 202.970312,11.808437 202.695939,11.740123 C202.421566,11.671809 202.131095,11.7229481 201.89655,11.88086 L198.52055,14.14746 L197.501,12.24121 C197.368213,11.9914304 197.135703,11.8097022 196.861246,11.7411821 C196.586788,11.672662 196.296146,11.7237822 196.06154,11.88184 L191.76662,14.76562 C191.401227,15.0110888 191.239319,15.4666227 191.367826,15.8876364 C191.496333,16.3086501 191.885031,16.596121 192.32522,16.5957 L192.3252,16.5957 Z" id="Shape"></path>
            <path d="M192.3252,26.59473 C192.523553,26.5949458 192.717427,26.5357604 192.88184,26.4248 L196.25784,24.1582 L197.27737,26.06543 C197.410492,26.3148786 197.643073,26.4962439 197.917444,26.5645574 C198.191815,26.632871 198.482284,26.5817356 198.71683,26.42383 L202.09378,24.15625 L203.11331,26.06445 C203.246428,26.3139004 203.479007,26.4952678 203.753377,26.5635817 C204.027748,26.6318955 204.318216,26.5807584 204.55276,26.42285 L207.92876,24.15625 L208.94829,26.0625 C209.080936,26.3123495 209.313455,26.4941048 209.58794,26.5625 C209.862469,26.6298009 210.15264,26.5787838 210.38775,26.42188 L213.76375,24.15527 L214.78328,26.0625 C214.916402,26.3119486 215.148983,26.4933139 215.423354,26.5616274 C215.697725,26.629941 215.988194,26.5788056 216.22274,26.4209 L220.37703,23.63281 C220.83143,23.3233189 220.950766,22.705052 220.644191,22.2486794 C220.337616,21.7923067 219.720126,21.6690137 219.2618,21.97266 L216.02645,24.14453 L215.00692,22.2373 C214.874133,21.9875204 214.641623,21.8057922 214.367166,21.7372721 C214.092708,21.668752 213.802066,21.7198722 213.56746,21.87793 L210.19146,24.14453 L209.17193,22.2373 C209.038808,21.9878507 208.806227,21.8064854 208.531855,21.7381736 C208.257483,21.6698617 207.967014,21.7210005 207.73247,21.87891 L204.35647,24.14551 L203.33693,22.23828 C203.20381,21.988832 202.971231,21.8074667 202.696862,21.7391531 C202.422492,21.6708395 202.132025,21.7219748 201.89748,21.87988 L198.52053,24.14746 L197.501,22.24023 C197.368351,21.990383 197.135833,21.8086287 196.86135,21.74023 C196.58682,21.672937 196.29665,21.7239574 196.06154,21.88086 L191.76662,24.76465 C191.401227,25.0101188 191.239319,25.4656527 191.367826,25.8866664 C191.496333,26.3076801 191.885031,26.595151 192.32522,26.59473 L192.3252,26.59473 Z" id="Shape"></path>
            <path d="M20.41211,89.8584 C20.2246293,89.6708175 19.9702898,89.5654261 19.70508,89.5654261 C19.4398702,89.5654261 19.1855307,89.6708175 18.99805,89.8584 L14.70505,94.1514 L10.41205,89.8584 C10.1594525,89.6058025 9.79128364,89.5071519 9.44622903,89.599609 C9.10117443,89.6920661 8.8316561,89.9615844 8.73919901,90.306639 C8.64674191,90.6516936 8.74539248,91.0198625 8.99799,91.27246 L13.29099,95.56546 L8.99799,99.85846 C8.74539248,100.111057 8.64674191,100.479226 8.73919901,100.824281 C8.8316561,101.169336 9.10117443,101.438854 9.44622903,101.531311 C9.79128364,101.623768 10.1594525,101.525118 10.41205,101.27252 L14.70505,96.97952 L18.99805,101.27252 C19.3885319,101.663002 20.0216281,101.663002 20.41211,101.27252 C20.8025918,100.882038 20.8025918,100.248942 20.41211,99.85846 L16.11911,95.56546 L20.41211,91.27246 C20.5996876,91.0849767 20.7050756,90.8306381 20.7050756,90.56543 C20.7050756,90.3002219 20.5996876,90.0458833 20.41211,89.8584 Z" id="Shape"></path>
            <path d="M254.18066,75.21484 C254.188827,74.3930439 254.132655,73.5718693 254.01266,72.75884 C252.947971,65.8227298 247.270994,60.5184921 240.278654,59.9265811 C233.286313,59.3346702 226.798486,63.609141 224.583,70.26758 C223.237278,69.9108961 221.841656,69.780211 220.45311,69.88086 C215.313399,70.2853521 210.924529,73.7485674 209.33593,78.65332 C209.170323,79.1637626 209.290018,79.7237894 209.649818,80.1219364 C210.009618,80.5200834 210.554705,80.6956889 211.079256,80.5824449 C211.603806,80.4692009 212.0279,80.0843612 212.1914,79.57324 C213.398142,75.8317245 216.741374,73.1866719 220.66015,72.87305 C222.153992,72.7631541 223.652729,73.0063777 225.03515,73.58305 C225.446959,73.7546585 225.913789,73.7340333 226.308859,73.5267757 C226.70393,73.3195182 226.986229,72.9471433 227.07909,72.51078 C228.309689,66.760968 233.469697,62.7092833 239.347312,62.8776615 C245.224927,63.0460398 250.144523,67.3864786 251.04394,73.19731 C251.212492,74.3222791 251.226623,75.464997 251.08594,76.59379 C251.028208,77.0486641 251.181887,77.5049373 251.503052,77.8321937 C251.824216,78.1594502 252.277522,78.3216751 252.7334,78.2725 C253.108093,78.2330302 253.484565,78.2128203 253.86133,78.21195 L253.88672,78.21195 C259.853676,78.2125755 264.69478,83.0418532 264.71,89.00879 C264.71,92.86133 263.1475,95.67969 260.06449,97.38479 C258.432742,98.2613725 256.635934,98.787575 254.7891,98.92971 L211.41899,98.93264 C209.723299,99.101749 208.033319,98.5608178 206.75099,97.4385 C205.730065,96.4646921 205.168224,95.1047859 205.20411,93.69436 C205.201708,92.6561999 205.456352,91.6335918 205.94532,90.71779 C206.198621,90.2453902 206.180659,89.6737402 205.8982,89.2181749 C205.61574,88.7626097 205.111695,88.4923404 204.575935,88.5091749 C204.040174,88.5260094 203.554091,88.8273902 203.30079,89.29979 C202.578162,90.6537922 202.201428,92.165424 202.20411,93.70019 C202.173912,95.9375718 203.078627,98.0860846 204.70021,99.62792 C206.379659,101.156697 208.578852,101.98755 210.84962,101.95116 C211.06935,101.95116 211.292,101.94433 211.51462,101.92968 L233.25412,101.92968 C233.234136,101.99819 233.219041,102.068032 233.20895,102.13868 C232.296493,110.230726 230.025365,118.110842 226.49118,125.44728 C226.131441,126.193729 226.444931,127.090471 227.19138,127.45021 C227.937829,127.809949 228.834571,127.496459 229.19431,126.75001 C232.874045,119.110345 235.238916,110.904767 236.18942,102.47853 C236.209366,102.294534 236.194961,102.108435 236.14694,101.9297 L254.78903,101.9297 C258.14157,101.9297 267.70993,99.5557 267.70993,89.00587 C267.692843,81.4978978 261.686897,75.3757775 254.18063,75.21487 L254.18066,75.21484 Z" id="Shape"></path>
            <path d="M199,85.5 C199.000215,86.3283379 199.671662,86.9997847 200.5,87 L227.728,87 L223.64743,91.10059 C223.269581,91.480533 223.12313,92.0331951 223.263246,92.5503939 C223.403362,93.0675926 223.808756,93.4707532 224.326721,93.6080089 C224.844686,93.7452646 225.396531,93.5957631 225.77438,93.21582 L232.416,86.542 C233.000097,85.9548134 232.997908,85.0053972 232.41111,84.42091 L225.73826,77.77833 C225.150905,77.1936841 224.200811,77.1958802 223.616165,77.783235 C223.031519,78.3705898 223.033715,79.3206841 223.62107,79.90533 L227.73511,84 L200.5,84 C199.671662,84.0002153 199.000215,84.6716621 199,85.5 Z" id="Shape"></path>
            <path d="M59.00293,80.57617 C59.0708949,80.677579 59.1512716,80.7700931 59.24219,80.85156 L65.92676,86.8833 C60.86011,88.35449 57.90527,91.52686 55.48242,94.13672 C53.27148,96.51855 51.52442,98.40039 48.91504,98.40039 C46.72363,98.40039 45.47168,95.89453 44.86719,94.16211 C45.661401,92.8730649 46.3211126,91.5058543 46.83594,90.082 C48.19922,86.25 47.85352,83.24606 45.8623,81.625 C45.2339808,81.0058462 44.2573008,80.9128661 43.52344,81.40234 C41.43555,82.80469 41.36719,89.26172 42.67676,93.86328 C40.53809,97.03613 37.71387,99.40039 35.65137,99.40039 C34.80957,99.40039 33.99902,98.12402 33.43164,96.0127 C34.386204,94.628547 35.2131632,93.1606082 35.90234,91.62695 C38.41699,86.04688 38.60254,81.22852 36.40034,78.73828 C35.14741,77.32028 34.02634,77.59961 33.4687,77.8877 C30.47461,79.457 30.02051,89.7168 31.27051,95.582 C29.49512,97.916 27.56641,99.40036 26.07324,99.40036 C25.5209553,99.40036 25.07324,99.8480753 25.07324,100.40036 C25.07324,100.952645 25.5209553,101.40036 26.07324,101.40036 C28.08398,101.40036 30.13574,99.98727 31.94434,97.92575 C33.01953,100.74997 34.50879,101.40036 35.65134,101.40036 C38.30466,101.40036 41.21677,99.15524 43.51071,96.14645 C44.78513,98.9072 46.6611,100.40036 48.91501,100.40036 C52.39645,100.40036 54.60739,98.01852 56.94821,95.49704 C59.5986,92.64255 62.60251,89.40622 68.25095,88.38474 C68.53194,88.331862 68.7761207,88.1595719 68.92014,87.91257 C69.4331281,87.5190241 69.6341404,86.8397778 69.41794,86.23044 L65.86618,76.40036 C65.824157,76.2845619 65.7680705,76.1743636 65.69918,76.07224 L62.38618,71.15424 C62.42842,71.15524 62.47163,71.16498 62.51362,71.16498 C63.757459,71.1996451 64.9653097,70.7452533 65.87788,69.89935 C67.15229,68.65326 67.75679,66.29291 65.63179,63.40521 C61.64643,57.98721 57.37886,52.69916 51.79292,46.25971 C49.582629,43.6788751 47.0235384,41.4185767 44.18945,39.544 C42.8584211,38.7424923 41.4283425,38.1183898 39.93555,37.68755 C39.89966,37.67681 39.86377,37.67485 39.82788,37.66704 L30.01172,23.0957 C29.207349,21.8993479 27.8258334,21.2229998 26.3875766,21.3214295 C24.9493198,21.4198591 23.6728274,22.2781127 23.0389416,23.5728945 C22.4050558,24.8676762 22.510079,26.4022779 23.31445,27.59863 L29.522,36.81348 C26.6298656,37.0581637 23.7808196,37.6711959 21.044,38.6377 C18.85747,39.42676 16.69341,40.35059 14.60161,41.24414 C10.2334,43.11035 6.1084,44.87207 1.65723,45.585 C0.884986026,45.7085861 0.337248447,46.4047075 0.398792158,47.1843527 C0.46033587,47.9639979 1.11051001,48.5655585 1.89258,48.56645 C1.97269665,48.5665474 2.0526968,48.5603416 2.13184,48.54789 C6.94727,47.77543 11.4375,45.85844 15.7793,44.00395 C17.83301,43.12695 19.95605,42.21977 22.06152,41.46 C25.0893227,40.3970202 28.2623261,39.8050059 31.46973,39.70463 L38.55615,50.22363 C36.6668197,50.1645269 34.8036022,50.676751 33.21,51.69336 L32.31547,52.15918 C30.3122803,53.0606018 28.4776123,54.2972661 26.89047,55.81592 C25.5786538,55.335677 24.2996393,54.770181 23.06161,54.12305 C22.5877106,53.8711622 22.0153676,53.8915411 21.560583,54.1764957 C21.1057985,54.4614504 20.8378201,54.967592 20.8577829,55.5039031 C20.8777456,56.0402143 21.1826099,56.5250334 21.65732,56.77539 C27.67782,59.96191 34.43368,61.03516 40.96689,62.07227 C44.736438,62.5997891 48.4741647,63.3339649 52.16318,64.27148 C53.73935,64.70508 55.26864,65.6543 55.09872,66.49414 C54.97079,67.13184 53.88486,67.6377 52.11923,67.88086 C36.0410189,70.0974264 19.8404243,71.3110363 3.61142,71.51465 C2.78680901,71.5250785 2.12525856,72.1992041 2.13035771,73.0238653 C2.13545687,73.8485264 2.8052931,74.5144196 3.62997,74.51465 L3.64853,74.51465 C19.9786999,74.3089031 36.2803346,73.0892693 52.45932,70.86279 L59.00293,80.57617 Z M32.88379,93.14258 C32.0127,86.47852 33.33887,79.99316 34.3916,79.65625 C34.3936,79.65625 34.56738,79.68457 34.90234,80.0625 C36.51855,81.89062 36.19534,86.10742 34.0791,90.80566 C33.71094,91.62207 33.30859,92.4043 32.88379,93.14258 Z M44.55469,83.14158 C44.56836,83.15135 44.58301,83.16209 44.59961,83.17576 C46.39844,84.6406 45.44531,88.02537 44.95215,89.41209 C44.7177353,90.0670469 44.4468006,90.7083523 44.14062,91.33299 C43.44727,87.43945 43.9541,83.84668 44.55469,83.1416 L44.55469,83.14158 Z M64.55762,81.6074 L61.38867,78.74803 L55.51855,70.03416 C56.1554121,69.7481222 56.7237762,69.329258 57.18555,68.80564 L57.19067,68.8115 L63.10742,77.59471 L64.55762,81.6074 Z M49.52734,48.22461 C55.05762,54.60254 59.27934,59.83203 63.21582,65.18261 C63.5293,65.60937 64.49707,67.0537 63.78125,67.7539 C63.22949,68.2949 61.71289,68.4619 60.30078,67.37304 C60.2528372,67.3357576 60.2026091,67.3015107 60.15039,67.2705 C59.927,67.13817 59.70996,66.99804 59.49268,66.85888 L42.97,42.33154 C45.3955074,44.0115615 47.5987731,45.9916326 49.52734,48.22461 Z M25.64746,25.14746 C25.69944,24.8778768 25.857397,24.6404153 26.08594,24.48828 C26.3137149,24.3347319 26.593252,24.2781908 26.862796,24.3311475 C27.1323401,24.3841043 27.3697078,24.5422006 27.52246,24.77051 L52.02856,61.14844 C51.0478467,60.8969667 50.0613567,60.6676333 49.06909,60.46044 L43.89062,52.77344 C43.87793,52.75244 43.86328,52.73244 43.84912,52.71191 L33.50488,37.35645 L33.48413,37.32568 L25.80371,25.9248 C25.6497021,25.6970361 25.5934217,25.4170424 25.64746,25.14746 Z M30.18628,56.88184 C31.2971864,56.102456 32.4693956,55.4143328 33.69141,54.82422 C34.00293,54.66406 34.31055,54.50488 34.61133,54.3457 C36.7959,53.19434 38.23633,52.43262 41.30664,54.47461 C41.37646,54.52197 41.44604,54.57031 41.51611,54.61768 L44.92627,59.68018 C43.75708,59.48242 42.59082,59.29248 41.4375,59.10938 C37.6479732,58.5803123 33.8915267,57.8366032 30.18628,56.88184 Z" id="Shape"></path>
        </g>
    </g>
</svg>