<svg xmlns="http://www.w3.org/2000/svg" width="18" height="18" viewBox="0 0 18 18">
  <path fill="#CACACA" d="M13.0002245,9.991 C13.0005429,9.58642209 12.75705,9.22151363 12.3833412,9.06651316 C12.0096325,8.91151268 11.5793475,8.9969632 11.2932245,9.283 L10.0002245,10.576 L10.0002245,4.999 C10.0002245,4.44671525 9.5525093,3.999 9.00022455,3.999 C8.4479398,3.999 8.00022455,4.44671525 8.00022455,4.999 L8.00022455,10.577 L6.70722455,9.284 C6.31924445,8.89077362 5.68595152,8.8865205 5.29272493,9.27450039 C4.89949834,9.66248027 4.89524487,10.2957732 5.28322455,10.689 L5.29322455,10.699 L8.25122455,13.656 C8.26522455,13.672 8.27022455,13.692 8.28522455,13.707 C8.47271728,13.8945494 8.72702974,13.9999434 8.99222455,14 L9.00922455,14 C9.27407277,13.9996784 9.52797691,13.8943046 9.71522455,13.707 C9.73122455,13.692 9.73622455,13.672 9.74922455,13.656 L12.7072245,10.699 C12.8950191,10.5112623 13.0004333,10.2565413 13.0002245,9.991 Z" transform="rotate(180 8.998 9)"/>
</svg>
