<svg xmlns="http://www.w3.org/2000/svg" width="24" height="24" viewBox="0 0 24 24">
  <path fill="#C2C2C2" d="M23.483,8.817 L15.35,8.434 L12.523,0.874 C12.4502178,0.679971964 12.2652899,0.550949153 12.0580646,0.549607546 C11.8508392,0.548286729 11.664269,0.674923042 11.589,0.868 L8.647,8.434 L0.516,8.825 C0.308619404,8.8351295 0.129078109,8.97236904 0.0648881696,9.16982529 C0.000698230579,9.36728154 0.0652183031,9.58386161 0.227,9.714 L6.576,14.808 L4.423,22.672 C4.36793705,22.8726823 4.44292894,23.0864876 4.61128402,23.2088064 C4.77963911,23.3311251 5.00615374,23.33638 5.18,23.222 L12,18.748 L18.793,23.18 C18.966829,23.2936441 19.1928115,23.288001 19.3607517,23.1658223 C19.5286918,23.0436436 19.6036204,22.83037 19.549,22.63 L17.423,14.808 L23.775,9.708 C23.9386718,9.57786434 24.0040779,9.35962372 23.9389584,9.16091992 C23.8738389,8.96221612 23.6919484,8.82501994 23.483,8.817 Z M7.246,19.588 L8.746,14.104 L4.309,10.548 L9.988,10.279 L12,4.961 L14.011,10.279 L19.69,10.548 L15.252,14.1 L16.752,19.584 L12,16.467 L7.246,19.588 Z"/>
</svg>
