<svg xmlns="http://www.w3.org/2000/svg" width="18" height="18" viewBox="0 0 18 18">
  <g fill="none" fill-rule="evenodd">
    <polygon fill="#C2C2C2" fill-rule="nonzero" points="5.568 4.762 4.82 5.481 2.156 2.861 2.904 2.142"/>
    <polygon fill="#C2C2C2" fill-rule="nonzero" points="15.901 15.139 15.153 15.858 12.503 13.191 13.251 12.471"/>
    <rect width="1.157" height="2.314" x="5.529" y=".9" fill="#C2C2C2" fill-rule="nonzero"/>
    <rect width="2.314" height="1.157" x=".9" y="5.529" fill="#C2C2C2" fill-rule="nonzero"/>
    <rect width="2.314" height="1.157" x="14.786" y="11.314" fill="#C2C2C2" fill-rule="nonzero"/>
    <rect width="1.157" height="2.314" x="11.314" y="14.786" fill="#C2C2C2" fill-rule="nonzero"/>
    <path fill="#C2C2C2" fill-rule="nonzero" d="M9.026 11.854C7.904 12.983 6.182 14.718 6.106 14.793 5.30518711 15.5938129 4.00681291 15.5938128 3.20600003 14.793 2.40518716 13.9921871 2.40518714 12.6938129 3.206 11.893L6.136 8.964 5.049 7.877 2.12 10.806C.739913013 12.2107052.749878036 14.465221 2.14232853 15.8576715 3.53477902 17.250122 5.78929481 17.260087 7.194 15.88L10.115 12.943 9.026 11.854zM8.956 6.128L11.861 3.24C12.6618129 2.43918713 13.9601871 2.43918714 14.761 3.24000002 15.5618129 4.0408129 15.5618129 5.33918711 14.761 6.14L11.861 9.04 12.948 10.127 15.848 7.227C17.2491463 5.82557744 17.2489225 3.55364645 15.8474999 2.15250007 14.4460774.751353681 12.1741464.751577509 10.773 2.153L7.873 5.043 8.956 6.128z"/>
  </g>
</svg>
