<svg xmlns="http://www.w3.org/2000/svg" width="18" height="18" viewBox="0 0 18 18">
  <g fill="none" fill-rule="evenodd">
    <path fill="#999999" fill-rule="nonzero" d="M12.238,3.582 L9.338,0.371 C9.25403367,0.273445444 9.13171377,0.217338343 9.003,0.217338343 C8.87428623,0.217338343 8.75196633,0.273445444 8.668,0.371 L5.768,3.583 C5.70114127,3.65613281 5.68400782,3.76194762 5.72437218,3.85244191 C5.76473654,3.9429362 5.85491562,4.00088498 5.954,4 L8,4 L8,9.75 C8,9.88807119 8.11192881,10 8.25,10 L9.75,10 C9.88807119,10 10,9.88807119 10,9.75 L10,4 L12.051,4 C12.1504326,4.00114444 12.2410897,3.94325124 12.281878,3.85256236 C12.3226663,3.76187349 12.3058297,3.65563385 12.239,3.582 L12.238,3.582 Z"/>
    <path fill="#999999" fill-rule="nonzero" d="M16.5,4 L13.25,4 C13.1119288,4 13,4.11192881 13,4.25 L13,5.75 C13,5.88807119 13.1119288,6 13.25,6 L15,6 L15,14 L3,14 L3,6 L4.75,6 C4.88807119,6 5,5.88807119 5,5.75 L5,4.25 C5,4.11192881 4.88807119,4 4.75,4 L1.5,4 C1.22385763,4 1,4.22385763 1,4.5 L1,15.5 C1,15.7761424 1.22385763,16 1.5,16 L16.5,16 C16.7761424,16 17,15.7761424 17,15.5 L17,4.5 C17,4.22385763 16.7761424,4 16.5,4 Z"/>
  </g>
</svg>
