<svg xmlns="http://www.w3.org/2000/svg" viewBox="4637 2105 12 12">
  <defs>
    <style>
      .cls-1 {
        fill: #707070;
      }
    </style>
  </defs>
  <g id="Symbol_588" data-name="Symbol 588" transform="translate(3238 1751)">
    <path id="Subtraction_1" data-name="Subtraction 1" class="cls-1" d="M10-2638H2a2,2,0,0,1-2-2v-8a2,2,0,0,1,2-2h8a2,2,0,0,1,2,2v8A2,2,0,0,1,10-2638Zm-6.875-6.6a.761.761,0,0,0-.5.2l-.4.4a.79.79,0,0,0,0,1.1l2.4,2.3a.761.761,0,0,0,.5.2.868.868,0,0,0,.6-.3l4.1-5.2a.737.737,0,0,0,.2-.6.552.552,0,0,0-.3-.5l-.4-.3a.751.751,0,0,0-.4-.2.906.906,0,0,0-.7.3l-3.2,4.2-1.4-1.4A.762.762,0,0,0,3.125-2644.6Z" transform="translate(1399 3004)"/>
  </g>
</svg>
