<svg xmlns="http://www.w3.org/2000/svg" viewBox="3773.5 1805.508 15.001 15.001">
  <defs>
    <style>
      .cls-1 {
        fill: rgba(255,255,255,0.1);
        stroke: rgba(149,152,154,0.5);
      }
    </style>
  </defs>
  <path id="Subtraction_11" data-name="Subtraction 11" class="cls-1" d="M-6590-6843h-10a2,2,0,0,1-2-2v-10a2,2,0,0,1,2-2h10a2,2,0,0,1,2,2v10A2,2,0,0,1-6590-6843Zm-10.3-13.3a1,1,0,0,0-1,1v10.6a1,1,0,0,0,1,1h10.6a1,1,0,0,0,1-1v-10.6a1,1,0,0,0-1-1Z" transform="translate(10376 8663.009)"/>
</svg>
