<?xml version="1.0" encoding="UTF-8"?>
<svg width="135px" height="40px" viewBox="0 0 135 40" version="1.1" xmlns="http://www.w3.org/2000/svg" xmlns:xlink="http://www.w3.org/1999/xlink">
    <!-- Generator: Sketch 43.2 (39069) - http://www.bohemiancoding.com/sketch -->
    <title>Download_on_the_App_Store_Badge_da_135x40</title>
    <desc>Created with Sketch.</desc>
    <defs>
        <path d="M130.197,40 L4.729,40 C2.122,40 0,37.872 0,35.267 L0,4.726 C0,2.12 2.122,0 4.729,0 L130.197,0 C132.803,0 135,2.12 135,4.726 L135,35.267 C135,37.872 132.803,40 130.197,40 Z" id="path-1"></path>
        <path d="M134.032,35.268 C134.032,37.384 132.318,39.098 130.198,39.098 L4.729,39.098 C2.61,39.098 0.89,37.384 0.89,35.268 L0.89,4.725 C0.89,2.61 2.61,0.89 4.729,0.89 L130.197,0.89 C132.318,0.89 134.031,2.61 134.031,4.725 L134.032,35.268 Z" id="path-3"></path>
        <path d="M18.128,7.784 C18.099,4.561 20.767,2.993 20.889,2.92 C19.378,0.717 17.036,0.416 16.213,0.392 C14.246,0.185 12.338,1.569 11.336,1.569 C10.314,1.569 8.771,0.412 7.108,0.446 C4.968,0.479 2.966,1.718 1.868,3.642 C-0.398,7.565 1.292,13.33 3.463,16.501 C4.549,18.054 5.818,19.788 7.479,19.727 C9.104,19.66 9.711,18.691 11.672,18.691 C13.615,18.691 14.185,19.727 15.879,19.688 C17.623,19.66 18.721,18.128 19.769,16.561 C21.024,14.781 21.528,13.028 21.548,12.938 C21.507,12.924 18.161,11.647 18.128,7.784 Z" id="path-5"></path>
        <path d="M3.928,4.306 C4.802,3.213 5.4,1.726 5.234,0.217 C3.969,0.273 2.387,1.092 1.476,2.161 C0.67,3.103 -0.05,4.647 0.136,6.099 C1.557,6.205 3.016,5.382 3.928,4.306 Z" id="path-7"></path>
        <path d="M11.645,13.504 L9.374,13.504 L8.13,9.595 L3.806,9.595 L2.621,13.504 L0.41,13.504 L4.694,0.196 L7.34,0.196 L11.645,13.504 Z M7.755,7.955 L6.63,4.48 C6.511,4.125 6.288,3.289 5.959,1.973 L5.919,1.973 C5.788,2.539 5.577,3.375 5.287,4.48 L4.182,7.955 L7.755,7.955 Z" id="path-9"></path>
        <path d="M9.662,5.588 C9.662,7.22 9.221,8.51 8.339,9.457 C7.549,10.3 6.568,10.721 5.397,10.721 C4.133,10.721 3.225,10.267 2.672,9.359 L2.632,9.359 L2.632,14.414 L0.5,14.414 L0.5,4.067 C0.5,3.041 0.473,1.988 0.421,0.908 L2.296,0.908 L2.415,2.429 L2.455,2.429 C3.166,1.283 4.245,0.711 5.693,0.711 C6.825,0.711 7.77,1.158 8.526,2.053 C9.284,2.949 9.662,4.127 9.662,5.588 Z M7.49,5.666 C7.49,4.732 7.28,3.962 6.858,3.356 C6.397,2.724 5.778,2.408 5.002,2.408 C4.476,2.408 3.998,2.584 3.571,2.931 C3.143,3.281 2.863,3.738 2.732,4.304 C2.666,4.568 2.633,4.784 2.633,4.954 L2.633,6.554 C2.633,7.252 2.847,7.841 3.275,8.322 C3.703,8.803 4.259,9.043 4.943,9.043 C5.746,9.043 6.371,8.733 6.818,8.115 C7.266,7.496 7.49,6.68 7.49,5.666 Z" id="path-11"></path>
        <path d="M9.699,5.588 C9.699,7.22 9.258,8.51 8.375,9.457 C7.586,10.3 6.605,10.721 5.434,10.721 C4.17,10.721 3.262,10.267 2.71,9.359 L2.67,9.359 L2.67,14.414 L0.538,14.414 L0.538,4.067 C0.538,3.041 0.511,1.988 0.459,0.908 L2.334,0.908 L2.453,2.429 L2.493,2.429 C3.203,1.283 4.282,0.711 5.731,0.711 C6.862,0.711 7.807,1.158 8.565,2.053 C9.32,2.949 9.699,4.127 9.699,5.588 Z M7.527,5.666 C7.527,4.732 7.316,3.962 6.894,3.356 C6.433,2.724 5.816,2.408 5.039,2.408 C4.512,2.408 4.035,2.584 3.607,2.931 C3.179,3.281 2.9,3.738 2.769,4.304 C2.704,4.568 2.67,4.784 2.67,4.954 L2.67,6.554 C2.67,7.252 2.884,7.841 3.31,8.322 C3.738,8.802 4.294,9.043 4.98,9.043 C5.783,9.043 6.408,8.733 6.855,8.115 C7.303,7.496 7.527,6.68 7.527,5.666 Z" id="path-13"></path>
        <path d="M9.039,9.772 C9.039,10.904 8.646,11.825 7.857,12.536 C6.99,13.313 5.783,13.701 4.232,13.701 C2.8,13.701 1.652,13.425 0.783,12.872 L1.277,11.095 C2.213,11.661 3.24,11.945 4.359,11.945 C5.162,11.945 5.787,11.763 6.236,11.401 C6.683,11.039 6.906,10.553 6.906,9.947 C6.906,9.407 6.722,8.952 6.353,8.583 C5.986,8.214 5.373,7.871 4.517,7.554 C2.187,6.685 1.023,5.412 1.023,3.738 C1.023,2.644 1.431,1.747 2.248,1.049 C3.062,0.35 4.148,0.001 5.506,0.001 C6.717,0.001 7.723,0.212 8.526,0.633 L7.993,2.371 C7.243,1.963 6.395,1.759 5.446,1.759 C4.696,1.759 4.11,1.944 3.69,2.312 C3.335,2.641 3.157,3.042 3.157,3.517 C3.157,4.043 3.36,4.478 3.768,4.82 C4.123,5.136 4.768,5.478 5.704,5.847 C6.849,6.308 7.69,6.847 8.231,7.465 C8.77,8.081 9.039,8.852 9.039,9.772 Z" id="path-15"></path>
        <path d="M6.088,4.508 L3.738,4.508 L3.738,9.167 C3.738,10.352 4.152,10.944 4.982,10.944 C5.363,10.944 5.679,10.911 5.929,10.845 L5.988,12.464 C5.568,12.621 5.015,12.7 4.33,12.7 C3.488,12.7 2.83,12.443 2.355,11.93 C1.882,11.416 1.644,10.554 1.644,9.343 L1.644,4.506 L0.244,4.506 L0.244,2.906 L1.644,2.906 L1.644,1.149 L3.738,0.517 L3.738,2.906 L6.088,2.906 L6.088,4.508 Z" id="path-17"></path>
        <path d="M9.691,5.627 C9.691,7.102 9.269,8.313 8.427,9.26 C7.544,10.235 6.372,10.721 4.911,10.721 C3.503,10.721 2.382,10.254 1.546,9.32 C0.71,8.386 0.292,7.207 0.292,5.786 C0.292,4.299 0.722,3.081 1.585,2.134 C2.446,1.186 3.608,0.712 5.069,0.712 C6.477,0.712 7.61,1.179 8.465,2.114 C9.283,3.021 9.691,4.192 9.691,5.627 Z M7.479,5.696 C7.479,4.811 7.29,4.052 6.907,3.419 C6.46,2.653 5.821,2.271 4.993,2.271 C4.136,2.271 3.485,2.654 3.038,3.419 C2.655,4.053 2.466,4.824 2.466,5.736 C2.466,6.621 2.655,7.38 3.038,8.012 C3.499,8.778 4.143,9.16 4.974,9.16 C5.788,9.16 6.427,8.77 6.888,7.992 C7.281,7.347 7.479,6.58 7.479,5.696 Z" id="path-19"></path>
        <path d="M5.621,2.783 C5.41,2.744 5.185,2.724 4.949,2.724 C4.199,2.724 3.619,3.007 3.211,3.574 C2.856,4.074 2.678,4.706 2.678,5.469 L2.678,10.504 L0.547,10.504 L0.567,3.93 C0.567,2.824 0.54,1.817 0.487,0.909 L2.344,0.909 L2.422,2.745 L2.481,2.745 C2.706,2.114 3.061,1.606 3.547,1.225 C4.022,0.882 4.535,0.711 5.088,0.711 C5.285,0.711 5.463,0.725 5.621,0.75 L5.621,2.783 Z" id="path-21"></path>
        <path d="M9.156,5.252 C9.156,5.634 9.131,5.956 9.078,6.219 L2.682,6.219 C2.707,7.167 3.016,7.892 3.61,8.392 C4.149,8.839 4.846,9.063 5.702,9.063 C6.649,9.063 7.513,8.912 8.29,8.609 L8.624,10.089 C7.716,10.485 6.644,10.682 5.407,10.682 C3.919,10.682 2.751,10.244 1.901,9.369 C1.053,8.494 0.628,7.319 0.628,5.845 C0.628,4.398 1.023,3.193 1.814,2.232 C2.642,1.206 3.761,0.693 5.169,0.693 C6.552,0.693 7.599,1.206 8.31,2.232 C8.873,3.047 9.156,4.055 9.156,5.252 Z M7.123,4.699 C7.137,4.067 6.998,3.521 6.709,3.06 C6.34,2.467 5.773,2.171 5.01,2.171 C4.313,2.171 3.746,2.46 3.313,3.04 C2.958,3.501 2.747,4.054 2.682,4.698 L7.123,4.698 L7.123,4.699 Z" id="path-23"></path>
        <polygon id="path-25" points="5.604 7.433 4.556 7.433 4.556 4.484 1.724 4.484 1.724 7.433 0.676 7.433 0.676 0.896 1.724 0.896 1.724 3.563 4.556 3.563 4.556 0.896 5.604 0.896"></polygon>
        <path d="M4.385,2.853 C4.385,3.041 4.371,3.199 4.346,3.328 L1.203,3.328 C1.216,3.794 1.367,4.149 1.658,4.395 C1.924,4.615 2.266,4.725 2.686,4.725 C3.152,4.725 3.576,4.651 3.957,4.502 L4.121,5.23 C3.675,5.424 3.148,5.521 2.54,5.521 C1.81,5.521 1.235,5.306 0.818,4.876 C0.401,4.446 0.193,3.869 0.193,3.145 C0.193,2.434 0.386,1.842 0.775,1.37 C1.182,0.866 1.731,0.614 2.423,0.614 C3.102,0.614 3.616,0.866 3.965,1.37 C4.246,1.77 4.385,2.265 4.385,2.853 Z M3.385,2.582 C3.392,2.271 3.323,2.003 3.182,1.777 C3,1.485 2.723,1.34 2.348,1.34 C2.005,1.34 1.727,1.482 1.513,1.767 C1.339,1.994 1.236,2.265 1.203,2.582 L3.385,2.582 Z" id="path-27"></path>
        <path d="M5,5.433 L3.952,5.433 L3.952,2.733 C3.952,1.901 3.636,1.485 3.002,1.485 C2.691,1.485 2.44,1.599 2.245,1.828 C2.052,2.057 1.954,2.327 1.954,2.636 L1.954,5.432 L0.906,5.432 L0.906,2.066 C0.906,1.652 0.893,1.203 0.868,0.717 L1.789,0.717 L1.838,1.454 L1.867,1.454 C1.989,1.225 2.171,1.036 2.41,0.885 C2.694,0.709 3.012,0.62 3.36,0.62 C3.8,0.62 4.166,0.762 4.457,1.047 C4.82,1.398 5,1.918 5,2.61 L5,5.433 Z" id="path-29"></path>
        <path d="M3.221,2.504 L2.067,2.504 L2.067,4.794 C2.067,5.376 2.271,5.667 2.678,5.667 C2.866,5.667 3.021,5.651 3.144,5.618 L3.172,6.413 C2.965,6.491 2.693,6.53 2.358,6.53 C1.944,6.53 1.621,6.404 1.388,6.152 C1.155,5.9 1.038,5.476 1.038,4.881 L1.038,2.504 L0.35,2.504 L0.35,1.719 L1.038,1.719 L1.038,0.855 L2.066,0.545 L2.066,1.718 L3.22,1.718 L3.22,2.504 L3.221,2.504 Z" id="path-31"></path>
        <path d="M1.672,1.312 C1.672,1.5 1.61,1.651 1.488,1.768 C1.365,1.885 1.207,1.943 1.011,1.943 C0.837,1.943 0.689,1.883 0.57,1.764 C0.45,1.644 0.39,1.494 0.39,1.313 C0.39,1.132 0.452,0.983 0.575,0.867 C0.698,0.751 0.849,0.692 1.031,0.692 C1.213,0.692 1.365,0.751 1.488,0.867 C1.609,0.982 1.672,1.131 1.672,1.312 Z M1.555,7.433 L0.508,7.433 L0.508,2.719 L1.555,2.719 L1.555,7.433 Z" id="path-33"></path>
    </defs>
    <g id="Page-1" stroke="none" stroke-width="1" fill="none" fill-rule="evenodd">
        <g id="Download_on_the_App_Store_Badge_da_135x40">
            <g id="Group-3">
                <mask id="mask-2" fill="white">
                    <use xlink:href="#path-1"></use>
                </mask>
                <g id="Clip-2"></g>
                <polygon id="Fill-1" fill="#A6A6A6" mask="url(#mask-2)" points="-5 45 140 45 140 -5 -5 -5"></polygon>
            </g>
            <g id="Group-6">
                <mask id="mask-4" fill="white">
                    <use xlink:href="#path-3"></use>
                </mask>
                <g id="Clip-5"></g>
                <polygon id="Fill-4" fill="#000000" mask="url(#mask-4)" points="-4.11 44.098 139.032 44.098 139.032 -4.11 -4.11 -4.11"></polygon>
            </g>
            <g id="Group-9" transform="translate(12.000000, 12.000000)">
                <mask id="mask-6" fill="white">
                    <use xlink:href="#path-5"></use>
                </mask>
                <g id="Clip-8"></g>
                <polygon id="Fill-7" fill="#FFFFFF" mask="url(#mask-6)" points="-4.208096 24.728565 26.548004 24.728565 26.548004 -4.629105 -4.208096 -4.629105"></polygon>
            </g>
            <g id="Group-12" transform="translate(23.000000, 6.000000)">
                <mask id="mask-8" fill="white">
                    <use xlink:href="#path-7"></use>
                </mask>
                <g id="Clip-11"></g>
                <polygon id="Fill-10" fill="#FFFFFF" mask="url(#mask-8)" points="-4.89359 11.1082 10.26172 11.1082 10.26172 -4.783 -4.89359 -4.783"></polygon>
            </g>
            <g id="Group-15" transform="translate(42.000000, 18.000000)">
                <mask id="mask-10" fill="white">
                    <use xlink:href="#path-9"></use>
                </mask>
                <g id="Clip-14"></g>
                <polygon id="Fill-13" fill="#FFFFFF" mask="url(#mask-10)" points="-4.59 18.504 16.645 18.504 16.645 -4.804 -4.59 -4.804"></polygon>
            </g>
            <g id="Group-18" transform="translate(55.000000, 21.000000)">
                <mask id="mask-12" fill="white">
                    <use xlink:href="#path-11"></use>
                </mask>
                <g id="Clip-17"></g>
                <polygon id="Fill-16" fill="#FFFFFF" mask="url(#mask-12)" points="-4.579 19.414 14.662 19.414 14.662 -4.289 -4.579 -4.289"></polygon>
            </g>
            <g id="Group-21" transform="translate(66.000000, 21.000000)">
                <mask id="mask-14" fill="white">
                    <use xlink:href="#path-13"></use>
                </mask>
                <g id="Clip-20"></g>
                <polygon id="Fill-19" fill="#FFFFFF" mask="url(#mask-14)" points="-4.541 19.414 14.699 19.414 14.699 -4.289 -4.541 -4.289"></polygon>
            </g>
            <g id="Group-24" transform="translate(79.000000, 18.000000)">
                <mask id="mask-16" fill="white">
                    <use xlink:href="#path-15"></use>
                </mask>
                <g id="Clip-23"></g>
                <polygon id="Fill-22" fill="#FFFFFF" mask="url(#mask-16)" points="-4.217 18.701 14.039 18.701 14.039 -4.999 -4.217 -4.999"></polygon>
            </g>
            <g id="Group-27" transform="translate(89.000000, 19.000000)">
                <mask id="mask-18" fill="white">
                    <use xlink:href="#path-17"></use>
                </mask>
                <g id="Clip-26"></g>
                <polygon id="Fill-25" fill="#FFFFFF" mask="url(#mask-18)" points="-4.756 17.7 11.088 17.7 11.088 -4.483 -4.756 -4.483"></polygon>
            </g>
            <g id="Group-30" transform="translate(96.000000, 21.000000)">
                <mask id="mask-20" fill="white">
                    <use xlink:href="#path-19"></use>
                </mask>
                <g id="Clip-29"></g>
                <polygon id="Fill-28" fill="#FFFFFF" mask="url(#mask-20)" points="-4.708 15.721 14.691 15.721 14.691 -4.288 -4.708 -4.288"></polygon>
            </g>
            <g id="Group-33" transform="translate(107.000000, 21.000000)">
                <mask id="mask-22" fill="white">
                    <use xlink:href="#path-21"></use>
                </mask>
                <g id="Clip-32"></g>
                <polygon id="Fill-31" fill="#FFFFFF" mask="url(#mask-22)" points="-4.513 15.504 10.621 15.504 10.621 -4.289 -4.513 -4.289"></polygon>
            </g>
            <g id="Group-36" transform="translate(113.000000, 21.000000)">
                <mask id="mask-24" fill="white">
                    <use xlink:href="#path-23"></use>
                </mask>
                <g id="Clip-35"></g>
                <polygon id="Fill-34" fill="#FFFFFF" mask="url(#mask-24)" points="-4.372 15.682 14.156 15.682 14.156 -4.307 -4.372 -4.307"></polygon>
            </g>
            <g id="Group-39" transform="translate(43.000000, 6.000000)">
                <mask id="mask-26" fill="white">
                    <use xlink:href="#path-25"></use>
                </mask>
                <g id="Clip-38"></g>
                <polygon id="Fill-37" fill="#FFFFFF" mask="url(#mask-26)" points="-4.324 12.433 10.604 12.433 10.604 -4.104 -4.324 -4.104"></polygon>
            </g>
            <g id="Group-42" transform="translate(50.000000, 8.000000)">
                <mask id="mask-28" fill="white">
                    <use xlink:href="#path-27"></use>
                </mask>
                <g id="Clip-41"></g>
                <polygon id="Fill-40" fill="#FFFFFF" mask="url(#mask-28)" points="-4.807 10.521 9.385 10.521 9.385 -4.386 -4.807 -4.386"></polygon>
            </g>
            <g id="Group-45" transform="translate(55.000000, 8.000000)">
                <mask id="mask-30" fill="white">
                    <use xlink:href="#path-29"></use>
                </mask>
                <g id="Clip-44"></g>
                <polygon id="Fill-43" fill="#FFFFFF" mask="url(#mask-30)" points="-4.132 10.433 10 10.433 10 -4.38 -4.132 -4.38"></polygon>
            </g>
            <g id="Group-48" transform="translate(61.000000, 7.000000)">
                <mask id="mask-32" fill="white">
                    <use xlink:href="#path-31"></use>
                </mask>
                <g id="Clip-47"></g>
                <polygon id="Fill-46" fill="#FFFFFF" mask="url(#mask-32)" points="-4.65 11.53 8.221 11.53 8.221 -4.455 -4.65 -4.455"></polygon>
            </g>
            <g id="Group-51" transform="translate(68.000000, 6.000000)">
                <mask id="mask-34" fill="white">
                    <use xlink:href="#path-33"></use>
                </mask>
                <g id="Clip-50"></g>
                <polygon id="Fill-49" fill="#FFFFFF" mask="url(#mask-34)" points="-4.61 12.433 6.672 12.433 6.672 -4.308 -4.61 -4.308"></polygon>
            </g>
        </g>
    </g>
</svg>