<?xml version="1.0" encoding="UTF-8"?>
<svg id="FINAL_outline" data-name="FINAL outline" xmlns="http://www.w3.org/2000/svg" viewBox="0 0 300 300">
  <defs>
    <style>
      .cls-1 {
        fill: #686ce7;
      }

      .cls-2 {
        fill: red;
      }

      .cls-3 {
        fill: #ec7f00;
      }

      .cls-4 {
        fill: #dedede;
      }

      .cls-5 {
        fill: #079a76;
      }

      .cls-6 {
        fill: #565b61;
      }
    </style>
  </defs>
  <g>
    <g id="crosshair_sm" data-name="crosshair sm">
      <g id="crosshair_sm-2" data-name="crosshair sm">
        <path class="cls-3" d="m227.25,40.21c-.83,0-1.5-.67-1.5-1.5v-7.63c0-.83.67-1.5,1.5-1.5s1.5.67,1.5,1.5v7.63c0,.83-.67,1.5-1.5,1.5Z"/>
        <path class="cls-3" d="m227.25,25.59c-.83,0-1.5-.67-1.5-1.5v-7.63c0-.83.67-1.5,1.5-1.5s1.5.67,1.5,1.5v7.63c0,.83-.67,1.5-1.5,1.5Z"/>
        <path class="cls-3" d="m223.76,29.09h-7.63c-.83,0-1.5-.67-1.5-1.5s.67-1.5,1.5-1.5h7.63c.83,0,1.5.67,1.5,1.5s-.67,1.5-1.5,1.5Z"/>
        <path class="cls-3" d="m238.37,29.09h-7.63c-.83,0-1.5-.67-1.5-1.5s.67-1.5,1.5-1.5h7.63c.83,0,1.5.67,1.5,1.5s-.67,1.5-1.5,1.5Z"/>
      </g>
    </g>
    <g id="crosshair_sm-3" data-name="crosshair sm">
      <g id="crosshair_sm-4" data-name="crosshair sm">
        <path class="cls-3" d="m247.14,66.71c-.83,0-1.5-.67-1.5-1.5v-10.74c0-.83.67-1.5,1.5-1.5s1.5.67,1.5,1.5v10.74c0,.83-.67,1.5-1.5,1.5Z"/>
        <path class="cls-3" d="m247.14,46.12c-.83,0-1.5-.67-1.5-1.5v-10.74c0-.83.67-1.5,1.5-1.5s1.5.67,1.5,1.5v10.74c0,.83-.67,1.5-1.5,1.5Z"/>
        <path class="cls-3" d="m242.22,51.05h-10.74c-.83,0-1.5-.67-1.5-1.5s.67-1.5,1.5-1.5h10.74c.83,0,1.5.67,1.5,1.5s-.67,1.5-1.5,1.5Z"/>
        <path class="cls-3" d="m262.81,51.05h-10.74c-.83,0-1.5-.67-1.5-1.5s.67-1.5,1.5-1.5h10.74c.83,0,1.5.67,1.5,1.5s-.67,1.5-1.5,1.5Z"/>
      </g>
    </g>
  </g>
  <g id="Path_139643" data-name="Path 139643">
    <path class="cls-6" d="m146.07,54.3h-22.24c-6.97,0-12.64,5.67-12.64,12.64v7.53h-41.22c-8.32-.01-11.17-5.93-11.17-10.17-.02-5.71,4.55-10.38,10.26-10.47.25,0,.47.04.69.05-1.31-12.41,7.65-20.77,21.31-18.08,1.23-4.49,6.7-15.97,20.67-15.3,10.66.52,18.89,8.44,18.84,18.74,0,.94-.11,1.87-.3,2.79,6.05.9,13.39,5.54,15.8,12.27Z"/>
  </g>
  <g>
    <path class="cls-4" d="m208.07,84.38v8.55c-1.11.67-2.11,1.45-3,2.35v-10.9c0-2.87-1.12-5.57-3.14-7.59l-16.26-16.32c-2.01-2.02-4.78-3.17-7.62-3.17h-54.22c-5.32,0-9.64,4.32-9.64,9.64v94.44c0,5.31,4.32,9.63,9.64,9.63h41.67c.83,0,1.5.67,1.5,1.5s-.67,1.5-1.5,1.5h-41.67c-6.97,0-12.64-5.67-12.64-12.63v-94.44c0-6.97,5.67-12.64,12.64-12.64h54.22c3.63,0,7.18,1.48,9.74,4.05l16.27,16.32c2.58,2.59,4.01,6.04,4.01,9.71Z"/>
    <path class="cls-4" d="m205.07,132.92h3v22.54c0,.83-.67,1.5-1.5,1.5s-1.5-.67-1.5-1.5v-22.54Z"/>
    <path class="cls-4" d="m188.84,90.06h-58.43c-.83,0-1.5.67-1.5,1.5s.67,1.5,1.5,1.5h58.43c.83,0,1.5-.67,1.5-1.5s-.67-1.5-1.5-1.5Z"/>
    <path class="cls-4" d="m130.41,102.12h48.53c.83,0,1.5-.67,1.5-1.5s-.67-1.5-1.5-1.5h-48.53c-.83,0-1.5.67-1.5,1.5s.67,1.5,1.5,1.5Z"/>
    <path class="cls-4" d="m184.8,108.19h-54.4c-.83,0-1.5.67-1.5,1.5s.67,1.5,1.5,1.5h54.4c.83,0,1.5-.67,1.5-1.5s-.67-1.5-1.5-1.5Z"/>
    <path class="cls-4" d="m130.41,120.12h46.65c.83,0,1.5-.67,1.5-1.5s-.67-1.5-1.5-1.5h-46.65c-.83,0-1.5.67-1.5,1.5s.67,1.5,1.5,1.5Z"/>
    <path class="cls-4" d="m178.94,126.19h-48.53c-.83,0-1.5.67-1.5,1.5s.67,1.5,1.5,1.5h48.53c.83,0,1.5-.67,1.5-1.5s-.67-1.5-1.5-1.5Z"/>
    <path class="cls-4" d="m130.41,135.26c-.83,0-1.5.67-1.5,1.5s.67,1.5,1.5,1.5h13.08c.83,0,1.5-.67,1.5-1.5s-.67-1.5-1.5-1.5h-13.08Z"/>
  </g>
  <path class="cls-4" d="m259.79,221.73c-6.48-10.62-11.95-21.92-16.26-33.6-.01-.04-.03-.08-.05-.11-3.16-6.79-8.29-12.31-14.83-15.97-.06-.03-.12-.06-.19-.09-1.67-.65-3.51-.65-5.18,0-.52.2-.86.66-.94,1.17-2.39-2.92-4.55-4.91-6.38-5.33-4.24-.98-6.11.75-6.31.95-.18.18-.3.4-.37.63-1.39-1.27-2.64-2.08-3.62-2.15-2.4-.29-4.81.6-6.43,2.4-.22.24-.31.53-.35.83-2.28-2.43-4.66-4.77-7.16-7.01-6.33-5.01-12.87-10.45-14.97-12.25-.06-.05-.12-.09-.18-.13-1.35-.84-3.07-.62-4.39.58-1.69,1.54-2.74,4.76-.99,8.25,1.43,2.54,5.51,6.85,9.46,11.02,2.97,3.14,6.04,6.39,7.01,7.94,2.85,4.06,5.26,8.45,7.19,13.02.48,1.65.88,3.32,1.23,5.01-.51-.45-1.01-.91-1.49-1.38-.82-.82-2.15-2.5-3.57-4.29-3.49-4.41-6.11-7.6-8.01-8.55-2.36-1.18-5.29-1.52-7.12-.83-1.09.42-1.56,1.11-1.77,1.61-1.08,2.7,6.81,18.59,6.9,18.74,2.04,3.83,14.5,21.6,23.23,26.26,6.45,3.74,13.22,7.07,20.11,9.92.05.02.09.04.14.05,1.62.49,3.09,1.39,4.29,2.63l7.37,7.37c.29.29.68.44,1.06.44s.77-.15,1.06-.44c.59-.59.59-1.54,0-2.12l-7.35-7.35c-1.51-1.57-3.41-2.73-5.49-3.38-6.75-2.79-13.37-6.06-19.73-9.74-7.72-4.12-19.92-21.07-22.04-25.05-2.31-4.33-6.26-13.79-6.66-16.16.71-.25,2.74-.23,4.66.73,1.46.73,4.8,4.94,7.01,7.73,1.53,1.94,2.86,3.61,3.8,4.55,1.57,1.56,3.29,3,5.12,4.26.68.47,1.61.3,2.09-.38.38-.55.34-1.25-.04-1.75-.44-2.96-1.09-5.93-1.93-8.81-.02-.05-.03-.11-.06-.16-2.01-4.8-4.54-9.4-7.48-13.59-1.08-1.75-3.98-4.81-7.33-8.36-3.64-3.85-7.77-8.21-8.98-10.37-1.09-2.17-.38-3.96.36-4.63.14-.12.46-.39.72-.29,2.23,1.91,8.7,7.28,14.87,12.16,7.1,6.35,13.35,13.6,18.59,21.55.46.69,1.39.88,2.08.43.69-.46.88-1.39.43-2.08-3.14-4.76-6.64-9.27-10.46-13.51.38-.02.76-.18,1.04-.49.98-1.08,2.43-1.62,3.88-1.43.06,0,.07,0,.14,0,1.75.36,7.99,8.27,12.73,15.44.29.44.77.67,1.25.67.28,0,.57-.08.83-.25.69-.46.88-1.39.42-2.08-2.5-3.78-6.21-9.1-9.55-12.73.21-.07.4-.18.57-.35.01,0,1.01-.79,3.57-.19,2.65.61,8.76,9.62,11.7,13.95l1.05,1.55c.29.42.76.65,1.24.65.29,0,.59-.08.85-.26.68-.47.86-1.4.39-2.08l-1.04-1.54c-2.02-2.98-3.95-5.78-5.77-8.14.22.02.44,0,.66-.09.94-.36,1.97-.38,2.92-.03,5.92,3.33,10.57,8.35,13.45,14.5,4.37,11.83,9.92,23.29,16.49,34.06.28.46.78.72,1.28.72.27,0,.54-.07.78-.22.71-.43.93-1.35.5-2.06Z"/>
  <g id="light_bulb_yes_checked_lg" data-name="light bulb yes checked lg">
    <g id="light_bulb_yes_checked_lg-2" data-name="light bulb yes checked lg">
      <path class="cls-5" d="m132.37,285.03c-3.82,0-7.64-.77-11.28-2.32-7.08-3.01-12.55-8.55-15.4-15.6-1.65-4.09-2.43-11.48-.45-18.78,1.66-6.12,5.83-14.31,16.3-18.53,9.08-3.67,19.3-2.47,27.32,3.21.68.48.84,1.42.36,2.09-.48.68-1.41.84-2.09.36-7.19-5.09-16.33-6.16-24.47-2.88-16.95,6.84-17.01,26.4-14.19,33.41,2.55,6.31,7.44,11.27,13.79,13.96,6.34,2.69,13.31,2.77,19.62.22,12.1-4.89,18.4-17.62,15.32-30.96-.19-.81.32-1.61,1.12-1.8.81-.18,1.61.32,1.8,1.12,3.42,14.81-3.61,28.96-17.12,34.41-3.43,1.38-7.03,2.08-10.63,2.08Z"/>
      <path class="cls-5" d="m129.08,267.19c-.38,0-.77-.15-1.06-.44l-10.78-10.78c-.59-.59-.59-1.54,0-2.12s1.54-.59,2.12,0l9.72,9.71,32.76-32.75c.59-.59,1.54-.59,2.12,0s.59,1.54,0,2.12l-33.82,33.82c-.29.29-.68.44-1.06.44Z"/>
    </g>
  </g>
  <g>
    <path class="cls-4" d="m67.89,206.96H30.29c-6.51,0-11.81-5.3-11.81-11.81v-36.15c0-6.51,5.3-11.81,11.81-11.81h37.6c6.51,0,11.81,5.3,11.81,11.81v36.15c0,6.51-5.3,11.81-11.81,11.81Zm-37.6-56.77c-4.86,0-8.81,3.95-8.81,8.81v36.15c0,4.86,3.95,8.81,8.81,8.81h37.6c4.86,0,8.81-3.95,8.81-8.81v-36.15c0-4.86-3.95-8.81-8.81-8.81H30.29Z"/>
    <path class="cls-2" d="m66.8,181.57c-1.16-1.24-3.37-1.87-6.57-1.87-1.77.02-3.57.17-5.31.46-1.12-1.09-2.16-2.28-3.06-3.57-.7-.95-1.33-1.94-1.92-2.98,1.14-3.57,1.7-6.43,1.7-8.59,0-2.62-1.04-5.43-3.95-5.43-1.02.02-1.94.58-2.45,1.43-1.24,2.13-.75,6.55,1.24,11.01-.7,2.06-1.46,4.05-2.38,6.28-.8,1.89-1.67,3.76-2.69,5.56-2.98,1.19-9.32,4.1-9.92,7.33-.19.95.15,1.92.87,2.57.7.63,1.63.95,2.57.92,3.81,0,7.62-5.29,10.19-9.83,1.46-.49,2.94-.95,4.42-1.33,1.63-.44,3.18-.78,4.66-1.04,4.03,3.52,7.62,4.05,9.44,4.05,2.47,0,3.4-1.07,3.74-1.97.39-1.02.17-2.18-.56-3.01Zm-2.64,1.84c-.15.7-.85,1.16-1.84,1.16-.29,0-.56-.02-.82-.1-1.82-.44-3.57-1.31-5.29-2.69,1.29-.19,2.6-.29,3.93-.29.87-.02,1.75.05,2.62.19.75.15,1.63.58,1.41,1.72Zm-17.37-21.47c.17-.32.49-.53.85-.53.92,0,1.12,1.12,1.12,2.04,0,1.48-.44,3.86-1.21,6.48-1.53-4.12-1.31-6.99-.75-7.98Zm2.21,19.48c-.8.22-1.6.44-2.4.68.44-.87.82-1.72,1.16-2.55.44-1.09.87-2.16,1.26-3.23.34.53.68,1.04,1.04,1.55.7.97,1.43,1.89,2.23,2.77,0-.02-2.21.49-3.3.78Zm-8.52,4.85c-2.45,3.93-4.85,6.4-6.26,6.4-.22,0-.46-.07-.63-.22-.27-.22-.39-.56-.32-.9.29-1.41,3.06-3.44,7.21-5.29Z"/>
  </g>
  <path class="cls-4" d="m97.2,258.01c-.17,0-.35-.03-.52-.09-20.92-7.66-37.9-23.82-46.59-44.36-.32-.76.03-1.64.8-1.97.76-.32,1.64.04,1.97.8,8.36,19.77,24.71,35.34,44.86,42.71.78.28,1.18,1.15.89,1.92-.22.61-.8.98-1.41.98Z"/>
  <path class="cls-4" d="m56.7,142.65c-.27,0-.53-.07-.78-.22-.71-.43-.93-1.35-.5-2.06,10-16.47,25.55-28.83,43.78-34.82.78-.26,1.63.17,1.89.96.26.79-.17,1.63-.96,1.89-17.55,5.77-32.52,17.68-42.15,33.53-.28.46-.78.72-1.28.72Z"/>
  <g id="Path_139643-2" data-name="Path 139643">
    <path class="cls-6" d="m284.3,116c0,12.53-9.75,16.91-16.84,16.91h-12.02s-54.82,0-54.82,0c-9.04,0-12.14-6.44-12.14-11.06-.03-6.21,4.94-11.29,11.16-11.4.26,0,.5.05.74.06-.66-6.3,1.11-11.64,4.69-15.24.89-.9,1.89-1.68,3-2.35,3.98-2.42,9.3-3.29,15.51-2.07,1.33-4.89,7.28-17.39,22.48-16.65,11.6.56,20.55,9.18,20.5,20.38-.01,1.02-.12,2.04-.32,3.04,7.99,1.19,18.06,8.38,18.06,18.37Z"/>
  </g>
  <path class="cls-1" d="m72.38,93.62l-8.85-8.85c-1.82-1.82-4.78-1.82-6.6,0l-3.18,3.18-10.23-10.23c-2.81-2.81-7.38-2.81-10.19,0l-15.52,15.52c-1.36,1.36-2.11,3.17-2.11,5.09s.75,3.73,2.11,5.09l15.52,15.52c1.36,1.36,3.17,2.11,5.09,2.11s3.73-.75,5.09-2.11l11.64-11.64,1.77,1.77h0c.91.91,2.11,1.37,3.3,1.37s2.39-.45,3.3-1.37l8.85-8.85c.88-.88,1.37-2.05,1.37-3.3s-.49-2.42-1.37-3.3Zm-30.71,23.48c-.87.87-2.02,1.34-3.24,1.34s-2.38-.48-3.24-1.34l-15.52-15.52c-.87-.87-1.34-2.02-1.34-3.24s.48-2.38,1.34-3.24l15.52-15.52c1.79-1.79,4.7-1.79,6.49,0l10.23,10.23-3.82,3.82c-.88.88-1.37,2.05-1.37,3.3s.49,2.42,1.37,3.3l5.24,5.24-11.64,11.64Zm28.86-18.73l-8.85,8.85c-.8.8-2.11.8-2.91,0l-8.85-8.85c-.39-.39-.6-.9-.6-1.45s.21-1.06.6-1.45l8.85-8.85c.8-.8,2.11-.8,2.91,0l8.85,8.85c.39.39.6.9.6,1.45s-.21,1.07-.6,1.45Z"/>
</svg>