<?xml version="1.0" encoding="utf-8"?>
<!-- Generator: Adobe Illustrator 24.3.0, SVG Export Plug-In . SVG Version: 6.00 Build 0)  -->
<svg version="1.1" id="Layer_1" xmlns="http://www.w3.org/2000/svg" xmlns:xlink="http://www.w3.org/1999/xlink" x="0px" y="0px"
	 viewBox="0 0 240 240" style="enable-background:new 0 0 240 240;" xml:space="preserve">
<style type="text/css">
	.st0{fill:#FFFFFF;}
	.st1{fill:#DFDFDF;}
	.st2{fill:#FF0000;}
	.st3{fill:#EF7F00;}
	.st4{fill:#565B61;}
	.st5{fill:#6A68EF;}
</style>
<path class="st0" d="M156.4,136.5c-3.2,5.6-11.8,0.6-8.6-5c2.7-4.8,6.4-8.8,9.6-13.2c0.5-0.7,1.2-1.3,1.9-1.8V82.2
	c0-3.9-1.6-7.7-4.3-10.5l-19.8-19.8c-2.8-2.8-6.6-4.4-10.6-4.4H58.7c-7.5,0-13.5,6.1-13.5,13.5c0,0,0,0,0,0v114.7
	c0,7.5,6.1,13.5,13.5,13.5h87c7.5,0,13.5-6.1,13.5-13.5v-43.6C158.2,133.5,157.2,135,156.4,136.5z"/>
<path class="st1" d="M160.2,136.8c-0.9,0-1.8-0.3-2.5-1v39.9c0,6.6-5.4,12-12,12h-87c-6.6,0-12-5.4-12-12V61c0-6.6,5.4-12,12-12
	h65.9c3.6,0,7,1.4,9.5,3.9l19.8,19.8c2.5,2.5,3.9,5.9,3.9,9.4v35.6c0.5-0.5,1-1,1.6-1.3c0.1,0,0.1-0.1,0.1-0.1
	c0.2-0.3,0.4-0.5,0.6-0.8l0.6-0.5v-33c0-4.3-1.7-8.5-4.8-11.6l-19.8-19.8c-3.1-3.1-7.3-4.8-11.6-4.8H58.7c-8.3,0-15,6.7-15,15v114.7
	c0,8.3,6.7,15,15,15l0,0h87c8.3,0,15-6.7,15-15l0,0v-39C160.6,136.7,160.4,136.7,160.2,136.8z"/>
<g id="crosshair_sm">
	<g id="crosshair_sm-2">
		<path class="st1" d="M190.9,53.1L190.9,53.1c-0.8,0-1.5-0.7-1.5-1.5c0,0,0,0,0,0l0.1-6.4c0-0.8,0.7-1.5,1.5-1.5
			c0.8,0,1.5,0.7,1.5,1.5c0,0,0,0,0,0l-0.1,6.4C192.4,52.4,191.7,53.1,190.9,53.1z"/>
		<path class="st1" d="M191.1,40.8L191.1,40.8c-0.8,0-1.5-0.7-1.5-1.5c0,0,0,0,0,0l0.1-6.4c0-0.8,0.7-1.5,1.5-1.5l0,0
			c0.8,0,1.5,0.7,1.5,1.5c0,0,0,0,0,0l-0.1,6.4C192.6,40.1,191.9,40.8,191.1,40.8z"/>
		<path class="st1" d="M200.4,43.8L200.4,43.8l-6.4-0.1c-0.8,0-1.5-0.7-1.5-1.5s0.7-1.5,1.5-1.5l0,0l6.4,0.1c0.8,0,1.5,0.7,1.5,1.5
			S201.3,43.8,200.4,43.8L200.4,43.8z"/>
		<path class="st1" d="M188.1,43.7L188.1,43.7l-6.4-0.1c-0.8,0-1.5-0.7-1.5-1.5c0,0,0,0,0,0c0-0.8,0.7-1.5,1.5-1.5l6.4,0.1
			c0.8,0,1.5,0.7,1.5,1.5S188.9,43.7,188.1,43.7L188.1,43.7z"/>
	</g>
</g>
<g id="crosshair_sm-3">
	<g id="crosshair_sm-4">
		<path class="st1" d="M173.9,75.3L173.9,75.3c-0.8,0-1.5-0.7-1.5-1.5c0,0,0,0,0,0l0.1-9.1c0-0.8,0.7-1.5,1.5-1.5s1.5,0.7,1.5,1.5
			l-0.1,9.1C175.4,74.6,174.7,75.2,173.9,75.3C173.9,75.3,173.9,75.3,173.9,75.3z"/>
		<path class="st1" d="M174.1,57.9L174.1,57.9c-0.8,0-1.5-0.7-1.5-1.5c0,0,0,0,0,0l0.1-9.1c0-0.8,0.7-1.5,1.5-1.5l0,0
			c0.8,0,1.5,0.7,1.5,1.5c0,0,0,0,0,0l-0.1,9.1C175.6,57.2,174.9,57.9,174.1,57.9z"/>
		<path class="st1" d="M187.2,62.2L187.2,62.2l-9.1-0.1c-0.8,0-1.5-0.7-1.5-1.5c0,0,0,0,0,0c0-0.8,0.7-1.5,1.5-1.5c0,0,0,0,0,0
			l9.1,0.1c0.8,0,1.5,0.7,1.5,1.5S188.1,62.2,187.2,62.2L187.2,62.2z"/>
		<path class="st1" d="M169.9,62L169.9,62l-9.1-0.1c-0.8,0-1.5-0.7-1.5-1.5s0.7-1.5,1.5-1.5l0,0l9.1,0.1c0.8,0,1.5,0.7,1.5,1.5
			S170.7,62,169.9,62z"/>
	</g>
</g>
<path class="st1" d="M132.7,125.3L132.7,125.3l-61.1-0.7c-3.4-0.1-6-2.8-6-6.2L66,93.2c0.1-3.4,2.8-6,6.2-6l19.5,0.2
	c0.8,0,1.5,0.7,1.5,1.5s-0.7,1.5-1.5,1.5l0,0l-19.5-0.3c-1.7,0-3.1,1.4-3.1,3.1l-0.3,25.2c0,1.7,1.4,3.1,3.1,3.2l61,0.7
	c1.7,0,3.1-1.3,3.1-3c0,0,0,0,0,0l0.3-25.2c0-1.7-1.4-3.1-3.1-3.2c0,0,0,0,0,0l-18.9-0.2c-0.8,0-1.5-0.7-1.5-1.5s0.7-1.5,1.5-1.5
	l18.9,0.2c3.4,0.1,6,2.8,6,6.2l-0.3,25.2C138.8,122.6,136.1,125.3,132.7,125.3z"/>
<path class="st2" d="M138,161.7h-15.3c-0.6,0-1-0.4-1-1s0.4-1,1-1H138c0.6,0,1,0.4,1,1S138.6,161.7,138,161.7z"/>
<path class="st1" d="M138,143.8h-15.3c-0.6,0-1-0.4-1-1s0.4-1,1-1H138c0.6,0,1,0.4,1,1S138.6,143.8,138,143.8z"/>
<path class="st1" d="M138,152.6h-15.3c-0.6,0-1-0.4-1-1s0.4-1,1-1H138c0.6,0,1,0.4,1,1S138.6,152.6,138,152.6z"/>
<path class="st0" d="M22.2,41.1l58.1-19.5c2.3-0.8,4.9,0.5,5.6,2.8l12.1,36c0.8,2.3-0.5,4.9-2.8,5.6L37.1,85.5
	c-2.3,0.8-4.9-0.5-5.6-2.8l-12.1-36C18.6,44.4,19.8,41.9,22.2,41.1z"/>
<path class="st3" d="M35.7,87.3c-0.9,0-1.8-0.2-2.7-0.6c-1.4-0.7-2.5-1.9-3-3.4l-12.1-36c-0.5-1.5-0.4-3.1,0.3-4.5
	c0.7-1.4,1.9-2.5,3.4-3l58.1-19.5c1.5-0.5,3.1-0.4,4.6,0.3c1.4,0.7,2.5,1.9,3,3.4l12.1,36c1,3.1-0.6,6.5-3.8,7.5l0,0L37.6,87
	C37,87.2,36.3,87.3,35.7,87.3z M81.7,22.8c-0.3,0-0.6,0.1-0.9,0.2L22.6,42.5c-1.5,0.5-2.4,2.2-1.9,3.7c0,0,0,0,0,0l12.1,36
	c0.5,1.5,2.2,2.3,3.8,1.8l58.1-19.5l0,0c1.5-0.5,2.4-2.2,1.9-3.7l-12.1-36c-0.2-0.7-0.8-1.4-1.5-1.7C82.6,22.9,82.1,22.8,81.7,22.8z
	 M95.2,66L95.2,66z"/>
<path class="st3" d="M75,47.3c-4,0-7.3-3.2-7.3-7.2c0-4,3.2-7.3,7.2-7.3c4,0,7.3,3.2,7.3,7.2c0,1.2-0.3,2.3-0.8,3.4
	c-0.9,1.7-2.4,3-4.2,3.6l0,0C76.5,47.2,75.7,47.3,75,47.3z M74.9,35.7c-0.4,0-0.9,0.1-1.3,0.2c-2.2,0.8-3.5,3.2-2.7,5.5
	c0.7,2.2,3.1,3.4,5.3,2.7l0,0c1.1-0.3,2-1.1,2.5-2.1c1.1-2.1,0.2-4.7-1.9-5.8C76.2,35.9,75.6,35.7,74.9,35.7L74.9,35.7z"/>
<path class="st3" d="M39.2,86.2c-0.8,0-1.5-0.7-1.5-1.5c0-0.2,0.1-0.5,0.2-0.7L51,57.8c0.7-1.4,2.4-1.9,3.8-1.2c0,0,0,0,0,0
	l24.9,13.5c0.7,0.4,1,1.3,0.6,2c-0.2,0.3-0.5,0.6-0.8,0.7L39.7,86.2C39.5,86.2,39.4,86.2,39.2,86.2z M53.5,59.3L42.2,82.2l33.1-11.1
	L53.5,59.3z"/>
<path class="st3" d="M82.1,71.9c-0.8,0-1.5-0.7-1.4-1.6c0-0.6,0.4-1.1,0.9-1.3l5.1-1.7l-15.2-8.2c0,0-0.1,0-0.1,0l-1.9,4
	c-0.3,0.8-1.2,1.1-2,0.8c-0.8-0.3-1.1-1.2-0.8-2c0,0,0-0.1,0.1-0.1l1.9-4.1c0.4-0.7,1-1.3,1.8-1.6c0.8-0.2,1.6-0.2,2.4,0.2l18.3,9.8
	c0.5,0.3,0.8,0.9,0.8,1.4c0,0.6-0.4,1.1-1,1.3l-8.3,2.8C82.4,71.8,82.3,71.9,82.1,71.9z"/>
<path class="st1" d="M112.2,101.5c-0.5-0.6-1.5-0.7-2.1-0.1l-4.7,4.1c0.9-9.9-1.1-19.9-5.7-28.8c-0.7-1.4-1.5-2.8-2.4-4.1
	c-0.4-0.7-1.4-0.9-2.1-0.5c-0.7,0.4-0.9,1.4-0.5,2.1c0.8,1.3,1.6,2.6,2.3,3.9c4.4,8.4,6.2,17.8,5.4,27.2l-4.2-4.8
	c-0.6-0.6-1.5-0.7-2.1-0.1c-0.6,0.6-0.7,1.5-0.1,2.1l0,0l6.5,7.5c0.3,0.3,0.6,0.5,1,0.5h0.1c0.4,0,0.7-0.1,1-0.4l7.4-6.5
	C112.7,103.1,112.8,102.1,112.2,101.5C112.3,101.5,112.3,101.5,112.2,101.5z"/>
<g id="hand_pencil_lg">
	<g id="hand_pencil_lg-2">
		<path class="st1" d="M230.5,113.6c-0.1,0-0.2,0-0.3,0c-6.2-1.2-11.9-4-17.5-6.6c-2.6-1.3-5.4-2.6-8.1-3.7
			c-4.3-1.7-8.8-2.7-13.4-2.9c-0.8,0-1.5-0.7-1.4-1.6c0-0.8,0.7-1.5,1.6-1.4c4.9,0.2,9.8,1.3,14.4,3.1c2.8,1.1,5.6,2.5,8.3,3.7
			c5.4,2.6,10.9,5.2,16.8,6.4c0.8,0.1,1.4,0.8,1.4,1.6C232.1,113.1,231.4,113.7,230.5,113.6L230.5,113.6L230.5,113.6z"/>
		<path class="st1" d="M196.1,125.2c-0.5,0-0.9-0.2-1.2-0.6c-1.5-1.9-3.9-3.2-6.2-4.5l-1.2-0.7c-3.1-1.8-5.1-2.7-9.2-0.2l-0.6,0.4
			c-0.7,0.4-1.6,0.2-2-0.6c-0.4-0.7-0.2-1.5,0.4-2l0.6-0.4c5.5-3.3,8.7-2,12.3,0.1l1.1,0.7c2.4,1.4,5.1,2.9,7,5.2
			c0.5,0.6,0.4,1.6-0.2,2.1c0,0,0,0,0,0C196.8,125.1,196.5,125.2,196.1,125.2z"/>
	</g>
</g>
<path class="st1" d="M150.4,139.9c-1.6,0.1-3.2-0.6-4.3-1.7c-1.5-1.6-2.1-4.4,0.7-7.9c5.5-6.8,11.3-13.5,19-21.7
	c3-3.2,6.4-6,10.2-8.3c2-1.1,4.2-1.9,6.4-2.4c0.8-0.2,1.6,0.3,1.8,1.1c0.2,0.8-0.3,1.6-1.1,1.8l0,0c-2,0.4-3.8,1.1-5.6,2
	c-3.5,2.1-6.7,4.7-9.4,7.7c-7.6,8-13.4,14.7-18.8,21.5c-0.6,0.8-2,2.7-0.8,3.9c0.9,1,3.2,1.1,5.2-0.2l0.2-0.1
	c0.4-0.2,0.8-0.5,1.2-0.7c0.7-0.4,1.6-0.2,2.1,0.5c0.4,0.7,0.2,1.6-0.5,2.1c-0.4,0.2-0.8,0.5-1.3,0.7
	C153.7,139.4,152.1,139.9,150.4,139.9z"/>
<path class="st0" d="M157.3,135.2c-0.1-0.3-0.2-0.6-0.2-0.8l-9.9,13.5l-5.1,12.7l10.5-8.7l9.4-12.9
	C159.9,138.4,157.9,137.5,157.3,135.2z"/>
<path class="st0" d="M201.3,79.7c-1.5-1.1-3.6-0.8-4.6,0.7c0,0,0,0,0,0L160,130.4c0.2-0.1,0.5-0.1,0.7-0.1h0.2
	c0.2-0.1,0.5-0.1,0.8-0.1c2.2-1.7,5.1-1.5,7.7-1.4L202,84.3C203.1,82.9,202.8,80.8,201.3,79.7C201.3,79.7,201.3,79.7,201.3,79.7z"/>
<path class="st2" d="M142.1,162c-0.3,0-0.6-0.1-0.9-0.3c-0.6-0.4-0.8-1.1-0.5-1.8l5.1-12.7c0.1-0.1,0.1-0.2,0.2-0.3l49.4-67.4
	c1.5-2.2,4.5-2.8,6.7-1.3c2.2,1.5,2.8,4.5,1.3,6.7c-0.1,0.1-0.2,0.2-0.3,0.3l-32.7,44.5c-0.5,0.7-1.5,0.8-2.1,0.3
	c-0.6-0.5-0.8-1.4-0.3-2l32.7-44.6c0.3-0.4,0.4-0.9,0.3-1.3c-0.1-0.5-0.3-0.9-0.7-1.2c-0.4-0.3-0.9-0.5-1.4-0.4
	c-0.5,0.1-0.9,0.3-1.2,0.7l-49.3,67.2l-2.8,6.9l5.8-4.8l9.7-13.2c0.5-0.7,1.5-0.8,2.1-0.3c0.6,0.5,0.8,1.4,0.3,2l-9.8,13.4
	c-0.1,0.1-0.2,0.2-0.2,0.3l-10.5,8.8C142.7,161.8,142.4,162,142.1,162z"/>
<path class="st1" d="M226.9,147.4L226.9,147.4c-21.4-1.1-42.7-3.6-63.7-7.3c-4-0.7-6.2-2.3-6.6-4.8c-0.6-3.7,3.2-5.9,6.6-6.7
	c5-1.1,10-1.8,15.1-2.3c8.7-1,16.9-2,24.4-5.6c0.7-0.4,1.6,0,2,0.7c0.4,0.7,0,1.6-0.7,2l0,0c-8,3.8-16.8,4.9-25.4,5.9
	c-5,0.5-9.9,1.3-14.8,2.3c-1.9,0.4-4.6,1.7-4.3,3.3c0.2,1.4,2.4,2,4.2,2.4c20.9,3.7,42,6.2,63.3,7.3c0.8,0,1.5,0.7,1.5,1.5
	S227.8,147.4,226.9,147.4L226.9,147.4L226.9,147.4z"/>
<g id="ibeam_text">
	<g id="ibeam_text-2">
		<path class="st2" d="M111.1,144.6c-0.8,0-1.5-0.7-1.5-1.5c0-3.1-0.9-4.9-5.3-4.9c-0.8,0-1.5-0.7-1.5-1.5s0.7-1.5,1.5-1.5
			c5.6,0,8.3,2.6,8.3,7.9C112.6,143.9,111.9,144.6,111.1,144.6z"/>
		<path class="st2" d="M104.3,167.1c-0.8,0-1.5-0.7-1.5-1.5s0.7-1.5,1.5-1.5c4.4,0,5.3-1.8,5.3-4.9c0-0.8,0.7-1.5,1.5-1.5
			s1.5,0.7,1.5,1.5C112.6,164.6,109.9,167.1,104.3,167.1z"/>
		<path class="st2" d="M117.9,167.1c-5.6,0-8.3-2.6-8.3-7.9v-16.2c0-5.3,2.7-7.9,8.3-7.9c0.8,0,1.5,0.7,1.5,1.5s-0.7,1.5-1.5,1.5
			c-4.4,0-5.3,1.8-5.3,4.9v16.2c0,3.1,0.9,4.9,5.3,4.9c0.8,0,1.5,0.7,1.5,1.5S118.7,167.1,117.9,167.1L117.9,167.1z"/>
	</g>
</g>
<path class="st2" d="M117.9,164.1c-4.4,0-5.3-1.8-5.3-4.9v-16.2c0-3.1,0.9-4.9,5.3-4.9c0.8,0,1.5-0.7,1.5-1.5s-0.7-1.5-1.5-1.5
	c-3.2,0-5.5,0.9-6.8,2.6c-1.3-1.7-3.6-2.6-6.8-2.6c-0.8,0-1.5,0.7-1.5,1.5s0.7,1.5,1.5,1.5c4.4,0,5.3,1.8,5.3,4.9v16.2
	c0,3.1-0.9,4.9-5.3,4.9c-0.8,0-1.5,0.7-1.5,1.5s0.7,1.5,1.5,1.5c3.2,0,5.5-0.9,6.8-2.6c1.3,1.7,3.6,2.6,6.8,2.6
	c0.8,0,1.5-0.7,1.5-1.5S118.7,164.1,117.9,164.1z"/>
<path class="st0" d="M71.4,200.9h-37c-3.2,0-5.8-2.6-5.8-4.8v-36.1c0-4.2,2.6-5.8,5.8-5.8h37c3.2,0,5.8,2.6,5.8,5.8v35.2
	C77.3,198.3,74.7,200.9,71.4,200.9z"/>
<path class="st1" d="M71.4,202.4h-37c-4.2,0-7.3-3.4-7.3-6.3v-36.1c0-4.6,2.7-7.3,7.3-7.3h37c4,0,7.3,3.3,7.3,7.3v35.2
	C78.8,199.1,75.5,202.4,71.4,202.4z M34.4,155.6c-2.9,0-4.3,1.4-4.3,4.3V196c0,1.3,1.9,3.3,4.3,3.3h37c2.4,0,4.3-1.9,4.3-4.3v-35.1
	c0-2.4-1.9-4.3-4.3-4.3H34.4z"/>
<path class="st1" d="M56.2,190.2H46.1c-0.6,0-1-0.4-1-1s0.4-1,1-1h10.1c0.6,0,1,0.4,1,1S56.8,190.2,56.2,190.2z"/>
<path class="st1" d="M68.2,174.1H46.1c-0.6,0-1-0.4-1-1s0.4-1,1-1h22.1c0.6,0,1,0.4,1,1S68.7,174.1,68.2,174.1z"/>
<path class="st1" d="M53.4,186.1c-0.3,0-0.7-0.1-0.9-0.4l-2.5-2.6c-0.4-0.4-0.4-1,0-1.4c0.4-0.4,1-0.4,1.4,0c0,0,0,0,0,0l2,2l2-2
	c0.4-0.4,1-0.3,1.4,0.1c0.3,0.4,0.3,0.9,0,1.3l-2.5,2.6C54.1,186,53.8,186.1,53.4,186.1z"/>
<path class="st1" d="M65.4,169.7c-0.3,0-0.7-0.1-0.9-0.4l-2.5-2.6c-0.4-0.4-0.4-1,0-1.4c0.4-0.4,1-0.4,1.4,0l2,2l2-2
	c0.4-0.4,1-0.5,1.4-0.1s0.5,1,0.1,1.4c0,0-0.1,0.1-0.1,0.1l-2.5,2.6C66.1,169.6,65.8,169.7,65.4,169.7z"/>
<rect x="61.4" y="182.9" class="st0" width="6.7" height="6.7"/>
<path class="st1" d="M68.1,190.6h-6.7c-0.6,0-1-0.4-1-1v-6.7c0-0.6,0.4-1,1-1h6.7c0.6,0,1,0.4,1,1v6.7
	C69.1,190.1,68.6,190.6,68.1,190.6z M62.4,188.6h4.7v-4.7h-4.7V188.6z"/>
<path class="st1" d="M93,167.8L93,167.8l-11.3-0.1c-0.8,0-1.5-0.7-1.5-1.5c0,0,0,0,0,0c0-0.8,0.7-1.5,1.5-1.5l11.3,0.1
	c0.7,0,1.4-0.3,1.9-0.8c0.5-0.5,0.8-1.2,0.8-1.9l0.3-21.9c0-0.7-0.3-1.4-0.8-1.9c-0.5-0.5-1.2-0.8-1.9-0.8l-22.2-0.3
	c-0.7,0-1.4,0.3-1.9,0.8c-0.5,0.5-0.8,1.2-0.8,1.9l-0.1,9.3c0,0.8-0.7,1.5-1.5,1.5c0,0,0,0,0,0l0,0c-0.8,0-1.5-0.7-1.5-1.5
	c0,0,0,0,0,0l0.1-9.3c0-3.1,2.6-5.7,5.8-5.6c0,0,0,0,0,0l22.2,0.3c3.1,0,5.6,2.6,5.6,5.7c0,0,0,0,0,0l-0.3,21.9
	C98.7,165.3,96.1,167.8,93,167.8z"/>
<g id="cloud-2">
	<path class="st4" d="M177.8,219l11.9,0.1c7,0.1,16.6-4.1,16.8-16.5c0.1-9.8-9.7-17.1-17.6-18.3c0.2-1,0.3-2,0.4-3
		c0.2-11.1-8.5-19.6-20-20.3c-15-0.9-21,11.3-22.4,16.1c-14.6-3.1-24.3,5.8-23.1,19.1c-0.2,0-0.5-0.1-0.7-0.1
		c-6.1,0-11.1,5-11.1,11.1c-0.1,4.5,2.9,10.9,11.8,11l16.7,0.2L177.8,219z"/>
</g>
<g id="text_sm-3">
	<path id="text_sm-4" class="st0" d="M11.4,148.9c-0.9,0-1.6,0.7-1.6,1.6v9.3c0,0.9,0.7,1.6,1.5,1.6c0,0,0,0,0,0h3.1
		c0.9,0,1.6-0.7,1.6-1.6l0,0v-4.7h12.5v31.1h-4.7c-0.9,0-1.6,0.7-1.6,1.5c0,0,0,0,0,0v3.1c0,0.9,0.7,1.6,1.5,1.6c0,0,0,0,0,0h15.6
		c0.9,0,1.6-0.7,1.6-1.5c0,0,0,0,0,0v-3.1c0-0.9-0.7-1.5-1.5-1.6c0,0,0,0,0,0h-4.7v-31.1h12.5v4.7c0,0.9,0.7,1.6,1.5,1.6
		c0,0,0,0,0,0h3.1c0.9,0,1.6-0.7,1.6-1.5c0,0,0,0,0,0v-9.3c0-0.9-0.7-1.6-1.6-1.6H11.4z"/>
	<path class="st5" d="M39.4,194H23.9c-1.7,0-3-1.3-3.1-3v-3.1c0-1.7,1.4-3.1,3.1-3.1H27v-28.2h-9.4v3.2c0,1.7-1.4,3-3.1,3.1h-3.1
		c-1.7,0-3.1-1.4-3.1-3.1v-9.3c0-1.7,1.4-3.1,3.1-3.1h40.5c1.7,0,3.1,1.4,3.1,3.1v9.3c0,1.7-1.4,3.1-3.1,3.1h-3.1
		c-1.7,0-3.1-1.4-3.1-3.1v-3.2h-9.5v28.1h3.2c1.7,0,3,1.4,3,3.1v3.1C42.5,192.6,41.1,194,39.4,194z M23.9,187.8l-0.1,3.2h15.6v-3.2
		l-4.7-0.1c-0.8,0-1.5-0.7-1.5-1.5v-31.1c0-0.8,0.7-1.5,1.5-1.5h12.5c0.8,0,1.5,0.7,1.5,1.5v4.7l3.2,0.1l0.1-9.4l-40.5-0.1
		c0,0-0.1,0-0.1,0.1v9.3l3.2,0.1l0.1-4.7c0-0.8,0.7-1.5,1.5-1.5h12.5c0.8,0,1.5,0.7,1.5,1.5v31.1c0,0.8-0.7,1.5-1.5,1.5L23.9,187.8z
		"/>
</g>
</svg>
