<svg id="Layer_1" data-name="Layer 1" xmlns="http://www.w3.org/2000/svg" viewBox="0 0 240 240"><defs><style>.cls-1{fill:#565b61;}.cls-2{fill:#dfdfdf;}.cls-3{fill:red;}.cls-4{fill:#079d76;}.cls-5{fill:#ef7f00;}.cls-6{fill:#6a68ef;}</style></defs><g id="cloud"><path class="cls-1" d="M96.02,75.68244H79.17a10.8401,10.8401,0,0,0-10.85,10.85v12.72H33.15c-7.31,0-9.81-5.2-9.81-8.93a9.16387,9.16387,0,0,1,9.01-9.2c.22,0,.41.04.61.05-1.15-10.91,6.72-18.25,18.72-15.88,1.08-3.95,5.89-14.03,18.15-13.44,9.37.46,16.6,7.41,16.56,16.46a13.40716,13.40716,0,0,1-.26,2.45A19.34979,19.34979,0,0,1,96.02,75.68244Z"/></g><path class="cls-2" d="M130.91,188.84242c-.22-.02-.45-.06-.71-.06a10.24408,10.24408,0,0,0-6.51,2.29H79.17a12.58783,12.58783,0,0,1-12.57-12.58v-11.07a1.725,1.725,0,0,1,3.45,0v11.07a9.13092,9.13092,0,0,0,9.12,9.13h51.64C130.83,188.03242,130.87,188.43244,130.91,188.84242Z"/><path class="cls-2" d="M161.47,103.51246v54.32a20.51653,20.51653,0,0,0-3.45,3.14v-57.46a10.15172,10.15172,0,0,0-2.97-7.21l-15.84-15.9a10.16775,10.16775,0,0,0-7.23-3H79.17a9.13736,9.13736,0,0,0-9.12,9.13v45.18a1.725,1.725,0,0,1-3.45,0v-45.18a12.57927,12.57927,0,0,1,12.57-12.57h52.81a13.57829,13.57829,0,0,1,9.67,4.01l15.84,15.9A13.54594,13.54594,0,0,1,161.47,103.51246Z"/><path class="cls-3" d="M100.14845,147.46427a43.02886,43.02886,0,0,1-2.64213,3.51742c-.4262.50462-.84319.96625-1.24615,1.38176-1.61738,1.66332-3.04029,2.5912-4.08975,2.5912a1.31385,1.31385,0,0,1-.93693-.33562,1.88335,1.88335,0,0,1-.2679-.30148,1.28578,1.28578,0,0,1-.23838-.66625,1.48363,1.48363,0,0,1,.0262-.37381,2.25977,2.25977,0,0,1,.11808-.4048,5.5537,5.5537,0,0,1,1.3052-1.80632q.24245-.24023.52141-.48783a36.2744,36.2744,0,0,1,8.81348-5.2145Q100.82854,146.4672,100.14845,147.46427ZM130.851,138.203a20.88988,20.88988,0,0,1,3.90378.30149,2.60221,2.60221,0,0,1,2.13547,1.50188,1.8563,1.8563,0,0,1,.083.5,2.48593,2.48593,0,0,1-.04908.58931c-.203,1.04633-1.2849,1.72328-2.765,1.72328a5.57677,5.57677,0,0,1-.583-.07232,4.98094,4.98094,0,0,1-.66606-.08451,20.32357,20.32357,0,0,1-7.91973-4.0082c.60924-.09244,1.19375-.16624,1.751-.22621A38.86046,38.86046,0,0,1,130.851,138.203Zm-11.79509-1.2432c-1.56793.32916-3.18678.71091-4.83036,1.14468-1.17973.31237-2.37718.65407-3.57425,1.01866.63581-1.30169,1.22032-2.5912,1.72956-3.81743.67086-1.62033,1.3015-3.24048,1.88011-4.82538.50924.79854,1.03582,1.5742,1.57273,2.32034q.79874,1.10565,1.62919,2.13105.82917,1.02483,1.68491,1.95723l-.138.03082Zm-8.10423-27.967a1.73932,1.73932,0,0,1,.1262-.17232,1.449,1.449,0,0,1,1.13545-.64467,1.31632,1.31632,0,0,1,.84577.28156,3.69638,3.69638,0,0,1,.83766,2.77884,19.81812,19.81812,0,0,1-.26495,3.005,48.89618,48.89618,0,0,1-1.1373,5.22373q-.19151.71321-.40886,1.44948a30.61329,30.61329,0,0,1-1.27715-4.24825,21.2792,21.2792,0,0,1-.483-3.46354,12.50324,12.50324,0,0,1,.11366-2.58973A4.803,4.803,0,0,1,110.95164,108.99276Zm31.01949,31.89978a4.66809,4.66809,0,0,0-.2786-1.18619,4.22534,4.22534,0,0,0-.83545-1.38177,6.38818,6.38818,0,0,0-1.59117-1.22013c-1.88455-1.04947-4.64475-1.57882-8.24262-1.57882-1.17825,0-2.43548.057-3.76207.17233q-1.98934.17076-4.17869.51551a39.4,39.4,0,0,1-4.57649-5.33923,48.65679,48.65679,0,0,1-2.86316-4.44825q.63489-1.99432,1.1111-3.7975c.186-.70777.35056-1.38638.50148-2.0495q.31829-1.41036.53064-2.682c.097-.58618.18045-1.1539.2417-1.69414a22.91645,22.91645,0,0,0,.15979-2.60651c0-2.80191-.7967-5.73149-2.83586-7.18853a4.738,4.738,0,0,0-.91847-.52474,5.50984,5.50984,0,0,0-2.16794-.41384,4.14265,4.14265,0,0,0-2.08455.5954,4.4137,4.4137,0,0,0-1.57125,1.56165,9.6338,9.6338,0,0,0-1.01552,4.85454,20.62584,20.62584,0,0,0,.18008,2.382,33.62108,33.62108,0,0,0,2.69267,9.24282c-.26015.76939-.52473,1.534-.79706,2.30023-.54614,1.531-1.12475,3.06668-1.75723,4.65915-.31662.79559-.64614,1.60483-.99265,2.43584a84.12883,84.12883,0,0,1-4.0082,8.32417c-3.61853,1.45557-10.54894,4.60065-13.50325,8.30738a6.13475,6.13475,0,0,0-1.3218,2.64194,4.37886,4.37886,0,0,0-.06605,1.06164,3.984,3.984,0,0,0,.65536,1.93713,4.51959,4.51959,0,0,0,.70629.82935,4.70307,4.70307,0,0,0,1.0742.73083c.09668.04926.19668.09539.30591.14318a5.65,5.65,0,0,0,.98821.33377,6.40032,6.40032,0,0,0,1.48933.17085,7.513,7.513,0,0,0,3.19417-.774,12.53225,12.53225,0,0,0,2.09266-1.26627,24.11753,24.11753,0,0,0,3.99455-3.85432,48.57375,48.57375,0,0,0,3.60045-4.91911c.83544-1.29265,1.62033-2.605,2.337-3.879q1.63178-.55629,3.29011-1.057c1.103-.334,2.21112-.6478,3.31594-.93858.238-.0631.46606-.11089.7026-.17233,2.16979-.55868,4.28054-1.03563,6.27357-1.38951q.56514.494,1.12475.93544,1.11423.88645,2.18787,1.5803.5358.34843,1.06017.65554a19.37257,19.37257,0,0,0,9.72419,2.89564,7.1565,7.1565,0,0,0,3.98828-.96921,4.30758,4.30758,0,0,0,.58009-.45554,3.94757,3.94757,0,0,0,1.01294-1.52476,4.22918,4.22918,0,0,0,.27048-1.31553A4.60314,4.60314,0,0,0,141.97113,140.89254Z"/><g id="arrow_left_lg" data-name="arrow left lg"><g id="arrow_left_lg-2" data-name="arrow left lg"><path class="cls-4" d="M73.63916,159.84425a1.72054,1.72054,0,0,1-1.23975-.52539l-16.8291-17.39454L38.73633,159.315a1.72485,1.72485,0,0,1-2.47949-2.39844l16.82421-17.39062a3.46175,3.46175,0,0,1,4.96827,0l16.82959,17.39453a1.72486,1.72486,0,0,1-1.23975,2.92383Z"/><path class="cls-4" d="M55.56494,192.85792a1.72471,1.72471,0,0,1-1.72461-1.72461V142.63917a1.72461,1.72461,0,1,1,3.44922,0v48.49414A1.72471,1.72471,0,0,1,55.56494,192.85792Z"/></g></g><g id="crosshair_sm" data-name="crosshair sm"><g id="crosshair_sm-2" data-name="crosshair sm"><path class="cls-5" d="M186.99805,67.77979a1.72471,1.72471,0,0,1-1.72461-1.72461v-6.3623a1.72461,1.72461,0,1,1,3.44922,0v6.3623A1.72471,1.72471,0,0,1,186.99805,67.77979Z"/><path class="cls-5" d="M186.99805,79.97511a1.72472,1.72472,0,0,1-1.72461-1.72461V71.88819a1.72461,1.72461,0,1,1,3.44922,0V78.2505A1.72472,1.72472,0,0,1,186.99805,79.97511Z"/><path class="cls-5" d="M184.08105,70.6963h-6.3623a1.72461,1.72461,0,0,1,0-3.44922h6.3623a1.72461,1.72461,0,0,1,0,3.44922Z"/><path class="cls-5" d="M196.27637,70.6963h-6.36231a1.72461,1.72461,0,0,1,0-3.44922h6.36231a1.72461,1.72461,0,1,1,0,3.44922Z"/></g></g><g id="crosshair_sm-3" data-name="crosshair sm"><g id="crosshair_sm-4" data-name="crosshair sm"><path class="cls-5" d="M203.5918,48.27149a1.72471,1.72471,0,0,1-1.72461-1.72461v-8.959a1.72461,1.72461,0,1,1,3.44922,0v8.959A1.72471,1.72471,0,0,1,203.5918,48.27149Z"/><path class="cls-5" d="M203.5918,65.44581a1.72471,1.72471,0,0,1-1.72461-1.72461V54.76173a1.72461,1.72461,0,1,1,3.44922,0V63.7212A1.72471,1.72471,0,0,1,203.5918,65.44581Z"/><path class="cls-5" d="M199.48438,52.37891h-8.959a1.72461,1.72461,0,1,1,0-3.44921h8.959a1.72461,1.72461,0,0,1,0,3.44921Z"/><path class="cls-5" d="M216.6582,52.37891h-8.959a1.72461,1.72461,0,1,1,0-3.44921h8.959a1.72461,1.72461,0,1,1,0,3.44921Z"/></g></g><g id="star_favorit_lg" data-name="star favorit lg"><g id="star_favorit_lg-2" data-name="star favorit lg"><path class="cls-6" d="M182.294,129.65675a3.84567,3.84567,0,0,1-2.03223-.582L165.71,120.03565a1.725,1.725,0,0,1,1.82031-2.93066l14.55176,9.04a.39965.39965,0,0,0,.59961-.43164l-4.62891-19.64405,15.17676-12.82568a.399.399,0,0,0-.22168-.70312l-19.93554-1.79932-7.69043-18.27051a.37138.37138,0,0,0-.36817-.24463h0a.37115.37115,0,0,0-.36816.24512l-4.10059,9.74268a1.72485,1.72485,0,0,1-3.17969-1.3379l4.10059-9.74316a3.84324,3.84324,0,0,1,3.54785-2.35644h.001a3.84138,3.84138,0,0,1,3.54687,2.35644l6.88575,16.35938L193.31836,89.105a3.8492,3.8492,0,0,1,2.13769,6.77392l-13.55957,11.459,4.14258,17.58447a3.85269,3.85269,0,0,1-3.74511,4.73438Z"/></g></g><g id="cloud-2" data-name="cloud"><path class="cls-1" d="M210.91,194.07246c0,11.94-9.3,16.12-16.06,16.12H131.14c-8.62-.01-11.58-6.15-11.58-10.55a11.107,11.107,0,0,1,4.13-8.57,10.24408,10.24408,0,0,1,6.51-2.29c.26,0,.49.04.71.06-.04-.41-.07995-.81-.1-1.22-.65-12.2,8.49-20.24,22.21-17.53a24.05728,24.05728,0,0,1,5-9.12,20.51653,20.51653,0,0,1,3.45-3.14,19.95732,19.95732,0,0,1,12.98-3.6c11.07.53,19.6,8.74,19.55,19.43a15.58408,15.58408,0,0,1-.31,2.89C201.3,177.68244,210.91,184.54243,210.91,194.07246Z"/></g></svg>