<?xml version="1.0" encoding="utf-8"?>
<!-- Generator: Adobe Illustrator 24.3.0, SVG Export Plug-In . SVG Version: 6.00 Build 0)  -->
<svg version="1.1" id="Layer_1" xmlns="http://www.w3.org/2000/svg" xmlns:xlink="http://www.w3.org/1999/xlink" x="0px" y="0px"
	 viewBox="0 0 240 240" style="enable-background:new 0 0 240 240;" xml:space="preserve">
<style type="text/css">
	.st0{fill:#FFFFFF;}
	.st1{fill:#DFDFDF;}
	.st2{fill:#565B61;}
	.st3{fill:#FF0000;}
	.st4{fill:#6A68EF;}
	.st5{fill:#EF7F00;}
	.st6{fill:#079D76;}
</style>
<g id="desktop_monitor_lg">
	<path class="st0" d="M46.3,105.3H204c1.1,0,2,0.9,2,2v88.3c0,1.1-0.9,2-2,2H46.3c-1.1,0-2-0.9-2-2v-88.3
		C44.3,106.2,45.2,105.3,46.3,105.3z"/>
	<path class="st1" d="M204,199H46.3c-1.9,0-3.5-1.6-3.5-3.5v-88.3c0-1.9,1.6-3.5,3.5-3.5c0,0,0,0,0,0H204c1.9,0,3.5,1.6,3.5,3.5
		v88.3C207.5,197.4,205.9,199,204,199L204,199z M46.3,106.8c-0.3,0-0.5,0.2-0.5,0.5v88.3c0,0.3,0.2,0.5,0.5,0.5H204
		c0.3,0,0.5-0.2,0.5-0.5v-88.3c0-0.3-0.2-0.5-0.5-0.5H46.3z"/>
	<path class="st1" d="M150.4,228.8H98.9c-0.8,0-1.5-0.7-1.5-1.5v-4c0-0.7,0.5-1.3,1.2-1.5l10.5-2.3c3.6-0.8,6.2-4,6.1-7.7v-8.4
		c0-0.8,0.7-1.5,1.5-1.5s1.5,0.7,1.5,1.5v8.4c0,5.1-3.5,9.5-8.5,10.6l-9.4,2.1v1.3h48.6v-1.3l-9.4-2.1c-5-1.1-8.5-5.5-8.5-10.6v-8.4
		c0-0.8,0.7-1.5,1.5-1.5s1.5,0.7,1.5,1.5v8.4c0,3.7,2.5,6.9,6.1,7.7l10.5,2.3c0.7,0.2,1.2,0.8,1.2,1.5v4
		C151.9,228.1,151.2,228.7,150.4,228.8z"/>
</g>
<path class="st0" d="M82.1,167.4h88.9c3.3,0,5.9,2.7,5.9,5.9v0.9c0,3.3-2.7,5.9-5.9,5.9H82.1c-3.3,0-5.9-2.7-5.9-5.9v-0.9
	C76.1,170,78.8,167.4,82.1,167.4z"/>
<path class="st1" d="M171,181.7H82.1c-4.1,0-7.4-3.3-7.4-7.4v-0.9c0-4.1,3.3-7.4,7.4-7.4H171c4.1,0,7.4,3.3,7.4,7.4v0.9
	C178.4,178.3,175.1,181.7,171,181.7z M82.1,168.9c-2.4,0-4.4,2-4.4,4.4v0.9c0,2.4,2,4.4,4.4,4.4H171c2.4,0,4.4-2,4.4-4.4v-0.9
	c0-2.4-2-4.4-4.4-4.4H82.1z"/>
<g id="cloud">
	<path class="st2" d="M196.6,63.1l10.3,0.1c6.1,0,14.4-3.6,14.5-14.4c0.1-8.5-8.5-14.8-15.3-15.8c0.2-0.9,0.3-1.7,0.3-2.6
		c0.1-9.6-7.5-17-17.4-17.6c-13-0.7-18.2,9.9-19.4,14.1c-12.7-2.6-21.1,5.1-20,16.7c-0.2,0-0.4,0-0.6-0.1c-5.3,0-9.6,4.4-9.6,9.7
		c0,4,2.6,9.5,10.3,9.5l14.5,0.1L196.6,63.1z"/>
</g>
<path class="st0" d="M108.2,31.4h34.1c5.2,0,9.4,4.2,9.4,9.3c0,0,0,0,0,0v32.8c0,5.2-4.2,9.4-9.4,9.4l0,0h-34.1
	c-5.2,0-9.3-4.2-9.4-9.3c0,0,0,0,0,0V40.8C98.8,35.6,103,31.4,108.2,31.4C108.2,31.4,108.2,31.4,108.2,31.4z"/>
<path class="st1" d="M142.3,84.4h-34.1c-6,0-10.8-4.9-10.8-10.9V40.8c0-6,4.9-10.8,10.8-10.9h34.1c6,0,10.8,4.9,10.9,10.9v32.8
	C153.2,79.6,148.3,84.4,142.3,84.4z M108.2,32.9c-4.3,0-7.8,3.5-7.8,7.8v32.8c0,4.3,3.5,7.8,7.8,7.9h34.1c4.3,0,7.9-3.5,7.9-7.9
	V40.8c0-4.3-3.5-7.8-7.9-7.8H108.2z"/>
<path class="st3" d="M141.4,61.2c-1.1-1.1-3.1-1.7-6-1.7c-1.6,0-3.2,0.2-4.8,0.4c-1-1-1.9-2.1-2.8-3.2c-0.6-0.9-1.2-1.8-1.7-2.7
	c0.9-2.5,1.4-5.1,1.5-7.8c0-2.4-1-4.9-3.6-4.9c-0.9,0-1.7,0.5-2.2,1.3c-1.1,1.9-0.7,6,1.1,10c-0.6,1.9-1.3,3.7-2.2,5.7
	c-0.7,1.7-1.5,3.4-2.4,5c-2.7,1.1-8.5,3.7-9,6.6c-0.2,0.9,0.1,1.7,0.8,2.3c0.6,0.6,1.5,0.9,2.3,0.8c3.5,0,6.9-4.8,9.2-8.9
	c1.3-0.4,2.7-0.8,4-1.2s2.9-0.7,4.2-0.9c3.6,3.2,6.9,3.7,8.6,3.7c2.2,0,3.1-1,3.4-1.8C142.2,63,142,62,141.4,61.2z M139,62.9
	c-0.2,0.8-1,1.2-1.7,1.1c-0.3,0-0.5,0-0.8-0.1c-1.8-0.4-3.4-1.3-4.8-2.4c1.2-0.2,2.4-0.3,3.6-0.3c0.8,0,1.6,0,2.4,0.2
	C138.4,61.5,139.1,61.9,139,62.9z M123.2,43.4c0.1-0.3,0.4-0.5,0.8-0.5c0.8,0,1,1,1,1.8c-0.1,2-0.5,4-1.1,5.9
	C122.5,46.9,122.7,44.3,123.2,43.4z M125.2,61.1c-0.7,0.2-1.5,0.4-2.2,0.6c0.4-0.8,0.8-1.6,1.1-2.3c0.4-1,0.8-2,1.1-2.9
	c0.3,0.5,0.6,1,1,1.4c0.6,0.9,1.3,1.7,2,2.5C128.2,60.4,126.2,60.8,125.2,61.1L125.2,61.1z M117.4,65.5c-2.2,3.6-4.4,5.8-5.7,5.8
	c-0.2,0-0.4-0.1-0.6-0.2c-0.2-0.2-0.4-0.5-0.3-0.8C111.2,69,113.7,67.2,117.4,65.5L117.4,65.5z"/>
<path class="st4" d="M125.6,155.2c-1,0-1.9-0.4-2.6-1.1l-11.6-12.2c-0.6-0.6-0.5-1.6,0.1-2.1c0.6-0.6,1.6-0.5,2.1,0.1l11.6,12.3
	c0.2,0.2,0.5,0.2,0.7,0.1c0,0,0,0,0.1-0.1l11.6-12.2c0.6-0.6,1.5-0.6,2.1-0.1s0.6,1.5,0.1,2.1l-11.6,12.2
	C127.5,154.8,126.6,155.2,125.6,155.2z"/>
<path class="st4" d="M125.6,153.8c-0.8,0-1.5-0.7-1.5-1.5V92.6c0-0.8,0.7-1.5,1.5-1.5s1.5,0.7,1.5,1.5v59.7
	C127.1,153.1,126.4,153.8,125.6,153.8z"/>
<path class="st0" d="M215,132.1h-18.5c-0.5,0-0.8,0.4-0.8,0.8v0v22.8c0,0.1,0,0.2,0.1,0.3c0,0,0,0,0,0.1c0,0.1,0.1,0.1,0.1,0.2l0,0
	l0,0c0.1,0.1,0.2,0.1,0.2,0.2l0,0c0.2,0.1,0.4,0.1,0.6,0c0.1,0,0.2-0.1,0.3-0.2l8.7-8.7l8.7,8.7c0.2,0.2,0.4,0.2,0.6,0.2
	c0.1,0,0.2,0,0.3-0.1c0.3-0.1,0.5-0.4,0.5-0.8V133C215.8,132.6,215.4,132.2,215,132.1z"/>
<path class="st1" d="M215,158.1c-0.6,0-1.2-0.2-1.6-0.7l-7.6-7.6l-7.6,7.6c-0.2,0.2-0.5,0.4-0.8,0.5c-0.5,0.2-1.1,0.2-1.7,0h-0.1
	c-0.2-0.1-0.4-0.2-0.6-0.4l-0.1-0.1l0,0l0,0l-0.1-0.1l0,0l-0.1-0.1c-0.1-0.1-0.2-0.3-0.3-0.4l-0.1-0.2c-0.1-0.2-0.1-0.5-0.1-0.8V133
	c0-1.3,1-2.3,2.3-2.3h0H215c1.3,0,2.3,1,2.3,2.3v0v22.8c0,0.9-0.6,1.8-1.4,2.1C215.6,158,215.3,158.1,215,158.1z M197.2,133.6v20.5
	l7.5-7.5c0.6-0.6,1.5-0.6,2.1,0l7.5,7.5v-20.5H197.2z M215,133.6L215,133.6z"/>
<circle class="st0" cx="206.4" cy="110" r="25.7"/>
<path class="st1" d="M206.4,137.1c-15,0-27.2-12.2-27.2-27.2s12.2-27.2,27.2-27.2c15,0,27.2,12.2,27.2,27.2c0,0,0,0,0,0
	C233.6,125,221.4,137.1,206.4,137.1z M206.4,85.8c-13.4,0-24.2,10.8-24.2,24.2c0,13.4,10.8,24.2,24.2,24.2
	c13.3,0,24.2-10.8,24.2-24.1C230.6,96.6,219.8,85.8,206.4,85.8z"/>
<g id="star_favorit_sm">
	<path id="star_favorit_sm-2" class="st0" d="M207.5,94.8l3.7,8.7l9.5,0.9c0.6,0.1,1,0.6,1,1.2c0,0.3-0.2,0.5-0.4,0.7l-7.3,6.1
		l2.2,9.4c0.1,0.6-0.2,1.2-0.8,1.3c-0.3,0.1-0.6,0-0.8-0.1l-8.2-5.1l-8.1,5.1c-0.5,0.3-1.2,0.2-1.5-0.3c-0.2-0.2-0.2-0.5-0.1-0.8
		l2.2-9.4l-7.2-6.1c-0.5-0.4-0.5-1.1-0.1-1.5c0.2-0.2,0.5-0.4,0.7-0.4l9.5-0.9l3.7-8.7c0.2-0.6,0.8-0.8,1.4-0.6
		C207.1,94.2,207.4,94.5,207.5,94.8z"/>
	<path class="st5" d="M215.2,124.6c-0.5,0-1-0.1-1.4-0.4l-7.4-4.6l-7.4,4.6c-1.2,0.8-2.8,0.4-3.5-0.8c-0.4-0.6-0.5-1.3-0.3-1.9
		l2-8.5l-6.6-5.5c-1.1-0.9-1.2-2.6-0.3-3.6c0.4-0.5,1-0.8,1.7-0.9l8.6-0.8l3.3-7.9c0.6-1.3,2.1-1.9,3.4-1.4c0.6,0.3,1.1,0.8,1.4,1.4
		l3.3,7.9l8.6,0.8c1.4,0.1,2.5,1.4,2.3,2.8c-0.1,0.7-0.4,1.3-0.9,1.7l-6.6,5.5l2,8.5c0.2,1-0.2,2.1-1,2.7
		C216.3,124.4,215.7,124.6,215.2,124.6z M193.4,105.8l7.2,6.1l-2.2,9.3l8.1-5l8.1,5l-2.2-9.3l7.2-6.1l-9.4-0.8l-3.6-8.6l-3.6,8.6
		L193.4,105.8z"/>
</g>
<g id="crosshair_sm">
	<g id="crosshair_sm-2">
		<path class="st1" d="M53.7,46.8c-0.8,0-1.5-0.7-1.5-1.5v-6.7c0-0.8,0.7-1.5,1.5-1.5s1.5,0.7,1.5,1.5v6.7
			C55.2,46.1,54.5,46.8,53.7,46.8z"/>
		<path class="st1" d="M53.7,33.9c-0.8,0-1.5-0.7-1.5-1.5v-6.7c0-0.8,0.7-1.5,1.5-1.5s1.5,0.7,1.5,1.5v6.7
			C55.2,33.3,54.5,33.9,53.7,33.9z"/>
		<path class="st1" d="M50.6,37h-6.7c-0.8,0-1.5-0.7-1.5-1.5s0.7-1.5,1.5-1.5h6.7c0.8,0,1.5,0.7,1.5,1.5S51.4,37,50.6,37z"/>
		<path class="st1" d="M63.5,37h-6.7c-0.8,0-1.5-0.7-1.5-1.5s0.7-1.5,1.5-1.5h6.7c0.8,0,1.5,0.7,1.5,1.5S64.3,37,63.5,37z"/>
	</g>
</g>
<g id="crosshair_sm-3">
	<g id="crosshair_sm-4">
		<path class="st1" d="M71.2,70.1c-0.8,0-1.5-0.7-1.5-1.5v-9.4c0-0.8,0.7-1.5,1.5-1.5s1.5,0.7,1.5,1.5v9.4
			C72.7,69.4,72,70.1,71.2,70.1z"/>
		<path class="st1" d="M71.2,52c-0.8,0-1.5-0.7-1.5-1.5V41c0-0.8,0.7-1.5,1.5-1.5s1.5,0.7,1.5,1.5v9.4C72.7,51.3,72.1,52,71.2,52
			C71.2,52,71.2,52,71.2,52z"/>
		<path class="st1" d="M66.8,56.3h-9.4c-0.8,0-1.5-0.7-1.5-1.5s0.7-1.5,1.5-1.5h9.4c0.8,0,1.5,0.7,1.5,1.5S67.7,56.3,66.8,56.3z"/>
		<path class="st1" d="M84.9,56.3h-9.4c-0.8,0-1.5-0.7-1.5-1.5s0.7-1.5,1.5-1.5h9.4c0.8,0,1.5,0.7,1.5,1.5S85.8,56.3,84.9,56.3z"/>
	</g>
</g>
<path class="st6" d="M135,165.9H82.1c-4.1,0-7.4,3.3-7.4,7.4v0.9c0,4.1,3.3,7.4,7.4,7.4H135c4.1,0,7.4-3.3,7.4-7.4v-0.9
	C142.4,169.2,139.1,165.9,135,165.9z M135.6,168.9l-6.8,9.7h-7.6l6.7-9.8h7.2C135.2,168.9,135.4,168.9,135.6,168.9z M111.4,178.7
	l6.4-9.8h7.5l-6.7,9.8H111.4z M101.4,178.7l6.7-9.8h7.3l-6.4,9.8H101.4z M91.8,178.7l6.4-9.8h7.5l-6.7,9.8H91.8z M77.6,174.2v-0.9
	c0-2.4,2-4.4,4.4-4.4h3.8l-6.1,9.1C78.5,177.2,77.6,175.8,77.6,174.2z M81.7,178.6l6.5-9.7h7.6l-6.4,9.8h-7.3
	C81.9,178.7,81.8,178.6,81.7,178.6z M139.4,174.2c0,2.4-2,4.4-4.4,4.4h-3.8l6.3-9c1.2,0.8,1.9,2.1,1.9,3.6V174.2z"/>
<g id="cloud-2">
	<path class="st2" d="M73.8,137.1l11.8,0.1c7,0.1,16.7-4.1,16.8-16.5c0.1-9.8-9.7-17.1-17.6-18.3c0.2-1,0.3-2,0.3-3
		c0.2-11-8.5-19.6-20-20.3c-15-0.9-21,11.3-22.3,16.2c-14.6-3.1-24.3,5.8-23.1,19.1c-0.2,0-0.5-0.1-0.7-0.1c-6.1,0-11.1,5-11.1,11.1
		c-0.1,4.5,2.9,10.9,11.8,11l16.7,0.2L73.8,137.1z"/>
</g>
</svg>
