<svg id="Layer_1" data-name="Layer 1" xmlns="http://www.w3.org/2000/svg" width="240" height="240" viewBox="0 0 240 240">
  <defs>
    <style>
      .cls-1 {
        fill: #fff;
      }

      .cls-2 {
        fill: #dfdfdf;
      }

      .cls-3 {
        fill: #686ce8;
      }

      .cls-4 {
        fill: #079d76;
      }

      .cls-5 {
        fill: #565b61;
      }

      .cls-6 {
        fill: #ef7f00;
      }
    </style>
  </defs>
  <g id="desktop_monitor_lg" data-name="desktop monitor lg">
    <g>
      <rect class="cls-1" x="20.03713" y="87.76926" width="163" height="93" rx="2"/>
      <path class="cls-2" d="M181.03711,86.26953H50.68823a27.17544,27.17544,0,0,1,1.43817,3H181.03711a.501.501,0,0,1,.5.5v89a.501.501,0,0,1-.5.5h-159a.501.501,0,0,1-.5-.5V122.68909a24.11928,24.11928,0,0,1-3-1.15576v57.2362a3.50424,3.50424,0,0,0,3.5,3.5h159a3.50424,3.50424,0,0,0,3.5-3.5v-89A3.50424,3.50424,0,0,0,181.03711,86.26953Z"/>
    </g>
    <path class="cls-2" d="M127.03711,212.26953h-52a1.50038,1.50038,0,0,1-1.5-1.5v-4a1.4993,1.4993,0,0,1,1.1748-1.46387l10.624-2.36132a7.87342,7.87342,0,0,0,6.20117-7.73047v-8.44434a1.5,1.5,0,0,1,3,0v8.44434a10.85372,10.85372,0,0,1-8.55078,10.6582l-9.44922,2.10059v1.29687h49v-1.29687l-9.44922-2.10059a10.85371,10.85371,0,0,1-8.55078-10.6582v-8.44434a1.5,1.5,0,0,1,3,0v8.44434a7.87341,7.87341,0,0,0,6.20117,7.73047l10.624,2.36132a1.4993,1.4993,0,0,1,1.17481,1.46387v4A1.50039,1.50039,0,0,1,127.03711,212.26953Z"/>
  </g>
  <g>
    <path class="cls-2" d="M128.63477,133.58984H69.32129a9.82617,9.82617,0,0,1,0-19.65234h59.31348a9.82617,9.82617,0,0,1,0,19.65234ZM69.32129,115.9375a7.82617,7.82617,0,0,0,0,15.65234h59.31348a7.82617,7.82617,0,0,0,0-15.65234Z"/>
    <g>
      <path class="cls-2" d="M128.67188,160.1416H69.3584a9.82617,9.82617,0,1,1,0-19.65234h59.31348a9.82617,9.82617,0,1,1,0,19.65234ZM69.3584,142.48926a7.82617,7.82617,0,1,0,0,15.65234h59.31348a7.82617,7.82617,0,1,0,0-15.65234Z"/>
      <g>
        <path class="cls-2" d="M119.93164,153.76562a3.17285,3.17285,0,1,1,3.17285-3.17285A3.17582,3.17582,0,0,1,119.93164,153.76562Zm0-4.3457a1.17285,1.17285,0,1,0,1.17285,1.17285A1.17448,1.17448,0,0,0,119.93164,149.41992Z"/>
        <g>
          <path class="cls-2" d="M102.69531,153.76562a3.17285,3.17285,0,1,1,3.17285-3.17285A3.17666,3.17666,0,0,1,102.69531,153.76562Zm0-4.3457a1.17285,1.17285,0,1,0,1.17285,1.17285A1.17468,1.17468,0,0,0,102.69531,149.41992Z"/>
          <path class="cls-2" d="M111.30273,153.76562a3.17285,3.17285,0,1,1,3.17286-3.17285A3.17582,3.17582,0,0,1,111.30273,153.76562Zm0-4.3457a1.17285,1.17285,0,1,0,1.17286,1.17285A1.17448,1.17448,0,0,0,111.30273,149.41992Z"/>
        </g>
        <g>
          <path class="cls-2" d="M85.375,153.76562a3.17285,3.17285,0,1,1,3.17285-3.17285A3.17582,3.17582,0,0,1,85.375,153.76562Zm0-4.3457a1.17285,1.17285,0,1,0,1.17285,1.17285A1.17448,1.17448,0,0,0,85.375,149.41992Z"/>
          <path class="cls-2" d="M93.98242,153.76562a3.17285,3.17285,0,1,1,3.17285-3.17285A3.17582,3.17582,0,0,1,93.98242,153.76562Zm0-4.3457a1.17285,1.17285,0,1,0,1.17285,1.17285A1.17448,1.17448,0,0,0,93.98242,149.41992Z"/>
        </g>
      </g>
      <g id="lock_s" data-name="lock s">
        <g id="lock_s-2" data-name="lock s">
          <path class="cls-2" d="M74.294,155.75h-.00586l-6.74024-.02441h0a1.44872,1.44872,0,0,1-1.44433-1.45508l.01757-4.94239a1.45038,1.45038,0,0,1,1.44922-1.44433h.00586l6.74121.02441a1.44871,1.44871,0,0,1,1.44336,1.45508l-.01758,4.94336A1.4506,1.4506,0,0,1,74.294,155.75Zm-6.18848-2.02246,5.63965.02051.01367-3.8418-5.63965-.02051Zm-.54981-.00195h0Z"/>
          <path class="cls-2" d="M72.96777,149.71191h-.0039a1.00005,1.00005,0,0,1-.9961-1.0039l.00586-1.46875a1.0794,1.0794,0,0,0-.87695-1.09766,1.05206,1.05206,0,0,0-.83887.23926,1.039,1.039,0,0,0-.3623.78516l-.00489,1.33105a.99984.99984,0,0,1-1,.99609h-.0039a1.00006,1.00006,0,0,1-.9961-1.0039l.00489-1.33106a3.041,3.041,0,0,1,3.49121-2.99511,3.0872,3.0872,0,0,1,2.58691,3.084l-.00586,1.46875A.99985.99985,0,0,1,72.96777,149.71191Z"/>
        </g>
      </g>
    </g>
  </g>
  <g>
    <path class="cls-1" d="M128.02385,149.904v24.37954a.7399.7399,0,0,0,1.31484.46573l6.37368-7.86814,10.33852,1.49044a.7399.7399,0,0,0,.63384-1.2504L129.292,149.386A.7399.7399,0,0,0,128.02385,149.904Z"/>
    <path class="cls-3" d="M128.77637,176.52734a2.28791,2.28791,0,0,1-.76172-.13281,2.21615,2.21615,0,0,1-1.49121-2.11133V149.9043a2.24044,2.24044,0,0,1,3.83886-1.56934l17.39356,17.73633a2.2396,2.2396,0,0,1-1.918,3.78516l-9.49707-1.36915-5.83594,7.20606A2.21873,2.21873,0,0,1,128.77637,176.52734Zm.74707-24.76367v20.374l5.55957-6.86329,8.957,1.292Z"/>
  </g>
  <g id="browser_lg" data-name="browser lg">
    <g id="browser_lg-2" data-name="browser lg">
      <g>
        <rect class="cls-1" x="77.53986" y="37.17203" width="130.49198" height="87.34544" rx="2"/>
        <path class="cls-2" d="M206.03223,126.01758H79.54a3.50424,3.50424,0,0,1-3.5-3.5V39.17188a3.50424,3.50424,0,0,1,3.5-3.5H206.03223a3.50425,3.50425,0,0,1,3.5,3.5v83.3457A3.50425,3.50425,0,0,1,206.03223,126.01758ZM79.54,38.67188a.501.501,0,0,0-.5.5v83.3457a.501.501,0,0,0,.5.5H206.03223a.501.501,0,0,0,.5-.5V39.17188a.501.501,0,0,0-.5-.5Z"/>
      </g>
      <path class="cls-2" d="M207.50586,51.32617H78.06641a1,1,0,0,1,0-2H207.50586a1,1,0,1,1,0,2Z"/>
      <path class="cls-2" d="M92.79883,45.0127H84.37988a1,1,0,0,1,0-2h8.41895a1,1,0,0,1,0,2Z"/>
    </g>
  </g>
  <g id="checkmark_lg" data-name="checkmark lg">
    <g id="checkmark_lg-2" data-name="checkmark lg">
      <path class="cls-2" d="M142.15332,107.29a21.504,21.504,0,1,1,10.35449-40.35938,1.50039,1.50039,0,1,1-1.44336,2.63086A18.50815,18.50815,0,1,0,157.292,96.42969a18.60172,18.60172,0,0,0,2.92969-14.84278,1.49979,1.49979,0,1,1,2.93164-.63476,21.54235,21.54235,0,0,1-21,26.33789Z"/>
      <path class="cls-4" d="M140.24609,94a1.49512,1.49512,0,0,1-1.06054-.43945L131.25,85.626a1.49984,1.49984,0,1,1,2.12109-2.1211l6.875,6.874,22.18067-22.17969a1.49984,1.49984,0,0,1,2.12109,2.12109L141.30664,93.56055A1.49514,1.49514,0,0,1,140.24609,94Z"/>
    </g>
  </g>
  <g id="cloud">
    <path class="cls-5" d="M208.85936,138.871l11.85225.14012c6.99153.08266,16.655-4.1207,16.801-16.473.11644-9.84868-9.73173-17.06088-17.59343-18.3209a15.70439,15.70439,0,0,0,.35291-2.99285c.18251-11.04538-8.53872-19.64145-19.973-20.33207-14.96826-.90408-20.98563,11.33905-22.35576,16.14835-14.62048-3.06851-24.33183,5.78151-23.09039,19.112-.23674-.01914-.47314-.06628-.7385-.06942a11.18925,11.18925,0,0,0-11.13108,11.10727c-.05375,4.54626,2.92358,10.93031,11.84572,11.04174l16.71285.19759Z"/>
  </g>
  <g>
    <g id="crosshair_sm" data-name="crosshair sm">
      <g id="crosshair_sm-2" data-name="crosshair sm">
        <g>
          <line class="cls-1" x1="206.15271" y1="168.92066" x2="206.15271" y2="162.21576"/>
          <path class="cls-2" d="M206.15234,170.4209a1.50039,1.50039,0,0,1-1.5-1.5v-6.70508a1.5,1.5,0,0,1,3,0v6.70508A1.50039,1.50039,0,0,1,206.15234,170.4209Z"/>
        </g>
        <g>
          <line class="cls-1" x1="206.15271" y1="156.06811" x2="206.15271" y2="149.36321"/>
          <path class="cls-2" d="M206.15234,157.56836a1.50039,1.50039,0,0,1-1.5-1.5v-6.70508a1.5,1.5,0,0,1,3,0v6.70508A1.50039,1.50039,0,0,1,206.15234,157.56836Z"/>
        </g>
        <g>
          <line class="cls-1" x1="196.37398" y1="159.14193" x2="203.07889" y2="159.14193"/>
          <path class="cls-2" d="M203.0791,160.6416H196.374a1.5,1.5,0,0,1,0-3h6.70508a1.5,1.5,0,0,1,0,3Z"/>
        </g>
        <g>
          <line class="cls-1" x1="209.22654" y1="159.14193" x2="215.93144" y2="159.14193"/>
          <path class="cls-2" d="M215.93164,160.6416h-6.70508a1.5,1.5,0,0,1,0-3h6.70508a1.5,1.5,0,0,1,0,3Z"/>
        </g>
      </g>
    </g>
    <g id="crosshair_sm-3" data-name="crosshair sm">
      <g id="crosshair_sm-4" data-name="crosshair sm">
        <g>
          <line class="cls-1" x1="38.8256" y1="57.28527" x2="38.8256" y2="47.84313"/>
          <path class="cls-2" d="M38.8252,58.78516a1.50039,1.50039,0,0,1-1.5-1.5V47.84277a1.5,1.5,0,0,1,3,0v9.44239A1.50039,1.50039,0,0,1,38.8252,58.78516Z"/>
        </g>
        <g>
          <line class="cls-1" x1="38.8256" y1="39.18573" x2="38.8256" y2="29.74358"/>
          <path class="cls-2" d="M38.8252,40.68555a1.50039,1.50039,0,0,1-1.5-1.5V29.74316a1.5,1.5,0,1,1,3,0v9.44239A1.50039,1.50039,0,0,1,38.8252,40.68555Z"/>
        </g>
        <g>
          <line class="cls-1" x1="25.05475" y1="43.51443" x2="34.4969" y2="43.51443"/>
          <path class="cls-2" d="M34.49707,45.01465H25.05469a1.5,1.5,0,0,1,0-3h9.44238a1.5,1.5,0,0,1,0,3Z"/>
        </g>
        <g>
          <line class="cls-1" x1="43.1543" y1="43.51443" x2="52.59644" y2="43.51443"/>
          <path class="cls-2" d="M52.59668,45.01465H43.1543a1.5,1.5,0,1,1,0-3h9.44238a1.5,1.5,0,1,1,0,3Z"/>
        </g>
      </g>
    </g>
  </g>
  <path class="cls-6" d="M28.81787,72.66748a25.81807,25.81807,0,0,0-.124,51.63574c.04346.00391.0874.00586.13232.00586h.00831a25.82082,25.82082,0,0,0-.01661-51.6416Zm0,3a22.76986,22.76986,0,0,1,18.32972,36.31659,11.11965,11.11965,0,0,0-2.15735-4.79511c-1.50928-1.94628-4.47608-4.38476-9.98828-4.94042a.14021.14021,0,0,1-.11622-.15333V99.728l.07569-.10449a14.05685,14.05685,0,0,0,3.18408-8.75293c0-6.501-3.67432-10.70215-9.36133-10.70215-5.74023,0-9.4497,4.20117-9.44922,10.74414a14.18871,14.18871,0,0,0,3.333,8.72558c.00977.01172.05371.07813.06348.08887v2.38184a.19168.19168,0,0,1-.04883.12109c-9.44818.8219-11.67834,6.74335-12.20032,9.74829A22.76948,22.76948,0,0,1,28.81787,75.66748Zm.01465,45.63672A22.86341,22.86341,0,0,1,13.374,115.20251v-.00085c-.01856-.26367-.0503-1.3125-.0503-1.58008,0-1.26367.46387-7.60644,9.67969-8.40918a3.1169,3.1169,0,0,0,2.728-3.1289L25.731,99.69287a3.10589,3.10589,0,0,0-.771-1.99023,11.15521,11.15521,0,0,1-2.62548-6.832c0-4.82325,2.41113-7.70215,6.4497-7.70215,4.04248,0,6.36133,2.80761,6.36133,7.68554a11.00285,11.00285,0,0,1-2.46,6.81641,3.15732,3.15732,0,0,0-.79981,2.05762v2.34765a3.149,3.149,0,0,0,2.76319,3.15137c9.55176.96484,9.66162,8.08691,9.66162,8.38965,0,.23682-.02087,1.25671-.02728,1.56433A22.873,22.873,0,0,1,28.936,121.30811C28.90186,121.30615,28.86768,121.3042,28.83252,121.3042Z"/>
</svg>
