<?xml version="1.0" encoding="UTF-8" standalone="no"?>
<svg xmlns="http://www.w3.org/2000/svg" xmlns:xlink="http://www.w3.org/1999/xlink" viewBox="5039 1130 18 18">
  <defs>
    <style>
      .cls-1 {
        clip-path: url(#clip-s_delete_24_1);
      }

      .cls-2 {
        fill: #ff13dc;
        opacity: 0;
      }

      .cls-3 {
        fill: #8d8d8d;
      }

      .cls-4 {
        fill: #fff;
      }
    </style>
    <clipPath id="clip-s_delete_24_1">
      <rect x="5039" y="1130" width="18" height="18"/>
    </clipPath>
  </defs>
  <g id="s_delete_24_1" data-name="s_delete_24 – 1" class="cls-1">
    <rect class="cls-4" x="5039" y="1130" width="18" height="18"/>
    <g id="Group_53879" data-name="Group 53879" transform="translate(5040 1131)">
      <rect id="ToDelete" class="cls-2" width="16" height="16"/>
      <path id="Path_20450" data-name="Path 20450" class="cls-3" d="M14.333,3h-3V2.333A1.333,1.333,0,0,0,10,1H6.667A1.333,1.333,0,0,0,5.333,2.333V3h-3A.333.333,0,0,0,2,3.333V4.667A.333.333,0,0,0,2.333,5h.4L3.4,14.333A.667.667,0,0,0,4.067,15H12.6a.667.667,0,0,0,.667-.667L13.933,5h.4a.333.333,0,0,0,.333-.333V3.333A.333.333,0,0,0,14.333,3ZM5.994,13.451a.338.338,0,0,1-.232.111l-.133.007H5.623a.337.337,0,0,1-.343-.317L4.867,6.133a.333.333,0,0,1,.32-.353l.147-.008a.333.333,0,0,1,.333.318l.409,7.121A.333.333,0,0,1,5.994,13.451Zm2.739-.217a.333.333,0,0,1-.333.333H8.267a.333.333,0,0,1-.333-.333V6.1a.333.333,0,0,1,.333-.333H8.4a.333.333,0,0,1,.333.333ZM10,3H6.667V2.333H10Zm1.4,10.253a.333.333,0,0,1-.11.232.341.341,0,0,1-.227.086h-.011l-.133-.007a.333.333,0,0,1-.231-.109.329.329,0,0,1-.086-.239l.384-7.125a.333.333,0,0,1,.333-.317l.149.007a.333.333,0,0,1,.231.109.325.325,0,0,1,.087.239Z" transform="translate(-0.667 -0.333)"/>
    </g>
  </g>
</svg>
