<?xml version="1.0" encoding="UTF-8" standalone="no"?>
<svg xmlns="http://www.w3.org/2000/svg" xmlns:xlink="http://www.w3.org/1999/xlink" viewBox="5039 926 18 18">
  <defs>
    <style>
      .cls-1 {
        fill: none;
        clip-rule: evenodd;
      }

      .cls-2 {
        clip-path: url(#clip-s_export_18);
      }

      .cls-3 {
        clip-path: url(#clip-path);
      }

      .cls-4 {
        fill: #8d8d8d;
      }

      .cls-5 {
        clip-path: url(#clip-path-2);
      }

      .cls-6 {
        fill: #fff;
      }
    </style>
    <clipPath id="clip-path">
      <path id="Path_19313" data-name="Path 19313" class="cls-1" d="M7.905-20.087l3.621,3.621H7.905v-3.621ZM1.581-22A1.586,1.586,0,0,0,0-20.419V-6.98A1.586,1.586,0,0,0,1.581-5.4H7.755A5.168,5.168,0,0,1,6.719-6.98H1.581V-20.419H6.324v3.953a1.586,1.586,0,0,0,1.581,1.581h3.953v.593a5.087,5.087,0,0,1,1.581.379v-2.04c-.008-.87-.506-1.289-1.123-1.905l-3-3.02A3.2,3.2,0,0,0,7.115-22Z" transform="translate(0 22)"/>
    </clipPath>
    <clipPath id="clip-path-2">
      <path id="Path_19315" data-name="Path 19315" class="cls-1" d="M10.29-8.133a4.006,4.006,0,0,0,2.727,1.289,5.957,5.957,0,0,0,.743.047l.016-2.672c0-.356.206-.443.459-.19l3.478,3.21a.639.639,0,0,1,0,.909L14.25-2.4c-.245.253-.451.166-.451-.19l-.04-2.625c-.261,0-.538.063-.8.04A5.91,5.91,0,0,1,9.08-6.923s1.273-1.2,1.21-1.21" transform="translate(-9.08 9.804)"/>
    </clipPath>
    <clipPath id="clip-s_export_18">
      <rect x="5039" y="926" width="18" height="18"/>
    </clipPath>
  </defs>
  <g id="s_export_18" class="cls-2">
    <rect class="cls-6" x="5039" y="926" width="18" height="18"/>
    <g id="Group_56373" data-name="Group 56373" transform="translate(55 -31.983)">
      <g id="Group_53404" data-name="Group 53404" class="cls-3" transform="translate(4985 958.483)">
        <path id="Path_19312" data-name="Path 19312" class="cls-4" d="M-5-2.494H16.344V-27H-5Z" transform="translate(1.047 23.047)"/>
      </g>
      <g id="Group_53405" data-name="Group 53405" class="cls-5" transform="translate(4992.178 968.125)">
        <path id="Path_19314" data-name="Path 19314" class="cls-4" d="M4.08.649H20.808V-14.8H4.08Z" transform="translate(-8.033 10.851)"/>
      </g>
    </g>
  </g>
</svg>
