<?xml version="1.0" encoding="UTF-8" standalone="no"?>
<svg xmlns="http://www.w3.org/2000/svg" xmlns:xlink="http://www.w3.org/1999/xlink" viewBox="5039 1028 18 18">
  <defs>
    <style>
      .cls-1 {
        clip-path: url(#clip-s_move_18);
      }

      .cls-2 {
        fill: #ff13dc;
        opacity: 0;
      }

      .cls-3 {
        fill: #8d8d8d;
      }

      .cls-4 {
        fill: #fff;
      }
    </style>
    <clipPath id="clip-s_move_18">
      <rect x="5039" y="1028" width="18" height="18"/>
    </clipPath>
  </defs>
  <g id="s_move_18" class="cls-1">
    <rect class="cls-4" x="5039" y="1028" width="18" height="18"/>
    <g id="Group_56375" data-name="Group 56375" transform="translate(54 -55.002)">
      <rect id="ToDelete" class="cls-2" width="16" height="16" transform="translate(4986 1084.002)"/>
      <path id="Path_20444" data-name="Path 20444" class="cls-3" d="M13.019,7.948l-2.937,2.971a.667.667,0,0,1-.945,0L6.758,8.554a.667.667,0,0,1,0-.944L9.72,4.648,9.071,4h-7.4A.667.667,0,0,0,1,4.667V15.333A.667.667,0,0,0,1.667,16H13a.667.667,0,0,0,.667-.667V8.6Z" transform="translate(4985.667 1082.669)"/>
      <path id="Path_20445" data-name="Path 20445" class="cls-3" d="M14.051,2a.333.333,0,0,0-.218.572l1.409,1.409L11.962,7.262a.167.167,0,0,0,0,.236L13.14,8.677a.167.167,0,0,0,.236,0L16.657,5.4l1.405,1.4a.333.333,0,0,0,.569-.218V2Z" transform="translate(4982.029 1083.335)"/>
    </g>
  </g>
</svg>
