<?xml version="1.0" encoding="UTF-8" standalone="no"?>
<svg xmlns="http://www.w3.org/2000/svg" xmlns:xlink="http://www.w3.org/1999/xlink" viewBox="5039 1062 18 18">
  <defs>
    <style>
      .cls-1 {
        clip-path: url(#clip-s_rename_18);
      }

      .cls-2 {
        fill: #8d8d8d;
      }

      .cls-3 {
        fill: #fff;
      }
    </style>
    <clipPath id="clip-s_rename_18">
      <rect x="5039" y="1062" width="18" height="18"/>
    </clipPath>
  </defs>
  <g id="s_rename_18" class="cls-1">
    <rect class="cls-3" x="5039" y="1062" width="18" height="18"/>
    <g id="Group_56376" data-name="Group 56376" transform="translate(5038.272 1059.29)">
      <rect id="Rectangle_135049" data-name="Rectangle 135049" class="cls-2" width="0.727" height="16" rx="0.25" transform="translate(15.772 3.71)"/>
      <path id="Path_20447" data-name="Path 20447" class="cls-2" d="M5.328,12.473,3.981,16.254a.131.131,0,0,1-.15.109H2.556c-.093,0-.131-.056-.113-.149L6.526,4.86a2.012,2.012,0,0,0,.131-.767A.088.088,0,0,1,6.75,4H8.583c.073,0,.093.018.111.093l4.395,12.14c.038.073.02.131-.073.131H11.594a.167.167,0,0,1-.149-.093l-1.367-3.8Zm4.321-1.439C9.236,9.818,8.059,6.545,7.7,5.272H7.684c-.318,1.2-1.215,3.7-1.928,5.761Z" transform="translate(1.289 1.892)"/>
    </g>
  </g>
</svg>
