<svg xmlns="http://www.w3.org/2000/svg" xmlns:xlink="http://www.w3.org/1999/xlink" viewBox="5039 756 18 18">
  <defs>
    <style>
      .cls-1 {
        clip-path: url(#clip-s_sendforsignature_18);
      }

      .cls-2 {
        fill: #ff13dc;
        opacity: 0;
      }

      .cls-3 {
        fill: #8d8d8d;
      }

      .cls-4 {
        fill: #fff;
      }
    </style>
    <clipPath id="clip-s_sendforsignature_18">
      <rect x="5039" y="756" width="18" height="18"/>
    </clipPath>
  </defs>
  <g id="s_sendforsignature_18" class="cls-1">
    <rect class="cls-4" x="5039" y="756" width="18" height="18"/>
    <g id="Group_56365" data-name="Group 56365" transform="translate(55 -8.002)">
      <rect id="ToDelete" class="cls-2" width="15.998" height="15.998" transform="translate(4985 765.002)"/>
      <path id="Shape" class="cls-3" d="M9.251,2.327c.143-.682.562-1.211,1.076-1.142,1.055.143.523,1.717.4,2.283A21.5,21.5,0,0,1,9.064,7.687,15.608,15.608,0,0,1,9.251,2.327Zm7.274,9.111a1.106,1.106,0,0,1-1.216-.116,2.378,2.378,0,0,0,.5-.683c.326-.682.4-1.7-.066-2a.629.629,0,0,0-.3-.083c-1.019,0-1.182,1.511-1.112,2.557-.994.4-1.362-.119-1.474-.256-.361-.444.521-1.047.725-2.121.132-.691.032-1.663-.483-1.906a.911.911,0,0,0-.95.082c-.688.522-.917,1.888-.457,3.221a1.371,1.371,0,0,1-.978,1,1.259,1.259,0,0,1-1.144-.666,1.882,1.882,0,0,1,.1-1.709C11.859,4.854,12.522,2.283,11.9.9a2.074,2.074,0,0,0-2.489-.8c-.152.045-.7.228-1.155,1.215-.622,1.333-.55,4.533-.126,7.6a7.876,7.876,0,0,1-1.067,1.488A7.85,7.85,0,0,1,6,11.376l.765.978a7.782,7.782,0,0,0,1.723-1.778,2.1,2.1,0,0,0,1.882,1.7,2.133,2.133,0,0,0,1.675-.82,2.113,2.113,0,0,0,1.743.8,1.8,1.8,0,0,0,.907-.382h0a2.174,2.174,0,0,0,1.428.521Z" transform="translate(4984.333 766.002)"/>
      <rect id="Rectangle_136739" data-name="Rectangle 136739" class="cls-3" width="15.998" height="0.885" rx="0.25" transform="translate(4985 779.337)"/>
      <path id="Path_33937" data-name="Path 33937" class="cls-3" d="M4.394,12.682,2.946,11.24,4.394,9.8a.17.17,0,0,0,0-.241l-.483-.48a.172.172,0,0,0-.242,0L2.222,10.514.774,9.076a.172.172,0,0,0-.242,0L.05,9.557a.17.17,0,0,0,0,.241L1.5,11.24.05,12.682a.17.17,0,0,0,0,.241l.483.481a.172.172,0,0,0,.242,0l1.448-1.443L3.67,13.4a.172.172,0,0,0,.242,0l.483-.481a.17.17,0,0,0,0-.24Z" transform="translate(4985 764.998)"/>
    </g>
  </g>
</svg>
