<?xml version="1.0" encoding="UTF-8" standalone="no"?>
<svg xmlns="http://www.w3.org/2000/svg" xmlns:xlink="http://www.w3.org/1999/xlink" viewBox="5039 688 18 18">
  <defs>
    <style>
      .cls-1 {
        clip-path: url(#clip-s_share_18);
      }

      .cls-2 {
        fill: rgba(255,19,220,0);
      }

      .cls-3 {
        fill: #8d8d8d;
      }

      .cls-4 {
        fill: #fff;
      }
    </style>
    <clipPath id="clip-s_share_18">
      <rect x="5039" y="688" width="18" height="18"/>
    </clipPath>
  </defs>
  <g id="s_share_18" class="cls-1">
    <rect class="cls-4" x="5039" y="688" width="18" height="18"/>
    <g id="Group_56363" data-name="Group 56363" transform="translate(54 -7.982)">
      <g id="Smock_User_22_N" transform="translate(4985 695.982)">
        <rect id="Canvas" class="cls-2" width="18" height="18"/>
        <path id="Path_19151" data-name="Path 19151" class="cls-3" d="M16,16.318a.409.409,0,0,0,.409-.409v-.2c0-2.23-1.942-4.125-4.65-4.825a.415.415,0,0,1-.288-.265,3.2,3.2,0,0,1-.158-1.157.419.419,0,0,1,.137-.29A4.687,4.687,0,0,0,12.73,5.886C12.73,3.74,11.265,2,9.457,2S6.184,3.74,6.184,5.886a4.686,4.686,0,0,0,1.277,3.28.419.419,0,0,1,.138.292,2.891,2.891,0,0,1-.2,1.211.391.391,0,0,1-.267.217c-2.694.7-4.613,2.583-4.613,4.806v.2a.422.422,0,0,0,.421.421Z" transform="translate(-2.514 -0.364)"/>
      </g>
      <g id="Smock_Add_22_N" transform="translate(4996.455 700.892)">
        <path id="Path_19152" data-name="Path 19152" class="cls-3" d="M10.794,7.021H8.276V4.252A.252.252,0,0,0,8.024,4h-.5a.252.252,0,0,0-.252.252V7.021H4.752a.252.252,0,0,0-.252.252v.5a.252.252,0,0,0,.252.252H7.269v2.517a.252.252,0,0,0,.252.252h.5a.252.252,0,0,0,.252-.252V8.028h2.517a.252.252,0,0,0,.252-.252v-.5A.252.252,0,0,0,10.794,7.021Z" transform="translate(-4.5 -4)"/>
      </g>
    </g>
  </g>
</svg>
