<?xml version="1.0" encoding="UTF-8"?>
<svg id="FINAL_outline" data-name="FINAL outline" xmlns="http://www.w3.org/2000/svg" viewBox="0 0 300 300">
  <defs>
    <style>
      .cls-1 {
        fill: #6a68ee;
      }

      .cls-2 {
        fill: red;
      }

      .cls-3 {
        fill: #ec7f00;
      }

      .cls-4 {
        fill: #b3b4b4;
      }

      .cls-5 {
        fill: #b3b3b3;
      }

      .cls-6 {
        fill: #b1b1b1;
      }

      .cls-7 {
        fill: #dae8f9;
      }

      .cls-8 {
        fill: #079a76;
      }
    </style>
  </defs>
  <g>
    <path class="cls-6" d="m210.51,40.14h-62.65c-3.04,0-5.5,2.47-5.5,5.5v79.29c0,3.03,2.46,5.5,5.5,5.5h62.65c3.04,0,5.5-2.47,5.5-5.5V45.64c0-3.03-2.46-5.5-5.5-5.5Zm2.5,84.79c0,1.38-1.12,2.5-2.5,2.5h-62.65c-1.38,0-2.5-1.12-2.5-2.5V45.64c0-1.38,1.12-2.5,2.5-2.5h62.65c1.38,0,2.5,1.12,2.5,2.5v79.29Z"/>
    <g>
      <g>
        <path class="cls-6" d="m205.67,93.06h-35.78c-.55,0-1-.45-1-1s.45-1,1-1h35.78c.55,0,1,.45,1,1s-.45,1-1,1Z"/>
        <path class="cls-2" d="m160.41,86.27h-5.85c-1.58,0-2.86,1.29-2.86,2.86v5.85c0,1.58,1.28,2.86,2.86,2.86h5.85c1.58,0,2.86-1.28,2.86-2.86v-5.85c0-1.57-1.28-2.86-2.86-2.86Zm.86,8.71c0,.48-.38.86-.86.86h-5.85c-.47,0-.86-.38-.86-.86v-5.85c0-.47.39-.86.86-.86h5.85c.48,0,.86.39.86.86v5.85Z"/>
      </g>
      <g>
        <path class="cls-6" d="m205.67,74.63h-35.78c-.55,0-1-.45-1-1s.45-1,1-1h35.78c.55,0,1,.45,1,1s-.45,1-1,1Z"/>
        <path class="cls-6" d="m160.41,67.84h-5.85c-1.58,0-2.86,1.29-2.86,2.86v5.85c0,1.58,1.28,2.86,2.86,2.86h5.85c1.58,0,2.86-1.28,2.86-2.86v-5.85c0-1.57-1.28-2.86-2.86-2.86Zm.86,8.71c0,.48-.38.86-.86.86h-5.85c-.47,0-.86-.38-.86-.86v-5.85c0-.47.39-.86.86-.86h5.85c.48,0,.86.39.86.86v5.85Z"/>
      </g>
      <g>
        <path class="cls-6" d="m205.67,111.49h-35.78c-.55,0-1-.45-1-1s.45-1,1-1h35.78c.55,0,1,.45,1,1s-.45,1-1,1Z"/>
        <path class="cls-6" d="m160.41,104.7h-5.85c-1.58,0-2.86,1.29-2.86,2.86v5.85c0,1.58,1.28,2.86,2.86,2.86h5.85c1.58,0,2.86-1.28,2.86-2.86v-5.85c0-1.57-1.28-2.86-2.86-2.86Zm.86,8.71c0,.48-.38.86-.86.86h-5.85c-.47,0-.86-.38-.86-.86v-5.85c0-.47.39-.86.86-.86h5.85c.48,0,.86.39.86.86v5.85Z"/>
      </g>
    </g>
    <path class="cls-6" d="m181.14,52.53c0,.55-.45,1-1,1h-27.44c-.55,0-1-.45-1-1s.45-1,1-1h27.44c.55,0,1,.44,1,1Z"/>
    <path class="cls-6" d="m195.86,57.34c0,.55-.44,1-1,1h-42.16c-.55,0-1-.45-1-1s.45-1,1-1h42.16c.56,0,1,.44,1,1Z"/>
  </g>
  <g>
    <g>
      <path class="cls-5" d="m57.15,173.09c.28.78-.12,1.64-.9,1.92l-17.19,6.25c-1.09.4-1.96,1.2-2.45,2.25-.5,1.06-.55,2.24-.15,3.33l18.19,49.99c-1,.31-1.93.7-2.78,1.14l-18.23-50.1c-1.38-3.81.59-8.04,4.39-9.42l17.19-6.26c.78-.28,1.64.12,1.93.9Z"/>
      <path class="cls-5" d="m108.26,248.47l-24.47,8.89c-1.16-.76-2.39-1.39-3.63-1.87l27.08-9.84c.77-.28,1.64.12,1.92.9.28.78-.12,1.64-.9,1.92Z"/>
    </g>
    <g id="Path_139645" data-name="Path 139645">
      <path class="cls-6" d="m106.35,221.02h-36.21c-5.53,0-10.04-4.5-10.04-10.04v-72.4c0-5.53,4.5-10.04,10.04-10.04h41.57c2.88,0,5.69,1.17,7.72,3.21l12.47,12.51c2.05,2.06,3.18,4.79,3.18,7.69v56.65c0,.83-.67,1.5-1.5,1.5s-1.5-.67-1.5-1.5v-56.65c0-2.1-.82-4.08-2.3-5.57l-12.47-12.51c-1.47-1.48-3.51-2.32-5.59-2.32h-41.57c-3.88,0-7.04,3.16-7.04,7.04v72.4c0,3.88,3.16,7.04,7.04,7.04h36.21c.83,0,1.5.67,1.5,1.5s-.67,1.5-1.5,1.5Z"/>
    </g>
  </g>
  <path class="cls-2" d="m116.14,179.54c-1.25-1.33-3.62-2-7.05-2-1.9.03-3.82.18-5.7.49-1.2-1.17-2.31-2.44-3.28-3.82-.75-1.01-1.43-2.08-2.05-3.2,1.22-3.82,1.82-6.89,1.82-9.21,0-2.81-1.12-5.83-4.24-5.83-1.09.03-2.08.62-2.63,1.53-1.33,2.29-.81,7.02,1.33,11.81-.75,2.21-1.56,4.34-2.55,6.74-.86,2.03-1.79,4.03-2.89,5.96-3.2,1.27-9.99,4.4-10.64,7.85-.21,1.01.16,2.05.94,2.76.75.68,1.74,1.01,2.76.99,4.08,0,8.17-5.67,10.92-10.53,1.56-.52,3.15-1.01,4.73-1.43,1.74-.47,3.41-.83,4.99-1.12,4.32,3.77,8.17,4.34,10.12,4.34,2.65,0,3.64-1.14,4.01-2.11.42-1.09.18-2.34-.6-3.22Zm-2.83,1.98c-.16.75-.91,1.25-1.98,1.25-.31,0-.6-.03-.88-.1-1.95-.47-3.82-1.4-5.67-2.89,1.38-.21,2.78-.31,4.21-.31.94-.03,1.87.05,2.81.21.81.16,1.74.62,1.51,1.85Zm-18.62-23.02c.18-.34.52-.57.91-.57.99,0,1.2,1.2,1.2,2.18,0,1.59-.47,4.14-1.3,6.94-1.64-4.42-1.4-7.49-.81-8.56Zm2.37,20.88c-.86.23-1.72.47-2.57.73.47-.94.88-1.85,1.25-2.73.47-1.17.94-2.31,1.35-3.46.36.57.73,1.12,1.12,1.66.75,1.04,1.53,2.03,2.39,2.96,0-.03-2.37.52-3.54.83Zm-9.13,5.2c-2.63,4.21-5.2,6.87-6.71,6.87-.23,0-.49-.08-.68-.23-.29-.23-.42-.6-.34-.96.31-1.51,3.28-3.69,7.72-5.67Z"/>
  <g id="Path_139643" data-name="Path 139643">
    <path class="cls-7" d="m260.07,50.17c0,12.43-9.68,16.78-16.72,16.78h-11.93s-15.41.01-15.41.01v-21.32c0-3.03-2.46-5.5-5.5-5.5h-33.77c1-10.8,10.06-17.5,23.06-14.94,1.32-4.85,7.23-17.25,22.31-16.52,11.52.56,20.4,9.11,20.35,20.23-.01,1.01-.11,2.03-.32,3.02,7.93,1.18,17.93,8.32,17.93,18.24Z"/>
  </g>
  <g id="Path_139643-2" data-name="Path 139643">
    <path class="cls-7" d="m90.91,269.02c0,9.86-7.67,13.31-13.26,13.31h-9.46s-43.16.01-43.16.01c-7.12-.01-9.56-5.08-9.56-8.71-.03-4.89,3.89-8.89,8.78-8.97.21,0,.4.03.59.04-1.12-10.63,6.56-17.79,18.26-15.48.73-2.69,3.25-8.3,8.77-11.25.85-.44,1.78-.83,2.78-1.14,1.79-.55,3.83-.83,6.15-.72,9.14.44,16.19,7.23,16.15,16.05,0,.8-.1,1.61-.26,2.39,1.12.17,2.3.49,3.47.94,1.24.48,2.47,1.11,3.63,1.87,3.94,2.57,7.12,6.67,7.12,11.66Z"/>
  </g>
  <g id="light_bulb_yes_checked_lg" data-name="light bulb yes checked lg">
    <g id="light_bulb_yes_checked_lg-2" data-name="light bulb yes checked lg">
      <path class="cls-8" d="m252.92,203.34c-11.18,0-21.78-6.68-26.22-17.67-3.57-8.84-2.67-29.38,15.61-36.76,8.95-3.62,19.01-2.43,26.92,3.16.68.48.84,1.42.36,2.09s-1.41.84-2.09.36c-7.07-5-16.06-6.06-24.06-2.83-16.67,6.73-16.73,25.97-13.95,32.86,2.51,6.21,7.32,11.08,13.56,13.73,6.24,2.65,13.09,2.73,19.3.22,11.9-4.81,18.1-17.33,15.07-30.45-.19-.81.32-1.61,1.12-1.8.81-.18,1.61.32,1.8,1.12,3.37,14.59-3.56,28.53-16.87,33.91-3.45,1.39-7.02,2.06-10.54,2.06Z"/>
      <path class="cls-8" d="m249.75,185.76c-.38,0-.77-.15-1.06-.44l-10.61-10.61c-.59-.59-.59-1.54,0-2.12s1.54-.59,2.12,0l9.55,9.55,32.23-32.23c.59-.59,1.54-.59,2.12,0s.59,1.54,0,2.12l-33.29,33.29c-.29.29-.68.44-1.06.44Z"/>
    </g>
  </g>
  <g>
    <g id="crosshair_sm" data-name="crosshair sm">
      <g id="crosshair_sm-2" data-name="crosshair sm">
        <path class="cls-1" d="m210.53,227.79c-.83,0-1.5-.67-1.5-1.5v-7.27c0-.83.67-1.5,1.5-1.5s1.5.67,1.5,1.5v7.27c0,.83-.67,1.5-1.5,1.5Z"/>
        <path class="cls-1" d="m210.53,213.86c-.83,0-1.5-.67-1.5-1.5v-7.27c0-.83.67-1.5,1.5-1.5s1.5.67,1.5,1.5v7.27c0,.83-.67,1.5-1.5,1.5Z"/>
        <path class="cls-1" d="m221.12,217.19h-7.27c-.83,0-1.5-.67-1.5-1.5s.67-1.5,1.5-1.5h7.27c.83,0,1.5.67,1.5,1.5s-.67,1.5-1.5,1.5Z"/>
        <path class="cls-1" d="m207.2,217.19h-7.27c-.83,0-1.5-.67-1.5-1.5s.67-1.5,1.5-1.5h7.27c.83,0,1.5.67,1.5,1.5s-.67,1.5-1.5,1.5Z"/>
      </g>
    </g>
    <g id="crosshair_sm-3" data-name="crosshair sm">
      <g id="crosshair_sm-4" data-name="crosshair sm">
        <path class="cls-1" d="m228.52,253.97c-.83,0-1.5-.67-1.5-1.5v-10.23c0-.83.67-1.5,1.5-1.5s1.5.67,1.5,1.5v10.23c0,.83-.67,1.5-1.5,1.5Z"/>
        <path class="cls-1" d="m228.52,234.35c-.83,0-1.5-.67-1.5-1.5v-10.23c0-.83.67-1.5,1.5-1.5s1.5.67,1.5,1.5v10.23c0,.83-.67,1.5-1.5,1.5Z"/>
        <path class="cls-1" d="m243.45,239.04h-10.23c-.83,0-1.5-.67-1.5-1.5s.67-1.5,1.5-1.5h10.23c.83,0,1.5.67,1.5,1.5s-.67,1.5-1.5,1.5Z"/>
        <path class="cls-1" d="m223.83,239.04h-10.23c-.83,0-1.5-.67-1.5-1.5s.67-1.5,1.5-1.5h10.23c.83,0,1.5.67,1.5,1.5s-.67,1.5-1.5,1.5Z"/>
      </g>
    </g>
  </g>
  <path class="cls-3" d="m66.62,73.75l-10.92,10.91c-1.6,1.61-4.21,1.61-5.82,0l-14.79-14.79c-1.61-1.61-1.61-4.22,0-5.83l14.79-14.79c1.61-1.6,4.22-1.6,5.82,0l9.58,9.57,2.12-2.12-9.57-9.57c-2.78-2.77-7.3-2.77-10.07,0l-14.79,14.79c-1.35,1.35-2.09,3.14-2.09,5.04s.74,3.69,2.09,5.03l14.79,14.79c1.39,1.39,3.21,2.09,5.03,2.09s3.65-.7,5.04-2.09l10.91-10.91-2.12-2.12Z"/>
  <path class="cls-3" d="m85.34,62.28l-8.44-8.43c-.89-.89-2.07-1.38-3.33-1.38s-2.44.49-3.32,1.38l-2.85,2.85-2.12,2.12-3.47,3.46c-.89.89-1.38,2.07-1.38,3.33s.49,2.44,1.38,3.33l6.93,6.93,1.51,1.5c.88.89,2.07,1.38,3.32,1.38s2.44-.49,3.33-1.38l8.44-8.43c.89-.89,1.37-2.07,1.37-3.33s-.48-2.44-1.37-3.33Zm-2.12,4.53l-8.44,8.44c-.67.67-1.75.67-2.41,0l-8.44-8.44c-.66-.66-.66-1.74,0-2.41l3.47-3.46,4.97-4.97c.33-.34.77-.5,1.2-.5s.88.16,1.21.5l8.44,8.43c.66.67.66,1.75,0,2.41Z"/>
  <path class="cls-4" d="m187.36,265.63c-6.11-10.01-11.27-20.67-15.33-31.68-.01-.04-.03-.08-.05-.11-2.99-6.42-7.84-11.65-14.02-15.1-.06-.03-.12-.06-.19-.09-1.59-.61-3.35-.62-4.94,0-.46.18-.78.56-.9,1-2.23-2.69-4.23-4.53-5.95-4.92-4.04-.93-5.84.73-6.03.92-.15.15-.26.33-.34.52-1.64-1.47-2.69-1.92-3.34-1.97-2.3-.29-4.6.57-6.16,2.29-.17.19-.27.42-.32.65-2.12-2.25-4.33-4.42-6.65-6.49-5.99-4.74-12.15-9.87-14.12-11.55-.05-.05-.11-.1-.18-.14-1.3-.81-2.97-.59-4.24.56-1.62,1.47-2.62,4.55-.95,7.89,1.35,2.41,5.2,6.48,8.93,10.41,2.8,2.96,5.7,6.02,6.6,7.49,2.68,3.82,4.96,7.95,6.77,12.26.42,1.47.79,2.96,1.1,4.46-.41-.36-.81-.74-1.2-1.13-.77-.77-2.03-2.36-3.37-4.04-3.29-4.16-5.77-7.18-7.58-8.09-2.25-1.12-5.04-1.44-6.79-.78-1.06.4-1.52,1.07-1.72,1.56-1.03,2.58,6.44,17.61,6.51,17.75,1.93,3.63,13.7,20.41,21.95,24.81,6.09,3.52,12.48,6.67,18.98,9.36.05.02.09.03.14.05,1.51.46,2.89,1.3,4.01,2.46l6.95,6.95c.3.29.68.44,1.06.44s.77-.15,1.06-.44c.59-.59.59-1.54,0-2.12l-6.93-6.94c-1.43-1.48-3.23-2.59-5.21-3.2-6.36-2.63-12.6-5.72-18.6-9.18-7.27-3.88-18.76-19.85-20.76-23.6-2.14-4.02-5.82-12.8-6.26-15.14.71-.21,2.55-.16,4.26.7,1.36.68,4.5,4.65,6.58,7.27,1.45,1.83,2.71,3.41,3.6,4.3,1.49,1.48,3.11,2.84,4.84,4.03.68.48,1.61.31,2.08-.37.39-.55-1.06-7.33-1.84-10.03-.02-.06-.04-.11-.06-.16-1.9-4.54-4.29-8.88-7.06-12.83-1.02-1.66-3.76-4.55-6.93-7.9-3.44-3.63-7.32-7.74-8.46-9.76-1-2-.36-3.64.32-4.26.06-.06.36-.32.58-.26,2.11,1.81,8.18,6.85,14.01,11.46,6.69,5.99,12.58,12.82,17.52,20.31.45.7,1.38.89,2.08.43.69-.45.88-1.38.42-2.08-2.93-4.45-6.2-8.67-9.78-12.65.33-.05.64-.19.88-.45.91-1,2.24-1.5,3.59-1.32.06,0,.05,0,.12,0,1.66.38,7.52,7.82,11.96,14.52.29.44.77.67,1.25.67.28,0,.57-.08.83-.25.69-.46.88-1.39.42-2.08-3.85-5.82-6.75-9.55-8.93-11.92.16-.07.31-.17.44-.3,0,0,.93-.71,3.29-.17,2.47.57,8.22,9.05,10.98,13.12l.99,1.46c.29.42.76.65,1.24.65.29,0,.59-.08.85-.26.68-.47.86-1.4.39-2.08l-.99-1.45c-1.87-2.76-3.66-5.34-5.34-7.55.16,0,.32-.03.48-.09.87-.34,1.82-.35,2.69-.03,5.57,3.13,9.93,7.85,12.64,13.64,4.12,11.17,9.36,21.98,15.56,32.14.28.46.78.72,1.28.72.27,0,.54-.07.78-.22.71-.43.93-1.35.5-2.06Z"/>
  <path class="cls-6" d="m264.37,122.51l-8.15,11.3-.02.02c-.17.23-.38.4-.62.5-.08.04-.17.07-.26.09-.11.03-.22.04-.34.04-.31,0-.61-.1-.88-.29h-.01l-10.99-8.06c-.67-.49-.82-1.43-.33-2.1.49-.67,1.43-.81,2.1-.32l8.16,5.99c-2.38-18.63-12.17-34.43-29.14-46.99-.66-.5-.8-1.44-.31-2.1.49-.67,1.43-.81,2.1-.32,17.57,13.02,27.75,29.4,30.29,48.75l5.97-8.27c.48-.67,1.42-.82,2.09-.34.67.49.82,1.43.34,2.1Z"/>
  <path class="cls-6" d="m90.95,122.26c-.17,0-.34-.03-.5-.09-.78-.28-1.19-1.13-.91-1.92,7.5-21.15,23.67-38.31,44.36-47.08.76-.32,1.64.03,1.97.8.32.76-.03,1.64-.8,1.97-19.91,8.44-35.48,24.95-42.7,45.32-.22.62-.8,1-1.41,1Z"/>
</svg>