<?xml version="1.0" encoding="UTF-8"?>
<svg id="h" data-name="Layer 8" xmlns="http://www.w3.org/2000/svg" width="12" height="12" viewBox="0 0 12 12">
  <path d="M6,0c3.31371,0,6,2.68629,6,6s-2.68629,6-6,6S0,9.31371,0,6,2.68629,0,6,0Zm.00011,1.9c-.06506,0-.12386,.03881-.14942,.09864l-.95601,2.52374-2.6467,.095c-.0676,.00307-.1263,.0478-.14721,.11226-.02091,.06446,.00034,.13513,.05335,.17736l2.10083,1.68598-.7272,2.54882c-.0176,.06515,.00675,.13428,.0612,.17392,.05445,.03965,.12771,.04161,.1842,.00493l2.2524-1.481,2.20132,1.47969c.03851,.02595,.08712,.03375,.13242,.02099,.08604-.02431,.13651-.11328,.11323-.19957l-.71091-2.60114,2.08405-1.63449c.05237-.07302,.06912-.12707,.05368-.17496-.02079-.06451-.07954-.10927-.14726-.11218l-2.69146-.12785-.91029-2.48956c-.02635-.06178-.08514-.10059-.15021-.10059Z" fill="#1473e6"/>
</svg>