<svg xmlns="http://www.w3.org/2000/svg" width="18" height="18" viewBox="0 0 18 18">
  <path fill="#12805C" d="M8.15720848,13.131734 C8.07865414,13.2291061 7.96243876,13.2885306 7.83750852,13.2952063 C7.71257829,13.3018819 7.59069206,13.2551805 7.50220848,13.166734 L3.90220848,9.78573395 C3.81817184,9.7028607 3.77086151,9.58975993 3.77086151,9.47173395 C3.77086151,9.35370797 3.81817184,9.2406072 3.90220848,9.15773395 L4.53020848,8.55773395 C4.61321528,8.47394679 4.72626605,8.4268095 4.84420848,8.4268095 C4.96215091,8.4268095 5.07520167,8.47394679 5.15820848,8.55773395 L7.65820848,11.057734 L12.6372085,5.15773395 C12.7107349,5.06534416 12.8184489,5.0065539 12.9359279,4.99469303 C13.0534069,4.98283217 13.1706985,5.01890552 13.2612085,5.09473395 L13.9522085,5.65173395 C14.1383243,5.80906407 14.1645382,6.08630882 14.0112085,6.27573395 L8.15720848,13.131734 Z M14.6572085,3.34373395 C12.3693033,1.05554223 8.92828208,0.370912548 5.93876396,1.60910184 C2.94924584,2.84729113 1,5.76444481 1,9.00023395 C1,12.2360231 2.94924584,15.1531768 5.93876396,16.3913661 C8.92828208,17.6295554 12.3693033,16.9449257 14.6572085,14.656734 C17.7809305,11.5326207 17.7809305,6.46784723 14.6572085,3.34373395 Z"/>
</svg>
