<svg xmlns="http://www.w3.org/2000/svg" width="18" height="18" viewBox="0 0 18 18">
  <path fill="#C9252D" d="M9,1 C4.581722,1 1,4.581722 1,9 C1,13.418278 4.581722,17 9,17 C13.418278,17 17,13.418278 17,9 C17,6.87826085 16.1571764,4.84341585 14.6568803,3.34311972 C13.1565841,1.84282358 11.1217391,1 9,1 Z M12.7712711,11.51416 C12.85464,11.5974962 12.9014789,11.7105439 12.9014789,11.8284222 C12.9014789,11.9463005 12.85464,12.0593483 12.7712711,12.1426844 L12.1428267,12.7712089 C11.9692031,12.9447738 11.6877658,12.9447738 11.5141422,12.7712089 L9,10.2570489 L6.48589333,12.7712089 C6.31226972,12.9447738 6.0308325,12.9447738 5.85720889,12.7712089 L5.22876444,12.1426844 C5.14539554,12.0593483 5.09852107,11.9463005 5.09852107,11.8284222 C5.09852107,11.7105439 5.14539554,11.5974962 5.22876444,11.51416 L7.74305778,9 L5.22872889,6.48584 C5.14535999,6.40250383 5.09852107,6.28945607 5.09852107,6.17157778 C5.09852107,6.05369948 5.14535999,5.94065173 5.22872889,5.85731556 L5.85717333,5.22872889 C6.03080101,5.0551738 6.31223011,5.0551738 6.48585778,5.22872889 L9,7.74288889 L11.5141067,5.22872889 C11.6877343,5.0551738 11.9691634,5.0551738 12.1427911,5.22872889 L12.7712356,5.85731556 C12.8546045,5.94065173 12.9014789,6.05369948 12.9014789,6.17157778 C12.9014789,6.28945607 12.8546045,6.40250383 12.7712356,6.48584 L10.2569422,9 L12.7712711,11.51416 Z"/>
</svg>
