<svg xmlns="http://www.w3.org/2000/svg" width="18" height="18" viewBox="0 0 18 18">
  <path fill="#6E6E6E" d="M10.075,6 C10.075,6.59370611 9.59370611,7.075 9,7.075 C8.40629389,7.075 7.925,6.59370611 7.925,6 C7.925,5.40629389 8.40629389,4.925 9,4.925 L9,4.925 C9.59370611,4.925 10.075,5.40629389 10.075,6 L10.075,6 Z M10.16673,12 L10,12 L10,8.2 C9.9999724,8.08955448 9.91044552,8 9.8,8 L7.83324,8 C7.83324,8 7.25,8.01612 7.25,8.5 C7.25,8.98365 7.83325,9 7.83325,9 L8,9 L8,12 L7.83325,12 C7.83325,12 7.25,12.01612 7.25,12.5 C7.25,12.98365 7.83325,13 7.83325,13 L10.16675,13 C10.16675,13 10.75,12.98365 10.75,12.5 C10.75,12.01612 10.16673,12 10.16673,12 Z M9,0.5 C4.30557963,0.5 0.5,4.30557963 0.5,9 C0.5,13.6944204 4.30557963,17.5 9,17.5 C13.6944204,17.5 17.5,13.6944204 17.5,9 C17.5,4.30557963 13.6944204,0.5 9,0.5 Z M9,15.6748 C5.31360683,15.6748 2.32522,12.6863598 2.32522,8.99996667 C2.32522,5.3135735 5.3136535,2.32518 9.00004667,2.32518 C12.6864398,2.32518 15.67484,5.31360683 15.67484,9 C15.67484,10.7702731 14.9715952,12.4680392 13.7198193,13.7198076 C12.4680434,14.971576 10.7702731,15.6748 9,15.6748 Z"/>
</svg>
