<svg id="Layer_1" data-name="Layer 1" xmlns="http://www.w3.org/2000/svg" width="240" height="240" viewBox="0 0 240 240">
  <defs>
    <style>
      .cls-1 {
        fill: #d7e8fb;
      }

      .cls-2 {
        fill: #b3b3b3;
      }

      .cls-3 {
        fill: #fff;
      }

      .cls-4 {
        fill: #686ce8;
      }

      .cls-5 {
        fill: #079d76;
      }

      .cls-6 {
        fill: #ef7f00;
      }
    </style>
  </defs>
  <g id="cloud">
    <path class="cls-1" d="M209.85936,138.871l11.85225.14012c6.99153.08266,16.655-4.1207,16.801-16.473.11644-9.84868-9.73173-17.06088-17.59343-18.3209a15.70439,15.70439,0,0,0,.35291-2.99285c.18251-11.04538-8.53872-19.64145-19.973-20.33207-14.96826-.90408-20.98563,11.33905-22.35576,16.14835-14.62048-3.06851-24.33183,5.78151-23.09039,19.112-.23674-.01914-.47314-.06628-.7385-.06942a11.18925,11.18925,0,0,0-11.13108,11.10727c-.05375,4.54626,2.92358,10.93031,11.84572,11.04174l16.71285.19759Z"/>
  </g>
  <g>
    <g id="crosshair_sm" data-name="crosshair sm">
      <g id="crosshair_sm-2" data-name="crosshair sm">
        <path class="cls-2" d="M207.15234,170.4209a1.50039,1.50039,0,0,1-1.5-1.5v-6.70508a1.5,1.5,0,0,1,3,0v6.70508A1.50039,1.50039,0,0,1,207.15234,170.4209Z"/>
        <path class="cls-2" d="M207.15234,157.56836a1.50039,1.50039,0,0,1-1.5-1.5v-6.70508a1.5,1.5,0,0,1,3,0v6.70508A1.50039,1.50039,0,0,1,207.15234,157.56836Z"/>
        <path class="cls-2" d="M204.0791,160.6416H197.374a1.5,1.5,0,0,1,0-3h6.70508a1.5,1.5,0,0,1,0,3Z"/>
        <path class="cls-2" d="M216.93164,160.6416h-6.70508a1.5,1.5,0,0,1,0-3h6.70508a1.5,1.5,0,0,1,0,3Z"/>
      </g>
    </g>
    <g id="crosshair_sm-3" data-name="crosshair sm">
      <g id="crosshair_sm-4" data-name="crosshair sm">
        <path class="cls-2" d="M39.82568,58.78516a1.50008,1.50008,0,0,1-1.5-1.5V47.84277a1.5,1.5,0,0,1,3,0v9.44239A1.50007,1.50007,0,0,1,39.82568,58.78516Z"/>
        <path class="cls-2" d="M39.82568,40.68555a1.50008,1.50008,0,0,1-1.5-1.5V29.74316a1.5,1.5,0,1,1,3,0v9.44239A1.50007,1.50007,0,0,1,39.82568,40.68555Z"/>
        <path class="cls-2" d="M35.49707,45.01465H26.05469a1.5,1.5,0,0,1,0-3h9.44238a1.5,1.5,0,0,1,0,3Z"/>
        <path class="cls-2" d="M53.59668,45.01465H44.1543a1.5,1.5,0,1,1,0-3h9.44238a1.5,1.5,0,1,1,0,3Z"/>
      </g>
    </g>
  </g>
  <g id="desktop_monitor_lg" data-name="desktop monitor lg">
    <g>
      <path class="cls-3" d="M180.02063,87.76923H50.63007a27.837,27.837,0,0,1,2.216,9.72717c.61133,13.64825-12.053,25.2724-25.27234,25.2724a24.635,24.635,0,0,1-8.5531-1.51044v57.51087a2,2,0,0,0,2,2h159a2,2,0,0,0,2-2v-89A2,2,0,0,0,180.02063,87.76923Z"/>
      <path class="cls-2" d="M180.02051,86.26953H49.92535a27.33054,27.33054,0,0,1,1.29035,3H180.02051a.501.501,0,0,1,.5.5v89a.501.501,0,0,1-.5.5h-159a.50065.50065,0,0,1-.5-.5V121.75177a24.14126,24.14126,0,0,1-3-1.10565v58.12341a3.50424,3.50424,0,0,0,3.5,3.5h159a3.50424,3.50424,0,0,0,3.5-3.5v-89A3.50424,3.50424,0,0,0,180.02051,86.26953Z"/>
    </g>
    <path class="cls-2" d="M126.02051,212.26953h-52a1.50007,1.50007,0,0,1-1.5-1.5v-4a1.49937,1.49937,0,0,1,1.17431-1.46387l10.62452-2.36132a7.87342,7.87342,0,0,0,6.20117-7.73047v-8.44434a1.5,1.5,0,1,1,3,0v8.44434a10.85435,10.85435,0,0,1-8.54981,10.6582l-9.45019,2.10059v1.29687h49v-1.29687l-9.44971-2.10059a10.85427,10.85427,0,0,1-8.55029-10.6582v-8.44434a1.5,1.5,0,1,1,3,0v8.44434a7.87341,7.87341,0,0,0,6.20117,7.73047l10.624,2.36132a1.4993,1.4993,0,0,1,1.17481,1.46387v4A1.50039,1.50039,0,0,1,126.02051,212.26953Z"/>
  </g>
  <g>
    <path class="cls-2" d="M127.61816,133.58984H68.30469a9.82617,9.82617,0,1,1,0-19.65234h59.31347a9.82617,9.82617,0,1,1,0,19.65234ZM68.30469,115.9375a7.82617,7.82617,0,1,0,0,15.65234h59.31347a7.82617,7.82617,0,1,0,0-15.65234Z"/>
    <g>
      <path class="cls-2" d="M127.65527,160.1416h-59.314a9.82617,9.82617,0,1,1,0-19.65234h59.314a9.82617,9.82617,0,1,1,0,19.65234Zm-59.314-17.65234a7.82617,7.82617,0,1,0,0,15.65234h59.314a7.82617,7.82617,0,1,0,0-15.65234Z"/>
      <g>
        <path class="cls-2" d="M118.915,153.76562a3.17285,3.17285,0,1,1,3.17285-3.17285A3.17624,3.17624,0,0,1,118.915,153.76562Zm0-4.3457a1.17285,1.17285,0,1,0,1.17285,1.17285A1.17458,1.17458,0,0,0,118.915,149.41992Z"/>
        <g>
          <path class="cls-2" d="M101.67822,153.76562a3.17285,3.17285,0,1,1,3.17334-3.17285A3.17614,3.17614,0,0,1,101.67822,153.76562Zm0-4.3457a1.17285,1.17285,0,1,0,1.17334,1.17285A1.17448,1.17448,0,0,0,101.67822,149.41992Z"/>
          <path class="cls-2" d="M110.28613,153.76562a3.17285,3.17285,0,1,1,3.17285-3.17285A3.17614,3.17614,0,0,1,110.28613,153.76562Zm0-4.3457a1.17285,1.17285,0,1,0,1.17285,1.17285A1.17448,1.17448,0,0,0,110.28613,149.41992Z"/>
        </g>
        <g>
          <path class="cls-2" d="M84.3584,153.76562a3.17285,3.17285,0,1,1,3.17334-3.17285A3.17614,3.17614,0,0,1,84.3584,153.76562Zm0-4.3457a1.17285,1.17285,0,1,0,1.17334,1.17285A1.17447,1.17447,0,0,0,84.3584,149.41992Z"/>
          <path class="cls-2" d="M92.96631,153.76562a3.17285,3.17285,0,1,1,3.17285-3.17285A3.17624,3.17624,0,0,1,92.96631,153.76562Zm0-4.3457a1.17285,1.17285,0,1,0,1.17285,1.17285A1.17458,1.17458,0,0,0,92.96631,149.41992Z"/>
        </g>
      </g>
      <g id="lock_s" data-name="lock s">
        <g id="lock_s-2" data-name="lock s">
          <path class="cls-2" d="M73.27734,155.75h-.00586l-6.74023-.02441h-.00049a1.45218,1.45218,0,0,1-1.44385-1.45313l.01807-4.94434a1.45112,1.45112,0,0,1,1.44922-1.44433h.00586l6.73974.02441a1.44954,1.44954,0,0,1,1.44434,1.45508l-.01758,4.94336A1.44952,1.44952,0,0,1,73.27734,155.75Zm-6.18847-2.02246,5.63965.02051.01367-3.8418-5.63916-.02051Zm-.5503-.00195h0Z"/>
          <path class="cls-2" d="M71.95166,149.71191h-.00342a.99985.99985,0,0,1-.99658-1.0039l.00537-1.46875a1.079,1.079,0,0,0-.87646-1.09766,1.04916,1.04916,0,0,0-.83936.24024,1.03669,1.03669,0,0,0-.36182.78418l-.00488,1.33105a.99985.99985,0,0,1-1,.99609h-.0039a.99975.99975,0,0,1-.9961-1.0039l.00488-1.33106a3.0403,3.0403,0,0,1,3.49073-2.99511,3.08677,3.08677,0,0,1,2.58691,3.084l-.00537,1.46875A.99985.99985,0,0,1,71.95166,149.71191Z"/>
        </g>
      </g>
    </g>
  </g>
  <g>
    <path class="cls-3" d="M127.00737,149.904v24.37954a.7399.7399,0,0,0,1.31484.46573l6.37368-7.86814,10.33852,1.49044a.7399.7399,0,0,0,.63384-1.2504L128.27554,149.386A.7399.7399,0,0,0,127.00737,149.904Z"/>
    <path class="cls-4" d="M127.76074,176.52734a2.27108,2.27108,0,0,1-.75976-.13183,2.21655,2.21655,0,0,1-1.49317-2.11231V149.9043a2.23988,2.23988,0,0,1,3.83789-1.56934l17.39356,17.73633a2.2396,2.2396,0,0,1-1.918,3.78516l-9.49609-1.36915-5.83692,7.20606A2.21539,2.21539,0,0,1,127.76074,176.52734Zm.74707-24.76269v20.37207l5.55957-6.86231,8.95606,1.292Z"/>
  </g>
  <g id="browser_lg" data-name="browser lg">
    <g id="browser_lg-2" data-name="browser lg">
      <g>
        <rect class="cls-3" x="76.52338" y="37.17203" width="130.49198" height="87.34544" rx="2"/>
        <path class="cls-2" d="M205.01562,126.01758H78.52344a3.50424,3.50424,0,0,1-3.5-3.5V39.17188a3.50424,3.50424,0,0,1,3.5-3.5H205.01562a3.50424,3.50424,0,0,1,3.5,3.5v83.3457A3.50424,3.50424,0,0,1,205.01562,126.01758ZM78.52344,38.67188a.50064.50064,0,0,0-.5.5v83.3457a.50065.50065,0,0,0,.5.5H205.01562a.501.501,0,0,0,.5-.5V39.17188a.501.501,0,0,0-.5-.5Z"/>
      </g>
      <path class="cls-2" d="M206.48926,51.32617H77.04932a1,1,0,0,1,0-2H206.48926a1,1,0,0,1,0,2Z"/>
      <path class="cls-2" d="M91.78271,45.0127H83.36377a1,1,0,0,1,0-2h8.41894a1,1,0,0,1,0,2Z"/>
    </g>
  </g>
  <g id="cloud-2" data-name="cloud">
    <path class="cls-1" d="M209.85936,138.871l11.85225.14012c6.99153.08266,16.655-4.1207,16.801-16.473.11644-9.84868-9.73173-17.06088-17.59343-18.3209a15.70439,15.70439,0,0,0,.35291-2.99285c.18251-11.04538-8.53872-19.64145-19.973-20.33207-14.96826-.90408-20.98563,11.33905-22.35576,16.14835-14.62048-3.06851-24.33183,5.78151-23.09039,19.112-.23674-.01914-.47314-.06628-.7385-.06942a11.18925,11.18925,0,0,0-11.13108,11.10727c-.05375,4.54626,2.92358,10.93031,11.84572,11.04174l16.71285.19759Z"/>
  </g>
  <g id="checkmark_lg" data-name="checkmark lg">
    <g id="checkmark_lg-2" data-name="checkmark lg">
      <path class="cls-2" d="M141.13672,107.29a21.504,21.504,0,1,1,10.35449-40.35938,1.50039,1.50039,0,1,1-1.44336,2.63086,18.50815,18.50815,0,1,0,6.22754,26.86817,18.60172,18.60172,0,0,0,2.92969-14.84278,1.49979,1.49979,0,0,1,2.93164-.63476,21.54236,21.54236,0,0,1-21,26.33789Z"/>
      <path class="cls-5" d="M139.22949,94a1.4951,1.4951,0,0,1-1.06054-.43945L130.2334,85.626a1.49984,1.49984,0,0,1,2.12109-2.1211l6.875,6.874,22.18067-22.17969a1.49984,1.49984,0,1,1,2.12109,2.12109L140.29,93.56055A1.49514,1.49514,0,0,1,139.22949,94Z"/>
    </g>
  </g>
  <path class="cls-6" d="M27.80127,72.668a25.81807,25.81807,0,0,0-.124,51.63574c.04345.00391.0874.00586.13232.00586h.0083a25.82082,25.82082,0,0,0-.0166-51.6416Zm0,3A22.76986,22.76986,0,0,1,46.131,111.98456a11.11953,11.11953,0,0,0-2.15735-4.79511c-1.50927-1.94629-4.47607-4.38476-9.98828-4.94043a.14019.14019,0,0,1-.11621-.15332V99.72852l.07568-.1045a14.05675,14.05675,0,0,0,3.18409-8.75293c0-6.501-3.67432-10.70214-9.36133-10.70214-5.74024,0-9.44971,4.20117-9.44922,10.74414a14.18865,14.18865,0,0,0,3.333,8.72558c.00976.01172.05371.07813.06347.08887v2.38184a.19164.19164,0,0,1-.04882.12109c-9.44819.8219-11.67835,6.74335-12.20032,9.74829A22.76947,22.76947,0,0,1,27.80127,75.668Zm.01465,45.63672a22.86344,22.86344,0,0,1-15.4585-6.10169v-.00085c-.01855-.26367-.05029-1.3125-.05029-1.58008,0-1.26367.46387-7.60645,9.67969-8.40918a3.11689,3.11689,0,0,0,2.728-3.12891l-.00048-2.39062a3.106,3.106,0,0,0-.771-1.99024,11.15512,11.15512,0,0,1-2.62549-6.832c0-4.82324,2.41113-7.70214,6.44971-7.70214,4.04248,0,6.36133,2.80761,6.36133,7.68554a11.00291,11.00291,0,0,1-2.46,6.81641,3.15721,3.15721,0,0,0-.79981,2.05762v2.34765a3.149,3.149,0,0,0,2.76318,3.15137c9.55176.96484,9.66163,8.08691,9.66163,8.38965,0,.23681-.02088,1.25671-.02729,1.56433a22.87294,22.87294,0,0,1-15.34723,6.12707C27.88525,121.30664,27.85107,121.30469,27.81592,121.30469Z"/>
  <g>
    <g id="crosshair_sm-5" data-name="crosshair sm">
      <g id="crosshair_sm-6" data-name="crosshair sm">
        <path class="cls-2" d="M207.15234,170.4209a1.50039,1.50039,0,0,1-1.5-1.5v-6.70508a1.5,1.5,0,0,1,3,0v6.70508A1.50039,1.50039,0,0,1,207.15234,170.4209Z"/>
        <path class="cls-2" d="M207.15234,157.56836a1.50039,1.50039,0,0,1-1.5-1.5v-6.70508a1.5,1.5,0,0,1,3,0v6.70508A1.50039,1.50039,0,0,1,207.15234,157.56836Z"/>
        <path class="cls-2" d="M204.0791,160.6416H197.374a1.5,1.5,0,0,1,0-3h6.70508a1.5,1.5,0,0,1,0,3Z"/>
        <path class="cls-2" d="M216.93164,160.6416h-6.70508a1.5,1.5,0,0,1,0-3h6.70508a1.5,1.5,0,0,1,0,3Z"/>
      </g>
    </g>
    <g id="crosshair_sm-7" data-name="crosshair sm">
      <g id="crosshair_sm-8" data-name="crosshair sm">
        <path class="cls-2" d="M39.82568,58.78516a1.50008,1.50008,0,0,1-1.5-1.5V47.84277a1.5,1.5,0,0,1,3,0v9.44239A1.50007,1.50007,0,0,1,39.82568,58.78516Z"/>
        <path class="cls-2" d="M39.82568,40.68555a1.50008,1.50008,0,0,1-1.5-1.5V29.74316a1.5,1.5,0,1,1,3,0v9.44239A1.50007,1.50007,0,0,1,39.82568,40.68555Z"/>
        <path class="cls-2" d="M35.49707,45.01465H26.05469a1.5,1.5,0,0,1,0-3h9.44238a1.5,1.5,0,0,1,0,3Z"/>
        <path class="cls-2" d="M53.59668,45.01465H44.1543a1.5,1.5,0,1,1,0-3h9.44238a1.5,1.5,0,1,1,0,3Z"/>
      </g>
    </g>
  </g>
</svg>
