<?xml version="1.0" encoding="utf-8"?>
<!-- Generator: Adobe Illustrator 24.3.0, SVG Export Plug-In . SVG Version: 6.00 Build 0)  -->
<svg version="1.1" id="Layer_1" xmlns="http://www.w3.org/2000/svg" xmlns:xlink="http://www.w3.org/1999/xlink" x="0px" y="0px"
	 viewBox="0 0 240 240" style="enable-background:new 0 0 240 240;" xml:space="preserve">
<style type="text/css">
	.st0{fill:#FFFFFF;}
	.st1{fill:#B3B3B3;}
	.st2{fill:#FF0000;}
	.st3{fill:#B1B1B1;}
	.st4{fill:#EF7F00;}
	.st5{fill:#6A68EF;}
	.st6{fill:#D7E8FB;}
</style>
<path class="st0" d="M156.2,136.2c-3.2,5.6-11.8,0.6-8.6-5.1c2.7-4.8,6.4-8.8,9.6-13.2c0.5-0.7,1.2-1.3,1.9-1.8V81.9
	c0-3.9-1.6-7.7-4.3-10.5L135,51.6c-2.8-2.8-6.6-4.4-10.6-4.4H58.5c-7.5,0-13.5,6.1-13.5,13.5v0v114.7c0,7.5,6.1,13.5,13.5,13.5h87
	c7.5,0,13.5-6.1,13.5-13.5v-43.6C158,133.3,157,134.7,156.2,136.2z"/>
<path class="st1" d="M160,137.9c-0.9,0-1.8-0.3-2.5-1v38.6c0,6.6-5.4,12-12,12h-87c-6.6,0-12-5.4-12-12V60.7c0-6.6,5.4-12,12-12
	h65.9c3.6,0,7,1.4,9.5,3.9l19.8,19.8c2.5,2.5,3.9,5.9,3.9,9.4v35.6c0.5-0.5,1-1,1.6-1.3l0.1-0.1c0.2-0.3,0.4-0.5,0.6-0.8l0.6-0.5
	v-33c0-4.3-1.7-8.5-4.8-11.6L136,50.5c-3.1-3.1-7.3-4.8-11.6-4.8H58.5c-8.3,0-15,6.7-15,15v114.8c0,8.3,6.7,15,15,15l0,0h87
	c8.3,0,15-6.7,15-15v-37.6c-0.1,0-0.2-0.1-0.3-0.1L160,137.9z"/>
<g id="crosshair_sm">
	<g id="crosshair_sm-2">
		<path class="st1" d="M190.7,52.9L190.7,52.9c-0.8,0-1.5-0.7-1.5-1.5l0.1-6.4c0-0.8,0.7-1.5,1.5-1.5s1.5,0.7,1.5,1.5l-0.1,6.4
			C192.3,52.2,191.6,52.9,190.7,52.9C190.8,52.9,190.7,52.9,190.7,52.9z"/>
		<path class="st1" d="M190.9,40.5L190.9,40.5c-0.8,0-1.5-0.7-1.5-1.5c0,0,0,0,0,0l0.1-6.4c0-0.8,0.7-1.5,1.5-1.5l0,0
			c0.8,0,1.5,0.7,1.5,1.5c0,0,0,0,0,0l-0.1,6.4C192.4,39.8,191.7,40.5,190.9,40.5C190.9,40.5,190.9,40.5,190.9,40.5z"/>
		<path class="st1" d="M200.2,43.6L200.2,43.6l-6.4-0.1c-0.8,0-1.5-0.7-1.5-1.5s0.7-1.5,1.5-1.5l0,0l6.4,0.1c0.8,0,1.5,0.7,1.5,1.5
			S201.1,43.6,200.2,43.6z"/>
		<path class="st1" d="M187.9,43.4L187.9,43.4l-6.4-0.1c-0.8,0-1.5-0.7-1.5-1.5c0-0.8,0.7-1.5,1.5-1.5l6.4,0.1
			c0.8,0,1.5,0.7,1.5,1.5S188.8,43.4,187.9,43.4L187.9,43.4z"/>
	</g>
</g>
<g id="crosshair_sm-3">
	<g id="crosshair_sm-4">
		<path class="st1" d="M173.7,75L173.7,75c-0.8,0-1.5-0.7-1.5-1.5c0,0,0,0,0,0l0.1-9.1c0-0.8,0.7-1.5,1.5-1.5s1.5,0.7,1.5,1.5
			l-0.1,9.1C175.2,74.3,174.5,75,173.7,75C173.7,75,173.7,75,173.7,75z"/>
		<path class="st1" d="M173.9,57.7L173.9,57.7c-0.8,0-1.5-0.7-1.5-1.5c0,0,0,0,0,0l0.1-9.1c0-0.8,0.7-1.5,1.5-1.5l0,0
			c0.8,0,1.5,0.7,1.5,1.5c0,0,0,0,0,0l-0.1,9.1C175.4,57,174.7,57.6,173.9,57.7z"/>
		<path class="st1" d="M187.1,62L187.1,62l-9.1-0.1c-0.8,0-1.5-0.7-1.5-1.5c0,0,0,0,0,0c0-0.8,0.6-1.5,1.4-1.5c0,0,0,0,0.1,0
			l9.1,0.1c0.8,0,1.5,0.7,1.5,1.5S187.9,62,187.1,62L187.1,62z"/>
		<path class="st1" d="M169.7,61.8L169.7,61.8l-9.1-0.1c-0.8,0-1.5-0.7-1.5-1.5s0.7-1.5,1.5-1.5l0,0l9.1,0.1c0.8,0,1.5,0.7,1.5,1.5
			S170.5,61.8,169.7,61.8L169.7,61.8z"/>
	</g>
</g>
<path class="st1" d="M92.8,167.5L92.8,167.5l-11.3-0.1c-0.8,0-1.5-0.7-1.5-1.5s0.7-1.5,1.5-1.5l11.3,0.1c1.5,0,2.7-1.2,2.7-2.6
	c0,0,0,0,0,0l0.3-21.9c0-1.5-1.2-2.7-2.7-2.7L71,137c-0.7,0-1.4,0.3-1.9,0.8c-0.5,0.5-0.8,1.2-0.8,1.9l-0.1,9.3
	c0,0.8-0.7,1.5-1.5,1.5l0,0c-0.8,0-1.5-0.7-1.5-1.5c0,0,0,0,0,0l0.1-9.3c0-1.5,0.6-2.9,1.7-4c1.1-1,2.5-1.6,4-1.6l22.2,0.3
	c3.1,0,5.6,2.6,5.6,5.7l-0.3,21.9C98.5,165,95.9,167.5,92.8,167.5z"/>
<path class="st1" d="M132.5,125.1L132.5,125.1l-61.1-0.7c-3.4-0.1-6-2.8-6-6.2l0.3-25.2c0-1.6,0.7-3.2,1.8-4.3
	c1.2-1.1,2.7-1.8,4.3-1.7l19.4,0.2c0.8,0,1.5,0.7,1.5,1.5s-0.7,1.5-1.5,1.5l0,0L72,89.9c-0.8,0-1.6,0.3-2.2,0.9
	c-0.6,0.6-0.9,1.4-0.9,2.2l-0.3,25.2c0,1.7,1.4,3.1,3.1,3.2l61,0.7c1.7,0,3.1-1.3,3.1-3c0,0,0,0,0,0l0.3-25.2c0-1.7-1.4-3.1-3.1-3.2
	l-19-0.2c-0.8,0-1.5-0.7-1.5-1.5s0.7-1.5,1.5-1.5l18.9,0.2c3.4,0,6.1,2.7,6.1,6.1c0,0,0,0.1,0,0.1l-0.3,25.2
	C138.7,122.4,135.9,125.1,132.5,125.1z"/>
<path class="st2" d="M137.8,161.4h-15.3c-0.6,0-1-0.4-1-1s0.4-1,1-1h15.2c0.6,0,1,0.4,1,1S138.3,161.4,137.8,161.4L137.8,161.4z"/>
<path class="st3" d="M137.8,143.6h-15.3c-0.6,0-1-0.4-1-1s0.4-1,1-1h15.2c0.6,0,1,0.4,1,1S138.3,143.6,137.8,143.6L137.8,143.6z"/>
<path class="st3" d="M137.8,152.4h-15.3c-0.6,0-1-0.4-1-1s0.4-1,1-1h15.2c0.6,0,1,0.4,1,1S138.3,152.4,137.8,152.4L137.8,152.4z"/>
<path class="st0" d="M22,40.8l58.1-19.5c2.3-0.8,4.9,0.5,5.6,2.8l12.1,36c0.8,2.3-0.5,4.9-2.8,5.6L36.9,85.3
	c-2.3,0.8-4.9-0.5-5.6-2.8l-12.1-36C18.4,44.2,19.6,41.6,22,40.8z"/>
<path class="st4" d="M35.5,87c-2.5,0-4.8-1.6-5.6-4L17.7,47c-1-3.1,0.6-6.5,3.8-7.5l58.1-19.5c3.1-1.1,6.5,0.6,7.5,3.7c0,0,0,0,0,0
	l12.1,36c1,3.1-0.6,6.5-3.8,7.5l0,0L37.4,86.7C36.8,86.9,36.1,87,35.5,87z M81.5,22.6c-0.3,0-0.6,0.1-0.9,0.1L22.4,42.3
	c-1.5,0.5-2.4,2.2-1.9,3.7c0,0,0,0,0,0l12.1,36c0.5,1.5,2.2,2.4,3.7,1.9c0,0,0,0,0,0l58.1-19.5l0,0c1.5-0.5,2.4-2.2,1.9-3.8
	l-12.1-36c-0.2-0.7-0.8-1.4-1.5-1.7C82.4,22.7,81.9,22.6,81.5,22.6L81.5,22.6z M95,65.8L95,65.8z"/>
<path class="st4" d="M74.8,47.1c-4,0-7.3-3.2-7.3-7.2c0-4,3.2-7.3,7.2-7.3c4,0,7.3,3.2,7.3,7.2c0,1.2-0.3,2.3-0.8,3.4
	c-0.9,1.7-2.4,3-4.2,3.6l0,0C76.3,47,75.6,47.1,74.8,47.1z M74.7,35.5c-0.4,0-0.9,0.1-1.3,0.2c-2.2,0.8-3.5,3.2-2.7,5.5
	c0.7,2.2,3.1,3.4,5.3,2.7l0,0c1.1-0.3,2-1.1,2.5-2.1c1.1-2.1,0.2-4.7-1.9-5.8C76.1,35.7,75.4,35.5,74.7,35.5z"/>
<path class="st4" d="M39,86c-0.8,0-1.5-0.7-1.5-1.5c0-0.2,0.1-0.5,0.2-0.7l13.1-26.2c0.7-1.4,2.3-1.9,3.7-1.3c0,0,0,0,0.1,0l25,13.5
	c0.5,0.3,0.8,0.8,0.8,1.4c0,0.6-0.4,1.1-1,1.3L39.5,85.9C39.3,86,39.2,86,39,86z M53.3,59.1L42,81.9l33-11.1L53.3,59.1z"/>
<path class="st4" d="M81.9,71.7c-0.6,0-1.2-0.4-1.4-1c-0.3-0.8,0.2-1.6,0.9-1.9l5.1-1.8l-15.2-8.2c0,0-0.1,0-0.1,0l-1.9,4
	c-0.3,0.8-1.2,1.2-1.9,0.8c-0.8-0.3-1.2-1.2-0.8-1.9c0-0.1,0.1-0.1,0.1-0.2l1.9-4.1c0.8-1.5,2.7-2.2,4.2-1.4c0,0,0,0,0,0L91,66
	c0.7,0.4,1,1.3,0.6,2c-0.2,0.3-0.5,0.6-0.9,0.7l-8.3,2.8C82.2,71.6,82.1,71.7,81.9,71.7z"/>
<g id="arrow_half_down_lg">
	<g id="arrow_half_down_lg-2">
		<path class="st1" d="M103.5,110.3L103.5,110.3c-0.5,0-0.8-0.2-1.1-0.5l-6.5-7.4c-0.6-0.6-0.5-1.6,0.1-2.1c0.6-0.6,1.6-0.5,2.1,0.1
			l5.5,6.3l6.3-5.6c0.6-0.5,1.6-0.5,2.1,0.1c0,0,0,0,0,0c0.5,0.6,0.5,1.6-0.1,2.1l-7.5,6.5C104.2,110.1,103.9,110.3,103.5,110.3z"/>
		<path class="st1" d="M103.5,109h-0.2c-0.8-0.1-1.4-0.9-1.3-1.7c1.4-10.1-0.4-20.4-5.1-29.4c-0.7-1.3-1.4-2.7-2.3-3.9
			c-0.5-0.7-0.3-1.6,0.3-2.1c0.7-0.5,1.6-0.3,2.1,0.3c0,0,0.1,0.1,0.1,0.1c0.9,1.3,1.7,2.7,2.4,4.1c5,9.6,6.9,20.4,5.5,31.1
			C104.9,108.4,104.3,109,103.5,109z"/>
	</g>
</g>
<g id="hand_pencil_lg">
	<g id="hand_pencil_lg-2">
		<path class="st1" d="M230.4,113.3c-0.1,0-0.2,0-0.3,0c-6.2-1.2-11.9-4-17.5-6.6c-2.6-1.2-5.4-2.6-8.1-3.7
			c-4.3-1.7-8.8-2.7-13.4-2.9c-0.8,0-1.5-0.7-1.4-1.6c0-0.8,0.7-1.5,1.6-1.4c4.9,0.2,9.8,1.3,14.4,3.1c2.8,1.1,5.6,2.5,8.3,3.7
			c5.4,2.6,10.9,5.2,16.8,6.4c0.8,0.1,1.4,0.8,1.4,1.6C231.9,112.9,231.2,113.5,230.4,113.3L230.4,113.3L230.4,113.3z"/>
		<path class="st1" d="M196,125c-0.5,0-0.9-0.2-1.2-0.6c-1.5-1.9-3.9-3.2-6.2-4.5l-1.2-0.7c-3.1-1.8-5.1-2.7-9.2-0.2
			c-0.2,0.1-0.4,0.2-0.6,0.4c-0.7,0.4-1.6,0.2-2.1-0.5s-0.2-1.6,0.5-2.1l0.6-0.4c5.5-3.3,8.7-2,12.3,0.1l1.1,0.7
			c2.4,1.4,5.1,2.9,7,5.2c0.5,0.6,0.4,1.6-0.2,2.1c0,0,0,0,0,0C196.7,124.9,196.3,125,196,125z"/>
	</g>
</g>
<path class="st1" d="M150.2,139.7c-1.6,0.1-3.2-0.6-4.3-1.7c-1.5-1.6-2-4.4,0.7-7.9c5.5-6.9,11.3-13.5,19-21.7c3-3.2,6.4-6,10.2-8.3
	c2-1.1,4.2-1.9,6.4-2.4c0.8-0.2,1.6,0.4,1.8,1.2c0.2,0.8-0.3,1.6-1.1,1.7c-2,0.4-3.8,1.1-5.6,2.1c-3.5,2.1-6.7,4.7-9.4,7.7
	c-7.6,8.1-13.4,14.7-18.8,21.5c-0.6,0.8-2,2.8-0.9,3.9c0.9,1,3.2,1.1,5.2-0.3l0.2-0.1c0.4-0.2,0.8-0.5,1.2-0.7
	c0.7-0.4,1.6-0.2,2.1,0.5c0.4,0.7,0.2,1.6-0.5,2.1c-0.4,0.2-0.9,0.5-1.3,0.7C153.5,139.2,151.9,139.7,150.2,139.7z"/>
<path class="st0" d="M157.1,134.9c-0.1-0.3-0.2-0.5-0.2-0.8l-9.9,13.5l-5.2,12.7l10.5-8.7l9.4-12.9
	C159.7,138.2,157.7,137.2,157.1,134.9z"/>
<path class="st0" d="M201.1,79.5c-1.5-1.1-3.6-0.8-4.6,0.7c0,0,0,0,0,0l-36.6,50c0.2-0.1,0.5-0.1,0.7-0.1h0.2
	c0.3-0.1,0.5-0.1,0.8-0.1c2.2-1.7,5.1-1.5,7.7-1.4l32.6-44.4C202.9,82.7,202.6,80.6,201.1,79.5C201.1,79.5,201.1,79.5,201.1,79.5z"
	/>
<path class="st2" d="M141.9,161.7c-0.3,0-0.6-0.1-0.9-0.3c-0.6-0.4-0.8-1.1-0.5-1.8l5.2-12.7c0-0.1,0.1-0.2,0.2-0.3l49.4-67.4
	c1.5-2.2,4.5-2.8,6.7-1.3c2.2,1.5,2.8,4.5,1.3,6.7c-0.1,0.1-0.2,0.2-0.3,0.3l-32.7,44.6c-0.5,0.7-1.4,0.9-2.1,0.4s-0.9-1.4-0.4-2.1
	c0,0,0.1-0.1,0.1-0.1l32.7-44.5c0.3-0.4,0.4-0.9,0.3-1.3c-0.1-0.5-0.3-0.9-0.7-1.2c-0.8-0.6-1.9-0.4-2.5,0.4c0,0,0,0,0,0l-49.3,67.2
	l-2.8,6.9l5.8-4.8l9.7-13.2c0.5-0.7,1.4-0.9,2.1-0.4c0.7,0.5,0.9,1.4,0.4,2.1c0,0,0,0.1-0.1,0.1l-9.8,13.4c-0.1,0.1-0.2,0.2-0.2,0.3
	l-10.5,8.7C142.6,161.6,142.2,161.7,141.9,161.7z"/>
<path class="st1" d="M226.7,147.1L226.7,147.1c-21.4-1.1-42.7-3.6-63.7-7.3c-4-0.7-6.2-2.3-6.6-4.8c-0.6-3.7,3.2-5.9,6.6-6.7
	c5-1.1,10.1-1.8,15.1-2.3c8.7-1,16.9-2,24.4-5.6c0.7-0.4,1.6-0.1,2,0.6s0.1,1.6-0.6,2c0,0-0.1,0-0.1,0.1c-8,3.8-16.8,4.9-25.4,5.9
	c-5,0.5-9.9,1.3-14.8,2.3c-1.9,0.4-4.6,1.7-4.3,3.3c0.2,1.4,2.4,2,4.2,2.4c20.9,3.7,42,6.2,63.2,7.3c0.8,0,1.5,0.7,1.5,1.5
	C228.2,146.6,227.5,147.2,226.7,147.1L226.7,147.1z"/>
<g id="ibeam_text">
	<g id="ibeam_text-2">
		<path class="st2" d="M110.9,144.3c-0.8,0-1.5-0.7-1.5-1.5c0-3.1-0.9-4.9-5.3-4.9c-0.8,0-1.5-0.7-1.5-1.5s0.7-1.5,1.5-1.5
			c5.6,0,8.3,2.6,8.3,7.9C112.4,143.6,111.7,144.3,110.9,144.3z"/>
		<path class="st2" d="M104.1,166.9c-0.8,0-1.5-0.7-1.5-1.5s0.7-1.5,1.5-1.5c4.4,0,5.3-1.8,5.3-4.9c0-0.8,0.7-1.5,1.5-1.5
			s1.5,0.7,1.5,1.5C112.4,164.3,109.7,166.9,104.1,166.9z"/>
		<path class="st2" d="M117.7,166.9c-5.6,0-8.3-2.6-8.3-7.9v-16.2c0-5.3,2.7-7.9,8.3-7.9c0.8,0,1.5,0.7,1.5,1.5s-0.7,1.5-1.5,1.5
			c-4.4,0-5.3,1.8-5.3,4.9V159c0,3.1,0.9,4.9,5.3,4.9c0.8,0,1.5,0.7,1.5,1.5S118.5,166.9,117.7,166.9L117.7,166.9z"/>
	</g>
</g>
<path class="st0" d="M71.3,200.6h-37c-3.2,0-5.8-2.6-5.8-4.8v-36.1c0-4.2,2.6-5.8,5.8-5.8h37c3.2,0,5.8,2.6,5.8,5.8l0,0v35.1
	C77.1,198,74.5,200.6,71.3,200.6z"/>
<path class="st1" d="M71.3,202.1h-37c-4.2,0-7.3-3.4-7.3-6.3v-36.1c0-4.6,2.7-7.3,7.3-7.3h37c4,0,7.3,3.3,7.3,7.3l0,0v35.1
	C78.6,198.9,75.3,202.1,71.3,202.1z M34.3,155.3c-2.9,0-4.3,1.4-4.3,4.3v36.1c0,1.3,1.9,3.3,4.3,3.3h37c2.4,0,4.3-1.9,4.3-4.3v-35.1
	c0-2.4-1.9-4.3-4.3-4.3H34.3z"/>
<path class="st1" d="M56,190.5H45.9c-0.8,0-1.5-0.7-1.5-1.5s0.7-1.5,1.5-1.5H56c0.8,0,1.5,0.7,1.5,1.5S56.8,190.5,56,190.5z"/>
<path class="st1" d="M68,174.4H45.9c-0.8,0-1.5-0.7-1.5-1.5s0.7-1.5,1.5-1.5H68c0.8,0,1.5,0.7,1.5,1.5S68.8,174.4,68,174.4z"/>
<path class="st0" d="M55.9,182.2l-2.5,2.6c-0.1,0.1-0.3,0.1-0.4,0c0,0,0,0,0,0l-2.5-2.6"/>
<path class="st1" d="M53.2,186.4c-0.5,0-0.9-0.2-1.3-0.5l-2.5-2.6c-0.6-0.6-0.5-1.6,0.1-2.1c0.6-0.5,1.5-0.5,2.1,0l1.6,1.7l1.6-1.7
	c0.6-0.6,1.5-0.6,2.1,0c0.6,0.6,0.6,1.5,0,2.1l0,0l-2.5,2.6C54.2,186.2,53.7,186.4,53.2,186.4z"/>
<path class="st0" d="M67.9,165.8l-2.5,2.6c-0.1,0.1-0.3,0.1-0.4,0c0,0,0,0,0,0l-2.5-2.6"/>
<path class="st1" d="M65.2,170c-0.5,0-0.9-0.2-1.3-0.5l-2.5-2.6c-0.6-0.6-0.6-1.5,0-2.1c0.6-0.6,1.5-0.6,2.1,0l1.6,1.7l1.6-1.7
	c0.5-0.7,1.4-0.9,2.1-0.4c0.7,0.5,0.9,1.4,0.4,2.1c-0.1,0.1-0.2,0.3-0.4,0.4l-2.5,2.6C66.2,169.8,65.7,170,65.2,170z"/>
<rect x="61.2" y="182.6" class="st0" width="6.7" height="6.7"/>
<path class="st1" d="M67.9,190.8h-6.7c-0.8,0-1.5-0.7-1.5-1.5v-6.7c0-0.8,0.7-1.5,1.5-1.5h6.7c0.8,0,1.5,0.7,1.5,1.5v6.7
	C69.4,190.1,68.7,190.8,67.9,190.8z M62.7,187.8h3.7v-3.7h-3.7V187.8z"/>
<g id="ibeam_text-3">
	<g id="ibeam_text-4">
		<path class="st2" d="M110.9,144.3c-0.8,0-1.5-0.7-1.5-1.5c0-3.1-0.9-4.9-5.3-4.9c-0.8,0-1.5-0.7-1.5-1.5s0.7-1.5,1.5-1.5
			c5.6,0,8.3,2.6,8.3,7.9C112.4,143.6,111.7,144.3,110.9,144.3z"/>
		<path class="st2" d="M104.1,166.9c-0.8,0-1.5-0.7-1.5-1.5s0.7-1.5,1.5-1.5c4.4,0,5.3-1.8,5.3-4.9c0-0.8,0.7-1.5,1.5-1.5
			s1.5,0.7,1.5,1.5C112.4,164.3,109.7,166.9,104.1,166.9z"/>
		<path class="st2" d="M117.7,166.9c-5.6,0-8.3-2.6-8.3-7.9v-16.2c0-5.3,2.7-7.9,8.3-7.9c0.8,0,1.5,0.7,1.5,1.5s-0.7,1.5-1.5,1.5
			c-4.4,0-5.3,1.8-5.3,4.9V159c0,3.1,0.9,4.9,5.3,4.9c0.8,0,1.5,0.7,1.5,1.5S118.5,166.9,117.7,166.9L117.7,166.9z"/>
	</g>
</g>
<path class="st0" d="M71.3,200.6h-37c-3.2,0-5.8-2.6-5.8-4.8v-36.1c0-4.2,2.6-5.8,5.8-5.8h37c3.2,0,5.8,2.6,5.8,5.8l0,0v35.1
	C77.1,198,74.5,200.6,71.3,200.6z"/>
<path class="st1" d="M71.3,202.1h-37c-4.2,0-7.3-3.4-7.3-6.3v-36.1c0-4.6,2.7-7.3,7.3-7.3h37c4,0,7.3,3.3,7.3,7.3l0,0v35.1
	C78.6,198.9,75.3,202.1,71.3,202.1z M34.3,155.3c-2.9,0-4.3,1.4-4.3,4.3v36.1c0,1.3,1.9,3.3,4.3,3.3h37c2.4,0,4.3-1.9,4.3-4.3v-35.1
	c0-2.4-1.9-4.3-4.3-4.3H34.3z"/>
<path class="st1" d="M56,190H45.9c-0.6,0-1-0.4-1-1s0.4-1,1-1H56c0.6,0,1,0.4,1,1S56.6,190,56,190z"/>
<path class="st1" d="M68,173.9H45.9c-0.6,0-1-0.4-1-1s0.4-1,1-1H68c0.6,0,1,0.4,1,1S68.6,173.9,68,173.9z"/>
<path class="st0" d="M55.9,182.2l-2.5,2.6c-0.1,0.1-0.3,0.1-0.4,0c0,0,0,0,0,0l-2.5-2.6"/>
<path class="st1" d="M53.2,185.9c-0.3,0-0.7-0.1-0.9-0.4l-2.5-2.6c-0.4-0.4-0.3-1.1,0.1-1.4c0.4-0.3,0.9-0.3,1.3,0l2,2l2-2
	c0.4-0.4,1-0.4,1.4,0c0,0,0,0,0,0c0.4,0.4,0.4,1,0,1.4l-2.5,2.6C53.9,185.8,53.6,185.9,53.2,185.9z"/>
<path class="st0" d="M67.9,165.8l-2.5,2.6c-0.1,0.1-0.3,0.1-0.4,0c0,0,0,0,0,0l-2.5-2.6"/>
<path class="st1" d="M65.2,169.5c-0.3,0-0.7-0.1-0.9-0.4l-2.5-2.6c-0.4-0.4-0.4-1,0-1.4c0.4-0.4,1-0.4,1.4,0c0,0,0,0,0,0l2,2l2-2
	c0.4-0.4,1-0.4,1.4,0c0,0,0,0,0,0c0.4,0.4,0.4,1,0,1.4l-2.5,2.6C65.9,169.3,65.6,169.5,65.2,169.5z"/>
<rect x="61.2" y="182.6" class="st0" width="6.7" height="6.7"/>
<path class="st1" d="M67.9,190.3h-6.7c-0.6,0-1-0.4-1-1v-6.7c0-0.6,0.4-1,1-1h6.7c0.6,0,1,0.4,1,1v6.7
	C68.9,189.9,68.4,190.3,67.9,190.3z M62.2,188.3h4.7v-4.7h-4.7V188.3z"/>
<g id="text_sm-3">
	<path id="text_sm-4" class="st0" d="M11.2,148.6c-0.9,0-1.6,0.7-1.6,1.6v9.3c0,0.9,0.7,1.6,1.6,1.6h3.1c0.9,0,1.6-0.7,1.6-1.6v-4.7
		h12.5V186h-4.7c-0.9,0-1.6,0.7-1.6,1.6v3.1c0,0.9,0.7,1.6,1.6,1.6h15.6c0.9,0,1.6-0.7,1.6-1.6v-3.1c0-0.9-0.7-1.6-1.6-1.6h-4.7
		v-31.1H47v4.7c0,0.9,0.7,1.6,1.6,1.6h3.1c0.9,0,1.6-0.7,1.6-1.6v-9.3c0-0.9-0.7-1.6-1.6-1.6L11.2,148.6z"/>
	<path class="st5" d="M39.2,193.7H23.7c-1.7,0-3.1-1.4-3.1-3.1v-3.1c0-1.7,1.4-3.1,3.1-3.1h3.2v-28.1h-9.5v3.2
		c0,1.7-1.4,3.1-3.1,3.1h-3.1c-1.7,0-3.1-1.4-3.1-3.1v-9.3c0-1.7,1.4-3.1,3.1-3.1h40.5c1.7,0,3.1,1.4,3.1,3.1v9.3
		c0,1.7-1.4,3.1-3.1,3.1h-3.1c-1.7,0-3.1-1.4-3.1-3.1v-3.2h-9.5v28.1h3.2c1.7,0,3.1,1.4,3.1,3.1v3.1
		C42.3,192.3,40.9,193.7,39.2,193.7C39.2,193.7,39.2,193.7,39.2,193.7z M23.7,187.5l-0.1,3.2l15.6,0.1l0.1-3.2l-4.7-0.1
		c-0.8,0-1.5-0.7-1.5-1.5v-31.1c0-0.8,0.7-1.5,1.5-1.5H47c0.8,0,1.5,0.7,1.5,1.5v4.7l3.2,0.1l0.1-9.4l-40.5-0.1c0,0-0.1,0-0.1,0.1
		v9.3l3.2,0.1l0.1-4.7c0-0.8,0.7-1.5,1.5-1.5h12.5c0.8,0,1.5,0.7,1.5,1.5V186c0,0.8-0.7,1.5-1.5,1.5L23.7,187.5z"/>
</g>
<g id="cloud-2">
	<path class="st6" d="M177.6,218.8l11.9,0.1c7,0.1,16.6-4.1,16.8-16.5c0.1-9.9-9.7-17.1-17.6-18.3c0.2-1,0.3-2,0.4-3
		c0.2-11-8.5-19.6-20-20.3c-15-0.9-21,11.3-22.4,16.1c-14.6-3.1-24.3,5.8-23.1,19.1c-0.2,0-0.5-0.1-0.7-0.1c-6.1,0-11.1,5-11.1,11.1
		c-0.1,4.6,2.9,10.9,11.8,11l16.7,0.2L177.6,218.8z"/>
</g>
</svg>
