<svg id="Layer_1" data-name="Layer 1" xmlns="http://www.w3.org/2000/svg" width="240" height="240" viewBox="0 0 240 240">
  <defs>
    <style>
      .cls-1 {
        fill: #d7e8fb;
      }

      .cls-2 {
        fill: #fff;
      }

      .cls-3 {
        fill: #b3b3b3;
      }

      .cls-4 {
        fill: #686ce8;
      }

      .cls-5 {
        fill: #ef7f00;
      }

      .cls-6 {
        fill: #079d76;
      }
    </style>
  </defs>
  <g id="cloud">
    <path class="cls-1" d="M205.88946,104.79806l11.85225.14013c6.99153.08266,16.655-4.12071,16.801-16.473.11644-9.84867-9.73173-17.06087-17.59343-18.32089a15.7044,15.7044,0,0,0,.35291-2.99286c.18251-11.04537-8.53872-19.64144-19.973-20.33207-14.96825-.90408-20.98562,11.33906-22.35576,16.14836-14.62047-3.06851-24.33183,5.7815-23.09039,19.112-.23673-.01914-.47314-.06628-.7385-.06942a11.18925,11.18925,0,0,0-11.13108,11.10726c-.05375,4.54626,2.92358,10.93031,11.84572,11.04175l16.71285.19759Z"/>
  </g>
  <g id="steps">
    <g>
      <g>
        <path class="cls-2" d="M51.29854,98.113h139.515a3.70954,3.70954,0,0,1,3.70954,3.70954v90.74809a0,0,0,0,1,0,0H47.589a0,0,0,0,1,0,0V101.82257A3.70954,3.70954,0,0,1,51.29854,98.113Z"/>
        <path class="cls-3" d="M196.02344,194.07031H46.08887v-92.248a5.21521,5.21521,0,0,1,5.20947-5.209H190.81348a5.21532,5.21532,0,0,1,5.21,5.209Zm-146.93457-3H193.02344v-89.248a2.212,2.212,0,0,0-2.21-2.209H51.29834a2.21193,2.21193,0,0,0-2.20947,2.209Z"/>
      </g>
      <g>
        <path class="cls-2" d="M212.53616,200.32124H29.57593a3.44986,3.44986,0,0,1-3.44986-3.44985v-4.30072h189.86v4.30072A3.44986,3.44986,0,0,1,212.53616,200.32124Z"/>
        <path class="cls-3" d="M212.53613,201.82129h-182.96a4.95587,4.95587,0,0,1-4.95019-4.9502v-5.80078H217.48633v5.80078A4.95588,4.95588,0,0,1,212.53613,201.82129ZM27.626,194.07031v2.80078a1.95259,1.95259,0,0,0,1.95019,1.9502h182.96a1.95259,1.95259,0,0,0,1.9502-1.9502v-2.80078Z"/>
      </g>
      <path class="cls-3" d="M132.71777,197.06934H109.39453a4.50409,4.50409,0,0,1-4.49853-4.499v-1h32.31982v1A4.50368,4.50368,0,0,1,132.71777,197.06934Zm-25.61279-3.499a2.50142,2.50142,0,0,0,2.28955,1.499h23.32324a2.50023,2.50023,0,0,0,2.28907-1.499Z"/>
      <circle class="cls-3" cx="121.05604" cy="102.8305" r="1.15095"/>
    </g>
  </g>
  <g id="phone">
    <g>
      <path class="cls-2" d="M50.57487,192.57476v4.49844a4.248,4.248,0,0,1-4.248,4.248H21.38253a4.248,4.248,0,0,1-4.248-4.248V131.64844a4.248,4.248,0,0,1,4.248-4.248h24.9443a4.248,4.248,0,0,1,4.248,4.248v60.92632Z"/>
      <path class="cls-3" d="M46.32666,202.82129H21.38232a5.75431,5.75431,0,0,1-5.748-5.74805v-65.4248a5.75431,5.75431,0,0,1,5.748-5.748H46.32666a5.75432,5.75432,0,0,1,5.74805,5.748v65.4248A5.75432,5.75432,0,0,1,46.32666,202.82129Zm-24.94434-73.9209a2.751,2.751,0,0,0-2.748,2.74805v65.4248a2.751,2.751,0,0,0,2.748,2.74805H46.32666a2.751,2.751,0,0,0,2.74805-2.74805v-65.4248a2.751,2.751,0,0,0-2.74805-2.74805Z"/>
    </g>
  </g>
  <g id="paper_flight" data-name="paper flight">
    <g>
      <g>
        <path class="cls-2" d="M174.5026,11.1179,130.05546,46.3726l-15.50423-8.54334a1.64291,1.64291,0,0,1,.17112-2.95255Z"/>
        <path class="cls-4" d="M130.05566,47.87305a1.49615,1.49615,0,0,1-.72363-.18653l-15.50488-8.54394a3.14245,3.14245,0,0,1,.34277-5.66016l59.7793-23.75781a1.49966,1.49966,0,0,1,1.48633,2.56836L130.98828,47.54785A1.49728,1.49728,0,0,1,130.05566,47.87305Zm35.53125-31.59668L115.27637,36.27051c-.02442.00976-.062.02441-.0669.1084a.12349.12349,0,0,0,.06494.13574l14.63086,8.0625Z"/>
      </g>
      <g>
        <path class="cls-2" d="M174.5026,11.1179,155.33527,58.25816a1.58128,1.58128,0,0,1-2.23364.80609l-12.81929-7.06031L130.05546,46.3726Z"/>
        <path class="cls-4" d="M153.86328,60.76172A3.06693,3.06693,0,0,1,152.374,60.376L129.332,47.6875a1.5001,1.5001,0,0,1-.209-2.48926L173.57031,9.94336a1.50024,1.50024,0,0,1,2.32227,1.74023l-19.168,47.13965a3.12193,3.12193,0,0,1-1.84863,1.76563A3.05749,3.05749,0,0,1,153.86328,60.76172Zm-21.1084-14.61524L153.8252,57.751l1.50976.50683-1.38965-.56543,17.01856-41.85254Z"/>
      </g>
      <g>
        <path class="cls-2" d="M130.05544,46.3727l.65461,13.86547a1.33761,1.33761,0,0,0,2.39059.78805l7.1817-9.02228Z"/>
        <path class="cls-4" d="M132.06836,63.0459a2.88158,2.88158,0,0,1-.86328-.13379,2.83941,2.83941,0,0,1-1.99317-2.60352l-.65429-13.86523a1.5,1.5,0,0,1,2.22168-1.38477l10.22656,5.63086a1.50131,1.50131,0,0,1,.45019,2.249l-7.18164,9.02246A2.78135,2.78135,0,0,1,132.06836,63.0459Zm-.15332-2.93848-.001.001Zm-.23438-11.12793.50879,10.78321,5.8125-7.30176Z"/>
      </g>
    </g>
  </g>
  <g>
    <path class="cls-3" d="M120.67188,57.53613a1.00861,1.00861,0,0,1-.25586-.0332c-1.09717-.28906-2.2212-.541-3.33936-.74707a.99995.99995,0,1,1,.3623-1.9668c1.168.21485,2.34131.47754,3.4878.78028a.99993.99993,0,0,1-.25488,1.96679Z"/>
    <path class="cls-3" d="M68.75,79.16309a1.00046,1.00046,0,0,1-.86475-1.501,47.772,47.772,0,0,1,4.10694-5.98926,1.00019,1.00019,0,1,1,1.55859,1.25391,45.702,45.702,0,0,0-3.93408,5.7373A1,1,0,0,1,68.75,79.16309Zm8.88916-11.04493a1,1,0,0,1-.6748-1.73828,47.36347,47.36347,0,0,1,5.72558-4.4707.99971.99971,0,0,1,1.10547,1.666A45.42162,45.42162,0,0,0,78.313,67.85645.99323.99323,0,0,1,77.63916,68.11816Zm11.81445-7.83789a.99979.99979,0,0,1-.41845-1.9082,47.67446,47.67446,0,0,1,6.813-2.52148,1.00029,1.00029,0,0,1,.54883,1.92382,45.783,45.783,0,0,0-6.52588,2.41407A.9923.9923,0,0,1,89.45361,60.28027Zm13.63233-3.89941a1.00011,1.00011,0,0,1-.125-1.99219,47.7042,47.7042,0,0,1,7.25488-.36035,1.00015,1.00015,0,0,1,.97168,1.02832,1.02257,1.02257,0,0,1-1.02734.97168,45.15929,45.15929,0,0,0-6.94629.34473A1.132,1.132,0,0,1,103.08594,56.38086Z"/>
    <path class="cls-3" d="M64.51953,88.88965a1.01444,1.01444,0,0,1-.26758-.03613c-.75879-.21094-1.688-.49805-2.63672-.792l-.74072-.22851a1.00037,1.00037,0,0,1,.58887-1.91211l.74365.23047c.56983.17675,1.13184.35058,1.65283.50586.26905-.81934.56153-1.63575.87354-2.4375a1,1,0,0,1,1.86328.72656c-.4126,1.05957-.79,2.14844-1.12109,3.23535A1.00026,1.00026,0,0,1,64.51953,88.88965Z"/>
    <path class="cls-3" d="M31.52539,109.01562a1.01681,1.01681,0,0,1-.20166-.0205,1,1,0,0,1-.77881-1.18067,39.26726,39.26726,0,0,1,2.01465-6.78222.99984.99984,0,1,1,1.85449.748,37.31546,37.31546,0,0,0-1.91015,6.43653A1.00025,1.00025,0,0,1,31.52539,109.01562Zm5.25293-12.65429a1.00026,1.00026,0,0,1-.80957-1.58594,23.58721,23.58721,0,0,1,5.0166-5.126.99972.99972,0,1,1,1.19434,1.60352,21.62276,21.62276,0,0,0-4.58985,4.69434A.99865.99865,0,0,1,36.77832,96.36133Zm10.88721-8.08887a.99978.99978,0,0,1-.32227-1.94629,28.43908,28.43908,0,0,1,6.98682-1.3916,1,1,0,1,1,.15332,1.99414,26.48173,26.48173,0,0,0-6.49561,1.29A.97864.97864,0,0,1,47.66553,88.27246Z"/>
    <path class="cls-3" d="M30.6084,119.37793a1.00058,1.00058,0,0,1-.99756-.94238,35.7637,35.7637,0,0,1,.03809-3.60645,1.01223,1.01223,0,0,1,1.05224-.94531,1.00035,1.00035,0,0,1,.94483,1.05273c-.11084,2.05664-.03907,3.3711-.03809,3.38477a.99987.99987,0,0,1-.94141,1.05469C30.647,119.377,30.62744,119.37793,30.6084,119.37793Z"/>
  </g>
  <g id="iPhone_6_7_lg" data-name="iPhone 6/7 lg">
    <g id="iPhone_6_7" data-name="iPhone 6/7">
      <path class="cls-3" d="M38.10254,134.791H31.04883a1,1,0,0,1,0-2h7.05371a1,1,0,1,1,0,2Z"/>
      <path class="cls-3" d="M34.07227,196.2832a3.01563,3.01563,0,1,1,3.01513-3.01562A3.019,3.019,0,0,1,34.07227,196.2832Zm0-4.03125a1.01563,1.01563,0,1,0,1.01513,1.01563A1.017,1.017,0,0,0,34.07227,192.252Z"/>
    </g>
  </g>
  <g>
    <path class="cls-5" d="M44.792,151.18555H22.417a1,1,0,0,1,0-2H44.792a1,1,0,0,1,0,2Z"/>
    <path class="cls-5" d="M33.39111,145.08984H22.417a1,1,0,0,1,0-2H33.39111a1,1,0,0,1,0,2Z"/>
    <path class="cls-5" d="M44.75977,157.55176H22.417a1,1,0,0,1,0-2H44.75977a1,1,0,0,1,0,2Z"/>
    <path class="cls-5" d="M44.75977,163.64746H22.417a1,1,0,0,1,0-2H44.75977a1,1,0,0,1,0,2Z"/>
    <path class="cls-5" d="M22.417,170.01367a1,1,0,0,1-.001-2l22.31054-.02539h.001a1,1,0,0,1,.001,2l-22.31055.02539Z"/>
    <path class="cls-5" d="M44.792,176.1084H22.417a1,1,0,0,1,0-2H44.792a1,1,0,0,1,0,2Z"/>
    <path class="cls-5" d="M44.75977,181.94238H22.417a1,1,0,0,1,0-2H44.75977a1,1,0,0,1,0,2Z"/>
  </g>
  <g>
    <path class="cls-2" d="M162.4086,149.70664l-10.50661,8.743,5.15617-12.65872,49.40241-67.35973a3.31511,3.31511,0,0,1,4.63306-.71737v0a3.31511,3.31511,0,0,1,.71737,4.63306l-32.66812,44.54268S162.66469,149.45054,162.4086,149.70664Z"/>
    <path class="cls-6" d="M151.90234,159.94922a1.49981,1.49981,0,0,1-1.38964-2.06543l5.15625-12.6582a1.52193,1.52193,0,0,1,.17968-.32129L205.251,77.54492a4.81468,4.81468,0,1,1,7.76953,5.68848l-32.668,44.543c-16.54492,22.65234-16.77344,22.88086-16.88379,22.99121-.03223.03222-.06641.06347-.10156.09277l-10.50586,8.74219A1.495,1.495,0,0,1,151.90234,159.94922Zm6.47559-13.4209-2.82324,6.92969,5.77441-4.80469c1.00586-1.31738,10.36621-14.11035,16.60254-22.64844L210.60059,81.46a1.81439,1.81439,0,0,0-2.92871-2.14258Zm4.03027,3.17871h0Zm0,0h0Z"/>
  </g>
  <g>
    <path class="cls-3" d="M153.759,178.50275H88.04612a1.299,1.299,0,0,1-1.31755-1.31755,1.21211,1.21211,0,0,1,1.31755-1.31755H153.759a1.31755,1.31755,0,0,1,0,2.6351ZM100.23347,159.563l5.10551-5.1055a1.281,1.281,0,0,0-1.81163-1.81163l-5.10552,5.1055-5.1055-5.1055a1.281,1.281,0,0,0-1.81163,1.81163l5.1055,5.1055-5.1055,5.10551a1.29237,1.29237,0,0,0,0,1.81163,1.194,1.194,0,0,0,1.64694,0l5.1055-5.10551,5.10551,5.10551a1.194,1.194,0,0,0,1.64694,0,1.29239,1.29239,0,0,0,0-1.81163Z"/>
    <path class="cls-3" d="M136.13672,140.95255c-.32939,0-.49408.16471-.65877.49409-2.47041,2.30572-4.94082,9.55225-5.76429,15.64591a37.68727,37.68727,0,0,0,6.42306-12.84612c.49409-2.47041.1647-3.12917,0-3.29388Zm5.43491,27.50388a2.671,2.671,0,0,1-2.30572-1.15286c-.82347-.98816-.82347-2.47041-.3294-4.11735-2.141,2.63511-5.1055,5.10552-8.07,4.94082a3.52487,3.52487,0,0,1-3.45857-2.79979c-.1647-.32939-.1647-.49409-.32939-.82347-2.6351,2.30571-5.2702,3.95265-7.74061,3.788a1.26063,1.26063,0,0,1-1.31755-1.48225h0a1.26063,1.26063,0,0,1,1.48225-1.31755c1.64694,0,4.44673-1.81163,7.24652-4.77613,0-7.24651,3.29388-18.11632,6.91715-21.57489a3.297,3.297,0,0,1,3.95265-.82347c1.31754.65878,2.47041,2.141,1.48225,6.42307-1.15287,4.61143-4.94082,11.85795-9.38756,17.12816a6.60842,6.60842,0,0,0,.49409,2.47041c.32938.98816.65877.98816.82347.98816h0c3.62326,0,7.41122-6.09367,9.05816-8.39939.98816-1.48224,1.64694-2.4704,2.79979-1.97633,1.64694.65878,1.15286,2.47041.16469,5.27021-.49407,1.31754-1.48223,4.44673-1.15285,5.43489h0a10.03606,10.03606,0,0,0,3.95265-2.96448,1.41675,1.41675,0,1,1,2.30572,1.64694c-1.31756,1.48224-4.44674,4.11734-6.58775,4.11734Z"/>
  </g>
  <g id="cloud-2" data-name="cloud">
    <path class="cls-1" d="M79.96791,222.347h9.41534c5.554,0,13.19005-3.4294,13.19005-13.242,0-7.82371-7.88994-13.45975-14.14618-14.38673a12.47449,12.47449,0,0,0,.25221-2.38048c.04124-8.77485-6.96659-15.52065-16.05511-15.96183-11.8975-.57753-16.562,9.20347-17.60513,13.03628-11.64158-2.3-19.272,4.82063-18.16079,15.39714-.18821-.013-.37643-.0482-.58723-.0482a8.888,8.888,0,0,0-8.7369,8.92682c0,3.61151,2.42479,8.65428,9.51252,8.659H79.96791Z"/>
  </g>
</svg>
