<svg id="Layer_1" data-name="Layer 1" xmlns="http://www.w3.org/2000/svg" viewBox="0 0 240 240"><defs><style>.cls-1{fill:#fff;}.cls-2{fill:#b3b3b3;}.cls-3{fill:red;}.cls-4{fill:#686ce8;}.cls-5{fill:#ef7f00;}.cls-6{fill:#d7e8fb;}.cls-7{fill:#079d76;}</style></defs><path class="cls-1" d="M85.53,180A13.53,13.53,0,0,1,72,166.47V51.74A13.53,13.53,0,0,1,85.53,38.21H151.4A14.92,14.92,0,0,1,162,42.59l19.76,19.83a14.89,14.89,0,0,1,4.34,10.51v93.54A13.53,13.53,0,0,1,172.52,180Z"/><path class="cls-2" d="M172.52,181.5h-87a15,15,0,0,1-15-15V51.74a15,15,0,0,1,15-15H151.4A16.28,16.28,0,0,1,163,41.53l19.76,19.83a16.3,16.3,0,0,1,4.78,11.57v93.54A15.05,15.05,0,0,1,172.52,181.5Zm-87-141.79a12,12,0,0,0-12,12V166.47a12,12,0,0,0,12,12h87a12,12,0,0,0,12-12V72.93a13.3,13.3,0,0,0-3.91-9.45L160.88,43.65a13.28,13.28,0,0,0-9.48-3.94Z"/><path class="cls-3" d="M112.75,128.57a49.25,49.25,0,0,1-3,4q-.72.85-1.41,1.56c-1.83,1.89-3.44,2.94-4.63,2.94a1.48,1.48,0,0,1-1.06-.38,1.93,1.93,0,0,1-.3-.35,1.32,1.32,0,0,1-.27-.75,2,2,0,0,1,0-.42,3,3,0,0,1,.14-.46,6.13,6.13,0,0,1,1.48-2c.18-.18.38-.36.59-.55a41,41,0,0,1,10-5.91C113.78,127,113.26,127.82,112.75,128.57Zm34.78-10.49a23.5,23.5,0,0,1,4.42.34,3,3,0,0,1,2.42,1.7,2.06,2.06,0,0,1,.09.57,3.21,3.21,0,0,1-.05.67c-.23,1.18-1.46,2-3.14,2-.21,0-.43-.06-.66-.08a4.82,4.82,0,0,1-.75-.1,23,23,0,0,1-9-4.54c.69-.1,1.35-.19,2-.25A42.26,42.26,0,0,1,147.53,118.08Zm-13.36-1.41q-2.67.57-5.48,1.3c-1.33.35-2.69.74-4,1.15.73-1.47,1.39-2.93,2-4.32.76-1.84,1.48-3.67,2.13-5.47.58.91,1.18,1.79,1.79,2.63s1.22,1.64,1.84,2.41,1.27,1.52,1.91,2.22l-.16,0ZM125,85a1.33,1.33,0,0,1,.14-.19,1.61,1.61,0,0,1,1.28-.73,1.47,1.47,0,0,1,1,.31c.76.61.95,2,.95,3.15a21.87,21.87,0,0,1-.3,3.41,54,54,0,0,1-1.29,5.91c-.14.54-.3,1.09-.46,1.65a34.42,34.42,0,0,1-1.45-4.82,23.12,23.12,0,0,1-.54-3.92,14,14,0,0,1,.12-2.93A5.51,5.51,0,0,1,125,85Zm35.13,36.14a4.93,4.93,0,0,0-.31-1.35,4.79,4.79,0,0,0-.95-1.56,7,7,0,0,0-1.8-1.38c-2.14-1.19-5.26-1.79-9.34-1.79-1.33,0-2.76.06-4.26.19s-3.08.33-4.73.59a45.76,45.76,0,0,1-5.19-6,55.21,55.21,0,0,1-3.24-5c.48-1.51.9-2.94,1.26-4.3.21-.8.4-1.57.57-2.32.24-1.07.44-2.08.6-3q.17-1,.27-1.92a26.43,26.43,0,0,0,.18-3c0-3.18-.9-6.5-3.21-8.15a5.28,5.28,0,0,0-1-.59,6.27,6.27,0,0,0-2.46-.47,4.79,4.79,0,0,0-2.36.67,5.11,5.11,0,0,0-1.78,1.77,10.91,10.91,0,0,0-1.15,5.5,23.81,23.81,0,0,0,.21,2.7,37.86,37.86,0,0,0,3,10.47c-.3.87-.6,1.74-.91,2.61-.62,1.73-1.27,3.47-2,5.27-.36.91-.73,1.82-1.12,2.76a95.05,95.05,0,0,1-4.54,9.43c-4.1,1.65-11.95,5.22-15.3,9.41a7.13,7.13,0,0,0-1.5,3,4.87,4.87,0,0,0-.07,1.2,4.44,4.44,0,0,0,.74,2.19,5,5,0,0,0,.8.94,5.35,5.35,0,0,0,1.22.83l.34.16a6.12,6.12,0,0,0,1.12.38,7.21,7.21,0,0,0,1.69.19,8.55,8.55,0,0,0,3.62-.87,14.17,14.17,0,0,0,2.37-1.44,27.11,27.11,0,0,0,4.53-4.36,55.33,55.33,0,0,0,4.07-5.57c.95-1.47,1.84-3,2.65-4.4,1.23-.42,2.48-.82,3.73-1.2s2.5-.73,3.75-1.06l.8-.19c2.46-.64,4.85-1.18,7.11-1.58.42.37.85.73,1.27,1.06.84.67,1.67,1.26,2.48,1.79.4.26.8.51,1.2.74a21.88,21.88,0,0,0,11,3.28,8.12,8.12,0,0,0,4.51-1.09,5.23,5.23,0,0,0,.66-.52,4.4,4.4,0,0,0,1.15-1.73,4.7,4.7,0,0,0,.3-1.49A3.45,3.45,0,0,0,160.12,121.13Z"/><rect class="cls-1" x="121.39" y="162" width="103.61" height="35.62" rx="17.81"/><path class="cls-4" d="M207.19,199.12h-68a19.31,19.31,0,1,1,0-38.62h68a19.31,19.31,0,0,1,0,38.62Zm-68-35.62a16.31,16.31,0,1,0,0,32.62h68a16.31,16.31,0,0,0,0-32.62Z"/><path class="cls-1" d="M187.63,189.28v40.88a2.33,2.33,0,0,0,4.08,1.53l11.2-12.8,18.21.11a2.33,2.33,0,0,0,1.56-4.08l-31.07-27.44A2.39,2.39,0,0,0,187.63,189.28Z"/><path class="cls-2" d="M190,234a3.84,3.84,0,0,1-1.36-.25,3.8,3.8,0,0,1-2.49-3.58V189.28a3.9,3.9,0,0,1,6.48-2.93l31.07,27.45a3.79,3.79,0,0,1,1,4.24,3.73,3.73,0,0,1-3.6,2.46l-17.52-.1-10.75,12.28A3.81,3.81,0,0,1,190,234Zm.07-45.62a.89.89,0,0,0-.39.09.88.88,0,0,0-.53.82v40.88a.83.83,0,0,0,1.46.54l11.2-12.79a1.63,1.63,0,0,1,1.14-.52l18.21.11h0a.83.83,0,0,0,.55-1.45L190.62,188.6A.9.9,0,0,0,190,188.37Z"/><g id="star_favorit_sm" data-name="star favorit sm"><path id="star_favorit_sm-2" data-name="star favorit sm" class="cls-1" d="M75.6,20.11,69.39,34.86l-16.1,1.45a1.82,1.82,0,0,0-1,3.19L64.53,49.84,60.79,65.7a1.81,1.81,0,0,0,2.72,2L77.27,59.1,91,67.66a1.82,1.82,0,0,0,2.72-2L90,49.84,102.26,39.5a1.81,1.81,0,0,0-1-3.19l-16.1-1.45L78.94,20.11A1.81,1.81,0,0,0,75.6,20.11Z"/><path class="cls-5" d="M92,69.43a3.34,3.34,0,0,1-1.74-.5l-13-8.06-13,8.06a3.31,3.31,0,0,1-5-3.57l3.53-15L51.32,40.64a3.31,3.31,0,0,1,1.84-5.82l15.2-1.37,5.86-13.92a3.31,3.31,0,0,1,6.1,0l5.86,13.92,15.21,1.37a3.31,3.31,0,0,1,1.84,5.82L91.69,50.4l3.52,15A3.31,3.31,0,0,1,92,69.43ZM77.27,57.34l14.56,9a.27.27,0,0,0,.34,0,.27.27,0,0,0,.12-.32L88.35,49.29l12.94-10.94a.3.3,0,0,0-.17-.54l-17-1.54L77.56,20.69a.28.28,0,0,0-.29-.19.28.28,0,0,0-.28.19L70.43,36.27l-17,1.54a.27.27,0,0,0-.26.21.27.27,0,0,0,.09.33l13,10.94-4,16.76a.28.28,0,0,0,.12.32.27.27,0,0,0,.34,0Z"/></g><path class="cls-2" d="M53,52.65H25.86a1,1,0,1,1,0-2H53a1,1,0,0,1,0,2Z"/><path class="cls-2" d="M51.54,62.73H36.38a1,1,0,0,1,0-2H51.54a1,1,0,0,1,0,2Z"/><path class="cls-2" d="M45.75,32.32H24a1,1,0,0,1,0-2H45.75a1,1,0,0,1,0,2Z"/><path class="cls-2" d="M66.1,22.37H39.51a1,1,0,0,1,0-2H66.1a1,1,0,0,1,0,2Z"/><path class="cls-2" d="M44.28,42.47H18a1,1,0,0,1,0-2H44.28a1,1,0,0,1,0,2Z"/><g id="Line_100" data-name="Line 100"><path class="cls-4" d="M136.86,185.13a1,1,0,0,1-.83-.44,1,1,0,0,1,.27-1.39l11.28-7.57a1,1,0,0,1,.8-.14,1,1,0,0,1,.64.5l3.52,6.59,10.36-7a1,1,0,0,1,.8-.14,1,1,0,0,1,.64.5l3.52,6.59,10.36-7a1,1,0,0,1,.8-.14,1,1,0,0,1,.64.5l3.52,6.59,10.36-7a1.06,1.06,0,0,1,.8-.14,1,1,0,0,1,.64.5l3.52,6.6,10.36-7a1,1,0,0,1,1.11,1.66L198.7,185a1,1,0,0,1-1.44-.36L193.73,178l-10.35,7a1.08,1.08,0,0,1-.8.14,1,1,0,0,1-.64-.5l-3.53-6.6-10.35,7a1,1,0,0,1-1.44-.36l-3.53-6.6-10.35,7a1,1,0,0,1-1.44-.36L147.78,178l-10.36,7A1,1,0,0,1,136.86,185.13Z"/></g><g id="cloud"><path class="cls-6" d="M66.15,155.13H76.41c6,0,14.38-3.74,14.38-14.43,0-8.53-8.6-14.67-15.42-15.68a14.25,14.25,0,0,0,.27-2.6c0-9.56-7.59-16.91-17.5-17.4-13-.62-18,10-19.18,14.21-12.69-2.5-21,5.26-19.8,16.78-.2,0-.41,0-.64,0A9.69,9.69,0,0,0,9,145.69c0,3.94,2.64,9.43,10.37,9.44H66.15Z"/></g><circle class="cls-1" cx="60.41" cy="168.74" r="30.38"/><path class="cls-7" d="M60.41,200.62A31.88,31.88,0,1,1,92.3,168.74,31.91,31.91,0,0,1,60.41,200.62Zm0-60.76A28.88,28.88,0,1,0,89.3,168.74,28.92,28.92,0,0,0,60.41,139.86Z"/><path class="cls-1" d="M39.78,191h2.44a5,5,0,0,0,5-4.9l.44-27.31a12.64,12.64,0,0,1,12.91-12.38l1.68,0a15.44,15.44,0,0,1,14.4,10.79l2.16,6.86a1.13,1.13,0,0,1-1.1,1.47l-2,0a1.21,1.21,0,0,0-1.24,1.18l-.08,5.84a3.86,3.86,0,0,1-3.94,3.81l-4-.08a3.49,3.49,0,0,0-3.56,3.42l-.06,2.83a8,8,0,0,0,7.81,8.13H81.31"/><path class="cls-7" d="M42.22,192.54H39.78a1.5,1.5,0,0,1,0-3h2.44a3.5,3.5,0,0,0,3.48-3.42l.44-27.31a14.17,14.17,0,0,1,14.14-13.87h.3l1.68,0a16.93,16.93,0,0,1,15.8,11.84l2.16,6.86a2.61,2.61,0,0,1-.4,2.37,2.73,2.73,0,0,1-2.16,1l-1.76,0-.08,5.54a5.34,5.34,0,0,1-5.36,5.29h-.11l-4-.08a2,2,0,0,0-2,1.95l-.06,2.83a6.48,6.48,0,0,0,6.34,6.6H81.31a1.5,1.5,0,0,1,0,3H70.57a9.49,9.49,0,0,1-9.31-9.66l.06-2.83a5,5,0,0,1,5.1-4.89l4,.08a2.36,2.36,0,0,0,1.69-.66,2.33,2.33,0,0,0,.72-1.67l.08-5.84a2.73,2.73,0,0,1,.83-1.91,2.7,2.7,0,0,1,1.88-.75h.06l1.54,0-2-6.37a13.92,13.92,0,0,0-13-9.74l-1.68,0h-.23a11.17,11.17,0,0,0-11.15,10.93l-.44,27.3A6.51,6.51,0,0,1,42.22,192.54Z"/><g id="cloud-2" data-name="cloud"><path class="cls-6" d="M201.3,72l11.85.15c7,.08,16.65-4.13,16.8-16.48.12-9.85-9.73-17.06-17.59-18.32a15.85,15.85,0,0,0,.35-3c.18-11-8.54-19.64-20-20.33-15-.91-21,11.34-22.36,16.14-14.62-3.06-24.33,5.79-23.09,19.12-.24,0-.47-.07-.74-.07a11.18,11.18,0,0,0-11.13,11.1c0,4.55,2.92,10.93,11.85,11L164,71.6Z"/></g></svg>