<svg viewBox="0 0 240 120" fill="none" xmlns="http://www.w3.org/2000/svg">
<path d="M168.625 44.6597C169.861 49.4276 176.796 61.9147 174.394 68.751L171.395 68.3624C173.923 65.1417 169.055 51.3328 168.443 45.7606L168.625 44.6597Z" fill="url(#paint0_linear_9563_2512)"/>
<path d="M179.091 43.71C177.388 48.933 175.161 62.9497 176.877 70.8062L179.903 70.6358C177.703 66.8115 178.003 51.1345 179.163 44.9572L179.091 43.71Z" fill="url(#paint1_linear_9563_2512)"/>
<path d="M182.053 52.8739C180.269 56.5527 178.228 66.5203 180.555 72.2271L184.093 72.2272C181.361 69.3941 181.079 58.1573 182.187 53.7717L182.053 52.8739Z" fill="url(#paint2_linear_9563_2512)"/>
<path d="M184.957 54.8563C182.922 58.5129 180.68 68.4628 183.496 74.2127L187.643 74.2668C184.397 71.3882 183.895 60.132 185.128 55.7574L184.957 54.8563Z" fill="url(#paint3_linear_9563_2512)"/>
<path d="M192.66 48.7345C189.976 53.4452 185.969 66.5255 187.764 74.4118L191.901 74.814C189.166 70.7197 190.662 55.6801 192.672 49.9488L192.66 48.7345Z" fill="url(#paint4_linear_9563_2512)"/>
<path d="M197.054 59.5893C195.202 62.8399 192.437 71.8659 193.676 77.3079L196.531 77.5854C194.644 74.7601 195.676 64.3821 197.062 60.4272L197.054 59.5893Z" fill="url(#paint5_linear_9563_2512)"/>
<path d="M199.057 67.2363C197.929 69.2175 196.243 74.719 196.998 78.0359L198.738 78.2051C197.588 76.4831 198.217 70.1575 199.062 67.747L199.057 67.2363Z" fill="url(#paint6_linear_9563_2512)"/>
<path d="M200.443 10.1897C199.977 7.47026 196.171 8.32706 195.084 12.0551C195.643 15.9064 193.35 27.7959 192.133 33.2592C194.307 32.7155 199.666 27.8225 196.637 27.8225C201.608 24.3275 198.579 21.9198 194.385 24.7935L196.016 20.2112C198.191 18.8132 198.579 16.4055 196.016 16.5608C197.751 14.3081 200.909 12.9092 200.443 10.1897Z" fill="url(#paint7_linear_9563_2512)"/>
<path d="M200.443 10.1897C199.977 7.47026 196.171 8.32706 195.084 12.0551C195.643 15.9064 193.35 27.7959 192.133 33.2592C194.307 32.7155 199.666 27.8225 196.637 27.8225C201.608 24.3275 198.579 21.9198 194.385 24.7935L196.016 20.2112C198.191 18.8132 198.579 16.4055 196.016 16.5608C197.751 14.3081 200.909 12.9092 200.443 10.1897Z" fill="url(#paint8_linear_9563_2512)"/>
<path d="M200.443 10.1897C199.977 7.47026 196.171 8.32706 195.084 12.0551C195.643 15.9064 193.35 27.7959 192.133 33.2592C194.307 32.7155 199.666 27.8225 196.637 27.8225C201.608 24.3275 198.579 21.9198 194.385 24.7935L196.016 20.2112C198.191 18.8132 198.579 16.4055 196.016 16.5608C197.751 14.3081 200.909 12.9092 200.443 10.1897Z" fill="url(#paint9_radial_9563_2512)"/>
<path d="M188.716 36.9839C188.25 34.8092 189.415 31.5472 191.123 34.1102V36.4402C191.744 35.0422 195.162 35.2752 194.385 37.8382C194.955 37.5534 196.094 37.3877 196.094 39.0031C195.973 43.6178 191.935 45.9876 189.794 46.6487C190.923 46.4899 194.273 49.2281 188.716 51.8957L187.862 48.0901C184.211 46.5368 183.512 39.1585 187.316 41.5661C185.219 38.7701 186.928 34.1102 188.716 36.9839Z" fill="url(#paint10_linear_9563_2512)"/>
<path d="M188.716 36.9839C188.25 34.8092 189.415 31.5472 191.123 34.1102V36.4402C191.744 35.0422 195.162 35.2752 194.385 37.8382C194.955 37.5534 196.094 37.3877 196.094 39.0031C195.973 43.6178 191.935 45.9876 189.794 46.6487C190.923 46.4899 194.273 49.2281 188.716 51.8957L187.862 48.0901C184.211 46.5368 183.512 39.1585 187.316 41.5661C185.219 38.7701 186.928 34.1102 188.716 36.9839Z" fill="url(#paint11_linear_9563_2512)"/>
<path d="M188.716 36.9839C188.25 34.8092 189.415 31.5472 191.123 34.1102V36.4402C191.744 35.0422 195.162 35.2752 194.385 37.8382C194.955 37.5534 196.094 37.3877 196.094 39.0031C195.973 43.6178 191.935 45.9876 189.794 46.6487C190.923 46.4899 194.273 49.2281 188.716 51.8957L187.862 48.0901C184.211 46.5368 183.512 39.1585 187.316 41.5661C185.219 38.7701 186.928 34.1102 188.716 36.9839Z" fill="url(#paint12_radial_9563_2512)"/>
<path d="M193.839 15.7036C193.451 14.0726 193.171 11.0591 195.16 12.0532C196.216 19.4472 193.217 29.1139 191.586 33.0229C190.085 31.3402 187.252 27.2601 187.936 24.402C188.79 20.8293 191.897 25.8 193.295 26.732C191.819 24.868 191.043 18.81 193.295 19.8197C192.13 19.1207 192.441 14.3832 193.839 15.7036Z" fill="url(#paint13_linear_9563_2512)"/>
<path d="M193.839 15.7036C193.451 14.0726 193.171 11.0591 195.16 12.0532C196.216 19.4472 193.217 29.1139 191.586 33.0229C190.085 31.3402 187.252 27.2601 187.936 24.402C188.79 20.8293 191.897 25.8 193.295 26.732C191.819 24.868 191.043 18.81 193.295 19.8197C192.13 19.1207 192.441 14.3832 193.839 15.7036Z" fill="url(#paint14_linear_9563_2512)"/>
<path d="M193.839 15.7036C193.451 14.0726 193.171 11.0591 195.16 12.0532C196.216 19.4472 193.217 29.1139 191.586 33.0229C190.085 31.3402 187.252 27.2601 187.936 24.402C188.79 20.8293 191.897 25.8 193.295 26.732C191.819 24.868 191.043 18.81 193.295 19.8197C192.13 19.1207 192.441 14.3832 193.839 15.7036Z" fill="url(#paint15_radial_9563_2512)"/>
<path d="M174.115 21.9971C170.154 22.0748 170.076 15.9391 174.115 17.3371C180.561 21.9971 176.211 33.9568 174.115 47.4707C171.63 49.024 168.911 44.4417 171.629 42.733C168.523 41.102 170.93 34.1121 174.115 34.8111C173.027 34.4228 173.649 31.7821 175.202 32.2481C175.28 31.5491 171.008 28.2871 174.736 27.2775C173.105 27.2775 171.707 23.2388 174.115 21.9971Z" fill="url(#paint16_linear_9563_2512)"/>
<path d="M174.115 21.9971C170.154 22.0748 170.076 15.9391 174.115 17.3371C180.561 21.9971 176.211 33.9568 174.115 47.4707C171.63 49.024 168.911 44.4417 171.629 42.733C168.523 41.102 170.93 34.1121 174.115 34.8111C173.027 34.4228 173.649 31.7821 175.202 32.2481C175.28 31.5491 171.008 28.2871 174.736 27.2775C173.105 27.2775 171.707 23.2388 174.115 21.9971Z" fill="url(#paint17_linear_9563_2512)"/>
<path d="M174.115 21.9971C170.154 22.0748 170.076 15.9391 174.115 17.3371C180.561 21.9971 176.211 33.9568 174.115 47.4707C171.63 49.024 168.911 44.4417 171.629 42.733C168.523 41.102 170.93 34.1121 174.115 34.8111C173.027 34.4228 173.649 31.7821 175.202 32.2481C175.28 31.5491 171.008 28.2871 174.736 27.2775C173.105 27.2775 171.707 23.2388 174.115 21.9971Z" fill="url(#paint18_radial_9563_2512)"/>
<path d="M177.377 21.84C182.58 17.1024 176.445 13.6074 174.969 17.646C180.173 21.9951 172.871 44.4411 174.968 47.5478C178.386 47.5478 179.784 42.2665 175.668 41.7228C177.687 41.2568 179.318 38.6938 176.367 37.9948C180.095 37.2958 181.26 31.3932 177.377 31.3932C179.784 30.6165 180.561 26.1896 178.386 26.1896C179.94 25.5682 179.629 21.84 177.377 21.84Z" fill="url(#paint19_linear_9563_2512)"/>
<path d="M177.377 21.84C182.58 17.1024 176.445 13.6074 174.969 17.646C180.173 21.9951 172.871 44.4411 174.968 47.5478C178.386 47.5478 179.784 42.2665 175.668 41.7228C177.687 41.2568 179.318 38.6938 176.367 37.9948C180.095 37.2958 181.26 31.3932 177.377 31.3932C179.784 30.6165 180.561 26.1896 178.386 26.1896C179.94 25.5682 179.629 21.84 177.377 21.84Z" fill="url(#paint20_linear_9563_2512)"/>
<path d="M177.377 21.84C182.58 17.1024 176.445 13.6074 174.969 17.646C180.173 21.9951 172.871 44.4411 174.968 47.5478C178.386 47.5478 179.784 42.2665 175.668 41.7228C177.687 41.2568 179.318 38.6938 176.367 37.9948C180.095 37.2958 181.26 31.3932 177.377 31.3932C179.784 30.6165 180.561 26.1896 178.386 26.1896C179.94 25.5682 179.629 21.84 177.377 21.84Z" fill="url(#paint21_radial_9563_2512)"/>
<path d="M174.426 69.2152C169.688 38.9254 182.736 24.6348 173.96 17.3342L174.426 16.8682C183.591 24.2465 171.63 38.304 176.134 69.2152H174.426Z" fill="url(#paint22_linear_9563_2512)"/>
<path d="M187.86 73.7209C183.123 38.3528 198.889 23.7815 194.772 11.9767L195.238 11.4326C199.511 24.1699 184.567 37.6273 189.072 73.7209H187.86Z" fill="url(#paint23_linear_9563_2512)"/>
<path d="M30.2232 83.0406C30.2232 81.7426 32.3868 81.4537 120.223 81.4541C208.06 81.4545 220.175 81.9734 220.175 84.0507C220.175 86.6472 209.646 87.368 209.935 89.0987C210.223 90.8295 222.338 91.2622 222.194 95.7333C222.05 100.205 177.194 100.349 177.338 102.224C177.483 104.099 187.29 103.955 187.435 105.974C187.508 107 181.377 109.868 132.338 109.868C83.3 109.868 79.8314 105.161 79.4058 103.955C78.5404 101.503 89.0692 102.224 88.3481 100.349C87.6269 98.4737 21.7136 97.8968 19.1174 92.1276C16.5213 86.3583 49.2617 89.6757 49.2617 87.368C49.2617 85.0603 30.2232 84.3387 30.2232 83.0406Z" fill="url(#paint24_radial_9563_2512)"/>
<path d="M30.2232 83.0406C30.2232 81.7426 32.3868 81.4537 120.223 81.4541C208.06 81.4545 220.175 81.9734 220.175 84.0507C220.175 86.6472 209.646 87.368 209.935 89.0987C210.223 90.8295 222.338 91.2622 222.194 95.7333C222.05 100.205 177.194 100.349 177.338 102.224C177.483 104.099 187.29 103.955 187.435 105.974C187.508 107 181.377 109.868 132.338 109.868C83.3 109.868 79.8314 105.161 79.4058 103.955C78.5404 101.503 89.0692 102.224 88.3481 100.349C87.6269 98.4737 21.7136 97.8968 19.1174 92.1276C16.5213 86.3583 49.2617 89.6757 49.2617 87.368C49.2617 85.0603 30.2232 84.3387 30.2232 83.0406Z" fill="url(#paint25_radial_9563_2512)"/>
<path d="M35.2348 45.6756C34.6574 45.5264 33.5318 42.6457 34.2304 41.7422C34.5892 41.2782 36.563 41.6492 36.2672 42.1345C35.2349 44.2884 35.8122 45.8248 35.2348 45.6756Z" fill="url(#paint26_linear_9563_2512)"/>
<path d="M35.2348 45.6756C34.6574 45.5264 33.5318 42.6457 34.2304 41.7422C34.5892 41.2782 36.563 41.6492 36.2672 42.1345C35.2349 44.2884 35.8122 45.8248 35.2348 45.6756Z" fill="url(#paint27_radial_9563_2512)"/>
<path d="M39.4242 45.6756C38.8468 45.5264 37.7212 42.6457 38.4199 41.7422C38.7786 41.2782 40.7524 41.6492 40.4566 42.1345C39.4244 44.2884 40.0017 45.8248 39.4242 45.6756Z" fill="url(#paint28_linear_9563_2512)"/>
<path d="M39.4242 45.6756C38.8468 45.5264 37.7212 42.6457 38.4199 41.7422C38.7786 41.2782 40.7524 41.6492 40.4566 42.1345C39.4244 44.2884 40.0017 45.8248 39.4242 45.6756Z" fill="url(#paint29_radial_9563_2512)"/>
<path d="M32.8966 75.6694C32.2859 77.3158 31.6061 81.1503 33.773 83.3172H35.5257C33.4863 82.3612 32.9898 77.9133 33.096 76.0279L32.8966 75.6694Z" fill="url(#paint30_linear_9563_2512)"/>
<path d="M37.1384 61.8107C35.6419 66.2807 33.3757 76.8231 36.2827 83.2323L39.5886 83.2323C36.5277 80.2129 36.6181 68.0668 37.358 62.8429L37.1384 61.8107Z" fill="url(#paint31_linear_9563_2512)"/>
<path d="M40.1529 64.8164C38.8661 68.66 37.8427 77.7251 40.3425 83.2361L42.2601 83.2361C39.6279 80.6398 39.7056 70.1958 40.3418 65.7039L40.1529 64.8164Z" fill="url(#paint32_linear_9563_2512)"/>
<path d="M52.3744 65.0864C53.6424 68.8741 55.5627 77.8071 53.0995 83.2379H50.2982C52.8919 80.6794 52.8153 70.3875 52.1883 65.961L52.3744 65.0864Z" fill="url(#paint33_linear_9563_2512)"/>
<path d="M50.0346 70.6099C50.836 73.2448 52.0497 79.4591 50.4929 83.2371L48.7224 83.2371C50.3617 81.4573 50.3132 74.2976 49.917 71.2183L50.0346 70.6099Z" fill="url(#paint34_linear_9563_2512)"/>
<path d="M55.7236 72.6426C56.4597 74.8536 57.5743 80.0682 56.1445 83.2384L53.6893 83.2384C56.1445 80.9938 55.9795 75.7371 55.6156 73.1531L55.7236 72.6426Z" fill="url(#paint35_linear_9563_2512)"/>
<path d="M47.2631 73.0396C48.2828 76.0258 48.1007 80.6509 46.2711 83.2371L44.6523 83.2371C46.7896 80.833 47.4433 76.1437 47.081 73.5858L47.2631 73.0396Z" fill="url(#paint36_linear_9563_2512)"/>
<path d="M40.463 54.9567C43.6113 62.5244 46.0428 76.7393 42.7342 83.1918L39.0591 83.2316C42.4982 80.1714 42.9931 63.2907 40.1859 55.7927L40.463 54.9567Z" fill="url(#paint37_linear_9563_2512)"/>
<path d="M45.592 38.9185C45.0467 38.9835 43.7418 41.101 44.2679 42.0115C44.5381 42.479 46.3077 42.756 46.0976 42.2767C45.4212 40.1843 46.1373 38.8535 45.592 38.9185Z" fill="url(#paint38_linear_9563_2512)"/>
<path d="M45.592 38.9185C45.0467 38.9835 43.7418 41.101 44.2679 42.0115C44.5381 42.479 46.3077 42.756 46.0976 42.2767C45.4212 40.1843 46.1373 38.8535 45.592 38.9185Z" fill="url(#paint39_radial_9563_2512)"/>
<path d="M66.5112 84.0708C67.0881 84.0708 68.386 84.215 70.8377 84.0708C69.1311 85.3448 65.5557 87.965 64.3445 87.6766C63.0466 86.4506 65.9344 84.0708 66.5112 84.0708Z" fill="url(#paint40_linear_9563_2512)"/>
<path d="M66.5112 84.0708C67.0881 84.0708 68.386 84.215 70.8377 84.0708C69.1311 85.3448 65.5557 87.965 64.3445 87.6766C63.0466 86.4506 65.9344 84.0708 66.5112 84.0708Z" fill="url(#paint41_radial_9563_2512)"/>
<path d="M66.5112 84.0708C67.0881 84.0708 68.386 84.215 70.8377 84.0708C69.1311 85.3448 65.5557 87.965 64.3445 87.6766C63.0466 86.4506 65.9344 84.0708 66.5112 84.0708Z" fill="url(#paint42_radial_9563_2512)"/>
<path d="M74.7284 81.5467C75.4496 79.5996 74.0072 70.5131 78.4063 68.3496L88.214 76.3544C80.8582 79.1669 85.3294 87.0996 79.2717 88.0371H66.6515C65.8438 88.3256 64.6322 88.1573 64.1274 88.0371C64.2717 87.2438 66.4351 85.0804 67.6611 85.0083C68.8871 84.9361 74.0072 83.4938 74.7284 81.5467Z" fill="url(#paint43_linear_9563_2512)"/>
<path d="M74.7284 81.5467C75.4496 79.5996 74.0072 70.5131 78.4063 68.3496L88.214 76.3544C80.8582 79.1669 85.3294 87.0996 79.2717 88.0371H66.6515C65.8438 88.3256 64.6322 88.1573 64.1274 88.0371C64.2717 87.2438 66.4351 85.0804 67.6611 85.0083C68.8871 84.9361 74.0072 83.4938 74.7284 81.5467Z" fill="url(#paint44_radial_9563_2512)"/>
<path d="M74.7284 81.5467C75.4496 79.5996 74.0072 70.5131 78.4063 68.3496L88.214 76.3544C80.8582 79.1669 85.3294 87.0996 79.2717 88.0371H66.6515C65.8438 88.3256 64.6322 88.1573 64.1274 88.0371C64.2717 87.2438 66.4351 85.0804 67.6611 85.0083C68.8871 84.9361 74.0072 83.4938 74.7284 81.5467Z" fill="url(#paint45_radial_9563_2512)"/>
<path d="M74.7284 81.5467C75.4496 79.5996 74.0072 70.5131 78.4063 68.3496L88.214 76.3544C80.8582 79.1669 85.3294 87.0996 79.2717 88.0371H66.6515C65.8438 88.3256 64.6322 88.1573 64.1274 88.0371C64.2717 87.2438 66.4351 85.0804 67.6611 85.0083C68.8871 84.9361 74.0072 83.4938 74.7284 81.5467Z" fill="url(#paint46_radial_9563_2512)"/>
<path d="M74.7284 81.5467C75.4496 79.5996 74.0072 70.5131 78.4063 68.3496L88.214 76.3544C80.8582 79.1669 85.3294 87.0996 79.2717 88.0371H66.6515C65.8438 88.3256 64.6322 88.1573 64.1274 88.0371C64.2717 87.2438 66.4351 85.0804 67.6611 85.0083C68.8871 84.9361 74.0072 83.4938 74.7284 81.5467Z" fill="url(#paint47_radial_9563_2512)"/>
<path d="M64.0567 29.2628C66.2197 29.4078 68.0959 31.7149 72.2778 32.2917C76.4604 32.8689 82.23 35.3219 84.3932 37.7724C86.5575 40.2234 99.5367 46.0478 109.634 47.9948C119.733 49.9424 168.48 61.7149 183.912 67.484C199.344 73.2532 207.711 81.9072 207.278 88.2532C206.845 94.599 195.739 99.7915 183.912 101.234C172.737 102.597 164.874 106.138 165.018 109.888H164.009C163.364 106.957 163.539 104.174 164.572 101.761C165.554 98.2519 167.34 96.6498 168.511 96.2896C169.749 95.909 170.701 94.1004 171.747 93.9098C172.794 93.7194 173.175 94.7661 175.078 93.9098C176.981 93.0535 177.62 91.3755 178.725 91.3091C179.831 91.244 180.418 92.4784 181.199 92.4134C181.979 92.3476 182.239 91.3095 182.889 91.3091C183.539 91.3091 184.19 91.7627 185.035 91.3091C185.88 90.854 186.402 90.0733 187.442 90.1372C188.482 90.2023 189.005 88.6395 190.241 88.7039C191.477 88.769 192.518 86.4302 194.275 86.9506C194.281 86.9524 194.287 86.9534 194.293 86.9551H194.297C189.033 76.6428 146.124 93.8775 109.634 85.4407C78.434 78.2266 76.8199 61.6433 62.5423 57.7484C48.2645 53.8545 39.862 51.9074 34.3452 51.9071C31.6057 50.6093 28.109 47.5091 28.1072 46.7869C28.1072 46.2099 28.6241 45.2724 29.1528 44.8398L27.5663 43.2532C25.9798 41.0898 30.3067 37.9167 31.6048 37.7724C32.9042 37.6291 37.232 39.0702 45.3067 37.7724C53.3832 36.4738 61.8933 29.1186 64.0567 29.2628Z" fill="url(#paint48_linear_9563_2512)"/>
<path d="M64.0567 29.2628C66.2197 29.4078 68.0959 31.7149 72.2778 32.2917C76.4604 32.8689 82.23 35.3219 84.3932 37.7724C86.5575 40.2234 99.5367 46.0478 109.634 47.9948C119.733 49.9424 168.48 61.7149 183.912 67.484C199.344 73.2532 207.711 81.9072 207.278 88.2532C206.845 94.599 195.739 99.7915 183.912 101.234C172.737 102.597 164.874 106.138 165.018 109.888H164.009C163.364 106.957 163.539 104.174 164.572 101.761C165.554 98.2519 167.34 96.6498 168.511 96.2896C169.749 95.909 170.701 94.1004 171.747 93.9098C172.794 93.7194 173.175 94.7661 175.078 93.9098C176.981 93.0535 177.62 91.3755 178.725 91.3091C179.831 91.244 180.418 92.4784 181.199 92.4134C181.979 92.3476 182.239 91.3095 182.889 91.3091C183.539 91.3091 184.19 91.7627 185.035 91.3091C185.88 90.854 186.402 90.0733 187.442 90.1372C188.482 90.2023 189.005 88.6395 190.241 88.7039C191.477 88.769 192.518 86.4302 194.275 86.9506C194.281 86.9524 194.287 86.9534 194.293 86.9551H194.297C189.033 76.6428 146.124 93.8775 109.634 85.4407C78.434 78.2266 76.8199 61.6433 62.5423 57.7484C48.2645 53.8545 39.862 51.9074 34.3452 51.9071C31.6057 50.6093 28.109 47.5091 28.1072 46.7869C28.1072 46.2099 28.6241 45.2724 29.1528 44.8398L27.5663 43.2532C25.9798 41.0898 30.3067 37.9167 31.6048 37.7724C32.9042 37.6291 37.232 39.0702 45.3067 37.7724C53.3832 36.4738 61.8933 29.1186 64.0567 29.2628Z" fill="url(#paint49_radial_9563_2512)"/>
<path d="M64.0567 29.2628C66.2197 29.4078 68.0959 31.7149 72.2778 32.2917C76.4604 32.8689 82.23 35.3219 84.3932 37.7724C86.5575 40.2234 99.5367 46.0478 109.634 47.9948C119.733 49.9424 168.48 61.7149 183.912 67.484C199.344 73.2532 207.711 81.9072 207.278 88.2532C206.845 94.599 195.739 99.7915 183.912 101.234C172.737 102.597 164.874 106.138 165.018 109.888H164.009C163.364 106.957 163.539 104.174 164.572 101.761C165.554 98.2519 167.34 96.6498 168.511 96.2896C169.749 95.909 170.701 94.1004 171.747 93.9098C172.794 93.7194 173.175 94.7661 175.078 93.9098C176.981 93.0535 177.62 91.3755 178.725 91.3091C179.831 91.244 180.418 92.4784 181.199 92.4134C181.979 92.3476 182.239 91.3095 182.889 91.3091C183.539 91.3091 184.19 91.7627 185.035 91.3091C185.88 90.854 186.402 90.0733 187.442 90.1372C188.482 90.2023 189.005 88.6395 190.241 88.7039C191.477 88.769 192.518 86.4302 194.275 86.9506C194.281 86.9524 194.287 86.9534 194.293 86.9551H194.297C189.033 76.6428 146.124 93.8775 109.634 85.4407C78.434 78.2266 76.8199 61.6433 62.5423 57.7484C48.2645 53.8545 39.862 51.9074 34.3452 51.9071C31.6057 50.6093 28.109 47.5091 28.1072 46.7869C28.1072 46.2099 28.6241 45.2724 29.1528 44.8398L27.5663 43.2532C25.9798 41.0898 30.3067 37.9167 31.6048 37.7724C32.9042 37.6291 37.232 39.0702 45.3067 37.7724C53.3832 36.4738 61.8933 29.1186 64.0567 29.2628Z" fill="url(#paint50_radial_9563_2512)"/>
<path d="M64.0567 29.2628C66.2197 29.4078 68.0959 31.7149 72.2778 32.2917C76.4604 32.8689 82.23 35.3219 84.3932 37.7724C86.5575 40.2234 99.5367 46.0478 109.634 47.9948C119.733 49.9424 168.48 61.7149 183.912 67.484C199.344 73.2532 207.711 81.9072 207.278 88.2532C206.845 94.599 195.739 99.7915 183.912 101.234C172.737 102.597 164.874 106.138 165.018 109.888H164.009C163.364 106.957 163.539 104.174 164.572 101.761C165.554 98.2519 167.34 96.6498 168.511 96.2896C169.749 95.909 170.701 94.1004 171.747 93.9098C172.794 93.7194 173.175 94.7661 175.078 93.9098C176.981 93.0535 177.62 91.3755 178.725 91.3091C179.831 91.244 180.418 92.4784 181.199 92.4134C181.979 92.3476 182.239 91.3095 182.889 91.3091C183.539 91.3091 184.19 91.7627 185.035 91.3091C185.88 90.854 186.402 90.0733 187.442 90.1372C188.482 90.2023 189.005 88.6395 190.241 88.7039C191.477 88.769 192.518 86.4302 194.275 86.9506C194.281 86.9524 194.287 86.9534 194.293 86.9551H194.297C189.033 76.6428 146.124 93.8775 109.634 85.4407C78.434 78.2266 76.8199 61.6433 62.5423 57.7484C48.2645 53.8545 39.862 51.9074 34.3452 51.9071C31.6057 50.6093 28.109 47.5091 28.1072 46.7869C28.1072 46.2099 28.6241 45.2724 29.1528 44.8398L27.5663 43.2532C25.9798 41.0898 30.3067 37.9167 31.6048 37.7724C32.9042 37.6291 37.232 39.0702 45.3067 37.7724C53.3832 36.4738 61.8933 29.1186 64.0567 29.2628Z" fill="url(#paint51_radial_9563_2512)"/>
<path d="M64.0567 29.2628C66.2197 29.4078 68.0959 31.7149 72.2778 32.2917C76.4604 32.8689 82.23 35.3219 84.3932 37.7724C86.5575 40.2234 99.5367 46.0478 109.634 47.9948C119.733 49.9424 168.48 61.7149 183.912 67.484C199.344 73.2532 207.711 81.9072 207.278 88.2532C206.845 94.599 195.739 99.7915 183.912 101.234C172.737 102.597 164.874 106.138 165.018 109.888H164.009C163.364 106.957 163.539 104.174 164.572 101.761C165.554 98.2519 167.34 96.6498 168.511 96.2896C169.749 95.909 170.701 94.1004 171.747 93.9098C172.794 93.7194 173.175 94.7661 175.078 93.9098C176.981 93.0535 177.62 91.3755 178.725 91.3091C179.831 91.244 180.418 92.4784 181.199 92.4134C181.979 92.3476 182.239 91.3095 182.889 91.3091C183.539 91.3091 184.19 91.7627 185.035 91.3091C185.88 90.854 186.402 90.0733 187.442 90.1372C188.482 90.2023 189.005 88.6395 190.241 88.7039C191.477 88.769 192.518 86.4302 194.275 86.9506C194.281 86.9524 194.287 86.9534 194.293 86.9551H194.297C189.033 76.6428 146.124 93.8775 109.634 85.4407C78.434 78.2266 76.8199 61.6433 62.5423 57.7484C48.2645 53.8545 39.862 51.9074 34.3452 51.9071C31.6057 50.6093 28.109 47.5091 28.1072 46.7869C28.1072 46.2099 28.6241 45.2724 29.1528 44.8398L27.5663 43.2532C25.9798 41.0898 30.3067 37.9167 31.6048 37.7724C32.9042 37.6291 37.232 39.0702 45.3067 37.7724C53.3832 36.4738 61.8933 29.1186 64.0567 29.2628Z" fill="url(#paint52_radial_9563_2512)"/>
<path d="M64.0567 29.2628C66.2197 29.4078 68.0959 31.7149 72.2778 32.2917C76.4604 32.8689 82.23 35.3219 84.3932 37.7724C86.5575 40.2234 99.5367 46.0478 109.634 47.9948C119.733 49.9424 168.48 61.7149 183.912 67.484C199.344 73.2532 207.711 81.9072 207.278 88.2532C206.845 94.599 195.739 99.7915 183.912 101.234C172.737 102.597 164.874 106.138 165.018 109.888H164.009C163.364 106.957 163.539 104.174 164.572 101.761C165.554 98.2519 167.34 96.6498 168.511 96.2896C169.749 95.909 170.701 94.1004 171.747 93.9098C172.794 93.7194 173.175 94.7661 175.078 93.9098C176.981 93.0535 177.62 91.3755 178.725 91.3091C179.831 91.244 180.418 92.4784 181.199 92.4134C181.979 92.3476 182.239 91.3095 182.889 91.3091C183.539 91.3091 184.19 91.7627 185.035 91.3091C185.88 90.854 186.402 90.0733 187.442 90.1372C188.482 90.2023 189.005 88.6395 190.241 88.7039C191.477 88.769 192.518 86.4302 194.275 86.9506C194.281 86.9524 194.287 86.9534 194.293 86.9551H194.297C189.033 76.6428 146.124 93.8775 109.634 85.4407C78.434 78.2266 76.8199 61.6433 62.5423 57.7484C48.2645 53.8545 39.862 51.9074 34.3452 51.9071C31.6057 50.6093 28.109 47.5091 28.1072 46.7869C28.1072 46.2099 28.6241 45.2724 29.1528 44.8398L27.5663 43.2532C25.9798 41.0898 30.3067 37.9167 31.6048 37.7724C32.9042 37.6291 37.232 39.0702 45.3067 37.7724C53.3832 36.4738 61.8933 29.1186 64.0567 29.2628Z" fill="url(#paint53_radial_9563_2512)"/>
<path d="M64.0567 29.2628C66.2197 29.4078 68.0959 31.7149 72.2778 32.2917C76.4604 32.8689 82.23 35.3219 84.3932 37.7724C86.5575 40.2234 99.5367 46.0478 109.634 47.9948C119.733 49.9424 168.48 61.7149 183.912 67.484C199.344 73.2532 207.711 81.9072 207.278 88.2532C206.845 94.599 195.739 99.7915 183.912 101.234C172.737 102.597 164.874 106.138 165.018 109.888H164.009C163.364 106.957 163.539 104.174 164.572 101.761C165.554 98.2519 167.34 96.6498 168.511 96.2896C169.749 95.909 170.701 94.1004 171.747 93.9098C172.794 93.7194 173.175 94.7661 175.078 93.9098C176.981 93.0535 177.62 91.3755 178.725 91.3091C179.831 91.244 180.418 92.4784 181.199 92.4134C181.979 92.3476 182.239 91.3095 182.889 91.3091C183.539 91.3091 184.19 91.7627 185.035 91.3091C185.88 90.854 186.402 90.0733 187.442 90.1372C188.482 90.2023 189.005 88.6395 190.241 88.7039C191.477 88.769 192.518 86.4302 194.275 86.9506C194.281 86.9524 194.287 86.9534 194.293 86.9551H194.297C189.033 76.6428 146.124 93.8775 109.634 85.4407C78.434 78.2266 76.8199 61.6433 62.5423 57.7484C48.2645 53.8545 39.862 51.9074 34.3452 51.9071C31.6057 50.6093 28.109 47.5091 28.1072 46.7869C28.1072 46.2099 28.6241 45.2724 29.1528 44.8398L27.5663 43.2532C25.9798 41.0898 30.3067 37.9167 31.6048 37.7724C32.9042 37.6291 37.232 39.0702 45.3067 37.7724C53.3832 36.4738 61.8933 29.1186 64.0567 29.2628Z" fill="url(#paint54_radial_9563_2512)"/>
<path d="M27.5042 43.1387C30.1983 44.7618 37.6433 44.5323 41.1926 44.1889C43.3799 45.1984 48.6493 47.1308 52.2262 46.785C56.6968 46.3524 60.592 44.334 64.4137 45.559C68.2358 46.785 73.8608 46.4965 75.3752 44.1889C75.3784 44.2081 75.3769 44.2281 75.3797 44.2474C75.389 44.2359 75.4022 44.2275 75.4113 44.2159C77.0358 60.7127 105.783 77.1598 135.758 79.3857C165.734 81.6113 196.745 78.1034 194.668 86.8586C194.552 86.8976 194.424 86.9295 194.289 86.9713C194.291 86.9668 194.296 86.962 194.298 86.9578C189.034 76.6456 146.124 93.8792 109.635 85.4434C78.4362 78.2295 76.8193 61.6468 62.5432 57.7511C57.728 56.4378 53.5797 55.3492 49.9861 54.4788C43.3593 52.8732 38.6164 52.0231 35.0357 51.9232C34.8008 51.9167 34.5711 51.9097 34.3461 51.9097C33.8437 51.6717 33.3224 51.3607 32.7956 51.0263C32.199 50.6489 31.599 50.2341 31.0423 49.8048C30.9795 49.7563 30.9193 49.7048 30.8575 49.6561C30.5825 49.4398 30.3171 49.2246 30.0688 49.0116C30.0541 48.999 30.0382 48.988 30.0237 48.9755H30.0282C28.9032 48.0056 28.1081 47.1281 28.1081 46.785C28.1086 46.208 28.6253 45.2704 29.1538 44.8379L27.5673 43.2514C27.5414 43.2161 27.5269 43.1745 27.5042 43.1387Z" fill="url(#paint55_radial_9563_2512)"/>
<path d="M27.5042 43.1387C30.1983 44.7618 37.6433 44.5323 41.1926 44.1889C43.3799 45.1984 48.6493 47.1308 52.2262 46.785C56.6968 46.3524 60.592 44.334 64.4137 45.559C68.2358 46.785 73.8608 46.4965 75.3752 44.1889C75.3784 44.2081 75.3769 44.2281 75.3797 44.2474C75.389 44.2359 75.4022 44.2275 75.4113 44.2159C77.0358 60.7127 105.783 77.1598 135.758 79.3857C165.734 81.6113 196.745 78.1034 194.668 86.8586C194.552 86.8976 194.424 86.9295 194.289 86.9713C194.291 86.9668 194.296 86.962 194.298 86.9578C189.034 76.6456 146.124 93.8792 109.635 85.4434C78.4362 78.2295 76.8193 61.6468 62.5432 57.7511C57.728 56.4378 53.5797 55.3492 49.9861 54.4788C43.3593 52.8732 38.6164 52.0231 35.0357 51.9232C34.8008 51.9167 34.5711 51.9097 34.3461 51.9097C33.8437 51.6717 33.3224 51.3607 32.7956 51.0263C32.199 50.6489 31.599 50.2341 31.0423 49.8048C30.9795 49.7563 30.9193 49.7048 30.8575 49.6561C30.5825 49.4398 30.3171 49.2246 30.0688 49.0116C30.0541 48.999 30.0382 48.988 30.0237 48.9755H30.0282C28.9032 48.0056 28.1081 47.1281 28.1081 46.785C28.1086 46.208 28.6253 45.2704 29.1538 44.8379L27.5673 43.2514C27.5414 43.2161 27.5269 43.1745 27.5042 43.1387Z" fill="url(#paint56_radial_9563_2512)"/>
<path d="M27.5042 43.1387C30.1983 44.7618 37.6433 44.5323 41.1926 44.1889C43.3799 45.1984 48.6493 47.1308 52.2262 46.785C56.6968 46.3524 60.592 44.334 64.4137 45.559C68.2358 46.785 73.8608 46.4965 75.3752 44.1889C75.3784 44.2081 75.3769 44.2281 75.3797 44.2474C75.389 44.2359 75.4022 44.2275 75.4113 44.2159C77.0358 60.7127 105.783 77.1598 135.758 79.3857C165.734 81.6113 196.745 78.1034 194.668 86.8586C194.552 86.8976 194.424 86.9295 194.289 86.9713C194.291 86.9668 194.296 86.962 194.298 86.9578C189.034 76.6456 146.124 93.8792 109.635 85.4434C78.4362 78.2295 76.8193 61.6468 62.5432 57.7511C57.728 56.4378 53.5797 55.3492 49.9861 54.4788C43.3593 52.8732 38.6164 52.0231 35.0357 51.9232C34.8008 51.9167 34.5711 51.9097 34.3461 51.9097C33.8437 51.6717 33.3224 51.3607 32.7956 51.0263C32.199 50.6489 31.599 50.2341 31.0423 49.8048C30.9795 49.7563 30.9193 49.7048 30.8575 49.6561C30.5825 49.4398 30.3171 49.2246 30.0688 49.0116C30.0541 48.999 30.0382 48.988 30.0237 48.9755H30.0282C28.9032 48.0056 28.1081 47.1281 28.1081 46.785C28.1086 46.208 28.6253 45.2704 29.1538 44.8379L27.5673 43.2514C27.5414 43.2161 27.5269 43.1745 27.5042 43.1387Z" fill="url(#paint57_radial_9563_2512)"/>
<path d="M27.5042 43.1387C30.1983 44.7618 37.6433 44.5323 41.1926 44.1889C43.3799 45.1984 48.6493 47.1308 52.2262 46.785C56.6968 46.3524 60.592 44.334 64.4137 45.559C68.2358 46.785 73.8608 46.4965 75.3752 44.1889C75.3784 44.2081 75.3769 44.2281 75.3797 44.2474C75.389 44.2359 75.4022 44.2275 75.4113 44.2159C77.0358 60.7127 105.783 77.1598 135.758 79.3857C165.734 81.6113 196.745 78.1034 194.668 86.8586C194.552 86.8976 194.424 86.9295 194.289 86.9713C194.291 86.9668 194.296 86.962 194.298 86.9578C189.034 76.6456 146.124 93.8792 109.635 85.4434C78.4362 78.2295 76.8193 61.6468 62.5432 57.7511C57.728 56.4378 53.5797 55.3492 49.9861 54.4788C43.3593 52.8732 38.6164 52.0231 35.0357 51.9232C34.8008 51.9167 34.5711 51.9097 34.3461 51.9097C33.8437 51.6717 33.3224 51.3607 32.7956 51.0263C32.199 50.6489 31.599 50.2341 31.0423 49.8048C30.9795 49.7563 30.9193 49.7048 30.8575 49.6561C30.5825 49.4398 30.3171 49.2246 30.0688 49.0116C30.0541 48.999 30.0382 48.988 30.0237 48.9755H30.0282C28.9032 48.0056 28.1081 47.1281 28.1081 46.785C28.1086 46.208 28.6253 45.2704 29.1538 44.8379L27.5673 43.2514C27.5414 43.2161 27.5269 43.1745 27.5042 43.1387Z" fill="url(#paint58_radial_9563_2512)"/>
<path d="M63.061 87.4428C62.869 86.9947 64.5362 84.9766 65.6573 84.9766C66.1366 84.9766 66.4035 85.9836 65.9418 86.0348C63.8942 86.611 63.2531 87.8909 63.061 87.4428Z" fill="#303030"/>
<path d="M62.6663 89.5331C62.45 89.0283 64.3281 86.7549 65.591 86.7549C66.131 86.7549 66.4316 87.8893 65.9115 87.947C63.6049 88.596 62.8827 90.0379 62.6663 89.5331Z" fill="#303030"/>
<path d="M51.3867 50.1805C50.8549 50.0431 49.8184 47.3903 50.4618 46.5582C50.7921 46.131 52.6098 46.4726 52.3374 46.9196C51.3868 48.903 51.9184 50.3179 51.3867 50.1805Z" fill="url(#paint59_linear_9563_2512)"/>
<path d="M51.3867 50.1805C50.8549 50.0431 49.8184 47.3903 50.4618 46.5582C50.7921 46.131 52.6098 46.4726 52.3374 46.9196C51.3868 48.903 51.9184 50.3179 51.3867 50.1805Z" fill="url(#paint60_radial_9563_2512)"/>
<path d="M54.0032 49.9823C54.535 49.8449 55.5715 47.1921 54.9281 46.36C54.5978 45.9327 52.7801 46.2744 53.0525 46.7213C54.0031 48.7048 53.4714 50.1197 54.0032 49.9823Z" fill="url(#paint61_linear_9563_2512)"/>
<path d="M54.0032 49.9823C54.535 49.8449 55.5715 47.1921 54.9281 46.36C54.5978 45.9327 52.7801 46.2744 53.0525 46.7213C54.0031 48.7048 53.4714 50.1197 54.0032 49.9823Z" fill="url(#paint62_radial_9563_2512)"/>
<path d="M62.9411 48.6571C63.4728 48.5197 64.5094 45.8669 63.866 45.0348C63.5356 44.6075 61.718 44.9492 61.9903 45.3961C62.941 47.3796 62.4093 48.7945 62.9411 48.6571Z" fill="url(#paint63_linear_9563_2512)"/>
<path d="M62.9411 48.6571C63.4728 48.5197 64.5094 45.8669 63.866 45.0348C63.5356 44.6075 61.718 44.9492 61.9903 45.3961C62.941 47.3796 62.4093 48.7945 62.9411 48.6571Z" fill="url(#paint64_radial_9563_2512)"/>
<path d="M65.8554 49.3811C66.4017 49.3249 67.8237 46.8572 67.3121 45.9382C67.0495 45.4663 65.2011 45.5319 65.4035 46.0146C66.0465 48.1181 65.309 49.4374 65.8554 49.3811Z" fill="url(#paint65_linear_9563_2512)"/>
<path d="M65.8554 49.3811C66.4017 49.3249 67.8237 46.8572 67.3121 45.9382C67.0495 45.4663 65.2011 45.5319 65.4035 46.0146C66.0465 48.1181 65.309 49.4374 65.8554 49.3811Z" fill="url(#paint66_radial_9563_2512)"/>
<path d="M69.2286 49.5002C69.7675 49.3944 70.9591 46.8076 70.3661 45.9389C70.0615 45.4929 68.2268 45.7265 68.4723 46.1887C69.304 48.2249 68.6896 49.6059 69.2286 49.5002Z" fill="url(#paint67_linear_9563_2512)"/>
<path d="M69.2286 49.5002C69.7675 49.3944 70.9591 46.8076 70.3661 45.9389C70.0615 45.4929 68.2268 45.7265 68.4723 46.1887C69.304 48.2249 68.6896 49.6059 69.2286 49.5002Z" fill="url(#paint68_radial_9563_2512)"/>
<path d="M45.3317 42.4317C44.7865 42.4967 43.4815 44.6142 44.0077 45.5247C44.2779 45.9922 46.0475 46.2692 45.8374 45.7899C45.1609 43.6974 45.877 42.3667 45.3317 42.4317Z" fill="url(#paint69_linear_9563_2512)"/>
<path d="M45.3317 42.4317C44.7865 42.4967 43.4815 44.6142 44.0077 45.5247C44.2779 45.9922 46.0475 46.2692 45.8374 45.7899C45.1609 43.6974 45.877 42.3667 45.3317 42.4317Z" fill="url(#paint70_radial_9563_2512)"/>
<path d="M58.4716 42.1636C59.0169 42.2286 60.3218 44.3461 59.7957 45.2566C59.5255 45.7242 57.7559 46.0011 57.966 45.5218C58.6424 43.4294 57.9263 42.0986 58.4716 42.1636Z" fill="url(#paint71_linear_9563_2512)"/>
<path d="M58.4716 42.1636C59.0169 42.2286 60.3218 44.3461 59.7957 45.2566C59.5255 45.7242 57.7559 46.0011 57.966 45.5218C58.6424 43.4294 57.9263 42.0986 58.4716 42.1636Z" fill="url(#paint72_radial_9563_2512)"/>
<path d="M93.5515 90.2035C94.0427 88.6795 97.7341 86.5979 102.638 87.4632C101.556 88.3766 99.1043 90.2035 97.9505 90.2035C96.5082 90.2035 92.9015 92.2198 93.5515 90.2035Z" fill="url(#paint73_linear_9563_2512)"/>
<path d="M93.5515 90.2035C94.0427 88.6795 97.7341 86.5979 102.638 87.4632C101.556 88.3766 99.1043 90.2035 97.9505 90.2035C96.5082 90.2035 92.9015 92.2198 93.5515 90.2035Z" fill="url(#paint74_radial_9563_2512)"/>
<path d="M93.5515 90.2035C94.0427 88.6795 97.7341 86.5979 102.638 87.4632C101.556 88.3766 99.1043 90.2035 97.9505 90.2035C96.5082 90.2035 92.9015 92.2198 93.5515 90.2035Z" fill="url(#paint75_radial_9563_2512)"/>
<path d="M64.2717 39.4314C61.4953 39.2872 61.0626 37.4482 60.2333 34.8521C60.7621 33.9987 62.4689 32.292 65.065 32.292C68.3102 32.292 69.2477 36.4386 69.7886 37.3401C69.1035 37.3761 67.0482 39.5756 64.2717 39.4314Z" fill="url(#paint76_radial_9563_2512)"/>
<path d="M63.2508 32.5869C64.6375 32.7886 65.7117 34.1177 65.7117 35.7465C65.7107 37.5134 64.4472 38.9466 62.8902 38.9466C62.7111 38.9465 62.5372 38.9198 62.3674 38.8835C61.2106 38.1359 60.817 36.684 60.231 34.8495C60.6243 34.2148 61.6728 33.1124 63.2508 32.5869Z" fill="url(#paint77_linear_9563_2512)"/>
<path d="M63.2508 32.5869C64.6375 32.7886 65.7117 34.1177 65.7117 35.7465C65.7107 37.5134 64.4472 38.9466 62.8902 38.9466C62.7111 38.9465 62.5372 38.9198 62.3674 38.8835C61.2106 38.1359 60.817 36.684 60.231 34.8495C60.6243 34.2148 61.6728 33.1124 63.2508 32.5869Z" fill="url(#paint78_radial_9563_2512)"/>
<path d="M62.5071 33.4052C63.4409 33.6968 63.9421 34.7576 63.6249 35.776C63.3069 36.7943 62.2917 37.3831 61.3578 37.0921C61.1964 37.0417 61.054 36.9589 60.9206 36.8667C60.6844 36.2705 60.4724 35.5937 60.2355 34.852C60.4832 34.4523 60.9924 33.8712 61.7274 33.3601C61.9828 33.3147 62.2475 33.3242 62.5071 33.4052Z" fill="black"/>
<path d="M64.3259 36.0473C64.3259 36.4861 63.9702 36.8417 63.5315 36.8417C63.0927 36.8417 62.7371 36.4861 62.7371 36.0473C62.7371 35.6086 63.0927 35.2529 63.5315 35.2529C63.9702 35.2529 64.3259 35.6086 64.3259 36.0473Z" fill="white"/>
<path d="M100.447 45.3456C98.7205 44.4824 99.5834 41.7492 94.2605 43.6193C93.1626 56.163 105.701 67.369 112.391 73.9529C120.753 82.1827 196.438 87.8205 196.57 85.9621C196.703 84.1038 200.42 82.7764 197.765 81.1835C195.11 79.5906 197.367 77.2013 194.845 76.6704C192.323 76.1394 194.447 72.9537 192.721 72.8209C190.995 72.6882 188.739 71.759 188.075 70.2989C187.411 68.8387 184.757 69.3697 182.633 69.2369C180.934 69.1308 179.712 67.3343 179.314 66.4494C177.854 66.3609 174.668 65.9185 173.606 64.8565C172.279 63.5291 170.553 64.7238 169.093 62.8654C167.633 61.0071 164.713 61.2726 162.855 60.8743C160.996 60.4761 160.465 58.7505 159.536 58.7505C158.607 58.7505 157.014 59.4142 156.085 59.4142C155.156 59.4142 154.416 57.3778 153.413 57.3778C152.409 57.3778 148.032 55.3713 146.937 54.0032C144.748 54.2464 140.097 54.5869 139.002 54.0032C137.634 53.2736 134.716 53.1824 133.165 53.0912C131.615 53 131.159 52.3615 129.426 51.4495C127.693 50.5374 126.051 51.5407 124.592 51.4495C123.132 51.3583 122.446 49.4491 121.443 49.4491C120.439 49.4491 118.159 49.9051 117.247 49.4491C116.518 49.0843 115.423 47.8378 114.967 47.2601C114.025 47.6858 111.812 48.148 110.28 47.7102C108.365 47.163 108.071 45.3456 106.201 46.0649C104.331 46.7843 102.173 46.2087 100.447 45.3456Z" fill="url(#paint79_radial_9563_2512)"/>
<path d="M100.447 45.3456C98.7205 44.4824 99.5834 41.7492 94.2605 43.6193C93.1626 56.163 105.701 67.369 112.391 73.9529C120.753 82.1827 196.438 87.8205 196.57 85.9621C196.703 84.1038 200.42 82.7764 197.765 81.1835C195.11 79.5906 197.367 77.2013 194.845 76.6704C192.323 76.1394 194.447 72.9537 192.721 72.8209C190.995 72.6882 188.739 71.759 188.075 70.2989C187.411 68.8387 184.757 69.3697 182.633 69.2369C180.934 69.1308 179.712 67.3343 179.314 66.4494C177.854 66.3609 174.668 65.9185 173.606 64.8565C172.279 63.5291 170.553 64.7238 169.093 62.8654C167.633 61.0071 164.713 61.2726 162.855 60.8743C160.996 60.4761 160.465 58.7505 159.536 58.7505C158.607 58.7505 157.014 59.4142 156.085 59.4142C155.156 59.4142 154.416 57.3778 153.413 57.3778C152.409 57.3778 148.032 55.3713 146.937 54.0032C144.748 54.2464 140.097 54.5869 139.002 54.0032C137.634 53.2736 134.716 53.1824 133.165 53.0912C131.615 53 131.159 52.3615 129.426 51.4495C127.693 50.5374 126.051 51.5407 124.592 51.4495C123.132 51.3583 122.446 49.4491 121.443 49.4491C120.439 49.4491 118.159 49.9051 117.247 49.4491C116.518 49.0843 115.423 47.8378 114.967 47.2601C114.025 47.6858 111.812 48.148 110.28 47.7102C108.365 47.163 108.071 45.3456 106.201 46.0649C104.331 46.7843 102.173 46.2087 100.447 45.3456Z" fill="url(#paint80_radial_9563_2512)"/>
<path d="M108.768 57.1738C109.999 61.4285 128.471 71.515 128.483 72.7462C129.218 78.2886 127.112 83.8625 124.99 87.5885C120.863 87.3277 116.74 86.8565 112.68 86.0786C114.395 85.3101 115.951 84.4821 116.728 83.4914C118.4 81.3569 118.242 78.2267 117.954 76.9289C116.199 76.953 111.506 76.2506 106.776 73.2511C94.4475 61.401 108.768 57.1738 108.768 57.1738Z" fill="url(#paint81_radial_9563_2512)"/>
<path d="M109.489 76.932C107.734 76.956 103.042 76.2541 98.3109 73.2541C95.835 70.8743 91.8062 65.0906 95.4985 60.9945C100.114 55.8743 108.263 54.3599 109.489 58.6147C110.715 62.8695 120.018 71.5233 120.018 72.7493C121.099 80.8983 116.051 89.1195 113.816 91.4272C111.58 93.7349 106.532 93.3743 105.018 93.3022C103.503 93.2301 102.926 95.0329 101.051 94.8887C99.5514 94.7733 100.426 92.533 101.051 91.4272C99.6083 91.4272 98.0938 92.8406 97.5169 93.3022C96.7958 93.8791 95.714 92.1478 97.0842 89.9122C98.4544 87.6766 106.171 86.1628 108.263 83.4945C109.936 81.3599 109.777 78.2301 109.489 76.932Z" fill="url(#paint82_linear_9563_2512)"/>
<path d="M109.489 76.932C107.734 76.956 103.042 76.2541 98.3109 73.2541C95.835 70.8743 91.8062 65.0906 95.4985 60.9945C100.114 55.8743 108.263 54.3599 109.489 58.6147C110.715 62.8695 120.018 71.5233 120.018 72.7493C121.099 80.8983 116.051 89.1195 113.816 91.4272C111.58 93.7349 106.532 93.3743 105.018 93.3022C103.503 93.2301 102.926 95.0329 101.051 94.8887C99.5514 94.7733 100.426 92.533 101.051 91.4272C99.6083 91.4272 98.0938 92.8406 97.5169 93.3022C96.7958 93.8791 95.714 92.1478 97.0842 89.9122C98.4544 87.6766 106.171 86.1628 108.263 83.4945C109.936 81.3599 109.777 78.2301 109.489 76.932Z" fill="url(#paint83_radial_9563_2512)"/>
<path d="M109.489 76.932C107.734 76.956 103.042 76.2541 98.3109 73.2541C95.835 70.8743 91.8062 65.0906 95.4985 60.9945C100.114 55.8743 108.263 54.3599 109.489 58.6147C110.715 62.8695 120.018 71.5233 120.018 72.7493C121.099 80.8983 116.051 89.1195 113.816 91.4272C111.58 93.7349 106.532 93.3743 105.018 93.3022C103.503 93.2301 102.926 95.0329 101.051 94.8887C99.5514 94.7733 100.426 92.533 101.051 91.4272C99.6083 91.4272 98.0938 92.8406 97.5169 93.3022C96.7958 93.8791 95.714 92.1478 97.0842 89.9122C98.4544 87.6766 106.171 86.1628 108.263 83.4945C109.936 81.3599 109.777 78.2301 109.489 76.932Z" fill="url(#paint84_radial_9563_2512)"/>
<path d="M149.535 79.3575C146.147 73.8767 147.981 65.3944 157.644 68.0625C162.119 71.5449 162.802 77.8308 162.809 77.8927C162.444 79.4977 164.159 82.2743 165.788 85.2304C162.053 85.6931 158.079 86.173 153.943 86.6051C152.743 84.6078 151.17 82.0014 149.535 79.3575Z" fill="url(#paint85_radial_9563_2512)"/>
<path d="M143.815 78.1568C140.426 72.676 146.772 64.0943 156.436 66.7625C160.45 68.8061 167.296 73.9458 162.565 78.1568C161.219 77.8445 158.382 77.8546 157.805 80.3931C157.084 83.5662 163.791 87.6046 162.565 92.2921C161.924 94.742 159.32 93.3739 158.527 94.0229C157.733 94.6719 154.632 93.8787 153.839 94.5277C153.046 95.1768 149.512 95.1046 148.863 94.5277C148.214 93.9508 144.536 95.3931 143.815 94.5277C143.095 93.6623 143.815 87.9652 150.017 88.3979C149.08 86.8111 146.527 82.5414 143.815 78.1568Z" fill="url(#paint86_linear_9563_2512)"/>
<path d="M143.815 78.1568C140.426 72.676 146.772 64.0943 156.436 66.7625C160.45 68.8061 167.296 73.9458 162.565 78.1568C161.219 77.8445 158.382 77.8546 157.805 80.3931C157.084 83.5662 163.791 87.6046 162.565 92.2921C161.924 94.742 159.32 93.3739 158.527 94.0229C157.733 94.6719 154.632 93.8787 153.839 94.5277C153.046 95.1768 149.512 95.1046 148.863 94.5277C148.214 93.9508 144.536 95.3931 143.815 94.5277C143.095 93.6623 143.815 87.9652 150.017 88.3979C149.08 86.8111 146.527 82.5414 143.815 78.1568Z" fill="url(#paint87_radial_9563_2512)"/>
<path d="M143.815 78.1568C140.426 72.676 146.772 64.0943 156.436 66.7625C160.45 68.8061 167.296 73.9458 162.565 78.1568C161.219 77.8445 158.382 77.8546 157.805 80.3931C157.084 83.5662 163.791 87.6046 162.565 92.2921C161.924 94.742 159.32 93.3739 158.527 94.0229C157.733 94.6719 154.632 93.8787 153.839 94.5277C153.046 95.1768 149.512 95.1046 148.863 94.5277C148.214 93.9508 144.536 95.3931 143.815 94.5277C143.095 93.6623 143.815 87.9652 150.017 88.3979C149.08 86.8111 146.527 82.5414 143.815 78.1568Z" fill="url(#paint88_radial_9563_2512)"/>
<path d="M144.434 96.9873C143.909 96.5692 144.134 93.5135 145.493 92.7827C146.074 92.4702 147.054 93.5172 146.528 93.8803C144.421 95.9136 144.959 97.4054 144.434 96.9873Z" fill="#303030"/>
<path d="M149.295 97.0847C148.782 96.6766 149.002 93.6934 150.328 92.98C150.896 92.6749 151.853 93.697 151.339 94.0515C149.282 96.0365 149.807 97.4929 149.295 97.0847Z" fill="#303030"/>
<path d="M153.28 96.7608C152.824 96.3975 153.02 93.7425 154.201 93.1075C154.706 92.836 155.557 93.7455 155.1 94.061C153.269 95.8278 153.737 97.124 153.28 96.7608Z" fill="#303030"/>
<path d="M157.372 96.6549C156.916 96.2916 156.697 93.577 157.878 92.942C158.383 92.6704 158.777 93.1932 158.777 93.8955C158.418 95.6451 157.829 97.0181 157.372 96.6549Z" fill="#303030"/>
<path d="M161.112 95.7642C160.659 95.5107 160.074 93.1563 161.021 92.4277C161.425 92.1161 161.847 92.5188 161.949 93.1361C161.886 94.7257 161.566 96.0176 161.112 95.7642Z" fill="#303030"/>
<path d="M92.2493 91.7167C92.033 91.2119 93.9111 88.9385 95.174 88.9385C95.714 88.9385 96.0146 90.0729 95.4945 90.1306C93.1879 90.7796 92.4657 92.2215 92.2493 91.7167Z" fill="#303030"/>
<path d="M96.2548 94.6716C95.8252 94.3295 96.1829 91.7171 97.2952 91.119C97.7708 90.8633 98.5729 91.7201 98.1421 92.0172C96.4178 93.6812 96.6844 95.0138 96.2548 94.6716Z" fill="#303030"/>
<path d="M100.906 96.079C100.476 95.7368 100.66 93.2356 101.773 92.6373C102.248 92.3815 103.051 93.2384 102.62 93.5356C100.895 95.2001 101.335 96.4212 100.906 96.079Z" fill="#303030"/>
<path d="M57.3846 35.7529C57.3975 35.7526 57.4103 35.7523 57.423 35.7519C59.2666 35.6536 62.3587 28.5659 67.2645 31.9313C72.2044 35.3202 74.4399 35.6683 75.1971 35.5722C74.512 36.4255 72.5938 38.0385 70.4015 37.6635C67.6611 37.1948 68.3462 34.0582 64.9207 33.3731C61.5092 32.6908 60.5297 35.6564 57.423 35.7519C57.4102 35.7526 57.3974 35.7529 57.3846 35.7529Z" fill="url(#paint89_linear_9563_2512)"/>
<path d="M57.3846 35.7529C57.3975 35.7526 57.4103 35.7523 57.423 35.7519C59.2666 35.6536 62.3587 28.5659 67.2645 31.9313C72.2044 35.3202 74.4399 35.6683 75.1971 35.5722C74.512 36.4255 72.5938 38.0385 70.4015 37.6635C67.6611 37.1948 68.3462 34.0582 64.9207 33.3731C61.5092 32.6908 60.5297 35.6564 57.423 35.7519C57.4102 35.7526 57.3974 35.7529 57.3846 35.7529Z" fill="url(#paint90_radial_9563_2512)"/>
<path d="M57.3846 35.7529C57.3975 35.7526 57.4103 35.7523 57.423 35.7519C59.2666 35.6536 62.3587 28.5659 67.2645 31.9313C72.2044 35.3202 74.4399 35.6683 75.1971 35.5722C74.512 36.4255 72.5938 38.0385 70.4015 37.6635C67.6611 37.1948 68.3462 34.0582 64.9207 33.3731C61.5092 32.6908 60.5297 35.6564 57.423 35.7519C57.4102 35.7526 57.3974 35.7529 57.3846 35.7529Z" fill="url(#paint91_radial_9563_2512)"/>
<defs>
<linearGradient id="paint0_linear_9563_2512" x1="168.1" y1="28.756" x2="170.788" y2="78.0575" gradientUnits="userSpaceOnUse">
<stop stop-color="#FFC470"/>
<stop offset="0.58957" stop-color="#94B25F"/>
<stop offset="1" stop-color="#0C5534"/>
</linearGradient>
<linearGradient id="paint1_linear_9563_2512" x1="184.078" y1="26.1345" x2="174.304" y2="80.8493" gradientUnits="userSpaceOnUse">
<stop stop-color="#FFC470"/>
<stop offset="0.58957" stop-color="#94B25F"/>
<stop offset="1" stop-color="#0C5534"/>
</linearGradient>
<linearGradient id="paint2_linear_9563_2512" x1="187.183" y1="40.4644" x2="181.548" y2="79.8446" gradientUnits="userSpaceOnUse">
<stop stop-color="#FFC470"/>
<stop offset="0.58957" stop-color="#94B25F"/>
<stop offset="1" stop-color="#0C5534"/>
</linearGradient>
<linearGradient id="paint3_linear_9563_2512" x1="190.781" y1="42.5082" x2="185.458" y2="81.9477" gradientUnits="userSpaceOnUse">
<stop stop-color="#FFC470"/>
<stop offset="0.58957" stop-color="#94B25F"/>
<stop offset="1" stop-color="#0C5534"/>
</linearGradient>
<linearGradient id="paint4_linear_9563_2512" x1="200.676" y1="32.7435" x2="186.918" y2="84.494" gradientUnits="userSpaceOnUse">
<stop stop-color="#FFC470"/>
<stop offset="0.58957" stop-color="#94B25F"/>
<stop offset="1" stop-color="#0C5534"/>
</linearGradient>
<linearGradient id="paint5_linear_9563_2512" x1="202.586" y1="48.5548" x2="193.092" y2="84.2651" gradientUnits="userSpaceOnUse">
<stop stop-color="#FFC470"/>
<stop offset="0.58957" stop-color="#94B25F"/>
<stop offset="1" stop-color="#0C5534"/>
</linearGradient>
<linearGradient id="paint6_linear_9563_2512" x1="202.429" y1="60.5106" x2="196.643" y2="82.2764" gradientUnits="userSpaceOnUse">
<stop stop-color="#FFC470"/>
<stop offset="0.58957" stop-color="#94B25F"/>
<stop offset="1" stop-color="#0C5534"/>
</linearGradient>
<linearGradient id="paint7_linear_9563_2512" x1="195.272" y1="-4.81157" x2="221.053" y2="2.88703" gradientUnits="userSpaceOnUse">
<stop stop-color="#E7B164"/>
<stop offset="1" stop-color="#654815"/>
</linearGradient>
<linearGradient id="paint8_linear_9563_2512" x1="196.013" y1="36.6712" x2="196.013" y2="26.0357" gradientUnits="userSpaceOnUse">
<stop offset="0.382803" stop-color="#654815"/>
<stop offset="1" stop-color="#654815" stop-opacity="0"/>
</linearGradient>
<radialGradient id="paint9_radial_9563_2512" cx="0" cy="0" r="1" gradientUnits="userSpaceOnUse" gradientTransform="translate(194.361 16.8923) rotate(61.7957) scale(8.47847 6.99986)">
<stop stop-color="#ECC184"/>
<stop offset="1" stop-color="#ECC184" stop-opacity="0"/>
</radialGradient>
<linearGradient id="paint10_linear_9563_2512" x1="189.026" y1="22.9896" x2="218.654" y2="38.7737" gradientUnits="userSpaceOnUse">
<stop stop-color="#E7B164"/>
<stop offset="1" stop-color="#654815"/>
</linearGradient>
<linearGradient id="paint11_linear_9563_2512" x1="190.031" y1="54.4864" x2="190.031" y2="46.4112" gradientUnits="userSpaceOnUse">
<stop offset="0.382803" stop-color="#654815"/>
<stop offset="1" stop-color="#654815" stop-opacity="0"/>
</linearGradient>
<radialGradient id="paint12_radial_9563_2512" cx="0" cy="0" r="1" gradientUnits="userSpaceOnUse" gradientTransform="translate(187.793 39.4688) rotate(46.2654) scale(7.85156 7.77423)">
<stop stop-color="#ECC184"/>
<stop offset="1" stop-color="#ECC184" stop-opacity="0"/>
</radialGradient>
<linearGradient id="paint13_linear_9563_2512" x1="190.667" y1="0.347574" x2="213.751" y2="7.60253" gradientUnits="userSpaceOnUse">
<stop stop-color="#E7B164"/>
<stop offset="1" stop-color="#654815"/>
</linearGradient>
<linearGradient id="paint14_linear_9563_2512" x1="191.336" y1="35.9514" x2="191.337" y2="26.8232" gradientUnits="userSpaceOnUse">
<stop offset="0.382803" stop-color="#654815"/>
<stop offset="1" stop-color="#654815" stop-opacity="0"/>
</linearGradient>
<radialGradient id="paint15_radial_9563_2512" cx="0" cy="0" r="1" gradientUnits="userSpaceOnUse" gradientTransform="translate(189.844 18.9755) rotate(60.5587) scale(7.36387 6.24829)">
<stop stop-color="#ECC184"/>
<stop offset="1" stop-color="#ECC184" stop-opacity="0"/>
</radialGradient>
<linearGradient id="paint16_linear_9563_2512" x1="172.934" y1="0.46063" x2="196.487" y2="5.41625" gradientUnits="userSpaceOnUse">
<stop stop-color="#E7B164"/>
<stop offset="1" stop-color="#654815"/>
</linearGradient>
<linearGradient id="paint17_linear_9563_2512" x1="173.584" y1="52.0287" x2="173.584" y2="38.8075" gradientUnits="userSpaceOnUse">
<stop offset="0.382803" stop-color="#654815"/>
<stop offset="1" stop-color="#654815" stop-opacity="0"/>
</linearGradient>
<radialGradient id="paint18_radial_9563_2512" cx="0" cy="0" r="1" gradientUnits="userSpaceOnUse" gradientTransform="translate(172.137 27.4411) rotate(69.2998) scale(9.92935 6.50813)">
<stop stop-color="#ECC184"/>
<stop offset="1" stop-color="#ECC184" stop-opacity="0"/>
</radialGradient>
<linearGradient id="paint19_linear_9563_2512" x1="176.534" y1="-1.34723" x2="193.661" y2="1.13265" gradientUnits="userSpaceOnUse">
<stop stop-color="#E7B164"/>
<stop offset="1" stop-color="#654815"/>
</linearGradient>
<linearGradient id="paint20_linear_9563_2512" x1="176.996" y1="51.93" x2="176.996" y2="38.2706" gradientUnits="userSpaceOnUse">
<stop offset="0.382803" stop-color="#654815"/>
<stop offset="1" stop-color="#654815" stop-opacity="0"/>
</linearGradient>
<radialGradient id="paint21_radial_9563_2512" cx="0" cy="0" r="1" gradientUnits="userSpaceOnUse" gradientTransform="translate(175.967 26.5274) rotate(75.424) scale(9.91532 4.78714)">
<stop stop-color="#ECC184"/>
<stop offset="1" stop-color="#ECC184" stop-opacity="0"/>
</radialGradient>
<linearGradient id="paint22_linear_9563_2512" x1="173.109" y1="-17.6882" x2="186.537" y2="70.3479" gradientUnits="userSpaceOnUse">
<stop stop-color="#FFC470"/>
<stop offset="0.377603" stop-color="#94B25F"/>
<stop offset="1" stop-color="#0C5534"/>
</linearGradient>
<linearGradient id="paint23_linear_9563_2512" x1="186.482" y1="-29.6863" x2="199.198" y2="96.8841" gradientUnits="userSpaceOnUse">
<stop stop-color="#FFC470"/>
<stop offset="0.58957" stop-color="#94B25F"/>
<stop offset="1" stop-color="#0C5534"/>
</linearGradient>
<radialGradient id="paint24_radial_9563_2512" cx="0" cy="0" r="1" gradientUnits="userSpaceOnUse" gradientTransform="translate(107.525 80.2129) rotate(0.475741) scale(149.491 42.0764)">
<stop stop-color="#6CE0FF"/>
<stop offset="0.995" stop-color="#136C6C"/>
</radialGradient>
<radialGradient id="paint25_radial_9563_2512" cx="0" cy="0" r="1" gradientUnits="userSpaceOnUse" gradientTransform="translate(124.609 85.1825) rotate(5.97002) scale(130.295 23.0964)">
<stop stop-color="#FFE4BE" stop-opacity="0.6"/>
<stop offset="1" stop-color="#FFE4BE" stop-opacity="0"/>
</radialGradient>
<linearGradient id="paint26_linear_9563_2512" x1="23.547" y1="28.6015" x2="36.3685" y2="47.2097" gradientUnits="userSpaceOnUse">
<stop stop-color="#5750E2"/>
<stop offset="1" stop-color="#FFE994"/>
</linearGradient>
<radialGradient id="paint27_radial_9563_2512" cx="0" cy="0" r="1" gradientUnits="userSpaceOnUse" gradientTransform="translate(37.5374 42.9377) rotate(105.72) scale(4.52671 3.98115)">
<stop offset="0.616173" stop-color="#FFF9EF" stop-opacity="0.8"/>
<stop offset="1" stop-color="#B3E0FF" stop-opacity="0"/>
</radialGradient>
<linearGradient id="paint28_linear_9563_2512" x1="27.7365" y1="28.6015" x2="40.5579" y2="47.2097" gradientUnits="userSpaceOnUse">
<stop stop-color="#5750E2"/>
<stop offset="1" stop-color="#FFE994"/>
</linearGradient>
<radialGradient id="paint29_radial_9563_2512" cx="0" cy="0" r="1" gradientUnits="userSpaceOnUse" gradientTransform="translate(41.7268 42.9377) rotate(105.72) scale(4.52671 3.98115)">
<stop offset="0.616173" stop-color="#FFF9EF" stop-opacity="0.8"/>
<stop offset="1" stop-color="#B3E0FF" stop-opacity="0"/>
</radialGradient>
<linearGradient id="paint30_linear_9563_2512" x1="32.1198" y1="70.6209" x2="32.6612" y2="86.2993" gradientUnits="userSpaceOnUse">
<stop stop-color="#FFC470"/>
<stop offset="0.58957" stop-color="#94B25F"/>
<stop offset="1" stop-color="#0C5534"/>
</linearGradient>
<linearGradient id="paint31_linear_9563_2512" x1="37.3569" y1="47.6321" x2="35.0331" y2="91.4085" gradientUnits="userSpaceOnUse">
<stop stop-color="#FFC470"/>
<stop offset="0.58957" stop-color="#94B25F"/>
<stop offset="1" stop-color="#0C5534"/>
</linearGradient>
<linearGradient id="paint32_linear_9563_2512" x1="40.6989" y1="52.7292" x2="38.8548" y2="90.1672" gradientUnits="userSpaceOnUse">
<stop stop-color="#FFC470"/>
<stop offset="0.58957" stop-color="#94B25F"/>
<stop offset="1" stop-color="#0C5534"/>
</linearGradient>
<linearGradient id="paint33_linear_9563_2512" x1="50.0858" y1="53.1039" x2="52.548" y2="90.1968" gradientUnits="userSpaceOnUse">
<stop stop-color="#FFC470"/>
<stop offset="0.58957" stop-color="#94B25F"/>
<stop offset="1" stop-color="#0C5534"/>
</linearGradient>
<linearGradient id="paint34_linear_9563_2512" x1="48.5882" y1="62.2741" x2="50.4717" y2="88.0542" gradientUnits="userSpaceOnUse">
<stop stop-color="#FFC470"/>
<stop offset="0.58957" stop-color="#94B25F"/>
<stop offset="1" stop-color="#0C5534"/>
</linearGradient>
<linearGradient id="paint35_linear_9563_2512" x1="53.5219" y1="65.6478" x2="54.5886" y2="87.3436" gradientUnits="userSpaceOnUse">
<stop stop-color="#FFC470"/>
<stop offset="0.58957" stop-color="#94B25F"/>
<stop offset="1" stop-color="#0C5534"/>
</linearGradient>
<linearGradient id="paint36_linear_9563_2512" x1="44.4805" y1="66.3078" x2="45.4436" y2="87.194" gradientUnits="userSpaceOnUse">
<stop stop-color="#FFC470"/>
<stop offset="0.58957" stop-color="#94B25F"/>
<stop offset="1" stop-color="#0C5534"/>
</linearGradient>
<linearGradient id="paint37_linear_9563_2512" x1="40.7632" y1="36.1235" x2="43.2572" y2="94.068" gradientUnits="userSpaceOnUse">
<stop stop-color="#FFC470"/>
<stop offset="0.58957" stop-color="#94B25F"/>
<stop offset="1" stop-color="#0C5534"/>
</linearGradient>
<linearGradient id="paint38_linear_9563_2512" x1="34.1042" y1="52.2625" x2="47.3396" y2="38.3277" gradientUnits="userSpaceOnUse">
<stop stop-color="#5750E2"/>
<stop offset="1" stop-color="#FFE994"/>
</linearGradient>
<radialGradient id="paint39_radial_9563_2512" cx="0" cy="0" r="1" gradientUnits="userSpaceOnUse" gradientTransform="translate(47.3396 41.676) rotate(-99.5495) scale(4.09437 3.39767)">
<stop offset="0.616173" stop-color="#FFF9EF" stop-opacity="0.8"/>
<stop offset="1" stop-color="#B3E0FF" stop-opacity="0"/>
</radialGradient>
<linearGradient id="paint40_linear_9563_2512" x1="75.8327" y1="89.6667" x2="62.2785" y2="78.3666" gradientUnits="userSpaceOnUse">
<stop stop-color="#08494E"/>
<stop offset="1" stop-color="#B0F098"/>
</linearGradient>
<radialGradient id="paint41_radial_9563_2512" cx="0" cy="0" r="1" gradientUnits="userSpaceOnUse" gradientTransform="translate(66.1604 83.0249) rotate(153.435) scale(5.2081 2.66784)">
<stop offset="0.188479" stop-color="#BCE0A9"/>
<stop offset="1" stop-color="#FFC7A3" stop-opacity="0"/>
</radialGradient>
<radialGradient id="paint42_radial_9563_2512" cx="0" cy="0" r="1" gradientUnits="userSpaceOnUse" gradientTransform="translate(68.0754 88.5113) rotate(-178.363) scale(5.43686 4.08429)">
<stop offset="0.846154" stop-color="#093C41"/>
<stop offset="0.985577" stop-color="#093C41" stop-opacity="0"/>
</radialGradient>
<linearGradient id="paint43_linear_9563_2512" x1="105.842" y1="98.9635" x2="62.7264" y2="37.4057" gradientUnits="userSpaceOnUse">
<stop stop-color="#08494E"/>
<stop offset="1" stop-color="#B0F098"/>
</linearGradient>
<radialGradient id="paint44_radial_9563_2512" cx="0" cy="0" r="1" gradientUnits="userSpaceOnUse" gradientTransform="translate(66.3668 78.8943) rotate(-156.078) scale(18.3208 8.9818)">
<stop offset="0.188479" stop-color="#BCE0A9"/>
<stop offset="1" stop-color="#FFC7A3" stop-opacity="0"/>
</radialGradient>
<radialGradient id="paint45_radial_9563_2512" cx="0" cy="0" r="1" gradientUnits="userSpaceOnUse" gradientTransform="translate(68.9586 74.9026) rotate(46.5534) scale(17.1051 16.5099)">
<stop offset="0.797691" stop-color="#093C41" stop-opacity="0"/>
<stop offset="1" stop-color="#093C41"/>
</radialGradient>
<radialGradient id="paint46_radial_9563_2512" cx="0" cy="0" r="1" gradientUnits="userSpaceOnUse" gradientTransform="translate(90.9351 84.8737) rotate(153.958) scale(11.0756)">
<stop offset="0.563953" stop-color="#093C41"/>
<stop offset="1" stop-color="#093C41" stop-opacity="0"/>
</radialGradient>
<radialGradient id="paint47_radial_9563_2512" cx="0" cy="0" r="1" gradientUnits="userSpaceOnUse" gradientTransform="translate(90.9351 65.8761) rotate(42.4705) scale(19.9296 13.9948)">
<stop offset="0.563953" stop-color="#093C41"/>
<stop offset="1" stop-color="#093C41" stop-opacity="0"/>
</radialGradient>
<linearGradient id="paint48_linear_9563_2512" x1="152.701" y1="181.286" x2="121.812" y2="-19.0388" gradientUnits="userSpaceOnUse">
<stop stop-color="#06383B"/>
<stop offset="1" stop-color="#A2ED86"/>
</linearGradient>
<radialGradient id="paint49_radial_9563_2512" cx="0" cy="0" r="1" gradientUnits="userSpaceOnUse" gradientTransform="translate(43.8468 34.8434) rotate(173.354) scale(24.4375 10.9234)">
<stop offset="0.188479" stop-color="#FFCEAE" stop-opacity="0.8"/>
<stop offset="1" stop-color="#FFBB8F" stop-opacity="0"/>
</radialGradient>
<radialGradient id="paint50_radial_9563_2512" cx="0" cy="0" r="1" gradientUnits="userSpaceOnUse" gradientTransform="translate(195.502 127.495) rotate(163.886) scale(55.5746 36.2213)">
<stop offset="0.623215" stop-color="#072B2F"/>
<stop offset="1" stop-color="#072B2F" stop-opacity="0"/>
</radialGradient>
<radialGradient id="paint51_radial_9563_2512" cx="0" cy="0" r="1" gradientUnits="userSpaceOnUse" gradientTransform="translate(146.462 47.2061) rotate(-168.28) scale(75.9352 26.5878)">
<stop stop-color="#072B2F"/>
<stop offset="1" stop-color="#072B2F" stop-opacity="0"/>
</radialGradient>
<radialGradient id="paint52_radial_9563_2512" cx="0" cy="0" r="1" gradientUnits="userSpaceOnUse" gradientTransform="translate(187.127 89.7388) rotate(157.074) scale(33.328 14.9539)">
<stop stop-color="#072B2F"/>
<stop offset="0.440052" stop-color="#2F614F"/>
<stop offset="1" stop-color="#5B976B" stop-opacity="0"/>
</radialGradient>
<radialGradient id="paint53_radial_9563_2512" cx="0" cy="0" r="1" gradientUnits="userSpaceOnUse" gradientTransform="translate(91.2407 34.0737) rotate(27.9443) scale(38.7787 17.3995)">
<stop stop-color="#072B2F"/>
<stop offset="0.440052" stop-color="#2F614F"/>
<stop offset="1" stop-color="#5B976B" stop-opacity="0"/>
</radialGradient>
<radialGradient id="paint54_radial_9563_2512" cx="0" cy="0" r="1" gradientUnits="userSpaceOnUse" gradientTransform="translate(79.3512 76.6352) rotate(16.0625) scale(133.14 32.7827)">
<stop stop-color="#845505"/>
<stop offset="1" stop-color="#E6A600" stop-opacity="0"/>
</radialGradient>
<radialGradient id="paint55_radial_9563_2512" cx="0" cy="0" r="1" gradientUnits="userSpaceOnUse" gradientTransform="translate(115.928 60.0439) rotate(11.3665) scale(72.1223 35.7986)">
<stop offset="0.189763" stop-color="#C8F5B7"/>
<stop offset="0.966499" stop-color="#FFE4BE" stop-opacity="0"/>
</radialGradient>
<radialGradient id="paint56_radial_9563_2512" cx="0" cy="0" r="1" gradientUnits="userSpaceOnUse" gradientTransform="translate(44.5891 39.0019) rotate(0.751812) scale(34.3408 12.176)">
<stop offset="0.457695" stop-color="#093C41"/>
<stop offset="1" stop-color="#76B47D" stop-opacity="0"/>
</radialGradient>
<radialGradient id="paint57_radial_9563_2512" cx="0" cy="0" r="1" gradientUnits="userSpaceOnUse" gradientTransform="translate(67.1205 43.1387) rotate(-6.86929) scale(11.9826 5.46406)">
<stop offset="0.353735" stop-color="#093C41"/>
<stop offset="1" stop-color="#76B47D" stop-opacity="0"/>
</radialGradient>
<radialGradient id="paint58_radial_9563_2512" cx="0" cy="0" r="1" gradientUnits="userSpaceOnUse" gradientTransform="translate(48.5444 58.2837) rotate(5.30051) scale(31.2784 12.0536)">
<stop stop-color="#093C41"/>
<stop offset="1" stop-color="#BDE1A9" stop-opacity="0"/>
</radialGradient>
<linearGradient id="paint59_linear_9563_2512" x1="40.6233" y1="34.4569" x2="52.4307" y2="51.5933" gradientUnits="userSpaceOnUse">
<stop stop-color="#5750E2"/>
<stop offset="1" stop-color="#FFE994"/>
</linearGradient>
<radialGradient id="paint60_radial_9563_2512" cx="0" cy="0" r="1" gradientUnits="userSpaceOnUse" gradientTransform="translate(53.5071 47.6592) rotate(105.72) scale(4.16868 3.66627)">
<stop offset="0.616173" stop-color="#FFF9EF" stop-opacity="0.8"/>
<stop offset="1" stop-color="#B3E0FF" stop-opacity="0"/>
</radialGradient>
<linearGradient id="paint61_linear_9563_2512" x1="64.7666" y1="34.2586" x2="52.9592" y2="51.395" gradientUnits="userSpaceOnUse">
<stop stop-color="#5750E2"/>
<stop offset="1" stop-color="#FFE994"/>
</linearGradient>
<radialGradient id="paint62_radial_9563_2512" cx="0" cy="0" r="1" gradientUnits="userSpaceOnUse" gradientTransform="translate(51.8828 47.4609) rotate(74.2803) scale(4.16868 3.66627)">
<stop offset="0.616173" stop-color="#FFF9EF" stop-opacity="0.8"/>
<stop offset="1" stop-color="#B3E0FF" stop-opacity="0"/>
</radialGradient>
<linearGradient id="paint63_linear_9563_2512" x1="73.7044" y1="32.9334" x2="61.8971" y2="50.0698" gradientUnits="userSpaceOnUse">
<stop stop-color="#5750E2"/>
<stop offset="1" stop-color="#FFE994"/>
</linearGradient>
<radialGradient id="paint64_radial_9563_2512" cx="0" cy="0" r="1" gradientUnits="userSpaceOnUse" gradientTransform="translate(60.8206 46.1357) rotate(74.2803) scale(4.16868 3.66627)">
<stop offset="0.616173" stop-color="#FFF9EF" stop-opacity="0.8"/>
<stop offset="1" stop-color="#B3E0FF" stop-opacity="0"/>
</radialGradient>
<linearGradient id="paint65_linear_9563_2512" x1="78.8514" y1="35.4461" x2="64.6116" y2="50.6217" gradientUnits="userSpaceOnUse">
<stop stop-color="#5750E2"/>
<stop offset="1" stop-color="#FFE994"/>
</linearGradient>
<radialGradient id="paint66_radial_9563_2512" cx="0" cy="0" r="1" gradientUnits="userSpaceOnUse" gradientTransform="translate(64.1363 46.5708) rotate(82.8902) scale(4.16868 3.66627)">
<stop offset="0.616173" stop-color="#FFF9EF" stop-opacity="0.8"/>
<stop offset="1" stop-color="#B3E0FF" stop-opacity="0"/>
</radialGradient>
<linearGradient id="paint67_linear_9563_2512" x1="80.9028" y1="34.4405" x2="68.1029" y2="50.8487" gradientUnits="userSpaceOnUse">
<stop stop-color="#5750E2"/>
<stop offset="1" stop-color="#FFE994"/>
</linearGradient>
<radialGradient id="paint68_radial_9563_2512" cx="0" cy="0" r="1" gradientUnits="userSpaceOnUse" gradientTransform="translate(67.2609 46.8578) rotate(77.6701) scale(4.16868 3.66627)">
<stop offset="0.616173" stop-color="#FFF9EF" stop-opacity="0.8"/>
<stop offset="1" stop-color="#B3E0FF" stop-opacity="0"/>
</radialGradient>
<linearGradient id="paint69_linear_9563_2512" x1="33.844" y1="55.7757" x2="47.0793" y2="41.8409" gradientUnits="userSpaceOnUse">
<stop stop-color="#5750E2"/>
<stop offset="1" stop-color="#FFE994"/>
</linearGradient>
<radialGradient id="paint70_radial_9563_2512" cx="0" cy="0" r="1" gradientUnits="userSpaceOnUse" gradientTransform="translate(47.0793 45.1892) rotate(-99.5495) scale(4.09437 3.39767)">
<stop offset="0.616173" stop-color="#FFF9EF" stop-opacity="0.8"/>
<stop offset="1" stop-color="#B3E0FF" stop-opacity="0"/>
</radialGradient>
<linearGradient id="paint71_linear_9563_2512" x1="69.9594" y1="55.5076" x2="56.724" y2="41.5729" gradientUnits="userSpaceOnUse">
<stop stop-color="#5750E2"/>
<stop offset="1" stop-color="#FFE994"/>
</linearGradient>
<radialGradient id="paint72_radial_9563_2512" cx="0" cy="0" r="1" gradientUnits="userSpaceOnUse" gradientTransform="translate(56.724 44.9212) rotate(-80.4505) scale(4.09437 3.39767)">
<stop offset="0.616173" stop-color="#FFF9EF" stop-opacity="0.8"/>
<stop offset="1" stop-color="#B3E0FF" stop-opacity="0"/>
</radialGradient>
<linearGradient id="paint73_linear_9563_2512" x1="109.345" y1="93.1828" x2="94.7831" y2="77.7826" gradientUnits="userSpaceOnUse">
<stop stop-color="#08494E"/>
<stop offset="1" stop-color="#B0F098"/>
</linearGradient>
<radialGradient id="paint74_radial_9563_2512" cx="0" cy="0" r="1" gradientUnits="userSpaceOnUse" gradientTransform="translate(96.3577 86.1527) rotate(158.488) scale(6.72295 2.93717)">
<stop offset="0.188479" stop-color="#BCE0A9"/>
<stop offset="1" stop-color="#FFC7A3" stop-opacity="0"/>
</radialGradient>
<radialGradient id="paint75_radial_9563_2512" cx="0" cy="0" r="1" gradientUnits="userSpaceOnUse" gradientTransform="translate(100.735 91.5134) rotate(171.674) scale(6.4341 4.06517)">
<stop offset="0.697205" stop-color="#093C41"/>
<stop offset="0.985577" stop-color="#093C41" stop-opacity="0"/>
</radialGradient>
<radialGradient id="paint76_radial_9563_2512" cx="0" cy="0" r="1" gradientUnits="userSpaceOnUse" gradientTransform="translate(63.866 35.4567) rotate(4.93719) scale(4.74498)">
<stop offset="0.450946" stop-color="white"/>
<stop offset="1" stop-color="#999999"/>
</radialGradient>
<linearGradient id="paint77_linear_9563_2512" x1="61.1943" y1="21.0949" x2="73.1264" y2="41.2862" gradientUnits="userSpaceOnUse">
<stop stop-color="#B27805"/>
<stop offset="1" stop-color="#240D54"/>
</linearGradient>
<radialGradient id="paint78_radial_9563_2512" cx="0" cy="0" r="1" gradientUnits="userSpaceOnUse" gradientTransform="translate(63.7709 33.958) rotate(59.3716) scale(5.17808 3.8866)">
<stop stop-color="#FFB180" stop-opacity="0.7"/>
<stop offset="1" stop-color="#FFB180" stop-opacity="0"/>
</radialGradient>
<radialGradient id="paint79_radial_9563_2512" cx="0" cy="0" r="1" gradientUnits="userSpaceOnUse" gradientTransform="translate(143.254 79.6905) rotate(-160.71) scale(88.0395 26.5187)">
<stop offset="0.548839" stop-color="#64A275" stop-opacity="0"/>
<stop offset="0.929879" stop-color="#5B9DA3"/>
</radialGradient>
<radialGradient id="paint80_radial_9563_2512" cx="0" cy="0" r="1" gradientUnits="userSpaceOnUse" gradientTransform="translate(91.1195 50.6336) rotate(51.0587) scale(22.5184 9.52153)">
<stop offset="0.286424" stop-color="#62925A"/>
<stop offset="1" stop-color="#62925A" stop-opacity="0"/>
</radialGradient>
<radialGradient id="paint81_radial_9563_2512" cx="0" cy="0" r="1" gradientUnits="userSpaceOnUse" gradientTransform="translate(106.674 75.3234) rotate(53.9266) scale(19.9895 16.7293)">
<stop offset="0.456931" stop-color="#093C41"/>
<stop offset="1" stop-color="#093C41" stop-opacity="0"/>
</radialGradient>
<linearGradient id="paint82_linear_9563_2512" x1="139.313" y1="115.923" x2="52.0517" y2="46.634" gradientUnits="userSpaceOnUse">
<stop stop-color="#08494E"/>
<stop offset="1" stop-color="#B0F098"/>
</linearGradient>
<radialGradient id="paint83_radial_9563_2512" cx="0" cy="0" r="1" gradientUnits="userSpaceOnUse" gradientTransform="translate(96.4401 76.7315) rotate(-141.423) scale(23.2655 15.0009)">
<stop offset="0.188479" stop-color="#BCE0A9"/>
<stop offset="1" stop-color="#FFC7A3" stop-opacity="0"/>
</radialGradient>
<radialGradient id="paint84_radial_9563_2512" cx="0" cy="0" r="1" gradientUnits="userSpaceOnUse" gradientTransform="translate(99.255 68.9365) rotate(62.2204) scale(27.4104 21.8513)">
<stop offset="0.797691" stop-color="#093C41" stop-opacity="0"/>
<stop offset="1" stop-color="#093C41"/>
</radialGradient>
<radialGradient id="paint85_radial_9563_2512" cx="0" cy="0" r="1" gradientUnits="userSpaceOnUse" gradientTransform="translate(167.22 85.7275) rotate(48.54) scale(13.9648 5.77512)">
<stop offset="0.636732" stop-color="#093C41" stop-opacity="0"/>
<stop offset="1" stop-color="#093C41"/>
</radialGradient>
<linearGradient id="paint86_linear_9563_2512" x1="179.741" y1="110.573" x2="108.893" y2="40.6708" gradientUnits="userSpaceOnUse">
<stop stop-color="#08494E"/>
<stop offset="1" stop-color="#B0F098"/>
</linearGradient>
<radialGradient id="paint87_radial_9563_2512" cx="0" cy="0" r="1" gradientUnits="userSpaceOnUse" gradientTransform="translate(142.893 77.7041) rotate(-129.611) scale(18.7725 11.1245)">
<stop offset="0.188479" stop-color="#BCE0A9"/>
<stop offset="1" stop-color="#FFC7A3" stop-opacity="0"/>
</radialGradient>
<radialGradient id="paint88_radial_9563_2512" cx="0" cy="0" r="1" gradientUnits="userSpaceOnUse" gradientTransform="translate(149.578 74.5602) rotate(66.9355) scale(22.2024 21.2684)">
<stop offset="0.797691" stop-color="#093C41" stop-opacity="0"/>
<stop offset="1" stop-color="#093C41"/>
</radialGradient>
<linearGradient id="paint89_linear_9563_2512" x1="65.0223" y1="50.9703" x2="66.8447" y2="26.344" gradientUnits="userSpaceOnUse">
<stop stop-color="#08494E"/>
<stop offset="1" stop-color="#B0F098"/>
</linearGradient>
<radialGradient id="paint90_radial_9563_2512" cx="0" cy="0" r="1" gradientUnits="userSpaceOnUse" gradientTransform="translate(64.4056 39.2788) rotate(25.2276) scale(8.4016 7.31238)">
<stop offset="0.623215" stop-color="#093C41"/>
<stop offset="0.836536" stop-color="#356D5A" stop-opacity="0.594181"/>
<stop offset="1" stop-color="#75B57E" stop-opacity="0"/>
</radialGradient>
<radialGradient id="paint91_radial_9563_2512" cx="0" cy="0" r="1" gradientUnits="userSpaceOnUse" gradientTransform="translate(62.4101 29.5798) rotate(142.561) scale(7.88342 3.85204)">
<stop offset="0.308107" stop-color="#FFDAC2" stop-opacity="0.8"/>
<stop offset="0.710036" stop-color="#FFD0B2" stop-opacity="0.381377"/>
<stop offset="1" stop-color="#FFC7A3" stop-opacity="0"/>
</radialGradient>
</defs>
</svg>
