<svg viewBox="0 0 240 120" fill="none" xmlns="http://www.w3.org/2000/svg">
<path d="M120.198 80.8075C117.184 58.038 129.993 52.4768 122.082 38.1152L120.198 37.1304C126.315 48.3241 114.076 59.8992 115.423 77.166C116.118 86.0764 118.248 106.941 112.221 119.727H129.551C131.811 107.642 123.212 103.577 120.198 80.8075Z" fill="url(#paint0_linear_9671_32681)"/>
<path d="M65.4175 105.806C83.0608 97.4708 91.6866 107.271 96.1295 105.806L97.045 106.821C96.7399 109.149 94.0385 113.94 85.6747 114.48C75.2198 115.156 71.4291 105.019 65.4175 105.806Z" fill="url(#paint1_radial_9671_32681)"/>
<path d="M104.026 119.728C93.3924 116.877 93.1687 77.9622 58.0708 60.0003L60.3019 60C87.6661 68.4699 97.9006 115.272 110.883 119.727L104.026 119.728Z" fill="url(#paint2_linear_9671_32681)"/>
<path d="M148.679 26.2533C152.585 27.1201 160.928 32.3228 165.294 48.7456C163.999 47.9987 162.465 47.2713 160.761 46.5542C155.428 43.0976 152.872 38.2748 152.218 35.9666C152.058 37.6972 152.342 40.7769 153.812 43.9976C151.706 43.3112 149.497 42.6469 147.251 42.0212C146.393 38.1467 146.734 34.8436 147.216 33.1818C146.127 34.6131 144.675 37.5259 144.267 41.2164C136.091 39.0688 127.843 37.3998 122.751 36.5195L122.177 34.9011C131.422 25.9643 144.774 25.3875 148.679 26.2533Z" fill="#117068"/>
<path d="M148.679 26.2533C152.585 27.1201 160.928 32.3228 165.294 48.7456C163.999 47.9987 162.465 47.2713 160.761 46.5542C155.428 43.0976 152.872 38.2748 152.218 35.9666C152.058 37.6972 152.342 40.7769 153.812 43.9976C151.706 43.3112 149.497 42.6469 147.251 42.0212C146.393 38.1467 146.734 34.8436 147.216 33.1818C146.127 34.6131 144.675 37.5259 144.267 41.2164C136.091 39.0688 127.843 37.3998 122.751 36.5195L122.177 34.9011C131.422 25.9643 144.774 25.3875 148.679 26.2533Z" fill="url(#paint3_linear_9671_32681)"/>
<path d="M148.679 26.2533C152.585 27.1201 160.928 32.3228 165.294 48.7456C163.999 47.9987 162.465 47.2713 160.761 46.5542C155.428 43.0976 152.872 38.2748 152.218 35.9666C152.058 37.6972 152.342 40.7769 153.812 43.9976C151.706 43.3112 149.497 42.6469 147.251 42.0212C146.393 38.1467 146.734 34.8436 147.216 33.1818C146.127 34.6131 144.675 37.5259 144.267 41.2164C136.091 39.0688 127.843 37.3998 122.751 36.5195L122.177 34.9011C131.422 25.9643 144.774 25.3875 148.679 26.2533Z" fill="url(#paint4_linear_9671_32681)"/>
<path d="M145.946 8.33041C145.175 10.8603 143.804 13.4258 142.086 15.9323C138.813 17.1904 135.909 17.4347 134.329 17.2916C135.529 17.8835 137.569 18.5116 140.057 18.6724C138.733 20.335 137.283 21.9483 135.785 23.4869C133.143 23.2964 131.05 22.6733 129.881 22.113C130.714 22.9964 132.188 24.1476 134.155 25.1151C129.77 29.3677 125.197 32.8893 122.178 34.906L121.349 33.605C123.373 16.9214 127.59 14.689 145.946 8.33041Z" fill="#117068"/>
<path d="M145.946 8.33041C145.175 10.8603 143.804 13.4258 142.086 15.9323C138.813 17.1904 135.909 17.4347 134.329 17.2916C135.529 17.8835 137.569 18.5116 140.057 18.6724C138.733 20.335 137.283 21.9483 135.785 23.4869C133.143 23.2964 131.05 22.6733 129.881 22.113C130.714 22.9964 132.188 24.1476 134.155 25.1151C129.77 29.3677 125.197 32.8893 122.178 34.906L121.349 33.605C123.373 16.9214 127.59 14.689 145.946 8.33041Z" fill="url(#paint5_linear_9671_32681)"/>
<path d="M145.946 8.33041C145.175 10.8603 143.804 13.4258 142.086 15.9323C138.813 17.1904 135.909 17.4347 134.329 17.2916C135.529 17.8835 137.569 18.5116 140.057 18.6724C138.733 20.335 137.283 21.9483 135.785 23.4869C133.143 23.2964 131.05 22.6733 129.881 22.113C130.714 22.9964 132.188 24.1476 134.155 25.1151C129.77 29.3677 125.197 32.8893 122.178 34.906L121.349 33.605C123.373 16.9214 127.59 14.689 145.946 8.33041Z" fill="url(#paint6_linear_9671_32681)"/>
<path d="M96.5268 7.80042C107.528 1.85937 125.258 8.8219 123.141 35.1693L119.551 35.4491C117.824 29.6607 114.282 24.2119 110.292 19.6152C112.414 17.6157 113.716 15.4661 114.261 14.0641C113.315 15.103 111.397 16.6217 108.703 17.8501C107.44 16.501 106.151 15.2396 104.875 14.0835C106.898 13.0129 108.394 11.7553 109.216 10.808C108.019 11.4435 105.818 12.1884 103.014 12.4613C100.642 10.4734 98.39 8.88112 96.5268 7.80042Z" fill="#117068"/>
<path d="M96.5268 7.80042C107.528 1.85937 125.258 8.8219 123.141 35.1693L119.551 35.4491C117.824 29.6607 114.282 24.2119 110.292 19.6152C112.414 17.6157 113.716 15.4661 114.261 14.0641C113.315 15.103 111.397 16.6217 108.703 17.8501C107.44 16.501 106.151 15.2396 104.875 14.0835C106.898 13.0129 108.394 11.7553 109.216 10.808C108.019 11.4435 105.818 12.1884 103.014 12.4613C100.642 10.4734 98.39 8.88112 96.5268 7.80042Z" fill="url(#paint7_linear_9671_32681)"/>
<path d="M96.5268 7.80042C107.528 1.85937 125.258 8.8219 123.141 35.1693L119.551 35.4491C117.824 29.6607 114.282 24.2119 110.292 19.6152C112.414 17.6157 113.716 15.4661 114.261 14.0641C113.315 15.103 111.397 16.6217 108.703 17.8501C107.44 16.501 106.151 15.2396 104.875 14.0835C106.898 13.0129 108.394 11.7553 109.216 10.808C108.019 11.4435 105.818 12.1884 103.014 12.4613C100.642 10.4734 98.39 8.88112 96.5268 7.80042Z" fill="url(#paint8_linear_9671_32681)"/>
<path d="M72.7759 40.1513C89.9166 6.52151 110.425 16.8491 123.41 35.5571L122.514 37.8929C118.323 36.5907 111.201 35.643 103.581 35.4124C101.71 29.7504 97.4662 26.4136 95.1893 25.3293C96.5928 26.8108 98.852 30.4101 99.6497 35.3624C97.7551 35.369 95.8556 35.4125 93.9871 35.5195C93.3968 30.5677 90.8742 26.8844 89.2564 25.3526C90.1049 27.1333 91.1142 31.0473 90.4839 35.7861C88.7468 35.9548 87.0589 36.1754 85.4517 36.4524C86.4106 32.9373 86.162 29.7609 85.6947 28.0485C85.5 29.9565 84.3852 33.6588 81.57 37.2814C78.5506 38.0655 75.9971 39.1107 74.1973 40.4664L72.7759 40.1513Z" fill="#117068"/>
<path d="M72.7759 40.1513C89.9166 6.52151 110.425 16.8491 123.41 35.5571L122.514 37.8929C118.323 36.5907 111.201 35.643 103.581 35.4124C101.71 29.7504 97.4662 26.4136 95.1893 25.3293C96.5928 26.8108 98.852 30.4101 99.6497 35.3624C97.7551 35.369 95.8556 35.4125 93.9871 35.5195C93.3968 30.5677 90.8742 26.8844 89.2564 25.3526C90.1049 27.1333 91.1142 31.0473 90.4839 35.7861C88.7468 35.9548 87.0589 36.1754 85.4517 36.4524C86.4106 32.9373 86.162 29.7609 85.6947 28.0485C85.5 29.9565 84.3852 33.6588 81.57 37.2814C78.5506 38.0655 75.9971 39.1107 74.1973 40.4664L72.7759 40.1513Z" fill="url(#paint9_linear_9671_32681)"/>
<path d="M72.7759 40.1513C89.9166 6.52151 110.425 16.8491 123.41 35.5571L122.514 37.8929C118.323 36.5907 111.201 35.643 103.581 35.4124C101.71 29.7504 97.4662 26.4136 95.1893 25.3293C96.5928 26.8108 98.852 30.4101 99.6497 35.3624C97.7551 35.369 95.8556 35.4125 93.9871 35.5195C93.3968 30.5677 90.8742 26.8844 89.2564 25.3526C90.1049 27.1333 91.1142 31.0473 90.4839 35.7861C88.7468 35.9548 87.0589 36.1754 85.4517 36.4524C86.4106 32.9373 86.162 29.7609 85.6947 28.0485C85.5 29.9565 84.3852 33.6588 81.57 37.2814C78.5506 38.0655 75.9971 39.1107 74.1973 40.4664L72.7759 40.1513Z" fill="url(#paint10_linear_9671_32681)"/>
<path d="M97.8775 71.4187C86.8055 49.9683 108.883 24.5105 123.146 34.9358L123.261 36.7896C122.063 42.1931 117.686 48.8809 112.726 55.1088C110.011 50.8823 106.089 48.6752 103.95 48.0105C105.661 49.3647 108.694 52.9739 110.093 58.3244C108.976 59.6445 107.85 60.9257 106.746 62.1529C105.512 57.67 102.784 54.5492 101.094 53.2682C102.301 55.219 104.038 60.0035 103.275 65.8983C101.192 68.098 99.3241 69.9962 97.8775 71.4187Z" fill="#117068"/>
<path d="M97.8775 71.4187C86.8055 49.9683 108.883 24.5105 123.146 34.9358L123.261 36.7896C122.063 42.1931 117.686 48.8809 112.726 55.1088C110.011 50.8823 106.089 48.6752 103.95 48.0105C105.661 49.3647 108.694 52.9739 110.093 58.3244C108.976 59.6445 107.85 60.9257 106.746 62.1529C105.512 57.67 102.784 54.5492 101.094 53.2682C102.301 55.219 104.038 60.0035 103.275 65.8983C101.192 68.098 99.3241 69.9962 97.8775 71.4187Z" fill="url(#paint11_linear_9671_32681)"/>
<path d="M97.8775 71.4187C86.8055 49.9683 108.883 24.5105 123.146 34.9358L123.261 36.7896C122.063 42.1931 117.686 48.8809 112.726 55.1088C110.011 50.8823 106.089 48.6752 103.95 48.0105C105.661 49.3647 108.694 52.9739 110.093 58.3244C108.976 59.6445 107.85 60.9257 106.746 62.1529C105.512 57.67 102.784 54.5492 101.094 53.2682C102.301 55.219 104.038 60.0035 103.275 65.8983C101.192 68.098 99.3241 69.9962 97.8775 71.4187Z" fill="url(#paint12_linear_9671_32681)"/>
<path d="M125.218 34.5154C139.278 33.9906 147.771 59.9491 138.145 70.4695C135.134 69.0485 132.665 67.0012 130.648 64.5764C132.758 62.7671 134.793 61.7062 136.066 61.282C134.538 61.211 131.979 61.531 129.238 62.7109C128.324 61.3897 127.515 59.991 126.815 58.5362C129.477 55.7159 132.319 54.1586 133.934 53.6202C132.133 53.5368 128.902 53.9991 125.628 55.7708C122.716 48.1857 122.209 39.818 122.728 34.757L125.218 34.5154Z" fill="#117068"/>
<path d="M125.218 34.5154C139.278 33.9906 147.771 59.9491 138.145 70.4695C135.134 69.0485 132.665 67.0012 130.648 64.5764C132.758 62.7671 134.793 61.7062 136.066 61.282C134.538 61.211 131.979 61.531 129.238 62.7109C128.324 61.3897 127.515 59.991 126.815 58.5362C129.477 55.7159 132.319 54.1586 133.934 53.6202C132.133 53.5368 128.902 53.9991 125.628 55.7708C122.716 48.1857 122.209 39.818 122.728 34.757L125.218 34.5154Z" fill="url(#paint13_linear_9671_32681)"/>
<path d="M125.218 34.5154C139.278 33.9906 147.771 59.9491 138.145 70.4695C135.134 69.0485 132.665 67.0012 130.648 64.5764C132.758 62.7671 134.793 61.7062 136.066 61.282C134.538 61.211 131.979 61.531 129.238 62.7109C128.324 61.3897 127.515 59.991 126.815 58.5362C129.477 55.7159 132.319 54.1586 133.934 53.6202C132.133 53.5368 128.902 53.9991 125.628 55.7708C122.716 48.1857 122.209 39.818 122.728 34.757L125.218 34.5154Z" fill="url(#paint14_linear_9671_32681)"/>
<path d="M188.115 58.3989C188.26 54.4037 201.289 54.7994 205.062 69.8197L205.016 71.0978C203.573 66.8047 187.97 62.3941 188.115 58.3989Z" fill="url(#paint15_linear_9671_32681)"/>
<path d="M212.943 41.1115C210.531 36.448 204.868 44.6425 203.943 55.866L204.494 56.9164C205.25 52.3088 216.446 47.8851 212.943 41.1115Z" fill="url(#paint16_linear_9671_32681)"/>
<path d="M185.326 46.8218C187.358 43.3568 196.865 44.1223 202.531 53.2891L203.027 55.0689C195.392 49.4285 183.503 49.9279 185.326 46.8218Z" fill="url(#paint17_linear_9671_32681)"/>
<path d="M205.619 27.5964C205.009 22.3739 196.5 29.7444 199.16 40.1636C199.448 40.4151 200.02 40.9969 199.998 41.3125C200.309 35.0031 206.229 32.8188 205.619 27.5964Z" fill="url(#paint18_linear_9671_32681)"/>
<path d="M181.084 37.3949C177.94 31.8171 191.985 34.6732 198.908 42.2865L200.045 44.0077C194.678 39.8113 184.767 43.9303 181.084 37.3949Z" fill="url(#paint19_linear_9671_32681)"/>
<path d="M180.162 23.5483C175.524 27.3364 190.397 28.0815 197.631 38.1068L198.295 37.4906C195.779 25.3175 184.945 19.6407 180.162 23.5483Z" fill="url(#paint20_linear_9671_32681)"/>
<path d="M185.023 87.3302C180.062 89.8235 189.95 94.5596 190.768 106.865L192.17 106.291C193.685 93.4137 189.985 84.837 185.023 87.3302Z" fill="url(#paint21_linear_9671_32681)"/>
<path d="M211.872 95.1903C202.307 96.3624 194.038 103.739 187.587 116.065L189.026 116.118C189.692 111.021 203.446 104.643 213.102 103.155C222.757 101.667 221.436 94.0183 211.872 95.1903Z" fill="url(#paint22_linear_9671_32681)"/>
<path d="M218.231 85.4748C218.597 81.2567 209.406 80.9228 198.611 95.55L199.669 95.5886C203.891 90.0318 217.773 90.751 218.231 85.4748Z" fill="url(#paint23_linear_9671_32681)"/>
<path d="M187.596 77.5437C190.573 74.404 199.773 83.5697 197.423 95.7734L197.043 96.975C196.444 89.6052 182.634 82.7777 187.596 77.5437Z" fill="url(#paint24_linear_9671_32681)"/>
<path d="M219.493 72.6049C216.496 70.2075 208.843 72.7111 203.111 85.2368L203.061 86.629C207.31 79.2223 225.137 77.1203 219.493 72.6049Z" fill="url(#paint25_linear_9671_32681)"/>
<path d="M213.406 53.7718C208.887 54.0765 207.514 63.3259 205.528 71.4264L205.415 74.5216C208.849 65.3475 211.826 63.5648 214.632 61.3189C217.438 59.073 217.924 53.4671 213.406 53.7718Z" fill="url(#paint26_linear_9671_32681)"/>
<path d="M189.257 69.5151C193.182 67.6813 201.112 68.4956 204.076 83.7608L202.455 86.1114C199.758 76.8565 180.996 73.375 189.257 69.5151Z" fill="url(#paint27_linear_9671_32681)"/>
<path d="M197.497 34.3091C209.759 63.7374 207.959 78.7524 202.723 89.779C201.43 92.5027 199.94 94.959 198.443 97.2955C196.933 99.6517 195.443 101.845 194.082 104.139C191.389 108.681 189.596 113.364 189.365 119.695H186.851C187.101 112.857 189.37 107.726 192.171 103.004C193.557 100.667 195.101 98.3859 196.568 96.0962C198.048 93.7864 199.48 91.4203 200.714 88.8227C205.585 78.5622 207.56 64.2464 195.443 35.1649L196.472 34.7371L197.497 34.3091Z" fill="url(#paint28_linear_9671_32681)"/>
<path d="M75.2713 81.8172C89.4482 99.6335 68.4427 98.9101 66.1258 101.365C66.4656 96.9212 53.8822 87.6914 75.2713 81.8172Z" fill="url(#paint29_linear_9671_32681)"/>
<path d="M75.2713 81.8172C89.4482 99.6335 68.4427 98.9101 66.1258 101.365C66.4656 96.9212 53.8822 87.6914 75.2713 81.8172Z" fill="url(#paint30_radial_9671_32681)"/>
<path d="M75.2713 81.8172C89.4482 99.6335 68.4427 98.9101 66.1258 101.365C66.4656 96.9212 53.8822 87.6914 75.2713 81.8172Z" fill="url(#paint31_radial_9671_32681)"/>
<path d="M75.2713 81.8172C89.4482 99.6335 68.4427 98.9101 66.1258 101.365C66.4656 96.9212 53.8822 87.6914 75.2713 81.8172Z" fill="url(#paint32_radial_9671_32681)"/>
<path d="M77.9273 81.4272C95.8525 79.1824 91.1177 94.3218 93.995 95.7419C88.2172 100.834 72.2084 97.9986 77.9273 81.4272Z" fill="url(#paint33_linear_9671_32681)"/>
<path d="M77.9273 81.4272C95.8525 79.1824 91.1177 94.3218 93.995 95.7419C88.2172 100.834 72.2084 97.9986 77.9273 81.4272Z" fill="url(#paint34_radial_9671_32681)"/>
<path d="M77.9273 81.4272C95.8525 79.1824 91.1177 94.3218 93.995 95.7419C88.2172 100.834 72.2084 97.9986 77.9273 81.4272Z" fill="url(#paint35_radial_9671_32681)"/>
<path d="M77.9273 81.4272C95.8525 79.1824 91.1177 94.3218 93.995 95.7419C88.2172 100.834 72.2084 97.9986 77.9273 81.4272Z" fill="url(#paint36_radial_9671_32681)"/>
<path d="M77.0745 78.4485C91.5623 94.3916 96.8318 79.8136 102.005 77.8926C97.179 76.805 90.782 58.7161 77.0745 78.4485Z" fill="url(#paint37_linear_9671_32681)"/>
<path d="M77.0745 78.4485C91.5623 94.3916 96.8318 79.8136 102.005 77.8926C97.179 76.805 90.782 58.7161 77.0745 78.4485Z" fill="url(#paint38_radial_9671_32681)"/>
<path d="M77.0745 78.4485C91.5623 94.3916 96.8318 79.8136 102.005 77.8926C97.179 76.805 90.782 58.7161 77.0745 78.4485Z" fill="url(#paint39_radial_9671_32681)"/>
<path d="M77.0745 78.4485C91.5623 94.3916 96.8318 79.8136 102.005 77.8926C97.179 76.805 90.782 58.7161 77.0745 78.4485Z" fill="url(#paint40_radial_9671_32681)"/>
<path d="M74.7946 76.6014C99.0472 80.5231 86.5443 60.1738 92.3871 56.7523C80.0438 53.3069 64.2274 64.2954 74.7946 76.6014Z" fill="url(#paint41_linear_9671_32681)"/>
<path d="M74.7946 76.6014C99.0472 80.5231 86.5443 60.1738 92.3871 56.7523C80.0438 53.3069 64.2274 64.2954 74.7946 76.6014Z" fill="url(#paint42_radial_9671_32681)"/>
<path d="M74.7946 76.6014C99.0472 80.5231 86.5443 60.1738 92.3871 56.7523C80.0438 53.3069 64.2274 64.2954 74.7946 76.6014Z" fill="url(#paint43_radial_9671_32681)"/>
<path d="M74.7946 76.6014C99.0472 80.5231 86.5443 60.1738 92.3871 56.7523C80.0438 53.3069 64.2274 64.2954 74.7946 76.6014Z" fill="url(#paint44_radial_9671_32681)"/>
<path d="M72.2334 78.2794C77.3611 56.5034 60.3099 59.2759 56.1661 56.1371C59.5443 65.6079 47.5267 73.9247 72.2334 78.2794Z" fill="url(#paint45_linear_9671_32681)"/>
<path d="M72.2334 78.2794C77.3611 56.5034 60.3099 59.2759 56.1661 56.1371C59.5443 65.6079 47.5267 73.9247 72.2334 78.2794Z" fill="url(#paint46_radial_9671_32681)"/>
<path d="M72.2334 78.2794C77.3611 56.5034 60.3099 59.2759 56.1661 56.1371C59.5443 65.6079 47.5267 73.9247 72.2334 78.2794Z" fill="url(#paint47_radial_9671_32681)"/>
<path d="M72.2334 78.2794C77.3611 56.5034 60.3099 59.2759 56.1661 56.1371C59.5443 65.6079 47.5267 73.9247 72.2334 78.2794Z" fill="url(#paint48_radial_9671_32681)"/>
<path d="M73.1472 79.0205C63.9309 92.0325 56.7462 90.6456 50.5719 83.7991C54.7172 82.5279 52.3587 68.5326 73.1472 79.0205Z" fill="url(#paint49_linear_9671_32681)"/>
<path d="M73.1472 79.0205C63.9309 92.0325 56.7462 90.6456 50.5719 83.7991C54.7172 82.5279 52.3587 68.5326 73.1472 79.0205Z" fill="url(#paint50_radial_9671_32681)"/>
<path d="M73.1472 79.0205C63.9309 92.0325 56.7462 90.6456 50.5719 83.7991C54.7172 82.5279 52.3587 68.5326 73.1472 79.0205Z" fill="url(#paint51_radial_9671_32681)"/>
<path d="M73.1472 79.0205C63.9309 92.0325 56.7462 90.6456 50.5719 83.7991C54.7172 82.5279 52.3587 68.5326 73.1472 79.0205Z" fill="url(#paint52_radial_9671_32681)"/>
<path d="M80.9855 70.7963C80.3249 69.3244 82.1203 65.7601 79.1961 64.5499C76.2718 63.3397 75.7956 66.4296 74.6651 66.0646C73.5346 65.6996 74.0415 63.9396 72.1633 63.9574C70.2851 63.9751 70.7772 67.173 69.6334 67.3562C68.4897 67.5395 66.456 65.4704 64.897 67.9856C63.338 70.5007 66.1829 70.4373 64.918 72.1367C63.6531 73.8362 62.4546 72.7944 62.2389 74.7302C62.0231 76.666 65.323 77.1891 65.5402 78.6713C65.7574 80.1535 64.2073 79.6939 63.795 81.0342C63.3827 82.3745 65.5432 85.5073 68.3155 86.9038C71.0877 88.3002 72.3083 85.8191 75.8756 86.6229C79.4429 87.4268 82.3894 85.1141 83.5864 82.7379C84.7833 80.3617 84.3519 76.4058 84.1243 74.4803C83.8967 72.5548 81.6461 72.2681 80.9855 70.7963Z" fill="url(#paint53_linear_9671_32681)"/>
<path d="M80.9855 70.7963C80.3249 69.3244 82.1203 65.7601 79.1961 64.5499C76.2718 63.3397 75.7956 66.4296 74.6651 66.0646C73.5346 65.6996 74.0415 63.9396 72.1633 63.9574C70.2851 63.9751 70.7772 67.173 69.6334 67.3562C68.4897 67.5395 66.456 65.4704 64.897 67.9856C63.338 70.5007 66.1829 70.4373 64.918 72.1367C63.6531 73.8362 62.4546 72.7944 62.2389 74.7302C62.0231 76.666 65.323 77.1891 65.5402 78.6713C65.7574 80.1535 64.2073 79.6939 63.795 81.0342C63.3827 82.3745 65.5432 85.5073 68.3155 86.9038C71.0877 88.3002 72.3083 85.8191 75.8756 86.6229C79.4429 87.4268 82.3894 85.1141 83.5864 82.7379C84.7833 80.3617 84.3519 76.4058 84.1243 74.4803C83.8967 72.5548 81.6461 72.2681 80.9855 70.7963Z" fill="url(#paint54_radial_9671_32681)"/>
<path d="M80.9855 70.7963C80.3249 69.3244 82.1203 65.7601 79.1961 64.5499C76.2718 63.3397 75.7956 66.4296 74.6651 66.0646C73.5346 65.6996 74.0415 63.9396 72.1633 63.9574C70.2851 63.9751 70.7772 67.173 69.6334 67.3562C68.4897 67.5395 66.456 65.4704 64.897 67.9856C63.338 70.5007 66.1829 70.4373 64.918 72.1367C63.6531 73.8362 62.4546 72.7944 62.2389 74.7302C62.0231 76.666 65.323 77.1891 65.5402 78.6713C65.7574 80.1535 64.2073 79.6939 63.795 81.0342C63.3827 82.3745 65.5432 85.5073 68.3155 86.9038C71.0877 88.3002 72.3083 85.8191 75.8756 86.6229C79.4429 87.4268 82.3894 85.1141 83.5864 82.7379C84.7833 80.3617 84.3519 76.4058 84.1243 74.4803C83.8967 72.5548 81.6461 72.2681 80.9855 70.7963Z" fill="url(#paint55_radial_9671_32681)"/>
<path d="M80.9855 70.7963C80.3249 69.3244 82.1203 65.7601 79.1961 64.5499C76.2718 63.3397 75.7956 66.4296 74.6651 66.0646C73.5346 65.6996 74.0415 63.9396 72.1633 63.9574C70.2851 63.9751 70.7772 67.173 69.6334 67.3562C68.4897 67.5395 66.456 65.4704 64.897 67.9856C63.338 70.5007 66.1829 70.4373 64.918 72.1367C63.6531 73.8362 62.4546 72.7944 62.2389 74.7302C62.0231 76.666 65.323 77.1891 65.5402 78.6713C65.7574 80.1535 64.2073 79.6939 63.795 81.0342C63.3827 82.3745 65.5432 85.5073 68.3155 86.9038C71.0877 88.3002 72.3083 85.8191 75.8756 86.6229C79.4429 87.4268 82.3894 85.1141 83.5864 82.7379C84.7833 80.3617 84.3519 76.4058 84.1243 74.4803C83.8967 72.5548 81.6461 72.2681 80.9855 70.7963Z" fill="url(#paint56_radial_9671_32681)"/>
<path d="M80.9855 70.7963C80.3249 69.3244 82.1203 65.7601 79.1961 64.5499C76.2718 63.3397 75.7956 66.4296 74.6651 66.0646C73.5346 65.6996 74.0415 63.9396 72.1633 63.9574C70.2851 63.9751 70.7772 67.173 69.6334 67.3562C68.4897 67.5395 66.456 65.4704 64.897 67.9856C63.338 70.5007 66.1829 70.4373 64.918 72.1367C63.6531 73.8362 62.4546 72.7944 62.2389 74.7302C62.0231 76.666 65.323 77.1891 65.5402 78.6713C65.7574 80.1535 64.2073 79.6939 63.795 81.0342C63.3827 82.3745 65.5432 85.5073 68.3155 86.9038C71.0877 88.3002 72.3083 85.8191 75.8756 86.6229C79.4429 87.4268 82.3894 85.1141 83.5864 82.7379C84.7833 80.3617 84.3519 76.4058 84.1243 74.4803C83.8967 72.5548 81.6461 72.2681 80.9855 70.7963Z" fill="url(#paint57_radial_9671_32681)"/>
<path d="M80.9855 70.7963C80.3249 69.3244 82.1203 65.7601 79.1961 64.5499C76.2718 63.3397 75.7956 66.4296 74.6651 66.0646C73.5346 65.6996 74.0415 63.9396 72.1633 63.9574C70.2851 63.9751 70.7772 67.173 69.6334 67.3562C68.4897 67.5395 66.456 65.4704 64.897 67.9856C63.338 70.5007 66.1829 70.4373 64.918 72.1367C63.6531 73.8362 62.4546 72.7944 62.2389 74.7302C62.0231 76.666 65.323 77.1891 65.5402 78.6713C65.7574 80.1535 64.2073 79.6939 63.795 81.0342C63.3827 82.3745 65.5432 85.5073 68.3155 86.9038C71.0877 88.3002 72.3083 85.8191 75.8756 86.6229C79.4429 87.4268 82.3894 85.1141 83.5864 82.7379C84.7833 80.3617 84.3519 76.4058 84.1243 74.4803C83.8967 72.5548 81.6461 72.2681 80.9855 70.7963Z" fill="url(#paint58_radial_9671_32681)"/>
<path d="M80.9855 70.7963C80.3249 69.3244 82.1203 65.7601 79.1961 64.5499C76.2718 63.3397 75.7956 66.4296 74.6651 66.0646C73.5346 65.6996 74.0415 63.9396 72.1633 63.9574C70.2851 63.9751 70.7772 67.173 69.6334 67.3562C68.4897 67.5395 66.456 65.4704 64.897 67.9856C63.338 70.5007 66.1829 70.4373 64.918 72.1367C63.6531 73.8362 62.4546 72.7944 62.2389 74.7302C62.0231 76.666 65.323 77.1891 65.5402 78.6713C65.7574 80.1535 64.2073 79.6939 63.795 81.0342C63.3827 82.3745 65.5432 85.5073 68.3155 86.9038C71.0877 88.3002 72.3083 85.8191 75.8756 86.6229C79.4429 87.4268 82.3894 85.1141 83.5864 82.7379C84.7833 80.3617 84.3519 76.4058 84.1243 74.4803C83.8967 72.5548 81.6461 72.2681 80.9855 70.7963Z" fill="url(#paint59_radial_9671_32681)"/>
<path d="M66.733 75.0924C65.8304 79.0978 68.114 83.0242 71.8336 83.8623C75.5531 84.7005 79.3001 82.133 80.2027 78.1277C81.1052 74.1224 78.8216 70.196 75.1021 69.3578C71.3825 68.5197 67.6355 71.0871 66.733 75.0924Z" fill="url(#paint60_radial_9671_32681)"/>
<path d="M70.5008 77.6248C69.9524 80.0585 71.34 82.4442 73.6 82.9535C75.8601 83.4628 78.1368 81.9028 78.6852 79.4691C79.2336 77.0354 77.8461 74.6496 75.586 74.1404C73.326 73.6311 71.0492 75.1911 70.5008 77.6248Z" fill="url(#paint61_radial_9671_32681)"/>
<path fill-rule="evenodd" clip-rule="evenodd" d="M64.0604 82.6252C64.7275 84.0948 66.3697 85.926 68.3124 86.9046C69.7549 87.6312 70.7773 87.308 71.9288 86.944C72.9903 86.6084 74.1614 86.2382 75.8726 86.6238C79.4399 87.4276 82.3864 85.1149 83.5834 82.7387C84.7803 80.3625 84.3489 76.4067 84.1213 74.4812C84.0301 73.7101 83.6146 73.2019 83.1067 72.7751C83.1728 78.3611 80.5584 79.9725 79.2575 79.4427C78.5194 79.142 78.0648 79.9573 77.5862 80.8154C77.1636 81.5733 76.7223 82.3646 76.0506 82.4504C75.6996 82.4953 75.3114 82.4862 74.9 82.4766C73.6326 82.4469 72.1452 82.4121 70.8477 83.9336C69.2517 85.805 66.4894 84.1425 64.0604 82.6252Z" fill="url(#paint62_linear_9671_32681)"/>
<path fill-rule="evenodd" clip-rule="evenodd" d="M64.0604 82.6252C64.7275 84.0948 66.3697 85.926 68.3124 86.9046C69.7549 87.6312 70.7773 87.308 71.9288 86.944C72.9903 86.6084 74.1614 86.2382 75.8726 86.6238C79.4399 87.4276 82.3864 85.1149 83.5834 82.7387C84.7803 80.3625 84.3489 76.4067 84.1213 74.4812C84.0301 73.7101 83.6146 73.2019 83.1067 72.7751C83.1728 78.3611 80.5584 79.9725 79.2575 79.4427C78.5194 79.142 78.0648 79.9573 77.5862 80.8154C77.1636 81.5733 76.7223 82.3646 76.0506 82.4504C75.6996 82.4953 75.3114 82.4862 74.9 82.4766C73.6326 82.4469 72.1452 82.4121 70.8477 83.9336C69.2517 85.805 66.4894 84.1425 64.0604 82.6252Z" fill="url(#paint63_radial_9671_32681)"/>
<path d="M163.008 6.48389C159.06 7.19724 162.098 17.1259 165.069 17.8884L165.758 17.7638C168.313 15.6067 166.956 5.77053 163.008 6.48389Z" fill="url(#paint64_linear_9671_32681)"/>
<path d="M167.3 28.147C171.248 27.4336 168.21 17.505 165.239 16.7425L164.55 16.867C161.995 19.0242 163.352 28.8603 167.3 28.147Z" fill="url(#paint65_linear_9671_32681)"/>
<path d="M154.671 14.1631C153.314 17.9387 163.432 20.2724 165.578 18.0807L165.814 17.4214C165.223 14.1306 156.027 10.3875 154.671 14.1631Z" fill="url(#paint66_linear_9671_32681)"/>
<path d="M175.57 20.7495C176.926 16.9739 166.809 14.6402 164.663 16.8319L164.426 17.4912C165.017 20.782 174.214 24.5251 175.57 20.7495Z" fill="url(#paint67_linear_9671_32681)"/>
<path d="M173.399 10.4512C170.807 7.38895 163.727 14.9839 164.552 17.9381L165.005 18.4728C168.15 19.6064 175.99 13.5134 173.399 10.4512Z" fill="url(#paint68_linear_9671_32681)"/>
<path d="M156.84 24.4614C159.432 27.5237 166.511 19.9287 165.686 16.9745L165.234 16.4398C162.088 15.3062 154.248 21.3992 156.84 24.4614Z" fill="url(#paint69_linear_9671_32681)"/>
<path d="M168.746 16.8937C169.112 18.9195 167.766 20.8584 165.741 21.2245C163.715 21.5905 161.776 20.2451 161.41 18.2193C161.044 16.1935 162.389 14.2545 164.415 13.8885C166.441 13.5224 168.38 14.8679 168.746 16.8937Z" fill="url(#paint70_radial_9671_32681)"/>
<path d="M57.0675 26.0876C52.2492 24.3824 49.3364 37.2861 52.1415 40.0069L52.9829 40.3047C57.1719 39.5321 61.8858 27.7928 57.0675 26.0876Z" fill="url(#paint71_linear_9671_32681)"/>
<path d="M48.1283 52.7645C52.9466 54.4696 55.8594 41.566 53.0543 38.8451L52.2129 38.5474C48.0239 39.3199 43.31 51.0593 48.1283 52.7645Z" fill="url(#paint72_linear_9671_32681)"/>
<path d="M42.9916 29.3132C39.1057 32.6334 48.8242 41.6078 52.583 40.539L53.2616 39.9592C54.6871 35.9451 46.8775 25.993 42.9916 29.3132Z" fill="url(#paint73_linear_9671_32681)"/>
<path d="M61.9498 49.8069C65.8357 46.4867 56.1172 37.5123 52.3584 38.5812L51.6798 39.161C50.2543 43.1751 58.0639 53.1271 61.9498 49.8069Z" fill="url(#paint74_linear_9671_32681)"/>
<path d="M66.0578 37.0419C65.1254 32.0165 52.4941 35.9459 51.5403 39.7355L51.7032 40.6131C54.4667 43.8547 66.9903 42.0673 66.0578 37.0419Z" fill="url(#paint75_linear_9671_32681)"/>
<path d="M38.8836 42.0782C39.816 47.1036 52.4473 43.1743 53.4011 39.3846L53.2382 38.507C50.4747 35.2655 37.9511 37.0528 38.8836 42.0782Z" fill="url(#paint76_linear_9671_32681)"/>
<path d="M56.8381 41.229C55.9631 43.7015 53.2494 44.9965 50.7769 44.1215C48.3044 43.2465 47.0094 40.5328 47.8844 38.0603C48.7594 35.5878 51.4731 34.2928 53.9456 35.1678C56.4181 36.0428 57.7131 38.7565 56.8381 41.229Z" fill="url(#paint77_radial_9671_32681)"/>
<path d="M145.266 67.8174C138.221 72.6664 128.068 94.6052 149.895 98.497C164.358 109.774 172.945 101.447 176.026 98.1726C179.108 94.898 180.115 88.2498 179.211 89.491C176.759 92.7147 166.119 96.5999 166.11 93.7694C166.101 90.939 176.666 91.2731 180.177 84.9809C182.782 80.3135 179.041 72.0028 178.574 73.4405C178.106 74.8782 171.514 80.8532 171.035 79.5862C170.556 78.3191 176.808 73.4202 177.914 68.4404C179.021 63.4606 170.086 46.8173 167.4 52.5341C166.023 55.4639 161.732 56.1991 160.303 58.5632C155.947 65.7717 161.161 76.2532 159.149 76.2148C154.113 76.4332 158.199 60.0945 157.957 59.5868C157.715 59.079 149.732 63.5073 148.63 67.146C147.038 72.3988 150.963 89.4845 149.056 87.6571C142.694 81.56 146.672 66.8507 145.266 67.8174Z" fill="url(#paint78_radial_9671_32681)"/>
<path d="M145.266 67.8174C138.221 72.6664 128.068 94.6052 149.895 98.497C164.358 109.774 172.945 101.447 176.026 98.1726C179.108 94.898 180.115 88.2498 179.211 89.491C176.759 92.7147 166.119 96.5999 166.11 93.7694C166.101 90.939 176.666 91.2731 180.177 84.9809C182.782 80.3135 179.041 72.0028 178.574 73.4405C178.106 74.8782 171.514 80.8532 171.035 79.5862C170.556 78.3191 176.808 73.4202 177.914 68.4404C179.021 63.4606 170.086 46.8173 167.4 52.5341C166.023 55.4639 161.732 56.1991 160.303 58.5632C155.947 65.7717 161.161 76.2532 159.149 76.2148C154.113 76.4332 158.199 60.0945 157.957 59.5868C157.715 59.079 149.732 63.5073 148.63 67.146C147.038 72.3988 150.963 89.4845 149.056 87.6571C142.694 81.56 146.672 66.8507 145.266 67.8174Z" fill="url(#paint79_radial_9671_32681)"/>
<path d="M145.266 67.8174C138.221 72.6664 128.068 94.6052 149.895 98.497C164.358 109.774 172.945 101.447 176.026 98.1726C179.108 94.898 180.115 88.2498 179.211 89.491C176.759 92.7147 166.119 96.5999 166.11 93.7694C166.101 90.939 176.666 91.2731 180.177 84.9809C182.782 80.3135 179.041 72.0028 178.574 73.4405C178.106 74.8782 171.514 80.8532 171.035 79.5862C170.556 78.3191 176.808 73.4202 177.914 68.4404C179.021 63.4606 170.086 46.8173 167.4 52.5341C166.023 55.4639 161.732 56.1991 160.303 58.5632C155.947 65.7717 161.161 76.2532 159.149 76.2148C154.113 76.4332 158.199 60.0945 157.957 59.5868C157.715 59.079 149.732 63.5073 148.63 67.146C147.038 72.3988 150.963 89.4845 149.056 87.6571C142.694 81.56 146.672 66.8507 145.266 67.8174Z" fill="url(#paint80_radial_9671_32681)"/>
<path d="M168.501 51.7744L169.415 51.806C173.95 95.5617 141.395 93.2246 142.322 119.961H136.581C136.178 89.2456 172.752 98.3278 168.501 51.7744Z" fill="url(#paint81_radial_9671_32681)"/>
<path d="M168.501 51.7744L169.415 51.806C173.95 95.5617 141.395 93.2246 142.322 119.961H136.581C136.178 89.2456 172.752 98.3278 168.501 51.7744Z" fill="url(#paint82_radial_9671_32681)"/>
<path d="M25.2473 100.624C29.9438 101.794 41.8048 103.217 45.5726 101.608L48.5501 104.436C44.0751 106.618 30.4006 104.518 25.3208 102.033L25.2473 100.624ZM49.357 74.9303C47.9113 81.4496 46.898 97.4341 50.9242 104.957L46.7204 100.338C43.9954 90.9785 46.8003 79.5279 48.5423 74.9728L49.357 74.9303ZM21.4984 95.2952C26.1293 96.7034 37.9026 98.7315 41.747 97.3165L44.5742 100.292C39.9936 102.243 26.4462 99.4491 21.4999 96.7078L21.4984 95.2952ZM47.1587 73.7993C44.0636 79.4238 41.3079 89.5301 44.4555 98.1906L40.3029 93.9482C39.1189 85.8625 43.0768 77.6408 46.7133 73.3081L47.1587 73.7993ZM15.217 85.3733C21.2722 90.006 34.0286 93.8993 38.0419 93.6916L40.6113 96.2249C34.2027 98.6955 21.9888 91.751 16.6839 87.9686L15.217 85.3733ZM43.2054 70.0023C40.0788 75.2601 36.912 84.9821 39.0074 93.8578L35.7026 89.2552C35.2781 81.1414 39.3506 73.3972 42.8527 69.4701L43.2054 70.0023ZM15.9165 79.5777C25.4233 87.0945 31.0757 89.024 34.0747 88.7625L36.1238 91.878C28.6012 92.2707 19.6477 85.8233 16.0227 81.6122L15.9165 79.5777ZM39.5791 67.109C37.1881 71.2114 32.995 81.2232 34.607 88.1524L31.7451 84.3391C31.4147 78.005 36.3073 69.543 38.9867 66.481L39.5791 67.109ZM33.5751 61.4647C32.2248 63.5134 29.6155 69.3007 29.1434 77.0369C30.4355 71.7121 33.804 66.1499 35.8675 63.7913L36.4644 64.4191C34.0896 68.4933 29.9384 78.3957 31.4623 85.3197L32.2958 86.5896C26.5875 86.8875 18.2263 80.3821 14.6013 76.1711L14.5459 75.1088C18.3035 78.4138 27.3316 83.2157 29.9792 83.4519L28.6259 81.6495C28.6139 81.419 28.624 81.1857 28.6255 80.9499C23.187 80.2896 16.0569 74.6553 12.8184 70.8933L12.7646 69.8625C16.5513 73.1929 25.8448 78.1066 28.0199 77.9937L28.7455 79.0977C28.7646 78.9538 28.7903 78.8102 28.8132 78.6654L26.8453 75.4643C27.6309 67.797 31.5734 62.1652 33.0313 60.8161L33.5751 61.4647ZM11.9626 63.7482C14.956 66.8932 20.6066 71.4508 24.0202 71.8386L25.8046 76.0196C21.2766 75.0773 14.4367 68.9886 12.0253 64.95L11.9626 63.7482ZM30.3003 56.6574C28.8336 58.8832 25.8801 65.5185 25.7944 74.269L23.5749 70.6568C24.3608 62.9868 28.3042 57.3552 29.7609 56.0086L30.3003 56.6574ZM27.9242 49.7C26.5666 51.9737 23.5392 58.7492 22.7684 68.1759L23.2385 69.6589C18.8246 68.279 12.6123 61.5565 10.6061 57.3017L10.6604 56.0938C13.3283 59.511 18.4964 64.5902 21.8567 65.3214L21.4614 64.0603C22.7074 55.8545 26.1825 51.0129 27.463 49.6835L27.9242 49.7ZM10.6988 47.4036C13.4762 52.5744 17.6581 57.3621 20.2397 58.6403L21.2468 62.37C18.6091 60.5579 12.7135 55.1506 10.2392 48.0233L10.6988 47.4036ZM12.6977 43.5035C14.8885 48.2636 18.1657 52.678 20.1757 53.8686L20.5938 55.6521C22.2262 48.9058 25.4456 45.1 26.6103 44.0682L27.0006 44.111C25.692 45.9544 22.6622 51.5208 21.3719 59.4929L20.826 57.1609C18.6989 55.3622 14.2647 50.4557 12.3436 44.0681L12.6977 43.5035Z" fill="url(#paint83_radial_9671_32681)"/>
<path d="M55.265 119.934C54.8183 97.8011 15.1889 90.4406 20.0085 43.1262L20.9855 43.0752C19.1703 90.939 57.5641 95.163 58.0221 119.933L55.265 119.934Z" fill="url(#paint84_linear_9671_32681)"/>
<defs>
<linearGradient id="paint0_linear_9671_32681" x1="157.642" y1="17.0512" x2="97.15" y2="142.763" gradientUnits="userSpaceOnUse">
<stop stop-color="#E7A400"/>
<stop offset="1" stop-color="#592A00"/>
</linearGradient>
<radialGradient id="paint1_radial_9671_32681" cx="0" cy="0" r="1" gradientUnits="userSpaceOnUse" gradientTransform="translate(69.6223 103.237) rotate(20.4025) scale(35.2144 13.3572)">
<stop stop-color="#C2DE15"/>
<stop offset="1" stop-color="#2F5D16"/>
</radialGradient>
<linearGradient id="paint2_linear_9671_32681" x1="46.4495" y1="32.8086" x2="145.027" y2="143.84" gradientUnits="userSpaceOnUse">
<stop stop-color="#C2DE15"/>
<stop offset="1" stop-color="#2F5D16"/>
</linearGradient>
<linearGradient id="paint3_linear_9671_32681" x1="177.945" y1="33.2179" x2="104.864" y2="0.203238" gradientUnits="userSpaceOnUse">
<stop stop-color="#38FFA7"/>
<stop offset="1" stop-color="#38FFA7" stop-opacity="0"/>
</linearGradient>
<linearGradient id="paint4_linear_9671_32681" x1="185.907" y1="75.5087" x2="184.79" y2="24.0564" gradientUnits="userSpaceOnUse">
<stop stop-color="#000202"/>
<stop offset="1" stop-color="#000202" stop-opacity="0"/>
</linearGradient>
<linearGradient id="paint5_linear_9671_32681" x1="149.455" y1="9.91327" x2="116.405" y2="0.769525" gradientUnits="userSpaceOnUse">
<stop stop-color="#38FFA7"/>
<stop offset="1" stop-color="#38FFA7" stop-opacity="0"/>
</linearGradient>
<linearGradient id="paint6_linear_9671_32681" x1="141.88" y1="76.8504" x2="107.918" y2="22.8315" gradientUnits="userSpaceOnUse">
<stop stop-color="#000202"/>
<stop offset="1" stop-color="#000202" stop-opacity="0"/>
</linearGradient>
<linearGradient id="paint7_linear_9671_32681" x1="134.62" y1="12.7854" x2="79.9258" y2="-5.46894" gradientUnits="userSpaceOnUse">
<stop stop-color="#38FFA7"/>
<stop offset="1" stop-color="#38FFA7" stop-opacity="0"/>
</linearGradient>
<linearGradient id="paint8_linear_9671_32681" x1="134.166" y1="70.1691" x2="118.277" y2="4.58878" gradientUnits="userSpaceOnUse">
<stop stop-color="#000202"/>
<stop offset="1" stop-color="#000202" stop-opacity="0"/>
</linearGradient>
<linearGradient id="paint9_linear_9671_32681" x1="135.276" y1="26.6548" x2="54.062" y2="-4.62181" gradientUnits="userSpaceOnUse">
<stop stop-color="#38FFA7"/>
<stop offset="1" stop-color="#38FFA7" stop-opacity="0"/>
</linearGradient>
<linearGradient id="paint10_linear_9671_32681" x1="140.25" y1="88.2259" x2="132.083" y2="13.821" gradientUnits="userSpaceOnUse">
<stop stop-color="#000202"/>
<stop offset="1" stop-color="#000202" stop-opacity="0"/>
</linearGradient>
<linearGradient id="paint11_linear_9671_32681" x1="128.233" y1="36.0548" x2="86.9955" y2="24.8318" gradientUnits="userSpaceOnUse">
<stop stop-color="#38FFA7"/>
<stop offset="1" stop-color="#38FFA7" stop-opacity="0"/>
</linearGradient>
<linearGradient id="paint12_linear_9671_32681" x1="117.198" y1="126.659" x2="70.1818" y2="58.4574" gradientUnits="userSpaceOnUse">
<stop stop-color="#000202"/>
<stop offset="1" stop-color="#000202" stop-opacity="0"/>
</linearGradient>
<linearGradient id="paint13_linear_9671_32681" x1="155.285" y1="46.9749" x2="108.964" y2="22.3966" gradientUnits="userSpaceOnUse">
<stop stop-color="#38FFA7"/>
<stop offset="1" stop-color="#38FFA7" stop-opacity="0"/>
</linearGradient>
<linearGradient id="paint14_linear_9671_32681" x1="140.71" y1="108.855" x2="130.734" y2="37.7179" gradientUnits="userSpaceOnUse">
<stop stop-color="#000202"/>
<stop offset="1" stop-color="#000202" stop-opacity="0"/>
</linearGradient>
<linearGradient id="paint15_linear_9671_32681" x1="199.597" y1="48.9482" x2="197.408" y2="70.8874" gradientUnits="userSpaceOnUse">
<stop stop-color="#FFC314"/>
<stop offset="1" stop-color="#1F8D1C"/>
</linearGradient>
<linearGradient id="paint16_linear_9671_32681" x1="210.79" y1="30.5867" x2="206.081" y2="56.6226" gradientUnits="userSpaceOnUse">
<stop stop-color="#FFC314"/>
<stop offset="1" stop-color="#1F8D1C"/>
</linearGradient>
<linearGradient id="paint17_linear_9671_32681" x1="197.059" y1="40.0752" x2="195.916" y2="54.8891" gradientUnits="userSpaceOnUse">
<stop stop-color="#FFC314"/>
<stop offset="1" stop-color="#1F8D1C"/>
</linearGradient>
<linearGradient id="paint18_linear_9671_32681" x1="203.639" y1="17.6253" x2="198.699" y2="40.7114" gradientUnits="userSpaceOnUse">
<stop stop-color="#FFC314"/>
<stop offset="1" stop-color="#1F8D1C"/>
</linearGradient>
<linearGradient id="paint19_linear_9671_32681" x1="193.484" y1="30.1406" x2="192.512" y2="43.8126" gradientUnits="userSpaceOnUse">
<stop stop-color="#FFC314"/>
<stop offset="1" stop-color="#1F8D1C"/>
</linearGradient>
<linearGradient id="paint20_linear_9671_32681" x1="192.149" y1="14.5582" x2="189.896" y2="37.9053" gradientUnits="userSpaceOnUse">
<stop stop-color="#FFC314"/>
<stop offset="1" stop-color="#1F8D1C"/>
</linearGradient>
<linearGradient id="paint21_linear_9671_32681" x1="182.71" y1="76.7043" x2="187.188" y2="106.658" gradientUnits="userSpaceOnUse">
<stop stop-color="#FFC314"/>
<stop offset="1" stop-color="#1F8D1C"/>
</linearGradient>
<linearGradient id="paint22_linear_9671_32681" x1="208.988" y1="83.2965" x2="205.973" y2="116.878" gradientUnits="userSpaceOnUse">
<stop stop-color="#FFC314"/>
<stop offset="1" stop-color="#1F8D1C"/>
</linearGradient>
<linearGradient id="paint23_linear_9671_32681" x1="211.681" y1="75.8363" x2="209.883" y2="96.0483" gradientUnits="userSpaceOnUse">
<stop stop-color="#FFC314"/>
<stop offset="1" stop-color="#1F8D1C"/>
</linearGradient>
<linearGradient id="paint24_linear_9671_32681" x1="199.582" y1="70.7674" x2="189.751" y2="94.668" gradientUnits="userSpaceOnUse">
<stop stop-color="#FFC314"/>
<stop offset="1" stop-color="#1F8D1C"/>
</linearGradient>
<linearGradient id="paint25_linear_9671_32681" x1="214.854" y1="63.6099" x2="212.39" y2="87.0247" gradientUnits="userSpaceOnUse">
<stop stop-color="#FFC314"/>
<stop offset="1" stop-color="#1F8D1C"/>
</linearGradient>
<linearGradient id="paint26_linear_9671_32681" x1="213.452" y1="42.6277" x2="207.553" y2="74.115" gradientUnits="userSpaceOnUse">
<stop stop-color="#FFC314"/>
<stop offset="1" stop-color="#1F8D1C"/>
</linearGradient>
<linearGradient id="paint27_linear_9671_32681" x1="196.205" y1="61.2698" x2="192.959" y2="84.2578" gradientUnits="userSpaceOnUse">
<stop stop-color="#FFC314"/>
<stop offset="1" stop-color="#1F8D1C"/>
</linearGradient>
<linearGradient id="paint28_linear_9671_32681" x1="219.508" y1="47.122" x2="187.419" y2="164.49" gradientUnits="userSpaceOnUse">
<stop stop-color="#168013"/>
<stop offset="1" stop-color="#FFC829"/>
</linearGradient>
<linearGradient id="paint29_linear_9671_32681" x1="68.023" y1="83.2803" x2="63.1235" y2="109.99" gradientUnits="userSpaceOnUse">
<stop stop-color="#D6006A"/>
<stop offset="1" stop-color="#FF994F"/>
</linearGradient>
<radialGradient id="paint30_radial_9671_32681" cx="0" cy="0" r="1" gradientUnits="userSpaceOnUse" gradientTransform="translate(70.2394 90.7862) rotate(112.122) scale(10.3902 9.57944)">
<stop offset="0.355" stop-color="#FF90C2" stop-opacity="0.4"/>
<stop offset="1" stop-color="#FF90C2" stop-opacity="0"/>
</radialGradient>
<radialGradient id="paint31_radial_9671_32681" cx="0" cy="0" r="1" gradientUnits="userSpaceOnUse" gradientTransform="translate(67.3315 90.4121) rotate(112.768) scale(12.5979 13.6012)">
<stop offset="0.549111" stop-color="#FF349B" stop-opacity="0"/>
<stop offset="1" stop-color="#BA0175"/>
</radialGradient>
<radialGradient id="paint32_radial_9671_32681" cx="0" cy="0" r="1" gradientUnits="userSpaceOnUse" gradientTransform="translate(80.1437 78.161) rotate(121.319) scale(24.4302 4.34565)">
<stop stop-color="#C8007D"/>
<stop offset="1" stop-color="#FF349B" stop-opacity="0"/>
</radialGradient>
<linearGradient id="paint33_linear_9671_32681" x1="85.1029" y1="79.187" x2="101.574" y2="104.406" gradientUnits="userSpaceOnUse">
<stop stop-color="#D6006A"/>
<stop offset="1" stop-color="#FF994F"/>
</linearGradient>
<radialGradient id="paint34_radial_9671_32681" cx="0" cy="0" r="1" gradientUnits="userSpaceOnUse" gradientTransform="translate(86.2721 87.6747) rotate(53.93) scale(11.2993 7.95484)">
<stop offset="0.355" stop-color="#FF90C2" stop-opacity="0.7"/>
<stop offset="1" stop-color="#FF90C2" stop-opacity="0"/>
</radialGradient>
<radialGradient id="paint35_radial_9671_32681" cx="0" cy="0" r="1" gradientUnits="userSpaceOnUse" gradientTransform="translate(89.0125 87.4782) rotate(51.8975) scale(14.5172 14.206)">
<stop offset="0.679119" stop-color="#FF349B" stop-opacity="0"/>
<stop offset="1" stop-color="#510033"/>
</radialGradient>
<radialGradient id="paint36_radial_9671_32681" cx="0" cy="0" r="1" gradientUnits="userSpaceOnUse" gradientTransform="translate(73.9053 76.9319) rotate(46.6867) scale(25.7153 3.72827)">
<stop stop-color="#C8007D"/>
<stop offset="1" stop-color="#FF349B" stop-opacity="0"/>
</radialGradient>
<linearGradient id="paint37_linear_9671_32681" x1="81.5862" y1="85.4409" x2="112.921" y2="79.5576" gradientUnits="userSpaceOnUse">
<stop stop-color="#D6006A"/>
<stop offset="1" stop-color="#FF994F"/>
</linearGradient>
<radialGradient id="paint38_radial_9671_32681" cx="0" cy="0" r="1" gradientUnits="userSpaceOnUse" gradientTransform="translate(89.2469 76.6004) rotate(9.21919) scale(11.6759 9.09186)">
<stop offset="0.355" stop-color="#FF90C2"/>
<stop offset="1" stop-color="#FF90C2" stop-opacity="0"/>
</radialGradient>
<radialGradient id="paint39_radial_9671_32681" cx="0" cy="0" r="1" gradientUnits="userSpaceOnUse" gradientTransform="translate(91.5741 72.446) rotate(31.0379) scale(17.0078 15.7298)">
<stop offset="0.679119" stop-color="#FF349B" stop-opacity="0"/>
<stop offset="1" stop-color="#C8007D"/>
</radialGradient>
<radialGradient id="paint40_radial_9671_32681" cx="0" cy="0" r="1" gradientUnits="userSpaceOnUse" gradientTransform="translate(71.3325 75.8514) rotate(4.84396) scale(27.6215 4.38226)">
<stop stop-color="#C8007D"/>
<stop offset="1" stop-color="#FF349B" stop-opacity="0"/>
</radialGradient>
<linearGradient id="paint41_linear_9671_32681" x1="80.3469" y1="76.6666" x2="95.6153" y2="45.8079" gradientUnits="userSpaceOnUse">
<stop stop-color="#D6006A"/>
<stop offset="1" stop-color="#FF994F"/>
</linearGradient>
<radialGradient id="paint42_radial_9671_32681" cx="0" cy="0" r="1" gradientUnits="userSpaceOnUse" gradientTransform="translate(81.7234 67.4699) rotate(-48.471) scale(13.3663 9.94656)">
<stop offset="0.355" stop-color="#FF90C2"/>
<stop offset="1" stop-color="#FF90C2" stop-opacity="0"/>
</radialGradient>
<radialGradient id="paint43_radial_9671_32681" cx="0" cy="0" r="1" gradientUnits="userSpaceOnUse" gradientTransform="translate(85.4779 67.6262) rotate(-46.3406) scale(17.3179 15.0858)">
<stop offset="0.679119" stop-color="#FF349B" stop-opacity="0"/>
<stop offset="1" stop-color="#510033"/>
</radialGradient>
<radialGradient id="paint44_radial_9671_32681" cx="0" cy="0" r="1" gradientUnits="userSpaceOnUse" gradientTransform="translate(65.0863 79.3323) rotate(-41.04) scale(31.3461 4.52395)">
<stop stop-color="#C8007D"/>
<stop offset="1" stop-color="#FF349B" stop-opacity="0"/>
</radialGradient>
<linearGradient id="paint45_linear_9671_32681" x1="74.7386" y1="70.5086" x2="49.2435" y2="47.4391" gradientUnits="userSpaceOnUse">
<stop stop-color="#FF027F"/>
<stop offset="1" stop-color="#FF994F"/>
</linearGradient>
<radialGradient id="paint46_radial_9671_32681" cx="0" cy="0" r="1" gradientUnits="userSpaceOnUse" gradientTransform="translate(65.9177 67.0796) rotate(-130.463) scale(12.9893 8.8061)">
<stop offset="0.355" stop-color="#FF90C2"/>
<stop offset="1" stop-color="#FF90C2" stop-opacity="0"/>
</radialGradient>
<radialGradient id="paint47_radial_9671_32681" cx="0" cy="0" r="1" gradientUnits="userSpaceOnUse" gradientTransform="translate(66.6668 63.982) rotate(-128.511) scale(16.7314 13.4343)">
<stop offset="0.679119" stop-color="#FF349B" stop-opacity="0"/>
<stop offset="1" stop-color="#C8007D"/>
</radialGradient>
<radialGradient id="paint48_radial_9671_32681" cx="0" cy="0" r="1" gradientUnits="userSpaceOnUse" gradientTransform="translate(74.9383 83.9172) rotate(-123.55) scale(29.8181 4.09171)">
<stop stop-color="#510033"/>
<stop offset="1" stop-color="#FF349B" stop-opacity="0"/>
</radialGradient>
<linearGradient id="paint49_linear_9671_32681" x1="67.705" y1="74.2051" x2="41.1023" y2="86.5812" gradientUnits="userSpaceOnUse">
<stop stop-color="#D6006A"/>
<stop offset="1" stop-color="#FF994F"/>
</linearGradient>
<radialGradient id="paint50_radial_9671_32681" cx="0" cy="0" r="1" gradientUnits="userSpaceOnUse" gradientTransform="translate(62.1454 80.1414) rotate(162.445) scale(11.0842 7.81871)">
<stop offset="0.355" stop-color="#FF90C2" stop-opacity="0.7"/>
<stop offset="1" stop-color="#FF90C2" stop-opacity="0"/>
</radialGradient>
<radialGradient id="paint51_radial_9671_32681" cx="0" cy="0" r="1" gradientUnits="userSpaceOnUse" gradientTransform="translate(59.9216 78.4421) rotate(164.476) scale(14.2808 11.9253)">
<stop offset="0.679119" stop-color="#FF349B" stop-opacity="0"/>
<stop offset="1" stop-color="#510033"/>
</radialGradient>
<radialGradient id="paint52_radial_9671_32681" cx="0" cy="0" r="1" gradientUnits="userSpaceOnUse" gradientTransform="translate(78.4363 78.7722) rotate(169.631) scale(25.476 3.6285)">
<stop stop-color="#C8007D"/>
<stop offset="1" stop-color="#FF349B" stop-opacity="0"/>
</radialGradient>
<linearGradient id="paint53_linear_9671_32681" x1="88.6817" y1="76.6394" x2="53.6748" y2="64.1985" gradientUnits="userSpaceOnUse">
<stop stop-color="#FFBE14"/>
<stop offset="1" stop-color="#FFDB52"/>
</linearGradient>
<radialGradient id="paint54_radial_9671_32681" cx="0" cy="0" r="1" gradientUnits="userSpaceOnUse" gradientTransform="translate(72.8645 75.5622) rotate(154.187) scale(17.5 16.9414)">
<stop offset="0.460836" stop-color="#FFDD7C" stop-opacity="0"/>
<stop offset="0.827683" stop-color="#D18B00"/>
</radialGradient>
<radialGradient id="paint55_radial_9671_32681" cx="0" cy="0" r="1" gradientUnits="userSpaceOnUse" gradientTransform="translate(80.261 82.5821) rotate(-164.607) scale(20.9949 20.9949)">
<stop offset="0.040464" stop-color="#995F00"/>
<stop offset="0.863831" stop-color="#FFDD7C" stop-opacity="0"/>
</radialGradient>
<radialGradient id="paint56_radial_9671_32681" cx="0" cy="0" r="1" gradientUnits="userSpaceOnUse" gradientTransform="translate(75.7251 78.0193) rotate(-119.121) scale(15.7257 2.1383)">
<stop stop-color="#995F00"/>
<stop offset="1" stop-color="#FFDD7C" stop-opacity="0"/>
</radialGradient>
<radialGradient id="paint57_radial_9671_32681" cx="0" cy="0" r="1" gradientUnits="userSpaceOnUse" gradientTransform="translate(79.3948 81.3753) rotate(-108.265) scale(20.141 2.73867)">
<stop stop-color="#995F00"/>
<stop offset="1" stop-color="#FFDD7C" stop-opacity="0"/>
</radialGradient>
<radialGradient id="paint58_radial_9671_32681" cx="0" cy="0" r="1" gradientUnits="userSpaceOnUse" gradientTransform="translate(72.696 79.7393) rotate(-135.32) scale(13.5094 1.83694)">
<stop stop-color="#995F00"/>
<stop offset="1" stop-color="#FFDD7C" stop-opacity="0"/>
</radialGradient>
<radialGradient id="paint59_radial_9671_32681" cx="0" cy="0" r="1" gradientUnits="userSpaceOnUse" gradientTransform="translate(74.2586 83.1201) rotate(-156.51) scale(13.8369 1.88147)">
<stop stop-color="#995F00"/>
<stop offset="1" stop-color="#FFDD7C" stop-opacity="0"/>
</radialGradient>
<radialGradient id="paint60_radial_9671_32681" cx="0" cy="0" r="1" gradientUnits="userSpaceOnUse" gradientTransform="translate(71.1633 74.9173) rotate(-156.801) scale(16.6768 16.6768)">
<stop stop-color="#FFCB34" stop-opacity="0"/>
<stop offset="1" stop-color="#513300"/>
</radialGradient>
<radialGradient id="paint61_radial_9671_32681" cx="0" cy="0" r="1" gradientUnits="userSpaceOnUse" gradientTransform="translate(73.1927 77.5183) rotate(-158.171) scale(6.99696)">
<stop stop-color="#FFCB34" stop-opacity="0"/>
<stop offset="0.824492" stop-color="#513300"/>
</radialGradient>
<linearGradient id="paint62_linear_9671_32681" x1="87.1867" y1="80.7439" x2="58.1228" y2="69.6604" gradientUnits="userSpaceOnUse">
<stop stop-color="#FFBE14"/>
<stop offset="1" stop-color="#FFDB52"/>
</linearGradient>
<radialGradient id="paint63_radial_9671_32681" cx="0" cy="0" r="1" gradientUnits="userSpaceOnUse" gradientTransform="translate(75.4535 75.8413) rotate(150.312) scale(11.8959 9.23121)">
<stop offset="0.355" stop-color="#FFF7D8"/>
<stop offset="1" stop-color="#FFF7D8" stop-opacity="0"/>
</radialGradient>
<linearGradient id="paint64_linear_9671_32681" x1="163.935" y1="6.31638" x2="165.996" y2="17.7209" gradientUnits="userSpaceOnUse">
<stop stop-color="#FE6E00"/>
<stop offset="1" stop-color="#FFD445"/>
</linearGradient>
<linearGradient id="paint65_linear_9671_32681" x1="166.373" y1="28.3145" x2="164.312" y2="16.91" gradientUnits="userSpaceOnUse">
<stop stop-color="#FE6E00"/>
<stop offset="1" stop-color="#FFD445"/>
</linearGradient>
<linearGradient id="paint66_linear_9671_32681" x1="154.989" y1="13.2765" x2="165.896" y2="17.1941" gradientUnits="userSpaceOnUse">
<stop stop-color="#FE6E00"/>
<stop offset="1" stop-color="#FFD445"/>
</linearGradient>
<linearGradient id="paint67_linear_9671_32681" x1="175.252" y1="21.6361" x2="164.345" y2="17.7185" gradientUnits="userSpaceOnUse">
<stop stop-color="#FE6E00"/>
<stop offset="1" stop-color="#FFD445"/>
</linearGradient>
<linearGradient id="paint68_linear_9671_32681" x1="174.007" y1="11.1702" x2="165.161" y2="18.6571" gradientUnits="userSpaceOnUse">
<stop stop-color="#FE6E00"/>
<stop offset="1" stop-color="#FFD445"/>
</linearGradient>
<linearGradient id="paint69_linear_9671_32681" x1="156.231" y1="23.7424" x2="165.078" y2="16.2555" gradientUnits="userSpaceOnUse">
<stop stop-color="#FE6E00"/>
<stop offset="1" stop-color="#FFD445"/>
</linearGradient>
<radialGradient id="paint70_radial_9671_32681" cx="0" cy="0" r="1" gradientUnits="userSpaceOnUse" gradientTransform="translate(165.078 17.5565) rotate(79.7574) scale(3.72741)">
<stop stop-color="#823000"/>
<stop offset="0.629808" stop-color="#DA6700" stop-opacity="0.557692"/>
<stop offset="1" stop-color="#FFC24A" stop-opacity="0"/>
</radialGradient>
<linearGradient id="paint71_linear_9671_32681" x1="58.1989" y1="26.488" x2="53.2729" y2="40.4073" gradientUnits="userSpaceOnUse">
<stop stop-color="#FE6E00"/>
<stop offset="1" stop-color="#FFD445"/>
</linearGradient>
<linearGradient id="paint72_linear_9671_32681" x1="46.9969" y1="52.364" x2="51.9229" y2="38.4447" gradientUnits="userSpaceOnUse">
<stop stop-color="#FE6E00"/>
<stop offset="1" stop-color="#FFD445"/>
</linearGradient>
<linearGradient id="paint73_linear_9671_32681" x1="43.9041" y1="28.5336" x2="53.4955" y2="39.7593" gradientUnits="userSpaceOnUse">
<stop stop-color="#FE6E00"/>
<stop offset="1" stop-color="#FFD445"/>
</linearGradient>
<linearGradient id="paint74_linear_9671_32681" x1="61.0374" y1="50.5865" x2="51.4459" y2="39.3608" gradientUnits="userSpaceOnUse">
<stop stop-color="#FE6E00"/>
<stop offset="1" stop-color="#FFD445"/>
</linearGradient>
<linearGradient id="paint75_linear_9671_32681" x1="66.2768" y1="38.222" x2="51.7593" y2="40.9156" gradientUnits="userSpaceOnUse">
<stop stop-color="#FE6E00"/>
<stop offset="1" stop-color="#FFD445"/>
</linearGradient>
<linearGradient id="paint76_linear_9671_32681" x1="38.6646" y1="40.8981" x2="53.1821" y2="38.2045" gradientUnits="userSpaceOnUse">
<stop stop-color="#FE6E00"/>
<stop offset="1" stop-color="#FFD445"/>
</linearGradient>
<radialGradient id="paint77_radial_9671_32681" cx="0" cy="0" r="1" gradientUnits="userSpaceOnUse" gradientTransform="translate(52.3613 39.6447) rotate(109.489) scale(4.74892)">
<stop stop-color="#823000"/>
<stop offset="0.629808" stop-color="#DA6700" stop-opacity="0.557692"/>
<stop offset="1" stop-color="#FFC24A" stop-opacity="0"/>
</radialGradient>
<radialGradient id="paint78_radial_9671_32681" cx="0" cy="0" r="1" gradientUnits="userSpaceOnUse" gradientTransform="translate(143.14 54.4959) rotate(50.335) scale(70.886 40.6949)">
<stop stop-color="#C2DE15"/>
<stop offset="1" stop-color="#2F5D16"/>
</radialGradient>
<radialGradient id="paint79_radial_9671_32681" cx="0" cy="0" r="1" gradientUnits="userSpaceOnUse" gradientTransform="translate(154.207 65.1747) rotate(76.6685) scale(40.1169 24.0866)">
<stop stop-color="#4AA647"/>
<stop offset="0.794714" stop-color="#4AA647" stop-opacity="0.635662"/>
<stop offset="1" stop-color="#4AA647" stop-opacity="0"/>
</radialGradient>
<radialGradient id="paint80_radial_9671_32681" cx="0" cy="0" r="1" gradientUnits="userSpaceOnUse" gradientTransform="translate(132.967 53.5893) rotate(81.218) scale(54.3001 41.5407)">
<stop offset="0.0366807" stop-color="#C2DE15" stop-opacity="0"/>
<stop offset="0.762597" stop-color="#C2DE15" stop-opacity="0.6"/>
<stop offset="0.863422" stop-color="#C2DE15" stop-opacity="0"/>
<stop offset="0.899038" stop-color="#C2DE15" stop-opacity="0.7"/>
<stop offset="1" stop-color="#C2DE15" stop-opacity="0"/>
</radialGradient>
<radialGradient id="paint81_radial_9671_32681" cx="0" cy="0" r="1" gradientUnits="userSpaceOnUse" gradientTransform="translate(147.73 74.2426) rotate(132.851) scale(62.205 40.8735)">
<stop offset="0.413462" stop-color="#C2DE15"/>
<stop offset="0.5625" stop-color="#2F5D16"/>
</radialGradient>
<radialGradient id="paint82_radial_9671_32681" cx="0" cy="0" r="1" gradientUnits="userSpaceOnUse" gradientTransform="translate(139.288 106.038) rotate(-40.9305) scale(56.8984 20.3245)">
<stop stop-color="#58A035"/>
<stop offset="1" stop-color="#58A035" stop-opacity="0"/>
</radialGradient>
<radialGradient id="paint83_radial_9671_32681" cx="0" cy="0" r="1" gradientUnits="userSpaceOnUse" gradientTransform="translate(51.801 101.125) rotate(-123.566) scale(84.3048 21.3202)">
<stop stop-color="#2F5D16"/>
<stop offset="1" stop-color="#C2DE15"/>
</radialGradient>
<linearGradient id="paint84_linear_9671_32681" x1="14.5537" y1="22.2139" x2="84.5231" y2="147.585" gradientUnits="userSpaceOnUse">
<stop stop-color="#E7A400"/>
<stop offset="1" stop-color="#592A00"/>
</linearGradient>
</defs>
</svg>
