<svg viewBox="0 0 240 120" fill="none" xmlns="http://www.w3.org/2000/svg">
<path d="M120 87.6919C176.078 87.6919 221.538 92.2121 221.538 97.788C221.538 100.237 212.769 102.481 198.182 104.229C201.857 105.542 203.879 106.964 203.879 108.461C203.879 114.834 167.314 120 122.208 120C77.1021 120 40.5332 114.834 40.5332 108.461C40.5332 107.106 42.1905 105.807 45.2298 104.598C28.6104 102.801 18.4614 100.422 18.4614 97.788C18.4614 92.2121 63.9217 87.6919 120 87.6919Z" fill="url(#paint0_linear_9681_869)"/>
<path d="M120 87.6919C176.078 87.6919 221.538 92.2121 221.538 97.788C221.538 100.237 212.769 102.481 198.182 104.229C201.857 105.542 203.879 106.964 203.879 108.461C203.879 114.834 167.314 120 122.208 120C77.1021 120 40.5332 114.834 40.5332 108.461C40.5332 107.106 42.1905 105.807 45.2298 104.598C28.6104 102.801 18.4614 100.422 18.4614 97.788C18.4614 92.2121 63.9217 87.6919 120 87.6919Z" fill="url(#paint1_radial_9681_869)"/>
<path d="M197.233 83.8321C190.618 89.7397 195.196 95.0209 198.311 96.923H214.615C220.71 90.881 219.23 92.3076 213.051 94.909C214.615 89.9999 214.729 86.0698 213.77 83.1607C213.77 88.2628 210.894 91.3286 209.456 92.2237C210.319 90.881 209.815 86.2936 209.456 84.1677C208.593 86.0474 207.658 89.4265 207.299 90.881C205.861 89.0013 207.419 81.8181 208.377 78.4614C203.776 80.8782 202.625 89.3146 202.625 93.2307C198.887 90.2768 201.307 83.2726 202.985 80.1397C199.534 83.3621 198.431 88.6432 198.311 90.881C195.723 89.2698 196.514 85.5104 197.233 83.8321Z" fill="#9CA55C"/>
<path d="M18.6067 87.4037C17.7416 92.4518 18.0782 95.7475 21.0581 96.995C24.5431 98.4542 30.0008 97.6441 32.3084 96.995C34.2909 95.6474 37.2123 94.6152 38.0777 84.6633C36.3469 91.1537 34.6259 91.798 33.0296 91.798C35.0586 89.3241 35.7883 83.2199 33.0296 81.2018C32.6592 85.3123 32.4698 89.706 29.5222 91.798C27.8373 89.5672 28.1258 83.6516 29.5222 79.6152C25.1212 81.2004 25.7459 89.8832 25.7459 92.4518C23.6259 90.721 23.6259 85.6697 23.6259 81.6334C20.3251 83.747 20.3225 92.4518 23.6259 94.3268C21.0581 94.3268 19.6166 92.4518 18.6067 87.4037Z" fill="#DABA74"/>
<ellipse cx="131.238" cy="107.019" rx="63.7579" ry="6.48926" fill="url(#paint2_radial_9681_869)"/>
<path d="M165.004 83.5458C160.333 77.0795 162.49 68.8176 163.209 62.1115C163.209 56.0046 151.473 51.4549 148.839 59.9566C146.205 68.4584 153.389 81.3906 155.784 84.9829C158.179 88.5752 153.629 98.6336 150.635 100.43C148.24 101.867 146.684 105.419 146.205 107.016H155.784C155.544 106.856 155.209 106.058 155.784 104.142C156.359 102.226 162.17 89.6129 165.004 83.5458Z" fill="url(#paint3_linear_9681_869)"/>
<path d="M165.004 83.5458C160.333 77.0795 162.49 68.8176 163.209 62.1115C163.209 56.0046 151.473 51.4549 148.839 59.9566C146.205 68.4584 153.389 81.3906 155.784 84.9829C158.179 88.5752 153.629 98.6336 150.635 100.43C148.24 101.867 146.684 105.419 146.205 107.016H155.784C155.544 106.856 155.209 106.058 155.784 104.142C156.359 102.226 162.17 89.6129 165.004 83.5458Z" fill="url(#paint4_radial_9681_869)"/>
<path d="M165.004 83.5458C160.333 77.0795 162.49 68.8176 163.209 62.1115C163.209 56.0046 151.473 51.4549 148.839 59.9566C146.205 68.4584 153.389 81.3906 155.784 84.9829C158.179 88.5752 153.629 98.6336 150.635 100.43C148.24 101.867 146.684 105.419 146.205 107.016H155.784C155.544 106.856 155.209 106.058 155.784 104.142C156.359 102.226 162.17 89.6129 165.004 83.5458Z" fill="url(#paint5_linear_9681_869)"/>
<path d="M80.3455 100.431C83.4442 97.4348 85.1074 93.8116 84.1772 88.3367C85.8297 69.9487 94.9536 80.3132 94.9536 84.4453C94.9536 88.5775 89.4462 98.7542 86.1727 100.431C84.5527 101.26 85.9317 105.933 86.1727 106.966H77.3521C77.3176 105.967 77.8665 102.827 80.3455 100.431Z" fill="url(#paint6_linear_9681_869)"/>
<path d="M80.3455 100.431C83.4442 97.4348 85.1074 93.8116 84.1772 88.3367C85.8297 69.9487 94.9536 80.3132 94.9536 84.4453C94.9536 88.5775 89.4462 98.7542 86.1727 100.431C84.5527 101.26 85.9317 105.933 86.1727 106.966H77.3521C77.3176 105.967 77.8665 102.827 80.3455 100.431Z" fill="url(#paint7_radial_9681_869)"/>
<path d="M80.3455 100.431C83.4442 97.4348 85.1074 93.8116 84.1772 88.3367C85.8297 69.9487 94.9536 80.3132 94.9536 84.4453C94.9536 88.5775 89.4462 98.7542 86.1727 100.431C84.5527 101.26 85.9317 105.933 86.1727 106.966H77.3521C77.3176 105.967 77.8665 102.827 80.3455 100.431Z" fill="url(#paint8_linear_9681_869)"/>
<path d="M83.2209 78.75C83.987 76.6421 87.0507 73.1419 87.0507 69.8397C92.894 67.4449 98.7986 73.2548 100.635 76.368C98.2399 79.0503 97.8282 85.6622 98.4269 89.1746L96.1518 85.4627C97.1097 88.9113 96.3114 93.645 94.4754 95.2815C95.2417 94.0362 94.0363 92.9668 93.3977 91.929C92.9187 95.4734 92.1444 95.838 90.428 97.8337C90.8671 96.7161 89.002 96.1691 89.002 91.3794C89.002 87.9271 83.8577 91.2503 81.9018 93.246C81.9018 89.989 84.0975 86.6044 85.0157 84.6486C84.5367 84.7444 82.1416 84.7841 81.1836 85.4627C81.3752 82.6847 84.7759 78.6373 86.4523 76.9609C85.3985 76.482 84.2986 78.0317 83.2209 78.75Z" fill="url(#paint9_radial_9681_869)"/>
<path d="M148.598 19.6037C140.335 15.7721 120.698 9.18597 115.908 8.70752C102.976 8.70752 96.6298 11.1019 89.3254 19.6037C82.0211 28.1056 81.7816 64.8665 103.934 70.0155C126.087 75.1644 154.945 73.1288 165.482 71.2129C176.019 69.297 183.204 50.3776 182.126 41.0376C181.049 31.6977 156.861 23.4354 148.598 19.6037Z" fill="url(#paint10_linear_9681_869)"/>
<path d="M148.598 19.6037C140.335 15.7721 120.698 9.18597 115.908 8.70752C102.976 8.70752 96.6298 11.1019 89.3254 19.6037C82.0211 28.1056 81.7816 64.8665 103.934 70.0155C126.087 75.1644 154.945 73.1288 165.482 71.2129C176.019 69.297 183.204 50.3776 182.126 41.0376C181.049 31.6977 156.861 23.4354 148.598 19.6037Z" fill="url(#paint11_radial_9681_869)"/>
<path d="M187.132 42.6409C186.129 36.7924 176.758 33.6592 172.197 32.8237C170.352 33.0674 168.792 34.0143 177.315 35.8524C187.967 38.1501 185.632 53.7013 184.521 55.7923C182.745 59.1343 183.163 62.902 184.521 66.4529C186.087 64.573 186.61 62.6931 186.61 62.6931C187.341 64.8864 187.132 66.4529 186.61 69.8994C188.803 67.3929 188.768 66.6669 189.534 64.1553C189.534 64.1553 190.369 65.3041 190.369 67.184C193.398 62.6931 190.077 58.09 188.614 55.7923C187.152 53.4947 188.385 49.9516 187.132 42.6409Z" fill="url(#paint12_linear_9681_869)"/>
<path d="M187.132 42.6409C186.129 36.7924 176.758 33.6592 172.197 32.8237C170.352 33.0674 168.792 34.0143 177.315 35.8524C187.967 38.1501 185.632 53.7013 184.521 55.7923C182.745 59.1343 183.163 62.902 184.521 66.4529C186.087 64.573 186.61 62.6931 186.61 62.6931C187.341 64.8864 187.132 66.4529 186.61 69.8994C188.803 67.3929 188.768 66.6669 189.534 64.1553C189.534 64.1553 190.369 65.3041 190.369 67.184C193.398 62.6931 190.077 58.09 188.614 55.7923C187.152 53.4947 188.385 49.9516 187.132 42.6409Z" fill="url(#paint13_radial_9681_869)"/>
<path d="M183.804 48.4974C184.402 35.565 175.182 32.2984 170.991 30.0229C168.956 30.0229 166.227 30.8726 163.927 36.1301C162.671 39.0009 156.503 61.0367 163.927 64.2698C169.866 66.8562 174.025 73.8093 174.464 77.8007C173.698 79.9082 176.3 82.9098 177.697 84.1471C179.533 88.418 183.325 97.6302 183.804 100.312C184.283 102.995 183.046 107.577 182.367 109.533C186.39 110.395 190.35 108.774 191.827 107.856L191.228 104.264C189.312 101.151 184.882 87.4999 185.959 83.0694C187.037 78.6389 185.001 76.7231 182.367 73.011C179.733 69.299 183.206 61.4298 183.804 48.4974Z" fill="url(#paint14_linear_9681_869)"/>
<path d="M183.804 48.4974C184.402 35.565 175.182 32.2984 170.991 30.0229C168.956 30.0229 166.227 30.8726 163.927 36.1301C162.671 39.0009 156.503 61.0367 163.927 64.2698C169.866 66.8562 174.025 73.8093 174.464 77.8007C173.698 79.9082 176.3 82.9098 177.697 84.1471C179.533 88.418 183.325 97.6302 183.804 100.312C184.283 102.995 183.046 107.577 182.367 109.533C186.39 110.395 190.35 108.774 191.827 107.856L191.228 104.264C189.312 101.151 184.882 87.4999 185.959 83.0694C187.037 78.6389 185.001 76.7231 182.367 73.011C179.733 69.299 183.206 61.4298 183.804 48.4974Z" fill="url(#paint15_radial_9681_869)"/>
<path d="M183.804 48.4974C184.402 35.565 175.182 32.2984 170.991 30.0229C168.956 30.0229 166.227 30.8726 163.927 36.1301C162.671 39.0009 156.503 61.0367 163.927 64.2698C169.866 66.8562 174.025 73.8093 174.464 77.8007C173.698 79.9082 176.3 82.9098 177.697 84.1471C179.533 88.418 183.325 97.6302 183.804 100.312C184.283 102.995 183.046 107.577 182.367 109.533C186.39 110.395 190.35 108.774 191.827 107.856L191.228 104.264C189.312 101.151 184.882 87.4999 185.959 83.0694C187.037 78.6389 185.001 76.7231 182.367 73.011C179.733 69.299 183.206 61.4298 183.804 48.4974Z" fill="url(#paint16_radial_9681_869)"/>
<path d="M183.804 48.4974C184.402 35.565 175.182 32.2984 170.991 30.0229C168.956 30.0229 166.227 30.8726 163.927 36.1301C162.671 39.0009 156.503 61.0367 163.927 64.2698C169.866 66.8562 174.025 73.8093 174.464 77.8007C173.698 79.9082 176.3 82.9098 177.697 84.1471C179.533 88.418 183.325 97.6302 183.804 100.312C184.283 102.995 183.046 107.577 182.367 109.533C186.39 110.395 190.35 108.774 191.827 107.856L191.228 104.264C189.312 101.151 184.882 87.4999 185.959 83.0694C187.037 78.6389 185.001 76.7231 182.367 73.011C179.733 69.299 183.206 61.4298 183.804 48.4974Z" fill="url(#paint17_linear_9681_869)"/>
<path d="M113.396 104.743C116.988 101.27 114.474 96.7199 113.396 90.3737C115.311 69.0596 128.244 80.794 128.244 85.5837C128.244 90.3735 121.299 104.743 119.264 106.419C117.635 107.76 117.787 110.49 118.066 111.688H109.924C109.884 110.53 110.522 107.521 113.396 104.743Z" fill="url(#paint18_linear_9681_869)"/>
<path d="M113.396 104.743C116.988 101.27 114.474 96.7199 113.396 90.3737C115.311 69.0596 128.244 80.794 128.244 85.5837C128.244 90.3735 121.299 104.743 119.264 106.419C117.635 107.76 117.787 110.49 118.066 111.688H109.924C109.884 110.53 110.522 107.521 113.396 104.743Z" fill="url(#paint19_radial_9681_869)"/>
<path d="M113.396 104.743C116.988 101.27 114.474 96.7199 113.396 90.3737C115.311 69.0596 128.244 80.794 128.244 85.5837C128.244 90.3735 121.299 104.743 119.264 106.419C117.635 107.76 117.787 110.49 118.066 111.688H109.924C109.884 110.53 110.522 107.521 113.396 104.743Z" fill="url(#paint20_linear_9681_869)"/>
<path d="M120.23 10.2434C123.966 11.5774 135.59 19.7407 134.234 23.2673C132.876 26.793 125.824 28.4227 128.808 34.6617C131.793 40.9016 142.082 56.047 136.927 60.3876C134.097 63.1598 135.262 68.5153 138.082 72.4585C137.563 72.8628 132.487 73.1376 130.177 73.1376C129.901 69.8449 122.198 63.003 127.18 58.8067C132.335 54.4663 122.867 41.9851 119.882 35.7449C116.898 29.5058 122.839 26.1135 124.196 22.5876C125.552 19.0611 118.526 12.6855 114.727 10.2434C113.469 10.2436 115.425 8.52782 120.23 10.2434Z" fill="url(#paint21_linear_9681_869)"/>
<path d="M90.1652 11.3294C82.7225 13.9069 81.4661 18.1117 75.6333 26.7929C83.454 36.3752 80.5166 52.9728 75.6333 61.0399C76.5513 60.8403 80.03 69.7771 83.2201 69.7771C88.9678 69.7771 88.6086 73.4492 90.1652 74.3274C88.7283 77.3209 91.6022 81.2725 91.6022 79.1171C91.6022 77.3928 93.1189 77.6802 93.8773 78.0394C94.3563 81.1527 97.608 84.1463 96.8709 82.5896C96.2811 81.3443 98.3015 80.4742 99.3855 80.1948C99.0981 83.2602 101.341 84.4257 102.499 84.6253C102.211 82.9968 103.177 80.2746 103.696 79.1171C102.642 81.8951 105.253 85.3038 106.69 86.6609C105.636 84.1702 107.129 82.0308 108.007 81.2725C107.815 83.6673 109.444 85.8626 110.282 86.6609C109.803 84.1702 111.44 81.6716 112.318 80.1948V83.6673C112.318 85.8755 113.625 88.1141 110.282 94.5568C111.858 92.3541 115.377 90.8791 116.095 90.1606C116.574 94.4314 119.623 94.5568 119.623 94.5568C119.623 94.5568 120.055 89.6493 121.874 89.6523C123.693 90.8679 123.375 96.1816 123.375 96.1816L127.222 88.1141L127.953 93.2547C127.953 93.2547 130.179 88.6016 128.603 84.6253C129.154 83.6673 130.878 86.6609 130.878 86.6609C130.878 86.6609 131.895 84.5055 130.179 81.2725C128.462 78.0394 130.878 78.0319 130.878 75.6445C130.878 72.6603 126.365 63.1463 131.52 58.8056C136.674 54.465 126.908 40.9003 123.923 34.6606C120.939 28.4208 127.993 26.7929 129.349 23.2662C130.706 19.7396 122.567 11.6005 118.769 9.15884C114.971 6.71721 93.3362 10.2313 90.1652 11.3294Z" fill="url(#paint22_radial_9681_869)"/>
<path d="M90.1652 11.3294C82.7225 13.9069 81.4661 18.1117 75.6333 26.7929C83.454 36.3752 80.5166 52.9728 75.6333 61.0399C76.5513 60.8403 80.03 69.7771 83.2201 69.7771C88.9678 69.7771 88.6086 73.4492 90.1652 74.3274C88.7283 77.3209 91.6022 81.2725 91.6022 79.1171C91.6022 77.3928 93.1189 77.6802 93.8773 78.0394C94.3563 81.1527 97.608 84.1463 96.8709 82.5896C96.2811 81.3443 98.3015 80.4742 99.3855 80.1948C99.0981 83.2602 101.341 84.4257 102.499 84.6253C102.211 82.9968 103.177 80.2746 103.696 79.1171C102.642 81.8951 105.253 85.3038 106.69 86.6609C105.636 84.1702 107.129 82.0308 108.007 81.2725C107.815 83.6673 109.444 85.8626 110.282 86.6609C109.803 84.1702 111.44 81.6716 112.318 80.1948V83.6673C112.318 85.8755 113.625 88.1141 110.282 94.5568C111.858 92.3541 115.377 90.8791 116.095 90.1606C116.574 94.4314 119.623 94.5568 119.623 94.5568C119.623 94.5568 120.055 89.6493 121.874 89.6523C123.693 90.8679 123.375 96.1816 123.375 96.1816L127.222 88.1141L127.953 93.2547C127.953 93.2547 130.179 88.6016 128.603 84.6253C129.154 83.6673 130.878 86.6609 130.878 86.6609C130.878 86.6609 131.895 84.5055 130.179 81.2725C128.462 78.0394 130.878 78.0319 130.878 75.6445C130.878 72.6603 126.365 63.1463 131.52 58.8056C136.674 54.465 126.908 40.9003 123.923 34.6606C120.939 28.4208 127.993 26.7929 129.349 23.2662C130.706 19.7396 122.567 11.6005 118.769 9.15884C114.971 6.71721 93.3362 10.2313 90.1652 11.3294Z" fill="url(#paint23_radial_9681_869)"/>
<path d="M90.1652 11.3294C82.7225 13.9069 81.4661 18.1117 75.6333 26.7929C83.454 36.3752 80.5166 52.9728 75.6333 61.0399C76.5513 60.8403 80.03 69.7771 83.2201 69.7771C88.9678 69.7771 88.6086 73.4492 90.1652 74.3274C88.7283 77.3209 91.6022 81.2725 91.6022 79.1171C91.6022 77.3928 93.1189 77.6802 93.8773 78.0394C94.3563 81.1527 97.608 84.1463 96.8709 82.5896C96.2811 81.3443 98.3015 80.4742 99.3855 80.1948C99.0981 83.2602 101.341 84.4257 102.499 84.6253C102.211 82.9968 103.177 80.2746 103.696 79.1171C102.642 81.8951 105.253 85.3038 106.69 86.6609C105.636 84.1702 107.129 82.0308 108.007 81.2725C107.815 83.6673 109.444 85.8626 110.282 86.6609C109.803 84.1702 111.44 81.6716 112.318 80.1948V83.6673C112.318 85.8755 113.625 88.1141 110.282 94.5568C111.858 92.3541 115.377 90.8791 116.095 90.1606C116.574 94.4314 119.623 94.5568 119.623 94.5568C119.623 94.5568 120.055 89.6493 121.874 89.6523C123.693 90.8679 123.375 96.1816 123.375 96.1816L127.222 88.1141L127.953 93.2547C127.953 93.2547 130.179 88.6016 128.603 84.6253C129.154 83.6673 130.878 86.6609 130.878 86.6609C130.878 86.6609 131.895 84.5055 130.179 81.2725C128.462 78.0394 130.878 78.0319 130.878 75.6445C130.878 72.6603 126.365 63.1463 131.52 58.8056C136.674 54.465 126.908 40.9003 123.923 34.6606C120.939 28.4208 127.993 26.7929 129.349 23.2662C130.706 19.7396 122.567 11.6005 118.769 9.15884C114.971 6.71721 93.3362 10.2313 90.1652 11.3294Z" fill="url(#paint24_radial_9681_869)"/>
<path d="M90.1652 11.3294C82.7225 13.9069 81.4661 18.1117 75.6333 26.7929C83.454 36.3752 80.5166 52.9728 75.6333 61.0399C76.5513 60.8403 80.03 69.7771 83.2201 69.7771C88.9678 69.7771 88.6086 73.4492 90.1652 74.3274C88.7283 77.3209 91.6022 81.2725 91.6022 79.1171C91.6022 77.3928 93.1189 77.6802 93.8773 78.0394C94.3563 81.1527 97.608 84.1463 96.8709 82.5896C96.2811 81.3443 98.3015 80.4742 99.3855 80.1948C99.0981 83.2602 101.341 84.4257 102.499 84.6253C102.211 82.9968 103.177 80.2746 103.696 79.1171C102.642 81.8951 105.253 85.3038 106.69 86.6609C105.636 84.1702 107.129 82.0308 108.007 81.2725C107.815 83.6673 109.444 85.8626 110.282 86.6609C109.803 84.1702 111.44 81.6716 112.318 80.1948V83.6673C112.318 85.8755 113.625 88.1141 110.282 94.5568C111.858 92.3541 115.377 90.8791 116.095 90.1606C116.574 94.4314 119.623 94.5568 119.623 94.5568C119.623 94.5568 120.055 89.6493 121.874 89.6523C123.693 90.8679 123.375 96.1816 123.375 96.1816L127.222 88.1141L127.953 93.2547C127.953 93.2547 130.179 88.6016 128.603 84.6253C129.154 83.6673 130.878 86.6609 130.878 86.6609C130.878 86.6609 131.895 84.5055 130.179 81.2725C128.462 78.0394 130.878 78.0319 130.878 75.6445C130.878 72.6603 126.365 63.1463 131.52 58.8056C136.674 54.465 126.908 40.9003 123.923 34.6606C120.939 28.4208 127.993 26.7929 129.349 23.2662C130.706 19.7396 122.567 11.6005 118.769 9.15884C114.971 6.71721 93.3362 10.2313 90.1652 11.3294Z" fill="url(#paint25_radial_9681_869)"/>
<path d="M90.1652 11.3294C82.7225 13.9069 81.4661 18.1117 75.6333 26.7929C83.454 36.3752 80.5166 52.9728 75.6333 61.0399C76.5513 60.8403 80.03 69.7771 83.2201 69.7771C88.9678 69.7771 88.6086 73.4492 90.1652 74.3274C88.7283 77.3209 91.6022 81.2725 91.6022 79.1171C91.6022 77.3928 93.1189 77.6802 93.8773 78.0394C94.3563 81.1527 97.608 84.1463 96.8709 82.5896C96.2811 81.3443 98.3015 80.4742 99.3855 80.1948C99.0981 83.2602 101.341 84.4257 102.499 84.6253C102.211 82.9968 103.177 80.2746 103.696 79.1171C102.642 81.8951 105.253 85.3038 106.69 86.6609C105.636 84.1702 107.129 82.0308 108.007 81.2725C107.815 83.6673 109.444 85.8626 110.282 86.6609C109.803 84.1702 111.44 81.6716 112.318 80.1948V83.6673C112.318 85.8755 113.625 88.1141 110.282 94.5568C111.858 92.3541 115.377 90.8791 116.095 90.1606C116.574 94.4314 119.623 94.5568 119.623 94.5568C119.623 94.5568 120.055 89.6493 121.874 89.6523C123.693 90.8679 123.375 96.1816 123.375 96.1816L127.222 88.1141L127.953 93.2547C127.953 93.2547 130.179 88.6016 128.603 84.6253C129.154 83.6673 130.878 86.6609 130.878 86.6609C130.878 86.6609 131.895 84.5055 130.179 81.2725C128.462 78.0394 130.878 78.0319 130.878 75.6445C130.878 72.6603 126.365 63.1463 131.52 58.8056C136.674 54.465 126.908 40.9003 123.923 34.6606C120.939 28.4208 127.993 26.7929 129.349 23.2662C130.706 19.7396 122.567 11.6005 118.769 9.15884C114.971 6.71721 93.3362 10.2313 90.1652 11.3294Z" fill="url(#paint26_radial_9681_869)"/>
<path d="M90.1652 11.3294C82.7225 13.9069 81.4661 18.1117 75.6333 26.7929C83.454 36.3752 80.5166 52.9728 75.6333 61.0399C76.5513 60.8403 80.03 69.7771 83.2201 69.7771C88.9678 69.7771 88.6086 73.4492 90.1652 74.3274C88.7283 77.3209 91.6022 81.2725 91.6022 79.1171C91.6022 77.3928 93.1189 77.6802 93.8773 78.0394C94.3563 81.1527 97.608 84.1463 96.8709 82.5896C96.2811 81.3443 98.3015 80.4742 99.3855 80.1948C99.0981 83.2602 101.341 84.4257 102.499 84.6253C102.211 82.9968 103.177 80.2746 103.696 79.1171C102.642 81.8951 105.253 85.3038 106.69 86.6609C105.636 84.1702 107.129 82.0308 108.007 81.2725C107.815 83.6673 109.444 85.8626 110.282 86.6609C109.803 84.1702 111.44 81.6716 112.318 80.1948V83.6673C112.318 85.8755 113.625 88.1141 110.282 94.5568C111.858 92.3541 115.377 90.8791 116.095 90.1606C116.574 94.4314 119.623 94.5568 119.623 94.5568C119.623 94.5568 120.055 89.6493 121.874 89.6523C123.693 90.8679 123.375 96.1816 123.375 96.1816L127.222 88.1141L127.953 93.2547C127.953 93.2547 130.179 88.6016 128.603 84.6253C129.154 83.6673 130.878 86.6609 130.878 86.6609C130.878 86.6609 131.895 84.5055 130.179 81.2725C128.462 78.0394 130.878 78.0319 130.878 75.6445C130.878 72.6603 126.365 63.1463 131.52 58.8056C136.674 54.465 126.908 40.9003 123.923 34.6606C120.939 28.4208 127.993 26.7929 129.349 23.2662C130.706 19.7396 122.567 11.6005 118.769 9.15884C114.971 6.71721 93.3362 10.2313 90.1652 11.3294Z" fill="url(#paint27_radial_9681_869)"/>
<path d="M58.1754 17.7842C57.2507 19.2745 52.1136 29.0357 52.8328 33.3575C54.3246 42.3218 63.7123 34.6101 60.4344 31.8671C58.113 29.9244 58.1754 25.3101 58.1754 23.6708C58.1754 22.0315 59.1001 16.294 58.1754 17.7842Z" fill="url(#paint28_linear_9681_869)"/>
<path d="M58.1754 17.7842C57.2507 19.2745 52.1136 29.0357 52.8328 33.3575C54.3246 42.3218 63.7123 34.6101 60.4344 31.8671C58.113 29.9244 58.1754 25.3101 58.1754 23.6708C58.1754 22.0315 59.1001 16.294 58.1754 17.7842Z" fill="url(#paint29_radial_9681_869)"/>
<path d="M58.1754 17.7842C57.2507 19.2745 52.1136 29.0357 52.8328 33.3575C54.3246 42.3218 63.7123 34.6101 60.4344 31.8671C58.113 29.9244 58.1754 25.3101 58.1754 23.6708C58.1754 22.0315 59.1001 16.294 58.1754 17.7842Z" fill="url(#paint30_radial_9681_869)"/>
<path d="M47.9263 35.9498C49.3506 33.169 52.742 30.4561 55.4549 29.6422C57.0601 29.1675 60.0126 28.6385 58.9817 28.1501C57.9508 27.6618 55.7488 27.7206 54.7767 27.811C58.1 26.3867 62.712 25.912 63.1868 25.912C62.8612 25.0981 61.4686 24.8946 60.8129 24.8946C64.3397 24.135 66.3971 24.5781 66.9849 24.8946C66.605 23.8637 65.1536 23.199 64.4754 22.9956C66.483 22.6157 69.6526 23.7868 70.9864 24.4198C70.6609 23.4432 69.856 23.0634 69.4943 22.9956C72.682 23.2668 76.141 24.6233 79.8034 27.811C83.4659 30.9987 85.9075 41.7826 85.9075 44.4955C85.9075 47.2085 84.6189 52.2952 85.9075 55.4829C86.9385 58.033 84.6708 62.6495 83.2917 64.3677C83.9971 63.4996 82.7651 60.0723 82.1773 58.7384C82.8826 60.3662 80.6173 63.8025 79.8034 64.3677C79.8034 62.8485 78.6731 60.5244 77.7009 60.5018C78.2978 61.8583 78.0853 66.994 77.7009 67.7174C77.7552 66.361 76.1374 63.893 75.1427 63.8251C76.1193 66.3753 74.8038 69.239 73.6282 71.2511C73.8995 70.6 72.5465 68.098 70.9864 68.098C71.3662 69.8343 70.1499 71.7605 69.4943 72.5065C69.4943 70.933 67.8213 70.4492 66.9849 70.404C67.9615 72.3573 66.9396 75.2873 66.3066 76.5081C65.4071 73.9194 64.4754 74.8068 63.1868 74.1357C63.1325 78.8019 64.0232 79.741 64.4754 80.8488L61.8631 80.1027C62.1344 81.2422 62.8024 83.2904 63.1868 83.7652C61.2877 83.1548 58.0593 81.7848 57.354 80.1027C56.5408 78.1637 56.5384 74.2412 57.0148 72.1448C56.0879 72.3709 54.0577 72.5608 51.9959 71.6926C49.9341 70.8245 49.4638 69.3414 49.4865 68.7084C47.5196 68.5728 46.0953 66.5381 45.824 64.3677C45.5527 62.1974 46.502 56.9072 46.502 53.9908C46.502 51.6577 45.2812 52.3404 44.6708 52.9734C44.1824 50.6946 46.6376 47.3667 47.9263 45.9876C47.1667 45.5536 46.6602 46.1685 46.502 46.5302C46.5562 42.7321 48.8758 37.6228 50.0288 35.5429C48.9979 35.2173 48.1976 35.6785 47.9263 35.9498Z" fill="url(#paint31_radial_9681_869)"/>
<path d="M47.9263 35.9498C49.3506 33.169 52.742 30.4561 55.4549 29.6422C57.0601 29.1675 60.0126 28.6385 58.9817 28.1501C57.9508 27.6618 55.7488 27.7206 54.7767 27.811C58.1 26.3867 62.712 25.912 63.1868 25.912C62.8612 25.0981 61.4686 24.8946 60.8129 24.8946C64.3397 24.135 66.3971 24.5781 66.9849 24.8946C66.605 23.8637 65.1536 23.199 64.4754 22.9956C66.483 22.6157 69.6526 23.7868 70.9864 24.4198C70.6609 23.4432 69.856 23.0634 69.4943 22.9956C72.682 23.2668 76.141 24.6233 79.8034 27.811C83.4659 30.9987 85.9075 41.7826 85.9075 44.4955C85.9075 47.2085 84.6189 52.2952 85.9075 55.4829C86.9385 58.033 84.6708 62.6495 83.2917 64.3677C83.9971 63.4996 82.7651 60.0723 82.1773 58.7384C82.8826 60.3662 80.6173 63.8025 79.8034 64.3677C79.8034 62.8485 78.6731 60.5244 77.7009 60.5018C78.2978 61.8583 78.0853 66.994 77.7009 67.7174C77.7552 66.361 76.1374 63.893 75.1427 63.8251C76.1193 66.3753 74.8038 69.239 73.6282 71.2511C73.8995 70.6 72.5465 68.098 70.9864 68.098C71.3662 69.8343 70.1499 71.7605 69.4943 72.5065C69.4943 70.933 67.8213 70.4492 66.9849 70.404C67.9615 72.3573 66.9396 75.2873 66.3066 76.5081C65.4071 73.9194 64.4754 74.8068 63.1868 74.1357C63.1325 78.8019 64.0232 79.741 64.4754 80.8488L61.8631 80.1027C62.1344 81.2422 62.8024 83.2904 63.1868 83.7652C61.2877 83.1548 58.0593 81.7848 57.354 80.1027C56.5408 78.1637 56.5384 74.2412 57.0148 72.1448C56.0879 72.3709 54.0577 72.5608 51.9959 71.6926C49.9341 70.8245 49.4638 69.3414 49.4865 68.7084C47.5196 68.5728 46.0953 66.5381 45.824 64.3677C45.5527 62.1974 46.502 56.9072 46.502 53.9908C46.502 51.6577 45.2812 52.3404 44.6708 52.9734C44.1824 50.6946 46.6376 47.3667 47.9263 45.9876C47.1667 45.5536 46.6602 46.1685 46.502 46.5302C46.5562 42.7321 48.8758 37.6228 50.0288 35.5429C48.9979 35.2173 48.1976 35.6785 47.9263 35.9498Z" fill="url(#paint32_radial_9681_869)"/>
<path d="M47.9263 35.9498C49.3506 33.169 52.742 30.4561 55.4549 29.6422C57.0601 29.1675 60.0126 28.6385 58.9817 28.1501C57.9508 27.6618 55.7488 27.7206 54.7767 27.811C58.1 26.3867 62.712 25.912 63.1868 25.912C62.8612 25.0981 61.4686 24.8946 60.8129 24.8946C64.3397 24.135 66.3971 24.5781 66.9849 24.8946C66.605 23.8637 65.1536 23.199 64.4754 22.9956C66.483 22.6157 69.6526 23.7868 70.9864 24.4198C70.6609 23.4432 69.856 23.0634 69.4943 22.9956C72.682 23.2668 76.141 24.6233 79.8034 27.811C83.4659 30.9987 85.9075 41.7826 85.9075 44.4955C85.9075 47.2085 84.6189 52.2952 85.9075 55.4829C86.9385 58.033 84.6708 62.6495 83.2917 64.3677C83.9971 63.4996 82.7651 60.0723 82.1773 58.7384C82.8826 60.3662 80.6173 63.8025 79.8034 64.3677C79.8034 62.8485 78.6731 60.5244 77.7009 60.5018C78.2978 61.8583 78.0853 66.994 77.7009 67.7174C77.7552 66.361 76.1374 63.893 75.1427 63.8251C76.1193 66.3753 74.8038 69.239 73.6282 71.2511C73.8995 70.6 72.5465 68.098 70.9864 68.098C71.3662 69.8343 70.1499 71.7605 69.4943 72.5065C69.4943 70.933 67.8213 70.4492 66.9849 70.404C67.9615 72.3573 66.9396 75.2873 66.3066 76.5081C65.4071 73.9194 64.4754 74.8068 63.1868 74.1357C63.1325 78.8019 64.0232 79.741 64.4754 80.8488L61.8631 80.1027C62.1344 81.2422 62.8024 83.2904 63.1868 83.7652C61.2877 83.1548 58.0593 81.7848 57.354 80.1027C56.5408 78.1637 56.5384 74.2412 57.0148 72.1448C56.0879 72.3709 54.0577 72.5608 51.9959 71.6926C49.9341 70.8245 49.4638 69.3414 49.4865 68.7084C47.5196 68.5728 46.0953 66.5381 45.824 64.3677C45.5527 62.1974 46.502 56.9072 46.502 53.9908C46.502 51.6577 45.2812 52.3404 44.6708 52.9734C44.1824 50.6946 46.6376 47.3667 47.9263 45.9876C47.1667 45.5536 46.6602 46.1685 46.502 46.5302C46.5562 42.7321 48.8758 37.6228 50.0288 35.5429C48.9979 35.2173 48.1976 35.6785 47.9263 35.9498Z" fill="url(#paint33_radial_9681_869)"/>
<path d="M47.9263 35.9498C49.3506 33.169 52.742 30.4561 55.4549 29.6422C57.0601 29.1675 60.0126 28.6385 58.9817 28.1501C57.9508 27.6618 55.7488 27.7206 54.7767 27.811C58.1 26.3867 62.712 25.912 63.1868 25.912C62.8612 25.0981 61.4686 24.8946 60.8129 24.8946C64.3397 24.135 66.3971 24.5781 66.9849 24.8946C66.605 23.8637 65.1536 23.199 64.4754 22.9956C66.483 22.6157 69.6526 23.7868 70.9864 24.4198C70.6609 23.4432 69.856 23.0634 69.4943 22.9956C72.682 23.2668 76.141 24.6233 79.8034 27.811C83.4659 30.9987 85.9075 41.7826 85.9075 44.4955C85.9075 47.2085 84.6189 52.2952 85.9075 55.4829C86.9385 58.033 84.6708 62.6495 83.2917 64.3677C83.9971 63.4996 82.7651 60.0723 82.1773 58.7384C82.8826 60.3662 80.6173 63.8025 79.8034 64.3677C79.8034 62.8485 78.6731 60.5244 77.7009 60.5018C78.2978 61.8583 78.0853 66.994 77.7009 67.7174C77.7552 66.361 76.1374 63.893 75.1427 63.8251C76.1193 66.3753 74.8038 69.239 73.6282 71.2511C73.8995 70.6 72.5465 68.098 70.9864 68.098C71.3662 69.8343 70.1499 71.7605 69.4943 72.5065C69.4943 70.933 67.8213 70.4492 66.9849 70.404C67.9615 72.3573 66.9396 75.2873 66.3066 76.5081C65.4071 73.9194 64.4754 74.8068 63.1868 74.1357C63.1325 78.8019 64.0232 79.741 64.4754 80.8488L61.8631 80.1027C62.1344 81.2422 62.8024 83.2904 63.1868 83.7652C61.2877 83.1548 58.0593 81.7848 57.354 80.1027C56.5408 78.1637 56.5384 74.2412 57.0148 72.1448C56.0879 72.3709 54.0577 72.5608 51.9959 71.6926C49.9341 70.8245 49.4638 69.3414 49.4865 68.7084C47.5196 68.5728 46.0953 66.5381 45.824 64.3677C45.5527 62.1974 46.502 56.9072 46.502 53.9908C46.502 51.6577 45.2812 52.3404 44.6708 52.9734C44.1824 50.6946 46.6376 47.3667 47.9263 45.9876C47.1667 45.5536 46.6602 46.1685 46.502 46.5302C46.5562 42.7321 48.8758 37.6228 50.0288 35.5429C48.9979 35.2173 48.1976 35.6785 47.9263 35.9498Z" fill="url(#paint34_radial_9681_869)"/>
<path d="M47.9263 35.9498C49.3506 33.169 52.742 30.4561 55.4549 29.6422C57.0601 29.1675 60.0126 28.6385 58.9817 28.1501C57.9508 27.6618 55.7488 27.7206 54.7767 27.811C58.1 26.3867 62.712 25.912 63.1868 25.912C62.8612 25.0981 61.4686 24.8946 60.8129 24.8946C64.3397 24.135 66.3971 24.5781 66.9849 24.8946C66.605 23.8637 65.1536 23.199 64.4754 22.9956C66.483 22.6157 69.6526 23.7868 70.9864 24.4198C70.6609 23.4432 69.856 23.0634 69.4943 22.9956C72.682 23.2668 76.141 24.6233 79.8034 27.811C83.4659 30.9987 85.9075 41.7826 85.9075 44.4955C85.9075 47.2085 84.6189 52.2952 85.9075 55.4829C86.9385 58.033 84.6708 62.6495 83.2917 64.3677C83.9971 63.4996 82.7651 60.0723 82.1773 58.7384C82.8826 60.3662 80.6173 63.8025 79.8034 64.3677C79.8034 62.8485 78.6731 60.5244 77.7009 60.5018C78.2978 61.8583 78.0853 66.994 77.7009 67.7174C77.7552 66.361 76.1374 63.893 75.1427 63.8251C76.1193 66.3753 74.8038 69.239 73.6282 71.2511C73.8995 70.6 72.5465 68.098 70.9864 68.098C71.3662 69.8343 70.1499 71.7605 69.4943 72.5065C69.4943 70.933 67.8213 70.4492 66.9849 70.404C67.9615 72.3573 66.9396 75.2873 66.3066 76.5081C65.4071 73.9194 64.4754 74.8068 63.1868 74.1357C63.1325 78.8019 64.0232 79.741 64.4754 80.8488L61.8631 80.1027C62.1344 81.2422 62.8024 83.2904 63.1868 83.7652C61.2877 83.1548 58.0593 81.7848 57.354 80.1027C56.5408 78.1637 56.5384 74.2412 57.0148 72.1448C56.0879 72.3709 54.0577 72.5608 51.9959 71.6926C49.9341 70.8245 49.4638 69.3414 49.4865 68.7084C47.5196 68.5728 46.0953 66.5381 45.824 64.3677C45.5527 62.1974 46.502 56.9072 46.502 53.9908C46.502 51.6577 45.2812 52.3404 44.6708 52.9734C44.1824 50.6946 46.6376 47.3667 47.9263 45.9876C47.1667 45.5536 46.6602 46.1685 46.502 46.5302C46.5562 42.7321 48.8758 37.6228 50.0288 35.5429C48.9979 35.2173 48.1976 35.6785 47.9263 35.9498Z" fill="url(#paint35_radial_9681_869)"/>
<path d="M47.9263 35.9498C49.3506 33.169 52.742 30.4561 55.4549 29.6422C57.0601 29.1675 60.0126 28.6385 58.9817 28.1501C57.9508 27.6618 55.7488 27.7206 54.7767 27.811C58.1 26.3867 62.712 25.912 63.1868 25.912C62.8612 25.0981 61.4686 24.8946 60.8129 24.8946C64.3397 24.135 66.3971 24.5781 66.9849 24.8946C66.605 23.8637 65.1536 23.199 64.4754 22.9956C66.483 22.6157 69.6526 23.7868 70.9864 24.4198C70.6609 23.4432 69.856 23.0634 69.4943 22.9956C72.682 23.2668 76.141 24.6233 79.8034 27.811C83.4659 30.9987 85.9075 41.7826 85.9075 44.4955C85.9075 47.2085 84.6189 52.2952 85.9075 55.4829C86.9385 58.033 84.6708 62.6495 83.2917 64.3677C83.9971 63.4996 82.7651 60.0723 82.1773 58.7384C82.8826 60.3662 80.6173 63.8025 79.8034 64.3677C79.8034 62.8485 78.6731 60.5244 77.7009 60.5018C78.2978 61.8583 78.0853 66.994 77.7009 67.7174C77.7552 66.361 76.1374 63.893 75.1427 63.8251C76.1193 66.3753 74.8038 69.239 73.6282 71.2511C73.8995 70.6 72.5465 68.098 70.9864 68.098C71.3662 69.8343 70.1499 71.7605 69.4943 72.5065C69.4943 70.933 67.8213 70.4492 66.9849 70.404C67.9615 72.3573 66.9396 75.2873 66.3066 76.5081C65.4071 73.9194 64.4754 74.8068 63.1868 74.1357C63.1325 78.8019 64.0232 79.741 64.4754 80.8488L61.8631 80.1027C62.1344 81.2422 62.8024 83.2904 63.1868 83.7652C61.2877 83.1548 58.0593 81.7848 57.354 80.1027C56.5408 78.1637 56.5384 74.2412 57.0148 72.1448C56.0879 72.3709 54.0577 72.5608 51.9959 71.6926C49.9341 70.8245 49.4638 69.3414 49.4865 68.7084C47.5196 68.5728 46.0953 66.5381 45.824 64.3677C45.5527 62.1974 46.502 56.9072 46.502 53.9908C46.502 51.6577 45.2812 52.3404 44.6708 52.9734C44.1824 50.6946 46.6376 47.3667 47.9263 45.9876C47.1667 45.5536 46.6602 46.1685 46.502 46.5302C46.5562 42.7321 48.8758 37.6228 50.0288 35.5429C48.9979 35.2173 48.1976 35.6785 47.9263 35.9498Z" fill="url(#paint36_radial_9681_869)"/>
<path d="M47.9263 35.9498C49.3506 33.169 52.742 30.4561 55.4549 29.6422C57.0601 29.1675 60.0126 28.6385 58.9817 28.1501C57.9508 27.6618 55.7488 27.7206 54.7767 27.811C58.1 26.3867 62.712 25.912 63.1868 25.912C62.8612 25.0981 61.4686 24.8946 60.8129 24.8946C64.3397 24.135 66.3971 24.5781 66.9849 24.8946C66.605 23.8637 65.1536 23.199 64.4754 22.9956C66.483 22.6157 69.6526 23.7868 70.9864 24.4198C70.6609 23.4432 69.856 23.0634 69.4943 22.9956C72.682 23.2668 76.141 24.6233 79.8034 27.811C83.4659 30.9987 85.9075 41.7826 85.9075 44.4955C85.9075 47.2085 84.6189 52.2952 85.9075 55.4829C86.9385 58.033 84.6708 62.6495 83.2917 64.3677C83.9971 63.4996 82.7651 60.0723 82.1773 58.7384C82.8826 60.3662 80.6173 63.8025 79.8034 64.3677C79.8034 62.8485 78.6731 60.5244 77.7009 60.5018C78.2978 61.8583 78.0853 66.994 77.7009 67.7174C77.7552 66.361 76.1374 63.893 75.1427 63.8251C76.1193 66.3753 74.8038 69.239 73.6282 71.2511C73.8995 70.6 72.5465 68.098 70.9864 68.098C71.3662 69.8343 70.1499 71.7605 69.4943 72.5065C69.4943 70.933 67.8213 70.4492 66.9849 70.404C67.9615 72.3573 66.9396 75.2873 66.3066 76.5081C65.4071 73.9194 64.4754 74.8068 63.1868 74.1357C63.1325 78.8019 64.0232 79.741 64.4754 80.8488L61.8631 80.1027C62.1344 81.2422 62.8024 83.2904 63.1868 83.7652C61.2877 83.1548 58.0593 81.7848 57.354 80.1027C56.5408 78.1637 56.5384 74.2412 57.0148 72.1448C56.0879 72.3709 54.0577 72.5608 51.9959 71.6926C49.9341 70.8245 49.4638 69.3414 49.4865 68.7084C47.5196 68.5728 46.0953 66.5381 45.824 64.3677C45.5527 62.1974 46.502 56.9072 46.502 53.9908C46.502 51.6577 45.2812 52.3404 44.6708 52.9734C44.1824 50.6946 46.6376 47.3667 47.9263 45.9876C47.1667 45.5536 46.6602 46.1685 46.502 46.5302C46.5562 42.7321 48.8758 37.6228 50.0288 35.5429C48.9979 35.2173 48.1976 35.6785 47.9263 35.9498Z" fill="url(#paint37_radial_9681_869)"/>
<path d="M47.9263 35.9498C49.3506 33.169 52.742 30.4561 55.4549 29.6422C57.0601 29.1675 60.0126 28.6385 58.9817 28.1501C57.9508 27.6618 55.7488 27.7206 54.7767 27.811C58.1 26.3867 62.712 25.912 63.1868 25.912C62.8612 25.0981 61.4686 24.8946 60.8129 24.8946C64.3397 24.135 66.3971 24.5781 66.9849 24.8946C66.605 23.8637 65.1536 23.199 64.4754 22.9956C66.483 22.6157 69.6526 23.7868 70.9864 24.4198C70.6609 23.4432 69.856 23.0634 69.4943 22.9956C72.682 23.2668 76.141 24.6233 79.8034 27.811C83.4659 30.9987 85.9075 41.7826 85.9075 44.4955C85.9075 47.2085 84.6189 52.2952 85.9075 55.4829C86.9385 58.033 84.6708 62.6495 83.2917 64.3677C83.9971 63.4996 82.7651 60.0723 82.1773 58.7384C82.8826 60.3662 80.6173 63.8025 79.8034 64.3677C79.8034 62.8485 78.6731 60.5244 77.7009 60.5018C78.2978 61.8583 78.0853 66.994 77.7009 67.7174C77.7552 66.361 76.1374 63.893 75.1427 63.8251C76.1193 66.3753 74.8038 69.239 73.6282 71.2511C73.8995 70.6 72.5465 68.098 70.9864 68.098C71.3662 69.8343 70.1499 71.7605 69.4943 72.5065C69.4943 70.933 67.8213 70.4492 66.9849 70.404C67.9615 72.3573 66.9396 75.2873 66.3066 76.5081C65.4071 73.9194 64.4754 74.8068 63.1868 74.1357C63.1325 78.8019 64.0232 79.741 64.4754 80.8488L61.8631 80.1027C62.1344 81.2422 62.8024 83.2904 63.1868 83.7652C61.2877 83.1548 58.0593 81.7848 57.354 80.1027C56.5408 78.1637 56.5384 74.2412 57.0148 72.1448C56.0879 72.3709 54.0577 72.5608 51.9959 71.6926C49.9341 70.8245 49.4638 69.3414 49.4865 68.7084C47.5196 68.5728 46.0953 66.5381 45.824 64.3677C45.5527 62.1974 46.502 56.9072 46.502 53.9908C46.502 51.6577 45.2812 52.3404 44.6708 52.9734C44.1824 50.6946 46.6376 47.3667 47.9263 45.9876C47.1667 45.5536 46.6602 46.1685 46.502 46.5302C46.5562 42.7321 48.8758 37.6228 50.0288 35.5429C48.9979 35.2173 48.1976 35.6785 47.9263 35.9498Z" fill="url(#paint38_radial_9681_869)"/>
<path d="M83.439 38.3427C79.8633 35.7274 74.7885 39.5464 74.353 40.9011C75.8239 41.6758 75.6755 43.5458 75.4175 44.384C76.2884 44.6421 78.572 44.742 80.7396 43.0777C82.9072 41.4133 84.3629 39.906 83.439 38.3427Z" fill="url(#paint39_radial_9681_869)"/>
<path d="M65.4004 41.5419C61.6734 40.401 55.5885 42.4546 56.4252 49.4523C58.7066 51.05 62.1302 50.6689 64.5642 49.4523C66.9981 48.2357 69.1274 42.6828 65.4004 41.5419Z" fill="url(#paint40_linear_9681_869)"/>
<path d="M60.1359 47.005C59.9098 46.0555 60.2037 44.1836 63.1879 44.2921C63.4593 45.4904 63.2289 47.7106 60.1359 47.005Z" fill="#2F1E0E"/>
<path d="M60.1359 47.005C59.9098 46.0555 60.2037 44.1836 63.1879 44.2921C63.4593 45.4904 63.2289 47.7106 60.1359 47.005Z" fill="url(#paint41_radial_9681_869)"/>
<path d="M58.4912 48.9036C58.0271 46.9544 58.6305 43.1117 64.7565 43.3345C65.3137 45.7944 64.8407 50.3521 58.4912 48.9036Z" fill="#2F1E0E"/>
<path d="M58.4912 48.9036C58.0271 46.9544 58.6305 43.1117 64.7565 43.3345C65.3137 45.7944 64.8407 50.3521 58.4912 48.9036Z" fill="url(#paint42_radial_9681_869)"/>
<path d="M45.4404 66.8793C44.0418 65.5584 44.5492 62.6843 45.8651 61.965C45.8651 61.965 46.5648 62.1486 47.4217 61.965C49.597 61.4989 51.5783 60.1972 51.5783 60.8188C51.5783 61.4404 52.9371 67.1126 52.3155 67.9672C51.6939 68.8219 50.6647 69.3465 49.4992 69.5019C48.3337 69.6573 46.839 68.2002 45.4404 66.8793Z" fill="url(#paint43_radial_9681_869)"/>
<path d="M45.4404 66.8793C44.0418 65.5584 44.5492 62.6843 45.8651 61.965C45.8651 61.965 46.5648 62.1486 47.4217 61.965C49.597 61.4989 51.5783 60.1972 51.5783 60.8188C51.5783 61.4404 52.9371 67.1126 52.3155 67.9672C51.6939 68.8219 50.6647 69.3465 49.4992 69.5019C48.3337 69.6573 46.839 68.2002 45.4404 66.8793Z" fill="url(#paint44_radial_9681_869)"/>
<path d="M45.4404 66.8793C44.0418 65.5584 44.5492 62.6843 45.8651 61.965C45.8651 61.965 46.5648 62.1486 47.4217 61.965C49.597 61.4989 51.5783 60.1972 51.5783 60.8188C51.5783 61.4404 52.9371 67.1126 52.3155 67.9672C51.6939 68.8219 50.6647 69.3465 49.4992 69.5019C48.3337 69.6573 46.839 68.2002 45.4404 66.8793Z" fill="url(#paint45_radial_9681_869)"/>
<path d="M47.4322 64.6697C47.7754 64.273 50.0466 63.6709 50.8378 63.0493C51.3461 63.7428 50.4051 66.9805 49.6053 67.1191C48.8003 67.2586 47.1986 65.3548 47.4322 64.6697Z" fill="url(#paint46_linear_9681_869)" fill-opacity="0.55"/>
<path d="M51.4952 70.4631C53.0737 69.979 54.7565 67.4956 55.0301 67.4956C55.3037 67.4956 55.2582 67.9932 54.6948 69.2845C54.1896 70.442 53.2875 71.2281 52.5902 71.4943C51.391 71.7469 50.6179 70.7321 51.4952 70.4631Z" fill="#D49747" fill-opacity="0.22"/>
<path d="M51.4952 70.4631C53.0737 69.979 54.7565 67.4956 55.0301 67.4956C55.3037 67.4956 55.2582 67.9932 54.6948 69.2845C54.1896 70.442 53.2875 71.2281 52.5902 71.4943C51.391 71.7469 50.6179 70.7321 51.4952 70.4631Z" fill="#38220F"/>
<path d="M67.5641 37.9837C64.7818 35.5287 64.9458 32.4189 66.5002 30.3733C66.9912 30.3733 68.7563 31.1407 70.4286 29.9639C72.7374 28.3392 72.2279 22.7628 72.2279 20.9625C72.2279 19.1622 71.4914 12.8611 72.2279 14.4977C72.9644 16.1344 77.0561 26.8545 76.4832 31.6007C75.9104 36.3471 70.3465 40.4387 67.5641 37.9837Z" fill="url(#paint47_linear_9681_869)"/>
<path d="M67.5641 37.9837C64.7818 35.5287 64.9458 32.4189 66.5002 30.3733C66.9912 30.3733 68.7563 31.1407 70.4286 29.9639C72.7374 28.3392 72.2279 22.7628 72.2279 20.9625C72.2279 19.1622 71.4914 12.8611 72.2279 14.4977C72.9644 16.1344 77.0561 26.8545 76.4832 31.6007C75.9104 36.3471 70.3465 40.4387 67.5641 37.9837Z" fill="url(#paint48_radial_9681_869)"/>
<path d="M67.5641 37.9837C64.7818 35.5287 64.9458 32.4189 66.5002 30.3733C66.9912 30.3733 68.7563 31.1407 70.4286 29.9639C72.7374 28.3392 72.2279 22.7628 72.2279 20.9625C72.2279 19.1622 71.4914 12.8611 72.2279 14.4977C72.9644 16.1344 77.0561 26.8545 76.4832 31.6007C75.9104 36.3471 70.3465 40.4387 67.5641 37.9837Z" fill="url(#paint49_radial_9681_869)"/>
<defs>
<linearGradient id="paint0_linear_9681_869" x1="161.538" y1="24.8073" x2="193.846" y2="171.346" gradientUnits="userSpaceOnUse">
<stop stop-color="#FFC470"/>
<stop offset="1" stop-color="#498C4A"/>
</linearGradient>
<radialGradient id="paint1_radial_9681_869" cx="0" cy="0" r="1" gradientUnits="userSpaceOnUse" gradientTransform="translate(94.7445 93.1161) rotate(1.0634) scale(116.91 18.595)">
<stop stop-color="#FFD394" stop-opacity="0.66"/>
<stop offset="1" stop-color="#FFC7A3" stop-opacity="0"/>
</radialGradient>
<radialGradient id="paint2_radial_9681_869" cx="0" cy="0" r="1" gradientUnits="userSpaceOnUse" gradientTransform="translate(131.238 107.019) scale(63.7579 6.48926)">
<stop stop-opacity="0.45"/>
<stop offset="1" stop-opacity="0"/>
</radialGradient>
<linearGradient id="paint3_linear_9681_869" x1="155.604" y1="55.2827" x2="155.604" y2="107.016" gradientUnits="userSpaceOnUse">
<stop stop-color="#B7713F"/>
<stop offset="1" stop-color="#563017"/>
</linearGradient>
<radialGradient id="paint4_radial_9681_869" cx="0" cy="0" r="1" gradientUnits="userSpaceOnUse" gradientTransform="translate(157.563 96.7852) rotate(112.135) scale(17.2799 13.85)">
<stop stop-color="#FF9359" stop-opacity="0.77"/>
<stop offset="1" stop-color="#FF9359" stop-opacity="0"/>
</radialGradient>
<linearGradient id="paint5_linear_9681_869" x1="153.735" y1="101.171" x2="153.735" y2="107.016" gradientUnits="userSpaceOnUse">
<stop stop-color="#563017" stop-opacity="0"/>
<stop offset="1" stop-color="#563017"/>
</linearGradient>
<linearGradient id="paint6_linear_9681_869" x1="86.1521" y1="77.7827" x2="86.1521" y2="106.966" gradientUnits="userSpaceOnUse">
<stop stop-color="#B7713F"/>
<stop offset="1" stop-color="#563017"/>
</linearGradient>
<radialGradient id="paint7_radial_9681_869" cx="0" cy="0" r="1" gradientUnits="userSpaceOnUse" gradientTransform="translate(79.1596 98.685) rotate(23.1115) scale(7.60269 11.368)">
<stop stop-color="#FF9359" stop-opacity="0.77"/>
<stop offset="1" stop-color="#FF9359" stop-opacity="0"/>
</radialGradient>
<linearGradient id="paint8_linear_9681_869" x1="84.4013" y1="103.669" x2="84.4013" y2="106.966" gradientUnits="userSpaceOnUse">
<stop stop-color="#563017" stop-opacity="0"/>
<stop offset="1" stop-color="#563017"/>
</linearGradient>
<radialGradient id="paint9_radial_9681_869" cx="0" cy="0" r="1" gradientUnits="userSpaceOnUse" gradientTransform="translate(89.7737 74.7111) rotate(104.086) scale(25.7764 41.2068)">
<stop stop-color="#2A1C0D"/>
<stop offset="0.762467" stop-color="#89411C"/>
<stop offset="1" stop-color="#BD6B30"/>
</radialGradient>
<linearGradient id="paint10_linear_9681_869" x1="133.564" y1="8.70752" x2="133.564" y2="73.2726" gradientUnits="userSpaceOnUse">
<stop stop-color="#B7713F"/>
<stop offset="1" stop-color="#563017"/>
</linearGradient>
<radialGradient id="paint11_radial_9681_869" cx="0" cy="0" r="1" gradientUnits="userSpaceOnUse" gradientTransform="translate(143.455 32.2178) rotate(-73.6518) scale(21.2043 37.2782)">
<stop stop-color="#FF9359" stop-opacity="0.66"/>
<stop offset="1" stop-color="#FF9359" stop-opacity="0"/>
</radialGradient>
<linearGradient id="paint12_linear_9681_869" x1="181.287" y1="32.8237" x2="181.287" y2="69.8994" gradientUnits="userSpaceOnUse">
<stop stop-color="#9A6337"/>
<stop offset="1" stop-color="#3F3531"/>
</linearGradient>
<radialGradient id="paint13_radial_9681_869" cx="0" cy="0" r="1" gradientUnits="userSpaceOnUse" gradientTransform="translate(190.593 52.3291) rotate(90) scale(16.6562 7.21933)">
<stop stop-color="#FF9359" stop-opacity="0.77"/>
<stop offset="1" stop-color="#FF9359" stop-opacity="0"/>
</radialGradient>
<linearGradient id="paint14_linear_9681_869" x1="176.077" y1="30.0229" x2="176.077" y2="109.778" gradientUnits="userSpaceOnUse">
<stop stop-color="#B7713F"/>
<stop offset="1" stop-color="#563017"/>
</linearGradient>
<radialGradient id="paint15_radial_9681_869" cx="0" cy="0" r="1" gradientUnits="userSpaceOnUse" gradientTransform="translate(179.278 59.0642) rotate(-85.606) scale(25.2078 12.5338)">
<stop stop-color="#FF9359" stop-opacity="0.66"/>
<stop offset="1" stop-color="#FF9359" stop-opacity="0"/>
</radialGradient>
<radialGradient id="paint16_radial_9681_869" cx="0" cy="0" r="1" gradientUnits="userSpaceOnUse" gradientTransform="translate(184.42 92.4468) rotate(74.3578) scale(14.0864 16.9496)">
<stop stop-color="#FF9359" stop-opacity="0.66"/>
<stop offset="1" stop-color="#FF9359" stop-opacity="0"/>
</radialGradient>
<linearGradient id="paint17_linear_9681_869" x1="182.739" y1="106.587" x2="184.181" y2="111.202" gradientUnits="userSpaceOnUse">
<stop stop-color="#563017" stop-opacity="0"/>
<stop offset="0.699287" stop-color="#4C2912"/>
</linearGradient>
<linearGradient id="paint18_linear_9681_869" x1="119.083" y1="78.0269" x2="119.083" y2="111.688" gradientUnits="userSpaceOnUse">
<stop stop-color="#B7713F"/>
<stop offset="1" stop-color="#563017"/>
</linearGradient>
<radialGradient id="paint19_radial_9681_869" cx="0" cy="0" r="1" gradientUnits="userSpaceOnUse" gradientTransform="translate(111.805 102.136) rotate(25.3109) scale(8.05121 12.8879)">
<stop stop-color="#FF9359" stop-opacity="0.77"/>
<stop offset="1" stop-color="#FF9359" stop-opacity="0"/>
</radialGradient>
<linearGradient id="paint20_linear_9681_869" x1="117.261" y1="107.885" x2="117.261" y2="111.688" gradientUnits="userSpaceOnUse">
<stop stop-color="#563017" stop-opacity="0"/>
<stop offset="1" stop-color="#563017"/>
</linearGradient>
<linearGradient id="paint21_linear_9681_869" x1="106.697" y1="35.6099" x2="131.792" y2="33.8465" gradientUnits="userSpaceOnUse">
<stop stop-color="#2A1C0D"/>
<stop offset="1" stop-color="#2A1C0D" stop-opacity="0"/>
</linearGradient>
<radialGradient id="paint22_radial_9681_869" cx="0" cy="0" r="1" gradientUnits="userSpaceOnUse" gradientTransform="translate(101.676 19.7396) rotate(105.325) scale(58.5094 89.6487)">
<stop stop-color="#BD6B30"/>
<stop offset="0.596154" stop-color="#89411C"/>
<stop offset="1" stop-color="#2A1C0D"/>
</radialGradient>
<radialGradient id="paint23_radial_9681_869" cx="0" cy="0" r="1" gradientUnits="userSpaceOnUse" gradientTransform="translate(104.313 19.6769) rotate(73.6299) scale(25.2664 67.6461)">
<stop stop-color="#E0A44E"/>
<stop offset="1" stop-color="#E0A44E" stop-opacity="0"/>
</radialGradient>
<radialGradient id="paint24_radial_9681_869" cx="0" cy="0" r="1" gradientUnits="userSpaceOnUse" gradientTransform="translate(114.559 43.4389) rotate(-26.6087) scale(20.619 35.7139)">
<stop offset="0.141742" stop-color="#E0A44E" stop-opacity="0.55"/>
<stop offset="1" stop-color="#E0A44E" stop-opacity="0"/>
</radialGradient>
<radialGradient id="paint25_radial_9681_869" cx="0" cy="0" r="1" gradientUnits="userSpaceOnUse" gradientTransform="translate(119.134 85.9615) rotate(4.08563) scale(8.0975 21.816)">
<stop stop-color="#FF9359" stop-opacity="0.45"/>
<stop offset="0.764423" stop-color="#FF9359" stop-opacity="0"/>
</radialGradient>
<radialGradient id="paint26_radial_9681_869" cx="0" cy="0" r="1" gradientUnits="userSpaceOnUse" gradientTransform="translate(72.1054 44.4272) rotate(42.7688) scale(29.5647 20.2685)">
<stop stop-color="#2A1C0D"/>
<stop offset="1" stop-color="#2A1C0D" stop-opacity="0"/>
</radialGradient>
<radialGradient id="paint27_radial_9681_869" cx="0" cy="0" r="1" gradientUnits="userSpaceOnUse" gradientTransform="translate(99.8066 73.8461) rotate(-50.5994) scale(10.4525 23.3144)">
<stop offset="0.371288" stop-color="#FF9359" stop-opacity="0.25"/>
<stop offset="0.766566" stop-color="#FF9359" stop-opacity="0"/>
</radialGradient>
<linearGradient id="paint28_linear_9681_869" x1="56.9443" y1="17.5396" x2="56.9443" y2="37.5699" gradientUnits="userSpaceOnUse">
<stop stop-color="#FFE4BE"/>
<stop offset="1" stop-color="#E79E63"/>
</linearGradient>
<radialGradient id="paint29_radial_9681_869" cx="0" cy="0" r="1" gradientUnits="userSpaceOnUse" gradientTransform="translate(59.5497 25.892) rotate(-170.675) scale(5.51827 24.4343)">
<stop stop-color="#A35F28"/>
<stop offset="0.632363" stop-color="#A35F28" stop-opacity="0"/>
</radialGradient>
<radialGradient id="paint30_radial_9681_869" cx="0" cy="0" r="1" gradientUnits="userSpaceOnUse" gradientTransform="translate(59.9443 29.4052) rotate(123.008) scale(5.5071 8.87946)">
<stop offset="0.544011" stop-color="#FFE4BE"/>
<stop offset="1" stop-color="#FFE4BE" stop-opacity="0"/>
</radialGradient>
<radialGradient id="paint31_radial_9681_869" cx="0" cy="0" r="1" gradientUnits="userSpaceOnUse" gradientTransform="translate(63.4679 30.8468) rotate(106.554) scale(39.3054 64.5286)">
<stop stop-color="#BD6B30"/>
<stop offset="0.596154" stop-color="#89411C"/>
<stop offset="1" stop-color="#2A1C0D"/>
</radialGradient>
<radialGradient id="paint32_radial_9681_869" cx="0" cy="0" r="1" gradientUnits="userSpaceOnUse" gradientTransform="translate(63.4679 30.8468) rotate(106.554) scale(39.3054 64.5286)">
<stop stop-color="#995727"/>
<stop offset="0.596154" stop-color="#663015"/>
<stop offset="1" stop-color="#2A1C0D"/>
</radialGradient>
<radialGradient id="paint33_radial_9681_869" cx="0" cy="0" r="1" gradientUnits="userSpaceOnUse" gradientTransform="translate(47.7377 49.6165) rotate(6.91123) scale(9.58891 38.7071)">
<stop stop-color="#E0A44E" stop-opacity="0.88"/>
<stop offset="1" stop-color="#E0A44E" stop-opacity="0"/>
</radialGradient>
<radialGradient id="paint34_radial_9681_869" cx="0" cy="0" r="1" gradientUnits="userSpaceOnUse" gradientTransform="translate(62.8115 48.0902) rotate(-124.903) scale(7.11207)">
<stop stop-color="#E0A44E" stop-opacity="0.45"/>
<stop offset="1" stop-color="#E0A44E" stop-opacity="0"/>
</radialGradient>
<radialGradient id="paint35_radial_9681_869" cx="0" cy="0" r="1" gradientUnits="userSpaceOnUse" gradientTransform="translate(58.8778 78.6106) rotate(-29.3578) scale(6.22535 11.6186)">
<stop stop-color="#E0A44E" stop-opacity="0.55"/>
<stop offset="1" stop-color="#E0A44E" stop-opacity="0"/>
</radialGradient>
<radialGradient id="paint36_radial_9681_869" cx="0" cy="0" r="1" gradientUnits="userSpaceOnUse" gradientTransform="translate(52.4265 72.035) rotate(-58.7362) scale(3.41275 6.58535)">
<stop offset="0.0468749" stop-color="#E0A44E" stop-opacity="0.55"/>
<stop offset="1" stop-color="#E0A44E" stop-opacity="0"/>
</radialGradient>
<radialGradient id="paint37_radial_9681_869" cx="0" cy="0" r="1" gradientUnits="userSpaceOnUse" gradientTransform="translate(57.6896 68.3665) rotate(-64.2901) scale(8.64423 16.9034)">
<stop offset="0.379732" stop-color="#E6854F" stop-opacity="0.44"/>
<stop offset="1" stop-color="#E6854F" stop-opacity="0"/>
</radialGradient>
<radialGradient id="paint38_radial_9681_869" cx="0" cy="0" r="1" gradientUnits="userSpaceOnUse" gradientTransform="translate(87.567 47.4119) rotate(166.35) scale(19.5425 43.6877)">
<stop stop-color="#2A1C0D"/>
<stop offset="1" stop-color="#2A1C0D" stop-opacity="0"/>
</radialGradient>
<radialGradient id="paint39_radial_9681_869" cx="0" cy="0" r="1" gradientUnits="userSpaceOnUse" gradientTransform="translate(76.2877 43.8073) rotate(-42.1087) scale(8.44808 5.51169)">
<stop offset="0.588371" stop-color="#A65928"/>
<stop offset="1" stop-color="#E19A52"/>
</radialGradient>
<linearGradient id="paint40_linear_9681_869" x1="61.8826" y1="41.2479" x2="66.7307" y2="51.9642" gradientUnits="userSpaceOnUse">
<stop stop-color="#B46F38"/>
<stop offset="1" stop-color="#8A4715" stop-opacity="0"/>
</linearGradient>
<radialGradient id="paint41_radial_9681_869" cx="0" cy="0" r="1" gradientUnits="userSpaceOnUse" gradientTransform="translate(61.5248 45.1057) rotate(83.122) scale(1.24675 1.3966)">
<stop stop-color="#F8E1E1"/>
<stop offset="1" stop-color="#F8E1E1" stop-opacity="0"/>
</radialGradient>
<radialGradient id="paint42_radial_9681_869" cx="0" cy="0" r="1" gradientUnits="userSpaceOnUse" gradientTransform="translate(61.3414 45.0069) rotate(83.122) scale(2.55935 2.86698)">
<stop stop-color="#F8E1E1"/>
<stop offset="1" stop-color="#F8E1E1" stop-opacity="0"/>
</radialGradient>
<radialGradient id="paint43_radial_9681_869" cx="0" cy="0" r="1" gradientUnits="userSpaceOnUse" gradientTransform="translate(46.4603 62.9112) rotate(24.3796) scale(6.60483 10.9376)">
<stop stop-color="#F4A759"/>
<stop offset="0.623911" stop-color="#8F4800"/>
<stop offset="1" stop-color="#4D2802"/>
</radialGradient>
<radialGradient id="paint44_radial_9681_869" cx="0" cy="0" r="1" gradientUnits="userSpaceOnUse" gradientTransform="translate(44.9973 65.9998) rotate(-33.6901) scale(5.40833 8.95621)">
<stop stop-color="#8F4800"/>
<stop offset="1" stop-color="#4D2802"/>
</radialGradient>
<radialGradient id="paint45_radial_9681_869" cx="0" cy="0" r="1" gradientUnits="userSpaceOnUse" gradientTransform="translate(47.9973 63.9373) rotate(75.8809) scale(2.22342 4.72476)">
<stop stop-color="#FFE4BE" stop-opacity="0.55"/>
<stop offset="1" stop-color="#FFE4BE" stop-opacity="0"/>
</radialGradient>
<linearGradient id="paint46_linear_9681_869" x1="48.6055" y1="65.0868" x2="50.0415" y2="67.5561" gradientUnits="userSpaceOnUse">
<stop/>
<stop offset="1"/>
</linearGradient>
<linearGradient id="paint47_linear_9681_869" x1="70.9631" y1="14.2313" x2="70.9631" y2="38.7212" gradientUnits="userSpaceOnUse">
<stop stop-color="#FFE4BE"/>
<stop offset="1" stop-color="#E79E63"/>
</linearGradient>
<radialGradient id="paint48_radial_9681_869" cx="0" cy="0" r="1" gradientUnits="userSpaceOnUse" gradientTransform="translate(75.0636 23.4195) rotate(171.607) scale(5.04584 20.5477)">
<stop stop-color="#A35F28"/>
<stop offset="0.632363" stop-color="#A35F28" stop-opacity="0"/>
</radialGradient>
<radialGradient id="paint49_radial_9681_869" cx="0" cy="0" r="1" gradientUnits="userSpaceOnUse" gradientTransform="translate(66.9622 28.7387) rotate(54.68) scale(6.92023 11.5218)">
<stop offset="0.544011" stop-color="#FFE4BE"/>
<stop offset="1" stop-color="#FFE4BE" stop-opacity="0"/>
</radialGradient>
</defs>
</svg>
