<svg viewBox="0 0 240 120" fill="none" xmlns="http://www.w3.org/2000/svg">
<path d="M195.751 70.7001C197.961 73.6465 197.593 87.3965 206.309 91.6934C207.537 89.9746 216.008 69.9635 209.256 65.2983C210.974 68.4903 209.133 78.3117 205.695 83.8363C203.936 79.9486 199.483 71.8787 195.751 70.7001Z" fill="url(#paint0_linear_7321_1517)"/>
<path d="M199.926 61.2476C197.594 67.0176 197.839 78.0667 205.451 85.5556C210.976 83.5913 212.694 68.7364 204.346 61.2476C205.328 64.3986 206.924 71.4618 205.451 74.5065C203.937 72.7468 200.712 67.6315 199.926 61.2476Z" fill="url(#paint1_linear_7321_1517)"/>
<path d="M204.959 75.8569C199.926 70.3323 196.856 57.5645 203.486 48.3569C202.012 54.2498 210.484 71.3145 204.959 75.8569Z" fill="url(#paint2_linear_7321_1517)"/>
<path fill-rule="evenodd" clip-rule="evenodd" d="M204.865 49.1671C205.231 49.522 205.24 50.1064 204.885 50.4724C204.077 51.3057 203.576 52.4665 203.343 53.9858C203.108 55.5109 203.154 57.3389 203.392 59.4316C203.728 62.376 204.426 65.7092 205.179 69.3066C205.503 70.8533 205.837 72.4488 206.157 74.0833C208.25 84.7797 209.725 97.0593 202.481 105.906L201.053 104.736C207.682 96.6404 206.456 85.2258 204.345 74.4379C204.038 72.8695 203.712 71.3119 203.392 69.7843C202.63 66.1437 201.904 62.6744 201.558 59.6407C201.311 57.4749 201.248 55.4626 201.518 53.7056C201.788 51.9427 202.404 50.3796 203.56 49.1872C203.915 48.8212 204.499 48.8122 204.865 49.1671Z" fill="#7A4E05"/>
<path fill-rule="evenodd" clip-rule="evenodd" d="M204.865 49.1671C205.231 49.522 205.24 50.1064 204.885 50.4724C204.077 51.3057 203.576 52.4665 203.343 53.9858C203.108 55.5109 203.154 57.3389 203.392 59.4316C203.728 62.376 204.426 65.7092 205.179 69.3066C205.503 70.8533 205.837 72.4488 206.157 74.0833C208.25 84.7797 209.725 97.0593 202.481 105.906L201.053 104.736C207.682 96.6404 206.456 85.2258 204.345 74.4379C204.038 72.8695 203.712 71.3119 203.392 69.7843C202.63 66.1437 201.904 62.6744 201.558 59.6407C201.311 57.4749 201.248 55.4626 201.518 53.7056C201.788 51.9427 202.404 50.3796 203.56 49.1872C203.915 48.8212 204.499 48.8122 204.865 49.1671Z" fill="#A5782C"/>
<path d="M17.415 83.0932C20.3018 85.9271 24.3279 92.1101 35.1003 87.4149C34.4002 82.6131 31.4565 72.2449 25.2822 69.1873C28.9737 73.0756 29.502 79.378 29.2709 81.3646C29.0398 83.3512 24.0386 86.554 17.415 83.0932Z" fill="url(#paint3_linear_7321_1517)"/>
<path d="M11.0197 70.4849C13.7948 78.8032 20.1554 85.8176 31.9768 84.745C32.6594 81.3907 26.9232 69.7285 15.7526 69.0137C18.265 70.4701 23.6568 74.2928 25.1248 77.9325C23.1028 78.0537 17.451 76.7339 11.0197 70.4849Z" fill="url(#paint4_linear_7321_1517)"/>
<path d="M27.3184 80.4778C18.0866 78.595 12.0307 67.3005 10.1567 61.8887C14.2386 68.4542 27.4089 73.955 27.3184 80.4778Z" fill="url(#paint5_linear_7321_1517)"/>
<path fill-rule="evenodd" clip-rule="evenodd" d="M18.121 74.1538C18.2558 73.6621 18.7637 73.3728 19.2553 73.5077C27.1712 75.6783 32.9235 81.8575 36.5457 87.9551C38.3627 91.0139 39.6654 94.0871 40.4494 96.6937C40.8413 97.9969 41.1075 99.1961 41.2409 100.228C41.372 101.242 41.3847 102.164 41.217 102.879L39.4197 102.457C39.5129 102.059 39.5301 101.394 39.41 100.465C39.2923 99.5546 39.0515 98.4558 38.6815 97.2255C37.9415 94.7652 36.7001 91.8299 34.9584 88.8979C31.4632 83.014 26.0401 77.2824 18.7671 75.2881C18.2755 75.1533 17.9862 74.6454 18.121 74.1538Z" fill="#7A4E05"/>
<path fill-rule="evenodd" clip-rule="evenodd" d="M18.121 74.1538C18.2558 73.6621 18.7637 73.3728 19.2553 73.5077C27.1712 75.6783 32.9235 81.8575 36.5457 87.9551C38.3627 91.0139 39.6654 94.0871 40.4494 96.6937C40.8413 97.9969 41.1075 99.1961 41.2409 100.228C41.372 101.242 41.3847 102.164 41.217 102.879L39.4197 102.457C39.5129 102.059 39.5301 101.394 39.41 100.465C39.2923 99.5546 39.0515 98.4558 38.6815 97.2255C37.9415 94.7652 36.7001 91.8299 34.9584 88.8979C31.4632 83.014 26.0401 77.2824 18.7671 75.2881C18.2755 75.1533 17.9862 74.6454 18.121 74.1538Z" fill="#A5782C"/>
<path d="M215.026 67.9993C216.008 73.2783 210.852 81.872 215.026 88.747C222.023 90.4658 229.39 82.4859 227.916 71.0685C228.039 74.7515 223.497 83.2225 218.095 84.5729C218.218 80.317 217.776 71.0439 215.026 67.9993Z" fill="url(#paint6_linear_7321_1517)"/>
<path d="M221.165 65.5439C216.745 70.3319 215.64 77.5752 217.359 84.8185C228.04 85.9234 225.707 74.1377 229.021 67.3855C225.338 68.2448 222.515 79.9078 221.165 79.4167C219.814 78.9256 219.323 74.9971 221.165 65.5439Z" fill="url(#paint7_linear_7321_1517)"/>
<path d="M226.321 60.0197C222.024 64.071 217.85 74.5063 220.182 79.908C223.252 79.908 231.845 64.071 227.671 56.2139C227.466 57.2369 226.91 59.4304 226.321 60.0197Z" fill="url(#paint8_linear_7321_1517)"/>
<path fill-rule="evenodd" clip-rule="evenodd" d="M225.495 64.1303C226.005 64.1495 226.402 64.578 226.383 65.0874C225.942 76.8121 221.15 83.0561 216.474 88.432C216.126 88.8318 215.78 89.2259 215.437 89.6162C211.18 94.464 207.434 98.7304 207.108 106.22L205.264 106.14C205.619 97.9781 209.782 93.2467 214.013 88.4391C214.369 88.034 214.726 87.6285 215.081 87.2203C219.642 81.9768 224.12 76.1281 224.538 65.018C224.557 64.5086 224.986 64.1111 225.495 64.1303Z" fill="#7A4E05"/>
<path fill-rule="evenodd" clip-rule="evenodd" d="M225.495 64.1303C226.005 64.1495 226.402 64.578 226.383 65.0874C225.942 76.8121 221.15 83.0561 216.474 88.432C216.126 88.8318 215.78 89.2259 215.437 89.6162C211.18 94.464 207.434 98.7304 207.108 106.22L205.264 106.14C205.619 97.9781 209.782 93.2467 214.013 88.4391C214.369 88.034 214.726 87.6285 215.081 87.2203C219.642 81.9768 224.12 76.1281 224.538 65.018C224.557 64.5086 224.986 64.1111 225.495 64.1303Z" fill="#A5782C"/>
<path d="M34.6248 68.0853C33.6721 72.564 33.7994 82.605 41.9305 86.9396C47.1711 84.4831 49.5051 72.816 41.3969 66.3168L34.6248 68.0853Z" fill="url(#paint9_linear_7321_1517)"/>
<path d="M30.4978 52.2825C25.7357 62.4809 37.4107 73.798 41.0432 82.6423C42.9141 78.5071 45.3024 68.4552 39.8889 61.3288C38.0986 66.0163 33.4511 59.1428 30.4978 52.2825Z" fill="url(#paint10_linear_7321_1517)"/>
<path d="M32.6555 48.3228C32.11 52.9157 32.2911 63.5043 37.3796 69.1158C42.6147 64.8374 36.5832 52.0465 38.0548 44.2808C36.7579 45.2076 34.4132 48.7696 35.4094 55.6027C34.8995 55.677 33.6348 54.3251 32.6555 48.3228Z" fill="url(#paint11_linear_7321_1517)"/>
<path fill-rule="evenodd" clip-rule="evenodd" d="M35.5244 63.1377C36.0011 62.9569 36.5341 63.1967 36.7149 63.6733C39.8062 71.8208 41.7644 80.0491 42.4495 87.236C43.1312 94.3863 42.5661 100.643 40.4705 104.747L38.8262 103.908C40.6801 100.277 41.2827 94.4499 40.6117 87.4112C39.9442 80.409 38.0294 72.342 34.9888 64.3282C34.808 63.8516 35.0478 63.3186 35.5244 63.1377Z" fill="#A5782C"/>
<path d="M11.2498 120C35.1921 76.8718 209.134 71.5908 222.115 120H11.2498Z" fill="url(#paint12_linear_7321_1517)"/>
<path d="M135.679 106.01C130.259 101.331 123.964 90.3332 124.186 77.9546C112.159 77.9546 117.244 98.7982 124.553 101.525C118.134 98.077 114.955 103.981 119.024 106.01C119.024 106.01 133.137 107.164 135.679 106.01Z" fill="url(#paint13_linear_7321_1517)"/>
<path d="M135.679 106.01C130.259 101.331 123.964 90.3332 124.186 77.9546C112.159 77.9546 117.244 98.7982 124.553 101.525C118.134 98.077 114.955 103.981 119.024 106.01C119.024 106.01 133.137 107.164 135.679 106.01Z" fill="url(#paint14_radial_7321_1517)"/>
<path d="M135.679 106.01C130.259 101.331 123.964 90.3332 124.186 77.9546C112.159 77.9546 117.244 98.7982 124.553 101.525C118.134 98.077 114.955 103.981 119.024 106.01C119.024 106.01 133.137 107.164 135.679 106.01Z" fill="url(#paint15_radial_7321_1517)"/>
<path d="M135.679 106.009C136.251 107.235 145.102 109.407 146.979 108.038C150.567 110.887 163.485 106.206 163.485 106.206C163.362 104.598 164.678 103.014 166.373 100.975C169.611 97.0793 174.228 91.5235 172.815 80.9684C171.912 74.225 168.453 67.5533 165.124 61.1333C160.516 52.2455 159.094 42.7454 162.115 35.3005H128.942C132.206 41.806 131.947 49.9967 128.216 57.0299C124.935 63.2159 121.679 69.3532 123.254 74.9973C123.792 80.9684 122.343 94.4985 135.679 106.009Z" fill="url(#paint16_linear_7321_1517)"/>
<path d="M135.679 106.009C136.251 107.235 145.102 109.407 146.979 108.038C150.567 110.887 163.485 106.206 163.485 106.206C163.362 104.598 164.678 103.014 166.373 100.975C169.611 97.0793 174.228 91.5235 172.815 80.9684C171.912 74.225 168.453 67.5533 165.124 61.1333C160.516 52.2455 159.094 42.7454 162.115 35.3005H128.942C132.206 41.806 131.947 49.9967 128.216 57.0299C124.935 63.2159 121.679 69.3532 123.254 74.9973C123.792 80.9684 122.343 94.4985 135.679 106.009Z" fill="url(#paint17_radial_7321_1517)"/>
<path d="M135.679 106.009C136.251 107.235 145.102 109.407 146.979 108.038C150.567 110.887 163.485 106.206 163.485 106.206C163.362 104.598 164.678 103.014 166.373 100.975C169.611 97.0793 174.228 91.5235 172.815 80.9684C171.912 74.225 168.453 67.5533 165.124 61.1333C160.516 52.2455 159.094 42.7454 162.115 35.3005H128.942C132.206 41.806 131.947 49.9967 128.216 57.0299C124.935 63.2159 121.679 69.3532 123.254 74.9973C123.792 80.9684 122.343 94.4985 135.679 106.009Z" fill="url(#paint18_radial_7321_1517)"/>
<path d="M135.679 106.009C136.251 107.235 145.102 109.407 146.979 108.038C150.567 110.887 163.485 106.206 163.485 106.206C163.362 104.598 164.678 103.014 166.373 100.975C169.611 97.0793 174.228 91.5235 172.815 80.9684C171.912 74.225 168.453 67.5533 165.124 61.1333C160.516 52.2455 159.094 42.7454 162.115 35.3005H128.942C132.206 41.806 131.947 49.9967 128.216 57.0299C124.935 63.2159 121.679 69.3532 123.254 74.9973C123.792 80.9684 122.343 94.4985 135.679 106.009Z" fill="url(#paint19_radial_7321_1517)"/>
<path d="M135.679 106.009C136.251 107.235 145.102 109.407 146.979 108.038C150.567 110.887 163.485 106.206 163.485 106.206C163.362 104.598 164.678 103.014 166.373 100.975C169.611 97.0793 174.228 91.5235 172.815 80.9684C171.912 74.225 168.453 67.5533 165.124 61.1333C160.516 52.2455 159.094 42.7454 162.115 35.3005H128.942C132.206 41.806 131.947 49.9967 128.216 57.0299C124.935 63.2159 121.679 69.3532 123.254 74.9973C123.792 80.9684 122.343 94.4985 135.679 106.009Z" fill="url(#paint20_radial_7321_1517)"/>
<path d="M135.679 106.009C136.251 107.235 145.102 109.407 146.979 108.038C150.567 110.887 163.485 106.206 163.485 106.206C163.362 104.598 164.678 103.014 166.373 100.975C169.611 97.0793 174.228 91.5235 172.815 80.9684C171.912 74.225 168.453 67.5533 165.124 61.1333C160.516 52.2455 159.094 42.7454 162.115 35.3005H128.942C132.206 41.806 131.947 49.9967 128.216 57.0299C124.935 63.2159 121.679 69.3532 123.254 74.9973C123.792 80.9684 122.343 94.4985 135.679 106.009Z" fill="url(#paint21_radial_7321_1517)"/>
<path d="M135.679 106.009C136.251 107.235 145.102 109.407 146.979 108.038C150.567 110.887 163.485 106.206 163.485 106.206C163.362 104.598 164.678 103.014 166.373 100.975C169.611 97.0793 174.228 91.5235 172.815 80.9684C171.912 74.225 168.453 67.5533 165.124 61.1333C160.516 52.2455 159.094 42.7454 162.115 35.3005H128.942C132.206 41.806 131.947 49.9967 128.216 57.0299C124.935 63.2159 121.679 69.3532 123.254 74.9973C123.792 80.9684 122.343 94.4985 135.679 106.009Z" fill="url(#paint22_radial_7321_1517)"/>
<path d="M135.679 106.009C136.251 107.235 145.102 109.407 146.979 108.038C150.567 110.887 163.485 106.206 163.485 106.206C163.362 104.598 164.678 103.014 166.373 100.975C169.611 97.0793 174.228 91.5235 172.815 80.9684C171.912 74.225 168.453 67.5533 165.124 61.1333C160.516 52.2455 159.094 42.7454 162.115 35.3005H128.942C132.206 41.806 131.947 49.9967 128.216 57.0299C124.935 63.2159 121.679 69.3532 123.254 74.9973C123.792 80.9684 122.343 94.4985 135.679 106.009Z" fill="url(#paint23_radial_7321_1517)"/>
<path d="M133.39 85.0961C131.483 87.2596 133.899 91.298 135.933 90.1442C138.491 88.4296 139.942 81.9876 137.205 77.1633C133.955 71.4362 124.873 68.3654 128.687 56.25C119.151 64.0385 120.931 76.947 124.364 78.4615C128.178 80.1442 134.916 83.3653 133.39 85.0961Z" fill="url(#paint24_linear_7321_1517)"/>
<path d="M133.39 85.0961C131.483 87.2596 133.899 91.298 135.933 90.1442C138.491 88.4296 139.942 81.9876 137.205 77.1633C133.955 71.4362 124.873 68.3654 128.687 56.25C119.151 64.0385 120.931 76.947 124.364 78.4615C128.178 80.1442 134.916 83.3653 133.39 85.0961Z" fill="url(#paint25_radial_7321_1517)"/>
<path d="M160.319 51.1064C153.848 49.2006 151.174 57.1322 151.064 59.9995C150.937 63.3168 151.955 68.7977 153.989 72.115C151.319 72.9804 145.215 75.4326 142.546 85.0961C140.638 91.7306 147.504 92.1634 148.521 85.8172C149.111 82.1345 153.341 80.0545 157.235 78.1399C160.051 76.7552 162.691 75.457 163.651 73.7015C164.77 71.6557 165.853 67.3456 166.149 63.1149C165.808 62.4518 165.466 61.7912 165.125 61.1332C163.35 57.7103 161.612 54.3589 160.319 51.1064Z" fill="url(#paint26_linear_7321_1517)"/>
<path d="M160.319 51.1064C153.848 49.2006 151.174 57.1322 151.064 59.9995C150.937 63.3168 151.955 68.7977 153.989 72.115C151.319 72.9804 145.215 75.4326 142.546 85.0961C140.638 91.7306 147.504 92.1634 148.521 85.8172C149.111 82.1345 153.341 80.0545 157.235 78.1399C160.051 76.7552 162.691 75.457 163.651 73.7015C164.77 71.6557 165.853 67.3456 166.149 63.1149C165.808 62.4518 165.466 61.7912 165.125 61.1332C163.35 57.7103 161.612 54.3589 160.319 51.1064Z" fill="url(#paint27_radial_7321_1517)"/>
<path d="M180.904 24.916C187.75 56.791 180.904 97.6083 166.499 100.245L159.504 106.447C184.327 109.436 194 71.3584 184.327 24.0506C183.434 20.4449 180.011 20.7333 180.904 24.916Z" fill="url(#paint28_linear_7321_1517)"/>
<path d="M161.36 82.3558C167.686 81.997 170.864 86.0021 172.708 88.943C171.675 94.5943 168.674 98.2046 166.372 100.975C165.145 102.452 162.765 104.504 164.157 106.442C160.004 109.375 150.427 111.49 145.469 108.462C144.457 102.311 148.223 101.035 152.339 101.541C148.659 93.5246 152.894 82.836 161.36 82.3558Z" fill="url(#paint29_linear_7321_1517)"/>
<path d="M161.36 82.3558C167.686 81.997 170.864 86.0021 172.708 88.943C171.675 94.5943 168.674 98.2046 166.372 100.975C165.145 102.452 162.765 104.504 164.157 106.442C160.004 109.375 150.427 111.49 145.469 108.462C144.457 102.311 148.223 101.035 152.339 101.541C148.659 93.5246 152.894 82.836 161.36 82.3558Z" fill="url(#paint30_radial_7321_1517)"/>
<path d="M161.36 82.3558C167.686 81.997 170.864 86.0021 172.708 88.943C171.675 94.5943 168.674 98.2046 166.372 100.975C165.145 102.452 162.765 104.504 164.157 106.442C160.004 109.375 150.427 111.49 145.469 108.462C144.457 102.311 148.223 101.035 152.339 101.541C148.659 93.5246 152.894 82.836 161.36 82.3558Z" fill="url(#paint31_radial_7321_1517)"/>
<path d="M124.215 27.7444C122.422 27.2967 118.733 25.4 118.323 21.3951C118.006 18.2987 119.401 15.8434 121.413 15.5389C122.653 15.351 124.249 16.8678 126.65 15.9532L124.215 27.7444Z" fill="url(#paint32_linear_7321_1517)"/>
<path d="M165.977 27.7444C167.77 27.2967 171.459 25.4 171.869 21.3951C172.186 18.2987 170.791 15.8434 168.779 15.5389C167.539 15.351 165.942 16.8678 163.541 15.9532L165.977 27.7444Z" fill="url(#paint33_linear_7321_1517)"/>
<path d="M145.097 9.13965C140.861 9.13965 122.246 17.7832 122.246 28.6819C122.246 39.5807 142.887 43.7736 145.097 43.7736C147.307 43.7736 167.048 40.1913 167.048 28.6819C167.048 15.1286 149.333 9.13965 145.097 9.13965Z" fill="url(#paint34_linear_7321_1517)"/>
<path d="M142.104 28.9112C140.828 31.5047 128.071 29.7759 124.669 25.4533C127.04 25.4533 130.339 17.3247 136.009 17.3247C141.679 17.3247 143.38 26.3178 142.104 28.9112Z" fill="url(#paint35_linear_7321_1517)"/>
<path d="M147.782 28.9112C149.058 31.5047 161.815 29.7759 165.217 25.4533C162.846 25.4533 159.547 17.3247 153.878 17.3247C148.208 17.3247 146.507 26.3178 147.782 28.9112Z" fill="url(#paint36_linear_7321_1517)"/>
<path d="M140.963 28.3012C140.582 28.9109 134.501 29.8483 132.595 27.9418C130.688 26.0354 130.688 22.9445 132.595 21.0381C134.501 19.1316 137.592 19.1316 139.499 21.0381C141.405 22.9445 141.344 27.6914 140.963 28.3012Z" fill="url(#paint37_linear_7321_1517)"/>
<path d="M148.857 28.3012C149.238 28.9109 155.319 29.8483 157.225 27.9418C159.132 26.0354 159.132 22.9445 157.225 21.0381C155.319 19.1316 152.228 19.1316 150.322 21.0381C148.415 22.9445 148.476 27.6914 148.857 28.3012Z" fill="url(#paint38_linear_7321_1517)"/>
<path d="M139.989 27.6152C139.037 28.6061 135.367 28.9599 133.804 27.3967C132.241 25.8335 132.241 23.2991 133.804 21.7359C135.367 20.1727 137.902 20.1727 139.465 21.7359C141.028 23.2991 140.942 26.6244 139.989 27.6152Z" fill="url(#paint39_linear_7321_1517)"/>
<path d="M149.936 27.6152C150.889 28.6061 154.558 28.9599 156.122 27.3967C157.685 25.8335 157.685 23.2991 156.122 21.7359C154.558 20.1727 152.024 20.1727 150.461 21.7359C148.898 23.2991 148.984 26.6244 149.936 27.6152Z" fill="url(#paint40_linear_7321_1517)"/>
<path d="M145.205 38.2479C143.651 38.2479 137.518 37.5239 135.057 34.3607C133.451 32.2971 139.388 29.3403 145.205 29.3682C150.74 29.3948 156.167 32.3037 154.879 34.3607C152.85 37.6005 146.759 38.2479 145.205 38.2479Z" fill="url(#paint41_radial_7321_1517)"/>
<path d="M145.203 38.2481C143.649 38.2481 137.516 37.524 135.055 34.3609C135.055 34.3609 133.2 42.9359 145.204 42.9359C157.209 42.9359 154.877 34.3608 154.877 34.3608C152.848 37.6006 146.757 38.2481 145.203 38.2481Z" fill="url(#paint42_radial_7321_1517)"/>
<path d="M136.253 13.4381C143.341 13.2094 144.257 18.6211 145.552 18.5449C146.847 18.4686 147.457 13.4381 154.165 13.4381C159.981 13.4381 161.512 22.5748 166.17 23.3086C166.965 14.9529 155.919 6.95923 145.552 6.95923C135.186 6.95923 124.368 13.4545 122.991 24.7568C126.662 24.2297 129.616 13.6522 136.253 13.4381Z" fill="url(#paint43_linear_7321_1517)"/>
<circle cx="137.244" cy="22.7803" r="1.33595" fill="white"/>
<circle cx="153.735" cy="22.7803" r="1.33595" fill="white"/>
<path d="M148.906 34.0241C148.906 35.5011 146.044 36.6984 145.153 36.6984C144.261 36.6984 141.399 35.5011 141.399 34.0241C141.399 32.5472 141.834 31.3499 145.153 31.3499C148.471 31.3499 148.906 32.5472 148.906 34.0241Z" fill="url(#paint44_linear_7321_1517)"/>
<path d="M148.906 34.0241C148.906 35.5011 146.044 36.6984 145.153 36.6984C144.261 36.6984 141.399 35.5011 141.399 34.0241C141.399 32.5472 141.834 31.3499 145.153 31.3499C148.471 31.3499 148.906 32.5472 148.906 34.0241Z" fill="url(#paint45_radial_7321_1517)"/>
<path d="M138.334 27.3969C135.665 28.8529 132.591 26.3453 133.724 23.5142C133.602 24.6466 134.263 25.7589 135.038 26.4464C135.809 27.1301 137.101 27.498 138.334 27.3969Z" fill="white" fill-opacity="0.4"/>
<path d="M154.825 27.3969C152.155 28.8529 149.082 26.3453 150.214 23.5142C150.093 24.6466 150.753 25.7589 151.529 26.4464C152.3 27.1301 153.591 27.498 154.825 27.3969Z" fill="white" fill-opacity="0.4"/>
<path d="M104.701 106.42C104.969 99.2981 96.5041 101.179 91.9355 103.732V106.42H104.701Z" fill="url(#paint46_linear_7321_1517)"/>
<path d="M104.701 106.42C104.969 99.2981 96.5041 101.179 91.9355 103.732V106.42H104.701Z" fill="url(#paint47_radial_7321_1517)"/>
<path d="M102.83 91.3497C104.279 82.7821 94.6632 77.0969 86.0515 89.1235C81.1518 96.1019 86.0515 104.714 90.9512 104.714C92.0861 104.714 101.197 101.001 102.83 91.3497Z" fill="url(#paint48_linear_7321_1517)"/>
<path d="M60.3327 38.3785C53.7118 53.0373 49.1004 77.4674 68.6182 99.3951L71.8186 95.685C56.8063 80.5832 57.8728 57.0349 64.4894 36.4305C65.546 33.1381 63.2553 31.9066 60.3327 38.3785Z" fill="url(#paint49_linear_7321_1517)"/>
<path d="M93.4219 63.9087C102.479 66.4328 105.152 75.3414 101.291 81.5774C98.2028 86.5663 94.7582 71.877 93.4219 63.9087Z" fill="url(#paint50_linear_7321_1517)"/>
<path d="M93.4219 63.9087C102.479 66.4328 105.152 75.3414 101.291 81.5774C98.2028 86.5663 94.7582 71.877 93.4219 63.9087Z" fill="url(#paint51_radial_7321_1517)"/>
<path d="M65.2111 92.2687C62.5386 71.4819 80.2814 67.8816 74.9363 49.322L97.2079 48.3569C90.6749 60.532 106.934 81.8753 94.1646 99.6925C85.4106 111.907 67.8837 113.055 65.2111 92.2687Z" fill="url(#paint52_linear_7321_1517)"/>
<path d="M65.2111 92.2687C62.5386 71.4819 80.2814 67.8816 74.9363 49.322L97.2079 48.3569C90.6749 60.532 106.934 81.8753 94.1646 99.6925C85.4106 111.907 67.8837 113.055 65.2111 92.2687Z" fill="url(#paint53_radial_7321_1517)"/>
<path d="M65.2111 92.2687C62.5386 71.4819 80.2814 67.8816 74.9363 49.322L97.2079 48.3569C90.6749 60.532 106.934 81.8753 94.1646 99.6925C85.4106 111.907 67.8837 113.055 65.2111 92.2687Z" fill="url(#paint54_radial_7321_1517)"/>
<path d="M65.2111 92.2687C62.5386 71.4819 80.2814 67.8816 74.9363 49.322L97.2079 48.3569C90.6749 60.532 106.934 81.8753 94.1646 99.6925C85.4106 111.907 67.8837 113.055 65.2111 92.2687Z" fill="url(#paint55_radial_7321_1517)"/>
<path d="M94.7576 78.7576C95.0546 74.3033 87.9277 64.5038 76.3465 71.3337C75.1591 72.0343 73.53 75.0932 75.1586 78.7576C78.1281 85.4391 87.1853 77.1244 88.5216 79.6485C89.8579 82.1726 84.5127 84.9936 87.1853 85.736C89.8579 86.4784 94.4607 83.2119 94.7576 78.7576Z" fill="url(#paint56_linear_7321_1517)"/>
<path d="M94.7576 78.7576C95.0546 74.3033 87.9277 64.5038 76.3465 71.3337C75.1591 72.0343 73.53 75.0932 75.1586 78.7576C78.1281 85.4391 87.1853 77.1244 88.5216 79.6485C89.8579 82.1726 84.5127 84.9936 87.1853 85.736C89.8579 86.4784 94.4607 83.2119 94.7576 78.7576Z" fill="url(#paint57_radial_7321_1517)"/>
<path d="M94.7576 78.7576C95.0546 74.3033 87.9277 64.5038 76.3465 71.3337C75.1591 72.0343 73.53 75.0932 75.1586 78.7576C78.1281 85.4391 87.1853 77.1244 88.5216 79.6485C89.8579 82.1726 84.5127 84.9936 87.1853 85.736C89.8579 86.4784 94.4607 83.2119 94.7576 78.7576Z" fill="url(#paint58_radial_7321_1517)"/>
<path d="M95.0553 108.75C95.3523 100.88 84.5133 102.959 79.4651 105.78V108.75L95.0553 108.75Z" fill="url(#paint59_linear_7321_1517)"/>
<path d="M91.7896 95.0894C93.2392 86.5218 83.623 80.8366 75.0113 92.8632C70.1116 99.8416 74.7143 108.749 79.6141 108.749C81.8417 105.482 90.1568 104.74 91.7896 95.0894Z" fill="url(#paint60_linear_7321_1517)"/>
<path d="M91.7896 95.0894C93.2392 86.5218 83.623 80.8366 75.0113 92.8632C70.1116 99.8416 74.7143 108.749 79.6141 108.749C81.8417 105.482 90.1568 104.74 91.7896 95.0894Z" fill="url(#paint61_radial_7321_1517)"/>
<path d="M96.712 27.7551C94.8941 20.597 73.8375 26.7886 70.2935 37.0983C69.6849 38.8703 67.8772 43.8641 71.9044 48.0523C75.9316 52.2404 90.2685 51.4351 94.2957 50.1464C98.3229 48.8577 103.961 46.2803 103.961 38.8703C103.961 32.7488 98.6745 35.4824 96.712 27.7551Z" fill="url(#paint62_linear_7321_1517)"/>
<path d="M91.0718 38.1473C90.9493 40.3617 81.4211 42.9699 77.7212 40.9382C79.3956 40.2266 79.2856 33.496 83.2898 31.7942C87.2939 30.0924 91.1944 35.9329 91.0718 38.1473Z" fill="url(#paint63_linear_7321_1517)"/>
<path d="M89.7961 38.1793C89.71 38.7243 85.6971 41.2114 83.7786 40.4372C81.8601 39.6631 80.9323 37.4803 81.7065 35.5617C82.4806 33.6432 84.6634 32.7154 86.582 33.4896C88.5005 34.2637 89.8822 37.6343 89.7961 38.1793Z" fill="url(#paint64_linear_7321_1517)"/>
<circle cx="85.8448" cy="36.6292" r="2.89423" transform="rotate(-23.0259 85.8448 36.6292)" fill="url(#paint65_linear_7321_1517)"/>
<path d="M103.81 40.8846C103.52 40.2782 103.055 39.6676 102.381 39.0618C104.122 43.8831 97.6791 48.2143 86.564 44.4283C86.564 49.2173 90.2404 50.4642 93.6037 50.3397C93.8594 50.2773 94.091 50.2129 94.2959 50.1474C97.9345 48.983 102.888 46.7667 103.81 40.8846Z" fill="url(#paint66_radial_7321_1517)"/>
<circle cx="86.2207" cy="35.4206" r="0.965961" transform="rotate(-23.0259 86.2207 35.4206)" fill="white"/>
<path d="M69.4586 41.1882C63.7231 39.9691 68.0352 50.5099 74.4817 49.5025C70.6922 46.6435 69.4586 41.1882 69.4586 41.1882Z" fill="url(#paint67_linear_7321_1517)"/>
<path d="M96.6879 27.6619C96.6967 27.693 96.7051 27.7244 96.7132 27.7561C97.7059 31.6651 99.5493 32.8971 101.129 33.9526C101.66 34.3079 102.162 34.6431 102.591 35.0537C99.5127 37.0823 94.4932 37.9577 93.6797 36.5404C92.627 34.7063 92.936 27.9944 96.6013 27.6684C96.6302 27.6659 96.6591 27.6637 96.6879 27.6619Z" fill="url(#paint68_linear_7321_1517)"/>
<path d="M94.5325 36.0808C94.8207 36.4977 98.4915 36.7113 99.4104 35.167C100.329 33.6228 100.003 31.3594 98.6823 30.1116C97.3614 28.8638 95.5456 29.1042 94.6268 30.6484C93.7079 32.1926 94.2443 35.6639 94.5325 36.0808Z" fill="url(#paint69_linear_7321_1517)"/>
<ellipse cx="2.23499" cy="2.79042" rx="2.23499" ry="2.79042" transform="matrix(-0.991354 0.131215 0.142545 0.989788 99.2869 29.5786)" fill="url(#paint70_linear_7321_1517)"/>
<ellipse cx="0.745938" cy="0.931316" rx="0.745938" ry="0.931316" transform="matrix(-0.991354 0.131215 0.142545 0.989788 98.5432 30.2625)" fill="white"/>
<path d="M81.088 30.1715C85.9761 27.6074 89.2431 29.4544 90.4926 30.1607L90.5117 30.1715C90.989 28.6526 93.0621 25.8538 95.7956 26.1538C91.2203 20.5074 80.3495 24.7762 73.6114 30.9201C67.9583 36.0748 71.18 39.5953 67.9583 41.2867C69.0174 41.2867 70.5357 44.589 70.5357 44.589C72.952 36.6152 77.2407 32.1897 81.088 30.1715Z" fill="url(#paint71_linear_7321_1517)"/>
<path d="M103.888 38.2937C105.629 43.115 97.6061 48.2816 86.491 44.4956C92.7412 37.6011 102.148 33.4724 103.888 38.2937Z" fill="url(#paint72_radial_7321_1517)"/>
<path d="M102.398 37.6794C102.841 38.7786 101.07 40.5285 100.406 40.7959C99.7429 41.0633 97.2533 41.0311 96.8102 39.9319C96.367 38.8327 96.3316 37.8111 98.8015 36.8154C101.272 35.8196 101.954 36.5802 102.398 37.6794Z" fill="url(#paint73_linear_7321_1517)"/>
<path d="M102.398 37.6794C102.841 38.7786 101.07 40.5285 100.406 40.7959C99.7429 41.0633 97.2533 41.0311 96.8102 39.9319C96.367 38.8327 96.3316 37.8111 98.8015 36.8154C101.272 35.8196 101.954 36.5802 102.398 37.6794Z" fill="url(#paint74_radial_7321_1517)"/>
<defs>
<linearGradient id="paint0_linear_7321_1517" x1="191.85" y1="65.2983" x2="213.194" y2="88.7274" gradientUnits="userSpaceOnUse">
<stop stop-color="#C8F5B7"/>
<stop offset="0.495" stop-color="#CD8E02"/>
<stop offset="1" stop-color="#7A4E05"/>
</linearGradient>
<linearGradient id="paint1_linear_7321_1517" x1="195.868" y1="61.2476" x2="215.328" y2="77.6639" gradientUnits="userSpaceOnUse">
<stop stop-color="#C8F5B7"/>
<stop offset="0.495" stop-color="#CD8E02"/>
<stop offset="1" stop-color="#7A4E05"/>
</linearGradient>
<linearGradient id="paint2_linear_7321_1517" x1="197.966" y1="48.3569" x2="215.056" y2="56.3129" gradientUnits="userSpaceOnUse">
<stop stop-color="#C8F5B7"/>
<stop offset="0.495" stop-color="#CD8E02"/>
<stop offset="1" stop-color="#7A4E05"/>
</linearGradient>
<linearGradient id="paint3_linear_7321_1517" x1="11.5744" y1="71.1858" x2="30.208" y2="91.4982" gradientUnits="userSpaceOnUse">
<stop stop-color="#C8F5B7"/>
<stop offset="0.495" stop-color="#CD8E02"/>
<stop offset="1" stop-color="#7A4E05"/>
</linearGradient>
<linearGradient id="paint4_linear_7321_1517" x1="6.41356" y1="70.3753" x2="21.6081" y2="91.0918" gradientUnits="userSpaceOnUse">
<stop stop-color="#C8F5B7"/>
<stop offset="0.495" stop-color="#CD8E02"/>
<stop offset="1" stop-color="#7A4E05"/>
</linearGradient>
<linearGradient id="paint5_linear_7321_1517" x1="6.7366" y1="62.3873" x2="26.1011" y2="80.1876" gradientUnits="userSpaceOnUse">
<stop stop-color="#C8F5B7"/>
<stop offset="0.495" stop-color="#CD8E02"/>
<stop offset="1" stop-color="#7A4E05"/>
</linearGradient>
<linearGradient id="paint6_linear_7321_1517" x1="209.824" y1="67.9993" x2="226.433" y2="88.8475" gradientUnits="userSpaceOnUse">
<stop stop-color="#C8F5B7"/>
<stop offset="0.495" stop-color="#CD8E02"/>
<stop offset="1" stop-color="#7A4E05"/>
</linearGradient>
<linearGradient id="paint7_linear_7321_1517" x1="213.595" y1="65.5439" x2="229.158" y2="83.4202" gradientUnits="userSpaceOnUse">
<stop stop-color="#C8F5B7"/>
<stop offset="0.495" stop-color="#CD8E02"/>
<stop offset="1" stop-color="#7A4E05"/>
</linearGradient>
<linearGradient id="paint8_linear_7321_1517" x1="217.279" y1="56.2139" x2="235.36" y2="68.8708" gradientUnits="userSpaceOnUse">
<stop stop-color="#C8F5B7"/>
<stop offset="0.495" stop-color="#CD8E02"/>
<stop offset="1" stop-color="#7A4E05"/>
</linearGradient>
<linearGradient id="paint9_linear_7321_1517" x1="30.4334" y1="67.9152" x2="49.3879" y2="82.7278" gradientUnits="userSpaceOnUse">
<stop stop-color="#C8F5B7"/>
<stop offset="0.495" stop-color="#CD8E02"/>
<stop offset="1" stop-color="#7A4E05"/>
</linearGradient>
<linearGradient id="paint10_linear_7321_1517" x1="25.6722" y1="52.9861" x2="51.5467" y2="65.4938" gradientUnits="userSpaceOnUse">
<stop stop-color="#C8F5B7"/>
<stop offset="0.495" stop-color="#CD8E02"/>
<stop offset="1" stop-color="#7A4E05"/>
</linearGradient>
<linearGradient id="paint11_linear_7321_1517" x1="29.3064" y1="45.5563" x2="46.6379" y2="51.5892" gradientUnits="userSpaceOnUse">
<stop stop-color="#C8F5B7"/>
<stop offset="0.495" stop-color="#CD8E02"/>
<stop offset="1" stop-color="#7A4E05"/>
</linearGradient>
<linearGradient id="paint12_linear_7321_1517" x1="83.0767" y1="-14.3722" x2="241.32" y2="190.177" gradientUnits="userSpaceOnUse">
<stop stop-color="#C8F5B7"/>
<stop offset="1" stop-color="#CD8E02"/>
</linearGradient>
<linearGradient id="paint13_linear_7321_1517" x1="147.382" y1="109.874" x2="105.911" y2="87.5028" gradientUnits="userSpaceOnUse">
<stop stop-color="#7A4E05"/>
<stop offset="1" stop-color="#FFD394"/>
</linearGradient>
<radialGradient id="paint14_radial_7321_1517" cx="0" cy="0" r="1" gradientUnits="userSpaceOnUse" gradientTransform="translate(122.273 76.7278) rotate(95.2672) scale(23.7179 12.5131)">
<stop stop-color="#FFF2BE"/>
<stop offset="0.906057" stop-color="#FFF2BE" stop-opacity="0"/>
</radialGradient>
<radialGradient id="paint15_radial_7321_1517" cx="0" cy="0" r="1" gradientUnits="userSpaceOnUse" gradientTransform="translate(133.645 96.9232) rotate(-116.858) scale(22.7954 10.5759)">
<stop stop-color="#592A00"/>
<stop offset="1" stop-color="#592A00" stop-opacity="0"/>
</radialGradient>
<linearGradient id="paint16_linear_7321_1517" x1="201.284" y1="106.298" x2="110.507" y2="47.3576" gradientUnits="userSpaceOnUse">
<stop stop-color="#7A4E05"/>
<stop offset="1" stop-color="#FFD394"/>
</linearGradient>
<radialGradient id="paint17_radial_7321_1517" cx="0" cy="0" r="1" gradientUnits="userSpaceOnUse" gradientTransform="translate(137.332 63.6055) rotate(75.187) scale(58.1837 36.9534)">
<stop offset="0.673597" stop-color="#592A00" stop-opacity="0"/>
<stop offset="1" stop-color="#592A00"/>
</radialGradient>
<radialGradient id="paint18_radial_7321_1517" cx="0" cy="0" r="1" gradientUnits="userSpaceOnUse" gradientTransform="translate(156.276 77.5959) rotate(135.509) scale(17.2881 4.81243)">
<stop offset="0.0250789" stop-color="#592A00"/>
<stop offset="1" stop-color="#592A00" stop-opacity="0"/>
</radialGradient>
<radialGradient id="paint19_radial_7321_1517" cx="0" cy="0" r="1" gradientUnits="userSpaceOnUse" gradientTransform="translate(164.667 66.7786) rotate(131.397) scale(15.9583 8.70487)">
<stop offset="0.0250789" stop-color="#592A00"/>
<stop offset="1" stop-color="#592A00" stop-opacity="0"/>
</radialGradient>
<radialGradient id="paint20_radial_7321_1517" cx="0" cy="0" r="1" gradientUnits="userSpaceOnUse" gradientTransform="translate(129.068 52.0671) rotate(57.4222) scale(32.3494 20.0871)">
<stop stop-color="#FFF2BE"/>
<stop offset="0.906057" stop-color="#FFF2BE" stop-opacity="0"/>
</radialGradient>
<radialGradient id="paint21_radial_7321_1517" cx="0" cy="0" r="1" gradientUnits="userSpaceOnUse" gradientTransform="translate(127.415 78.0286) rotate(40.3915) scale(12.6868 4.21108)">
<stop offset="0.0250789" stop-color="#592A00"/>
<stop offset="1" stop-color="#592A00" stop-opacity="0"/>
</radialGradient>
<radialGradient id="paint22_radial_7321_1517" cx="0" cy="0" r="1" gradientUnits="userSpaceOnUse" gradientTransform="translate(149.029 36.3952) rotate(-180) scale(16.6555 12.7761)">
<stop offset="0.246032" stop-color="#592A00"/>
<stop offset="1" stop-color="#592A00" stop-opacity="0"/>
</radialGradient>
<radialGradient id="paint23_radial_7321_1517" cx="0" cy="0" r="1" gradientUnits="userSpaceOnUse" gradientTransform="translate(131.738 79.0382) rotate(-110.135) scale(17.359 6.77091)">
<stop stop-color="#592A00"/>
<stop offset="1" stop-color="#592A00" stop-opacity="0"/>
</radialGradient>
<linearGradient id="paint24_linear_7321_1517" x1="168.101" y1="105.144" x2="116.833" y2="66.0503" gradientUnits="userSpaceOnUse">
<stop stop-color="#7A4E05"/>
<stop offset="1" stop-color="#FFD394"/>
</linearGradient>
<radialGradient id="paint25_radial_7321_1517" cx="0" cy="0" r="1" gradientUnits="userSpaceOnUse" gradientTransform="translate(123.601 63.3173) rotate(46.7388) scale(29.3121 8.81)">
<stop stop-color="#FFF2BE"/>
<stop offset="0.906057" stop-color="#FFF2BE" stop-opacity="0"/>
</radialGradient>
<linearGradient id="paint26_linear_7321_1517" x1="177.451" y1="88.9271" x2="134.288" y2="66.3719" gradientUnits="userSpaceOnUse">
<stop stop-color="#7A4E05"/>
<stop offset="1" stop-color="#FFD394"/>
</linearGradient>
<radialGradient id="paint27_radial_7321_1517" cx="0" cy="0" r="1" gradientUnits="userSpaceOnUse" gradientTransform="translate(142.213 78.4614) rotate(-34.6315) scale(18.0195 9.45755)">
<stop stop-color="#FFF2BE"/>
<stop offset="0.906057" stop-color="#FFF2BE" stop-opacity="0"/>
</radialGradient>
<linearGradient id="paint28_linear_7321_1517" x1="164.416" y1="115.101" x2="154.542" y2="-21.1945" gradientUnits="userSpaceOnUse">
<stop stop-color="#7A4E05"/>
<stop offset="1" stop-color="#FFD394"/>
</linearGradient>
<linearGradient id="paint29_linear_7321_1517" x1="173.719" y1="109.811" x2="140.195" y2="78.0745" gradientUnits="userSpaceOnUse">
<stop stop-color="#7A4E05"/>
<stop offset="1" stop-color="#FFD394"/>
</linearGradient>
<radialGradient id="paint30_radial_7321_1517" cx="0" cy="0" r="1" gradientUnits="userSpaceOnUse" gradientTransform="translate(144.198 86.3942) rotate(58.2423) scale(32.8267 32.3794)">
<stop offset="0.673597" stop-color="#592A00" stop-opacity="0"/>
<stop offset="1" stop-color="#592A00"/>
</radialGradient>
<radialGradient id="paint31_radial_7321_1517" cx="0" cy="0" r="1" gradientUnits="userSpaceOnUse" gradientTransform="translate(151.572 81.2019) rotate(98.9573) scale(22.0477 19.5705)">
<stop stop-color="#FFF2BE"/>
<stop offset="0.906057" stop-color="#FFF2BE" stop-opacity="0"/>
</radialGradient>
<linearGradient id="paint32_linear_7321_1517" x1="127.291" y1="27.2855" x2="115.265" y2="22.3304" gradientUnits="userSpaceOnUse">
<stop stop-color="#7A4E05"/>
<stop offset="1" stop-color="#FFD394"/>
</linearGradient>
<linearGradient id="paint33_linear_7321_1517" x1="162.901" y1="27.2855" x2="174.927" y2="22.3304" gradientUnits="userSpaceOnUse">
<stop stop-color="#7A4E05"/>
<stop offset="1" stop-color="#FFD394"/>
</linearGradient>
<linearGradient id="paint34_linear_7321_1517" x1="144.647" y1="9.13965" x2="196.774" y2="73.2711" gradientUnits="userSpaceOnUse">
<stop stop-color="#FFE4BE"/>
<stop offset="1" stop-color="#986206"/>
</linearGradient>
<linearGradient id="paint35_linear_7321_1517" x1="126.651" y1="14.8856" x2="138.541" y2="36.6848" gradientUnits="userSpaceOnUse">
<stop stop-color="#5B3B04"/>
<stop offset="1" stop-color="#240D54"/>
</linearGradient>
<linearGradient id="paint36_linear_7321_1517" x1="150.279" y1="14.2759" x2="165.217" y2="30.1298" gradientUnits="userSpaceOnUse">
<stop stop-color="#5B3B04"/>
<stop offset="1" stop-color="#240D54"/>
</linearGradient>
<linearGradient id="paint37_linear_7321_1517" x1="141.259" y1="36.0996" x2="141.053" y2="17.4002" gradientUnits="userSpaceOnUse">
<stop stop-color="#7A4E05"/>
<stop offset="1" stop-color="#FFD394"/>
</linearGradient>
<linearGradient id="paint38_linear_7321_1517" x1="148.561" y1="36.0996" x2="148.767" y2="17.4002" gradientUnits="userSpaceOnUse">
<stop stop-color="#7A4E05"/>
<stop offset="1" stop-color="#FFD394"/>
</linearGradient>
<linearGradient id="paint39_linear_7321_1517" x1="142.723" y1="22.2988" x2="131.485" y2="20.7806" gradientUnits="userSpaceOnUse">
<stop stop-color="#5B3B04"/>
<stop offset="1" stop-color="#240D54"/>
</linearGradient>
<linearGradient id="paint40_linear_7321_1517" x1="147.202" y1="22.2988" x2="158.441" y2="20.7806" gradientUnits="userSpaceOnUse">
<stop stop-color="#5B3B04"/>
<stop offset="1" stop-color="#240D54"/>
</linearGradient>
<radialGradient id="paint41_radial_7321_1517" cx="0" cy="0" r="1" gradientUnits="userSpaceOnUse" gradientTransform="translate(144.082 31.2681) rotate(77.3503) scale(8.67677 18.6564)">
<stop offset="0.225549" stop-color="white"/>
<stop offset="0.8" stop-color="#FFF2BE" stop-opacity="0"/>
</radialGradient>
<radialGradient id="paint42_radial_7321_1517" cx="0" cy="0" r="1" gradientUnits="userSpaceOnUse" gradientTransform="translate(144.928 36.3807) scale(12.6264 7.12254)">
<stop offset="0.220197" stop-color="#5B3B04"/>
<stop offset="0.8" stop-color="#5B3B04" stop-opacity="0"/>
</radialGradient>
<linearGradient id="paint43_linear_7321_1517" x1="195.873" y1="23.0148" x2="180.629" y2="-16.3062" gradientUnits="userSpaceOnUse">
<stop stop-color="#7A4E05"/>
<stop offset="1" stop-color="#FFD394"/>
</linearGradient>
<linearGradient id="paint44_linear_7321_1517" x1="147.687" y1="30.0764" x2="141.45" y2="36.7467" gradientUnits="userSpaceOnUse">
<stop stop-color="#5B3B04"/>
<stop offset="1" stop-color="#240D54"/>
</linearGradient>
<radialGradient id="paint45_radial_7321_1517" cx="0" cy="0" r="1" gradientUnits="userSpaceOnUse" gradientTransform="translate(144.505 32.1883) scale(3.75387 2.24916)">
<stop stop-color="#B3E0FF"/>
<stop offset="1" stop-color="#B3E0FF" stop-opacity="0"/>
</radialGradient>
<linearGradient id="paint46_linear_7321_1517" x1="109.013" y1="107.859" x2="108.091" y2="100.127" gradientUnits="userSpaceOnUse">
<stop stop-color="#7A4E05"/>
<stop offset="1" stop-color="#FFD394"/>
</linearGradient>
<radialGradient id="paint47_radial_7321_1517" cx="0" cy="0" r="1" gradientUnits="userSpaceOnUse" gradientTransform="translate(97.4315 99.9897) rotate(-8.04289) scale(13.7956 5.78023)">
<stop stop-color="#FFF2BE"/>
<stop offset="0.906057" stop-color="#FFF2BE" stop-opacity="0"/>
</radialGradient>
<linearGradient id="paint48_linear_7321_1517" x1="110.794" y1="104.714" x2="94.298" y2="78.3075" gradientUnits="userSpaceOnUse">
<stop stop-color="#7A4E05"/>
<stop offset="1" stop-color="#FFD394"/>
</linearGradient>
<linearGradient id="paint49_linear_7321_1517" x1="42.5199" y1="106.865" x2="62.1508" y2="13.4396" gradientUnits="userSpaceOnUse">
<stop stop-color="#7A4E05"/>
<stop offset="1" stop-color="#FFD394"/>
</linearGradient>
<linearGradient id="paint50_linear_7321_1517" x1="113.763" y1="84.25" x2="86.5055" y2="62.9497" gradientUnits="userSpaceOnUse">
<stop stop-color="#7A4E05"/>
<stop offset="1" stop-color="#FFD394"/>
</linearGradient>
<radialGradient id="paint51_radial_7321_1517" cx="0" cy="0" r="1" gradientUnits="userSpaceOnUse" gradientTransform="translate(98.2139 64.7996) rotate(48.2851) scale(11.3185 5.486)">
<stop stop-color="#FFF2BE"/>
<stop offset="0.906057" stop-color="#FFF2BE" stop-opacity="0"/>
</radialGradient>
<linearGradient id="paint52_linear_7321_1517" x1="117.96" y1="106.275" x2="49.996" y2="70.1294" gradientUnits="userSpaceOnUse">
<stop stop-color="#7A4E05"/>
<stop offset="1" stop-color="#FFD394"/>
</linearGradient>
<radialGradient id="paint53_radial_7321_1517" cx="0" cy="0" r="1" gradientUnits="userSpaceOnUse" gradientTransform="translate(75.456 70.1456) rotate(78.8253) scale(48.227 27.8055)">
<stop offset="0.673597" stop-color="#592A00" stop-opacity="0"/>
<stop offset="1" stop-color="#592A00"/>
</radialGradient>
<radialGradient id="paint54_radial_7321_1517" cx="0" cy="0" r="1" gradientUnits="userSpaceOnUse" gradientTransform="translate(86.2949 79.3512) rotate(12.2005) scale(11.2412 8.78193)">
<stop offset="0.0250789" stop-color="#592A00"/>
<stop offset="1" stop-color="#592A00" stop-opacity="0"/>
</radialGradient>
<radialGradient id="paint55_radial_7321_1517" cx="0" cy="0" r="1" gradientUnits="userSpaceOnUse" gradientTransform="translate(70.2593 68.8093) rotate(109.093) scale(24.5108 14.6946)">
<stop stop-color="#FFF2BE"/>
<stop offset="0.906057" stop-color="#FFF2BE" stop-opacity="0"/>
</radialGradient>
<linearGradient id="paint56_linear_7321_1517" x1="117.03" y1="92.269" x2="104.323" y2="54.4889" gradientUnits="userSpaceOnUse">
<stop stop-color="#7A4E05"/>
<stop offset="1" stop-color="#FFD394"/>
</linearGradient>
<radialGradient id="paint57_radial_7321_1517" cx="0" cy="0" r="1" gradientUnits="userSpaceOnUse" gradientTransform="translate(83.0284 68.9851) rotate(11.0652) scale(13.0109 10.0209)">
<stop stop-color="#FFF2BE"/>
<stop offset="0.906057" stop-color="#FFF2BE" stop-opacity="0"/>
</radialGradient>
<radialGradient id="paint58_radial_7321_1517" cx="0" cy="0" r="1" gradientUnits="userSpaceOnUse" gradientTransform="translate(66.2505 79.5) rotate(34.8753) scale(17.9172 13.7997)">
<stop stop-color="#FFF2BE"/>
<stop offset="0.906057" stop-color="#FFF2BE" stop-opacity="0"/>
</radialGradient>
<linearGradient id="paint59_linear_7321_1517" x1="100.4" y1="110.234" x2="99.8364" y2="98.1661" gradientUnits="userSpaceOnUse">
<stop stop-color="#7A4E05"/>
<stop offset="1" stop-color="#FFD394"/>
</linearGradient>
<linearGradient id="paint60_linear_7321_1517" x1="96.9859" y1="111.422" x2="85.1246" y2="80.8968" gradientUnits="userSpaceOnUse">
<stop stop-color="#7A4E05"/>
<stop offset="1" stop-color="#FFD394"/>
</linearGradient>
<radialGradient id="paint61_radial_7321_1517" cx="0" cy="0" r="1" gradientUnits="userSpaceOnUse" gradientTransform="translate(83.7714 85.9805) rotate(150.832) scale(15.6436 10.0794)">
<stop stop-color="#FFF2BE"/>
<stop offset="0.906057" stop-color="#FFF2BE" stop-opacity="0"/>
</radialGradient>
<linearGradient id="paint62_linear_7321_1517" x1="86.7682" y1="24.668" x2="126.654" y2="73.8643" gradientUnits="userSpaceOnUse">
<stop stop-color="#FFE4BE"/>
<stop offset="1" stop-color="#986206"/>
</linearGradient>
<linearGradient id="paint63_linear_7321_1517" x1="84.2661" y1="28.8372" x2="78.1714" y2="43.8538" gradientUnits="userSpaceOnUse">
<stop stop-color="#5B3B04"/>
<stop offset="1" stop-color="#240D54"/>
</linearGradient>
<linearGradient id="paint64_linear_7321_1517" x1="92.3456" y1="43.5979" x2="86.5879" y2="30.4539" gradientUnits="userSpaceOnUse">
<stop stop-color="#7A4E05"/>
<stop offset="1" stop-color="#FFD394"/>
</linearGradient>
<linearGradient id="paint65_linear_7321_1517" x1="87.5" y1="32.3568" x2="81.0989" y2="36.9339" gradientUnits="userSpaceOnUse">
<stop stop-color="#5B3B04"/>
<stop offset="1" stop-color="#240D54"/>
</linearGradient>
<radialGradient id="paint66_radial_7321_1517" cx="0" cy="0" r="1" gradientUnits="userSpaceOnUse" gradientTransform="translate(93.8684 42.7577) rotate(-6.96663) scale(10.3724 9.86614)">
<stop offset="0.220197" stop-color="#5B3B04"/>
<stop offset="0.8" stop-color="#5B3B04" stop-opacity="0"/>
</radialGradient>
<linearGradient id="paint67_linear_7321_1517" x1="76.8923" y1="46.9268" x2="64.8352" y2="46.3127" gradientUnits="userSpaceOnUse">
<stop stop-color="#7A4E05"/>
<stop offset="1" stop-color="#FFD394"/>
</linearGradient>
<linearGradient id="paint68_linear_7321_1517" x1="94.6018" y1="25.5799" x2="106.713" y2="34.0731" gradientUnits="userSpaceOnUse">
<stop stop-color="#5B3B04"/>
<stop offset="1" stop-color="#240D54"/>
</linearGradient>
<linearGradient id="paint69_linear_7321_1517" x1="95.1812" y1="41.8143" x2="93.5546" y2="28.0787" gradientUnits="userSpaceOnUse">
<stop stop-color="#7A4E05"/>
<stop offset="1" stop-color="#FFD394"/>
</linearGradient>
<linearGradient id="paint70_linear_7321_1517" x1="3.51322" y1="-1.32877" x2="-2.11212" y2="1.89291" gradientUnits="userSpaceOnUse">
<stop stop-color="#5B3B04"/>
<stop offset="1" stop-color="#240D54"/>
</linearGradient>
<linearGradient id="paint71_linear_7321_1517" x1="118.293" y1="41.7189" x2="94.899" y2="5.18495" gradientUnits="userSpaceOnUse">
<stop stop-color="#7A4E05"/>
<stop offset="1" stop-color="#FFD394"/>
</linearGradient>
<radialGradient id="paint72_radial_7321_1517" cx="0" cy="0" r="1" gradientUnits="userSpaceOnUse" gradientTransform="translate(94.5707 38.2581) rotate(79.7655) scale(9.29962 16.3624)">
<stop offset="0.225549" stop-color="white"/>
<stop offset="0.8" stop-color="#FFF2BE" stop-opacity="0"/>
</radialGradient>
<linearGradient id="paint73_linear_7321_1517" x1="100.305" y1="35.1073" x2="97.6654" y2="41.9426" gradientUnits="userSpaceOnUse">
<stop stop-color="#5B3B04"/>
<stop offset="1" stop-color="#240D54"/>
</linearGradient>
<radialGradient id="paint74_radial_7321_1517" cx="0" cy="0" r="1" gradientUnits="userSpaceOnUse" gradientTransform="translate(98.5709 37.6337) rotate(-21.9564) scale(3.0122 1.80478)">
<stop stop-color="#B3E0FF"/>
<stop offset="1" stop-color="#B3E0FF" stop-opacity="0"/>
</radialGradient>
</defs>
</svg>
