<svg viewBox="0 0 240 120" fill="none" xmlns="http://www.w3.org/2000/svg">
<path d="M155.742 85.1844C155.742 74.5815 156.278 58.0978 165.544 51.6824C168.875 49.3758 175.063 48.394 181.273 48.5496C187.484 48.394 193.671 49.3758 197.003 51.6824C206.269 58.0978 206.804 74.6261 206.804 85.1844C206.804 93.1928 185.994 94.8188 181.273 94.8076C176.552 94.8188 155.742 93.1936 155.742 85.1844Z" fill="url(#paint0_radial_850_40152)"/>
<path d="M155.742 85.1844C155.742 74.5815 156.278 58.0978 165.544 51.6824C168.875 49.3758 175.063 48.394 181.273 48.5496C187.484 48.394 193.671 49.3758 197.003 51.6824C206.269 58.0978 206.804 74.6261 206.804 85.1844C206.804 93.1928 185.994 94.8188 181.273 94.8076C176.552 94.8188 155.742 93.1936 155.742 85.1844Z" fill="url(#paint1_radial_850_40152)"/>
<path d="M155.742 85.1844C155.742 74.5815 156.278 58.0978 165.544 51.6824C168.875 49.3758 175.063 48.394 181.273 48.5496C187.484 48.394 193.671 49.3758 197.003 51.6824C206.269 58.0978 206.804 74.6261 206.804 85.1844C206.804 93.1928 185.994 94.8188 181.273 94.8076C176.552 94.8188 155.742 93.1936 155.742 85.1844Z" fill="url(#paint2_radial_850_40152)"/>
<path d="M155.742 85.1844C155.742 74.5815 156.278 58.0978 165.544 51.6824C168.875 49.3758 175.063 48.394 181.273 48.5496C187.484 48.394 193.671 49.3758 197.003 51.6824C206.269 58.0978 206.804 74.6261 206.804 85.1844C206.804 93.1928 185.994 94.8188 181.273 94.8076C176.552 94.8188 155.742 93.1936 155.742 85.1844Z" fill="url(#paint3_radial_850_40152)"/>
<path fill-rule="evenodd" clip-rule="evenodd" d="M162.111 54.9653C163.096 53.6996 164.232 52.5902 165.543 51.6824C168.875 49.3759 175.062 48.394 181.272 48.5496C187.483 48.394 193.67 49.3759 197.002 51.6824C198.265 52.5567 199.365 53.6188 200.325 54.8279C197.669 57.2444 190.083 58.9886 181.139 58.9886C172.365 58.9886 164.898 57.3102 162.111 54.9653Z" fill="url(#paint4_radial_850_40152)"/>
<path fill-rule="evenodd" clip-rule="evenodd" d="M184.708 49.7338C184.235 49.6704 183.556 49.6494 182.643 49.7125C179.747 49.9124 176.084 50.9367 172.678 52.3005C169.264 53.6678 166.257 55.3171 164.635 56.6825C164.153 57.0881 163.433 57.0262 163.028 56.5443C162.622 56.0623 162.684 55.3428 163.166 54.9373C165.058 53.3452 168.322 51.5882 171.83 50.183C175.348 48.7742 179.259 47.6596 182.486 47.4369C183.824 47.3445 184.922 47.3971 185.728 47.6126C186.128 47.7194 186.545 47.8893 186.879 48.1791C187.245 48.4964 187.512 48.9661 187.489 49.5406C187.469 50.0576 187.219 50.4776 186.971 50.776C186.715 51.0844 186.379 51.361 186.007 51.6095C185.262 52.1082 184.222 52.5918 182.934 53.0334C180.248 53.9552 176.888 55.1669 174.017 56.4508C172.579 57.0935 171.291 57.7426 170.28 58.3701C169.248 59.0111 168.643 59.5475 168.394 59.9326C168.519 59.9826 168.74 60.0451 169.102 60.0727C170.385 60.1703 172.633 59.7544 175.496 58.3275C176.636 57.7593 177.819 57.1514 179.011 56.5384C180.863 55.5858 182.74 54.6209 184.52 53.7736C187.448 52.3799 190.311 51.2041 192.695 50.828C193.946 50.6306 195.036 50.6114 195.928 50.7687C196.794 50.9214 197.632 51.2716 198.143 51.9631C198.709 52.7283 198.681 53.6362 198.325 54.4175C197.988 55.1577 197.345 55.8444 196.523 56.4593C195.659 57.1051 194.562 57.6143 193.49 58.0542C192.967 58.2689 192.427 58.4755 191.904 58.6759L191.844 58.6992C191.297 58.9088 190.768 59.112 190.265 59.3207C189.24 59.7459 188.419 60.1555 187.865 60.5963C187.325 61.0256 187.182 61.3639 187.182 61.6618C187.182 62.2917 186.671 62.8024 186.041 62.8024C185.411 62.8024 184.901 62.2917 184.901 61.6618C184.901 60.4019 185.611 59.474 186.445 58.811C187.264 58.1595 188.337 57.6508 189.391 57.2137C189.927 56.9913 190.484 56.7774 191.027 56.5692L191.079 56.5495C191.609 56.3463 192.126 56.1482 192.624 55.9439C193.667 55.516 194.537 55.0955 195.157 54.6323C195.818 54.1381 196.132 53.7289 196.249 53.4723C196.288 53.386 196.298 53.333 196.301 53.3095C196.259 53.2658 196.071 53.1102 195.532 53.0151C194.965 52.915 194.142 52.9089 193.05 53.0812C191.023 53.4011 188.42 54.4434 185.5 55.8332C183.738 56.6719 181.933 57.6008 180.114 58.5363C178.916 59.1523 177.713 59.7711 176.513 60.3691C173.442 61.8997 170.77 62.4872 168.929 62.3471C168.048 62.2801 167.115 62.0265 166.535 61.3598C166.219 60.9972 166.038 60.5412 166.041 60.0392C166.044 59.5593 166.213 59.1201 166.446 58.7455C166.982 57.8852 167.982 57.1121 169.077 56.4322C170.211 55.7285 171.603 55.0316 173.085 54.3685C176.054 53.0411 179.493 51.8026 182.194 50.8758C183.354 50.4779 184.184 50.0788 184.708 49.7338ZM185.252 49.2705C185.252 49.2705 185.251 49.2724 185.249 49.2762Z" fill="url(#paint5_linear_850_40152)"/>
<path d="M49.2207 111.13L139.067 85.3489L141.94 82.7087V31.4566L138.213 24.2347L43.5519 51.0257V105.539C43.5519 110.011 45.3594 112.051 49.2207 111.13Z" fill="url(#paint6_linear_850_40152)"/>
<path d="M49.2207 111.13L139.067 85.3489L141.94 82.7087V31.4566L138.213 24.2347L43.5519 51.0257V105.539C43.5519 110.011 45.3594 112.051 49.2207 111.13Z" fill="url(#paint7_linear_850_40152)"/>
<path d="M83.5389 11.5016L47.1673 45.1452C40.0687 51.2075 43.7574 55.4011 50.5771 53.8972L134.573 29.801C136.732 29.2874 138.096 29.1201 138.096 31.6196V46.2819C138.096 48.7909 138.327 50.0956 136.732 50.601C136.732 50.601 55.73 75.0187 53.987 75.4929C52.2439 75.9671 48.3702 76.6914 47.1673 76.5159C45.9644 76.3403 44.4394 75.4929 43.7574 75.4929C43.0754 75.4929 43.0754 75.8885 43.0754 77.7661V85.6715C43.0754 86.2658 43.5881 86.6474 43.5881 86.6474C45.5135 87.8762 48.1579 88.4082 50.5771 87.7683L135.369 63.2175C136.732 62.8767 138.096 63.7884 138.096 65.4907V84.8188C138.096 85.991 138.805 86.0538 139.308 85.991C142.926 84.9496 145.428 82.8088 145.428 79.1301V31.6196C145.428 28.5075 143.176 23.3111 138.096 21.731L97.8603 12.2971C94.0385 11.5016 86.6541 9.08935 83.5389 11.5016Z" fill="url(#paint8_linear_850_40152)"/>
<path d="M83.5389 11.5016L47.1673 45.1452C40.0687 51.2075 43.7574 55.4011 50.5771 53.8972L134.573 29.801C136.732 29.2874 138.096 29.1201 138.096 31.6196V46.2819C138.096 48.7909 138.327 50.0956 136.732 50.601C136.732 50.601 55.73 75.0187 53.987 75.4929C52.2439 75.9671 48.3702 76.6914 47.1673 76.5159C45.9644 76.3403 44.4394 75.4929 43.7574 75.4929C43.0754 75.4929 43.0754 75.8885 43.0754 77.7661V85.6715C43.0754 86.2658 43.5881 86.6474 43.5881 86.6474C45.5135 87.8762 48.1579 88.4082 50.5771 87.7683L135.369 63.2175C136.732 62.8767 138.096 63.7884 138.096 65.4907V84.8188C138.096 85.991 138.805 86.0538 139.308 85.991C142.926 84.9496 145.428 82.8088 145.428 79.1301V31.6196C145.428 28.5075 143.176 23.3111 138.096 21.731L97.8603 12.2971C94.0385 11.5016 86.6541 9.08935 83.5389 11.5016Z" fill="url(#paint9_linear_850_40152)"/>
<path d="M131.495 103.092C131.494 91.2832 132.091 72.924 142.411 65.7786C146.122 63.2097 153.013 62.1161 159.93 62.2895C166.848 62.1161 173.739 63.2097 177.449 65.7786C187.77 72.924 188.366 91.3328 188.366 103.092C188.367 112.012 165.189 113.823 159.93 113.811C154.672 113.823 131.494 112.013 131.495 103.092Z" fill="url(#paint10_radial_850_40152)"/>
<path d="M131.495 103.092C131.494 91.2832 132.091 72.924 142.411 65.7786C146.122 63.2097 153.013 62.1161 159.93 62.2895C166.848 62.1161 173.739 63.2097 177.449 65.7786C187.77 72.924 188.366 91.3328 188.366 103.092C188.367 112.012 165.189 113.823 159.93 113.811C154.672 113.823 131.494 112.013 131.495 103.092Z" fill="url(#paint11_radial_850_40152)"/>
<path d="M131.495 103.092C131.494 91.2832 132.091 72.924 142.411 65.7786C146.122 63.2097 153.013 62.1161 159.93 62.2895C166.848 62.1161 173.739 63.2097 177.449 65.7786C187.77 72.924 188.366 91.3328 188.366 103.092C188.367 112.012 165.189 113.823 159.93 113.811C154.672 113.823 131.494 112.013 131.495 103.092Z" fill="url(#paint12_radial_850_40152)"/>
<path fill-rule="evenodd" clip-rule="evenodd" d="M138.588 69.4359C139.685 68.026 140.95 66.7903 142.411 65.7792C146.121 63.2102 153.013 62.1166 159.93 62.2899C166.847 62.1166 173.738 63.2102 177.449 65.7792C178.855 66.7529 180.081 67.9357 181.149 69.2824C178.192 71.9739 169.743 73.9167 159.781 73.9167C150.009 73.9167 141.693 72.0475 138.588 69.4359Z" fill="url(#paint13_radial_850_40152)"/>
<path fill-rule="evenodd" clip-rule="evenodd" d="M163.757 63.6085C163.229 63.5379 162.473 63.5145 161.456 63.5848C158.231 63.8074 154.15 64.9483 150.358 66.4672C146.555 67.9901 143.206 69.8271 141.399 71.3478C140.862 71.7995 140.061 71.7306 139.609 71.1938C139.157 70.6571 139.226 69.8557 139.763 69.404C141.87 67.6308 145.505 65.6739 149.413 64.1088C153.331 62.5397 157.687 61.2983 161.281 61.0502C162.771 60.9474 163.995 61.006 164.892 61.2459C165.337 61.3649 165.802 61.5542 166.174 61.8768C166.582 62.2303 166.879 62.7535 166.854 63.3933C166.831 63.9692 166.553 64.4369 166.277 64.7693C165.991 65.1127 165.617 65.4208 165.203 65.6977C164.373 66.253 163.215 66.7916 161.781 67.2835C158.788 68.3102 155.046 69.6597 151.848 71.0898C150.248 71.8055 148.813 72.5285 147.687 73.2274C146.537 73.9413 145.863 74.5388 145.586 74.9677C145.726 75.0234 145.971 75.093 146.374 75.1237C147.803 75.2324 150.307 74.7692 153.496 73.18C154.766 72.5471 156.083 71.87 157.411 71.1873C159.474 70.1263 161.564 69.0517 163.547 68.108C166.808 66.5557 169.997 65.2461 172.651 64.8272C174.045 64.6074 175.26 64.5859 176.253 64.7612C177.217 64.9313 178.15 65.3212 178.72 66.0914C179.35 66.9437 179.319 67.9549 178.922 68.8251C178.547 69.6496 177.831 70.4143 176.915 71.0992C175.953 71.8185 174.732 72.3856 173.537 72.8756C172.954 73.1147 172.354 73.3448 171.771 73.568L171.703 73.5939C171.094 73.8274 170.505 74.0537 169.945 74.2862C168.803 74.7597 167.889 75.216 167.272 75.707C166.671 76.185 166.511 76.5619 166.511 76.8937C166.511 77.5953 165.942 78.164 165.241 78.164C164.539 78.164 163.971 77.5953 163.971 76.8937C163.971 75.4904 164.762 74.457 165.691 73.7185C166.603 72.9929 167.798 72.4263 168.972 71.9395C169.569 71.6917 170.189 71.4535 170.794 71.2216L170.852 71.1996C171.442 70.9733 172.018 70.7527 172.573 70.5252C173.735 70.0486 174.704 69.5803 175.394 69.0643C176.13 68.5139 176.48 68.0581 176.61 67.7723C176.654 67.6762 176.665 67.6172 176.668 67.5911C176.621 67.5424 176.412 67.3691 175.812 67.2631C175.18 67.1516 174.263 67.1449 173.047 67.3367C170.789 67.6931 167.89 68.854 164.638 70.4019C162.676 71.336 160.665 72.3705 158.639 73.4125C157.306 74.0986 155.966 74.7879 154.629 75.4539C151.208 77.1586 148.232 77.813 146.182 77.657C145.2 77.5823 144.162 77.2998 143.515 76.5572C143.164 76.1534 142.962 75.6455 142.965 75.0865C142.968 74.5519 143.157 74.0627 143.417 73.6455C144.013 72.6873 145.127 71.8263 146.347 71.069C147.609 70.2852 149.159 69.5091 150.811 68.7706C154.117 67.2921 157.947 65.9127 160.956 64.8804C162.248 64.4373 163.172 63.9927 163.757 63.6085ZM164.362 63.0925C164.362 63.0924 164.361 63.0946 164.358 63.0988Z" fill="url(#paint14_linear_850_40152)"/>
<defs>
<radialGradient id="paint0_radial_850_40152" cx="0" cy="0" r="1" gradientUnits="userSpaceOnUse" gradientTransform="translate(203.857 87.6796) rotate(-90) scale(70.2126 70.2126)">
<stop stop-color="#8C412A"/>
<stop offset="0.76269" stop-color="#FFA573"/>
</radialGradient>
<radialGradient id="paint1_radial_850_40152" cx="0" cy="0" r="1" gradientUnits="userSpaceOnUse" gradientTransform="translate(190.314 72.9777) rotate(90) scale(39.0268)">
<stop offset="0.6621" stop-color="#663323" stop-opacity="0"/>
<stop offset="1" stop-color="#663323"/>
</radialGradient>
<radialGradient id="paint2_radial_850_40152" cx="0" cy="0" r="1" gradientUnits="userSpaceOnUse" gradientTransform="translate(181.273 48.5337) rotate(90) scale(46.274 46.2741)">
<stop offset="0.861361" stop-color="#8E513E" stop-opacity="0"/>
<stop offset="1" stop-color="#8E513E"/>
</radialGradient>
<radialGradient id="paint3_radial_850_40152" cx="0" cy="0" r="1" gradientUnits="userSpaceOnUse" gradientTransform="translate(169.613 79.1106) rotate(35.484) scale(35.7797 24.2166)">
<stop offset="0.422749" stop-color="#381408"/>
<stop offset="1" stop-color="#381408" stop-opacity="0"/>
</radialGradient>
<radialGradient id="paint4_radial_850_40152" cx="0" cy="0" r="1" gradientUnits="userSpaceOnUse" gradientTransform="translate(178.73 50.6384) scale(20.4935 7.92717)">
<stop offset="0.356522" stop-color="#E7A27C"/>
<stop offset="1" stop-color="#E7A27C" stop-opacity="0"/>
</radialGradient>
<linearGradient id="paint5_linear_850_40152" x1="180.671" y1="47.4946" x2="180.671" y2="61.6618" gradientUnits="userSpaceOnUse">
<stop stop-color="#F5DD9C"/>
<stop offset="1" stop-color="#F8EBF4"/>
</linearGradient>
<linearGradient id="paint6_linear_850_40152" x1="42.147" y1="69.7247" x2="130.608" y2="69.6107" gradientUnits="userSpaceOnUse">
<stop offset="0.0489989" stop-color="#CB9170"/>
<stop offset="0.141789" stop-color="#844E3D"/>
<stop offset="0.520656" stop-color="#633426"/>
<stop offset="0.915048" stop-color="#46261B"/>
</linearGradient>
<linearGradient id="paint7_linear_850_40152" x1="42.147" y1="69.7247" x2="130.608" y2="69.6107" gradientUnits="userSpaceOnUse">
<stop offset="0.0489989" stop-color="#CB9170"/>
<stop offset="0.141789" stop-color="#844E3D"/>
<stop offset="0.520656" stop-color="#8C4A36"/>
<stop offset="0.915048" stop-color="#703624"/>
</linearGradient>
<linearGradient id="paint8_linear_850_40152" x1="76.0039" y1="15.0068" x2="100.285" y2="97.1983" gradientUnits="userSpaceOnUse">
<stop stop-color="#A76548"/>
<stop offset="0.255825" stop-color="#A76241"/>
<stop offset="0.298159" stop-color="#F2AE89"/>
<stop offset="0.321715" stop-color="#BD7952"/>
<stop offset="0.547438" stop-color="#D6916A"/>
<stop offset="0.604194" stop-color="#F7AE8A"/>
<stop offset="0.620631" stop-color="#B87B59"/>
<stop offset="0.972283" stop-color="#CA8C6C"/>
<stop offset="1" stop-color="#FFD2B9"/>
</linearGradient>
<linearGradient id="paint9_linear_850_40152" x1="43.0754" y1="81.2388" x2="49.4427" y2="81.2388" gradientUnits="userSpaceOnUse">
<stop stop-color="#FAB48F"/>
<stop offset="0.140632" stop-color="#FFBE9B"/>
<stop offset="1" stop-color="#FFBF9C" stop-opacity="0"/>
</linearGradient>
<radialGradient id="paint10_radial_850_40152" cx="0" cy="0" r="1" gradientUnits="userSpaceOnUse" gradientTransform="translate(185.084 105.872) rotate(-90) scale(78.2013)">
<stop offset="0.137056" stop-color="#8C412A"/>
<stop offset="0.76269" stop-color="#DB936B"/>
</radialGradient>
<radialGradient id="paint11_radial_850_40152" cx="0" cy="0" r="1" gradientUnits="userSpaceOnUse" gradientTransform="translate(170 89.4969) rotate(90) scale(43.4672 43.4672)">
<stop offset="0.6621" stop-color="#663323" stop-opacity="0"/>
<stop offset="1" stop-color="#663323"/>
</radialGradient>
<radialGradient id="paint12_radial_850_40152" cx="0" cy="0" r="1" gradientUnits="userSpaceOnUse" gradientTransform="translate(159.931 62.2717) rotate(90) scale(51.539 51.5391)">
<stop offset="0.861361" stop-color="#8E513E" stop-opacity="0"/>
<stop offset="1" stop-color="#8E513E"/>
</radialGradient>
<radialGradient id="paint13_radial_850_40152" cx="0" cy="0" r="1" gradientUnits="userSpaceOnUse" gradientTransform="translate(157.098 64.6164) scale(22.8253 8.82911)">
<stop offset="0.356522" stop-color="#E7A27C"/>
<stop offset="1" stop-color="#E7A27C" stop-opacity="0"/>
</radialGradient>
<linearGradient id="paint14_linear_850_40152" x1="159.26" y1="61.1145" x2="159.26" y2="76.8937" gradientUnits="userSpaceOnUse">
<stop stop-color="#F5DD9C"/>
<stop offset="1" stop-color="#F8EBF4"/>
</linearGradient>
</defs>
</svg>
