<svg xmlns="http://www.w3.org/2000/svg" width="14" height="14" viewBox="0 0 14 14">
  <path fill="#B9B9B9" d="M2.34488629,1 C1.99460998,0.996034128 1.6572048,1.13196169 1.40756047,1.37770064 C1.15791614,1.62343958 1.01668589,1.95865978 1.0152169,2.30895646 L1,8.68740184 C0.998279544,9.03730435 1.13705946,9.3732622 1.38523184,9.61993051 C1.63340421,9.86659882 1.97019951,10.0033339 2.32008499,9.99947032 L4.00334617,9.99947032 L4.00334617,12.9940266 C4.00198678,13.0842758 4.07314639,13.1589933 4.16335452,13.1620417 C4.20867077,13.1624185 4.25243458,13.1455422 4.2857609,13.1148329 L8,9.99867028 L11.6941742,9.99867028 C12.0425538,10.0027884 12.3778676,9.86621296 12.6242264,9.61985419 C12.8705852,9.37349541 13.0071606,9.03818159 13.003133,8.68980197 L12.994242,2.31215663 C12.9951144,1.9630882 12.8561748,1.62820529 12.608445,1.38227944 C12.3607153,1.13635359 12.0248259,0.999864976 11.6757732,1.00328832 L2.34488629,1 Z"/>
</svg>
