<svg viewBox="0 0 240 120" fill="none" xmlns="http://www.w3.org/2000/svg">
<path d="M24.6455 41.5385C-0.000135422 55.3846 14.859 82.3628 23.4367 87.6923H216.923C216.923 87.6923 244.615 64.6154 222.211 39.2308C230.769 22.0978 200.769 6.92308 184.748 22.0978C174.986 -9.51973 119.861 -2.08699 114.85 12.7799C102.321 0.391719 89.8413 7.67047 84.8463 17.0061C46.1537 -9.23077 22.9804 23.1225 24.6455 41.5385Z" fill="url(#paint0_radial_9579_3761)"/>
<path d="M24.6455 41.5385C-0.000135422 55.3846 14.859 82.3628 23.4367 87.6923H216.923C216.923 87.6923 244.615 64.6154 222.211 39.2308C230.769 22.0978 200.769 6.92308 184.748 22.0978C174.986 -9.51973 119.861 -2.08699 114.85 12.7799C102.321 0.391719 89.8413 7.67047 84.8463 17.0061C46.1537 -9.23077 22.9804 23.1225 24.6455 41.5385Z" fill="url(#paint1_radial_9579_3761)"/>
<path d="M24.6455 41.5385C-0.000135422 55.3846 14.859 82.3628 23.4367 87.6923H216.923C216.923 87.6923 244.615 64.6154 222.211 39.2308C230.769 22.0978 200.769 6.92308 184.748 22.0978C174.986 -9.51973 119.861 -2.08699 114.85 12.7799C102.321 0.391719 89.8413 7.67047 84.8463 17.0061C46.1537 -9.23077 22.9804 23.1225 24.6455 41.5385Z" fill="url(#paint2_radial_9579_3761)"/>
<path d="M24.6455 41.5385C-0.000135422 55.3846 14.859 82.3628 23.4367 87.6923H216.923C216.923 87.6923 244.615 64.6154 222.211 39.2308C230.769 22.0978 200.769 6.92308 184.748 22.0978C174.986 -9.51973 119.861 -2.08699 114.85 12.7799C102.321 0.391719 89.8413 7.67047 84.8463 17.0061C46.1537 -9.23077 22.9804 23.1225 24.6455 41.5385Z" fill="url(#paint3_radial_9579_3761)"/>
<path d="M24.6455 41.5385C-0.000135422 55.3846 14.859 82.3628 23.4367 87.6923H216.923C216.923 87.6923 244.615 64.6154 222.211 39.2308C230.769 22.0978 200.769 6.92308 184.748 22.0978C174.986 -9.51973 119.861 -2.08699 114.85 12.7799C102.321 0.391719 89.8413 7.67047 84.8463 17.0061C46.1537 -9.23077 22.9804 23.1225 24.6455 41.5385Z" fill="url(#paint4_radial_9579_3761)"/>
<path d="M24.6455 41.5385C-0.000135422 55.3846 14.859 82.3628 23.4367 87.6923H216.923C216.923 87.6923 244.615 64.6154 222.211 39.2308C230.769 22.0978 200.769 6.92308 184.748 22.0978C174.986 -9.51973 119.861 -2.08699 114.85 12.7799C102.321 0.391719 89.8413 7.67047 84.8463 17.0061C46.1537 -9.23077 22.9804 23.1225 24.6455 41.5385Z" fill="url(#paint5_radial_9579_3761)"/>
<path d="M11.6542 96.8306L23.077 87.6924H216.923L228.346 96.8306C235.144 102.269 234.977 109.92 226.547 112.095C211.991 115.851 181.901 120 120 120C58.0989 120 28.0094 115.851 13.4526 112.095C5.02334 109.92 4.85648 102.269 11.6542 96.8306Z" fill="#D9D9D9"/>
<path d="M11.6542 96.8306L23.077 87.6924H216.923L228.346 96.8306C235.144 102.269 234.977 109.92 226.547 112.095C211.991 115.851 181.901 120 120 120C58.0989 120 28.0094 115.851 13.4526 112.095C5.02334 109.92 4.85648 102.269 11.6542 96.8306Z" fill="url(#paint6_radial_9579_3761)"/>
<path d="M60.0008 83.0771H180.001L198.462 92.3079V96.9233H41.5393L41.2297 92.3079L60.0008 83.0771Z" fill="url(#paint7_linear_9579_3761)"/>
<path d="M60.0008 83.0771H180.001L198.462 92.3079V96.9233H41.5393L41.2297 92.3079L60.0008 83.0771Z" fill="url(#paint8_radial_9579_3761)"/>
<path d="M95.1151 87.6928L87.8203 50.3033C87.7897 50.1466 87.7337 49.9948 87.7072 49.8373C87.3881 47.9413 92.3063 45.1671 93.4891 46.5073L133.846 87.6928H95.1151Z" fill="url(#paint9_radial_9579_3761)"/>
<path d="M141.346 87.6923L134.51 49.3838C134.453 49.0611 134.492 48.7029 134.326 48.4205C133.595 47.1821 129.5 45.6443 128.511 46.3699C128.411 46.4432 128.34 46.5478 128.256 46.6384L90 87.6917L141.346 87.6923Z" fill="url(#paint10_radial_9579_3761)"/>
<path d="M149.239 87.6935L155.859 50.5918C155.883 50.458 155.902 50.3216 155.865 50.1908C155.417 48.6063 150.059 45.7088 149.239 46.7845L115.409 87.6935H149.239Z" fill="url(#paint11_radial_9579_3761)"/>
<path d="M59.3054 38.1849C58.9985 38.5334 58.999 39.0576 59.3054 39.4064L72.6152 54.5145L59.3054 69.6272C58.9991 69.976 58.9985 70.5003 59.3054 70.8487L73.1516 86.5653L74.5398 85.3484L61.2345 70.2357L74.5398 55.1275C74.8466 54.7789 74.8465 54.2547 74.5398 53.9061L61.2345 38.7934L74.5398 23.6852L73.1516 22.4683L59.3054 38.1849Z" fill="#374869"/>
<path d="M59.3054 38.1849C58.9985 38.5334 58.999 39.0576 59.3054 39.4064L72.6152 54.5145L59.3054 69.6272C58.9991 69.976 58.9985 70.5003 59.3054 70.8487L73.1516 86.5653L74.5398 85.3484L61.2345 70.2357L74.5398 55.1275C74.8466 54.7789 74.8465 54.2547 74.5398 53.9061L61.2345 38.7934L74.5398 23.6852L73.1516 22.4683L59.3054 38.1849Z" fill="url(#paint12_linear_9579_3761)"/>
<path d="M74.5399 38.1849C74.8468 38.5334 74.8463 39.0576 74.5399 39.4064L61.2301 54.5145L74.5399 69.6272C74.8462 69.976 74.8468 70.5003 74.5399 70.8487L60.6937 86.5653L59.3055 85.3484L72.6108 70.2357L59.3055 55.1275C58.9987 54.7789 58.9988 54.2547 59.3055 53.9061L72.6108 38.7934L59.3055 23.6852L60.6937 22.4683L74.5399 38.1849Z" fill="#374869"/>
<path d="M74.5399 38.1849C74.8468 38.5334 74.8463 39.0576 74.5399 39.4064L61.2301 54.5145L74.5399 69.6272C74.8462 69.976 74.8468 70.5003 74.5399 70.8487L60.6937 86.5653L59.3055 85.3484L72.6108 70.2357L59.3055 55.1275C58.9987 54.7789 58.9988 54.2547 59.3055 53.9061L72.6108 38.7934L59.3055 23.6852L60.6937 22.4683L74.5399 38.1849Z" fill="url(#paint13_linear_9579_3761)"/>
<path d="M73.8456 22.1528L74.0304 22.1709C74.4517 22.2564 74.7696 22.6302 74.7696 23.0768V87.6922C74.7695 88.202 74.3554 88.6162 73.8456 88.6162H59.9994C59.4896 88.6162 59.0754 88.202 59.0754 87.6922V23.0768L59.0935 22.892C59.179 22.4706 59.5528 22.1528 59.9994 22.1528H73.8456ZM60.9234 86.7682H72.9216V24.0008H60.9234V86.7682Z" fill="#374869"/>
<path d="M73.8456 22.1528L74.0304 22.1709C74.4517 22.2564 74.7696 22.6302 74.7696 23.0768V87.6922C74.7695 88.202 74.3554 88.6162 73.8456 88.6162H59.9994C59.4896 88.6162 59.0754 88.202 59.0754 87.6922V23.0768L59.0935 22.892C59.179 22.4706 59.5528 22.1528 59.9994 22.1528H73.8456ZM60.9234 86.7682H72.9216V24.0008H60.9234V86.7682Z" fill="url(#paint14_linear_9579_3761)"/>
<path d="M165.459 38.1849C165.152 38.5334 165.153 39.0576 165.459 39.4064L178.769 54.5145L165.459 69.6272C165.153 69.976 165.152 70.5003 165.459 70.8487L179.306 86.5653L180.694 85.3484L167.388 70.2357L180.694 55.1275C181.001 54.7789 181 54.2547 180.694 53.9061L167.388 38.7934L180.694 23.6852L179.306 22.4683L165.459 38.1849Z" fill="#374869"/>
<path d="M165.459 38.1849C165.152 38.5334 165.153 39.0576 165.459 39.4064L178.769 54.5145L165.459 69.6272C165.153 69.976 165.152 70.5003 165.459 70.8487L179.306 86.5653L180.694 85.3484L167.388 70.2357L180.694 55.1275C181.001 54.7789 181 54.2547 180.694 53.9061L167.388 38.7934L180.694 23.6852L179.306 22.4683L165.459 38.1849Z" fill="url(#paint15_linear_9579_3761)"/>
<path d="M180.694 38.1849C181.001 38.5334 181 39.0576 180.694 39.4064L167.384 54.5145L180.694 69.6272C181 69.976 181.001 70.5003 180.694 70.8487L166.848 86.5653L165.459 85.3484L178.765 70.2357L165.459 55.1275C165.153 54.7789 165.153 54.2547 165.459 53.9061L178.765 38.7934L165.459 23.6852L166.848 22.4683L180.694 38.1849Z" fill="#374869"/>
<path d="M180.694 38.1849C181.001 38.5334 181 39.0576 180.694 39.4064L167.384 54.5145L180.694 69.6272C181 69.976 181.001 70.5003 180.694 70.8487L166.848 86.5653L165.459 85.3484L178.765 70.2357L165.459 55.1275C165.153 54.7789 165.153 54.2547 165.459 53.9061L178.765 38.7934L165.459 23.6852L166.848 22.4683L180.694 38.1849Z" fill="url(#paint16_linear_9579_3761)"/>
<path d="M180 22.1528L180.184 22.1709C180.606 22.2564 180.923 22.6302 180.923 23.0768V87.6922C180.923 88.202 180.509 88.6162 180 88.6162H166.153C165.644 88.6162 165.229 88.202 165.229 87.6922V23.0768L165.247 22.892C165.333 22.4706 165.707 22.1528 166.153 22.1528H180ZM167.077 86.7682H179.076V24.0008H167.077V86.7682Z" fill="#374869"/>
<path d="M180 22.1528L180.184 22.1709C180.606 22.2564 180.923 22.6302 180.923 23.0768V87.6922C180.923 88.202 180.509 88.6162 180 88.6162H166.153C165.644 88.6162 165.229 88.202 165.229 87.6922V23.0768L165.247 22.892C165.333 22.4706 165.707 22.1528 166.153 22.1528H180ZM167.077 86.7682H179.076V24.0008H167.077V86.7682Z" fill="url(#paint17_linear_9579_3761)"/>
<path d="M142.687 22.1528C142.958 22.1528 143.219 22.275 143.395 22.4819L154.406 35.4716L164.831 22.4999L166.273 23.6537L155.145 37.4999C154.972 37.7146 154.713 37.8433 154.437 37.8469C154.162 37.8502 153.899 37.7278 153.721 37.5179L142.687 24.5011L131.658 37.5179C131.483 37.7248 131.222 37.8469 130.95 37.8469C130.68 37.8464 130.422 37.7244 130.247 37.5179L119.214 24.5011L108.18 37.5179C108.004 37.7248 107.748 37.8469 107.477 37.8469C107.206 37.8466 106.949 37.7246 106.774 37.5179L95.7399 24.5011L84.7063 37.5179C84.5267 37.7297 84.2627 37.8525 83.9851 37.8469C83.7072 37.841 83.4436 37.7104 83.273 37.4909L72.5143 23.6447L73.9746 22.5089L84.0347 35.4581L95.0368 22.4819L95.181 22.3421C95.3402 22.2209 95.5363 22.153 95.7399 22.1528C96.0112 22.1528 96.2677 22.275 96.4431 22.4819L107.477 35.4942L118.51 22.4819L118.655 22.3421C118.814 22.2209 119.01 22.1531 119.214 22.1528C119.485 22.1528 119.746 22.275 119.921 22.4819L130.95 35.4942L141.984 22.4819L142.133 22.3421C142.291 22.2221 142.485 22.1533 142.687 22.1528Z" fill="url(#paint18_linear_9579_3761)"/>
<path d="M142.687 37.8471C142.958 37.8471 143.219 37.725 143.395 37.5181L154.406 24.5283L164.831 37.5001L166.273 36.3462L155.145 22.5001C154.972 22.2853 154.713 22.1566 154.437 22.153C154.162 22.1497 153.899 22.2722 153.721 22.482L142.687 35.4989L131.658 22.482C131.483 22.2751 131.222 22.153 130.95 22.153C130.68 22.1535 130.422 22.2756 130.247 22.482L119.214 35.4989L108.18 22.482C108.004 22.2751 107.748 22.153 107.477 22.153C107.206 22.1533 106.949 22.2754 106.774 22.482L95.7399 35.4989L84.7063 22.482C84.5267 22.2702 84.2627 22.1475 83.9851 22.153C83.7072 22.1589 83.4436 22.2896 83.273 22.5091L72.5143 36.3552L73.9746 37.4911L84.0347 24.5418L95.0368 37.5181L95.181 37.6578C95.3402 37.779 95.5363 37.847 95.7399 37.8471C96.0112 37.8471 96.2677 37.725 96.4431 37.5181L107.477 24.5058L118.51 37.5181L118.655 37.6578C118.814 37.7791 119.01 37.8468 119.214 37.8471C119.485 37.8471 119.746 37.725 119.921 37.5181L130.95 24.5058L141.984 37.5181L142.133 37.6578C142.291 37.7778 142.485 37.8467 142.687 37.8471Z" fill="url(#paint19_linear_9579_3761)"/>
<path d="M167.078 23.0768L167.06 22.892C166.974 22.4706 166.601 22.1528 166.154 22.1528L73.8462 22.1528C73.3364 22.1528 72.9222 22.567 72.9222 23.0768L72.9222 36.923C72.9222 37.4328 73.3364 37.8469 73.8462 37.8469L166.154 37.8469L166.339 37.8289C166.76 37.7434 167.078 37.3696 167.078 36.923V23.0768ZM74.7702 35.999L74.7702 24.0008L165.23 24.0008V35.999L74.7702 35.999Z" fill="#374869"/>
<path d="M167.078 23.0768L167.06 22.892C166.974 22.4706 166.601 22.1528 166.154 22.1528L73.8462 22.1528C73.3364 22.1528 72.9222 22.567 72.9222 23.0768L72.9222 36.923C72.9222 37.4328 73.3364 37.8469 73.8462 37.8469L166.154 37.8469L166.339 37.8289C166.76 37.7434 167.078 37.3696 167.078 36.923V23.0768ZM74.7702 35.999L74.7702 24.0008L165.23 24.0008V35.999L74.7702 35.999Z" fill="url(#paint20_linear_9579_3761)"/>
<path d="M114.476 40.2988V46.8748H112.858V41.9124H107.071V46.8748H105.458V40.2988H114.476Z" fill="#677796"/>
<path d="M114.476 40.2988V46.8748H112.858V41.9124H107.071V46.8748H105.458V40.2988H114.476Z" fill="#A0B8E6"/>
<path d="M110.774 37.3555V40.817H109.16V37.3555H110.774Z" fill="#677796"/>
<path d="M110.774 37.3555V40.817H109.16V37.3555H110.774Z" fill="#A0B8E6"/>
<path d="M115.357 47.9927C115.357 50.9599 112.944 53.3653 109.968 53.3653C106.991 53.3653 104.578 50.9599 104.578 47.9927C104.578 45.0255 106.991 42.6201 109.968 42.6201C112.944 42.6201 115.357 45.0255 115.357 47.9927Z" fill="url(#paint21_linear_9579_3761)"/>
<path d="M115.357 47.9927C115.357 50.9599 112.944 53.3653 109.968 53.3653C106.991 53.3653 104.578 50.9599 104.578 47.9927C104.578 45.0255 106.991 42.6201 109.968 42.6201C112.944 42.6201 115.357 45.0255 115.357 47.9927Z" fill="url(#paint22_linear_9579_3761)"/>
<path d="M115.357 47.9927C115.357 50.9599 112.944 53.3653 109.968 53.3653C106.991 53.3653 104.578 50.9599 104.578 47.9927C104.578 45.0255 106.991 42.6201 109.968 42.6201C112.944 42.6201 115.357 45.0255 115.357 47.9927Z" fill="url(#paint23_linear_9579_3761)"/>
<path d="M113.669 47.9915C113.669 50.0296 112.012 51.6818 109.968 51.6818C107.923 51.6818 106.266 50.0296 106.266 47.9915C106.266 45.9535 107.923 44.3013 109.968 44.3013C112.012 44.3013 113.669 45.9535 113.669 47.9915Z" fill="url(#paint24_linear_9579_3761)"/>
<path d="M158.53 39.8662V46.4422H156.912V41.4798H151.125V46.4422H149.511V39.8662H158.53Z" fill="#677796"/>
<path d="M158.53 39.8662V46.4422H156.912V41.4798H151.125V46.4422H149.511V39.8662H158.53Z" fill="#A0B8E6"/>
<path d="M154.827 36.9229V40.3844H153.214V36.9229H154.827Z" fill="#677796"/>
<path d="M154.827 36.9229V40.3844H153.214V36.9229H154.827Z" fill="#A0B8E6"/>
<path d="M151.347 42.165L147.837 46.1503L157.489 50.1964L157.833 44.6754L151.347 42.165Z" fill="url(#paint25_linear_9579_3761)"/>
<path d="M151.347 42.165L147.837 46.1503L157.489 50.1964L157.833 44.6754L151.347 42.165Z" fill="url(#paint26_linear_9579_3761)"/>
<path d="M153.336 46.5799C156.08 47.7298 157.901 49.6182 157.403 50.7978C156.906 51.9773 154.278 52.0014 151.535 50.8515C148.791 49.7016 146.97 47.8132 147.467 46.6336C147.965 45.454 150.592 45.4299 153.336 46.5799Z" fill="url(#paint27_linear_9579_3761)"/>
<path d="M153.336 46.5799C156.08 47.7298 157.901 49.6182 157.403 50.7978C156.906 51.9773 154.278 52.0014 151.535 50.8515C148.791 49.7016 146.97 47.8132 147.467 46.6336C147.965 45.454 150.592 45.4299 153.336 46.5799Z" fill="url(#paint28_linear_9579_3761)"/>
<path d="M153.055 47.2473C154.939 48.0371 156.19 49.3342 155.848 50.1444C155.507 50.9546 153.702 50.9712 151.817 50.1813C149.933 49.3915 148.682 48.0944 149.024 47.2842C149.365 46.4739 151.17 46.4574 153.055 47.2473Z" fill="url(#paint29_radial_9579_3761)"/>
<path d="M136.922 39.8662V46.4422H135.304V41.4798H129.517V46.4422H127.903V39.8662H136.922Z" fill="#677796"/>
<path d="M136.922 39.8662V46.4422H135.304V41.4798H129.517V46.4422H127.903V39.8662H136.922Z" fill="#A0B8E6"/>
<path d="M133.22 36.9229V40.3844H131.606V36.9229H133.22Z" fill="#677796"/>
<path d="M133.22 36.9229V40.3844H131.606V36.9229H133.22Z" fill="#A0B8E6"/>
<path d="M129.74 42.165L126.23 46.1503L135.881 50.1964L136.225 44.6754L129.74 42.165Z" fill="url(#paint30_linear_9579_3761)"/>
<path d="M129.74 42.165L126.23 46.1503L135.881 50.1964L136.225 44.6754L129.74 42.165Z" fill="url(#paint31_linear_9579_3761)"/>
<path d="M131.729 46.5799C134.473 47.7298 136.294 49.6182 135.796 50.7978C135.299 51.9773 132.671 52.0014 129.927 50.8515C127.184 49.7016 125.363 47.8132 125.86 46.6336C126.357 45.454 128.985 45.4299 131.729 46.5799Z" fill="url(#paint32_linear_9579_3761)"/>
<path d="M131.729 46.5799C134.473 47.7298 136.294 49.6182 135.796 50.7978C135.299 51.9773 132.671 52.0014 129.927 50.8515C127.184 49.7016 125.363 47.8132 125.86 46.6336C126.357 45.454 128.985 45.4299 131.729 46.5799Z" fill="url(#paint33_linear_9579_3761)"/>
<path d="M131.447 47.2473C133.332 48.0371 134.582 49.3342 134.241 50.1444C133.899 50.9546 132.094 50.9712 130.21 50.1813C128.325 49.3915 127.074 48.0944 127.416 47.2842C127.758 46.4739 129.562 46.4574 131.447 47.2473Z" fill="url(#paint34_radial_9579_3761)"/>
<path d="M84.7125 39.8662V46.4422H86.3306V41.4798H92.1179V46.4422H93.7314V39.8662H84.7125Z" fill="#677796"/>
<path d="M84.7125 39.8662V46.4422H86.3306V41.4798H92.1179V46.4422H93.7314V39.8662H84.7125Z" fill="#A0B8E6"/>
<path d="M88.4163 36.9229V40.3844H90.0298V36.9229H88.4163Z" fill="#677796"/>
<path d="M88.4163 36.9229V40.3844H90.0298V36.9229H88.4163Z" fill="#A0B8E6"/>
<path d="M91.8941 42.165L95.404 46.1503L85.7526 50.1964L85.4082 44.6754L91.8941 42.165Z" fill="url(#paint35_linear_9579_3761)"/>
<path d="M91.8941 42.165L95.404 46.1503L85.7526 50.1964L85.4082 44.6754L91.8941 42.165Z" fill="#677796"/>
<path d="M91.8941 42.165L95.404 46.1503L85.7526 50.1964L85.4082 44.6754L91.8941 42.165Z" fill="url(#paint36_linear_9579_3761)"/>
<path d="M89.9058 46.5799C87.162 47.7298 85.3409 49.6182 85.8383 50.7978C86.3357 51.9773 88.9633 52.0014 91.7071 50.8515C94.4509 49.7016 96.2719 47.8132 95.7745 46.6336C95.2771 45.454 92.6496 45.4299 89.9058 46.5799Z" fill="url(#paint37_linear_9579_3761)"/>
<path d="M90.1891 47.2473C88.3045 48.0371 87.0537 49.3342 87.3953 50.1444C87.737 50.9546 89.5418 50.9712 91.4264 50.1813C93.311 49.3915 94.5619 48.0944 94.2202 47.2842C93.8785 46.4739 92.0738 46.4574 90.1891 47.2473Z" fill="url(#paint38_radial_9579_3761)"/>
<path d="M69.2307 25.385C69.2307 29.2085 66.1311 32.3081 62.3076 32.3081C58.4841 32.3081 55.3845 29.2085 55.3845 25.385C55.3845 21.5615 58.4841 18.4619 62.3076 18.4619C66.1311 18.4619 69.2307 21.5615 69.2307 25.385Z" fill="url(#paint39_radial_9579_3761)"/>
<path d="M96.9231 25.385C96.9231 29.2085 93.8235 32.3081 90 32.3081C86.1765 32.3081 83.0769 29.2085 83.0769 25.385C83.0769 21.5615 86.1765 18.4619 90 18.4619C93.8235 18.4619 96.9231 21.5615 96.9231 25.385Z" fill="url(#paint40_radial_9579_3761)"/>
<path d="M124.615 25.385C124.615 29.2085 121.516 32.3081 117.692 32.3081C113.869 32.3081 110.769 29.2085 110.769 25.385C110.769 21.5615 113.869 18.4619 117.692 18.4619C121.516 18.4619 124.615 21.5615 124.615 25.385Z" fill="url(#paint41_radial_9579_3761)"/>
<path d="M152.308 25.385C152.308 29.2085 149.208 32.3081 145.385 32.3081C141.561 32.3081 138.461 29.2085 138.461 25.385C138.461 21.5615 141.561 18.4619 145.385 18.4619C149.208 18.4619 152.308 21.5615 152.308 25.385Z" fill="url(#paint42_radial_9579_3761)"/>
<path d="M180 25.385C180 29.2085 176.9 32.3081 173.077 32.3081C169.253 32.3081 166.154 29.2085 166.154 25.385C166.154 21.5615 169.253 18.4619 173.077 18.4619C176.9 18.4619 180 21.5615 180 25.385Z" fill="url(#paint43_radial_9579_3761)"/>
<path d="M116.053 84.2815C116.053 83.4375 116.683 82.7279 117.523 82.647C118.956 82.5089 121.196 82.3286 123.12 82.3286C125.045 82.3286 127.284 82.5089 128.718 82.647C129.558 82.7279 130.188 83.4375 130.188 84.2815V86.4687C130.188 86.4687 127.601 86.7522 123.12 86.7522C118.64 86.7522 116.053 86.4687 116.053 86.4687V84.2815Z" fill="url(#paint44_linear_9579_3761)"/>
<path d="M116.053 84.2815C116.053 83.4375 116.683 82.7279 117.523 82.647C118.956 82.5089 121.196 82.3286 123.12 82.3286C125.045 82.3286 127.284 82.5089 128.718 82.647C129.558 82.7279 130.188 83.4375 130.188 84.2815V86.4687C130.188 86.4687 127.601 86.7522 123.12 86.7522C118.64 86.7522 116.053 86.4687 116.053 86.4687V84.2815Z" fill="url(#paint45_radial_9579_3761)"/>
<path d="M121.754 66.3911H124.486V83.1782C123.623 83.4157 122.618 83.4157 121.754 83.1782V66.3911Z" fill="url(#paint46_linear_9579_3761)"/>
<path d="M121.754 66.3911H124.486V83.1782C123.623 83.4157 122.618 83.4157 121.754 83.1782V66.3911Z" fill="url(#paint47_radial_9579_3761)"/>
<path d="M118.742 66.4766L120.145 69.1075L113.297 72.3863C113.071 72.4943 112.811 72.3276 112.814 72.0775L112.841 70.211C112.843 70.0945 112.905 69.9871 113.005 69.9271L118.742 66.4766Z" fill="url(#paint48_linear_9579_3761)"/>
<path d="M118.742 66.4766L120.145 69.1075L113.297 72.3863C113.071 72.4943 112.811 72.3276 112.814 72.0775L112.841 70.211C112.843 70.0945 112.905 69.9871 113.005 69.9271L118.742 66.4766Z" fill="url(#paint49_radial_9579_3761)"/>
<path d="M118.742 66.4766L120.145 69.1075L113.297 72.3863C113.071 72.4943 112.811 72.3276 112.814 72.0775L112.841 70.211C112.843 70.0945 112.905 69.9871 113.005 69.9271L118.742 66.4766Z" fill="url(#paint50_radial_9579_3761)"/>
<path d="M125.446 62.2041L127.429 65.9202L118.227 70.3257C117.576 70.6373 116.795 70.381 116.456 69.7444L116.159 69.1874C115.819 68.5508 116.041 67.7596 116.662 67.3926L125.446 62.2041Z" fill="url(#paint51_linear_9579_3761)"/>
<path d="M125.446 62.2041L127.429 65.9202L118.227 70.3257C117.576 70.6373 116.795 70.381 116.456 69.7444L116.159 69.1874C115.819 68.5508 116.041 67.7596 116.662 67.3926L125.446 62.2041Z" fill="url(#paint52_radial_9579_3761)"/>
<path d="M125.446 62.2041L127.429 65.9202L118.227 70.3257C117.576 70.6373 116.795 70.381 116.456 69.7444L116.159 69.1874C115.819 68.5508 116.041 67.7596 116.662 67.3926L125.446 62.2041Z" fill="url(#paint53_radial_9579_3761)"/>
<path d="M130.84 58.4012C131.07 58.2925 131.341 58.3227 131.528 58.4957C131.92 58.8584 132.599 59.562 133.084 60.4719C133.571 61.3852 133.777 62.3448 133.86 62.871C133.898 63.1193 133.776 63.3588 133.562 63.4906L129.082 66.2503C128.944 66.3349 128.781 66.3674 128.622 66.342L127.308 66.1323C127.152 66.1075 127.01 66.029 126.911 65.9067C126.666 65.6066 126.186 64.9851 125.84 64.336C125.498 63.6942 125.251 62.9589 125.136 62.5847C125.087 62.426 125.105 62.2559 125.18 62.1077L125.761 60.9577C125.829 60.8239 125.939 60.7165 126.075 60.6525L130.84 58.4012Z" fill="#487171"/>
<path d="M130.84 58.4012C131.07 58.2925 131.341 58.3227 131.528 58.4957C131.92 58.8584 132.599 59.562 133.084 60.4719C133.571 61.3852 133.777 62.3448 133.86 62.871C133.898 63.1193 133.776 63.3588 133.562 63.4906L129.082 66.2503C128.944 66.3349 128.781 66.3674 128.622 66.342L127.308 66.1323C127.152 66.1075 127.01 66.029 126.911 65.9067C126.666 65.6066 126.186 64.9851 125.84 64.336C125.498 63.6942 125.251 62.9589 125.136 62.5847C125.087 62.426 125.105 62.2559 125.18 62.1077L125.761 60.9577C125.829 60.8239 125.939 60.7165 126.075 60.6525L130.84 58.4012Z" fill="url(#paint54_radial_9579_3761)"/>
<path d="M130.84 58.4012C131.07 58.2925 131.341 58.3227 131.528 58.4957C131.92 58.8584 132.599 59.562 133.084 60.4719C133.571 61.3852 133.777 62.3448 133.86 62.871C133.898 63.1193 133.776 63.3588 133.562 63.4906L129.082 66.2503C128.944 66.3349 128.781 66.3674 128.622 66.342L127.308 66.1323C127.152 66.1075 127.01 66.029 126.911 65.9067C126.666 65.6066 126.186 64.9851 125.84 64.336C125.498 63.6942 125.251 62.9589 125.136 62.5847C125.087 62.426 125.105 62.2559 125.18 62.1077L125.761 60.9577C125.829 60.8239 125.939 60.7165 126.075 60.6525L130.84 58.4012Z" fill="url(#paint55_radial_9579_3761)"/>
<path d="M130.84 58.4012C131.07 58.2925 131.341 58.3227 131.528 58.4957C131.92 58.8584 132.599 59.562 133.084 60.4719C133.571 61.3852 133.777 62.3448 133.86 62.871C133.898 63.1193 133.776 63.3588 133.562 63.4906L129.082 66.2503C128.944 66.3349 128.781 66.3674 128.622 66.342L127.308 66.1323C127.152 66.1075 127.01 66.029 126.911 65.9067C126.666 65.6066 126.186 64.9851 125.84 64.336C125.498 63.6942 125.251 62.9589 125.136 62.5847C125.087 62.426 125.105 62.2559 125.18 62.1077L125.761 60.9577C125.829 60.8239 125.939 60.7165 126.075 60.6525L130.84 58.4012Z" fill="url(#paint56_linear_9579_3761)"/>
<path d="M130.84 58.4012C131.07 58.2925 131.341 58.3227 131.528 58.4957C131.92 58.8584 132.599 59.562 133.084 60.4719C133.571 61.3852 133.777 62.3448 133.86 62.871C133.898 63.1193 133.776 63.3588 133.562 63.4906L129.082 66.2503C128.944 66.3349 128.781 66.3674 128.622 66.342L127.308 66.1323C127.152 66.1075 127.01 66.029 126.911 65.9067C126.666 65.6066 126.186 64.9851 125.84 64.336C125.498 63.6942 125.251 62.9589 125.136 62.5847C125.087 62.426 125.105 62.2559 125.18 62.1077L125.761 60.9577C125.829 60.8239 125.939 60.7165 126.075 60.6525L130.84 58.4012Z" fill="url(#paint57_linear_9579_3761)"/>
<path d="M130.84 58.4012C131.07 58.2925 131.341 58.3227 131.528 58.4957C131.92 58.8584 132.599 59.562 133.084 60.4719C133.571 61.3852 133.777 62.3448 133.86 62.871C133.898 63.1193 133.776 63.3588 133.562 63.4906L129.082 66.2503C128.944 66.3349 128.781 66.3674 128.622 66.342L127.308 66.1323C127.152 66.1075 127.01 66.029 126.911 65.9067C126.666 65.6066 126.186 64.9851 125.84 64.336C125.498 63.6942 125.251 62.9589 125.136 62.5847C125.087 62.426 125.105 62.2559 125.18 62.1077L125.761 60.9577C125.829 60.8239 125.939 60.7165 126.075 60.6525L130.84 58.4012Z" fill="url(#paint58_radial_9579_3761)"/>
<path d="M101.243 99.4898C101.243 108.064 94.2917 115.015 85.7175 115.015C77.1433 115.015 70.1925 108.064 70.1925 99.4898C70.1925 90.9156 77.1433 83.9648 85.7175 83.9648C94.2917 83.9648 101.243 90.9156 101.243 99.4898Z" fill="url(#paint59_radial_9579_3761)"/>
<path d="M143.077 94.6156C143.077 100.988 137.911 106.154 131.538 106.154C125.166 106.154 120 100.988 120 94.6156C120 88.2431 125.166 83.0771 131.538 83.0771C137.911 83.0771 143.077 88.2431 143.077 94.6156Z" fill="url(#paint60_radial_9579_3761)"/>
<path d="M143.077 94.6156C143.077 100.988 137.911 106.154 131.538 106.154C125.166 106.154 120 100.988 120 94.6156C120 88.2431 125.166 83.0771 131.538 83.0771C137.911 83.0771 143.077 88.2431 143.077 94.6156Z" fill="url(#paint61_radial_9579_3761)"/>
<path d="M207.381 99.1378C205.004 95.0209 206.415 89.7566 210.532 87.3797C214.648 85.0028 219.913 86.4134 222.29 90.5303C224.667 94.6472 223.256 99.9115 219.139 102.288C215.022 104.665 209.758 103.255 207.381 99.1378Z" fill="url(#paint62_radial_9579_3761)"/>
<path d="M207.381 99.1378C205.004 95.0209 206.415 89.7566 210.532 87.3797C214.648 85.0028 219.913 86.4134 222.29 90.5303C224.667 94.6472 223.256 99.9115 219.139 102.288C215.022 104.665 209.758 103.255 207.381 99.1378Z" fill="url(#paint63_radial_9579_3761)"/>
<path d="M41.5383 94.6156C41.5383 100.988 36.3724 106.154 29.9999 106.154C23.6274 106.154 18.4614 100.988 18.4614 94.6156C18.4614 88.2431 23.6274 83.0771 29.9999 83.0771C36.3724 83.0771 41.5383 88.2431 41.5383 94.6156Z" fill="url(#paint64_radial_9579_3761)"/>
<path d="M41.5383 94.6156C41.5383 100.988 36.3724 106.154 29.9999 106.154C23.6274 106.154 18.4614 100.988 18.4614 94.6156C18.4614 88.2431 23.6274 83.0771 29.9999 83.0771C36.3724 83.0771 41.5383 88.2431 41.5383 94.6156Z" fill="url(#paint65_radial_9579_3761)"/>
<path d="M209.931 93.4271C209.931 99.1433 205.297 103.777 199.581 103.777C193.865 103.777 189.231 99.1433 189.231 93.4271C189.231 87.711 193.865 83.0771 199.581 83.0771C205.297 83.0771 209.931 87.711 209.931 93.4271Z" fill="url(#paint66_radial_9579_3761)"/>
<path d="M209.931 93.4271C209.931 99.1433 205.297 103.777 199.581 103.777C193.865 103.777 189.231 99.1433 189.231 93.4271C189.231 87.711 193.865 83.0771 199.581 83.0771C205.297 83.0771 209.931 87.711 209.931 93.4271Z" fill="url(#paint67_radial_9579_3761)"/>
<path d="M34.2667 98.3305C34.2667 104.047 38.9006 108.68 44.6167 108.68C50.3329 108.68 54.9667 104.047 54.9667 98.3305C54.9667 92.6143 50.3329 87.9805 44.6167 87.9805C38.9006 87.9805 34.2667 92.6143 34.2667 98.3305Z" fill="url(#paint68_radial_9579_3761)"/>
<path d="M34.2667 98.3305C34.2667 104.047 38.9006 108.68 44.6167 108.68C50.3329 108.68 54.9667 104.047 54.9667 98.3305C54.9667 92.6143 50.3329 87.9805 44.6167 87.9805C38.9006 87.9805 34.2667 92.6143 34.2667 98.3305Z" fill="url(#paint69_radial_9579_3761)"/>
<path d="M195.6 96.0147C195.6 103.16 189.807 108.952 182.662 108.952C175.517 108.952 169.725 103.16 169.725 96.0147C169.725 88.8695 175.517 83.0771 182.662 83.0771C189.807 83.0771 195.6 88.8695 195.6 96.0147Z" fill="url(#paint70_radial_9579_3761)"/>
<path d="M195.6 96.0147C195.6 103.16 189.807 108.952 182.662 108.952C175.517 108.952 169.725 103.16 169.725 96.0147C169.725 88.8695 175.517 83.0771 182.662 83.0771C189.807 83.0771 195.6 88.8695 195.6 96.0147Z" fill="url(#paint71_radial_9579_3761)"/>
<path d="M49.4915 99.4893C49.4915 106.634 55.2838 112.427 62.429 112.427C69.5741 112.427 75.3665 106.634 75.3665 99.4893C75.3665 92.3441 69.5741 86.5518 62.429 86.5518C55.2838 86.5518 49.4915 92.3441 49.4915 99.4893Z" fill="url(#paint72_radial_9579_3761)"/>
<path d="M49.4915 99.4893C49.4915 106.634 55.2838 112.427 62.429 112.427C69.5741 112.427 75.3665 106.634 75.3665 99.4893C75.3665 92.3441 69.5741 86.5518 62.429 86.5518C55.2838 86.5518 49.4915 92.3441 49.4915 99.4893Z" fill="url(#paint73_radial_9579_3761)"/>
<path d="M106.823 98.9059C103.797 103.755 97.4127 105.233 92.5632 102.207C87.7138 99.1811 86.2358 92.7967 89.2619 87.9473C92.288 83.0979 98.6724 81.6198 103.522 84.6459C108.371 87.6721 109.849 94.0565 106.823 98.9059Z" fill="url(#paint74_radial_9579_3761)"/>
<path d="M106.823 98.9059C103.797 103.755 97.4127 105.233 92.5632 102.207C87.7138 99.1811 86.2358 92.7967 89.2619 87.9473C92.288 83.0979 98.6724 81.6198 103.522 84.6459C108.371 87.6721 109.849 94.0565 106.823 98.9059Z" fill="url(#paint75_radial_9579_3761)"/>
<path d="M61.206 109.419C57.9906 103.85 59.8987 96.7289 65.4679 93.5136C71.037 90.2982 78.1582 92.2064 81.3735 97.7755C84.5889 103.345 82.6807 110.466 77.1116 113.681C71.5425 116.896 64.4213 114.988 61.206 109.419Z" fill="url(#paint76_radial_9579_3761)"/>
<path d="M61.206 109.419C57.9906 103.85 59.8987 96.7289 65.4679 93.5136C71.037 90.2982 78.1582 92.2064 81.3735 97.7755C84.5889 103.345 82.6807 110.466 77.1116 113.681C71.5425 116.896 64.4213 114.988 61.206 109.419Z" fill="url(#paint77_radial_9579_3761)"/>
<path d="M153.105 102.036C153.105 107.752 148.471 112.386 142.755 112.386C137.039 112.386 132.405 107.752 132.405 102.036C132.405 96.3199 137.039 91.686 142.755 91.686C148.471 91.686 153.105 96.3199 153.105 102.036Z" fill="url(#paint78_radial_9579_3761)"/>
<path d="M153.105 102.036C153.105 107.752 148.471 112.386 142.755 112.386C137.039 112.386 132.405 107.752 132.405 102.036C132.405 96.3199 137.039 91.686 142.755 91.686C148.471 91.686 153.105 96.3199 153.105 102.036Z" fill="url(#paint79_radial_9579_3761)"/>
<path d="M123.603 103.737C123.603 111.8 117.067 118.335 109.005 118.335C100.943 118.335 94.407 111.8 94.407 103.737C94.407 95.675 100.943 89.1392 109.005 89.1392C117.067 89.1392 123.603 95.675 123.603 103.737Z" fill="url(#paint80_radial_9579_3761)"/>
<path d="M123.603 103.737C123.603 111.8 117.067 118.335 109.005 118.335C100.943 118.335 94.407 111.8 94.407 103.737C94.407 95.675 100.943 89.1392 109.005 89.1392C117.067 89.1392 123.603 95.675 123.603 103.737Z" fill="url(#paint81_radial_9579_3761)"/>
<path d="M178.866 98.6022C178.866 107.176 171.915 114.127 163.341 114.127C154.766 114.127 147.816 107.176 147.816 98.6022C147.816 90.0279 154.766 83.0771 163.341 83.0771C171.915 83.0771 178.866 90.0279 178.866 98.6022Z" fill="url(#paint82_radial_9579_3761)"/>
<path d="M178.866 98.6022C178.866 107.176 171.915 114.127 163.341 114.127C154.766 114.127 147.816 107.176 147.816 98.6022C147.816 90.0279 154.766 83.0771 163.341 83.0771C171.915 83.0771 178.866 90.0279 178.866 98.6022Z" fill="url(#paint83_radial_9579_3761)"/>
<defs>
<radialGradient id="paint0_radial_9579_3761" cx="0" cy="0" r="1" gradientUnits="userSpaceOnUse" gradientTransform="translate(114.85 87.1159) rotate(-90) scale(76.8137 132.57)">
<stop stop-color="#032F4D"/>
<stop offset="1" stop-color="#151DAF"/>
</radialGradient>
<radialGradient id="paint1_radial_9579_3761" cx="0" cy="0" r="1" gradientUnits="userSpaceOnUse" gradientTransform="translate(159.231 103.846) rotate(-67.6938) scale(97.2796 134.697)">
<stop offset="0.75" stop-color="#0099FF" stop-opacity="0"/>
<stop offset="1" stop-color="#0099FF"/>
</radialGradient>
<radialGradient id="paint2_radial_9579_3761" cx="0" cy="0" r="1" gradientUnits="userSpaceOnUse" gradientTransform="translate(66.9231 -16.1539) rotate(60) scale(66.6173 110.631)">
<stop stop-color="#FF3FB6"/>
<stop offset="1" stop-color="#FF3FB6" stop-opacity="0"/>
</radialGradient>
<radialGradient id="paint3_radial_9579_3761" cx="0" cy="0" r="1" gradientUnits="userSpaceOnUse" gradientTransform="translate(253.846 13.8462) rotate(128.928) scale(77.1267 77.1267)">
<stop offset="0.269231" stop-color="#45C7FF"/>
<stop offset="1" stop-color="#45C7FF" stop-opacity="0"/>
</radialGradient>
<radialGradient id="paint4_radial_9579_3761" cx="0" cy="0" r="1" gradientUnits="userSpaceOnUse" gradientTransform="translate(258.462 83.0769) rotate(-152.592) scale(70.1857 281.267)">
<stop offset="0.113076" stop-color="#FF3FB6"/>
<stop offset="1" stop-color="#FF3FB6" stop-opacity="0"/>
</radialGradient>
<radialGradient id="paint5_radial_9579_3761" cx="0" cy="0" r="1" gradientUnits="userSpaceOnUse" gradientTransform="translate(9.23079 78.4615) rotate(-30.9638) scale(40.3681 50.9102)">
<stop stop-color="#151DAF"/>
<stop offset="1" stop-color="#151DAF" stop-opacity="0"/>
</radialGradient>
<radialGradient id="paint6_radial_9579_3761" cx="0" cy="0" r="1" gradientUnits="userSpaceOnUse" gradientTransform="translate(110.116 104.914) rotate(-90) scale(17.2214 249.26)">
<stop stop-color="#A4AD4D"/>
<stop offset="1" stop-color="#053C10"/>
</radialGradient>
<linearGradient id="paint7_linear_9579_3761" x1="110.17" y1="92.3079" x2="110.17" y2="97.7887" gradientUnits="userSpaceOnUse">
<stop stop-color="#A58282"/>
<stop offset="0.342105" stop-color="#3F3131"/>
</linearGradient>
<radialGradient id="paint8_radial_9579_3761" cx="0" cy="0" r="1" gradientUnits="userSpaceOnUse" gradientTransform="translate(124.615 83.0771) scale(53.0769 7.06731)">
<stop stop-color="#FFDAC2"/>
<stop offset="1" stop-color="#FFDAC2" stop-opacity="0"/>
</radialGradient>
<radialGradient id="paint9_radial_9579_3761" cx="0" cy="0" r="1" gradientUnits="userSpaceOnUse" gradientTransform="translate(126.848 94.1988) rotate(-121.289) scale(71.4877 69.0713)">
<stop stop-color="#FFDF74" stop-opacity="0.33"/>
<stop offset="0.833333" stop-color="#FFDF74"/>
</radialGradient>
<radialGradient id="paint10_radial_9579_3761" cx="0" cy="0" r="1" gradientUnits="userSpaceOnUse" gradientTransform="translate(97.7853 94.1937) rotate(-55.9175) scale(73.7077 74.4747)">
<stop stop-color="white" stop-opacity="0.33"/>
<stop offset="0.833333" stop-color="white"/>
</radialGradient>
<radialGradient id="paint11_radial_9579_3761" cx="0" cy="0" r="1" gradientUnits="userSpaceOnUse" gradientTransform="translate(121.548 94.1375) rotate(-61.7091) scale(68.7161 62.4311)">
<stop stop-color="#FFDF74" stop-opacity="0.33"/>
<stop offset="0.833333" stop-color="#FFDF74"/>
</radialGradient>
<linearGradient id="paint12_linear_9579_3761" x1="66.9222" y1="23.0767" x2="66.9222" y2="85.9567" gradientUnits="userSpaceOnUse">
<stop stop-color="#C6D9FF"/>
<stop offset="1" stop-color="#95B9FF"/>
</linearGradient>
<linearGradient id="paint13_linear_9579_3761" x1="66.9228" y1="23.0767" x2="66.9228" y2="85.9567" gradientUnits="userSpaceOnUse">
<stop stop-color="#C6D9FF"/>
<stop offset="1" stop-color="#95B9FF"/>
</linearGradient>
<linearGradient id="paint14_linear_9579_3761" x1="66.9225" y1="23.0768" x2="66.9225" y2="87.6922" gradientUnits="userSpaceOnUse">
<stop stop-color="#C6D9FF"/>
<stop offset="1" stop-color="#95B9FF"/>
</linearGradient>
<linearGradient id="paint15_linear_9579_3761" x1="173.076" y1="23.0767" x2="173.076" y2="85.9567" gradientUnits="userSpaceOnUse">
<stop stop-color="#C6D9FF"/>
<stop offset="1" stop-color="#95B9FF"/>
</linearGradient>
<linearGradient id="paint16_linear_9579_3761" x1="173.077" y1="23.0767" x2="173.077" y2="85.9567" gradientUnits="userSpaceOnUse">
<stop stop-color="#C6D9FF"/>
<stop offset="1" stop-color="#95B9FF"/>
</linearGradient>
<linearGradient id="paint17_linear_9579_3761" x1="173.076" y1="23.0768" x2="173.076" y2="87.6922" gradientUnits="userSpaceOnUse">
<stop stop-color="#C6D9FF"/>
<stop offset="1" stop-color="#95B9FF"/>
</linearGradient>
<linearGradient id="paint18_linear_9579_3761" x1="165.552" y1="26.1922" x2="-142.14" y2="26.1913" gradientUnits="userSpaceOnUse">
<stop stop-color="#C6D9FF"/>
<stop offset="1" stop-color="#95B9FF"/>
</linearGradient>
<linearGradient id="paint19_linear_9579_3761" x1="165.552" y1="33.8076" x2="-142.14" y2="33.8085" gradientUnits="userSpaceOnUse">
<stop stop-color="#C6D9FF"/>
<stop offset="1" stop-color="#95B9FF"/>
</linearGradient>
<linearGradient id="paint20_linear_9579_3761" x1="145.385" y1="23.0768" x2="145.385" y2="69.2307" gradientUnits="userSpaceOnUse">
<stop stop-color="#C6D9FF"/>
<stop offset="1" stop-color="#95B9FF"/>
</linearGradient>
<linearGradient id="paint21_linear_9579_3761" x1="109.968" y1="42.6201" x2="109.968" y2="53.3653" gradientUnits="userSpaceOnUse">
<stop stop-color="#A9B7D3"/>
<stop offset="1" stop-color="#697998"/>
</linearGradient>
<linearGradient id="paint22_linear_9579_3761" x1="109.968" y1="42.6201" x2="109.968" y2="53.3653" gradientUnits="userSpaceOnUse">
<stop stop-color="#ABB6CA"/>
<stop offset="1" stop-color="#E3E3E3"/>
</linearGradient>
<linearGradient id="paint23_linear_9579_3761" x1="115.357" y1="47.9927" x2="104.578" y2="47.9927" gradientUnits="userSpaceOnUse">
<stop stop-color="#A0B8E6"/>
<stop offset="1" stop-color="#6E9DF6"/>
</linearGradient>
<linearGradient id="paint24_linear_9579_3761" x1="109.968" y1="44.3013" x2="109.968" y2="51.6818" gradientUnits="userSpaceOnUse">
<stop stop-color="white" stop-opacity="0.55"/>
<stop offset="1" stop-color="#848484"/>
</linearGradient>
<linearGradient id="paint25_linear_9579_3761" x1="153.343" y1="42.0025" x2="152.815" y2="44.1222" gradientUnits="userSpaceOnUse">
<stop stop-color="#A2B0CC"/>
<stop offset="1" stop-color="#6F7F9D"/>
</linearGradient>
<linearGradient id="paint26_linear_9579_3761" x1="154.692" y1="43.3596" x2="152.673" y2="48.1787" gradientUnits="userSpaceOnUse">
<stop stop-color="#A0B8E6"/>
<stop offset="1" stop-color="#6E9DF6"/>
</linearGradient>
<linearGradient id="paint27_linear_9579_3761" x1="147.468" y1="46.6338" x2="157.395" y2="50.82" gradientUnits="userSpaceOnUse">
<stop stop-color="#A9B7D3"/>
<stop offset="1" stop-color="#697998"/>
</linearGradient>
<linearGradient id="paint28_linear_9579_3761" x1="147.468" y1="46.6338" x2="157.395" y2="50.82" gradientUnits="userSpaceOnUse">
<stop stop-color="#ABB6CA"/>
<stop offset="1" stop-color="#E3E3E3"/>
</linearGradient>
<radialGradient id="paint29_radial_9579_3761" cx="0" cy="0" r="1" gradientUnits="userSpaceOnUse" gradientTransform="translate(152.436 48.7143) rotate(22.7382) scale(4.59141 1.9757)">
<stop offset="0.341989" stop-color="#F0DEA8"/>
<stop offset="1" stop-color="#FDC316"/>
</radialGradient>
<linearGradient id="paint30_linear_9579_3761" x1="131.736" y1="42.0025" x2="131.209" y2="44.1222" gradientUnits="userSpaceOnUse">
<stop stop-color="#A2B0CC"/>
<stop offset="1" stop-color="#6F7F9D"/>
</linearGradient>
<linearGradient id="paint31_linear_9579_3761" x1="133.086" y1="43.3596" x2="131.066" y2="48.1787" gradientUnits="userSpaceOnUse">
<stop stop-color="#A0B8E6"/>
<stop offset="1" stop-color="#6E9DF6"/>
</linearGradient>
<linearGradient id="paint32_linear_9579_3761" x1="125.861" y1="46.6338" x2="135.788" y2="50.82" gradientUnits="userSpaceOnUse">
<stop stop-color="#A9B7D3"/>
<stop offset="1" stop-color="#697998"/>
</linearGradient>
<linearGradient id="paint33_linear_9579_3761" x1="125.861" y1="46.6338" x2="135.788" y2="50.82" gradientUnits="userSpaceOnUse">
<stop stop-color="#ABB6CA"/>
<stop offset="1" stop-color="#E3E3E3"/>
</linearGradient>
<radialGradient id="paint34_radial_9579_3761" cx="0" cy="0" r="1" gradientUnits="userSpaceOnUse" gradientTransform="translate(130.827 48.7143) rotate(22.7382) scale(4.59141 1.9757)">
<stop offset="0.341989" stop-color="#F0DEA8"/>
<stop offset="1" stop-color="#FDC316"/>
</radialGradient>
<linearGradient id="paint35_linear_9579_3761" x1="89.8976" y1="42.0025" x2="90.4248" y2="44.1222" gradientUnits="userSpaceOnUse">
<stop stop-color="#A2B0CC"/>
<stop offset="1" stop-color="#6F7F9D"/>
</linearGradient>
<linearGradient id="paint36_linear_9579_3761" x1="88.5479" y1="43.3596" x2="90.5675" y2="48.1787" gradientUnits="userSpaceOnUse">
<stop stop-color="#A0B8E6"/>
<stop offset="1" stop-color="#6E9DF6"/>
</linearGradient>
<linearGradient id="paint37_linear_9579_3761" x1="95.7745" y1="46.6338" x2="85.8476" y2="50.82" gradientUnits="userSpaceOnUse">
<stop stop-color="#ABB6CA"/>
<stop offset="1" stop-color="#E3E3E3"/>
</linearGradient>
<radialGradient id="paint38_radial_9579_3761" cx="0" cy="0" r="1" gradientUnits="userSpaceOnUse" gradientTransform="translate(90.808 48.7143) rotate(157.262) scale(4.59141 1.9757)">
<stop offset="0.341989" stop-color="#F0DEA8"/>
<stop offset="1" stop-color="#FDC316"/>
</radialGradient>
<radialGradient id="paint39_radial_9579_3761" cx="0" cy="0" r="1" gradientUnits="userSpaceOnUse" gradientTransform="translate(62.3076 25.385) rotate(90) scale(6.92308)">
<stop offset="0.365385" stop-color="#FFD638"/>
<stop offset="0.682692" stop-color="#FFF2BE" stop-opacity="0.77"/>
<stop offset="1" stop-color="#FFF2BE" stop-opacity="0"/>
</radialGradient>
<radialGradient id="paint40_radial_9579_3761" cx="0" cy="0" r="1" gradientUnits="userSpaceOnUse" gradientTransform="translate(90 25.385) rotate(90) scale(6.92308)">
<stop offset="0.365385" stop-color="#FFD638"/>
<stop offset="0.682692" stop-color="#FFF2BE" stop-opacity="0.77"/>
<stop offset="1" stop-color="#FFF2BE" stop-opacity="0"/>
</radialGradient>
<radialGradient id="paint41_radial_9579_3761" cx="0" cy="0" r="1" gradientUnits="userSpaceOnUse" gradientTransform="translate(117.692 25.385) rotate(90) scale(6.92308)">
<stop offset="0.365385" stop-color="#FFD638"/>
<stop offset="0.682692" stop-color="#FFF2BE" stop-opacity="0.77"/>
<stop offset="1" stop-color="#FFF2BE" stop-opacity="0"/>
</radialGradient>
<radialGradient id="paint42_radial_9579_3761" cx="0" cy="0" r="1" gradientUnits="userSpaceOnUse" gradientTransform="translate(145.385 25.385) rotate(90) scale(6.92308)">
<stop offset="0.365385" stop-color="#FFD638"/>
<stop offset="0.682692" stop-color="#FFF2BE" stop-opacity="0.77"/>
<stop offset="1" stop-color="#FFF2BE" stop-opacity="0"/>
</radialGradient>
<radialGradient id="paint43_radial_9579_3761" cx="0" cy="0" r="1" gradientUnits="userSpaceOnUse" gradientTransform="translate(173.077 25.385) rotate(90) scale(6.92308)">
<stop offset="0.365385" stop-color="#FFD638"/>
<stop offset="0.682692" stop-color="#FFF2BE" stop-opacity="0.77"/>
<stop offset="1" stop-color="#FFF2BE" stop-opacity="0"/>
</radialGradient>
<linearGradient id="paint44_linear_9579_3761" x1="111.976" y1="84.2877" x2="126.394" y2="73.0657" gradientUnits="userSpaceOnUse">
<stop stop-color="#091813"/>
<stop offset="0.772185" stop-color="#345959"/>
</linearGradient>
<radialGradient id="paint45_radial_9579_3761" cx="0" cy="0" r="1" gradientUnits="userSpaceOnUse" gradientTransform="translate(125.799 82.8023) rotate(-179.678) scale(13.6242 2.47387)">
<stop offset="0.140512" stop-color="#93BDB5"/>
<stop offset="0.914501" stop-color="#1E3532" stop-opacity="0"/>
</radialGradient>
<linearGradient id="paint46_linear_9579_3761" x1="120.967" y1="73.1922" x2="125.436" y2="73.0454" gradientUnits="userSpaceOnUse">
<stop stop-color="#091813"/>
<stop offset="0.772185" stop-color="#345959"/>
</linearGradient>
<radialGradient id="paint47_radial_9579_3761" cx="0" cy="0" r="1" gradientUnits="userSpaceOnUse" gradientTransform="translate(123.638 66.3911) rotate(90) scale(25.0657 0.847179)">
<stop stop-color="#93BDB5"/>
<stop offset="1" stop-color="#1E3532" stop-opacity="0"/>
</radialGradient>
<linearGradient id="paint48_linear_9579_3761" x1="115.431" y1="67.2678" x2="118.035" y2="71.3842" gradientUnits="userSpaceOnUse">
<stop stop-color="#091813"/>
<stop offset="0.772185" stop-color="#345959"/>
</linearGradient>
<radialGradient id="paint49_radial_9579_3761" cx="0" cy="0" r="1" gradientUnits="userSpaceOnUse" gradientTransform="translate(119.709 68.2905) rotate(151.924) scale(12.1375 0.924653)">
<stop stop-color="#93BDB5"/>
<stop offset="1" stop-color="#1E3532" stop-opacity="0"/>
</radialGradient>
<radialGradient id="paint50_radial_9579_3761" cx="0" cy="0" r="1" gradientUnits="userSpaceOnUse" gradientTransform="translate(116.107 69.5717) rotate(-118.076) scale(2.23944 0.903642)">
<stop offset="0.293499" stop-color="#0D1915"/>
<stop offset="1" stop-color="#0D1915" stop-opacity="0"/>
</radialGradient>
<linearGradient id="paint51_linear_9579_3761" x1="120.771" y1="63.3217" x2="124.448" y2="69.136" gradientUnits="userSpaceOnUse">
<stop stop-color="#091813"/>
<stop offset="0.772185" stop-color="#345959"/>
</linearGradient>
<radialGradient id="paint52_radial_9579_3761" cx="0" cy="0" r="1" gradientUnits="userSpaceOnUse" gradientTransform="translate(126.813 64.7663) rotate(151.924) scale(17.1437 1.30604)">
<stop stop-color="#93BDB5"/>
<stop offset="1" stop-color="#1E3532" stop-opacity="0"/>
</radialGradient>
<radialGradient id="paint53_radial_9579_3761" cx="0" cy="0" r="1" gradientUnits="userSpaceOnUse" gradientTransform="translate(126.437 64.0621) rotate(-118.076) scale(3.06304 1.23598)">
<stop offset="0.293499" stop-color="#0D1915"/>
<stop offset="1" stop-color="#0D1915" stop-opacity="0"/>
</radialGradient>
<radialGradient id="paint54_radial_9579_3761" cx="0" cy="0" r="1" gradientUnits="userSpaceOnUse" gradientTransform="translate(126.719 61.2845) rotate(152.11) scale(14.1233 9.48872)">
<stop offset="0.0903226" stop-color="#091813"/>
<stop offset="1" stop-color="#487171" stop-opacity="0"/>
</radialGradient>
<radialGradient id="paint55_radial_9579_3761" cx="0" cy="0" r="1" gradientUnits="userSpaceOnUse" gradientTransform="translate(130.394 61.6657) rotate(-118.076) scale(6.72528 4.63241)">
<stop offset="0.763441" stop-color="#0D1915" stop-opacity="0"/>
<stop offset="0.96875" stop-color="#0D1915"/>
</radialGradient>
<linearGradient id="paint56_linear_9579_3761" x1="130.853" y1="63.4758" x2="131.783" y2="64.9556" gradientUnits="userSpaceOnUse">
<stop offset="0.598" stop-color="#78928D" stop-opacity="0"/>
<stop offset="0.860024" stop-color="#78928D"/>
</linearGradient>
<linearGradient id="paint57_linear_9579_3761" x1="128.066" y1="65.1189" x2="127.833" y2="66.4245" gradientUnits="userSpaceOnUse">
<stop offset="0.598" stop-color="#78928D" stop-opacity="0"/>
<stop offset="0.860024" stop-color="#78928D"/>
</linearGradient>
<radialGradient id="paint58_radial_9579_3761" cx="0" cy="0" r="1" gradientUnits="userSpaceOnUse" gradientTransform="translate(129.124 62.6292) rotate(-118.076) scale(7.16139 4.9328)">
<stop offset="0.791667" stop-color="#78928D" stop-opacity="0"/>
<stop offset="0.919872" stop-color="#78928D"/>
</radialGradient>
<radialGradient id="paint59_radial_9579_3761" cx="0" cy="0" r="1" gradientUnits="userSpaceOnUse" gradientTransform="translate(76.4025 90.1748) rotate(60.9454) scale(31.9679)">
<stop stop-color="#FFA748"/>
<stop offset="0.398462" stop-color="#FF570F"/>
<stop offset="1" stop-color="#FF76C6"/>
</radialGradient>
<radialGradient id="paint60_radial_9579_3761" cx="0" cy="0" r="1" gradientUnits="userSpaceOnUse" gradientTransform="translate(124.615 87.6925) rotate(59.7436) scale(21.373)">
<stop stop-color="#FDBED4" stop-opacity="0"/>
<stop offset="0.436366" stop-color="#FFF75E"/>
<stop offset="1" stop-color="#FFF75E"/>
</radialGradient>
<radialGradient id="paint61_radial_9579_3761" cx="0" cy="0" r="1" gradientUnits="userSpaceOnUse" gradientTransform="translate(124.615 87.6925) rotate(59.7436) scale(21.373)">
<stop stop-color="#FF3B3E"/>
<stop offset="0.471154" stop-color="#FF9294"/>
<stop offset="1" stop-color="#FF9092" stop-opacity="0"/>
</radialGradient>
<radialGradient id="paint62_radial_9579_3761" cx="0" cy="0" r="1" gradientUnits="userSpaceOnUse" gradientTransform="translate(221.89 96.7242) rotate(-150.256) scale(15.944)">
<stop stop-color="#FDBED4" stop-opacity="0"/>
<stop offset="0.436366" stop-color="#FFF75E"/>
<stop offset="1" stop-color="#FFF75E"/>
</radialGradient>
<radialGradient id="paint63_radial_9579_3761" cx="0" cy="0" r="1" gradientUnits="userSpaceOnUse" gradientTransform="translate(221.89 96.7242) rotate(-150.256) scale(15.944)">
<stop stop-color="#FF9294"/>
<stop offset="0.471154" stop-color="#FF9294" stop-opacity="0.716346"/>
<stop offset="1" stop-color="#FF9092" stop-opacity="0"/>
</radialGradient>
<radialGradient id="paint64_radial_9579_3761" cx="0" cy="0" r="1" gradientUnits="userSpaceOnUse" gradientTransform="translate(23.0768 87.6925) rotate(59.7436) scale(21.373)">
<stop stop-color="#FDBED4" stop-opacity="0"/>
<stop offset="0.436366" stop-color="#FFF75E"/>
<stop offset="1" stop-color="#FFF75E"/>
</radialGradient>
<radialGradient id="paint65_radial_9579_3761" cx="0" cy="0" r="1" gradientUnits="userSpaceOnUse" gradientTransform="translate(23.0768 87.6925) rotate(59.7436) scale(21.373)">
<stop stop-color="#FF3B3E"/>
<stop offset="0.471154" stop-color="#FF9294"/>
<stop offset="1" stop-color="#FF9092" stop-opacity="0"/>
</radialGradient>
<radialGradient id="paint66_radial_9579_3761" cx="0" cy="0" r="1" gradientUnits="userSpaceOnUse" gradientTransform="translate(193.371 87.2171) rotate(60.9454) scale(21.312)">
<stop stop-color="#B3E0FF"/>
<stop offset="0.658654" stop-color="#C8DCFA" stop-opacity="0.716346"/>
<stop offset="1" stop-color="#FED3EC" stop-opacity="0"/>
</radialGradient>
<radialGradient id="paint67_radial_9579_3761" cx="0" cy="0" r="1" gradientUnits="userSpaceOnUse" gradientTransform="translate(193.371 87.2171) rotate(59.7436) scale(19.1716)">
<stop offset="0.25" stop-color="#4ACFFF"/>
<stop offset="1" stop-color="#FD2DA6"/>
</radialGradient>
<radialGradient id="paint68_radial_9579_3761" cx="0" cy="0" r="1" gradientUnits="userSpaceOnUse" gradientTransform="translate(50.8261 92.1205) rotate(119.055) scale(21.312)">
<stop stop-color="#FED3EC" stop-opacity="0"/>
<stop offset="0.341346" stop-color="#C8DCFA"/>
<stop offset="0.923316" stop-color="#FF6DF3"/>
</radialGradient>
<radialGradient id="paint69_radial_9579_3761" cx="0" cy="0" r="1" gradientUnits="userSpaceOnUse" gradientTransform="translate(50.8261 92.1205) rotate(120.256) scale(19.1716)">
<stop stop-color="#54EEBE"/>
<stop offset="0.563634" stop-color="#ADE7B0"/>
<stop offset="1" stop-color="#FAFED3" stop-opacity="0"/>
</radialGradient>
<radialGradient id="paint70_radial_9579_3761" cx="0" cy="0" r="1" gradientUnits="userSpaceOnUse" gradientTransform="translate(174.9 88.2521) rotate(60.9454) scale(26.6399)">
<stop stop-color="#FED3EC" stop-opacity="0"/>
<stop offset="0.341346" stop-color="#C8DCFA"/>
<stop offset="0.923316" stop-color="#FF6DF3"/>
</radialGradient>
<radialGradient id="paint71_radial_9579_3761" cx="0" cy="0" r="1" gradientUnits="userSpaceOnUse" gradientTransform="translate(174.9 88.2521) rotate(59.7436) scale(23.9645)">
<stop stop-color="#54EEBE"/>
<stop offset="0.563634" stop-color="#ADE7B0"/>
<stop offset="1" stop-color="#FAFED3" stop-opacity="0"/>
</radialGradient>
<radialGradient id="paint72_radial_9579_3761" cx="0" cy="0" r="1" gradientUnits="userSpaceOnUse" gradientTransform="translate(70.1912 91.7268) rotate(120.256) scale(23.9645)">
<stop stop-color="#FED3EC" stop-opacity="0"/>
<stop offset="0.436366" stop-color="#CB9EFF"/>
<stop offset="1" stop-color="#FF6DF3"/>
</radialGradient>
<radialGradient id="paint73_radial_9579_3761" cx="0" cy="0" r="1" gradientUnits="userSpaceOnUse" gradientTransform="translate(70.1912 91.7268) rotate(120.256) scale(23.9645)">
<stop stop-color="#F761FF"/>
<stop offset="0.563634" stop-color="#F286F3"/>
<stop offset="1" stop-color="#FED3EC" stop-opacity="0"/>
</radialGradient>
<radialGradient id="paint74_radial_9579_3761" cx="0" cy="0" r="1" gradientUnits="userSpaceOnUse" gradientTransform="translate(96.061 84.8714) rotate(91.7086) scale(19.1716)">
<stop stop-color="#FDBED4" stop-opacity="0"/>
<stop offset="0.436366" stop-color="#FFF75E"/>
<stop offset="1" stop-color="#FFF75E"/>
</radialGradient>
<radialGradient id="paint75_radial_9579_3761" cx="0" cy="0" r="1" gradientUnits="userSpaceOnUse" gradientTransform="translate(96.061 84.8714) rotate(91.7086) scale(19.1716)">
<stop offset="0.0576923" stop-color="#F56BFC"/>
<stop offset="0.722737" stop-color="#FFE092"/>
<stop offset="1" stop-color="#FF9092" stop-opacity="0"/>
</radialGradient>
<radialGradient id="paint76_radial_9579_3761" cx="0" cy="0" r="1" gradientUnits="userSpaceOnUse" gradientTransform="translate(80.8332 106.155) rotate(-150.256) scale(21.568)">
<stop stop-color="#FDBED4" stop-opacity="0"/>
<stop offset="0.436366" stop-color="#FFF75E"/>
<stop offset="1" stop-color="#FFF75E"/>
</radialGradient>
<radialGradient id="paint77_radial_9579_3761" cx="0" cy="0" r="1" gradientUnits="userSpaceOnUse" gradientTransform="translate(80.8332 106.155) rotate(-150.256) scale(21.568)">
<stop stop-color="#FF9294"/>
<stop offset="0.471154" stop-color="#FF9294" stop-opacity="0.716346"/>
<stop offset="1" stop-color="#FF9092" stop-opacity="0"/>
</radialGradient>
<radialGradient id="paint78_radial_9579_3761" cx="0" cy="0" r="1" gradientUnits="userSpaceOnUse" gradientTransform="translate(136.545 95.826) rotate(60.9454) scale(21.312)">
<stop stop-color="#B3E0FF"/>
<stop offset="0.658654" stop-color="#C8DCFA" stop-opacity="0.716346"/>
<stop offset="1" stop-color="#FED3EC" stop-opacity="0"/>
</radialGradient>
<radialGradient id="paint79_radial_9579_3761" cx="0" cy="0" r="1" gradientUnits="userSpaceOnUse" gradientTransform="translate(136.545 95.826) rotate(59.7436) scale(19.1716)">
<stop offset="0.25" stop-color="#4ACFFF"/>
<stop offset="1" stop-color="#FD2DA6"/>
</radialGradient>
<radialGradient id="paint80_radial_9579_3761" cx="0" cy="0" r="1" gradientUnits="userSpaceOnUse" gradientTransform="translate(100.246 94.9784) rotate(60.9454) scale(30.0594)">
<stop stop-color="#FED3EC" stop-opacity="0"/>
<stop offset="0.341346" stop-color="#93FFDF"/>
<stop offset="1" stop-color="#02BAB7"/>
</radialGradient>
<radialGradient id="paint81_radial_9579_3761" cx="0" cy="0" r="1" gradientUnits="userSpaceOnUse" gradientTransform="translate(100.246 94.9784) rotate(59.7436) scale(27.0405)">
<stop stop-color="#54EEBE"/>
<stop offset="0.563634" stop-color="#ADE7B0"/>
<stop offset="1" stop-color="#FAFED3" stop-opacity="0"/>
</radialGradient>
<radialGradient id="paint82_radial_9579_3761" cx="0" cy="0" r="1" gradientUnits="userSpaceOnUse" gradientTransform="translate(154.026 89.2871) rotate(59.7436) scale(28.7574)">
<stop stop-color="#FED3EC" stop-opacity="0"/>
<stop offset="0.436366" stop-color="#CB9EFF"/>
<stop offset="1" stop-color="#FF6DF3"/>
</radialGradient>
<radialGradient id="paint83_radial_9579_3761" cx="0" cy="0" r="1" gradientUnits="userSpaceOnUse" gradientTransform="translate(154.026 89.2871) rotate(59.7436) scale(28.7574)">
<stop stop-color="#F761FF"/>
<stop offset="0.563634" stop-color="#F286F3"/>
<stop offset="1" stop-color="#FED3EC" stop-opacity="0"/>
</radialGradient>
</defs>
</svg>
