<svg viewBox="0 0 240 120" fill="none" xmlns="http://www.w3.org/2000/svg">
<path d="M188.72 62.6501L185.264 71.9651L194.382 101.154C195.181 103.846 192.49 105.676 190.334 104.375L163.424 88.4841L154.363 91.2006L179.513 104.633C185.06 107.968 189.914 112.009 194.382 116.547L209.57 113.969C209.57 113.969 199.828 99.4552 196.982 90.722L188.72 62.6501Z" fill="url(#paint0_linear_9471_31585)"/>
<path d="M188.72 62.6501L185.264 71.9651L194.382 101.154C195.181 103.846 192.49 105.676 190.334 104.375L163.424 88.4841L154.363 91.2006L179.513 104.633C185.06 107.968 189.914 112.009 194.382 116.547L209.57 113.969C209.57 113.969 199.828 99.4552 196.982 90.722L188.72 62.6501Z" fill="url(#paint1_radial_9471_31585)"/>
<path d="M188.72 62.6501L185.264 71.9651L194.382 101.154C195.181 103.846 192.49 105.676 190.334 104.375L163.424 88.4841L154.363 91.2006L179.513 104.633C185.06 107.968 189.914 112.009 194.382 116.547L209.57 113.969C209.57 113.969 199.828 99.4552 196.982 90.722L188.72 62.6501Z" fill="url(#paint2_radial_9471_31585)"/>
<path fill-rule="evenodd" clip-rule="evenodd" d="M172.283 24.4159L174.787 25.2812L171.222 35.1045L182.271 33.8025L182.543 36.422L183.414 36.7226L180.102 45.8566L186.04 45.1568L186.42 48.8117L178.701 49.7212L175.539 58.4442L187.105 57.0708L187.488 60.7253L174.137 62.3105L170.83 71.4334L185.987 69.7106L186.38 73.3638L169.431 75.2902L163.893 90.567L160.414 89.3659L165.349 75.7542L156.091 76.8063L151.672 88.9868L148.193 87.7848L152.008 77.2704L142.701 78.3283L140.401 84.667L136.922 83.4649L138.618 78.7923L130.733 79.6885L130.472 77.2672L129.87 78.9465L126.387 77.7572L130.05 67.5452L121.007 68.6189L120.65 65.2126L118.333 64.4204L121.177 56.5L116.994 56.993L116.614 53.3382L122.565 52.6369L125.602 44.1801L113.224 45.6387L112.845 41.9839L126.989 40.317L130.211 31.3468L119.862 32.6041L119.469 28.9509L131.6 27.4771L136.217 14.6236L139.699 15.8141L135.689 26.9803L145.008 25.8482L149.272 13.9634L152.755 15.1527L149.096 25.3516L158.419 24.219L160.037 19.7592L163.516 20.9613L162.514 23.7214L172.083 22.559L172.283 24.4159ZM130.939 75.9672L140.017 74.9354L143.268 65.9758L134.134 67.0604L130.939 75.9672ZM144.1 74.4713L153.408 73.4135L156.684 64.3828L147.359 65.4901L144.1 74.4713ZM157.491 72.9494L166.747 71.8974L170.047 62.7962L160.775 63.897L157.491 72.9494ZM170.445 26.459L167.133 35.5864L157.811 36.685L161.109 27.5931L170.445 26.459ZM165.73 39.4512L156.408 40.5498L153.338 49.0105L162.661 47.9119L165.73 39.4512ZM157.014 28.0906L153.721 37.1669L144.466 38.2575L147.708 29.2212L157.014 28.0906ZM152.319 41.0317L143.081 42.1203L140.047 50.5768L149.249 49.4924L152.319 41.0317ZM143.62 29.7178L140.384 38.7386L131.072 39.8359L134.299 30.8501L143.62 29.7178ZM138.998 42.6014L129.685 43.6989L126.648 52.1558L135.965 51.0579L138.998 42.6014ZM179.081 37.878L169.82 38.9693L166.75 47.43L176.013 46.3384L179.081 37.878ZM125.261 56.0188L122.111 64.788L131.436 63.6808L134.579 54.9207L125.261 56.0188ZM138.661 54.4396L135.52 63.1959L144.671 62.1094L147.846 53.3572L138.661 54.4396ZM151.936 52.8753L148.762 61.6236L158.087 60.5163L161.258 51.7767L151.936 52.8753ZM165.348 51.2948L162.178 60.0306L171.448 58.9299L174.612 50.2031L165.348 51.2948Z" fill="url(#paint3_radial_9471_31585)"/>
<path fill-rule="evenodd" clip-rule="evenodd" d="M156.492 19.9755C147.353 15.8515 137.301 15.7706 127.928 23.2487C118.359 30.8834 116.094 40.6516 118.125 50.371C120.189 60.2534 126.695 69.7396 134.125 75.661C141.71 81.7057 149.851 85.5321 157.288 86.7978C164.726 88.0636 171.105 86.7365 175.781 83.0093C181.074 78.7905 183.682 72.3319 183.842 64.5298C184.002 56.7215 181.669 47.9988 177.589 40.0806C173.608 32.357 165.757 24.156 156.492 19.9755ZM159.963 13.7504C170.597 18.5489 179.374 27.7578 183.895 36.5307C188.316 45.1091 191.006 54.836 190.819 63.9386C190.632 73.0474 187.524 81.961 179.842 88.0841C172.904 93.6138 164.135 94.9879 155.387 93.4991C146.638 92.0102 137.555 87.6261 129.372 81.1045C121.034 74.4595 113.67 63.8417 111.279 52.396C108.854 40.7875 111.548 28.0038 123.864 18.1765C136.083 8.42786 149.202 8.89522 159.963 13.7504Z" fill="url(#paint4_linear_9471_31585)"/>
<path fill-rule="evenodd" clip-rule="evenodd" d="M156.492 19.9755C147.353 15.8515 137.301 15.7706 127.928 23.2487C118.359 30.8834 116.094 40.6516 118.125 50.371C120.189 60.2534 126.695 69.7396 134.125 75.661C141.71 81.7057 149.851 85.5321 157.288 86.7978C164.726 88.0636 171.105 86.7365 175.781 83.0093C181.074 78.7905 183.682 72.3319 183.842 64.5298C184.002 56.7215 181.669 47.9988 177.589 40.0806C173.608 32.357 165.757 24.156 156.492 19.9755ZM159.963 13.7504C170.597 18.5489 179.374 27.7578 183.895 36.5307C188.316 45.1091 191.006 54.836 190.819 63.9386C190.632 73.0474 187.524 81.961 179.842 88.0841C172.904 93.6138 164.135 94.9879 155.387 93.4991C146.638 92.0102 137.555 87.6261 129.372 81.1045C121.034 74.4595 113.67 63.8417 111.279 52.396C108.854 40.7875 111.548 28.0038 123.864 18.1765C136.083 8.42786 149.202 8.89522 159.963 13.7504Z" fill="url(#paint5_radial_9471_31585)"/>
<path fill-rule="evenodd" clip-rule="evenodd" d="M156.492 19.9755C147.353 15.8515 137.301 15.7706 127.928 23.2487C118.359 30.8834 116.094 40.6516 118.125 50.371C120.189 60.2534 126.695 69.7396 134.125 75.661C141.71 81.7057 149.851 85.5321 157.288 86.7978C164.726 88.0636 171.105 86.7365 175.781 83.0093C181.074 78.7905 183.682 72.3319 183.842 64.5298C184.002 56.7215 181.669 47.9988 177.589 40.0806C173.608 32.357 165.757 24.156 156.492 19.9755ZM159.963 13.7504C170.597 18.5489 179.374 27.7578 183.895 36.5307C188.316 45.1091 191.006 54.836 190.819 63.9386C190.632 73.0474 187.524 81.961 179.842 88.0841C172.904 93.6138 164.135 94.9879 155.387 93.4991C146.638 92.0102 137.555 87.6261 129.372 81.1045C121.034 74.4595 113.67 63.8417 111.279 52.396C108.854 40.7875 111.548 28.0038 123.864 18.1765C136.083 8.42786 149.202 8.89522 159.963 13.7504Z" fill="url(#paint6_radial_9471_31585)"/>
<path d="M215.431 120H196.624L191.692 113.82L203.163 104.639L215.431 120Z" fill="#AF9DC2"/>
<path d="M215.431 120H196.624L191.692 113.82L203.163 104.639L215.431 120Z" fill="url(#paint7_linear_9471_31585)"/>
<path d="M81.9254 54.2307C104.73 54.2313 123.216 72.7162 123.216 95.5213C123.216 104.686 120.227 113.15 115.175 120H48.6712C43.6203 113.15 40.6304 104.685 40.6304 95.5213C40.6306 72.7159 59.12 54.2307 81.9254 54.2307Z" fill="url(#paint8_radial_9471_31585)"/>
<path d="M81.9254 54.2307C104.73 54.2313 123.216 72.7162 123.216 95.5213C123.216 104.686 120.227 113.15 115.175 120H48.6712C43.6203 113.15 40.6304 104.685 40.6304 95.5213C40.6306 72.7159 59.12 54.2307 81.9254 54.2307Z" fill="url(#paint9_radial_9471_31585)"/>
<path d="M81.9254 54.2307C104.73 54.2313 123.216 72.7162 123.216 95.5213C123.216 104.686 120.227 113.15 115.175 120H48.6712C43.6203 113.15 40.6304 104.685 40.6304 95.5213C40.6306 72.7159 59.12 54.2307 81.9254 54.2307Z" fill="url(#paint10_radial_9471_31585)"/>
<path d="M81.9254 54.2307C104.73 54.2313 123.216 72.7162 123.216 95.5213C123.216 104.686 120.227 113.15 115.175 120H48.6712C43.6203 113.15 40.6304 104.685 40.6304 95.5213C40.6306 72.7159 59.12 54.2307 81.9254 54.2307Z" fill="url(#paint11_radial_9471_31585)"/>
<path d="M80.4036 54.3662C82.6133 54.2281 84.823 54.3662 86.8945 54.6424C86.4802 66.7956 81.7847 78.2583 73.0841 86.8207C64.2454 95.6594 52.6446 100.217 41.0439 100.631C40.7677 98.4215 40.6296 96.2118 40.6296 94.1403C50.7112 93.864 60.6547 89.9971 68.3885 82.2633C75.9843 74.8056 80.1274 64.8621 80.4036 54.3662Z" fill="white"/>
<path d="M80.4036 54.3662C82.6133 54.2281 84.823 54.3662 86.8945 54.6424C86.4802 66.7956 81.7847 78.2583 73.0841 86.8207C64.2454 95.6594 52.6446 100.217 41.0439 100.631C40.7677 98.4215 40.6296 96.2118 40.6296 94.1403C50.7112 93.864 60.6547 89.9971 68.3885 82.2633C75.9843 74.8056 80.1274 64.8621 80.4036 54.3662Z" fill="url(#paint12_radial_9471_31585)"/>
<path d="M80.4036 54.3662C82.6133 54.2281 84.823 54.3662 86.8945 54.6424C86.4802 66.7956 81.7847 78.2583 73.0841 86.8207C64.2454 95.6594 52.6446 100.217 41.0439 100.631C40.7677 98.4215 40.6296 96.2118 40.6296 94.1403C50.7112 93.864 60.6547 89.9971 68.3885 82.2633C75.9843 74.8056 80.1274 64.8621 80.4036 54.3662Z" fill="url(#paint13_radial_9471_31585)"/>
<path d="M122.862 90.0745C123.097 91.8561 123.218 93.6735 123.218 95.5192C123.218 95.8942 123.215 96.2689 123.205 96.6415C113.156 97.1078 103.303 101.109 95.6565 108.892C92.3639 112.183 89.7247 115.937 87.7779 119.998H80.6069C82.9026 114.201 86.3241 108.867 90.8608 104.322C99.6502 95.3745 111.227 90.6638 122.862 90.0745Z" fill="white"/>
<path d="M122.862 90.0745C123.097 91.8561 123.218 93.6735 123.218 95.5192C123.218 95.8942 123.215 96.2689 123.205 96.6415C113.156 97.1078 103.303 101.109 95.6565 108.892C92.3639 112.183 89.7247 115.937 87.7779 119.998H80.6069C82.9026 114.201 86.3241 108.867 90.8608 104.322C99.6502 95.3745 111.227 90.6638 122.862 90.0745Z" fill="url(#paint14_radial_9471_31585)"/>
<path d="M122.862 90.0745C123.097 91.8561 123.218 93.6735 123.218 95.5192C123.218 95.8942 123.215 96.2689 123.205 96.6415C113.156 97.1078 103.303 101.109 95.6565 108.892C92.3639 112.183 89.7247 115.937 87.7779 119.998H80.6069C82.9026 114.201 86.3241 108.867 90.8608 104.322C99.6502 95.3745 111.227 90.6638 122.862 90.0745Z" fill="url(#paint15_radial_9471_31585)"/>
<defs>
<linearGradient id="paint0_linear_9471_31585" x1="155.241" y1="55.1015" x2="193.234" y2="129.426" gradientUnits="userSpaceOnUse">
<stop stop-color="#FF9C70"/>
<stop offset="1" stop-color="#E82C41"/>
</linearGradient>
<radialGradient id="paint1_radial_9471_31585" cx="0" cy="0" r="1" gradientUnits="userSpaceOnUse" gradientTransform="translate(225.176 68.4546) rotate(84.4629) scale(58.4924 39.0652)">
<stop offset="0.824806" stop-color="#8E250B"/>
<stop offset="1" stop-color="#8E250B" stop-opacity="0"/>
</radialGradient>
<radialGradient id="paint2_radial_9471_31585" cx="0" cy="0" r="1" gradientUnits="userSpaceOnUse" gradientTransform="translate(172.6 86.6148) rotate(42.3057) scale(32.1386 9.77112)">
<stop offset="0.433158" stop-color="#8E250B"/>
<stop offset="1" stop-color="#8E250B" stop-opacity="0"/>
</radialGradient>
<radialGradient id="paint3_radial_9471_31585" cx="0" cy="0" r="1" gradientUnits="userSpaceOnUse" gradientTransform="translate(129.603 44.4231) rotate(36.3738) scale(61.6936 46.0216)">
<stop offset="0.6875" stop-color="#EFEFEF"/>
<stop offset="0.875" stop-color="#8C8C8C"/>
</radialGradient>
<linearGradient id="paint4_linear_9471_31585" x1="162.808" y1="14.5407" x2="169.495" y2="98.2448" gradientUnits="userSpaceOnUse">
<stop stop-color="#FF9C70"/>
<stop offset="1" stop-color="#E82C41"/>
</linearGradient>
<radialGradient id="paint5_radial_9471_31585" cx="0" cy="0" r="1" gradientUnits="userSpaceOnUse" gradientTransform="translate(147.856 48.1141) rotate(51.3347) scale(51.0551 39.6636)">
<stop offset="0.868293" stop-color="#8E250B" stop-opacity="0"/>
<stop offset="1" stop-color="#8E250B"/>
</radialGradient>
<radialGradient id="paint6_radial_9471_31585" cx="0" cy="0" r="1" gradientUnits="userSpaceOnUse" gradientTransform="translate(149.723 50.4476) rotate(51.3347) scale(38.6026 32.6502)">
<stop offset="0.824806" stop-color="#8E250B"/>
<stop offset="1" stop-color="#8E250B" stop-opacity="0"/>
</radialGradient>
<linearGradient id="paint7_linear_9471_31585" x1="210.815" y1="139.737" x2="217.176" y2="135.513" gradientUnits="userSpaceOnUse">
<stop stop-color="#5E4754" stop-opacity="0.5"/>
<stop offset="1" stop-color="#5E4754" stop-opacity="0"/>
</linearGradient>
<radialGradient id="paint8_radial_9471_31585" cx="0" cy="0" r="1" gradientUnits="userSpaceOnUse" gradientTransform="translate(68.2348 76.2782) rotate(77.2592) scale(62.0678 58.4609)">
<stop offset="0.249887" stop-color="#D2E300"/>
<stop offset="0.961075" stop-color="#91AB04"/>
</radialGradient>
<radialGradient id="paint9_radial_9471_31585" cx="0" cy="0" r="1" gradientUnits="userSpaceOnUse" gradientTransform="translate(77.0531 89.7736) rotate(79.6063) scale(57.7606 57.7574)">
<stop offset="0.521907" stop-color="#66810F" stop-opacity="0"/>
<stop offset="0.810839" stop-color="#66810F"/>
</radialGradient>
<radialGradient id="paint10_radial_9471_31585" cx="0" cy="0" r="1" gradientUnits="userSpaceOnUse" gradientTransform="translate(72.774 82.2511) rotate(15.0693) scale(25.7307 25.732)">
<stop stop-color="#FFFF00"/>
<stop offset="1" stop-color="#FFFF00" stop-opacity="0"/>
</radialGradient>
<radialGradient id="paint11_radial_9471_31585" cx="0" cy="0" r="1" gradientUnits="userSpaceOnUse" gradientTransform="translate(78.0298 90.6132) rotate(29.0379) scale(51.6828 51.6844)">
<stop offset="0.76015" stop-color="#FFFF00" stop-opacity="0"/>
<stop offset="1" stop-color="#FFFF00"/>
</radialGradient>
<radialGradient id="paint12_radial_9471_31585" cx="0" cy="0" r="1" gradientUnits="userSpaceOnUse" gradientTransform="translate(77.7263 87.081) rotate(58.5432) scale(33.4964 41.4993)">
<stop offset="0.711628" stop-color="#849894" stop-opacity="0"/>
<stop offset="1" stop-color="#849894"/>
</radialGradient>
<radialGradient id="paint13_radial_9471_31585" cx="0" cy="0" r="1" gradientUnits="userSpaceOnUse" gradientTransform="translate(47.9272 63.8534) rotate(45.2546) scale(38.0105 47.0621)">
<stop offset="0.678733" stop-color="#4E5C0E"/>
<stop offset="0.832579" stop-color="#7F990B" stop-opacity="0"/>
</radialGradient>
<radialGradient id="paint14_radial_9471_31585" cx="0" cy="0" r="1" gradientUnits="userSpaceOnUse" gradientTransform="translate(114.096 123.141) rotate(58.9039) scale(33.6711 41.4439)">
<stop offset="0.711628" stop-color="#849894" stop-opacity="0"/>
<stop offset="1" stop-color="#849894"/>
</radialGradient>
<radialGradient id="paint15_radial_9471_31585" cx="0" cy="0" r="1" gradientUnits="userSpaceOnUse" gradientTransform="translate(127.006 136.814) rotate(-138.581) scale(50.3367 49.5694)">
<stop offset="0.877945" stop-color="#7F990B" stop-opacity="0"/>
<stop offset="0.985577" stop-color="#4E5C0E"/>
</radialGradient>
</defs>
</svg>
