<svg viewBox="0 0 240 120" fill="none" xmlns="http://www.w3.org/2000/svg">
<path d="M183.997 20.2692L184.831 20.2192H227.328V119.723L55.7468 119.723C40.8123 116.802 10.9434 106.956 10.9434 90.9354C10.9434 70.9096 54.1804 66.8419 62.6398 59.958C71.0991 53.0742 46.6609 52.1354 50.1073 45.5645C53.5538 38.9935 114.202 35.6132 119.036 33.0483C123.933 30.4501 114.65 31.1709 115.276 27.7289C115.892 24.3457 167.363 21.2648 183.997 20.2692Z" fill="url(#paint0_radial_9647_1071)"/>
<path d="M52.7564 103.177C49.9993 104.647 45.5503 114.814 43.6704 119.714H146.123C147.627 119.714 128.578 89.7018 118.865 74.6958C106.437 75.4104 80.2651 77.2683 75.0015 78.9832C68.4219 81.1269 68.4219 88.7831 62.7824 90.6205C57.1428 92.458 56.2028 101.339 52.7564 103.177Z" fill="url(#paint1_radial_9647_1071)"/>
<path d="M149.383 77.7245C145.362 77.2805 137.164 76.3926 136.537 76.3926L142.96 94.8047L149.383 77.7245Z" fill="url(#paint2_radial_9647_1071)"/>
<path d="M125.258 49.5208C124.945 47.9538 134.658 46.8569 148.13 46.8569C156.642 49.5208 174.542 56.9797 169.278 60.4898C162.699 57.9826 141.55 57.9826 143.117 56.5723C144.684 55.162 137.791 56.4156 132.464 55.6321C127.138 54.8486 131.681 53.1249 131.525 51.8713C131.368 50.6177 125.572 51.0878 125.258 49.5208Z" fill="url(#paint3_radial_9647_1071)"/>
<path d="M151.578 73.3407C151.578 73.3407 139.9 71.2318 134.424 71.2319L132.623 78.3584C136.382 77.6696 149.411 79.2992 151.578 80.6306C153.327 80.657 151.578 73.3407 151.578 73.3407Z" fill="#A3A3A3"/>
<path d="M151.578 73.3407C151.578 73.3407 139.9 71.2318 134.424 71.2319L132.623 78.3584C136.382 77.6696 149.411 79.2992 151.578 80.6306C153.327 80.657 151.578 73.3407 151.578 73.3407Z" fill="url(#paint4_linear_9647_1071)"/>
<path d="M148.051 74.8289C145.983 74.0768 139.931 73.4186 137.164 73.1836V75.299C138.793 75.0483 144.735 75.9781 147.503 76.4743L148.051 74.8289Z" fill="#FFE06B"/>
<path d="M109.594 91.093C106.586 92.5702 104.999 110.789 104.581 119.714H148.758C148.027 111.507 146.126 94.7855 144.371 93.5545C142.178 92.0158 141.865 88.015 141.865 84.0143C141.865 80.0136 140.612 75.7056 138.105 73.5509C135.599 71.3962 138.419 64.9344 138.105 61.2414C137.792 57.5485 132.466 60.626 129.959 61.2414C127.453 61.8569 126.513 68.6274 123.38 69.2429C120.247 69.8584 120.873 73.2436 120.247 75.7056C119.62 78.1676 113.354 89.2465 109.594 91.093Z" fill="url(#paint5_radial_9647_1071)"/>
<path d="M181.359 11.2882C178.85 11.4449 178.223 14.2655 174.617 14.4222L177.753 56.8867L161.446 72.7134L170.697 106.404L240 86.0328V18.8089C237.126 17.9731 230.812 15.7376 228.554 13.4811C225.732 10.6605 222.439 12.5409 217.108 13.4811C212.843 14.2332 208.85 10.9743 207.387 9.25082C205.244 8.83306 199.61 8.65568 194.216 11.2882C187.474 14.5789 183.868 11.1315 181.359 11.2882Z" fill="url(#paint6_radial_9647_1071)"/>
<path d="M181.359 11.2882C178.85 11.4449 178.223 14.2655 174.617 14.4222L177.753 56.8867L161.446 72.7134L170.697 106.404L240 86.0328V18.8089C237.126 17.9731 230.812 15.7376 228.554 13.4811C225.732 10.6605 222.439 12.5409 217.108 13.4811C212.843 14.2332 208.85 10.9743 207.387 9.25082C205.244 8.83306 199.61 8.65568 194.216 11.2882C187.474 14.5789 183.868 11.1315 181.359 11.2882Z" fill="url(#paint7_radial_9647_1071)"/>
<path d="M150.01 39.8075C150.166 36.8302 151.341 33.2066 161.21 31.0128C161.21 28.5056 162.836 29.5045 163.619 28.721C164.402 27.9375 163.756 22.1593 165.323 22.1593C167.578 22.1593 168.129 18.0786 168.495 15.9892C168.495 14.861 173.299 14.1611 175.701 13.9521C175.805 14.37 176.422 15.6445 178.051 17.3995C180.087 19.5933 183.22 18.183 186.824 22.2572C191.053 23.6675 193.873 27.7417 197.006 31.0324C198.416 33.8529 203.116 35.1065 209.382 39.8075C215.648 44.5085 211.262 47.7992 216.118 50.3064C220.974 50.6197 230.53 58.9248 231.94 62.3722C233.35 65.8196 231.157 65.3495 229.747 67.7C228.337 70.0504 223.794 77.1019 213.142 79.4524C202.489 81.8029 175.701 74.438 171.471 74.9081C167.242 75.3782 153.299 75.8483 154.866 64.0959C158.751 64.2212 165.571 60.7007 168.495 58.9248C166.302 57.3578 151.263 57.2011 153.299 55.4774C151.576 55.0596 147.691 53.9104 145.937 52.6568C147.66 51.2465 146.093 44.3518 147.346 44.0384C148.6 43.725 149.853 42.7848 150.01 39.8075Z" fill="url(#paint8_radial_9647_1071)"/>
<path d="M175.705 13.9521C175.811 14.3715 176.426 15.6472 178.054 17.4002C178.493 17.8734 178.987 18.1718 179.523 18.4008C179.039 25.7848 177.47 37.8737 176.449 44.9392C171.607 44.0776 161.787 42.065 161.251 40.9053C160.719 39.7481 161.029 39.1939 161.251 39.0618V30.4485C161.486 28.6611 162.904 29.4351 163.621 28.7178C164.403 27.9302 163.759 22.1598 165.325 22.1598C167.581 22.1597 168.133 18.0791 168.498 15.9894C168.498 14.8612 173.303 14.1611 175.705 13.9521Z" fill="url(#paint9_radial_9647_1071)"/>
<path d="M153.272 56.0481C157.674 49.9282 166.224 40.8641 171.472 45.2938C173.409 52.7643 173.268 56.6905 168.466 58.9102C166.456 57.5534 154.768 57.2549 153.272 56.0481Z" fill="url(#paint10_radial_9647_1071)"/>
<path d="M161.133 42.3135C169.207 43.2291 168.089 54.0719 164.995 57.9805C160.393 57.2567 153.202 56.8519 153.114 55.8036C153.135 55.7329 153.163 55.6635 153.186 55.5917C153.215 55.5541 153.253 55.5138 153.299 55.4745C153.278 55.4695 153.258 55.4618 153.236 55.4565C153.869 53.5594 155.103 51.3228 156.432 49.9938C158.781 47.6433 156.12 44.8207 161.133 42.3135Z" fill="url(#paint11_radial_9647_1071)"/>
<path d="M145.311 77.385C143.807 81.4289 141.76 103.081 140.925 113.401V119.72H175.389C174.658 110.242 172.507 91.0964 169.749 90.3382C166.992 89.58 165.676 74.8576 165.676 72.0143C165.676 69.171 163.483 68.2231 160.037 67.5912C156.59 66.9594 155.337 62.5363 154.084 61.2726C153.081 60.2616 149.28 63.3788 147.504 65.0638C147.4 67.4859 146.815 73.3411 145.311 77.385Z" fill="url(#paint12_radial_9647_1071)"/>
<path d="M135.519 59.5044C129.675 66.5883 132.23 71.1256 128.393 71.7054C124.321 72.3227 125.105 91.7115 124.792 95.4043C124.561 98.1223 122.81 111.682 121.758 119.716H104.581C104.999 110.794 106.587 92.5803 109.593 91.0954C113.352 89.2493 119.62 78.1725 120.248 75.7078C120.875 73.2459 120.248 69.86 123.381 69.2445C126.514 68.629 127.455 61.8597 129.961 61.2442C131.383 60.8948 133.712 59.7526 135.519 59.5044Z" fill="url(#paint13_radial_9647_1071)"/>
<path d="M147.505 65.0676C149.281 63.3826 153.084 60.2661 154.086 61.277C154.629 61.8254 155.177 62.9624 155.898 64.1301C152.468 69.7946 153.571 78.5121 151.265 81.6589C148.711 85.1432 153.199 103.588 152.883 119.723H140.925V113.404C141.76 103.084 143.807 81.4392 145.31 77.3906C146.814 73.3468 147.401 67.4901 147.505 65.0676Z" fill="url(#paint14_radial_9647_1071)"/>
<path d="M17.0713 87.5955C17.0713 95.9816 54.2868 94.7522 54.9003 87.5934C55.5137 80.4346 18.0937 80.6412 17.0713 87.5955Z" fill="url(#paint15_radial_9647_1071)"/>
<path d="M99.7266 59.8331C99.7266 65.9517 126.879 65.0547 127.327 59.8315C127.775 54.6084 100.473 54.7592 99.7266 59.8331Z" fill="url(#paint16_radial_9647_1071)"/>
<path d="M126.625 29.14C126.625 36.3211 158.493 35.2684 159.019 29.1382C159.544 23.008 127.501 23.185 126.625 29.14Z" fill="url(#paint17_radial_9647_1071)"/>
<path d="M56.1733 71.641C56.1733 79.4787 101.474 78.3298 102.221 71.639C102.968 64.9483 57.4179 65.1414 56.1733 71.641Z" fill="url(#paint18_radial_9647_1071)"/>
<path d="M47.9072 119.72C73.9118 114.169 83.6244 102.144 74.8518 95.0515C66.1454 88.013 71.6875 72.4706 120.99 71.6333C120.99 74.9653 118.836 79.0157 118.836 79.0157C111.762 79.8758 104.736 80.9595 107.792 87.5061C113.119 98.9151 151.264 106.46 148.444 119.72H47.9072Z" fill="#A3A3A3"/>
<path d="M47.9072 119.72C73.9118 114.169 83.6244 102.144 74.8518 95.0515C66.1454 88.013 71.6875 72.4706 120.99 71.6333C120.99 74.9653 118.836 79.0157 118.836 79.0157C111.762 79.8758 104.736 80.9595 107.792 87.5061C113.119 98.9151 151.264 106.46 148.444 119.72H47.9072Z" fill="url(#paint19_linear_9647_1071)"/>
<path d="M68.8642 54.066C65.6058 55.821 64.3734 66.4975 64.1646 71.6163C66.3577 74.1235 88.9161 73.1833 94.399 71.6163C94.2424 57.2 90.6393 57.0433 90.7959 52.8124C90.9526 48.5815 88.6028 45.6043 86.4096 43.2538C84.2164 40.9033 87.0362 36.0456 85.313 35.5755C83.5898 35.1054 84.3731 28.2107 83.1198 27.4272C81.8666 26.6437 81.3966 23.1963 80.1434 23.1963C78.8901 23.1963 78.5768 24.6066 76.3837 27.4272C74.1905 30.2478 75.4437 34.3219 74.8171 37.1425C74.1905 39.9631 68.8642 41.5301 68.8642 44.3507C68.8642 47.1713 71.3707 52.1856 68.8642 54.066Z" fill="url(#paint20_radial_9647_1071)"/>
<path d="M26.48 74.2116C27.7069 76.3252 29.4245 81.9023 26.48 87.3021C33.8413 90.4115 42.225 88.5977 45.4967 87.3021C45.4286 85.1201 44.8833 80.429 43.2474 79.1199C41.2026 77.4836 41.8161 73.1883 41.2026 70.1203C40.7119 67.6658 37.8628 67.598 36.4995 67.8709C35.2727 66.371 32.4099 63.5347 30.7741 64.1892C29.1382 64.8438 27.2297 71.1435 26.48 74.2116Z" fill="url(#paint21_radial_9647_1071)"/>
<path d="M107.402 55.0076C108.029 56.888 105.836 57.0447 105.836 59.8653C111.977 62.7493 119.674 61.0669 122.754 59.8653C122.441 58.246 121.783 54.5686 121.658 52.8128C121.501 50.618 118.838 50.4623 116.488 48.8953C114.138 47.3283 114.295 43.2551 113.825 42.0016C113.355 40.748 108.969 40.9047 107.402 42.0016C105.836 43.0984 105.836 45.1355 104.583 47.9561C103.329 50.7767 106.776 53.1272 107.402 55.0076Z" fill="url(#paint22_radial_9647_1071)"/>
<path d="M140.456 16.6127C137.01 17.2395 138.89 24.761 134.347 29.7754C141.24 32.4085 149.856 30.8725 153.302 29.7754C152.989 28.5216 152.143 25.9512 151.265 25.7005C150.169 25.3871 150.639 23.1933 149.072 22.2531C147.506 21.3129 149.072 17.8656 147.662 16.6127C146.252 15.3598 147.192 11.4416 145.469 11.2849C144.091 11.1595 141.553 14.7845 140.456 16.6127Z" fill="url(#paint23_radial_9647_1071)"/>
<path d="M210.479 88.0687C195.597 98.5649 159.253 101.385 154.71 119.714H239.931C239.983 105.823 240.056 77.8545 239.931 77.1025C239.774 76.1626 225.362 77.5725 210.479 88.0687Z" fill="url(#paint24_radial_9647_1071)"/>
<path d="M210.479 88.0687C195.597 98.5649 159.253 101.385 154.71 119.714H239.931C239.983 105.823 240.056 77.8545 239.931 77.1025C239.774 76.1626 225.362 77.5725 210.479 88.0687Z" fill="url(#paint25_radial_9647_1071)"/>
<path d="M210.479 88.0687C195.597 98.5649 159.253 101.385 154.71 119.714H239.931C239.983 105.823 240.056 77.8545 239.931 77.1025C239.774 76.1626 225.362 77.5725 210.479 88.0687Z" fill="url(#paint26_radial_9647_1071)"/>
<path d="M210.479 88.0687C195.597 98.5649 159.253 101.385 154.71 119.714H239.931C239.983 105.823 240.056 77.8545 239.931 77.1025C239.774 76.1626 225.362 77.5725 210.479 88.0687Z" fill="url(#paint27_radial_9647_1071)"/>
<path d="M210.479 88.0687C195.597 98.5649 159.253 101.385 154.71 119.714H239.931C239.983 105.823 240.056 77.8545 239.931 77.1025C239.774 76.1626 225.362 77.5725 210.479 88.0687Z" fill="url(#paint28_radial_9647_1071)"/>
<path d="M194.205 11.288C199.6 8.65585 205.238 8.83303 207.381 9.25077C208.844 10.974 212.835 14.2337 217.1 13.483C222.433 12.5428 225.73 10.6625 228.552 13.483C230.811 15.7393 237.125 17.9749 240 18.8106V49.6309C235.893 49.4468 229.389 48.7277 227.298 46.8589C224.319 44.1953 224.473 43.5712 221.337 42.6312C218.201 41.691 216.63 35.7342 216.473 32.9136C216.316 30.0933 211.927 28.3696 209.105 27.5861C206.282 26.8026 200.95 23.8247 197.657 18.8106C194.363 13.7962 189.501 18.0271 187.933 16.1468C186.594 14.5409 182.394 13.2814 177.875 13.2397C179.038 12.3884 179.869 11.3802 181.345 11.288C183.854 11.1315 187.461 14.5786 194.205 11.288Z" fill="url(#paint29_radial_9647_1071)"/>
<path d="M194.205 11.288C199.6 8.65585 205.238 8.83303 207.381 9.25077C208.844 10.974 212.835 14.2337 217.1 13.483C222.433 12.5428 225.73 10.6625 228.552 13.483C230.811 15.7393 237.125 17.9749 240 18.8106V49.6309C235.893 49.4468 229.389 48.7277 227.298 46.8589C224.319 44.1953 224.473 43.5712 221.337 42.6312C218.201 41.691 216.63 35.7342 216.473 32.9136C216.316 30.0933 211.927 28.3696 209.105 27.5861C206.282 26.8026 200.95 23.8247 197.657 18.8106C194.363 13.7962 189.501 18.0271 187.933 16.1468C186.594 14.5409 182.394 13.2814 177.875 13.2397C179.038 12.3884 179.869 11.3802 181.345 11.288C183.854 11.1315 187.461 14.5786 194.205 11.288Z" fill="url(#paint30_radial_9647_1071)"/>
<path d="M194.205 11.288C199.6 8.65585 205.238 8.83303 207.381 9.25077C208.844 10.974 212.835 14.2337 217.1 13.483C222.433 12.5428 225.73 10.6625 228.552 13.483C230.811 15.7393 237.125 17.9749 240 18.8106V49.6309C235.893 49.4468 229.389 48.7277 227.298 46.8589C224.319 44.1953 224.473 43.5712 221.337 42.6312C218.201 41.691 216.63 35.7342 216.473 32.9136C216.316 30.0933 211.927 28.3696 209.105 27.5861C206.282 26.8026 200.95 23.8247 197.657 18.8106C194.363 13.7962 189.501 18.0271 187.933 16.1468C186.594 14.5409 182.394 13.2814 177.875 13.2397C179.038 12.3884 179.869 11.3802 181.345 11.288C183.854 11.1315 187.461 14.5786 194.205 11.288Z" fill="url(#paint31_radial_9647_1071)"/>
<path d="M194.205 11.288C199.6 8.65585 205.238 8.83303 207.381 9.25077C208.844 10.974 212.835 14.2337 217.1 13.483C222.433 12.5428 225.73 10.6625 228.552 13.483C230.811 15.7393 237.125 17.9749 240 18.8106V49.6309C235.893 49.4468 229.389 48.7277 227.298 46.8589C224.319 44.1953 224.473 43.5712 221.337 42.6312C218.201 41.691 216.63 35.7342 216.473 32.9136C216.316 30.0933 211.927 28.3696 209.105 27.5861C206.282 26.8026 200.95 23.8247 197.657 18.8106C194.363 13.7962 189.501 18.0271 187.933 16.1468C186.594 14.5409 182.394 13.2814 177.875 13.2397C179.038 12.3884 179.869 11.3802 181.345 11.288C183.854 11.1315 187.461 14.5786 194.205 11.288Z" fill="url(#paint32_radial_9647_1071)"/>
<path d="M194.205 11.288C199.6 8.65585 205.238 8.83303 207.381 9.25077C208.844 10.974 212.835 14.2337 217.1 13.483C222.433 12.5428 225.73 10.6625 228.552 13.483C230.811 15.7393 237.125 17.9749 240 18.8106V49.6309C235.893 49.4468 229.389 48.7277 227.298 46.8589C224.319 44.1953 224.473 43.5712 221.337 42.6312C218.201 41.691 216.63 35.7342 216.473 32.9136C216.316 30.0933 211.927 28.3696 209.105 27.5861C206.282 26.8026 200.95 23.8247 197.657 18.8106C194.363 13.7962 189.501 18.0271 187.933 16.1468C186.594 14.5409 182.394 13.2814 177.875 13.2397C179.038 12.3884 179.869 11.3802 181.345 11.288C183.854 11.1315 187.461 14.5786 194.205 11.288Z" fill="url(#paint33_radial_9647_1071)"/>
<path d="M194.205 11.288C199.6 8.65585 205.238 8.83303 207.381 9.25077C208.844 10.974 212.835 14.2337 217.1 13.483C222.433 12.5428 225.73 10.6625 228.552 13.483C230.811 15.7393 237.125 17.9749 240 18.8106V49.6309C235.893 49.4468 229.389 48.7277 227.298 46.8589C224.319 44.1953 224.473 43.5712 221.337 42.6312C218.201 41.691 216.63 35.7342 216.473 32.9136C216.316 30.0933 211.927 28.3696 209.105 27.5861C206.282 26.8026 200.95 23.8247 197.657 18.8106C194.363 13.7962 189.501 18.0271 187.933 16.1468C186.594 14.5409 182.394 13.2814 177.875 13.2397C179.038 12.3884 179.869 11.3802 181.345 11.288C183.854 11.1315 187.461 14.5786 194.205 11.288Z" fill="url(#paint34_radial_9647_1071)"/>
<path d="M184.2 20.0728C185.039 20.5483 185.919 21.2266 186.828 22.2542C190.511 23.4824 193.137 26.7219 195.82 29.7137C193.824 35.8397 187.827 44.4721 185.891 47.4856C183.635 50.9956 174.818 47.2779 170.692 44.9796C170.379 42.4724 170.223 37.3923 172.103 37.1416C174.452 36.8282 173.985 34.01 174.924 31.503C175.864 28.9959 179.624 29.306 180.094 26.3288C180.514 23.6697 180.059 21.1416 184.2 20.0728Z" fill="url(#paint35_radial_9647_1071)"/>
<path d="M197.006 31.03C198.416 33.8506 203.117 35.1049 209.383 39.8056C209.612 39.9774 209.817 40.1603 210.019 40.3284C210.67 46.9542 206.29 53.8293 203.745 54.3774C199.358 55.3176 187.606 49.6794 186.509 48.1124C185.413 46.5445 187.452 39.336 189.488 38.5526C191.523 37.769 191.994 36.359 193.874 34.6358C195.323 33.3062 194.633 31.5137 196.109 30.043C196.409 30.3745 196.702 30.7102 197.006 31.03Z" fill="url(#paint36_radial_9647_1071)"/>
<path d="M161.287 38.8678C160.05 43.2545 213.707 46.8671 220.895 63.5718C223.507 69.6445 216.971 76.2394 213.124 79.4507C203.341 81.5941 180.021 75.5998 172.965 74.9525C179.623 72.6823 189.904 68.2142 189.123 60.926C187.695 47.6275 160.903 45.2917 156.667 40.905C153.975 38.1139 157.298 36.5601 161.291 36.5601L161.287 38.8678Z" fill="url(#paint37_linear_9647_1071)"/>
<path d="M80.1423 23.1963C80.6708 23.1963 81.0549 23.8122 81.4223 24.58C78.6492 29.7319 81.2022 34.6391 78.2628 37.2994C74.9737 40.2762 72.3116 42.9403 73.2509 45.9171C74.1908 48.8944 76.3841 55.4782 73.2509 57.672C71.0333 59.2271 70.3679 67.6019 70.2807 72.9829C67.1421 72.7666 64.8001 72.3427 64.1646 71.6173C64.3734 66.4984 65.6071 55.8212 68.8655 54.0662C71.3706 52.1853 68.8655 47.1689 68.8655 44.3486C68.8681 41.5293 74.1884 39.9615 74.8149 37.1416C75.4412 34.3213 74.1913 30.249 76.3834 27.4286C78.5761 24.6086 78.8897 23.1969 80.1423 23.1963Z" fill="url(#paint38_radial_9647_1071)"/>
<path d="M30.7754 64.188C31.695 63.8214 32.9969 64.5642 34.1828 65.5447C29.8681 73.069 31.0353 76.0106 32.2041 79.3232C32.9495 81.4357 31.6931 85.4902 30.4508 88.5134C29.1185 88.2414 27.7823 87.8511 26.48 87.301C29.4236 81.9015 27.7068 76.3255 26.48 74.212C27.2298 71.1439 29.1395 64.8425 30.7754 64.188Z" fill="url(#paint39_radial_9647_1071)"/>
<path d="M110.969 41.1191C106.843 48.4219 107.533 49.9645 110.067 52.4998C111.872 54.3063 111.248 58.4883 110.477 61.2168C108.898 60.982 107.319 60.5618 105.835 59.8646C105.835 57.0441 108.03 56.8862 107.403 55.0059C106.776 53.126 103.331 50.7759 104.582 47.9566C105.835 45.1365 105.838 43.0996 107.403 42.0026C108.175 41.4618 109.633 41.1466 110.969 41.1191Z" fill="url(#paint40_radial_9647_1071)"/>
<path d="M145.47 11.2893C145.75 11.3152 145.95 11.449 146.111 11.6454C142.034 15.5064 143.152 17.6572 141.396 19.1228C139.994 20.2916 139.576 27.0926 139.525 31.0129C137.764 30.7979 136.005 30.4157 134.347 29.7824C138.889 24.7686 137.009 17.2451 140.454 16.6168C141.551 14.7885 144.092 11.164 145.47 11.2893Z" fill="url(#paint41_radial_9647_1071)"/>
<path d="M101.714 119.716C109.703 102.476 102.498 99.3888 93.8815 91.3203C85.5044 83.4756 93.2908 74.1896 120.669 73.6387L120.668 74.5804C96.1092 76.3487 90.41 82.038 97.3311 88.4905C104.252 94.9429 118.816 97.8107 114.247 119.716H101.714Z" fill="#FFE06B"/>
<path d="M161.238 37.793V38.2888C160.02 38.2905 156.667 39.739 162.086 41.2726C167.51 42.8072 203.319 50.7755 208.596 61.4333C212.063 68.4406 201.7 77.1207 198.955 79.2548C196.13 78.9125 193.21 78.466 190.369 77.9883C195.595 75.6535 205.758 70.1645 204.756 61.9787C203.678 53.1827 168.467 44.1581 161.54 41.7684C154.617 39.3797 160.097 37.6046 161.238 37.793Z" fill="url(#paint42_linear_9647_1071)"/>
<path d="M188.082 63.5025C186.153 64.619 186.674 69.1646 186.674 69.1646C187.704 70.8597 198.032 70.9567 199.502 70.6023C200.972 70.248 201.244 65.6095 200.028 64.541C198.67 63.3473 190.01 62.3859 188.082 63.5025Z" fill="#E82C41"/>
<path d="M197.764 66.8235C196.838 67.5611 196.646 70.4405 196.977 71.2568C197.308 72.0731 199.314 72.1151 200.042 71.5231C200.769 70.9311 200.789 67.5211 200.43 67.0548C200.071 66.5886 198.69 66.086 197.764 66.8235Z" fill="#3D3D3D"/>
<path d="M186.409 62.0064C184.432 63.284 182.451 67.9884 182.451 67.9884C183.486 69.8905 196.265 72.8653 197.768 72.4518C198.765 72.1775 197.941 66.6839 199.687 65.9924C199.644 64.6298 198.997 63.4666 198.583 63.0648C197.21 61.7313 188.387 60.7288 186.409 62.0064Z" fill="#E82C41"/>
<path d="M186.409 62.0064C184.432 63.284 182.451 67.9884 182.451 67.9884C183.486 69.8905 196.265 72.8653 197.768 72.4518C198.765 72.1775 197.941 66.6839 199.687 65.9924C199.644 64.6298 198.997 63.4666 198.583 63.0648C197.21 61.7313 188.387 60.7288 186.409 62.0064Z" fill="url(#paint43_linear_9647_1071)"/>
<path d="M186.914 62.7529C185.499 63.6472 184.238 66.7293 184.238 66.7293C184.982 68.0658 194.144 70.1705 195.22 69.8821C196.296 69.5938 196.675 64.1333 195.792 63.2938C194.806 62.356 188.33 61.8586 186.914 62.7529Z" fill="url(#paint44_linear_9647_1071)"/>
<path d="M195.172 70.7379C194.188 71.46 194.004 74.3028 194.363 75.1115C194.722 75.9201 196.863 75.9755 197.635 75.3958C198.407 74.8161 198.404 71.448 198.018 70.9849C197.632 70.5218 196.155 70.0158 195.172 70.7379Z" fill="#3D3D3D"/>
<path d="M182.119 69.8353C181.139 70.5203 180.966 73.2319 181.328 74.0048C181.69 74.7778 183.83 74.8392 184.6 74.2892C185.369 73.7392 185.353 70.5257 184.965 70.0823C184.577 69.6389 183.099 69.1503 182.119 69.8353Z" fill="#3D3D3D"/>
<path d="M181.111 68.5933C180.281 69.2692 180.6 71.6661 180.6 71.6661C181.871 73.5755 194.467 73.7732 196.256 73.3886C197.559 73.1086 196.311 70.637 198.158 69.4379C198.055 68.6997 197.179 67.7705 196.773 67.4418C195.5 66.41 188.983 65.8399 184.842 66.0068C183.564 66.0583 181.941 67.9173 181.111 68.5933Z" fill="url(#paint45_linear_9647_1071)"/>
<path d="M181.111 68.5933C180.281 69.2692 180.6 71.6661 180.6 71.6661C181.871 73.5755 194.467 73.7732 196.256 73.3886C197.559 73.1086 196.311 70.637 198.158 69.4379C198.055 68.6997 197.179 67.7705 196.773 67.4418C195.5 66.41 188.983 65.8399 184.842 66.0068C183.564 66.0583 181.941 67.9173 181.111 68.5933Z" fill="url(#paint46_radial_9647_1071)"/>
<path d="M180.6 71.4361C180.341 71.4136 179.967 72.8022 180.649 73.2607C181.474 73.8165 191.393 74.3467 195.334 74.5369C196.298 74.5834 196.901 73.7391 196.976 73.6137C197.497 72.7493 197.285 71.9739 197.022 71.8418C196.901 71.7811 196.349 72.8436 195.322 72.8266C191.293 72.7597 180.886 71.9853 180.6 71.4361Z" fill="#D8E1E8"/>
<path d="M183.694 70.2877C183.633 70.9875 183.017 71.5056 182.317 71.4448C181.618 71.384 181.1 70.7674 181.16 70.0675C181.221 69.3676 181.838 68.8496 182.537 68.9104C183.237 68.9712 183.755 69.5878 183.694 70.2877Z" fill="#FFE06B"/>
<path d="M193.574 71.1461C193.513 71.8459 192.897 72.364 192.197 72.3032C191.497 72.2424 190.98 71.6258 191.04 70.9259C191.101 70.226 191.718 69.708 192.417 69.7688C193.117 69.8296 193.635 70.4462 193.574 71.1461Z" fill="#FFE06B"/>
<path d="M184.292 69.3096L190.556 69.8538L190.503 70.4577L184.24 69.9134L184.292 69.3096Z" fill="#D8E1E8"/>
<path d="M184.218 70.1523L190.481 70.6966L190.429 71.3005L184.166 70.7562L184.218 70.1523Z" fill="#D8E1E8"/>
<path d="M184.146 70.9951L190.409 71.5394L190.357 72.1432L184.094 71.599L184.146 70.9951Z" fill="#D8E1E8"/>
<defs>
<radialGradient id="paint0_radial_9647_1071" cx="0" cy="0" r="1" gradientUnits="userSpaceOnUse" gradientTransform="translate(143.474 73.6601) rotate(-10.5505) scale(153.613 78.5412)">
<stop stop-color="#ACEBBA"/>
<stop offset="0.509615" stop-color="#88D2C8"/>
<stop offset="1" stop-color="#4688C4"/>
</radialGradient>
<radialGradient id="paint1_radial_9647_1071" cx="0" cy="0" r="1" gradientUnits="userSpaceOnUse" gradientTransform="translate(74.3748 91.5639) rotate(-88.9327) scale(42.0498 51.3691)">
<stop stop-color="#FFE994"/>
<stop offset="0.447035" stop-color="#CF8047"/>
<stop offset="1" stop-color="#271007"/>
</radialGradient>
<radialGradient id="paint2_radial_9647_1071" cx="0" cy="0" r="1" gradientUnits="userSpaceOnUse" gradientTransform="translate(140.923 101.699) rotate(-92.8908) scale(34.1847 22.0899)">
<stop stop-color="#FFE994"/>
<stop offset="0.509939" stop-color="#CF8047"/>
<stop offset="1" stop-color="#271007"/>
</radialGradient>
<radialGradient id="paint3_radial_9647_1071" cx="0" cy="0" r="1" gradientUnits="userSpaceOnUse" gradientTransform="translate(151.89 52.1847) rotate(177.852) scale(33.2343 31.269)">
<stop offset="0.100962" stop-color="white"/>
<stop offset="0.468798" stop-color="#D7FFE9"/>
<stop offset="1" stop-color="#BBFFD9" stop-opacity="0"/>
</radialGradient>
<linearGradient id="paint4_linear_9647_1071" x1="142.489" y1="71.1914" x2="142.489" y2="80.631" gradientUnits="userSpaceOnUse">
<stop stop-color="#A3A3A3"/>
<stop offset="1" stop-color="#3B3B3B"/>
</linearGradient>
<radialGradient id="paint5_radial_9647_1071" cx="0" cy="0" r="1" gradientUnits="userSpaceOnUse" gradientTransform="translate(115.11 84.21) rotate(-91.4659) scale(53.6858 36.4511)">
<stop stop-color="#FFE994"/>
<stop offset="0.509939" stop-color="#CF8047"/>
<stop offset="1" stop-color="#271007"/>
</radialGradient>
<radialGradient id="paint6_radial_9647_1071" cx="0" cy="0" r="1" gradientUnits="userSpaceOnUse" gradientTransform="translate(180.169 49.0197) rotate(-91.6126) scale(86.7777 64.8119)">
<stop stop-color="#FFE994"/>
<stop offset="0.509939" stop-color="#CF8047"/>
<stop offset="1" stop-color="#271007"/>
</radialGradient>
<radialGradient id="paint7_radial_9647_1071" cx="0" cy="0" r="1" gradientUnits="userSpaceOnUse" gradientTransform="translate(170.299 43.7336) rotate(25.3547) scale(77.1305 34.8678)">
<stop offset="0.700956" stop-color="#FFE4BE"/>
<stop offset="1" stop-color="#D2854B" stop-opacity="0"/>
</radialGradient>
<radialGradient id="paint8_radial_9647_1071" cx="0" cy="0" r="1" gradientUnits="userSpaceOnUse" gradientTransform="translate(166.543 41.0515) rotate(-92.6195) scale(58.8111 71.2872)">
<stop stop-color="#FFE994"/>
<stop offset="0.509939" stop-color="#CF8047"/>
<stop offset="1" stop-color="#271007"/>
</radialGradient>
<radialGradient id="paint9_radial_9647_1071" cx="0" cy="0" r="1" gradientUnits="userSpaceOnUse" gradientTransform="translate(165.731 17.6923) rotate(102.107) scale(39.7568 9.01919)">
<stop stop-color="#FFE4BE"/>
<stop offset="1" stop-color="#FFE4BE" stop-opacity="0"/>
</radialGradient>
<radialGradient id="paint10_radial_9647_1071" cx="0" cy="0" r="1" gradientUnits="userSpaceOnUse" gradientTransform="translate(158.315 48.309) rotate(-78.7252) scale(14.6222 17.0067)">
<stop offset="0.389423" stop-color="#FFE994" stop-opacity="0"/>
<stop offset="0.596154" stop-color="#CF8047" stop-opacity="0.5"/>
<stop offset="1" stop-color="#271007"/>
</radialGradient>
<radialGradient id="paint11_radial_9647_1071" cx="0" cy="0" r="1" gradientUnits="userSpaceOnUse" gradientTransform="translate(156.525 45.9952) rotate(107.48) scale(20.7845 6.58711)">
<stop stop-color="#FFE4BE"/>
<stop offset="1" stop-color="#FFE4BE" stop-opacity="0"/>
</radialGradient>
<radialGradient id="paint12_radial_9647_1071" cx="0" cy="0" r="1" gradientUnits="userSpaceOnUse" gradientTransform="translate(149.139 85.1673) rotate(-91.1752) scale(52.2413 28.4404)">
<stop stop-color="#FFE994"/>
<stop offset="0.509939" stop-color="#CF8047"/>
<stop offset="1" stop-color="#271007"/>
</radialGradient>
<radialGradient id="paint13_radial_9647_1071" cx="0" cy="0" r="1" gradientUnits="userSpaceOnUse" gradientTransform="translate(128.9 91.9682) rotate(107.603) scale(49.1071 28.5355)">
<stop stop-color="#FFE4BE" stop-opacity="0"/>
<stop offset="1" stop-color="#FFE4BE"/>
</radialGradient>
<radialGradient id="paint14_radial_9647_1071" cx="0" cy="0" r="1" gradientUnits="userSpaceOnUse" gradientTransform="translate(153.585 92.7675) rotate(100.078) scale(46.3612 16.1017)">
<stop stop-color="#FFE4BE" stop-opacity="0"/>
<stop offset="1" stop-color="#FFE4BE"/>
</radialGradient>
<radialGradient id="paint15_radial_9647_1071" cx="0" cy="0" r="1" gradientUnits="userSpaceOnUse" gradientTransform="translate(37.0597 87.2912) rotate(-180) scale(16.5819 4.1629)">
<stop stop-color="white"/>
<stop offset="0.511982" stop-color="#D7FFE9"/>
<stop offset="1" stop-color="#87BED4" stop-opacity="0"/>
</radialGradient>
<radialGradient id="paint16_radial_9647_1071" cx="0" cy="0" r="1" gradientUnits="userSpaceOnUse" gradientTransform="translate(114.31 59.6111) rotate(180) scale(14.5837 3.66126)">
<stop offset="0.422688" stop-color="white"/>
<stop offset="0.679752" stop-color="#D7FFE9"/>
<stop offset="1" stop-color="#B9ECD5" stop-opacity="0"/>
</radialGradient>
<radialGradient id="paint17_radial_9647_1071" cx="0" cy="0" r="1" gradientUnits="userSpaceOnUse" gradientTransform="translate(143.762 29.3728) rotate(-180) scale(17.1361 4.0666)">
<stop offset="0.103009" stop-color="white"/>
<stop offset="0.575531" stop-color="#D7FFE9"/>
<stop offset="1" stop-color="#B8E7DF" stop-opacity="0"/>
</radialGradient>
<radialGradient id="paint18_radial_9647_1071" cx="0" cy="0" r="1" gradientUnits="userSpaceOnUse" gradientTransform="translate(79.2017 71.3566) rotate(180) scale(24.8397 4.78805)">
<stop stop-color="white"/>
<stop offset="0.634296" stop-color="#D7FFE9"/>
<stop offset="1" stop-color="#B8E8DE" stop-opacity="0"/>
</radialGradient>
<linearGradient id="paint19_linear_9647_1071" x1="101.21" y1="71.6333" x2="101.21" y2="119.72" gradientUnits="userSpaceOnUse">
<stop stop-color="#A3A3A3"/>
<stop offset="1" stop-color="#3B3B3B"/>
</linearGradient>
<radialGradient id="paint20_radial_9647_1071" cx="0" cy="0" r="1" gradientUnits="userSpaceOnUse" gradientTransform="translate(71.3707 43.7239) rotate(-91.21) scale(44.5125 24.9497)">
<stop stop-color="#FFE994"/>
<stop offset="0.509939" stop-color="#CF8047"/>
<stop offset="1" stop-color="#271007"/>
</radialGradient>
<radialGradient id="paint21_radial_9647_1071" cx="0" cy="0" r="1" gradientUnits="userSpaceOnUse" gradientTransform="translate(27.5024 62.7569) rotate(83.4614) scale(32.3228 22.8374)">
<stop stop-color="#FFE994"/>
<stop offset="0.509939" stop-color="#CF8047"/>
<stop offset="1" stop-color="#271007"/>
</radialGradient>
<radialGradient id="paint22_radial_9647_1071" cx="0" cy="0" r="1" gradientUnits="userSpaceOnUse" gradientTransform="translate(108.499 39.4934) rotate(79.0144) scale(32.8826 15.8428)">
<stop stop-color="#FFE994"/>
<stop offset="0.509939" stop-color="#CF8047"/>
<stop offset="1" stop-color="#271007"/>
</radialGradient>
<radialGradient id="paint23_radial_9647_1071" cx="0" cy="0" r="1" gradientUnits="userSpaceOnUse" gradientTransform="translate(138.865 19.4765) rotate(-91.8998) scale(17.7756 15.6369)">
<stop stop-color="#FFE994"/>
<stop offset="0.509939" stop-color="#CF8047"/>
<stop offset="1" stop-color="#271007"/>
</radialGradient>
<radialGradient id="paint24_radial_9647_1071" cx="0" cy="0" r="1" gradientUnits="userSpaceOnUse" gradientTransform="translate(186.464 74.3824) rotate(55.197) scale(35.2273 35.7234)">
<stop stop-color="#803E02"/>
<stop offset="1" stop-color="#671807"/>
</radialGradient>
<radialGradient id="paint25_radial_9647_1071" cx="0" cy="0" r="1" gradientUnits="userSpaceOnUse" gradientTransform="translate(187.84 102.298) rotate(-23.0973) scale(100.569 42.7648)">
<stop stop-color="#1E7C35"/>
<stop offset="0.437947" stop-color="#1E7834" stop-opacity="0.748731"/>
<stop offset="1" stop-color="#1F6D32" stop-opacity="0"/>
</radialGradient>
<radialGradient id="paint26_radial_9647_1071" cx="0" cy="0" r="1" gradientUnits="userSpaceOnUse" gradientTransform="translate(187.921 91.3577) rotate(-30.9453) scale(39.6425 41.8982)">
<stop stop-color="#FFA573" stop-opacity="0.7"/>
<stop offset="1" stop-color="#FFA573" stop-opacity="0"/>
</radialGradient>
<radialGradient id="paint27_radial_9647_1071" cx="0" cy="0" r="1" gradientUnits="userSpaceOnUse" gradientTransform="translate(237.111 119.714) rotate(173.925) scale(63.6463 37.2807)">
<stop stop-color="#424246"/>
<stop offset="1" stop-color="#424246" stop-opacity="0"/>
</radialGradient>
<radialGradient id="paint28_radial_9647_1071" cx="0" cy="0" r="1" gradientUnits="userSpaceOnUse" gradientTransform="translate(219.901 82.5972) rotate(169.283) scale(64.5591 28.3528)">
<stop stop-color="#C8E31C"/>
<stop offset="1" stop-color="#94A000" stop-opacity="0"/>
</radialGradient>
<radialGradient id="paint29_radial_9647_1071" cx="0" cy="0" r="1" gradientUnits="userSpaceOnUse" gradientTransform="translate(200.121 3.59832) rotate(62.1039) scale(33.2696 29.7675)">
<stop stop-color="#803E02"/>
<stop offset="1" stop-color="#671807"/>
</radialGradient>
<radialGradient id="paint30_radial_9647_1071" cx="0" cy="0" r="1" gradientUnits="userSpaceOnUse" gradientTransform="translate(201.186 31.9754) rotate(-29.2479) scale(82.082 41.2346)">
<stop stop-color="#1E7C35"/>
<stop offset="0.437947" stop-color="#1E7834" stop-opacity="0.748731"/>
<stop offset="1" stop-color="#1F6D32" stop-opacity="0"/>
</radialGradient>
<radialGradient id="paint31_radial_9647_1071" cx="0" cy="0" r="1" gradientUnits="userSpaceOnUse" gradientTransform="translate(224.317 26.1713) rotate(-82.8769) scale(26.2414 25.2017)">
<stop stop-color="#FFA573" stop-opacity="0.7"/>
<stop offset="1" stop-color="#FFA573" stop-opacity="0"/>
</radialGradient>
<radialGradient id="paint32_radial_9647_1071" cx="0" cy="0" r="1" gradientUnits="userSpaceOnUse" gradientTransform="translate(239.331 49.6786) rotate(172.045) scale(49.4732 37.7438)">
<stop stop-color="#424246"/>
<stop offset="1" stop-color="#424246" stop-opacity="0"/>
</radialGradient>
<radialGradient id="paint33_radial_9647_1071" cx="0" cy="0" r="1" gradientUnits="userSpaceOnUse" gradientTransform="translate(220.806 12.724) rotate(161.58) scale(20.0836 7.31638)">
<stop stop-color="#C8E31C"/>
<stop offset="1" stop-color="#94A000" stop-opacity="0"/>
</radialGradient>
<radialGradient id="paint34_radial_9647_1071" cx="0" cy="0" r="1" gradientUnits="userSpaceOnUse" gradientTransform="translate(192.802 7.38747) rotate(176.012) scale(23.2972 8.48573)">
<stop offset="0.388403" stop-color="#C8E31C"/>
<stop offset="1" stop-color="#94A000" stop-opacity="0"/>
</radialGradient>
<radialGradient id="paint35_radial_9647_1071" cx="0" cy="0" r="1" gradientUnits="userSpaceOnUse" gradientTransform="translate(176.959 25.861) rotate(108.922) scale(34.7875 11.8047)">
<stop stop-color="#FFE4BE"/>
<stop offset="1" stop-color="#FFE4BE" stop-opacity="0"/>
</radialGradient>
<radialGradient id="paint36_radial_9647_1071" cx="0" cy="0" r="1" gradientUnits="userSpaceOnUse" gradientTransform="translate(192.143 34.2098) rotate(109.739) scale(30.7279 10.8056)">
<stop stop-color="#FFE4BE"/>
<stop offset="1" stop-color="#FFE4BE" stop-opacity="0"/>
</radialGradient>
<linearGradient id="paint37_linear_9647_1071" x1="188.593" y1="36.5601" x2="188.593" y2="79.9114" gradientUnits="userSpaceOnUse">
<stop stop-color="#A3A3A3"/>
<stop offset="1" stop-color="#3B3B3B"/>
</linearGradient>
<radialGradient id="paint38_radial_9647_1071" cx="0" cy="0" r="1" gradientUnits="userSpaceOnUse" gradientTransform="translate(77.6379 49.6787) rotate(101.119) scale(37.3694 14.2545)">
<stop stop-color="#FFE4BE" stop-opacity="0"/>
<stop offset="1" stop-color="#FFE4BE"/>
</radialGradient>
<radialGradient id="paint39_radial_9647_1071" cx="0" cy="0" r="1" gradientUnits="userSpaceOnUse" gradientTransform="translate(34.1828 76.3031) rotate(90) scale(23.8903 11.7926)">
<stop offset="0.246457" stop-color="#FFE4BE" stop-opacity="0"/>
<stop offset="1" stop-color="#FFE4BE"/>
</radialGradient>
<radialGradient id="paint40_radial_9647_1071" cx="0" cy="0" r="1" gradientUnits="userSpaceOnUse" gradientTransform="translate(116.022 49.9905) rotate(92.786) scale(29.018 14.8047)">
<stop offset="0.269253" stop-color="#FFE4BE" stop-opacity="0"/>
<stop offset="1" stop-color="#FFE4BE"/>
</radialGradient>
<radialGradient id="paint41_radial_9647_1071" cx="0" cy="0" r="1" gradientUnits="userSpaceOnUse" gradientTransform="translate(144.843 23.0375) rotate(116.047) scale(16.3633 11.421)">
<stop offset="0.201914" stop-color="#FFE4BE" stop-opacity="0"/>
<stop offset="1" stop-color="#FFE4BE"/>
</radialGradient>
<linearGradient id="paint42_linear_9647_1071" x1="183.7" y1="37.7793" x2="183.7" y2="79.2548" gradientUnits="userSpaceOnUse">
<stop stop-color="#FFE06B" stop-opacity="0"/>
<stop offset="0.185015" stop-color="#FFE06B"/>
</linearGradient>
<linearGradient id="paint43_linear_9647_1071" x1="182.843" y1="57.805" x2="193.329" y2="69.5225" gradientUnits="userSpaceOnUse">
<stop stop-color="#FFB357"/>
<stop offset="1" stop-color="#E82C41"/>
</linearGradient>
<linearGradient id="paint44_linear_9647_1071" x1="190.631" y1="62.2552" x2="196.116" y2="69.903" gradientUnits="userSpaceOnUse">
<stop stop-color="#B3E0FF"/>
<stop offset="1" stop-color="#9DEAFF"/>
</linearGradient>
<linearGradient id="paint45_linear_9647_1071" x1="180.757" y1="62.9253" x2="188.984" y2="74.5674" gradientUnits="userSpaceOnUse">
<stop stop-color="#FFB357"/>
<stop offset="1" stop-color="#E82C41"/>
</linearGradient>
<radialGradient id="paint46_radial_9647_1071" cx="0" cy="0" r="1" gradientUnits="userSpaceOnUse" gradientTransform="translate(188.766 65.4686) rotate(89.6261) scale(10.7689 23.0438)">
<stop offset="0.365385" stop-color="#FF835C"/>
<stop offset="0.490385" stop-color="#FB5937" stop-opacity="0"/>
</radialGradient>
</defs>
</svg>
