<svg viewBox="0 0 240 120" fill="none" xmlns="http://www.w3.org/2000/svg">
<path fill-rule="evenodd" clip-rule="evenodd" d="M193.028 33.5253L182.243 40.4347L181.247 38.8802L192.032 31.9708L193.028 33.5253Z" fill="#D7BE44"/>
<path fill-rule="evenodd" clip-rule="evenodd" d="M162.52 32.4593L173.305 39.3686L174.301 37.8141L163.516 30.9048L162.52 32.4593Z" fill="#D7BE44"/>
<path fill-rule="evenodd" clip-rule="evenodd" d="M166.558 29.7362L171.726 41.4559L173.416 40.711L168.247 28.9913L166.558 29.7362Z" fill="#D7BE44"/>
<path fill-rule="evenodd" clip-rule="evenodd" d="M198.369 44.7534L187.844 52.0541L188.897 53.571L199.421 46.2703L198.369 44.7534Z" fill="#D7BE44"/>
<path fill-rule="evenodd" clip-rule="evenodd" d="M199.665 50.5076L187.564 54.7051L186.959 52.9609L199.06 48.7634L199.665 50.5076Z" fill="#D7BE44"/>
<path fill-rule="evenodd" clip-rule="evenodd" d="M156.352 47.3143L168.454 51.5118L169.059 49.7676L156.957 45.57L156.352 47.3143Z" fill="#D7BE44"/>
<path fill-rule="evenodd" clip-rule="evenodd" d="M154.093 73.7254L166.194 77.9229L166.799 76.1787L154.698 71.9812L154.093 73.7254Z" fill="#D7BE44"/>
<path fill-rule="evenodd" clip-rule="evenodd" d="M203.285 71.9292L191.184 76.1268L190.579 74.3826L202.68 70.185L203.285 71.9292Z" fill="#D7BE44"/>
<path fill-rule="evenodd" clip-rule="evenodd" d="M44.9446 64.9549L50.6708 58.0804L49.6799 57.2551L43.9538 64.1296L44.9446 64.9549Z" fill="#D7BE44"/>
<path fill-rule="evenodd" clip-rule="evenodd" d="M46.8576 43.7177L50.7088 51.7933L49.5449 52.3484L45.6937 44.2728L46.8576 43.7177Z" fill="#D7BE44"/>
<path fill-rule="evenodd" clip-rule="evenodd" d="M44.6194 46.2794L52.2929 50.88L51.6298 51.986L43.9563 47.3854L44.6194 46.2794Z" fill="#D7BE44"/>
<path fill-rule="evenodd" clip-rule="evenodd" d="M52.2625 69.6328L58.2372 62.9732L59.197 63.8344L53.2224 70.4939L52.2625 69.6328Z" fill="#D7BE44"/>
<path fill-rule="evenodd" clip-rule="evenodd" d="M56.1376 71.03L60.0987 63.0077L58.9424 62.4368L54.9813 70.459L56.1376 71.03Z" fill="#D7BE44"/>
<path fill-rule="evenodd" clip-rule="evenodd" d="M57.6893 40.7341L59.5467 49.4861L58.2852 49.7538L56.4279 41.0018L57.6893 40.7341Z" fill="#D7BE44"/>
<path fill-rule="evenodd" clip-rule="evenodd" d="M76.1903 41.4644L78.0476 50.2163L76.7862 50.484L74.9288 41.7321L76.1903 41.4644Z" fill="#D7BE44"/>
<path fill-rule="evenodd" clip-rule="evenodd" d="M70.6697 75.402L74.6308 67.3797L73.4745 66.8088L69.5134 74.8311L70.6697 75.402Z" fill="#D7BE44"/>
<path fill-rule="evenodd" clip-rule="evenodd" d="M151.378 31.3288L143.016 33.4768L142.706 32.2715L151.068 30.1236L151.378 31.3288Z" fill="#D7BE44"/>
<path fill-rule="evenodd" clip-rule="evenodd" d="M126.023 30.2801L131.47 36.9785L132.436 36.1934L126.989 29.495L126.023 30.2801Z" fill="#D7BE44"/>
<path fill-rule="evenodd" clip-rule="evenodd" d="M135.232 23.3199L136.068 31.9128L137.306 31.7923L136.47 23.1994L135.232 23.3199Z" fill="#D7BE44"/>
<path fill-rule="evenodd" clip-rule="evenodd" d="M152.428 39.6434L144.151 42.0969L144.504 43.29L152.782 40.8365L152.428 39.6434Z" fill="#D7BE44"/>
<path fill-rule="evenodd" clip-rule="evenodd" d="M152.044 43.6016L143.412 43.7359L143.392 42.4917L152.025 42.3574L152.044 43.6016Z" fill="#D7BE44"/>
<path fill-rule="evenodd" clip-rule="evenodd" d="M126.996 45.4469L122.502 38.0748L123.565 37.4272L128.058 44.7993L126.996 45.4469Z" fill="#D7BE44"/>
<path fill-rule="evenodd" clip-rule="evenodd" d="M124.99 32.4197L131.852 37.6597L132.607 36.6707L125.745 31.4307L124.99 32.4197Z" fill="#D7BE44"/>
<path fill-rule="evenodd" clip-rule="evenodd" d="M120.495 40.2318L127.356 45.4718L128.111 44.4828L121.25 39.2429L120.495 40.2318Z" fill="#D7BE44"/>
<path fill-rule="evenodd" clip-rule="evenodd" d="M151.032 51.4915L142.4 51.6258L142.38 50.3815L151.013 50.2473L151.032 51.4915Z" fill="#D7BE44"/>
<path fill-rule="evenodd" clip-rule="evenodd" d="M83.9099 90.3881L92.7629 84.8966L91.9714 83.6206L83.1184 89.1121L83.9099 90.3881Z" fill="#D7BE44"/>
<path fill-rule="evenodd" clip-rule="evenodd" d="M104.166 67.4236L105.453 77.7615L103.963 77.9471L102.675 67.6092L104.166 67.4236Z" fill="#D7BE44"/>
<path fill-rule="evenodd" clip-rule="evenodd" d="M90.4131 69.6345L97.201 77.5374L96.062 78.5158L89.2741 70.6129L90.4131 69.6345Z" fill="#D7BE44"/>
<path fill-rule="evenodd" clip-rule="evenodd" d="M90.2765 98.2432L99.3251 93.0805L100.069 94.3847L91.0206 99.5474L90.2765 98.2432Z" fill="#D7BE44"/>
<path fill-rule="evenodd" clip-rule="evenodd" d="M94.0447 101.213L101.369 93.805L100.301 92.7493L92.9769 100.158L94.0447 101.213Z" fill="#D7BE44"/>
<path fill-rule="evenodd" clip-rule="evenodd" d="M116.567 80.9341L113.896 70.8645L112.444 71.2494L115.115 81.319L116.567 80.9341Z" fill="#D7BE44"/>
<path fill-rule="evenodd" clip-rule="evenodd" d="M106.892 68.3094L105.728 78.662L104.236 78.4943L105.4 68.1417L106.892 68.3094Z" fill="#D7BE44"/>
<path fill-rule="evenodd" clip-rule="evenodd" d="M117.452 70.9158L116.288 81.2684L114.796 81.1006L115.96 70.748L117.452 70.9158Z" fill="#D7BE44"/>
<path fill-rule="evenodd" clip-rule="evenodd" d="M101.764 106.919L109.088 99.5111L108.02 98.4554L100.696 105.864L101.764 106.919Z" fill="#D7BE44"/>
<path fill-rule="evenodd" clip-rule="evenodd" d="M40.7977 25.7892L45.4431 22.6109L44.985 21.9414L40.3396 25.1197L40.7977 25.7892Z" fill="#D7BE44"/>
<path fill-rule="evenodd" clip-rule="evenodd" d="M51.1741 12.9043L52.1194 18.4529L51.3197 18.5892L50.3743 13.0406L51.1741 12.9043Z" fill="#D7BE44"/>
<path fill-rule="evenodd" clip-rule="evenodd" d="M43.8051 14.4313L47.6601 18.5324L47.069 19.0881L43.214 14.9869L43.8051 14.4313Z" fill="#D7BE44"/>
<path fill-rule="evenodd" clip-rule="evenodd" d="M44.4244 29.8763L49.1832 26.8706L49.6165 27.5565L44.8576 30.5622L44.4244 29.8763Z" fill="#D7BE44"/>
<path fill-rule="evenodd" clip-rule="evenodd" d="M46.53 31.3884L50.3039 27.2124L49.702 26.6685L45.9281 30.8444L46.53 31.3884Z" fill="#D7BE44"/>
<path fill-rule="evenodd" clip-rule="evenodd" d="M58.1949 19.8973L56.5094 14.527L55.7354 14.7699L57.4208 20.1402L58.1949 19.8973Z" fill="#D7BE44"/>
<path fill-rule="evenodd" clip-rule="evenodd" d="M52.6671 13.3168L52.2896 18.9327L51.4801 18.8783L51.8576 13.2624L52.6671 13.3168Z" fill="#D7BE44"/>
<path fill-rule="evenodd" clip-rule="evenodd" d="M58.4298 14.4685L58.0523 20.0844L57.2429 20.0299L57.6204 14.4141L58.4298 14.4685Z" fill="#D7BE44"/>
<path fill-rule="evenodd" clip-rule="evenodd" d="M50.8344 34.2808L54.6083 30.1049L54.0064 29.5609L50.2325 33.7369L50.8344 34.2808Z" fill="#D7BE44"/>
<path fill-rule="evenodd" clip-rule="evenodd" d="M110.613 13.4797L104.056 15.164L103.778 14.0801L110.335 12.3958L110.613 13.4797Z" fill="#D7BE44"/>
<path fill-rule="evenodd" clip-rule="evenodd" d="M98.0723 7.21963L98.7279 13.9576L99.8417 13.8493L99.1861 7.11124L98.0723 7.21963Z" fill="#D7BE44"/>
<path fill-rule="evenodd" clip-rule="evenodd" d="M111.371 19.6738L104.88 21.5977L105.198 22.6706L111.689 20.7467L111.371 19.6738Z" fill="#D7BE44"/>
<path fill-rule="evenodd" clip-rule="evenodd" d="M111.106 22.8886L104.337 22.9939L104.32 21.875L111.089 21.7697L111.106 22.8886Z" fill="#D7BE44"/>
<path fill-rule="evenodd" clip-rule="evenodd" d="M90.2142 14.2689L95.5945 18.3778L96.2737 17.4884L90.8934 13.3796L90.2142 14.2689Z" fill="#D7BE44"/>
<path fill-rule="evenodd" clip-rule="evenodd" d="M86.7763 20.2455L92.1567 24.3544L92.8359 23.465L87.4555 19.3561L86.7763 20.2455Z" fill="#D7BE44"/>
<path fill-rule="evenodd" clip-rule="evenodd" d="M110.332 28.9215L103.563 29.0268L103.546 27.9078L110.315 27.8025L110.332 28.9215Z" fill="#D7BE44"/>
<path d="M178.164 89.6636C178.584 91.9434 175.542 96.9467 173.969 99.1634L183.409 101.538V87.5264C181.486 87.2889 177.745 87.3838 178.164 89.6636Z" fill="url(#paint0_linear_476_10444)"/>
<path d="M130.385 61.3422C130.804 63.3431 127.762 67.7347 126.189 69.6803L134.006 72.0028V59.7041C132.083 59.4957 129.965 59.3412 130.385 61.3422Z" fill="url(#paint1_linear_476_10444)"/>
<path d="M63.2202 25.8896C65.1546 26.5516 69.9939 28.2735 72.1179 26.9508L74.7863 34.9561L61.477 27.9565C61.5062 26.0224 61.2859 25.2276 63.2202 25.8896Z" fill="url(#paint2_linear_476_10444)"/>
<path d="M82.1735 60.7572C85.1971 59.0409 105.156 59.2167 109.122 60.7568L102.093 50.1278L82.1734 56.5002C82.8322 59.7228 79.1499 62.4735 82.1735 60.7572Z" fill="url(#paint3_linear_476_10444)"/>
<path d="M123.606 86.8269C126.963 87.7299 134.72 86.2841 138.173 83.7983L146.971 95.625L122.632 91.9298C122.461 88.645 120.248 85.9239 123.606 86.8269Z" fill="url(#paint4_linear_476_10444)"/>
<path d="M93.8602 32.7484C94.1505 34.7494 92.0455 39.1409 90.9567 41.0865L96.3661 43.409V31.1104C95.0353 30.9019 93.5699 30.7474 93.8602 32.7484Z" fill="url(#paint5_linear_476_10444)"/>
<path d="M170.622 97.2615C180.229 100.164 220.386 100.65 240 100.919V120H189.466C180.126 116.372 160.406 108.309 156.243 105.083C151.04 101.051 107.009 59.125 103.006 54.6904C99.0036 50.2558 79.3901 41.7897 77.3887 40.1771C75.7876 38.8871 67.9155 23.5136 64.1796 15.9882H67.7821C71.2511 21.3633 78.9098 32.4362 81.7918 33.7263C85.3943 35.3389 103.407 45.8208 107.009 48.6428C110.612 51.4648 158.614 93.6329 170.622 97.2615Z" fill="url(#paint6_linear_476_10444)"/>
<path d="M170.622 97.2615C180.229 100.164 220.386 100.65 240 100.919V120H189.466C180.126 116.372 160.406 108.309 156.243 105.083C151.04 101.051 107.009 59.125 103.006 54.6904C99.0036 50.2558 79.3901 41.7897 77.3887 40.1771C75.7876 38.8871 67.9155 23.5136 64.1796 15.9882H67.7821C71.2511 21.3633 78.9098 32.4362 81.7918 33.7263C85.3943 35.3389 103.407 45.8208 107.009 48.6428C110.612 51.4648 158.614 93.6329 170.622 97.2615Z" fill="url(#paint7_radial_476_10444)"/>
<path d="M170.622 97.2615C180.229 100.164 220.386 100.65 240 100.919V120H189.466C180.126 116.372 160.406 108.309 156.243 105.083C151.04 101.051 107.009 59.125 103.006 54.6904C99.0036 50.2558 79.3901 41.7897 77.3887 40.1771C75.7876 38.8871 67.9155 23.5136 64.1796 15.9882H67.7821C71.2511 21.3633 78.9098 32.4362 81.7918 33.7263C85.3943 35.3389 103.407 45.8208 107.009 48.6428C110.612 51.4648 158.614 93.6329 170.622 97.2615Z" fill="url(#paint8_radial_476_10444)"/>
<path d="M170.622 97.2615C180.229 100.164 220.386 100.65 240 100.919V120H189.466C180.126 116.372 160.406 108.309 156.243 105.083C151.04 101.051 107.009 59.125 103.006 54.6904C99.0036 50.2558 79.3901 41.7897 77.3887 40.1771C75.7876 38.8871 67.9155 23.5136 64.1796 15.9882H67.7821C71.2511 21.3633 78.9098 32.4362 81.7918 33.7263C85.3943 35.3389 103.407 45.8208 107.009 48.6428C110.612 51.4648 158.614 93.6329 170.622 97.2615Z" fill="url(#paint9_radial_476_10444)"/>
<path fill-rule="evenodd" clip-rule="evenodd" d="M186.191 33.4727C186.191 34.8008 185.858 36.0511 185.271 37.1448C185.75 37.0481 186.246 36.9974 186.753 36.9974C190.868 36.9974 194.204 40.3335 194.204 44.4488C194.204 46.907 193.014 49.0873 191.178 50.4445C194.512 51.1862 197.004 54.1611 197.004 57.718C197.004 59.4127 196.438 60.9752 195.485 62.227C197.523 63.5568 198.871 65.8572 198.871 68.4722C198.871 70.3053 198.209 71.9838 197.111 73.2818C198.882 74.644 200.024 76.7849 200.024 79.1926C200.024 83.3079 196.688 86.644 192.573 86.644C190.678 86.644 188.949 85.9369 187.634 84.7721C186.98 88.2197 183.951 90.8267 180.313 90.8267C176.918 90.8267 174.053 88.5557 173.155 85.4498C171.788 87.0976 169.725 88.1471 167.417 88.1471C163.301 88.1471 159.965 84.811 159.965 80.6958C159.965 78.5499 160.872 76.6159 162.324 75.2562C159.749 74.0828 157.959 71.4865 157.959 68.4722C157.959 65.4449 159.765 62.8392 162.357 61.6731C160.886 60.3119 159.965 58.3647 159.965 56.2024C159.965 52.9295 162.075 50.1494 165.009 49.1484C163.148 47.7938 161.937 45.5978 161.937 43.1191C161.937 39.0039 165.273 35.6678 169.389 35.6678C169.943 35.6678 170.484 35.7284 171.004 35.8434C170.765 35.096 170.636 34.2994 170.636 33.4727C170.636 29.1775 174.118 25.6956 178.413 25.6956C182.709 25.6956 186.191 29.1775 186.191 33.4727Z" fill="url(#paint10_linear_476_10444)"/>
<path fill-rule="evenodd" clip-rule="evenodd" d="M186.191 33.4727C186.191 34.8008 185.858 36.0511 185.271 37.1448C185.75 37.0481 186.246 36.9974 186.753 36.9974C190.868 36.9974 194.204 40.3335 194.204 44.4488C194.204 46.907 193.014 49.0873 191.178 50.4445C194.512 51.1862 197.004 54.1611 197.004 57.718C197.004 59.4127 196.438 60.9752 195.485 62.227C197.523 63.5568 198.871 65.8572 198.871 68.4722C198.871 70.3053 198.209 71.9838 197.111 73.2818C198.882 74.644 200.024 76.7849 200.024 79.1926C200.024 83.3079 196.688 86.644 192.573 86.644C190.678 86.644 188.949 85.9369 187.634 84.7721C186.98 88.2197 183.951 90.8267 180.313 90.8267C176.918 90.8267 174.053 88.5557 173.155 85.4498C171.788 87.0976 169.725 88.1471 167.417 88.1471C163.301 88.1471 159.965 84.811 159.965 80.6958C159.965 78.5499 160.872 76.6159 162.324 75.2562C159.749 74.0828 157.959 71.4865 157.959 68.4722C157.959 65.4449 159.765 62.8392 162.357 61.6731C160.886 60.3119 159.965 58.3647 159.965 56.2024C159.965 52.9295 162.075 50.1494 165.009 49.1484C163.148 47.7938 161.937 45.5978 161.937 43.1191C161.937 39.0039 165.273 35.6678 169.389 35.6678C169.943 35.6678 170.484 35.7284 171.004 35.8434C170.765 35.096 170.636 34.2994 170.636 33.4727C170.636 29.1775 174.118 25.6956 178.413 25.6956C182.709 25.6956 186.191 29.1775 186.191 33.4727Z" fill="url(#paint11_radial_476_10444)"/>
<path d="M174.094 56.3337C174.094 59.9638 171.152 62.9066 167.522 62.9066C163.891 62.9066 160.949 59.9638 160.949 56.3337C160.949 52.7035 163.891 49.7607 167.522 49.7607C171.152 49.7607 174.094 52.7035 174.094 56.3337Z" fill="url(#paint12_radial_476_10444)"/>
<path d="M188.133 50.3379C188.133 53.9681 185.19 56.9109 181.56 56.9109C177.93 56.9109 174.987 53.9681 174.987 50.3379C174.987 46.7078 177.93 43.765 181.56 43.765C185.19 43.765 188.133 46.7078 188.133 50.3379Z" fill="url(#paint13_radial_476_10444)"/>
<path d="M172.199 68.4623C172.199 72.0468 169.293 74.9527 165.708 74.9527C162.124 74.9527 159.218 72.0468 159.218 68.4623C159.218 64.8778 162.124 61.9719 165.708 61.9719C169.293 61.9719 172.199 64.8778 172.199 68.4623Z" fill="url(#paint14_radial_476_10444)"/>
<path d="M187.138 67.4391C187.138 72.1053 183.355 75.8879 178.689 75.8879C174.023 75.8879 170.24 72.1053 170.24 67.4391C170.24 62.773 174.023 58.9904 178.689 58.9904C183.355 58.9904 187.138 62.773 187.138 67.4391Z" fill="url(#paint15_radial_476_10444)"/>
<path d="M174.094 80.7222C174.094 84.3523 171.152 87.2951 167.522 87.2951C163.891 87.2951 160.949 84.3523 160.949 80.7222C160.949 77.0921 163.891 74.1493 167.522 74.1493C171.152 74.1493 174.094 77.0921 174.094 80.7222Z" fill="url(#paint16_radial_476_10444)"/>
<path d="M186.809 82.8052C186.809 86.6112 183.724 89.6965 179.918 89.6965C176.112 89.6965 173.026 86.6112 173.026 82.8052C173.026 78.9992 176.112 75.9138 179.918 75.9138C183.724 75.9138 186.809 78.9992 186.809 82.8052Z" fill="url(#paint17_radial_476_10444)"/>
<path d="M176.84 43.2703C176.84 47.1735 173.676 50.3376 169.773 50.3376C165.87 50.3376 162.706 47.1735 162.706 43.2703C162.706 39.3671 165.87 36.203 169.773 36.203C173.676 36.203 176.84 39.3671 176.84 43.2703Z" fill="url(#paint18_radial_476_10444)"/>
<path d="M185.206 33.8953C185.206 37.7985 182.041 40.9626 178.138 40.9626C174.235 40.9626 171.071 37.7985 171.071 33.8953C171.071 29.9921 174.235 26.828 178.138 26.828C182.041 26.828 185.206 29.9921 185.206 33.8953Z" fill="url(#paint19_radial_476_10444)"/>
<path d="M219.331 41.2399C219.331 45.906 215.548 49.6887 210.882 49.6887C206.216 49.6887 202.433 45.906 202.433 41.2399C202.433 36.5738 206.216 32.7911 210.882 32.7911C215.548 32.7911 219.331 36.5738 219.331 41.2399Z" fill="url(#paint20_radial_476_10444)"/>
<path d="M204.101 20.4718C204.101 22.7233 202.276 24.5486 200.024 24.5486C197.773 24.5486 195.948 22.7233 195.948 20.4718C195.948 18.2203 197.773 16.395 200.024 16.395C202.276 16.395 204.101 18.2203 204.101 20.4718Z" fill="url(#paint21_radial_476_10444)"/>
<path d="M120.232 30.8296C120.232 32.8816 118.569 34.545 116.517 34.545C114.465 34.545 112.801 32.8816 112.801 30.8296C112.801 28.7777 114.465 27.1143 116.517 27.1143C118.569 27.1143 120.232 28.7777 120.232 30.8296Z" fill="url(#paint22_radial_476_10444)"/>
<path d="M63.1455 84.1838C63.1455 87.529 60.4337 90.2408 57.0885 90.2408C53.7433 90.2408 51.0315 87.529 51.0315 84.1838C51.0315 80.8386 53.7433 78.1268 57.0885 78.1268C60.4337 78.1268 63.1455 80.8386 63.1455 84.1838Z" fill="url(#paint23_radial_476_10444)"/>
<path d="M51.0359 98.081C51.0359 100.184 49.3314 101.888 47.2288 101.888C45.1263 101.888 43.4218 100.184 43.4218 98.081C43.4218 95.9784 45.1263 94.2739 47.2288 94.2739C49.3314 94.2739 51.0359 95.9784 51.0359 98.081Z" fill="url(#paint24_radial_476_10444)"/>
<path d="M129.577 16.1929C129.577 19.7044 126.73 22.5511 123.218 22.5511C119.707 22.5511 116.86 19.7044 116.86 16.1929C116.86 12.6814 119.707 9.83472 123.218 9.83472C126.73 9.83472 129.577 12.6814 129.577 16.1929Z" fill="url(#paint25_radial_476_10444)"/>
<path d="M230.366 60.9674C230.366 67.0621 225.426 72.0028 219.331 72.0028C213.236 72.0028 208.295 67.0621 208.295 60.9674C208.295 54.8727 213.236 49.932 219.331 49.932C225.426 49.932 230.366 54.8727 230.366 60.9674Z" fill="url(#paint26_radial_476_10444)"/>
<path d="M74.6758 100.503C74.6758 105.187 70.8794 108.983 66.1962 108.983C61.513 108.983 57.7165 105.187 57.7165 100.503C57.7165 95.8202 61.513 92.0237 66.1962 92.0237C70.8794 92.0237 74.6758 95.8202 74.6758 100.503Z" fill="url(#paint27_radial_476_10444)"/>
<path fill-rule="evenodd" clip-rule="evenodd" d="M45.5023 60.212C46.4227 60.3275 47.3182 60.2054 48.1272 59.8938C48.0185 60.2175 47.9402 60.5567 47.8961 60.9086C47.5384 63.7607 49.5606 66.3629 52.4128 66.7206C54.1168 66.9343 55.7315 66.2985 56.8317 65.1439C57.0563 67.5184 58.9014 69.504 61.3664 69.8131C62.541 69.9604 63.6732 69.7041 64.6237 69.1524C65.3682 70.6803 66.8454 71.8137 68.6577 72.041C69.928 72.2003 71.1487 71.8875 72.1436 71.2396C72.9337 72.5862 74.3184 73.5639 75.9872 73.7732C78.8394 74.1309 81.4416 72.1088 81.7993 69.2566C81.964 67.9434 81.6242 66.6832 80.9311 65.6707C83.3774 65.5173 85.4476 63.6446 85.7638 61.1233C86.0589 58.7702 84.7341 56.5873 82.6598 55.6945C83.9204 54.8905 84.8269 53.552 85.0275 51.9525C85.3852 49.1003 83.363 46.4982 80.5108 46.1405C79.0237 45.954 77.6046 46.4144 76.5361 47.3022C75.9468 45.4154 74.3028 43.9491 72.2135 43.6871C70.1151 43.4239 68.152 44.4489 67.1186 46.1449C66.303 45.0071 65.0336 44.1996 63.5351 44.0117C61.2669 43.7272 59.1568 44.9478 58.2079 46.894C57.4309 45.4859 56.0141 44.4563 54.2962 44.2408C51.444 43.8831 48.8419 45.9053 48.4842 48.7575C48.4359 49.1421 48.431 49.5222 48.4655 49.8929C47.9682 49.6623 47.4273 49.5036 46.8543 49.4318C43.8774 49.0584 41.1615 51.169 40.7881 54.1459C40.4148 57.1228 42.5254 59.8387 45.5023 60.212Z" fill="url(#paint28_linear_476_10444)"/>
<path fill-rule="evenodd" clip-rule="evenodd" d="M45.5023 60.212C46.4227 60.3275 47.3182 60.2054 48.1272 59.8938C48.0185 60.2175 47.9402 60.5567 47.8961 60.9086C47.5384 63.7607 49.5606 66.3629 52.4128 66.7206C54.1168 66.9343 55.7315 66.2985 56.8317 65.1439C57.0563 67.5184 58.9014 69.504 61.3664 69.8131C62.541 69.9604 63.6732 69.7041 64.6237 69.1524C65.3682 70.6803 66.8454 71.8137 68.6577 72.041C69.928 72.2003 71.1487 71.8875 72.1436 71.2396C72.9337 72.5862 74.3184 73.5639 75.9872 73.7732C78.8394 74.1309 81.4416 72.1088 81.7993 69.2566C81.964 67.9434 81.6242 66.6832 80.9311 65.6707C83.3774 65.5173 85.4476 63.6446 85.7638 61.1233C86.0589 58.7702 84.7341 56.5873 82.6598 55.6945C83.9204 54.8905 84.8269 53.552 85.0275 51.9525C85.3852 49.1003 83.363 46.4982 80.5108 46.1405C79.0237 45.954 77.6046 46.4144 76.5361 47.3022C75.9468 45.4154 74.3028 43.9491 72.2135 43.6871C70.1151 43.4239 68.152 44.4489 67.1186 46.1449C66.303 45.0071 65.0336 44.1996 63.5351 44.0117C61.2669 43.7272 59.1568 44.9478 58.2079 46.894C57.4309 45.4859 56.0141 44.4563 54.2962 44.2408C51.444 43.8831 48.8419 45.9053 48.4842 48.7575C48.4359 49.1421 48.431 49.5222 48.4655 49.8929C47.9682 49.6623 47.4273 49.5036 46.8543 49.4318C43.8774 49.0584 41.1615 51.169 40.7881 54.1459C40.4148 57.1228 42.5254 59.8387 45.5023 60.212Z" fill="url(#paint29_radial_476_10444)"/>
<path d="M62.398 53.8147C64.914 54.1302 67.2094 52.3464 67.5249 49.8305C67.8404 47.3146 66.0566 45.0192 63.5407 44.7036C61.0247 44.3881 58.7294 46.1719 58.4138 48.6879C58.0983 51.2038 59.8821 53.4992 62.398 53.8147Z" fill="url(#paint30_radial_476_10444)"/>
<path d="M57.0222 63.0241C59.5382 63.3396 61.8335 61.5558 62.1491 59.0398C62.4646 56.5239 60.6808 54.2285 58.1649 53.913C55.6489 53.5975 53.3536 55.3813 53.038 57.8972C52.7225 60.4131 54.5063 62.7085 57.0222 63.0241Z" fill="url(#paint31_radial_476_10444)"/>
<path d="M70.9689 53.5557C73.4533 53.8672 75.7198 52.1058 76.0314 49.6215C76.3429 47.1371 74.5816 44.8706 72.0972 44.559C69.6128 44.2475 67.3463 46.0088 67.0347 48.4932C66.7232 50.9775 68.4845 53.2441 70.9689 53.5557Z" fill="url(#paint32_radial_476_10444)"/>
<path d="M68.9614 63.8199C72.1954 64.2255 75.1458 61.9326 75.5514 58.6986C75.957 55.4647 73.6641 52.5142 70.4302 52.1086C67.1962 51.7031 64.2457 53.9959 63.8401 57.2299C63.4346 60.4639 65.7274 63.4143 68.9614 63.8199Z" fill="url(#paint33_radial_476_10444)"/>
<path d="M79.3011 55.9354C81.817 56.251 84.1124 54.4672 84.4279 51.9512C84.7434 49.4353 82.9597 47.1399 80.4437 46.8244C77.9278 46.5088 75.6324 48.2926 75.3169 50.8086C75.0013 53.3245 76.7851 55.6199 79.3011 55.9354Z" fill="url(#paint34_radial_476_10444)"/>
<path d="M79.6397 64.9276C82.2775 65.2584 84.6841 63.3882 85.0149 60.7504C85.3457 58.1125 83.4755 55.7059 80.8377 55.3751C78.1999 55.0443 75.7933 56.9145 75.4625 59.5523C75.1316 62.1902 77.0018 64.5968 79.6397 64.9276Z" fill="url(#paint35_radial_476_10444)"/>
<path d="M53.1055 54.5836C55.8107 54.9229 58.2787 53.0049 58.618 50.2997C58.9573 47.5946 57.0393 45.1265 54.3341 44.7873C51.6289 44.448 49.1609 46.366 48.8216 49.0711C48.4824 51.7763 50.4003 54.2443 53.1055 54.5836Z" fill="url(#paint36_radial_476_10444)"/>
<path d="M45.8807 59.5663C48.5859 59.9055 51.0539 57.9876 51.3932 55.2824C51.7325 52.5772 49.8145 50.1092 47.1093 49.7699C44.4041 49.4307 41.9361 51.3486 41.5969 54.0538C41.2576 56.759 43.1755 59.227 45.8807 59.5663Z" fill="url(#paint37_radial_476_10444)"/>
<path fill-rule="evenodd" clip-rule="evenodd" d="M147.012 29.8532C146.732 30.7033 146.255 31.4334 145.649 32.0097C145.975 32.0488 146.303 32.1209 146.628 32.2279C149.263 33.0961 150.695 35.9355 149.826 38.57C149.308 40.1438 148.086 41.2884 146.624 41.7699C148.602 42.9479 149.57 45.3782 148.819 47.6554C148.329 49.1427 147.211 50.2467 145.856 50.77C147.199 52.0673 147.762 54.0654 147.138 55.9578C146.27 58.5922 143.431 60.0241 140.796 59.156C140.307 58.9947 139.859 58.7653 139.459 58.4818C138.256 61.4886 134.904 63.0787 131.786 62.051C128.853 61.0846 127.131 58.134 127.618 55.1799C126.692 55.3296 125.717 55.2655 124.765 54.9516C121.593 53.9065 119.87 50.4883 120.915 47.3168C121.68 44.995 123.717 43.4491 125.998 43.1975C125.189 41.962 124.93 40.383 125.428 38.8715C126.118 36.7763 128.056 35.4418 130.145 35.4199C129.239 34.1599 128.928 32.4989 129.45 30.9122C130.319 28.2778 133.158 26.8459 135.792 27.714C136.148 27.831 136.481 27.9839 136.79 28.1672C136.794 27.6383 136.88 27.1012 137.054 26.5719C137.96 23.8223 140.924 22.3278 143.674 23.2339C146.423 24.14 147.918 27.1036 147.012 29.8532Z" fill="url(#paint38_linear_476_10444)"/>
<path fill-rule="evenodd" clip-rule="evenodd" d="M147.012 29.8532C146.732 30.7033 146.255 31.4334 145.649 32.0097C145.975 32.0488 146.303 32.1209 146.628 32.2279C149.263 33.0961 150.695 35.9355 149.826 38.57C149.308 40.1438 148.086 41.2884 146.624 41.7699C148.602 42.9479 149.57 45.3782 148.819 47.6554C148.329 49.1427 147.211 50.2467 145.856 50.77C147.199 52.0673 147.762 54.0654 147.138 55.9578C146.27 58.5922 143.431 60.0241 140.796 59.156C140.307 58.9947 139.859 58.7653 139.459 58.4818C138.256 61.4886 134.904 63.0787 131.786 62.051C128.853 61.0846 127.131 58.134 127.618 55.1799C126.692 55.3296 125.717 55.2655 124.765 54.9516C121.593 53.9065 119.87 50.4883 120.915 47.3168C121.68 44.995 123.717 43.4491 125.998 43.1975C125.189 41.962 124.93 40.383 125.428 38.8715C126.118 36.7763 128.056 35.4418 130.145 35.4199C129.239 34.1599 128.928 32.4989 129.45 30.9122C130.319 28.2778 133.158 26.8459 135.792 27.714C136.148 27.831 136.481 27.9839 136.79 28.1672C136.794 27.6383 136.88 27.1012 137.054 26.5719C137.96 23.8223 140.924 22.3278 143.674 23.2339C146.423 24.14 147.918 27.1036 147.012 29.8532Z" fill="url(#paint39_radial_476_10444)"/>
<path d="M134.446 41.9367C133.68 44.2606 131.175 45.5237 128.851 44.7579C126.527 43.9921 125.264 41.4874 126.03 39.1635C126.796 36.8396 129.301 35.5765 131.624 36.3423C133.948 37.1081 135.211 39.6128 134.446 41.9367Z" fill="url(#paint40_radial_476_10444)"/>
<path d="M144.698 41.06C143.932 43.3839 141.427 44.6469 139.103 43.8812C136.779 43.1154 135.516 40.6107 136.282 38.2868C137.048 35.9629 139.552 34.6998 141.876 35.4656C144.2 36.2314 145.463 38.7361 144.698 41.06Z" fill="url(#paint41_radial_476_10444)"/>
<path d="M130.673 49.3016C129.917 51.5964 127.444 52.8436 125.149 52.0874C122.854 51.3312 121.607 48.858 122.363 46.5633C123.12 44.2686 125.593 43.0213 127.887 43.7775C130.182 44.5337 131.429 47.0069 130.673 49.3016Z" fill="url(#paint42_radial_476_10444)"/>
<path d="M141.035 48.8441C140.051 51.8312 136.831 53.4548 133.844 52.4705C130.857 51.4861 129.233 48.2666 130.218 45.2795C131.202 42.2924 134.421 40.6688 137.409 41.6532C140.396 42.6375 142.019 45.857 141.035 48.8441Z" fill="url(#paint43_radial_476_10444)"/>
<path d="M138.561 57.5387C137.635 60.3481 134.607 61.875 131.798 60.9493C128.988 60.0235 127.461 56.9956 128.387 54.1862C129.313 51.3768 132.341 49.8499 135.15 50.7756C137.959 51.7014 139.486 54.7293 138.561 57.5387Z" fill="url(#paint44_radial_476_10444)"/>
<path d="M138.959 34.1527C138.136 36.6514 135.442 38.0094 132.944 37.1861C130.445 36.3627 129.087 33.6696 129.91 31.1709C130.734 28.6722 133.427 27.3141 135.926 28.1375C138.424 28.9609 139.782 31.654 138.959 34.1527Z" fill="url(#paint45_radial_476_10444)"/>
<path d="M146.292 29.916C145.469 32.4147 142.776 33.7728 140.277 32.9494C137.778 32.126 136.42 29.4329 137.243 26.9342C138.067 24.4355 140.76 23.0774 143.259 23.9008C145.757 24.7242 147.115 27.4173 146.292 29.916Z" fill="url(#paint46_radial_476_10444)"/>
<path fill-rule="evenodd" clip-rule="evenodd" d="M86.2694 85.351C87.2439 85.8168 88.278 86.011 89.2864 85.9639C89.0475 86.2815 88.8364 86.6274 88.6584 86.9998C87.2151 90.0198 88.4933 93.6381 91.5133 95.0814C93.3174 95.9436 95.335 95.8346 96.9749 94.9632C96.3499 97.6698 97.6589 100.542 100.269 101.79C101.974 102.605 103.87 102.552 105.457 101.808C105.466 104.062 106.736 106.22 108.906 107.257C111.926 108.7 115.544 107.422 116.987 104.402C117.256 103.841 117.43 103.259 117.516 102.674C121.141 104.136 125.324 102.543 127.033 98.9686C128.639 95.607 127.507 91.6434 124.527 89.601C125.431 88.9195 126.188 88.017 126.71 86.9255C128.447 83.29 126.909 78.9342 123.273 77.1967C120.611 75.9246 117.564 76.4085 115.44 78.1857C115.039 76.4493 113.88 74.9051 112.147 74.077C109.745 72.9291 106.965 73.5026 105.202 75.3045C104.861 73.463 103.673 71.8046 101.854 70.9352C98.8344 69.4919 95.2162 70.7701 93.7729 73.7901C93.5783 74.1973 93.4331 74.6155 93.3351 75.0377C92.8704 74.6003 92.3312 74.2264 91.7246 73.9365C88.5726 72.43 84.7961 73.7641 83.2897 76.9161C81.7833 80.0682 83.1173 83.8446 86.2694 85.351Z" fill="url(#paint47_linear_476_10444)"/>
<path fill-rule="evenodd" clip-rule="evenodd" d="M86.2694 85.351C87.2439 85.8168 88.278 86.011 89.2864 85.9639C89.0475 86.2815 88.8364 86.6274 88.6584 86.9998C87.2151 90.0198 88.4933 93.6381 91.5133 95.0814C93.3174 95.9436 95.335 95.8346 96.9749 94.9632C96.3499 97.6698 97.6589 100.542 100.269 101.79C101.974 102.605 103.87 102.552 105.457 101.808C105.466 104.062 106.736 106.22 108.906 107.257C111.926 108.7 115.544 107.422 116.987 104.402C117.256 103.841 117.43 103.259 117.516 102.674C121.141 104.136 125.324 102.543 127.033 98.9686C128.639 95.607 127.507 91.6434 124.527 89.601C125.431 88.9195 126.188 88.017 126.71 86.9255C128.447 83.29 126.909 78.9342 123.273 77.1967C120.611 75.9246 117.564 76.4085 115.44 78.1857C115.039 76.4493 113.88 74.9051 112.147 74.077C109.745 72.9291 106.965 73.5026 105.202 75.3045C104.861 73.463 103.673 71.8046 101.854 70.9352C98.8344 69.4919 95.2162 70.7701 93.7729 73.7901C93.5783 74.1973 93.4331 74.6155 93.3351 75.0377C92.8704 74.6003 92.3312 74.2264 91.7246 73.9365C88.5726 72.43 84.7961 73.7641 83.2897 76.9161C81.7833 80.0682 83.1173 83.8446 86.2694 85.351Z" fill="url(#paint48_radial_476_10444)"/>
<path d="M107.288 84.4935C109.952 85.7666 113.144 84.6392 114.417 81.9752C115.69 79.3113 114.563 76.1196 111.899 74.8465C109.235 73.5734 106.043 74.7008 104.77 77.3647C103.497 80.0287 104.624 83.2203 107.288 84.4935Z" fill="url(#paint49_radial_476_10444)"/>
<path d="M97.9646 92.6922C100.629 93.9654 103.82 92.8379 105.093 90.174C106.366 87.51 105.239 84.3184 102.575 83.0452C99.9111 81.7721 96.7195 82.8995 95.4463 85.5635C94.1732 88.2274 95.3006 91.4191 97.9646 92.6922Z" fill="url(#paint50_radial_476_10444)"/>
<path d="M116.854 87.3543C119.484 88.6114 122.636 87.4981 123.893 84.8676C125.15 82.2371 124.037 79.0856 121.406 77.8284C118.776 76.5713 115.624 77.6846 114.367 80.315C113.11 82.9455 114.223 86.0971 116.854 87.3543Z" fill="url(#paint51_radial_476_10444)"/>
<path d="M107.805 96.0007C111.229 97.6372 115.331 96.188 116.968 92.7638C118.604 89.3396 117.155 85.2371 113.731 83.6006C110.307 81.9641 106.204 83.4133 104.568 86.8375C102.931 90.2617 104.38 94.3642 107.805 96.0007Z" fill="url(#paint52_radial_476_10444)"/>
<path d="M117.445 101.105C120.666 102.644 124.524 101.281 126.063 98.0604C127.602 94.84 126.239 90.9816 123.019 89.4425C119.798 87.9033 115.94 89.2663 114.401 92.4868C112.862 95.7072 114.225 99.5656 117.445 101.105Z" fill="url(#paint53_radial_476_10444)"/>
<path d="M96.7386 81.9253C99.6029 83.2942 103.035 82.082 104.403 79.2176C105.772 76.3533 104.56 72.9216 101.696 71.5527C98.8315 70.1838 95.3998 71.3961 94.0309 74.2604C92.662 77.1247 93.8742 80.5564 96.7386 81.9253Z" fill="url(#paint54_radial_476_10444)"/>
<path d="M86.9253 84.7772C89.7896 86.1461 93.2213 84.9339 94.5902 82.0696C95.9591 79.2053 94.7468 75.7736 91.8825 74.4047C89.0182 73.0357 85.5865 74.248 84.2176 77.1123C82.8487 79.9766 84.061 83.4083 86.9253 84.7772Z" fill="url(#paint55_radial_476_10444)"/>
<path fill-rule="evenodd" clip-rule="evenodd" d="M41.9489 23.0157C42.4861 23.2435 43.0489 23.3233 43.5919 23.2735C43.4708 23.4506 43.3653 23.6423 43.2783 23.8474C42.5725 25.5123 43.35 27.4342 45.0149 28.1401C46.0095 28.5618 47.0959 28.4541 47.9599 27.944C47.6884 29.4198 48.4644 30.9383 49.9034 31.5484C50.8433 31.9468 51.865 31.8726 52.7037 31.4329C52.7628 32.6491 53.5009 33.7838 54.697 34.2909C56.3619 34.9968 58.2838 34.2193 58.9897 32.5544C59.1208 32.2452 59.2007 31.9271 59.2333 31.6095C61.2249 32.3108 63.4444 31.35 64.28 29.3793C65.0658 27.5258 64.3583 25.4136 62.7 24.3835C63.1715 23.9937 63.5589 23.488 63.8142 22.8859C64.6639 20.8816 63.728 18.5679 61.7236 17.7181C60.2562 17.096 58.623 17.431 57.5198 18.4417C57.2614 17.5144 56.5983 16.7091 55.643 16.3041C54.319 15.7428 52.8324 16.1195 51.9242 17.1347C51.6955 16.1491 51.0146 15.2828 50.0118 14.8576C48.3469 14.1517 46.425 14.9292 45.7191 16.5941C45.6239 16.8188 45.5556 17.0481 45.5129 17.2785C45.2515 17.0536 44.9513 16.8647 44.6168 16.7229C42.8791 15.9862 40.8731 16.7976 40.1364 18.5353C39.3997 20.273 40.2111 22.279 41.9489 23.0157Z" fill="url(#paint56_linear_476_10444)"/>
<path fill-rule="evenodd" clip-rule="evenodd" d="M41.9489 23.0157C42.4861 23.2435 43.0489 23.3233 43.5919 23.2735C43.4708 23.4506 43.3653 23.6423 43.2783 23.8474C42.5725 25.5123 43.35 27.4342 45.0149 28.1401C46.0095 28.5618 47.0959 28.4541 47.9599 27.944C47.6884 29.4198 48.4644 30.9383 49.9034 31.5484C50.8433 31.9468 51.865 31.8726 52.7037 31.4329C52.7628 32.6491 53.5009 33.7838 54.697 34.2909C56.3619 34.9968 58.2838 34.2193 58.9897 32.5544C59.1208 32.2452 59.2007 31.9271 59.2333 31.6095C61.2249 32.3108 63.4444 31.35 64.28 29.3793C65.0658 27.5258 64.3583 25.4136 62.7 24.3835C63.1715 23.9937 63.5589 23.488 63.8142 22.8859C64.6639 20.8816 63.728 18.5679 61.7236 17.7181C60.2562 17.096 58.623 17.431 57.5198 18.4417C57.2614 17.5144 56.5983 16.7091 55.643 16.3041C54.319 15.7428 52.8324 16.1195 51.9242 17.1347C51.6955 16.1491 51.0146 15.2828 50.0118 14.8576C48.3469 14.1517 46.425 14.9292 45.7191 16.5941C45.6239 16.8188 45.5556 17.0481 45.5129 17.2785C45.2515 17.0536 44.9513 16.8647 44.6168 16.7229C42.8791 15.9862 40.8731 16.7976 40.1364 18.5353C39.3997 20.273 40.2111 22.279 41.9489 23.0157Z" fill="url(#paint57_radial_476_10444)"/>
<path d="M53.273 22.0431C54.7416 22.6658 56.437 21.9799 57.0597 20.5113C57.6823 19.0426 56.9965 17.3473 55.5278 16.7246C54.0592 16.1019 52.3638 16.7878 51.7412 18.2564C51.1185 19.7251 51.8043 21.4204 53.273 22.0431Z" fill="url(#paint58_radial_476_10444)"/>
<path d="M48.4393 26.6935C49.908 27.3161 51.6033 26.6303 52.226 25.1617C52.8486 23.693 52.1628 21.9976 50.6942 21.375C49.2255 20.7523 47.5301 21.4381 46.9075 22.9068C46.2848 24.3755 46.9706 26.0708 48.4393 26.6935Z" fill="url(#paint59_radial_476_10444)"/>
<path d="M58.5051 23.3561C59.9554 23.9709 61.6294 23.2937 62.2443 21.8435C62.8591 20.3933 62.1819 18.7192 60.7317 18.1044C59.2815 17.4895 57.6074 18.1667 56.9926 19.6169C56.3777 21.0672 57.0549 22.7412 58.5051 23.3561Z" fill="url(#paint60_radial_476_10444)"/>
<path d="M53.8303 28.2412C55.7181 29.0416 57.8972 28.16 58.6976 26.2722C59.498 24.3844 58.6164 22.2052 56.7286 21.4049C54.8408 20.6045 52.6616 21.4861 51.8613 23.3739C51.0609 25.2617 51.9425 27.4409 53.8303 28.2412Z" fill="url(#paint61_radial_476_10444)"/>
<path d="M59.1573 30.7635C60.9327 31.5162 62.9823 30.6871 63.735 28.9116C64.4877 27.1362 63.6586 25.0866 61.8832 24.3339C60.1077 23.5812 58.0582 24.4103 57.3054 26.1857C56.5527 27.9612 57.3818 30.0107 59.1573 30.7635Z" fill="url(#paint62_radial_476_10444)"/>
<path d="M47.5169 20.9121C49.096 21.5816 50.9189 20.8442 51.5884 19.265C52.2579 17.6859 51.5205 15.863 49.9413 15.1936C48.3622 14.5241 46.5393 15.2615 45.8698 16.8406C45.2003 18.4197 45.9377 20.2426 47.5169 20.9121Z" fill="url(#paint63_radial_476_10444)"/>
<path d="M42.2892 22.6891C43.8683 23.3586 45.6912 22.6212 46.3607 21.042C47.0302 19.4629 46.2928 17.64 44.7137 16.9705C43.1345 16.301 41.3117 17.0384 40.6422 18.6176C39.9727 20.1967 40.7101 22.0196 42.2892 22.6891Z" fill="url(#paint64_radial_476_10444)"/>
<path fill-rule="evenodd" clip-rule="evenodd" d="M107.172 12.2909C106.958 12.9409 106.594 13.4992 106.13 13.9399C106.38 13.9699 106.631 14.025 106.879 14.1069C108.894 14.7708 109.989 16.9422 109.325 18.9569C108.928 20.1604 107.994 21.0357 106.876 21.4039C108.389 22.3048 109.129 24.1633 108.555 25.9047C108.18 27.0421 107.325 27.8863 106.289 28.2865C107.316 29.2786 107.746 30.8066 107.27 32.2537C106.606 34.2683 104.434 35.3634 102.419 34.6995C101.864 34.5165 101.379 34.219 100.981 33.8419L100.699 33.8551C99.4801 34.9377 97.734 35.3603 96.0744 34.8134C94.4901 34.2913 93.3677 33.0121 92.9765 31.5096C92.0888 31.7857 91.1096 31.7976 90.1594 31.4845C87.734 30.6852 86.4157 28.0712 87.2149 25.6458C87.8 23.8703 89.3578 22.6881 91.1021 22.4956C90.4836 21.5509 90.2855 20.3434 90.6664 19.1876C91.1944 17.5852 92.6762 16.5646 94.2742 16.548C93.581 15.5844 93.3426 14.3139 93.7425 13.1002C94.4064 11.0856 96.5779 9.99054 98.5926 10.6545C98.8642 10.7439 99.1191 10.8608 99.3552 11.001C99.3588 10.5967 99.4242 10.1861 99.5575 9.78155C100.25 7.67878 102.517 6.53588 104.62 7.22882C106.722 7.92176 107.865 10.1881 107.172 12.2909Z" fill="url(#paint65_linear_476_10444)"/>
<path fill-rule="evenodd" clip-rule="evenodd" d="M107.172 12.2909C106.958 12.9409 106.594 13.4992 106.13 13.9399C106.38 13.9699 106.631 14.025 106.879 14.1069C108.894 14.7708 109.989 16.9422 109.325 18.9569C108.928 20.1604 107.994 21.0357 106.876 21.4039C108.389 22.3048 109.129 24.1633 108.555 25.9047C108.18 27.0421 107.325 27.8863 106.289 28.2865C107.316 29.2786 107.746 30.8066 107.27 32.2537C106.606 34.2683 104.434 35.3634 102.419 34.6995C101.864 34.5165 101.379 34.219 100.981 33.8419L100.699 33.8551C99.4801 34.9377 97.734 35.3603 96.0744 34.8134C94.4901 34.2913 93.3677 33.0121 92.9765 31.5096C92.0888 31.7857 91.1096 31.7976 90.1594 31.4845C87.734 30.6852 86.4157 28.0712 87.2149 25.6458C87.8 23.8703 89.3578 22.6881 91.1021 22.4956C90.4836 21.5509 90.2855 20.3434 90.6664 19.1876C91.1944 17.5852 92.6762 16.5646 94.2742 16.548C93.581 15.5844 93.3426 14.3139 93.7425 13.1002C94.4064 11.0856 96.5779 9.99054 98.5926 10.6545C98.8642 10.7439 99.1191 10.8608 99.3552 11.001C99.3588 10.5967 99.4242 10.1861 99.5575 9.78155C100.25 7.67878 102.517 6.53588 104.62 7.22882C106.722 7.92176 107.865 10.1881 107.172 12.2909Z" fill="url(#paint66_radial_476_10444)"/>
<path d="M97.5625 21.5319C96.9769 23.3091 95.0614 24.2751 93.2842 23.6894C91.507 23.1038 90.5411 21.1883 91.1267 19.4111C91.7124 17.6339 93.6278 16.668 95.405 17.2536C97.1822 17.8393 98.1482 19.7547 97.5625 21.5319Z" fill="url(#paint67_radial_476_10444)"/>
<path d="M105.403 20.8615C104.817 22.6387 102.902 23.6047 101.125 23.019C99.3473 22.4334 98.3814 20.5179 98.967 18.7407C99.5527 16.9635 101.468 15.9976 103.245 16.5832C105.022 17.1689 105.988 19.0843 105.403 20.8615Z" fill="url(#paint68_radial_476_10444)"/>
<path d="M94.6777 27.1643C94.0995 28.9192 92.2081 29.873 90.4532 29.2948C88.6983 28.7165 87.7445 26.8251 88.3228 25.0702C88.901 23.3153 90.7925 22.3615 92.5473 22.9398C94.3022 23.5181 95.256 25.4095 94.6777 27.1643Z" fill="url(#paint69_radial_476_10444)"/>
<path d="M102.602 26.8157C101.849 29.1 99.3867 30.3417 97.1023 29.5889C94.8179 28.8361 93.5763 26.374 94.329 24.0896C95.0818 21.8052 97.5439 20.5636 99.8283 21.3164C102.113 22.0692 103.354 24.5313 102.602 26.8157Z" fill="url(#paint70_radial_476_10444)"/>
<path d="M101.444 31.9062C100.736 34.0547 98.4209 35.2224 96.2724 34.5145C94.1239 33.8065 92.9562 31.4909 93.6642 29.3424C94.3722 27.1939 96.6878 26.0262 98.8362 26.7342C100.985 27.4422 102.152 29.7578 101.444 31.9062Z" fill="url(#paint71_radial_476_10444)"/>
<path d="M101.014 15.5795C100.385 17.4903 98.3251 18.5289 96.4142 17.8993C94.5033 17.2696 93.4647 15.21 94.0944 13.2992C94.7241 11.3883 96.7836 10.3497 98.6945 10.9794C100.605 11.6091 101.644 13.6686 101.014 15.5795Z" fill="url(#paint72_radial_476_10444)"/>
<path d="M106.622 12.3387C105.992 14.2496 103.933 15.2882 102.022 14.6585C100.111 14.0288 99.0725 11.9693 99.7022 10.0584C100.332 8.14758 102.391 7.10897 104.302 7.73866C106.213 8.36835 107.252 10.4279 106.622 12.3387Z" fill="url(#paint73_radial_476_10444)"/>
<defs>
<linearGradient id="paint0_linear_476_10444" x1="180.865" y1="90.5769" x2="178.689" y2="99.8077" gradientUnits="userSpaceOnUse">
<stop stop-color="#DEB894"/>
<stop offset="1" stop-color="#A38457"/>
</linearGradient>
<linearGradient id="paint1_linear_476_10444" x1="131.9" y1="62.3516" x2="129.876" y2="70.4234" gradientUnits="userSpaceOnUse">
<stop stop-color="#DEB894"/>
<stop offset="1" stop-color="#A38457"/>
</linearGradient>
<linearGradient id="paint2_linear_476_10444" x1="64.0681" y1="31.5426" x2="73.3803" y2="30.0301" gradientUnits="userSpaceOnUse">
<stop stop-color="#DEB894"/>
<stop offset="1" stop-color="#A38457"/>
</linearGradient>
<linearGradient id="paint3_linear_476_10444" x1="86.4298" y1="58.6083" x2="104.026" y2="59.0378" gradientUnits="userSpaceOnUse">
<stop stop-color="#DEB894"/>
<stop offset="1" stop-color="#A38457"/>
</linearGradient>
<linearGradient id="paint4_linear_476_10444" x1="127.245" y1="91.4641" x2="143.241" y2="86.7358" gradientUnits="userSpaceOnUse">
<stop stop-color="#DEB894"/>
<stop offset="1" stop-color="#A38457"/>
</linearGradient>
<linearGradient id="paint5_linear_476_10444" x1="94.9086" y1="33.7579" x2="92.1609" y2="41.3415" gradientUnits="userSpaceOnUse">
<stop stop-color="#DEB894"/>
<stop offset="1" stop-color="#A38457"/>
</linearGradient>
<linearGradient id="paint6_linear_476_10444" x1="166.442" y1="77.3786" x2="152.181" y2="120.03" gradientUnits="userSpaceOnUse">
<stop stop-color="#DEB894"/>
<stop offset="1" stop-color="#A38457"/>
</linearGradient>
<radialGradient id="paint7_radial_476_10444" cx="0" cy="0" r="1" gradientUnits="userSpaceOnUse" gradientTransform="translate(206.827 134.005) rotate(-158.063) scale(74.6345 22.3802)">
<stop stop-color="#402F03"/>
<stop offset="1" stop-color="#402F03" stop-opacity="0"/>
</radialGradient>
<radialGradient id="paint8_radial_476_10444" cx="0" cy="0" r="1" gradientUnits="userSpaceOnUse" gradientTransform="translate(111.346 75.0791) rotate(38.2441) scale(65.0101 17.2541)">
<stop stop-color="#402F03"/>
<stop offset="1" stop-color="#402F03" stop-opacity="0"/>
</radialGradient>
<radialGradient id="paint9_radial_476_10444" cx="0" cy="0" r="1" gradientUnits="userSpaceOnUse" gradientTransform="translate(72.1154 47.4845) rotate(31.7689) scale(60.0553 15.9271)">
<stop stop-color="#402F03"/>
<stop offset="1" stop-color="#402F03" stop-opacity="0"/>
</radialGradient>
<linearGradient id="paint10_linear_476_10444" x1="159.795" y1="46.0096" x2="204.939" y2="78.7499" gradientUnits="userSpaceOnUse">
<stop stop-color="#E3CB52"/>
<stop offset="1" stop-color="#C8AF34"/>
</linearGradient>
<radialGradient id="paint11_radial_476_10444" cx="0" cy="0" r="1" gradientUnits="userSpaceOnUse" gradientTransform="translate(171.189 52.6442) rotate(76.251) scale(41.8729 27.0438)">
<stop offset="0.684143" stop-color="#A38F2E" stop-opacity="0"/>
<stop offset="1" stop-color="#A38F2E"/>
</radialGradient>
<radialGradient id="paint12_radial_476_10444" cx="0" cy="0" r="1" gradientUnits="userSpaceOnUse" gradientTransform="translate(165.315 54.4672) rotate(75.3467) scale(8.72316)">
<stop stop-color="#FFF0A9"/>
<stop offset="1" stop-color="#F3E185" stop-opacity="0"/>
</radialGradient>
<radialGradient id="paint13_radial_476_10444" cx="0" cy="0" r="1" gradientUnits="userSpaceOnUse" gradientTransform="translate(179.354 48.4714) rotate(75.3467) scale(8.72316)">
<stop stop-color="#FFF0A9"/>
<stop offset="1" stop-color="#F3E185" stop-opacity="0"/>
</radialGradient>
<radialGradient id="paint14_radial_476_10444" cx="0" cy="0" r="1" gradientUnits="userSpaceOnUse" gradientTransform="translate(163.529 66.6192) rotate(75.3467) scale(8.61362)">
<stop stop-color="#FFF0A9"/>
<stop offset="1" stop-color="#F3E185" stop-opacity="0"/>
</radialGradient>
<radialGradient id="paint15_radial_476_10444" cx="0" cy="0" r="1" gradientUnits="userSpaceOnUse" gradientTransform="translate(175.853 65.0399) rotate(75.3467) scale(11.2127)">
<stop stop-color="#FFF0A9"/>
<stop offset="1" stop-color="#F3E185" stop-opacity="0"/>
</radialGradient>
<radialGradient id="paint16_radial_476_10444" cx="0" cy="0" r="1" gradientUnits="userSpaceOnUse" gradientTransform="translate(165.315 78.8557) rotate(75.3467) scale(8.72316)">
<stop stop-color="#FFF0A9"/>
<stop offset="1" stop-color="#F3E185" stop-opacity="0"/>
</radialGradient>
<radialGradient id="paint17_radial_476_10444" cx="0" cy="0" r="1" gradientUnits="userSpaceOnUse" gradientTransform="translate(177.604 80.8482) rotate(75.3467) scale(9.14577)">
<stop stop-color="#FFF0A9"/>
<stop offset="1" stop-color="#F3E185" stop-opacity="0"/>
</radialGradient>
<radialGradient id="paint18_radial_476_10444" cx="0" cy="0" r="1" gradientUnits="userSpaceOnUse" gradientTransform="translate(167.4 41.2634) rotate(75.3467) scale(9.37928)">
<stop stop-color="#FFF0A9"/>
<stop offset="1" stop-color="#F3E185" stop-opacity="0"/>
</radialGradient>
<radialGradient id="paint19_radial_476_10444" cx="0" cy="0" r="1" gradientUnits="userSpaceOnUse" gradientTransform="translate(175.766 31.8884) rotate(75.3467) scale(9.37928)">
<stop stop-color="#FFF0A9"/>
<stop offset="1" stop-color="#F3E185" stop-opacity="0"/>
</radialGradient>
<radialGradient id="paint20_radial_476_10444" cx="0" cy="0" r="1" gradientUnits="userSpaceOnUse" gradientTransform="translate(210.882 41.2399) rotate(90) scale(8.44877)">
<stop offset="0.440384" stop-color="#D1B83E"/>
<stop offset="1" stop-color="#F3E185" stop-opacity="0"/>
</radialGradient>
<radialGradient id="paint21_radial_476_10444" cx="0" cy="0" r="1" gradientUnits="userSpaceOnUse" gradientTransform="translate(200.024 20.4718) rotate(90) scale(4.07677)">
<stop offset="0.440384" stop-color="#D1B83E"/>
<stop offset="1" stop-color="#F3E185" stop-opacity="0"/>
</radialGradient>
<radialGradient id="paint22_radial_476_10444" cx="0" cy="0" r="1" gradientUnits="userSpaceOnUse" gradientTransform="translate(116.517 30.8296) rotate(90) scale(3.71539)">
<stop offset="0.440384" stop-color="#D1B83E"/>
<stop offset="1" stop-color="#F3E185" stop-opacity="0"/>
</radialGradient>
<radialGradient id="paint23_radial_476_10444" cx="0" cy="0" r="1" gradientUnits="userSpaceOnUse" gradientTransform="translate(57.0885 84.1838) rotate(90) scale(6.05699)">
<stop offset="0.440384" stop-color="#D1B83E"/>
<stop offset="1" stop-color="#F3E185" stop-opacity="0"/>
</radialGradient>
<radialGradient id="paint24_radial_476_10444" cx="0" cy="0" r="1" gradientUnits="userSpaceOnUse" gradientTransform="translate(47.2288 98.081) rotate(90) scale(3.80704)">
<stop offset="0.440384" stop-color="#D1B83E"/>
<stop offset="1" stop-color="#F3E185" stop-opacity="0"/>
</radialGradient>
<radialGradient id="paint25_radial_476_10444" cx="0" cy="0" r="1" gradientUnits="userSpaceOnUse" gradientTransform="translate(123.218 16.1929) rotate(90) scale(9.98758)">
<stop stop-color="#D1B83E"/>
<stop offset="1" stop-color="#F3E185" stop-opacity="0"/>
</radialGradient>
<radialGradient id="paint26_radial_476_10444" cx="0" cy="0" r="1" gradientUnits="userSpaceOnUse" gradientTransform="translate(219.331 60.9674) rotate(90) scale(17.3346)">
<stop stop-color="#D1B83E"/>
<stop offset="1" stop-color="#F3E185" stop-opacity="0"/>
</radialGradient>
<radialGradient id="paint27_radial_476_10444" cx="0" cy="0" r="1" gradientUnits="userSpaceOnUse" gradientTransform="translate(66.1962 100.503) rotate(90) scale(13.32)">
<stop stop-color="#D1B83E"/>
<stop offset="1" stop-color="#F3E185" stop-opacity="0"/>
</radialGradient>
<linearGradient id="paint28_linear_476_10444" x1="56.4857" y1="43.0068" x2="75.2532" y2="77.1409" gradientUnits="userSpaceOnUse">
<stop stop-color="#E3CB52"/>
<stop offset="1" stop-color="#C8AF34"/>
</linearGradient>
<radialGradient id="paint29_radial_476_10444" cx="0" cy="0" r="1" gradientUnits="userSpaceOnUse" gradientTransform="translate(60.0936 51.4805) rotate(20.8974) scale(29.2484 18.8902)">
<stop offset="0.684143" stop-color="#A38F2E" stop-opacity="0"/>
<stop offset="1" stop-color="#A38F2E"/>
</radialGradient>
<radialGradient id="paint30_radial_476_10444" cx="0" cy="0" r="1" gradientUnits="userSpaceOnUse" gradientTransform="translate(61.8675 47.5675) rotate(21.8016) scale(6.09316)">
<stop stop-color="#FFF0A9"/>
<stop offset="1" stop-color="#F3E185" stop-opacity="0"/>
</radialGradient>
<radialGradient id="paint31_radial_476_10444" cx="0" cy="0" r="1" gradientUnits="userSpaceOnUse" gradientTransform="translate(56.4917 56.7769) rotate(21.8016) scale(6.09316)">
<stop stop-color="#FFF0A9"/>
<stop offset="1" stop-color="#F3E185" stop-opacity="0"/>
</radialGradient>
<radialGradient id="paint32_radial_476_10444" cx="0" cy="0" r="1" gradientUnits="userSpaceOnUse" gradientTransform="translate(70.4451 47.3869) rotate(21.8016) scale(6.01665)">
<stop stop-color="#FFF0A9"/>
<stop offset="1" stop-color="#F3E185" stop-opacity="0"/>
</radialGradient>
<radialGradient id="paint33_radial_476_10444" cx="0" cy="0" r="1" gradientUnits="userSpaceOnUse" gradientTransform="translate(68.2795 55.7898) rotate(21.8016) scale(7.83209)">
<stop stop-color="#FFF0A9"/>
<stop offset="1" stop-color="#F3E185" stop-opacity="0"/>
</radialGradient>
<radialGradient id="paint34_radial_476_10444" cx="0" cy="0" r="1" gradientUnits="userSpaceOnUse" gradientTransform="translate(78.7706 49.6883) rotate(21.8016) scale(6.09316)">
<stop stop-color="#FFF0A9"/>
<stop offset="1" stop-color="#F3E185" stop-opacity="0"/>
</radialGradient>
<radialGradient id="paint35_radial_476_10444" cx="0" cy="0" r="1" gradientUnits="userSpaceOnUse" gradientTransform="translate(79.0835 58.3778) rotate(21.8016) scale(6.38835)">
<stop stop-color="#FFF0A9"/>
<stop offset="1" stop-color="#F3E185" stop-opacity="0"/>
</radialGradient>
<radialGradient id="paint36_radial_476_10444" cx="0" cy="0" r="1" gradientUnits="userSpaceOnUse" gradientTransform="translate(52.5351 47.8666) rotate(21.8016) scale(6.55146)">
<stop stop-color="#FFF0A9"/>
<stop offset="1" stop-color="#F3E185" stop-opacity="0"/>
</radialGradient>
<radialGradient id="paint37_radial_476_10444" cx="0" cy="0" r="1" gradientUnits="userSpaceOnUse" gradientTransform="translate(45.3103 52.8492) rotate(21.8016) scale(6.55146)">
<stop stop-color="#FFF0A9"/>
<stop offset="1" stop-color="#F3E185" stop-opacity="0"/>
</radialGradient>
<linearGradient id="paint38_linear_476_10444" x1="127.437" y1="32.3" x2="149.421" y2="61.9403" gradientUnits="userSpaceOnUse">
<stop stop-color="#E3CB52"/>
<stop offset="1" stop-color="#C8AF34"/>
</linearGradient>
<radialGradient id="paint39_radial_476_10444" cx="0" cy="0" r="1" gradientUnits="userSpaceOnUse" gradientTransform="translate(133.131 38.885) rotate(94.853) scale(28.1806 17.7555)">
<stop offset="0.684143" stop-color="#A38F2E" stop-opacity="0"/>
<stop offset="1" stop-color="#A38F2E"/>
</radialGradient>
<radialGradient id="paint40_radial_476_10444" cx="0" cy="0" r="1" gradientUnits="userSpaceOnUse" gradientTransform="translate(129.219 38.8897) rotate(93.5853) scale(5.8797)">
<stop stop-color="#FFF0A9"/>
<stop offset="1" stop-color="#F3E185" stop-opacity="0"/>
</radialGradient>
<radialGradient id="paint41_radial_476_10444" cx="0" cy="0" r="1" gradientUnits="userSpaceOnUse" gradientTransform="translate(139.471 38.013) rotate(93.5853) scale(5.8797)">
<stop stop-color="#FFF0A9"/>
<stop offset="1" stop-color="#F3E185" stop-opacity="0"/>
</radialGradient>
<radialGradient id="paint42_radial_476_10444" cx="0" cy="0" r="1" gradientUnits="userSpaceOnUse" gradientTransform="translate(125.512 46.2929) rotate(93.5853) scale(5.80586)">
<stop stop-color="#FFF0A9"/>
<stop offset="1" stop-color="#F3E185" stop-opacity="0"/>
</radialGradient>
<radialGradient id="paint43_radial_476_10444" cx="0" cy="0" r="1" gradientUnits="userSpaceOnUse" gradientTransform="translate(134.317 44.9276) rotate(93.5853) scale(7.5577)">
<stop stop-color="#FFF0A9"/>
<stop offset="1" stop-color="#F3E185" stop-opacity="0"/>
</radialGradient>
<radialGradient id="paint44_radial_476_10444" cx="0" cy="0" r="1" gradientUnits="userSpaceOnUse" gradientTransform="translate(132.242 53.8552) rotate(93.5853) scale(7.108)">
<stop stop-color="#FFF0A9"/>
<stop offset="1" stop-color="#F3E185" stop-opacity="0"/>
</radialGradient>
<radialGradient id="paint45_radial_476_10444" cx="0" cy="0" r="1" gradientUnits="userSpaceOnUse" gradientTransform="translate(133.339 30.8765) rotate(93.5853) scale(6.32194)">
<stop stop-color="#FFF0A9"/>
<stop offset="1" stop-color="#F3E185" stop-opacity="0"/>
</radialGradient>
<radialGradient id="paint46_radial_476_10444" cx="0" cy="0" r="1" gradientUnits="userSpaceOnUse" gradientTransform="translate(140.672 26.6398) rotate(93.5853) scale(6.32194)">
<stop stop-color="#FFF0A9"/>
<stop offset="1" stop-color="#F3E185" stop-opacity="0"/>
</radialGradient>
<linearGradient id="paint47_linear_476_10444" x1="104.745" y1="70.3405" x2="112.211" y2="114.241" gradientUnits="userSpaceOnUse">
<stop stop-color="#E3CB52"/>
<stop offset="1" stop-color="#C8AF34"/>
</linearGradient>
<radialGradient id="paint48_radial_476_10444" cx="0" cy="0" r="1" gradientUnits="userSpaceOnUse" gradientTransform="translate(105.727 80.7996) rotate(38.9297) scale(34.005 21.4253)">
<stop offset="0.684143" stop-color="#A38F2E" stop-opacity="0"/>
<stop offset="1" stop-color="#A38F2E"/>
</radialGradient>
<radialGradient id="paint49_radial_476_10444" cx="0" cy="0" r="1" gradientUnits="userSpaceOnUse" gradientTransform="translate(108.998 77.396) rotate(40.1973) scale(7.09493)">
<stop stop-color="#FFF0A9"/>
<stop offset="1" stop-color="#F3E185" stop-opacity="0"/>
</radialGradient>
<radialGradient id="paint50_radial_476_10444" cx="0" cy="0" r="1" gradientUnits="userSpaceOnUse" gradientTransform="translate(99.674 85.5947) rotate(40.1973) scale(7.09493)">
<stop stop-color="#FFF0A9"/>
<stop offset="1" stop-color="#F3E185" stop-opacity="0"/>
</radialGradient>
<radialGradient id="paint51_radial_476_10444" cx="0" cy="0" r="1" gradientUnits="userSpaceOnUse" gradientTransform="translate(118.542 80.3459) rotate(40.1973) scale(7.00583)">
<stop stop-color="#FFF0A9"/>
<stop offset="1" stop-color="#F3E185" stop-opacity="0"/>
</radialGradient>
<radialGradient id="paint52_radial_476_10444" cx="0" cy="0" r="1" gradientUnits="userSpaceOnUse" gradientTransform="translate(110.002 86.8777) rotate(40.1973) scale(9.11974)">
<stop stop-color="#FFF0A9"/>
<stop offset="1" stop-color="#F3E185" stop-opacity="0"/>
</radialGradient>
<radialGradient id="paint53_radial_476_10444" cx="0" cy="0" r="1" gradientUnits="userSpaceOnUse" gradientTransform="translate(119.512 92.5246) rotate(40.1973) scale(8.5771)">
<stop stop-color="#FFF0A9"/>
<stop offset="1" stop-color="#F3E185" stop-opacity="0"/>
</radialGradient>
<radialGradient id="paint54_radial_476_10444" cx="0" cy="0" r="1" gradientUnits="userSpaceOnUse" gradientTransform="translate(98.5766 74.294) rotate(40.1973) scale(7.62857)">
<stop stop-color="#FFF0A9"/>
<stop offset="1" stop-color="#F3E185" stop-opacity="0"/>
</radialGradient>
<radialGradient id="paint55_radial_476_10444" cx="0" cy="0" r="1" gradientUnits="userSpaceOnUse" gradientTransform="translate(88.7633 77.1459) rotate(40.1973) scale(7.62857)">
<stop stop-color="#FFF0A9"/>
<stop offset="1" stop-color="#F3E185" stop-opacity="0"/>
</radialGradient>
<linearGradient id="paint56_linear_476_10444" x1="51.5573" y1="14.4664" x2="56.6505" y2="37.9802" gradientUnits="userSpaceOnUse">
<stop stop-color="#E3CB52"/>
<stop offset="1" stop-color="#C8AF34"/>
</linearGradient>
<radialGradient id="paint57_radial_476_10444" cx="0" cy="0" r="1" gradientUnits="userSpaceOnUse" gradientTransform="translate(52.3407 20.0878) rotate(36.3609) scale(18.3723 11.5757)">
<stop offset="0.684143" stop-color="#A38F2E" stop-opacity="0"/>
<stop offset="1" stop-color="#A38F2E"/>
</radialGradient>
<radialGradient id="paint58_radial_476_10444" cx="0" cy="0" r="1" gradientUnits="userSpaceOnUse" gradientTransform="translate(54.0238 18.1709) rotate(37.6286) scale(3.83326)">
<stop stop-color="#FFF0A9"/>
<stop offset="1" stop-color="#F3E185" stop-opacity="0"/>
</radialGradient>
<radialGradient id="paint59_radial_476_10444" cx="0" cy="0" r="1" gradientUnits="userSpaceOnUse" gradientTransform="translate(49.1901 22.8213) rotate(37.6286) scale(3.83326)">
<stop stop-color="#FFF0A9"/>
<stop offset="1" stop-color="#F3E185" stop-opacity="0"/>
</radialGradient>
<radialGradient id="paint60_radial_476_10444" cx="0" cy="0" r="1" gradientUnits="userSpaceOnUse" gradientTransform="translate(59.2465 19.5325) rotate(37.6286) scale(3.78513)">
<stop stop-color="#FFF0A9"/>
<stop offset="1" stop-color="#F3E185" stop-opacity="0"/>
</radialGradient>
<radialGradient id="paint61_radial_476_10444" cx="0" cy="0" r="1" gradientUnits="userSpaceOnUse" gradientTransform="translate(54.7953 23.264) rotate(37.6286) scale(4.92724)">
<stop stop-color="#FFF0A9"/>
<stop offset="1" stop-color="#F3E185" stop-opacity="0"/>
</radialGradient>
<radialGradient id="paint62_radial_476_10444" cx="0" cy="0" r="1" gradientUnits="userSpaceOnUse" gradientTransform="translate(60.0649 26.0824) rotate(37.6286) scale(4.63405)">
<stop stop-color="#FFF0A9"/>
<stop offset="1" stop-color="#F3E185" stop-opacity="0"/>
</radialGradient>
<radialGradient id="paint63_radial_476_10444" cx="0" cy="0" r="1" gradientUnits="userSpaceOnUse" gradientTransform="translate(48.3241 16.7487) rotate(37.6286) scale(4.12158)">
<stop stop-color="#FFF0A9"/>
<stop offset="1" stop-color="#F3E185" stop-opacity="0"/>
</radialGradient>
<radialGradient id="paint64_radial_476_10444" cx="0" cy="0" r="1" gradientUnits="userSpaceOnUse" gradientTransform="translate(43.0965 18.5256) rotate(37.6286) scale(4.12158)">
<stop stop-color="#FFF0A9"/>
<stop offset="1" stop-color="#F3E185" stop-opacity="0"/>
</radialGradient>
<linearGradient id="paint65_linear_476_10444" x1="92.2027" y1="14.1621" x2="109.015" y2="36.8294" gradientUnits="userSpaceOnUse">
<stop stop-color="#E3CB52"/>
<stop offset="1" stop-color="#C8AF34"/>
</linearGradient>
<radialGradient id="paint66_radial_476_10444" cx="0" cy="0" r="1" gradientUnits="userSpaceOnUse" gradientTransform="translate(96.5576 19.198) rotate(94.853) scale(21.551 13.5785)">
<stop offset="0.684143" stop-color="#A38F2E" stop-opacity="0"/>
<stop offset="1" stop-color="#A38F2E"/>
</radialGradient>
<radialGradient id="paint67_radial_476_10444" cx="0" cy="0" r="1" gradientUnits="userSpaceOnUse" gradientTransform="translate(93.5654 19.2017) rotate(93.5853) scale(4.49648)">
<stop stop-color="#FFF0A9"/>
<stop offset="1" stop-color="#F3E185" stop-opacity="0"/>
</radialGradient>
<radialGradient id="paint68_radial_476_10444" cx="0" cy="0" r="1" gradientUnits="userSpaceOnUse" gradientTransform="translate(101.406 18.5313) rotate(93.5853) scale(4.49648)">
<stop stop-color="#FFF0A9"/>
<stop offset="1" stop-color="#F3E185" stop-opacity="0"/>
</radialGradient>
<radialGradient id="paint69_radial_476_10444" cx="0" cy="0" r="1" gradientUnits="userSpaceOnUse" gradientTransform="translate(90.7308 24.8634) rotate(93.5853) scale(4.44002)">
<stop stop-color="#FFF0A9"/>
<stop offset="1" stop-color="#F3E185" stop-opacity="0"/>
</radialGradient>
<radialGradient id="paint70_radial_476_10444" cx="0" cy="0" r="1" gradientUnits="userSpaceOnUse" gradientTransform="translate(97.4637 23.8205) rotate(93.5853) scale(5.77974)">
<stop stop-color="#FFF0A9"/>
<stop offset="1" stop-color="#F3E185" stop-opacity="0"/>
</radialGradient>
<radialGradient id="paint71_radial_476_10444" cx="0" cy="0" r="1" gradientUnits="userSpaceOnUse" gradientTransform="translate(96.6123 29.0893) rotate(93.5853) scale(5.43583)">
<stop stop-color="#FFF0A9"/>
<stop offset="1" stop-color="#F3E185" stop-opacity="0"/>
</radialGradient>
<radialGradient id="paint72_radial_476_10444" cx="0" cy="0" r="1" gradientUnits="userSpaceOnUse" gradientTransform="translate(96.7165 13.074) rotate(93.5853) scale(4.83469)">
<stop stop-color="#FFF0A9"/>
<stop offset="1" stop-color="#F3E185" stop-opacity="0"/>
</radialGradient>
<radialGradient id="paint73_radial_476_10444" cx="0" cy="0" r="1" gradientUnits="userSpaceOnUse" gradientTransform="translate(102.324 9.8333) rotate(93.5853) scale(4.83469)">
<stop stop-color="#FFF0A9"/>
<stop offset="1" stop-color="#F3E185" stop-opacity="0"/>
</radialGradient>
</defs>
</svg>
