<svg xmlns="http://www.w3.org/2000/svg" width="18" height="18" viewBox="0 0 18 18">
  <path fill="#EC5B62" d="M15.5035714,14.6642857 C15.3035714,14.3642857 8.92357143,1.86428571 8.92357143,1.86428571 C8.92357143,1.86428571 8.42357143,0.964285714 8.02357143,0.964285714 C7.62357143,0.964285714 7.12357143,1.86428571 7.12357143,1.86428571 C7.12357143,1.86428571 0.653571429,14.5642857 0.453571429,14.8642857 C0.253571429,15.1642857 0.253571429,15.9642857 1.25357143,15.9642857 L14.8035714,15.9642857 C15.2832246,15.931683 15.6460013,15.5170172 15.6145714,15.0372857 C15.6067,14.9060792 15.5687186,14.7784477 15.5035714,14.6642857 Z M9.00357143,13.7142857 C9.00247303,13.8526798 8.88996986,13.9642901 8.75157143,13.9642857 L7.20357143,13.9642857 C7.09645664,13.9566059 7.01125127,13.8714005 7.00357143,13.7642857 L7.00357143,12.1702857 C7.01040161,12.0627849 7.09607061,11.9771159 7.20357143,11.9702857 L8.81257143,11.9702857 C8.92007225,11.9771159 9.00574125,12.0627849 9.01257143,12.1702857 L9.00357143,13.7142857 Z M9.00357143,10.8035714 C9.00302334,10.941415 8.89141495,11.0530233 8.75357143,11.0535714 L7.20357143,11.0535714 C7.09645664,11.0458916 7.01125127,10.9606862 7.00357143,10.8535714 L7.00357143,5.16928571 C7.01040161,5.0617849 7.09607061,4.9761159 7.20357143,4.96928571 L8.81257143,4.96928571 C8.92007225,4.9761159 9.00574125,5.0617849 9.01257143,5.16928571 L9.00357143,10.8035714 Z" transform="translate(1)"/>
</svg>
