<?xml version="1.0" encoding="utf-8"?>
<!-- Generator: Adobe Illustrator 22.0.1, SVG Export Plug-In . SVG Version: 6.00 Build 0)  -->
<svg version="1.1" id="Layer_1" xmlns="http://www.w3.org/2000/svg" xmlns:xlink="http://www.w3.org/1999/xlink" x="0px" y="0px"
	 viewBox="0 0 18 18" style="enable-background:new 0 0 18 18;" xml:space="preserve">
<style type="text/css">
	.bg{fill:#323232;}
	.st0{fill:#2D2D2D;}
	.st1{fill:#8E8E8E;}
</style>
<g>
	<g id="s_checkbox_unselected_18">
		<rect class="bg" width="18" height="18"/>
		<g id="Checkbox" transform="translate(5999 2190)">
			<path id="Box_Background" class="st0" d="M-5995-2188h10c1.1,0,2,0.9,2,2v10c0,1.1-0.9,2-2,2h-10c-1.1,0-2-0.9-2-2v-10
				C-5997-2187.1-5996.1-2188-5995-2188z"/>
			<path id="Box_Border" class="st1" d="M-5995-2188h10c1.1,0,2,0.9,2,2v10c0,1.1-0.9,2-2,2h-10c-1.1,0-2-0.9-2-2v-10
				C-5997-2187.1-5996.1-2188-5995-2188z M-5995-2186v10h10v-10H-5995z"/>
		</g>
	</g>
</g>
</svg>
