<svg xmlns="http://www.w3.org/2000/svg" width="90" height="90" viewBox="0 0 90 90">
  <g fill="none" fill-rule="evenodd">
    <path fill="#26C0C7" fill-rule="nonzero" d="M29,58 C28.9837782,57.7301366 29.0839147,57.4662481 29.2750814,57.2750814 C29.4662481,57.0839147 29.7301366,56.9837782 30,57 L61,57 C61.5522847,57 62,57.4477153 62,58 C62,58.5522847 61.5522847,59 61,59 L30,59 C29.7301366,59.0162218 29.4662481,58.9160853 29.2750814,58.7249186 C29.0839147,58.5337519 28.9837782,58.2698634 29,58 L29,58 Z M29,64 C28.9837782,63.7301366 29.0839147,63.4662481 29.2750814,63.2750814 C29.4662481,63.0839147 29.7301366,62.9837782 30,63 L61,63 C61.5522847,63 62,63.4477153 62,64 C62,64.5522847 61.5522847,65 61,65 L30,65 C29.7301366,65.0162218 29.4662481,64.9160853 29.2750814,64.7249186 C29.0839147,64.5337519 28.9837782,64.2698634 29,64 L29,64 Z M56.694,42.988 C56.6630045,43.1432591 56.5943232,43.28852 56.494,43.411 C56.3892129,43.5587898 56.247969,43.6769524 56.084,43.754 C55.7985663,43.9075703 55.4834393,43.9979476 55.16,44.019 C54.7409701,44.0580958 54.3186964,44.0446583 53.903,43.979 C53.0633208,43.8234975 52.2555298,43.5287721 51.513,43.107 C50.6939851,42.6611396 49.9159607,42.1437952 49.188,41.561 C50.2581931,41.3864888 51.3406726,41.298205 52.425,41.297 C53.2376413,41.2785172 54.0504177,41.3273507 54.855,41.443 C55.3584864,41.5092538 55.8362854,41.7045761 56.242,42.01 C56.5636096,42.2256793 56.7370749,42.6035167 56.691,42.988 L56.694,42.988 Z M44.528,41.932 C44.079,42.05 43.577,42.169 43.063,42.302 C42.549,42.435 42.045,42.566 41.582,42.711 C41.833,42.249 42.059,41.733 42.282,41.231 C42.505,40.729 42.704,40.24 42.889,39.804 C43.1,39.29 43.325,38.735 43.536,38.193 C43.747,37.651 43.959,37.093 44.144,36.593 C44.344,36.91 44.594,37.306 44.844,37.693 C45.094,38.08 45.344,38.447 45.558,38.737 C45.901,39.199 46.258,39.648 46.614,40.058 C46.9641306,40.4679711 47.3345957,40.86013 47.724,41.233 C47.209,41.326 46.694,41.433 46.152,41.55 C45.61,41.667 45.082,41.802 44.527,41.934 L44.528,41.932 Z M42.348,29.211 C42.3431653,28.8650382 42.3743331,28.519512 42.441,28.18 C42.4920513,27.921989 42.5810156,27.6729564 42.705,27.441 C42.7816758,27.3060931 42.8910245,27.1926181 43.023,27.111 C43.1525429,27.0272972 43.3028023,26.98125 43.457,26.978 C43.8456978,26.9885518 44.1970133,27.2122559 44.371,27.56 C44.5535757,27.8679752 44.6531511,28.2180395 44.66,28.576 C44.6557481,29.4127427 44.5314824,30.2445484 44.291,31.046 C44.066,31.946 43.736,32.922 43.406,33.966 C43.0687954,33.1219924 42.798952,32.2526087 42.599,31.366 C42.4436237,30.6585197 42.3595369,29.9372493 42.348,29.213 L42.348,29.211 Z M33.511,49.817019 C33.409764,49.8175819 33.3088937,49.804805 33.211,49.779 C33.1209305,49.7429124 33.0366874,49.6937145 32.961,49.633 C32.8483199,49.5202368 32.7625244,49.3835109 32.71,49.233 C32.668962,49.0813947 32.668962,48.9216053 32.71,48.77 C33.1093785,47.8812417 33.7796954,47.1416179 34.625,46.657 C35.9618551,45.7231898 37.3971042,44.9388328 38.905,44.318 C38.142996,45.8099189 37.1531161,47.1739559 35.971,48.361 C35.3367333,49.104832 34.4724417,49.6158057 33.515,49.813 L33.511,49.817019 Z M57.311,41.932 C56.8099017,41.4726051 56.1937697,41.1574551 55.528,41.02 C54.5877427,40.8058673 53.6252178,40.7051497 52.661,40.72 C52.067,40.72 51.433,40.746 50.746,40.813 C50.085,40.866 49.372,40.958 48.618,41.076 C48.197,40.693 47.774,40.259 47.365,39.808 C46.956,39.357 46.558,38.845 46.165,38.316 C45.8883333,37.9473333 45.6243333,37.564 45.373,37.166 C45.122,36.783 44.873,36.387 44.646,35.978 C45.0334124,34.8345312 45.3555974,33.669991 45.611,32.49 C45.809423,31.6047159 45.9199591,30.7020044 45.941,29.795 C45.9681217,28.9951615 45.7963202,28.2010947 45.441,27.484 C45.0790365,26.7976909 44.3542162,26.3811722 43.579,26.414 C43.2782786,26.424856 42.9843423,26.5063908 42.721,26.652 C42.4520151,26.787673 42.2241594,26.9927431 42.061,27.246 C41.6123945,28.2588817 41.5012616,29.3891419 41.744,30.47 C42.0026186,32.0172648 42.4779576,33.5203727 43.156,34.935 C42.892,35.714 42.589,36.435 42.271,37.181 C41.941,37.907 41.598,38.673 41.253,39.492 C40.953,40.192 40.66,40.839 40.353,41.474 C40.046,42.109 39.719,42.728 39.353,43.388 C37.5376617,44.0550733 35.8152987,44.9520463 34.228,46.057 C33.2248885,46.6407685 32.4511986,47.5495808 32.035,48.633 C31.9792568,48.8924983 31.9976227,49.1624431 32.088,49.412 C32.1810715,49.6656337 32.3348927,49.8925887 32.536,50.073 C32.6870822,50.2014475 32.8553771,50.3081465 33.036,50.39 C33.3824437,50.5425294 33.7574891,50.6192432 34.136,50.6151669 C35.522,50.6151669 36.883,49.544 38.085,48.144 C39.2190442,46.7552223 40.2232546,45.2653087 41.085,43.693 C41.653,43.508 42.273,43.322 42.907,43.138 C43.541,42.954 44.163,42.795 44.744,42.649 C45.378,42.477 45.985,42.319 46.581,42.173 C47.177,42.027 47.755,41.896 48.338,41.804 C49.5360593,42.8795172 50.9306089,43.7134627 52.445,44.26 C53.3695975,44.5914113 54.3419837,44.7700818 55.324,44.789 C55.9103715,44.8162228 56.493578,44.688614 57.015,44.419 C57.3097769,44.2426362 57.5374217,43.9731216 57.662,43.653 C57.7015991,43.5645535 57.7285308,43.4709659 57.742,43.375 C57.7528148,43.283085 57.7571589,43.1905238 57.755,43.098 C57.7555377,42.8722925 57.7152118,42.6483519 57.636,42.437 C57.5683609,42.249063 57.4601263,42.0783461 57.319,41.937 L57.311,41.932 Z"/>
    <path fill="#26C0C7" fill-rule="nonzero" d="M68 70C68 72.9 67 74 64 74L26 74C22.9 74 22 72.9 22 70L22 54.878 19 57.878 19 71C19.0098844 74.3096056 21.6903944 76.9901156 25 77L65 77C68.3096056 76.9901156 70.9901156 74.3096056 71 71L71 57.76 68 54.76 68 70zM68.5 24.4L59.6 14.5C58.6864745 13.5439584 57.4223236 13.0021795 56.1 13L25 13C21.6903944 13.0098844 19.0098844 15.6903944 19 19L19 32.847 22 35.847 22 20C22 17.1 23.1 16 26 16L56 16C56.7980926 15.9776236 57.5657949 16.3066389 58.1 16.9L66.2 26.2C66.7527872 26.7952281 67.0413327 27.5887283 67 28.4L67 35.965 70.0004559 32.965 70.0004559 28C70.0184604 26.6443733 69.4755739 25.3414457 68.5 24.4zM25.807 47.072L16.132 56.747C15.6819902 57.2052199 15.0652214 57.4610941 14.423 57.456085 13.7807111 57.4614402 13.1638125 57.2055121 12.714 56.747 12.2562511 56.2959398 11.9985206 55.6801425 11.9985206 55.0375 11.9985206 54.3948575 12.2562511 53.7790602 12.714 53.328L20.679 45.363 12.714 37.4C12.2565608 36.9489773 11.9990279 36.3333955 11.9990279 35.691 11.9990279 35.0486045 12.2565608 34.4330227 12.714 33.982 13.166616 33.5275428 13.7816011 33.2720761 14.423 33.2720761 15.0643989 33.2720761 15.679384 33.5275428 16.132 33.982L25.807 43.656C26.2638201 44.1069471 26.5209585 44.7220982 26.5209585 45.364 26.5209585 46.0059018 26.2638201 46.6210529 25.807 47.072zM77.405 53.328C77.8627489 53.7790602 78.1204794 54.3948575 78.1204794 55.0375 78.1204794 55.6801425 77.8627489 56.2959398 77.405 56.747 76.952122 57.2009647 76.3372351 57.4560909 75.696 57.4560909 75.0547649 57.4560909 74.439878 57.2009647 73.987 56.747L64.312 47.072C63.8542511 46.6209398 63.5965206 46.0051425 63.5965206 45.3625 63.5965206 44.7198575 63.8542511 44.1040602 64.312 43.653L73.987 33.979C74.439616 33.5245428 75.0546011 33.2690761 75.696 33.2690761 76.3373989 33.2690761 76.952384 33.5245428 77.405 33.979 77.8624392 34.4300227 78.1199721 35.0456045 78.1199721 35.688 78.1199721 36.3303955 77.8624392 36.9459773 77.405 37.397L69.44 45.363 77.405 53.328z"/>
  </g>
</svg>
