<svg xmlns="http://www.w3.org/2000/svg" xmlns:xlink="http://www.w3.org/1999/xlink" width="90" height="90" viewBox="0 0 90 90">
  <defs>
    <clipPath id="clip-path">
      <path id="Path_8" data-name="Path 8" d="M56.1,9H25a6.018,6.018,0,0,0-6,6V67a6.018,6.018,0,0,0,6,6H65a6.018,6.018,0,0,0,6-6V24a4.91,4.91,0,0,0-1.5-3.6l-9.9-9.9A4.852,4.852,0,0,0,56.1,9ZM56,12a2.723,2.723,0,0,1,2.1.9l9.1,9.3a3.008,3.008,0,0,1,.8,2.2V66c0,2.9-1,4-4,4H26c-3.1,0-4-1.1-4-4V16c0-2.9,1.1-4,4-4Z" fill="none"/>
    </clipPath>
    <clipPath id="clip-path-2">
      <rect id="Rectangle_17" data-name="Rectangle 17" width="90" height="90" fill="none"/>
    </clipPath>
    <clipPath id="clip-path-3">
      <path id="Path_9" data-name="Path 9" d="M49.3,37.5a20.2,20.2,0,0,1,3.3-.3,13.469,13.469,0,0,1,2.2.1,1.7,1.7,0,0,1,1,.6,1.163,1.163,0,0,1,.2,1,1.419,1.419,0,0,1-.8.9,2.45,2.45,0,0,1-1.5.1,8.657,8.657,0,0,1-2.4-1A17.3,17.3,0,0,1,49.3,37.5Zm-1-.3c-.5.1-1.1.2-1.6.3-.6.1-1.1.3-1.7.4-.5.1-1,.3-1.5.4a8.8,8.8,0,0,0-1.5.5c.3-.5.5-1,.8-1.5l.6-1.5c.2-.5.4-1.1.7-1.7.2-.6.4-1.1.6-1.7.2.3.4.7.6,1s.5.7.7,1a13.444,13.444,0,0,0,1.1,1.4A17.411,17.411,0,0,0,48.3,37.2ZM33.1,44.6c.1-.6.8-1.3,1.8-2.1a32.462,32.462,0,0,1,4.3-2.3,20.771,20.771,0,0,1-2.9,4c-.9.9-1.7,1.5-2.3,1.5a.367.367,0,0,1-.3-.1c-.1,0-.2-.1-.3-.2s-.2-.3-.3-.4Zm9.8-21.4a.781.781,0,0,1,.4-.4.749.749,0,0,1,.5-.1.812.812,0,0,1,.8.4,2.269,2.269,0,0,1,.3,1.3,11.15,11.15,0,0,1-.3,2.3c-.2.9-.5,2-.8,3.2a17.082,17.082,0,0,1-1.2-4.2A5.182,5.182,0,0,1,42.9,23.2ZM57.3,37.9a3.424,3.424,0,0,0-1.7-.9,11.153,11.153,0,0,0-2.7-.3,12.751,12.751,0,0,0-1.9.1l-2.1.3-1.3-1.3-1.2-1.5c-.3-.4-.5-.8-.8-1.2a7.458,7.458,0,0,1-.7-1.2,24.587,24.587,0,0,0,.9-3.4,18.084,18.084,0,0,0,.4-2.9,5.222,5.222,0,0,0-.4-2.1,1.917,1.917,0,0,0-1.9-1.2,1.854,1.854,0,0,0-.7.2,2.651,2.651,0,0,0-.6.5,4.98,4.98,0,0,0-.3,3.1,17.246,17.246,0,0,0,1.3,4.5,20.944,20.944,0,0,1-.8,2.3c-.3.8-.6,1.6-1,2.5-.3.7-.6,1.4-1,2.2a21.16,21.16,0,0,1-1.1,2.1,27.551,27.551,0,0,0-4.9,2.5,4.926,4.926,0,0,0-2.1,2.4v.7a2.092,2.092,0,0,0,.4.6,1.628,1.628,0,0,0,.6.3,2.92,2.92,0,0,0,.9.2c1.2,0,2.4-.9,3.6-2.2a23.949,23.949,0,0,0,3.3-4.8c.6-.2,1.1-.4,1.7-.6s1.2-.3,1.8-.5,1.3-.3,1.9-.5l1.8-.3a11.428,11.428,0,0,0,3.9,2.4,8.177,8.177,0,0,0,2.7.5,2.984,2.984,0,0,0,1.6-.3,1.874,1.874,0,0,0,.6-.7,1.379,1.379,0,0,0,0-.9A.565.565,0,0,0,57.3,37.9Z" fill="none"/>
    </clipPath>
    <clipPath id="clip-path-5">
      <path id="Path_10" data-name="Path 10" d="M29,54a.945.945,0,0,1,1-1H61a1,1,0,0,1,0,2H30A.945.945,0,0,1,29,54Z" fill="none"/>
    </clipPath>
    <clipPath id="clip-path-7">
      <path id="Path_11" data-name="Path 11" d="M29,60a.945.945,0,0,1,1-1H61a1,1,0,0,1,0,2H30A.945.945,0,0,1,29,60Z" fill="none"/>
    </clipPath>
    <clipPath id="clip-path-9">
      <path id="Path_12" data-name="Path 12" d="M59.8,83H71.6a1.5,1.5,0,0,0,0-3H60A3.128,3.128,0,0,1,59.8,83ZM17,81.5A1.538,1.538,0,0,0,18.5,83H44.3a3.718,3.718,0,0,1-.1-3H18.6A1.561,1.561,0,0,0,17,81.5Z" fill="none"/>
    </clipPath>
    <clipPath id="clip-path-11">
      <path id="Path_13" data-name="Path 13" d="M49.5,81A2.5,2.5,0,1,1,52,83.5,2.476,2.476,0,0,1,49.5,81ZM47,81a5,5,0,1,0,5-5A4.951,4.951,0,0,0,47,81Z" fill="none"/>
    </clipPath>
    <clipPath id="clip-A12_DarkUI_OptimizePDF_Lg">
      <rect width="90" height="90"/>
    </clipPath>
  </defs>
  <g id="A12_DarkUI_OptimizePDF_Lg" clip-path="url(#clip-A12_DarkUI_OptimizePDF_Lg)">
    <rect width="90" height="90" fill="none"/>
    <g id="Group_54" data-name="Group 54" transform="translate(3 2)">
      <g id="Group_53" data-name="Group 53" transform="translate(-3 -2)">
        <g id="Group_32" data-name="Group 32">
          <g id="Group_31" data-name="Group 31" clip-path="url(#clip-path)">
            <g id="Group_30" data-name="Group 30">
              <g id="Group_29" data-name="Group 29" clip-path="url(#clip-path-2)">
                <rect id="Rectangle_16" data-name="Rectangle 16" width="62" height="74" transform="translate(14 4)" fill="#ff7b82"/>
              </g>
            </g>
          </g>
        </g>
        <g id="Group_36" data-name="Group 36">
          <g id="Group_35" data-name="Group 35" clip-path="url(#clip-path-3)">
            <g id="Group_34" data-name="Group 34">
              <g id="Group_33" data-name="Group 33" clip-path="url(#clip-path-2)">
                <rect id="Rectangle_18" data-name="Rectangle 18" width="34.875" height="34.1" transform="translate(27.7 17.3)" fill="#ff7b82"/>
              </g>
            </g>
          </g>
        </g>
        <g id="Group_40" data-name="Group 40">
          <g id="Group_39" data-name="Group 39" clip-path="url(#clip-path-5)">
            <g id="Group_38" data-name="Group 38">
              <g id="Group_37" data-name="Group 37" clip-path="url(#clip-path-2)">
                <rect id="Rectangle_20" data-name="Rectangle 20" width="43" height="12" transform="translate(24 48)" fill="#ff7b82"/>
              </g>
            </g>
          </g>
        </g>
        <g id="Group_44" data-name="Group 44">
          <g id="Group_43" data-name="Group 43" clip-path="url(#clip-path-7)">
            <g id="Group_42" data-name="Group 42">
              <g id="Group_41" data-name="Group 41" clip-path="url(#clip-path-2)">
                <rect id="Rectangle_22" data-name="Rectangle 22" width="43" height="12" transform="translate(24 54)" fill="#ff7b82"/>
              </g>
            </g>
          </g>
        </g>
        <g id="Group_48" data-name="Group 48">
          <g id="Group_47" data-name="Group 47" clip-path="url(#clip-path-9)">
            <g id="Group_46" data-name="Group 46">
              <g id="Group_45" data-name="Group 45" clip-path="url(#clip-path-2)">
                <rect id="Rectangle_24" data-name="Rectangle 24" width="66.1" height="13" transform="translate(12 75)" fill="#ff7b82"/>
              </g>
            </g>
          </g>
        </g>
        <g id="Group_52" data-name="Group 52">
          <g id="Group_51" data-name="Group 51" clip-path="url(#clip-path-11)">
            <g id="Group_50" data-name="Group 50">
              <g id="Group_49" data-name="Group 49" clip-path="url(#clip-path-2)">
                <rect id="Rectangle_26" data-name="Rectangle 26" width="20" height="20" transform="translate(42 71)" fill="#ff7b82"/>
              </g>
            </g>
          </g>
        </g>
      </g>
    </g>
    <text id="A12_OptimizePDF_Lg" transform="translate(-109 -105)" fill="#707070" font-size="20" font-family="HelveticaNeue, Helvetica Neue"><tspan x="0" y="19">A12_OptimizePDF_Lg</tspan></text>
  </g>
</svg>
