<svg xmlns="http://www.w3.org/2000/svg" xmlns:xlink="http://www.w3.org/1999/xlink" width="18" height="18" viewBox="0 0 18 18">
  <defs>
    <clipPath id="clip-s_share_get_link_18">
      <rect width="18" height="18"/>
    </clipPath>
  </defs>
  <g id="s_share_get_link_18" clip-path="url(#clip-s_share_get_link_18)">
    <g id="Group_70063" data-name="Group 70063">
      <rect id="Canvas" width="18" height="18" fill="#ff13dc" opacity="0"/>
      <path id="Path_39995" data-name="Path 39995" d="M15.848,2.152a3.588,3.588,0,0,0-5.074,0c-.193.193-2.132,2.111-2.676,2.655a4.151,4.151,0,0,1,1.871.3c.26-.26,1.784-1.763,1.892-1.871a2.051,2.051,0,0,1,2.9,2.9L11.2,9.7a2.314,2.314,0,0,1-1.686.649,1.978,1.978,0,0,1-1.352-.555,2.084,2.084,0,0,1-.621-.813.985.985,0,0,0-.213.159L6.51,10a3.557,3.557,0,0,0,.613.837,3.923,3.923,0,0,0,5.338-.219l3.383-3.383a3.588,3.588,0,0,0,0-5.079Z" fill="#707070"/>
      <path id="Path_39996" data-name="Path 39996" d="M7.963,12.912c-.26.26-1.749,1.774-1.857,1.881a2.051,2.051,0,0,1-2.9-2.9L6.8,8.3a2.293,2.293,0,0,1,1.684-.646,2.1,2.1,0,0,1,1.891,1.391,1.016,1.016,0,0,0,.214-.159l.867-.86a3.536,3.536,0,0,0-.613-.837,3.656,3.656,0,0,0-5.13.024L2.12,10.806A3.588,3.588,0,1,0,7.194,15.88c.192-.192,2.1-2.121,2.64-2.664a4.152,4.152,0,0,1-1.871-.3Z" fill="#707070"/>
    </g>
  </g>
</svg>