<svg xmlns="http://www.w3.org/2000/svg" width="11.95" height="11.95" viewBox="0 0 11.95 11.95">
  <g id="S_InfoOutline_12_N" transform="translate(-0.05 -0.05)">
    <path id="Path_586042" data-name="Path 586042" d="M6.025.05a5.973,5.973,0,1,1-.2,0Zm0,1.1-.162,0a4.877,4.877,0,1,0,.419,0Z" fill="#6e6e6e"/>
    <path id="Path_586043" data-name="Path 586043" d="M5.951,2.515q.033,0,.066,0a.709.709,0,0,1,.746.669q0,.032,0,.064A.695.695,0,0,1,6.017,4a.705.705,0,0,1-.747-.747A.708.708,0,0,1,5.951,2.515ZM7.162,8.333H6.689v-3A.333.333,0,0,0,6.356,5H4.917a.167.167,0,0,0-.167.167V5.5a.167.167,0,0,0,.167.167H5.48V8.333H4.917A.167.167,0,0,0,4.75,8.5v.333A.167.167,0,0,0,4.917,9H7.162a.167.167,0,0,0,.167-.167V8.5A.167.167,0,0,0,7.162,8.333Z" fill="#6e6e6e"/>
  </g>
</svg>
