<?xml version="1.0" encoding="utf-8"?>
<!-- Generator: Adobe Illustrator 24.1.2, SVG Export Plug-In . SVG Version: 6.00 Build 0)  -->
<svg version="1.1" id="Layer_1" xmlns="http://www.w3.org/2000/svg" xmlns:xlink="http://www.w3.org/1999/xlink" x="0px" y="0px"
	 viewBox="0 0 151.42999 44.86" style="enable-background:new 0 0 151.42999 44.86;" xml:space="preserve">
<style type="text/css">
	.st0{fill:#584CCC;}
	.st1{fill:#FFFFFF;}
	.st2{fill:#929497;}
	.st3{fill:none;}
</style>
<path class="st0" d="M0.215,36.86119V7.99882c-0.00009-4.15624,3.36913-7.5256,7.52537-7.52569c0.00011,0,0.00021,0,0.00032,0
	h29.98843c4.1563,0.00004,7.52564,3.36939,7.52568,7.52569v28.86237c0.00009,4.15623-3.36913,7.52559-7.52536,7.52568
	c-0.00011,0-0.00021,0-0.00032,0H7.74069c-4.15624,0.00009-7.5256-3.36913-7.52569-7.52537
	C0.215,36.8614,0.215,36.86129,0.215,36.86119z"/>
<path class="st1" d="M15.33266,30.65854c-0.43336,0.64292-0.89932,1.26325-1.39606,1.85856
	c-0.2252,0.26664-0.44553,0.51056-0.65845,0.73011c-0.53461,0.69884-1.30077,1.18427-2.161,1.36916
	c-0.18187,0.00808-0.35964-0.05561-0.495-0.17734c-0.05276-0.04788-0.10021-0.10128-0.14156-0.1593
	c-0.07409-0.10324-0.11774-0.22519-0.126-0.352c-0.00375-0.06616,0.0009-0.13252,0.01385-0.19751
	c0.01408-0.07309,0.03497-0.1447,0.06239-0.2139c0.16303-0.36147,0.39764-0.68615,0.68965-0.95443
	c0.0854-0.08462,0.17724-0.17054,0.27551-0.25776c1.4142-1.13402,2.98213-2.06169,4.65692-2.75528
	C15.8123,29.93742,15.57222,30.30732,15.33266,30.65854z M31.55548,25.76501c0.69104-0.0116,1.38165,0.04174,2.06271,0.1593
	c0.4912,0.04307,0.92173,0.34587,1.12835,0.79357c0.02664,0.08565,0.0414,0.17454,0.04387,0.2642
	c0.00378,0.10446-0.00492,0.20899-0.02593,0.31138c-0.10724,0.55287-0.67893,0.91056-1.461,0.91056
	c-0.10329-0.00731-0.20612-0.02007-0.30807-0.03821c-0.1182-0.00696-0.23581-0.02187-0.352-0.04465
	c-1.53388-0.38902-2.96283-1.11223-4.18462-2.11788c0.32191-0.04884,0.63076-0.08784,0.92519-0.11952
	C30.10521,25.80585,30.83006,25.76621,31.55548,25.76501z M25.3231,25.10812c-0.82847,0.17392-1.68385,0.37563-2.5523,0.60483
	c-0.62335,0.16505-1.25607,0.3456-1.88858,0.53824c0.336-0.68779,0.6448-1.36916,0.91387-2.01708
	c0.35448-0.85616,0.6877-1.71222,0.99343-2.54967c0.26907,0.42194,0.54731,0.83179,0.831,1.226
	c0.28133,0.38948,0.56828,0.76481,0.86084,1.126c0.29208,0.36101,0.58884,0.70573,0.89028,1.03418l-0.07292,0.01628
	L25.3231,25.10812z M21.04093,10.33069c0.02034-0.03169,0.04261-0.0621,0.06668-0.09105
	c0.13461-0.20233,0.35728-0.32874,0.6-0.34063c0.16174-0.0039,0.31977,0.04871,0.4469,0.14877
	c0.34155,0.40862,0.50142,0.93899,0.4426,1.4683c-0.00626,0.53206-0.05306,1.06288-0.14,1.58783
	c-0.14983,0.93032-0.35044,1.85175-0.60093,2.76015c-0.06747,0.25123-0.13947,0.50653-0.216,0.76589
	c-0.27893-0.73094-0.50447-1.48115-0.67483-2.24472c-0.13515-0.60199-0.22051-1.21409-0.25523-1.83009
	c-0.02745-0.45697-0.00733-0.91557,0.06005-1.36838C20.80883,10.88758,20.90052,10.59769,21.04093,10.33069z M37.43124,27.18613
	c-0.02148-0.21446-0.07097-0.42518-0.14722-0.62677c-0.09884-0.26947-0.24872-0.51736-0.44143-0.73008
	c-0.24457-0.25782-0.52832-0.4754-0.84076-0.6447c-1.36134-0.63116-2.85707-0.91765-4.35529-0.83423
	c-0.62258,0-1.28688,0.03013-1.98784,0.09106c-0.70076,0.06016-1.43676,0.15095-2.208,0.27239
	c-0.88853-0.86644-1.69781-1.81059-2.41816-2.82119c-0.54653-0.75545-1.05156-1.54008-1.51286-2.35039
	c0.22365-0.70252,0.41934-1.37137,0.58709-2.00656c0.09827-0.374,0.18523-0.73254,0.265-1.08292
	c0.11212-0.49681,0.20558-0.96918,0.28038-1.41712c0.05128-0.30973,0.09535-0.60971,0.12772-0.89516
	c0.05429-0.45711,0.08248-0.91693,0.08442-1.37725c0.11633-1.42994-0.43715-2.83296-1.49843-3.79833
	c-0.15091-0.11025-0.31369-0.20325-0.4853-0.27726c-0.36318-0.1494-0.75284-0.22379-1.14552-0.21867
	c-0.38857,0.00524-0.76873,0.11382-1.10145,0.3146c-0.34239,0.2-0.62813,0.484-0.83022,0.82516
	c-0.39966,0.79354-0.58466,1.67787-0.53659,2.56507c0.00737,0.42102,0.03914,0.84126,0.09515,1.25861
	c0.23752,1.68775,0.71669,3.33253,1.42277,4.88378c-0.13746,0.40654-0.27726,0.81054-0.42115,1.21542
	c-0.28858,0.809-0.59431,1.62039-0.9285,2.46183c-0.1673,0.42038-0.34142,0.848-0.5245,1.28707
	c-0.62487,1.50381-1.3319,2.97215-2.11789,4.39838c-1.912,0.76911-5.57392,2.43093-7.13494,4.38952
	c-0.34305,0.40149-0.58281,0.88072-0.69842,1.396c-0.03439,0.18489-0.04611,0.37328-0.0349,0.561
	c0.0244,0.36551,0.14376,0.71832,0.34628,1.02356c0.10628,0.16058,0.23159,0.30773,0.3732,0.43822
	c0.17042,0.15436,0.36144,0.28432,0.56759,0.38616c0.05108,0.026,0.10392,0.0504,0.16163,0.07565
	c0.16824,0.07476,0.34304,0.1338,0.52216,0.17636c0.25789,0.06082,0.52204,0.09112,0.787,0.09028
	c0.58587-0.0101,1.16225-0.14978,1.68775-0.409c0.38952-0.18644,0.75986-0.41053,1.10574-0.66908
	c0.7796-0.59536,1.48785-1.27874,2.11067-2.03657c0.68794-0.82571,1.32333-1.69382,1.90243-2.5992
	c0.44144-0.683,0.85616-1.37647,1.23482-2.04964c0.5748-0.19596,1.15428-0.38213,1.73845-0.55852
	c0.5828-0.17646,1.16833-0.34229,1.7521-0.49594c0.12576-0.03334,0.24626-0.05859,0.37124-0.091
	c1.14649-0.2952,2.26178-0.54722,3.31488-0.7342c0.19907,0.174,0.39717,0.33876,0.5943,0.49427
	c0.3925,0.31226,0.77783,0.59059,1.156,0.835c0.18874,0.12274,0.37547,0.2382,0.56018,0.34638
	c1.54637,0.95741,3.31992,1.48553,5.13814,1.53c0.73739,0.03871,1.46997-0.13932,2.10736-0.51212
	c0.10886-0.07132,0.21141-0.15185,0.30651-0.2407c0.23907-0.22291,0.42241-0.49888,0.53522-0.80566
	c0.08437-0.22261,0.13261-0.45727,0.14292-0.69511C37.44559,27.41165,37.44234,27.29857,37.43124,27.18613z"/>
<path class="st2" d="M52.488,13.72199v-8.834c0-0.084,0.03271-0.126,0.09814-0.126c0.20508,0,0.45004-0.00228,0.73487-0.00683
	c0.28466-0.00489,0.57861-0.00733,0.88183-0.00733s0.59488-0.00228,0.875-0.00683c0.28028-0.00489,0.51319-0.00684,0.7002-0.00684
	c0.65889-0.02171,1.31615,0.07793,1.939,0.29395c0.44106,0.15687,0.83737,0.41861,1.15479,0.76269
	c0.25718,0.28877,0.45259,0.62708,0.57422,0.99414c0.10824,0.32764,0.16491,0.6701,0.168,1.01514
	c0.02953,0.63158-0.15282,1.25491-0.51807,1.771c-0.37243,0.4939-0.88086,0.86842-1.46297,1.07767
	c-0.67438,0.24761-1.38862,0.36878-2.10693,0.35742h-0.61622v2.70166c0,0.09375-0.042,0.14014-0.126,0.14014h-2.18408
	C52.52506,13.84797,52.488,13.80598,52.488,13.72199z M54.90987,6.76399v2.23974H55.778
	c0.2843,0.01094,0.56781-0.03659,0.833-0.13965c0.19051-0.07689,0.35207-0.21164,0.46191-0.38525
	c0.10266-0.18099,0.15352-0.38675,0.147-0.59473c0.00565-0.20938-0.0426-0.41669-0.14013-0.60205
	c-0.10079-0.17487-0.25547-0.31242-0.44092-0.39209c-0.2506-0.10277-0.52034-0.15055-0.791-0.14013
	c-0.14941,0-0.31265,0.00244-0.48974,0.00732c-0.17777,0.00439-0.32721,0.00667-0.4483,0.00684H54.90987z"/>
<path class="st2" d="M64.97574,4.6219c0.65895-0.01201,1.31287,0.11684,1.918,0.37793
	c0.53573,0.23418,1.01186,0.58597,1.39307,1.02929c0.37061,0.43737,0.65984,0.93761,0.854,1.477
	c0.20158,0.55642,0.30341,1.14404,0.30078,1.73584c0.0183,0.85396-0.17139,1.69956-0.55273,2.46387
	c-0.3534,0.6928-0.89427,1.27242-1.561,1.67285c-1.48759,0.8099-3.28384,0.81266-4.77391,0.00733
	c-0.65739-0.39522-1.18726-0.97115-1.52644-1.65913c-0.36711-0.76107-0.5493-1.59807-0.53174-2.44287
	c-0.00499-0.61554,0.09933-1.22708,0.30811-1.80616c0.19757-0.5474,0.49936-1.05132,0.88867-1.48388
	c0.39351-0.43359,0.8758-0.77733,1.41406-1.00782C63.6976,4.73626,64.33416,4.61221,64.97574,4.6219z M63.01574,9.29817
	c-0.00351,0.35391,0.03884,0.70678,0.126,1.0498c0.07444,0.29739,0.20504,0.57781,0.38476,0.82617
	c0.16603,0.2274,0.38158,0.41407,0.63037,0.5459c0.26643,0.13521,0.56214,0.20247,0.86084,0.1958
	c0.36403,0.01131,0.72214-0.09409,1.022-0.30078c0.29836-0.22571,0.52258-0.5353,0.644-0.88916
	c0.16006-0.45853,0.23599-0.94221,0.22412-1.42773c0.01011-0.46906-0.06347-0.93616-0.21728-1.3794
	c-0.12532-0.36124-0.35718-0.67602-0.665-0.90283c-0.32027-0.22101-0.70285-0.33376-1.0918-0.32178
	c-0.37375-0.0115-0.74069,0.10171-1.043,0.32178c-0.2995,0.23493-0.52538,0.55079-0.65088,0.91015
	c-0.15752,0.43993-0.23346,0.9049-0.22411,1.37208H63.01574z"/>
<path class="st2" d="M77.40836,4.88801c0.10254,0.57861,0.20508,1.14323,0.30762,1.69385
	c0.10254,0.55078,0.2028,1.08056,0.30078,1.58935c0.09765,0.50879,0.19108,0.98698,0.28027,1.43457
	c0.08887,0.44824,0.1657,0.85433,0.23047,1.21826h0.01465c0.01855-0.21484,0.05338-0.48779,0.10449-0.81884
	c0.05176-0.33155,0.11947-0.73536,0.20313-1.21143c0.084-0.47559,0.18166-1.03549,0.293-1.67969
	c0.1133-0.64404,0.24871-1.38134,0.40625-2.21191c0.00784-0.0931,0.08968-0.16221,0.18278-0.15437
	c0.00027,0.00002,0.00055,0.00005,0.00082,0.00007h2.14058c0.10352,0,0.14063,0.05615,0.11328,0.168l-2.19921,8.82031
	c-0.00401,0.06642-0.0611,0.11702-0.12753,0.11302c-0.00374-0.00023-0.00745-0.00062-0.01115-0.0012H77.4357
	c-0.11132,0-0.17285-0.03711-0.18164-0.11182c-0.0752-0.33642-0.15006-0.69109-0.22461-1.064
	c-0.07422-0.37354-0.15104-0.75635-0.23047-1.14844c-0.0791-0.3916-0.15625-0.77653-0.23144-1.15478
	c-0.07422-0.37793-0.14876-0.74431-0.22363-1.09913c-0.0752-0.35449-0.14291-0.68816-0.20313-1.001
	c-0.06055-0.3125-0.11881-0.58545-0.1748-0.81885h-0.01369c-0.04687,0.271-0.10546,0.57194-0.17578,0.90283
	c-0.06982,0.33155-0.14208,0.68165-0.21679,1.0503s-0.15641,0.74185-0.24512,1.11962
	c-0.08887,0.37842-0.17513,0.75179-0.25879,1.12012c-0.084,0.36867-0.1657,0.72576-0.24512,1.07129
	c-0.07958,0.34522-0.15656,0.66716-0.23095,0.96582c-0.01905,0.11182-0.07471,0.168-0.168,0.168H72.2277
	c-0.084,0-0.14-0.05127-0.168-0.15381l-2.21192-8.792c-0.01304-0.04182-0.00239-0.08742,0.02783-0.11914
	c0.0229-0.02137,0.0527-0.03384,0.084-0.03516h2.32422c0.04055-0.00091,0.08088,0.00623,0.11865,0.021
	c0.03773,0.02177,0.06155,0.06147,0.063,0.105c0.168,0.80273,0.31042,1.49805,0.42724,2.08594
	c0.1167,0.58838,0.2147,1.08771,0.294,1.498c0.0791,0.41114,0.14211,0.76124,0.189,1.0503
	c0.04639,0.28906,0.08366,0.53629,0.11182,0.7417c0.02832,0.20556,0.05632,0.39696,0.084,0.57421h0.01416
	c0.04687-0.23339,0.09587-0.49234,0.147-0.77685c0.05126-0.28467,0.11897-0.64404,0.20312-1.07813
	c0.084-0.43408,0.18898-0.98014,0.31494-1.63818c0.126-0.65771,0.28242-1.46728,0.46924-2.42871
	c0.01856-0.10303,0.06983-0.15446,0.15381-0.1543h2.38037C77.335,4.74524,77.40327,4.80731,77.40836,4.88801z"/>
<path class="st2" d="M89.30679,11.91584l-0.26563,1.792c-0.00294,0.04333-0.02296,0.08373-0.05566,0.11231
	c-0.03391,0.02007-0.07296,0.02974-0.11231,0.02783h-5.93554c-0.084,0-0.126-0.04639-0.126-0.14014V4.88801
	c-0.00225-0.03618,0.00481-0.07233,0.02051-0.105c0.01367-0.02344,0.04883-0.03516,0.10547-0.03516h5.79589
	c0.0844-0.0129,0.16417,0.04243,0.18165,0.126l0.19628,1.792c0.01856,0.11231-0.0332,0.168-0.15429,0.168h-3.71v1.3584h3.458
	c0.06087-0.00871,0.11729,0.03358,0.126,0.09445c0.0015,0.01046,0.0015,0.02108,0,0.03155v1.81983
	c0,0.07471-0.042,0.11182-0.126,0.11182h-3.458v1.52636h3.93359C89.28333,11.77622,89.32535,11.82274,89.30679,11.91584z"/>
<path class="st2" d="M92.69547,13.84797h-2.11328c-0.084,0-0.126-0.04639-0.126-0.14014v-8.792
	c0-0.10254,0.03223-0.15381,0.09766-0.15381c0.21484,0,0.46386-0.00244,0.749-0.00683
	c0.28419-0.00489,0.58269-0.00961,0.89551-0.01416c0.31251-0.00489,0.61132-0.00717,0.89648-0.00684h0.707
	c0.70225-0.03004,1.40304,0.0867,2.05762,0.34277c0.50547,0.20202,0.94259,0.54443,1.25977,0.98682
	c0.29647,0.44231,0.44831,0.96575,0.43457,1.49805c0.007,0.36114-0.07236,0.71872-0.23145,1.043
	c-0.1498,0.29865-0.35378,0.56687-0.60156,0.791c-0.23742,0.21747-0.50357,0.40132-0.791,0.54639
	c0.10254,0.14892,0.23308,0.34944,0.39161,0.60156c0.15916,0.25244,0.32485,0.52083,0.49707,0.80518
	c0.17285,0.28467,0.3457,0.57405,0.51855,0.86816c0.17188,0.294,0.33594,0.5669,0.48926,0.81885
	c0.15429,0.25195,0.28222,0.45752,0.38574,0.61621c0.03355,0.03585,0.05117,0.08376,0.04883,0.13281
	c-0.00488,0.042-0.03515,0.063-0.09082,0.063h-2.50579c-0.05455,0.00313-0.10921-0.00399-0.16113-0.021
	c-0.03437-0.01529-0.06186-0.04277-0.07715-0.07714c-0.09375-0.168-0.20801-0.37324-0.34278-0.61573
	c-0.13574-0.24267-0.27831-0.50406-0.42773-0.78418c-0.14941-0.27978-0.29395-0.55045-0.43359-0.812
	c-0.13965-0.26123-0.26172-0.48535-0.36426-0.67187c-0.0395-0.08371-0.09966-0.15598-0.17481-0.21
	c-0.08452-0.04274-0.17891-0.06212-0.27343-0.05616h-0.57325v3.10791c0.00964,0.0678-0.03752,0.13058-0.10532,0.14021
	C92.71906,13.84969,92.70717,13.84967,92.69547,13.84797z M92.83608,8.61213h0.9375
	c0.24389,0.00516,0.48708-0.02796,0.72071-0.09814c0.18371-0.05341,0.34576-0.16367,0.46289-0.31495
	c0.1106-0.15748,0.16683-0.34674,0.16015-0.53906c0.02455-0.28498-0.10316-0.56175-0.33593-0.728
	c-0.27921-0.16391-0.60055-0.24186-0.92383-0.22412c-0.14941,0-0.32423,0.00244-0.52442,0.00733
	c-0.20117,0.00439-0.36718,0.01172-0.49707,0.021V8.61213z"/>
<path class="st2" d="M105.37906,11.91584l-0.26562,1.792c-0.00294,0.04333-0.02296,0.08373-0.05567,0.11231
	c-0.03391,0.02006-0.07294,0.02974-0.1123,0.02783h-5.93555c-0.084,0-0.126-0.04639-0.126-0.14014V4.88801
	c-0.00225-0.03618,0.00481-0.07233,0.0205-0.105c0.01367-0.02344,0.04883-0.03516,0.10547-0.03516h5.7959
	c0.0844-0.0129,0.16416,0.04243,0.18164,0.126l0.19629,1.792c0.01855,0.11231-0.0332,0.168-0.1543,0.168h-3.71v1.3584h3.458
	c0.06087-0.00871,0.11729,0.03358,0.126,0.09445c0.0015,0.01046,0.0015,0.02108,0,0.03155v1.81983
	c0,0.07471-0.042,0.11182-0.126,0.11182h-3.458v1.52636h3.9336C105.3556,11.77622,105.39761,11.82274,105.37906,11.91584z"/>
<path class="st2" d="M106.5275,13.69416V4.87385c0-0.07471,0.03223-0.1167,0.09766-0.126h3.05175
	c0.94183-0.0346,1.87682,0.17266,2.71582,0.602c0.68378,0.3661,1.24405,0.9262,1.61036,1.60987
	c0.3582,0.6868,0.54103,1.45152,0.53222,2.22607c0.01095,0.60571-0.08866,1.20835-0.29394,1.77832
	c-0.18073,0.48826-0.45694,0.93561-0.8125,1.31592c-0.33923,0.35926-0.73389,0.66177-1.16895,0.896
	c-0.43369,0.23346-0.89778,0.40536-1.3789,0.51075c-0.47349,0.10612-0.95716,0.16015-1.44239,0.16113h-2.81347
	C106.55972,13.84797,106.5275,13.7967,106.5275,13.69416z M108.96304,6.82016v4.98388h0.5459
	c0.34585,0.00372,0.69036-0.0435,1.02246-0.14013c0.29635-0.0871,0.56912-0.24018,0.79785-0.44776
	c0.2326-0.21936,0.40594-0.49399,0.5039-0.79834c0.12014-0.38005,0.1769-0.77729,0.168-1.17578
	c0.00703-0.36244-0.04272-0.72375-0.14746-1.0708c-0.08754-0.28579-0.2407-0.54714-0.44726-0.76318
	c-0.20478-0.20729-0.45728-0.3612-0.73536-0.44824c-0.33158-0.09898-0.67648-0.14608-1.02246-0.13965h-0.68554L108.96304,6.82016z"
	/>
<path class="st2" d="M118.84781,13.70783V4.93c0-0.10254,0.03223-0.15869,0.09766-0.168
	c0.10254-0.00927,0.29623-0.01627,0.58105-0.021c0.28418-0.00489,0.64649-0.01172,1.085-0.021s0.9375-0.01416,1.49805-0.01416
	c0.65046-0.01917,1.29992,0.06353,1.92481,0.24512c0.41692,0.12222,0.80174,0.33495,1.127,0.623
	c0.24166,0.22248,0.4285,0.49791,0.5459,0.80469c0.09753,0.25747,0.14973,0.52989,0.15429,0.80518
	c0.00535,0.28-0.04477,0.5583-0.14746,0.81885c-0.08291,0.21208-0.19357,0.41223-0.3291,0.59521
	c-0.10641,0.14413-0.2338,0.27152-0.37793,0.37793c0.17545,0.09618,0.33984,0.21129,0.49024,0.34326
	c0.50557,0.43446,0.78412,1.07668,0.75586,1.74268c0.01447,0.55286-0.16097,1.09399-0.49707,1.5332
	c-0.37317,0.45412-0.86863,0.79183-1.42774,0.97314c-0.72413,0.23919-1.48492,0.34813-2.24707,0.32178
	c-0.27052,0-0.56446-0.00228-0.88183-0.00683c-0.31738-0.00489-0.62761-0.00961-0.93067-0.01416
	c-0.3037-0.00489-0.57226-0.00961-0.80566-0.01416c-0.2334-0.00489-0.40137-0.00684-0.50391-0.00684
	C118.88492,13.83869,118.84781,13.79182,118.84781,13.70783z M121.2277,6.68v1.49805h1.0498
	c0.19629,0,0.37988,0.00683,0.55273,0.021s0.30567,0.02588,0.39942,0.03516c0.08112-0.09815,0.14487-0.20946,0.18847-0.3291
	c0.04173-0.11439,0.06321-0.23517,0.06348-0.35693c-0.00164-0.13807-0.0326-0.27422-0.09082-0.39942
	c-0.07661-0.15092-0.19944-0.27342-0.35058-0.34961c-0.26167-0.11571-0.54753-0.16615-0.833-0.147
	c-0.1211,0-0.24512,0.00244-0.3711,0.00684c-0.126,0.00488-0.2373,0.00683-0.33593,0.00683
	C121.40915,6.66556,121.31819,6.67029,121.2277,6.68z M121.2277,10.138v1.77783c0.12109,0.00977,0.27734,0.01677,0.46875,0.021
	c0.1914,0.00488,0.37988,0.00732,0.56738,0.00732c0.27153,0.00575,0.5425-0.0273,0.80469-0.09814
	c0.19061-0.04738,0.36185-0.15263,0.49023-0.30127c0.10757-0.13764,0.16416-0.30827,0.16016-0.48291
	c0.00951-0.19615-0.05536-0.38867-0.18164-0.53907c-0.15749-0.15479-0.3573-0.25946-0.57422-0.30078
	c-0.09278-0.01855-0.2002-0.03711-0.32129-0.05615c-0.13453-0.01945-0.27032-0.02875-0.40625-0.02783H121.2277z"/>
<path class="st2" d="M128.85757,10.16584l-2.89746-5.25c-0.03711-0.05566-0.03711-0.09766,0-0.126
	c0.03149-0.02585,0.07061-0.04061,0.11133-0.042h2.4502c0.04312-0.00431,0.08661,0.00293,0.12601,0.021
	c0.0239,0.0214,0.04289,0.04772,0.05566,0.07715c0.29004,0.63476,0.53059,1.16682,0.72168,1.59619
	c0.19142,0.4292,0.34311,0.78141,0.45508,1.05664c0.11133,0.27539,0.20312,0.49707,0.27246,0.665
	c0.07031,0.168,0.13281,0.313,0.18945,0.43408c0.03711-0.12109,0.09311-0.27279,0.168-0.45508
	c0.07422-0.18213,0.16765-0.41536,0.28027-0.69971c0.11134-0.28467,0.25813-0.63948,0.44041-1.06445
	c0.18166-0.42431,0.39389-0.93993,0.63672-1.54687c0.02112-0.05772,0.07979-0.09277,0.14062-0.084h2.36621
	c0.10254,0,0.12988,0.05127,0.084,0.1543l-2.92674,5.30566c-0.04378,0.0776-0.07883,0.15981-0.10451,0.24512
	c-0.02525,0.09356-0.03709,0.19022-0.03516,0.28711v2.93994c0,0.11182-0.04688,0.168-0.13965,0.168h-2.11426
	c-0.12108,0-0.18163-0.056-0.18164-0.168v-3.05216c0.00203-0.08879-0.00287-0.1776-0.01465-0.26563
	C128.92677,10.29181,128.89822,10.22511,128.85757,10.16584z"/>
<path class="st3" d="M91.69742,31.15168c-0.41187-0.20057-0.8652-0.30127-1.32324-0.29394
	c-0.26017-0.00562-0.52032,0.01203-0.77734,0.05273c-0.15627,0.02855-0.31055,0.06704-0.46192,0.11523v5.71192
	c0.126,0.01465,0.252,0.02832,0.37793,0.042c0.13261,0.01485,0.26598,0.02203,0.39942,0.02148
	c0.52192,0.00537,1.03844-0.10607,1.51171-0.32617c0.46709-0.2215,0.85548-0.58025,1.11329-1.02832
	c0.29836-0.54278,0.44351-1.15647,0.41992-1.77539c0.02235-0.555-0.09307-1.1069-0.33594-1.60644
	C92.41608,31.6715,92.09307,31.35223,91.69742,31.15168z"/>
<path class="st3" d="M103.4982,31.34113c-0.15073-0.19192-0.34045-0.34968-0.55664-0.46289
	c-0.26283-0.1333-0.55506-0.19813-0.84961-0.18847c-0.72259-0.0443-1.40292,0.34319-1.7334,0.9873
	c-0.14289,0.26848-0.23868,0.55948-0.2832,0.86035h2.751c0.33594,0,0.58463-0.00325,0.74609-0.00976
	c0.10207-0.00028,0.20385-0.01108,0.30371-0.03223v-0.126c-0.00375-0.1641-0.03207-0.32671-0.084-0.48242
	C103.72779,31.68885,103.62821,31.50393,103.4982,31.34113z"/>
<path class="st3" d="M80.59977,31.22492c-0.37527-0.28747-0.84035-0.43246-1.3125-0.40918
	c-0.39393-0.00414-0.77828,0.12147-1.09375,0.35743c-0.34158,0.26293-0.6088,0.61026-0.7754,1.00781
	c-0.39323,1.0241-0.39323,2.15754,0,3.18164c0.17294,0.41148,0.44705,0.77259,0.79688,1.0498
	c0.34361,0.26131,0.7657,0.39833,1.19727,0.38867c0.3986,0.00634,0.78875-0.11515,1.11328-0.34667
	c0.34425-0.26018,0.60658-0.61369,0.75586-1.01856c0.194-0.51654,0.28683-1.06558,0.27343-1.61719
	c0.00694-0.51331-0.07161-1.0242-0.23242-1.51172C81.1875,31.88578,80.93713,31.5109,80.59977,31.22492z"/>
<path class="st3" d="M68.80777,30.81574c-0.50965-0.00504-1.01332,0.11005-1.47021,0.33594
	c-1.0015,0.47727-1.6095,1.51822-1.5332,2.625c-0.01019,0.45771,0.06464,0.91335,0.2207,1.34375
	c0.12674,0.34689,0.32733,0.6621,0.58789,0.92383c0.24963,0.24087,0.55161,0.42069,0.88232,0.52539
	c0.34912,0.11314,0.71407,0.16986,1.08106,0.168c0.19629,0,0.37842-0.00684,0.54638-0.02051
	c0.15643-0.01223,0.3112-0.04037,0.46192-0.084v-5.7334c-0.11356-0.03084-0.22952-0.05206-0.34663-0.06345
	C69.09503,30.82212,68.95144,30.81527,68.80777,30.81574z"/>
<path class="st3" d="M56.81656,31.05695c-0.126-0.39843-0.25198-0.79719-0.37793-1.19628
	c-0.126-0.39942-0.24156-0.78452-0.34668-1.15528c-0.10498-0.37109-0.19955-0.7106-0.28369-1.01855h-0.021
	c-0.11821,0.56705-0.26538,1.12768-0.44092,1.67968c-0.19629,0.62989-0.39583,1.2741-0.59864,1.93262
	c-0.20263,0.6582-0.40201,1.26692-0.59814,1.82617h3.31787c-0.084-0.27929-0.18198-0.59407-0.29394-0.94433
	C57.06116,31.83138,56.94219,31.4567,56.81656,31.05695z"/>
<path class="st3" d="M132.12027,33.37728c0.39294,0.02009,0.77794-0.11573,1.07129-0.37793
	c0.27347-0.27028,0.41875-0.64431,0.39941-1.02832c0.00418-0.26059-0.04987-0.51882-0.1582-0.75586
	c-0.10358-0.22293-0.27162-0.40969-0.48242-0.53614c-0.25296-0.14185-0.5403-0.21081-0.83008-0.19921
	c-0.39639-0.0237-0.78577,0.11242-1.08105,0.37793c-0.27507,0.29445-0.4158,0.68975-0.38867,1.09179
	c-0.00407,0.36662,0.12698,0.7219,0.36816,0.99805C131.30171,33.25048,131.70692,33.40854,132.12027,33.37728z"/>
<path class="st3" d="M134.24136,39.1634c-0.35315-0.06672-0.71104-0.10525-1.07031-0.11523l-2.31055-0.10547
	c-0.23428,0.14989-0.43159,0.35088-0.57715,0.58789c-0.11812,0.16061-0.19402,0.34832-0.2207,0.5459
	c0.01213,0.23803,0.1132,0.46283,0.2832,0.62988c0.24246,0.24258,0.54251,0.41966,0.87207,0.51465
	c0.44803,0.14124,0.91608,0.20853,1.38574,0.19922c0.51765,0.01483,1.03456-0.04871,1.5332-0.18848
	c0.32498-0.08701,0.62177-0.25695,0.86131-0.49317c0.17151-0.17816,0.26891-0.41483,0.27246-0.6621
	c0.01865-0.23899-0.08365-0.47144-0.27246-0.61915C134.77029,39.30548,134.51201,39.20517,134.24136,39.1634z"/>
<path d="M57.44645,25.2718h-3.33887c-0.07084-0.01031-0.13663,0.03876-0.14693,0.1096
	c-0.00178,0.01223-0.0018,0.02464-0.00006,0.03688c-0.0009,0.28555-0.02903,0.57037-0.084,0.85059
	c-0.042,0.16113-0.084,0.30469-0.126,0.43066l-4.20013,12.09575c-0.042,0.15429,0.007,0.23143,0.147,0.23144h2.457
	c0.11857,0.00547,0.22432-0.07403,0.252-0.18945l0.98681-3.06543h4.85104l1.07129,3.10742
	c0.02278,0.09509,0.11282,0.15831,0.21,0.14746h2.73c0.126,0,0.168-0.07031,0.126-0.21l-4.76718-13.44044
	C57.60025,25.30695,57.5441,25.2718,57.44645,25.2718z M54.14957,33.12528c0.1958-0.55957,0.39518-1.16829,0.59814-1.82617
	c0.20313-0.6582,0.40268-1.30241,0.59864-1.93262c0.17554-0.552,0.32271-1.11263,0.44092-1.67968h0.021
	c0.084,0.30761,0.17856,0.64712,0.28369,1.01855c0.10498,0.3711,0.22054,0.75619,0.34668,1.15528
	c0.126,0.39843,0.25198,0.79719,0.37793,1.19628c0.126,0.39942,0.24498,0.77409,0.35694,1.124
	c0.11181,0.34961,0.20979,0.66438,0.29394,0.94433L54.14957,33.12528z"/>
<path d="M72.48257,36.67512V24.26399c0.00871-0.06088-0.03358-0.11729-0.09445-0.126c-0.01047-0.0015-0.02109-0.0015-0.03155,0
	h-2.646c-0.084,0-0.126,0.04883-0.126,0.14648v4.13672c-0.1543-0.01367-0.28711-0.02344-0.39893-0.03125
	c-0.1123-0.00683-0.20312-0.01074-0.27295-0.01074c-1.14571-0.03335-2.28088,0.2272-3.29736,0.75684
	c-0.86844,0.46329-1.58881,1.16184-2.07861,2.01562c-0.47599,0.83819-0.7224,1.78712-0.71436,2.751
	c-0.03825,1.03726,0.20884,2.06514,0.71436,2.97168c0.45967,0.77665,1.14433,1.39541,1.96338,1.77441
	c0.87914,0.40173,1.83675,0.60256,2.80322,0.58789c0.6763-0.00282,1.35101-0.0659,2.01611-0.18847
	c0.7273-0.1349,1.43829-0.34636,2.1211-0.63086c0.08136-0.03724,0.13143-0.12069,0.126-0.21
	c-0.01416-0.22363-0.03174-0.47558-0.05273-0.75585C72.49283,37.17219,72.48257,36.91242,72.48257,36.67512z M69.58463,36.63312
	c-0.15072,0.04363-0.3055,0.07177-0.46192,0.084c-0.16796,0.01366-0.35008,0.0205-0.54638,0.02051
	c-0.367,0.00186-0.73194-0.05486-1.08106-0.168c-0.33068-0.1047-0.63265-0.2845-0.88226-0.52535
	c-0.26056-0.26173-0.46115-0.57694-0.58789-0.92383c-0.15607-0.4304-0.2309-0.88604-0.2207-1.34375
	c-0.07629-1.10678,0.5317-2.14773,1.5332-2.625c0.45689-0.22589,0.96056-0.34098,1.47021-0.33594
	c0.14365-0.00048,0.28723,0.00636,0.43018,0.02051c0.11713,0.01139,0.23311,0.03263,0.34668,0.06348L69.58463,36.63312z"/>
<path d="M83.24429,30.00715c-0.43565-0.51758-0.98513-0.92735-1.60547-1.19727c-0.70369-0.29839-1.46236-0.44513-2.22656-0.43066
	c-1.93016-0.06912-3.72166,0.99936-4.57813,2.73047c-0.4231,0.83981-0.63908,1.76868-0.62988,2.709
	c-0.00249,0.66895,0.09663,1.3344,0.29395,1.97359c0.19827,0.63502,0.51542,1.22657,0.93457,1.74316
	c0.43343,0.53746,0.98704,0.96563,1.61621,1.25c0.72507,0.31567,1.5102,0.46962,2.30079,0.45117
	c0.94555,0.01981,1.87844-0.21999,2.69723-0.69333c0.77125-0.4555,1.40026-1.11697,1.81641-1.91015
	c0.45343-0.89012,0.67764-1.8793,0.65234-2.87793c0.00201-0.68425-0.10411-1.36451-0.31445-2.01563
	C83.99619,31.10614,83.6713,30.51801,83.24429,30.00715z M81.2814,35.43586c-0.14928,0.40487-0.41161,0.75838-0.75586,1.01856
	c-0.32453,0.23152-0.71468,0.35301-1.11328,0.34667c-0.43157,0.00966-0.85366-0.12736-1.19727-0.38867
	c-0.34983-0.27721-0.62394-0.63832-0.79688-1.0498c-0.39323-1.0241-0.39323-2.15754,0-3.18164
	c0.1666-0.39755,0.43382-0.74488,0.7754-1.00781c0.31547-0.23596,0.69982-0.36156,1.09375-0.35743
	c0.47215-0.02328,0.93723,0.12171,1.3125,0.40918c0.33736,0.28596,0.58772,0.66083,0.72265,1.082
	c0.16081,0.48752,0.23936,0.99841,0.23242,1.51172C81.56824,34.37025,81.47541,34.91931,81.2814,35.43586z"/>
<path d="M93.57632,29.05207c-0.8209-0.46696-1.7542-0.69969-2.69824-0.67285c-0.29867-0.00049-0.59698,0.02072-0.89258,0.06348
	c-0.28617,0.04168-0.57006,0.09775-0.85059,0.168l-0.02051-4.30469c0.01154-0.08125-0.04498-0.15647-0.12623-0.168
	c-0.01385-0.00197-0.02792-0.00197-0.04177,0H86.384c-0.11231,0-0.168,0.04883-0.168,0.14648v14.25879
	c0,0.11231,0.04882,0.17578,0.14746,0.18946c0.5212,0.18272,1.05936,0.31292,1.60644,0.38867
	c0.55303,0.0765,1.11066,0.11501,1.66895,0.11523c0.79148,0.00078,1.57813-0.12314,2.33105-0.36719
	c0.7373-0.23517,1.42443-0.60539,2.02637-1.09179c0.60239-0.49237,1.08691-1.11335,1.418-1.81739
	c0.36746-0.81043,0.54707-1.69342,0.52539-2.583c0.01347-0.88262-0.20007-1.7539-0.62012-2.53028
	C94.91068,30.10264,94.30841,29.48251,93.57632,29.05207z M92.53726,35.4466c-0.2578,0.44807-0.64619,0.80682-1.11327,1.02832
	c-0.47327,0.2201-0.98979,0.33155-1.51171,0.32617c-0.13345,0.00055-0.26681-0.00663-0.39942-0.02148
	c-0.126-0.01367-0.25195-0.02734-0.37793-0.042V31.0257c0.15137-0.04819,0.30566-0.08668,0.46192-0.11523
	c0.25703-0.0407,0.51717-0.05835,0.77734-0.05273c0.45805-0.00733,0.91138,0.09337,1.32324,0.29394
	c0.39565,0.20055,0.71867,0.51982,0.92383,0.91309c0.24287,0.49954,0.35828,1.05144,0.33594,1.60644
	C92.98079,34.29013,92.83563,34.90382,92.53726,35.4466z"/>
<path d="M105.59879,29.86067c-0.36471-0.46635-0.83679-0.83757-1.376-1.082c-0.63786-0.28053-1.32975-0.41691-2.02636-0.39941
	c-0.75287-0.01824-1.49989,0.13644-2.1836,0.45215c-0.60839,0.2945-1.14577,0.71728-1.57519,1.23926
	c-0.43578,0.52738-0.7672,1.13288-0.97657,1.78418c-0.21732,0.6682-0.32708,1.36668-0.32519,2.06933
	c-0.00008,0.6432,0.09167,1.28312,0.27246,1.90039c0.1831,0.62521,0.49033,1.20711,0.90332,1.71094
	c0.44173,0.53521,1.00259,0.95961,1.6377,1.23926c0.79042,0.33077,1.64256,0.48828,2.499,0.46191
	c0.61959,0.0095,1.23857-0.04317,1.84765-0.15722c0.47182-0.09445,0.93031-0.24629,1.36524-0.45215
	c0.03843-0.02346,0.07087-0.05556,0.09473-0.09375c0.02419-0.04906,0.03497-0.10364,0.03125-0.15821V36.3802
	c0-0.126-0.03516-0.16016-0.1045-0.1045c-0.39417,0.16882-0.80635,0.29202-1.22851,0.36719
	c-0.44714,0.07901-0.90044,0.1179-1.35449,0.11621c-0.57116,0.02114-1.14032-0.07904-1.66993-0.29394
	c-0.38827-0.16415-0.72019-0.43805-0.95507-0.78809c-0.2121-0.33391-0.34845-0.71025-0.39942-1.10254h4.13672
	c0.33691,0,0.6543-0.00293,0.95605-0.01074c0.30079-0.00684,0.55274-0.02084,0.75586-0.042
	c0.20313-0.02051,0.34668-0.03125,0.43067-0.03125c0.09646,0.00022,0.17764-0.07215,0.18847-0.168
	c0.01465-0.11133,0.03223-0.294,0.05274-0.5459c0.02148-0.252,0.03125-0.53223,0.03125-0.83984
	c-0.00153-0.54169-0.08652-1.0799-0.25195-1.59571C106.20545,30.80579,105.94264,30.30463,105.59879,29.86067z M103.87613,32.49543
	c-0.09986,0.02115-0.20164,0.03195-0.30371,0.03223c-0.16113,0.00683-0.40983,0.01009-0.74609,0.00976h-2.751
	c0.04453-0.30087,0.14031-0.59186,0.2832-0.86035c0.33048-0.64411,1.01081-1.0316,1.7334-0.9873
	c0.29455-0.00966,0.58678,0.05517,0.84961,0.18847c0.40331,0.21363,0.70817,0.57519,0.85059,1.00879
	c0.05193,0.15571,0.08025,0.31832,0.084,0.48242V32.49543z"/>
<path d="M120.08804,32.12828c-0.65807-0.50626-1.38685-0.91326-2.16305-1.208l-0.77637-0.294
	c-0.41656-0.18541-0.82335-0.39206-1.21875-0.61914c-0.24302-0.13119-0.45721-0.30986-0.62988-0.52539
	c-0.12549-0.17375-0.19159-0.38335-0.18848-0.59766c0.00111-0.17252,0.04436-0.34215,0.126-0.49414
	c0.08952-0.16672,0.22423-0.30481,0.38867-0.39844c0.21318-0.12035,0.44283-0.20885,0.68164-0.26269
	c0.33759-0.07651,0.6832-0.11192,1.0293-0.10547c0.58627-0.0015,1.1709,0.06203,1.74316,0.18945
	c0.51111,0.10846,1.0054,0.28483,1.46973,0.52442c0.05566,0.042,0.10156,0.0459,0.13672,0.01074
	c0.02935-0.02341,0.04829-0.05745,0.05273-0.09473v-2.373c0.00751-0.11166-0.04987-0.21769-0.14746-0.27246
	c-0.44047-0.20875-0.91225-0.34369-1.39648-0.39942c-0.62249-0.08683-1.2504-0.12894-1.87891-0.126
	c-0.95263-0.03097-1.90006,0.15225-2.77246,0.53614c-1.389,0.61308-2.2747,1.99955-2.24707,3.51758
	c-0.00423,0.52324,0.08847,1.04274,0.27344,1.53222c0.215,0.52138,0.55791,0.98017,0.99707,1.334
	c0.60673,0.48627,1.28284,0.87895,2.00586,1.165l1.0498,0.4414c0.40215,0.15221,0.78898,0.34218,1.15528,0.56738
	c0.23508,0.1389,0.43597,0.32879,0.58789,0.55567c0.11295,0.1944,0.17101,0.41581,0.168,0.64062
	c-0.00441,0.37253-0.19842,0.71711-0.51465,0.91407c-0.52201,0.28836-1.11757,0.4161-1.71192,0.36718
	c-1.34282-0.01028-2.65722-0.38785-3.80078-1.09179c-0.04058-0.02719-0.09239-0.03126-0.13672-0.01075
	c-0.03714,0.02596-0.05702,0.07023-0.05175,0.11524v2.499c-0.02054,0.14202,0.04554,0.28262,0.168,0.35742
	c0.51268,0.23593,1.05212,0.40874,1.60645,0.51465c0.70161,0.13906,1.41563,0.20581,2.13086,0.19922
	c0.94875,0.02163,1.892-0.14981,2.77246-0.5039c0.7354-0.29765,1.37228-0.79612,1.83789-1.43848
	c0.44478-0.63643,0.67625-1.39753,0.66113-2.17383c0.00424-0.55127-0.10305-1.09771-0.31543-1.60644
	C120.93372,32.97036,120.55898,32.49481,120.08804,32.12828z"/>
<path d="M126.00992,28.59016h-2.583c-0.1123,0-0.168,0.0625-0.168,0.18847v10.03809c0,0.13965,0.06347,0.21,0.18945,0.21h2.56152
	c0.11231,0,0.168-0.07031,0.168-0.21V28.77863C126.17789,28.65266,126.12222,28.59016,126.00992,28.59016z"/>
<path d="M124.75015,24.22199c-0.43301-0.01129-0.85254,0.15118-1.165,0.45118c-0.31633,0.30326-0.48827,0.72706-0.47266,1.165
	c-0.01833,0.44179,0.14017,0.87267,0.44043,1.19727c0.30164,0.31161,0.72195,0.47966,1.15527,0.46191
	c0.44923,0.02163,0.88698-0.1459,1.207-0.46191c0.30692-0.32121,0.47012-0.75336,0.45214-1.19727
	c0.0171-0.43015-0.13788-0.8494-0.43066-1.165C125.62285,24.36163,125.19169,24.19768,124.75015,24.22199z"/>
<path d="M136.23648,37.06281c-0.7684-0.3069-1.58759-0.46689-2.41499-0.47168l-2.13625-0.10565
	c-0.03709-0.04522-0.09235-0.09234-0.12061-0.13653c-0.07637-0.11519-0.11682-0.25047-0.11621-0.38868
	c-0.01367-0.12561-0.01367-0.25232,0-0.37793c0.00996-0.06331,0.02655-0.1254,0.0495-0.18524
	c0.22693,0.02246,0.4549,0.03876,0.68585,0.03876c0.7238,0.01052,1.44318-0.11435,2.12109-0.36816
	c0.59261-0.21626,1.1078-0.60333,1.48047-1.11231c0.37389-0.55371,0.56136-1.21227,0.53516-1.87988
	c0.00526-0.26544-0.02628-0.53033-0.09375-0.78711c-0.05371-0.19282-0.1277-0.3794-0.2207-0.55664
	c0.22362,0.02832,0.48599,0.05273,0.78709,0.07324c0.3008,0.02149,0.52148,0.03125,0.66211,0.03125
	c0.041,0.00471,0.08223-0.00647,0.11523-0.03125c0.02449-0.03314,0.03564-0.07426,0.03125-0.11523v-1.95313
	c0-0.09764-0.04201-0.14647-0.12601-0.14648h-2.87695c-0.07031,0-0.14746-0.00391-0.23145-0.01074s-0.1748-0.01758-0.27246-0.03125
	c-0.23828-0.043-0.53516-0.08106-0.89258-0.11622c-0.35742-0.03418-0.72459-0.05273-1.10252-0.05273
	c-0.80069-0.02357-1.59566,0.14204-2.32031,0.4834c-0.59944,0.28792-1.1055,0.73912-1.46001,1.30176
	c-0.33499,0.54264-0.50968,1.16895-0.5039,1.80664c-0.01625,0.56239,0.11398,1.11934,0.37794,1.61621
	c0.24426,0.43974,0.59435,0.81163,1.01854,1.082c0.01837,0.01172,0.03925,0.0188,0.05774,0.03021
	c-0.09569,0.15268-0.17496,0.31507-0.23645,0.48444c-0.09874,0.28417-0.15533,0.58126-0.168,0.88183
	c-0.0244,0.55251,0.12445,1.09884,0.42572,1.56263c-0.02423,0.02081-0.05542,0.0437-0.07899,0.06433
	c-0.38023,0.32587-0.73813,0.67693-1.07129,1.05078c-0.23508,0.26014-0.43593,0.54926-0.59766,0.86035
	c-0.11723,0.22407-0.18201,0.47184-0.18945,0.72461c0.01655,0.53947,0.20013,1.06051,0.52539,1.49121
	c0.42563,0.56287,0.99991,0.99577,1.6582,1.25c0.91606,0.3574,1.89514,0.52518,2.87793,0.49316
	c1.00168,0.0242,1.99791-0.15452,2.92871-0.52539c0.75177-0.29908,1.4111-0.79163,1.91112-1.4277
	c0.44162-0.56315,0.68195-1.25797,0.68262-1.97363c0.00867-0.52788-0.12926-1.04782-0.39844-1.502
	C137.22435,37.65248,136.76979,37.27869,136.23648,37.06281z M131.03922,30.85774c0.29529-0.26551,0.68466-0.40163,1.08105-0.37793
	c0.28978-0.0116,0.57712,0.05736,0.83008,0.19921c0.2108,0.12645,0.37885,0.31321,0.48242,0.53614
	c0.10834,0.23704,0.16238,0.49527,0.1582,0.75586c0.01933,0.384-0.12595,0.75804-0.39941,1.02832
	c-0.29335,0.2622-0.67834,0.39802-1.07129,0.37793c-0.41336,0.03126-0.81856-0.1268-1.10156-0.42969
	c-0.24118-0.27615-0.37224-0.63143-0.36816-0.99805C130.62341,31.54749,130.76414,31.15219,131.03922,30.85774z M134.99821,40.73859
	c-0.23955,0.23622-0.53633,0.40616-0.86131,0.49317c-0.49864,0.13977-1.01555,0.20331-1.5332,0.18848
	c-0.46967,0.00931-0.93771-0.05798-1.38574-0.19922c-0.32956-0.09499-0.62961-0.27207-0.87207-0.51465
	c-0.17-0.16705-0.27107-0.39185-0.2832-0.62988c0.02669-0.19758,0.10258-0.38529,0.2207-0.5459
	c0.14555-0.23701,0.34286-0.438,0.57715-0.58789l2.31055,0.10547c0.35927,0.00998,0.71716,0.04852,1.07031,0.11523
	c0.27066,0.04177,0.52893,0.14209,0.75684,0.29394c0.18881,0.14771,0.29111,0.38015,0.27246,0.61915
	c-0.00357,0.24727-0.10097,0.48394-0.27249,0.66209H134.99821z"/>
<path d="M147.93375,30.51106c-0.32123-0.91989-1.05617-1.63529-1.98438-1.93164c-0.39656-0.13041-0.81108-0.19797-1.22852-0.2002
	c-0.53609-0.0015-1.0686,0.08731-1.5752,0.2627c-0.50919,0.17885-0.97952,0.45329-1.38574,0.80859
	c-0.01027-0.13191-0.03516-0.26226-0.07422-0.38867c-0.03418-0.1045-0.06641-0.19922-0.09375-0.28321
	c-0.00934-0.06304-0.04865-0.11763-0.10547-0.14648c-0.06575-0.03025-0.13768-0.04464-0.21001-0.042h-2.18359
	c-0.04599-0.00393-0.09157,0.01126-0.12601,0.042c-0.0298,0.03484-0.03806,0.08325-0.02148,0.126
	c0.01367,0.15332,0.02832,0.36425,0.04201,0.62988s0.02441,0.5459,0.03125,0.83984c0.00781,0.29395,0.01074,0.55957,0.01074,0.79785
	v7.81156c-0.01291,0.09172,0.05099,0.17654,0.14272,0.18945c0.0155,0.00218,0.03123,0.00218,0.04674,0h2.56152
	c0.1123,0,0.168-0.06348,0.168-0.18945V31.5716c0.22623-0.21124,0.48985-0.37848,0.77734-0.49316
	c0.31442-0.12293,0.64973-0.18362,0.9873-0.17871c0.31377-0.01315,0.62439,0.06706,0.89256,0.23047
	c0.23665,0.16186,0.42229,0.3878,0.53516,0.65136c0.1369,0.34002,0.20111,0.70495,0.18848,1.07129v5.96387
	c-0.01436,0.10163,0.0564,0.19565,0.15804,0.21c0.01723,0.00243,0.03473,0.00243,0.05197,0h2.541
	c0.1123,0,0.168-0.06348,0.168-0.18945V32.6009C148.2713,31.89096,148.16473,31.18277,147.93375,30.51106z"/>
</svg>
