<?xml version="1.0" encoding="utf-8"?>
<!-- Generator: Adobe Illustrator 26.0.2, SVG Export Plug-In . SVG Version: 6.00 Build 0)  -->
<svg version="1.1" id="Layer_1" xmlns="http://www.w3.org/2000/svg" xmlns:xlink="http://www.w3.org/1999/xlink" x="0px" y="0px"
	 viewBox="0 0 337.431 58.843" style="enable-background:new 0 0 337.431 58.843;" xml:space="preserve">
<style type="text/css">
	.st0{fill:#584CCC;}
	.st1{fill:#FFFFFF;}
</style>
<g>
	<path d="M72.113,2.209c0-0.144,0.024-0.192,0.144-0.192c0.984-0.024,2.88-0.072,4.705-0.072c4.848,0,6.528,2.688,6.528,5.305
		c0,3.888-3,5.544-6.696,5.544c-0.648,0-0.792,0-1.368,0v4.729c0,0.12-0.048,0.192-0.192,0.192h-2.953
		c-0.12,0-0.168-0.072-0.168-0.192V2.209z M75.426,9.841c0.408,0.024,0.672,0.024,1.344,0.024c1.896,0,3.408-0.576,3.408-2.544
		c0-1.512-1.032-2.472-3.121-2.472c-0.768,0-1.416,0.024-1.632,0.048V9.841z"/>
	<path d="M96.241,11.689c0,3.768-2.448,6.265-5.905,6.265c-4.104,0-5.928-3.097-5.928-6.193c0-3.408,2.28-6.216,5.977-6.216
		C94.249,5.545,96.241,8.449,96.241,11.689z M87.793,11.713c0,2.112,0.984,3.456,2.592,3.456c1.392,0,2.448-1.2,2.448-3.408
		c0-1.872-0.768-3.432-2.592-3.432C88.849,8.329,87.793,9.577,87.793,11.713z"/>
	<path d="M107.533,17.714c-0.192,0-0.24-0.072-0.288-0.216c-1.2-4.896-1.584-7.105-1.824-8.281h-0.024
		c-0.6,2.64-1.08,4.632-2.088,8.281c-0.048,0.168-0.12,0.216-0.264,0.216h-3c-0.24,0-0.288-0.048-0.336-0.216l-3.12-11.497
		c-0.048-0.12,0.024-0.216,0.192-0.216h3.048c0.144,0,0.192,0.048,0.216,0.168c1.272,5.185,1.608,7.489,1.776,8.497h0.048
		c0.192-0.864,0.576-3.121,1.968-8.449c0.024-0.144,0.048-0.216,0.216-0.216h3.168c0.12,0,0.168,0.048,0.192,0.168
		c1.272,5.305,1.608,7.633,1.776,8.593h0.048c0.336-1.56,0.696-4.152,1.848-8.593c0.024-0.096,0.072-0.168,0.216-0.168h2.808
		c0.096,0,0.192,0.072,0.144,0.192l-3.432,11.521c-0.048,0.168-0.072,0.216-0.288,0.216H107.533z"/>
	<path d="M117.953,12.625c0.12,1.368,1.08,2.496,3.432,2.496c1.08,0,2.04-0.168,2.953-0.552c0.072-0.048,0.144-0.024,0.144,0.12
		v2.28c0,0.168-0.048,0.24-0.168,0.288c-0.96,0.456-2.016,0.696-3.672,0.696c-4.512,0-6.096-3.097-6.096-6.073
		c0-3.312,2.04-6.336,5.808-6.336c3.625,0,5.065,2.808,5.065,5.185c0,0.744-0.049,1.344-0.12,1.608
		c-0.024,0.12-0.072,0.168-0.192,0.192c-0.312,0.048-1.225,0.096-2.472,0.096H117.953z M121.074,10.297
		c0.768,0,1.104-0.024,1.2-0.048c0-0.048,0-0.144,0-0.168c0-0.576-0.456-1.896-2.04-1.896c-1.512,0-2.16,1.128-2.304,2.112H121.074z
		"/>
	<path d="M129.876,5.785c0.168,0,0.239,0.072,0.288,0.216c0.119,0.312,0.24,0.816,0.264,1.344c0.792-0.937,2.112-1.8,3.816-1.8
		c0.145,0,0.191,0.048,0.191,0.192v2.952c0,0.12-0.047,0.168-0.215,0.168c-1.729-0.072-3.121,0.456-3.625,1.032l-0.023,7.633
		c0,0.144-0.049,0.192-0.217,0.192h-2.88c-0.192,0-0.24-0.072-0.24-0.216V9.217c0-1.032-0.024-2.424-0.12-3.265
		c0-0.12,0.024-0.168,0.145-0.168H129.876z"/>
	<path d="M138.381,12.625c0.121,1.368,1.08,2.496,3.433,2.496c1.08,0,2.04-0.168,2.952-0.552c0.072-0.048,0.145-0.024,0.145,0.12
		v2.28c0,0.168-0.049,0.24-0.168,0.288c-0.961,0.456-2.017,0.696-3.673,0.696c-4.513,0-6.097-3.097-6.097-6.073
		c0-3.312,2.041-6.336,5.809-6.336c3.625,0,5.064,2.808,5.064,5.185c0,0.744-0.048,1.344-0.119,1.608
		c-0.024,0.12-0.072,0.168-0.193,0.192c-0.312,0.048-1.224,0.096-2.472,0.096H138.381z M141.502,10.297
		c0.768,0,1.104-0.024,1.199-0.048c0-0.048,0-0.144,0-0.168c0-0.576-0.455-1.896-2.039-1.896c-1.513,0-2.16,1.128-2.305,2.112
		H141.502z"/>
	<path d="M146.956,11.857c0-3.432,2.567-6.313,6.96-6.313c0.192,0,0.433,0.024,0.793,0.048V0.864c0-0.12,0.072-0.168,0.168-0.168
		h3.023c0.121,0,0.145,0.048,0.145,0.144v14.186c0,0.552,0.023,1.272,0.096,1.752c0,0.12-0.023,0.168-0.168,0.216
		c-1.656,0.696-3.24,0.96-4.729,0.96C149.692,17.954,146.956,15.938,146.956,11.857z M154.709,8.449
		c-0.24-0.096-0.553-0.12-0.889-0.12c-1.848,0-3.432,1.128-3.432,3.36c0,2.376,1.367,3.408,3.191,3.408
		c0.408,0,0.793-0.024,1.129-0.144V8.449z"/>
	<path d="M168.989,0.696c0.191,0,0.239,0.024,0.239,0.192v4.921c0.624-0.168,1.296-0.264,2.017-0.264c3.527,0,5.76,2.496,5.76,5.712
		c0,4.488-3.552,6.697-7.2,6.697c-1.272,0-2.544-0.168-3.769-0.552c-0.072-0.024-0.145-0.144-0.145-0.24V0.864
		c0-0.12,0.049-0.168,0.168-0.168H168.989z M170.644,8.377c-0.769,0-1.104,0.12-1.416,0.192v6.505
		c0.288,0.072,0.601,0.096,0.888,0.096c1.824,0,3.48-1.104,3.48-3.6C173.596,9.385,172.324,8.377,170.644,8.377z"/>
	<path d="M180.472,5.785c0.097,0,0.192,0.048,0.239,0.168c1.369,4.104,2.089,6.601,2.425,7.849c0.769-2.544,1.513-4.849,2.448-7.849
		c0.023-0.096,0.12-0.168,0.264-0.168h2.856c0.169,0,0.192,0.096,0.169,0.216c-1.729,5.376-4.393,12.001-6.17,16.105
		c-0.047,0.096-0.119,0.168-0.336,0.168l-3.023,0.24c-0.145,0-0.192-0.072-0.12-0.216c0.696-1.44,1.416-3.024,2.185-4.825
		c0.071-0.168,0.096-0.24,0.023-0.408c-0.672-1.656-2.928-7.321-4.344-11.089c-0.072-0.12,0.023-0.192,0.144-0.192H180.472z"/>
	<g>
		<path class="st0" d="M9.808,0h35.769c5.417,0,9.808,4.391,9.808,9.808v34.385c0,5.417-4.391,9.808-9.808,9.808H9.808
			C4.391,54,0,49.609,0,44.192V9.808C0,4.391,4.391,0,9.808,0z"/>
		<path class="st1" d="M44.533,31.263c-1.1-1.181-3.205-1.781-6.255-1.781c-1.693,0.016-3.382,0.163-5.052,0.438
			c-1.07-1.043-2.044-2.18-2.911-3.396c-0.658-0.909-1.266-1.854-1.821-2.829c1.074-3.381,1.619-6.126,1.619-8.161
			c0-2.498-0.99-5.169-3.768-5.169c-0.959,0.028-1.837,0.546-2.325,1.372c-1.185,2.035-0.71,6.222,1.181,10.483
			c-0.659,1.958-1.376,3.864-2.256,5.976c-0.752,1.81-1.604,3.578-2.55,5.295c-2.834,1.14-8.857,3.907-9.431,6.964
			c-0.176,0.901,0.138,1.827,0.824,2.436c0.68,0.589,1.555,0.901,2.454,0.876c3.628,0,7.246-5.023,9.681-9.346
			c1.385-0.471,2.796-0.898,4.202-1.269c1.542-0.408,3.032-0.743,4.438-0.992c3.841,3.352,7.256,3.86,8.967,3.86
			c2.351,0,3.231-1.02,3.551-1.877C45.438,33.154,45.228,32.05,44.533,31.263z M42.031,33.026c-0.129,0.666-0.817,1.097-1.759,1.097
			c-0.268-0.001-0.535-0.034-0.795-0.099c-1.729-0.412-3.385-1.247-5.037-2.55c1.234-0.188,2.48-0.284,3.727-0.287
			c0.832-0.014,1.664,0.05,2.484,0.191C41.398,31.532,42.241,31.944,42.031,33.026L42.031,33.026z M25.51,12.604
			c0.156-0.304,0.461-0.501,0.802-0.519c0.879,0,1.071,1.06,1.071,1.947c0.007,1.413-0.419,3.665-1.152,6.156
			C24.756,16.28,24.962,13.542,25.51,12.604z M30.665,30.395c-0.997,0.21-2.028,0.453-3.072,0.729
			c-0.75,0.199-1.512,0.415-2.274,0.648c0.405-0.828,0.777-1.648,1.1-2.428c0.427-1.031,0.828-2.061,1.196-3.069
			c0.323,0.508,0.657,1,1.001,1.476c0.659,0.916,1.371,1.793,2.131,2.626L30.665,30.395z M19.505,35.741
			c-2.322,3.738-4.607,6.101-5.942,6.101c-0.219,0.01-0.433-0.067-0.596-0.213c-0.254-0.205-0.372-0.534-0.306-0.854
			C12.915,39.435,15.56,37.504,19.505,35.741z"/>
	</g>
	<g>
		<path d="M76.495,46.566l-1.584,4.885c-0.066,0.165-0.165,0.264-0.363,0.264H70.72c-0.231,0-0.297-0.132-0.264-0.33l6.601-19.043
			c0.132-0.363,0.264-0.759,0.33-2.013c0-0.132,0.099-0.231,0.198-0.231h5.28c0.165,0,0.231,0.033,0.264,0.198l7.492,21.122
			c0.066,0.165,0.033,0.297-0.165,0.297h-4.291c-0.198,0-0.297-0.066-0.363-0.231l-1.683-4.918H76.495z M82.898,42.44
			c-0.66-2.178-1.98-6.172-2.607-8.515h-0.033c-0.528,2.211-1.716,5.841-2.574,8.515H82.898z"/>
		<path d="M90.84,43.661c0-4.719,3.532-8.68,9.571-8.68c0.264,0,0.594,0.033,1.089,0.066v-6.501c0-0.165,0.099-0.231,0.231-0.231
			h4.159c0.165,0,0.198,0.066,0.198,0.198v19.505c0,0.759,0.033,1.749,0.132,2.409c0,0.165-0.033,0.231-0.231,0.297
			c-2.277,0.957-4.455,1.32-6.502,1.32C94.602,52.045,90.84,49.272,90.84,43.661z M101.5,38.975
			c-0.33-0.132-0.759-0.165-1.221-0.165c-2.541,0-4.72,1.551-4.72,4.62c0,3.267,1.881,4.687,4.389,4.687
			c0.561,0,1.089-0.033,1.551-0.199V38.975z"/>
		<path d="M124.686,43.43c0,5.182-3.366,8.614-8.119,8.614c-5.643,0-8.152-4.257-8.152-8.515c0-4.687,3.136-8.548,8.218-8.548
			C121.947,34.982,124.686,38.975,124.686,43.43z M113.069,43.463c0,2.904,1.353,4.752,3.564,4.752c1.914,0,3.366-1.65,3.366-4.686
			c0-2.575-1.056-4.72-3.565-4.72C114.521,38.81,113.069,40.526,113.069,43.463z"/>
		<path d="M131.319,28.315c0.264,0,0.33,0.033,0.33,0.264v6.766c0.858-0.231,1.783-0.363,2.772-0.363
			c4.852,0,7.921,3.432,7.921,7.855c0,6.172-4.885,9.208-9.901,9.208c-1.749,0-3.498-0.232-5.181-0.76
			c-0.099-0.033-0.198-0.198-0.198-0.33V28.546c0-0.165,0.066-0.231,0.231-0.231H131.319z M133.596,38.876
			c-1.056,0-1.518,0.165-1.948,0.264v8.944c0.396,0.098,0.825,0.132,1.221,0.132c2.508,0,4.786-1.518,4.786-4.95
			C137.655,40.262,135.906,38.876,133.596,38.876z"/>
		<path d="M148.491,44.718c0.165,1.881,1.486,3.433,4.72,3.433c1.485,0,2.805-0.232,4.059-0.76c0.099-0.066,0.198-0.033,0.198,0.165
			v3.135c0,0.231-0.066,0.33-0.231,0.396c-1.32,0.627-2.772,0.957-5.049,0.957c-6.205,0-8.383-4.257-8.383-8.35
			c0-4.555,2.806-8.713,7.987-8.713c4.983,0,6.964,3.861,6.964,7.129c0,1.023-0.066,1.848-0.165,2.211
			c-0.033,0.165-0.099,0.231-0.264,0.264c-0.429,0.066-1.683,0.132-3.399,0.132H148.491z M152.782,41.516
			c1.056,0,1.518-0.033,1.65-0.066c0-0.066,0-0.198,0-0.231c0-0.792-0.627-2.607-2.805-2.607c-2.08,0-2.971,1.551-3.168,2.904
			H152.782z"/>
		<path d="M172.648,46.566l-1.584,4.885c-0.066,0.165-0.165,0.264-0.363,0.264h-3.828c-0.231,0-0.297-0.132-0.264-0.33l6.601-19.043
			c0.132-0.363,0.264-0.759,0.33-2.013c0-0.132,0.099-0.231,0.198-0.231h5.28c0.165,0,0.231,0.033,0.264,0.198l7.492,21.122
			c0.065,0.165,0.033,0.297-0.165,0.297h-4.291c-0.198,0-0.297-0.066-0.363-0.231l-1.683-4.918H172.648z M179.05,42.44
			c-0.66-2.178-1.98-6.172-2.607-8.515h-0.033c-0.528,2.211-1.716,5.841-2.574,8.515H179.05z"/>
		<path d="M199.567,51.252c0,0.165-0.033,0.232-0.165,0.264c-1.056,0.429-2.409,0.529-3.697,0.529c-5.346,0-8.713-3.597-8.713-8.449
			c0-4.951,3.73-8.614,9.34-8.614c1.617,0,2.508,0.165,3.036,0.363c0.165,0.066,0.199,0.165,0.199,0.363l-0.033,3.4
			c0,0.231-0.132,0.264-0.265,0.231c-0.627-0.231-1.55-0.396-2.772-0.396c-2.772,0-4.785,1.518-4.785,4.488
			c0,3.433,2.541,4.555,4.852,4.555c1.155,0,2.178-0.132,2.738-0.297c0.199-0.066,0.265,0,0.265,0.132V51.252z"/>
		<path d="M205.665,35.312c0.232,0,0.331,0.099,0.396,0.297c0.165,0.429,0.33,1.122,0.363,1.848
			c1.089-1.287,2.904-2.475,5.247-2.475c0.199,0,0.265,0.066,0.265,0.264v4.059c0,0.165-0.066,0.231-0.298,0.231
			c-2.376-0.099-4.29,0.627-4.983,1.419l-0.033,10.496c0,0.198-0.065,0.264-0.297,0.264h-3.96c-0.265,0-0.331-0.099-0.331-0.297
			V40.031c0-1.419-0.033-3.333-0.165-4.488c0-0.165,0.033-0.231,0.198-0.231H205.665z"/>
		<path d="M228.832,43.43c0,5.182-3.366,8.614-8.119,8.614c-5.643,0-8.152-4.257-8.152-8.515c0-4.687,3.136-8.548,8.218-8.548
			C226.093,34.982,228.832,38.975,228.832,43.43z M217.215,43.463c0,2.904,1.353,4.752,3.564,4.752c1.914,0,3.366-1.65,3.366-4.686
			c0-2.575-1.056-4.72-3.564-4.72C218.667,38.81,217.215,40.526,217.215,43.463z"/>
		<path d="M235.463,28.315c0.265,0,0.33,0.033,0.33,0.264v6.766c0.858-0.231,1.783-0.363,2.772-0.363
			c4.852,0,7.921,3.432,7.921,7.855c0,6.172-4.885,9.208-9.902,9.208c-1.749,0-3.498-0.232-5.181-0.76
			c-0.099-0.033-0.199-0.198-0.199-0.33V28.546c0-0.165,0.066-0.231,0.232-0.231H235.463z M237.741,38.876
			c-1.057,0-1.518,0.165-1.948,0.264v8.944c0.396,0.098,0.825,0.132,1.221,0.132c2.509,0,4.786-1.518,4.786-4.95
			C241.801,40.262,240.051,38.876,237.741,38.876z"/>
		<path d="M261.641,48.051c0,0.858,0,1.551,0.066,2.343c0,0.066,0,0.132-0.066,0.165c-2.905,1.122-4.818,1.485-7.195,1.485
			c-3.663,0-6.667-1.684-6.667-5.512c0-3.498,3.069-5.347,7.458-5.347c0.892,0,1.651,0,1.948,0.066v-0.231
			c0-0.627-0.395-2.079-3.168-2.079c-1.651,0-3.103,0.33-4.357,0.891c-0.132,0.066-0.297,0-0.297-0.165v-3.333
			c0-0.165,0.033-0.264,0.232-0.33c1.451-0.693,3.332-1.023,5.181-1.023c4.752,0,6.865,2.937,6.865,6.7V48.051z M257.185,44.652
			c-0.528-0.066-0.989-0.099-1.65-0.099c-2.343,0-3.301,0.76-3.301,1.948c0,1.089,0.826,1.98,2.905,1.98
			c0.759,0,1.419-0.098,2.046-0.297V44.652z"/>
		<path d="M272.936,51.154c0,0.198-0.033,0.362-0.231,0.429c-0.924,0.33-1.782,0.463-2.938,0.463c-2.871,0-4.554-1.42-4.554-4.72
			V39.14h-1.981c-0.198-0.033-0.264-0.099-0.264-0.297v-3.234c0-0.231,0.066-0.297,0.297-0.297h1.981
			c0.033-1.122,0.165-3.069,0.329-3.994c0.033-0.165,0.132-0.264,0.298-0.297l3.861-0.495c0.165-0.033,0.264-0.033,0.264,0.198
			c-0.099,1.023-0.165,2.97-0.165,4.588h3.036c0.199,0,0.265,0.066,0.265,0.264v3.333c0,0.165-0.066,0.198-0.232,0.231H269.8v7.063
			c0,1.452,0.429,2.112,1.782,2.112c0.397,0,0.726-0.066,1.123-0.132c0.132,0,0.231,0.033,0.231,0.232V51.154z"/>
		<path d="M281.878,50.889c-0.165-0.098-0.231-0.264-0.231-0.528v-3.927c0-0.165,0.132-0.264,0.264-0.165
			c1.815,1.155,3.994,1.716,5.973,1.716c2.509,0,3.499-0.858,3.499-2.013c0-1.057-0.759-1.815-3.003-2.772l-1.651-0.693
			c-4.059-1.716-5.181-3.762-5.181-6.337c0-3.564,2.705-6.403,7.953-6.403c2.079,0,3.96,0.264,5.149,0.858
			c0.165,0.099,0.199,0.231,0.199,0.429v3.696c0,0.132-0.099,0.297-0.298,0.165c-1.32-0.759-3.136-1.089-5.082-1.089
			c-2.541,0-3.433,0.858-3.433,1.947c0,1.023,0.693,1.716,3.169,2.706l1.221,0.495c4.39,1.815,5.611,3.895,5.611,6.568
			c0,3.994-3.235,6.502-8.317,6.502C285.277,52.045,283.264,51.615,281.878,50.889z"/>
		<path d="M298.275,30.988c0-1.485,1.089-2.541,2.575-2.541c1.583,0,2.541,1.056,2.541,2.541c0,1.551-1.023,2.574-2.574,2.574
			C299.266,33.562,298.275,32.539,298.275,30.988z M298.507,35.576c0-0.165,0.065-0.264,0.263-0.264h4.06
			c0.198,0,0.264,0.066,0.264,0.264v15.842c0,0.198-0.033,0.297-0.297,0.297h-3.96c-0.231,0-0.329-0.099-0.329-0.297V35.576z"/>
		<path d="M315.027,47.886c4.72,0.232,6.469,2.145,6.469,4.753c0,3.432-3.366,6.204-8.68,6.204c-5.512,0-7.921-2.739-7.921-5.115
			c0-1.056,0.859-2.376,3.036-4.191c-0.495-0.726-0.726-1.617-0.693-2.475c0-0.759,0.232-1.518,0.594-2.178
			c-1.353-0.858-2.277-2.211-2.277-4.257c0-3.168,2.475-5.643,6.766-5.643c1.221,0,2.376,0.132,3.135,0.264
			c0.297,0.066,0.562,0.066,0.792,0.066h4.522c0.165,0,0.231,0.066,0.231,0.231v3.069c0,0.165-0.066,0.231-0.231,0.231
			c-0.496,0-1.584-0.099-2.278-0.165c0.264,0.462,0.496,1.155,0.496,2.145c0,3.498-2.872,5.247-6.535,5.247
			c-0.363,0-0.759-0.032-1.122-0.065c-0.099,0.264-0.132,0.594-0.066,0.891c0.033,0.297,0.165,0.594,0.363,0.858L315.027,47.886z
			 M310.341,51.582c-0.726,0.528-1.254,1.419-1.254,1.749c0,1.023,1.453,2.145,4.027,2.145c2.937,0,4.191-1.023,4.191-2.112
			c0-1.221-1.452-1.551-3.3-1.65L310.341,51.582z M310.011,40.559c0,1.287,0.825,2.244,2.344,2.244c1.451,0,2.277-0.792,2.277-2.145
			c0-1.386-0.66-2.376-2.31-2.376C310.902,38.282,310.011,39.107,310.011,40.559z"/>
		<path d="M322.942,39.14c0-1.122-0.066-2.838-0.132-3.564c-0.033-0.165,0.033-0.264,0.231-0.264h3.465
			c0.265,0,0.364,0.099,0.429,0.264c0.132,0.297,0.198,0.627,0.264,1.089c1.387-1.122,2.937-1.683,4.687-1.683
			c2.541,0,5.544,1.32,5.544,6.634v9.802c0,0.198-0.066,0.297-0.296,0.297h-3.961c-0.23,0-0.329-0.099-0.329-0.297v-9.406
			c0-1.98-0.859-3.036-2.575-3.036c-1.122,0-2.046,0.396-2.739,1.023v11.452c0,0.165-0.098,0.264-0.297,0.264h-3.993
			c-0.232,0-0.298-0.099-0.298-0.297V39.14z"/>
	</g>
</g>
</svg>
