<?xml version="1.0" encoding="UTF-8"?>
<svg width="24px" height="30px" viewBox="0 0 24 30" version="1.1" xmlns="http://www.w3.org/2000/svg" xmlns:xlink="http://www.w3.org/1999/xlink">
    <title>A12_RequestSignatures_24x30</title>
    <g id="A12_RequestSignatures_24x30" stroke="none" stroke-width="1" fill="none" fill-rule="evenodd">
        <path d="M9.47149731,14.3000241 C11.0788756,14.519212 12.2955276,15.370648 12.9770095,16.6901971 L12.2441938,17.041043 C12.0731815,17.1310774 11.9104163,17.2312005 11.7565173,17.3405789 C11.3123069,16.5158627 10.6295846,15.9476606 9.70959741,15.7353559 L9.62516613,15.8197871 C8.94971587,16.5796687 8.10540306,17.0018251 7.09222767,17.0018251 L6.67007126,17.0018251 C5.65689588,17.0018251 4.81258306,16.5796687 4.13713281,15.8197871 L4.05270153,15.6509246 C2.95509486,15.9042184 2.27964461,16.5796687 1.8574882,17.5928441 L1.77305692,17.7617066 C1.43533179,18.6060194 1.35090051,19.5347635 1.35090051,20.4635076 C1.35090051,20.885664 1.01317538,21.1389579 0.675450255,21.1389579 C0.337725127,21.1389579 1.16415322e-10,20.885664 1.16415322e-10,20.4635076 C1.16415322e-10,19.365901 0.168862564,18.2682943 0.506587691,17.2551189 C1.18203795,15.6509246 2.36407589,14.5533179 4.22156409,14.3000241 C4.47485794,14.3000241 4.72815178,14.3844553 4.81258306,14.5533179 C5.23473947,15.2287682 5.99462101,15.6509246 6.83893383,15.6509246 C7.59881536,15.6509246 8.3586969,15.2287682 8.78085331,14.5533179 C8.86528459,14.3844553 9.11857844,14.3000241 9.287441,14.3000241 L9.47149731,14.3000241 Z M6.83893383,6.11018973 C8.86528459,6.11018973 10.3850477,7.71438408 10.3850477,9.82516613 C10.3850477,12.0203795 8.69642203,14.0467302 6.83893383,14.0467302 C4.98144563,14.0467302 3.29281999,12.0203795 3.29281999,9.82516613 C3.29281999,7.6299528 4.81258306,6.11018973 6.83893383,6.11018973 Z M6.83893383,7.46109024 C5.48803332,7.46109024 4.55928922,8.38983434 4.55928922,9.90959741 C4.55928922,11.5137918 5.74132716,12.8646923 6.83893383,12.8646923 C7.93654049,12.8646923 9.11857844,11.4293605 9.11857844,9.90959741 C9.11857844,8.47426562 8.18983434,7.46109024 6.83893383,7.46109024 Z M20.0911146,8.38983434 C22.2018966,8.64312818 23.4718963,10.07846 23.978484,12.0203795 C24.0629153,12.3581046 23.8940528,12.6958297 23.5563276,12.780261 C23.2186025,12.8646923 22.8808774,12.6958297 22.7964461,12.3581046 C22.3742897,11.0072041 21.6988394,10.1628913 20.5168015,9.82516613 L20.3479389,9.74073485 L20.2635076,9.82516613 C19.5880574,10.5850477 18.7437446,11.0072041 17.7305692,11.0072041 L17.5617066,11.0072041 C16.5485312,11.0072041 15.5353559,10.5850477 14.8599056,9.82516613 L14.7754743,9.74073485 C13.5090051,9.99402869 12.7491236,10.8383415 12.3269671,12.1048107 L12.2425359,12.2736733 C12.1581046,12.6113984 11.8203795,12.780261 11.4826543,12.6958297 C11.1449292,12.6113984 10.9760666,12.2736733 11.0604979,11.9359482 C11.6515169,9.99402869 12.9179861,8.64312818 14.9443369,8.38983434 C15.1976307,8.38983434 15.4509246,8.47426562 15.5353559,8.64312818 C15.9575123,9.31857844 16.7173938,9.74073485 17.5617066,9.74073485 C18.3215882,9.74073485 19.0814697,9.31857844 19.5036261,8.64312818 C19.5880574,8.47426562 19.8413512,8.38983434 20.0102138,8.38983434 L20.0911146,8.38983434 Z M17.4772753,0.2 C19.5036261,0.2 21.0233892,1.80419435 21.0233892,3.9149764 C21.0233892,6.11018973 19.3347635,8.13654049 17.4772753,8.13654049 C15.6197871,8.13654049 13.9311615,6.11018973 13.9311615,3.9149764 C13.9311615,1.71976307 15.4509246,0.2 17.4772753,0.2 Z M17.4772753,1.55090051 C16.1263748,1.55090051 15.1131994,2.47964461 15.1976307,3.99940768 C15.1976307,5.60360204 16.3796687,6.95450255 17.4772753,6.95450255 C18.574882,6.95450255 19.7569199,5.51917076 19.7569199,3.99940768 C19.7569199,2.56407589 18.8281758,1.55090051 17.4772753,1.55090051 Z" id="Combined-Shape" fill="#6E6E6E" fill-rule="nonzero"></path>
        <path d="M19.2113942,15.174382 C19.5445669,15.174382 19.8631078,15.3080906 20.0946061,15.5425368 L20.0946061,15.5425368 L23.2473436,18.6952918 C23.4848576,18.9298368 23.6182866,19.2484968 23.6182866,19.5827552 C23.6182866,19.9159278 23.4845781,20.2344688 23.2485825,20.4675109 L23.2485825,20.4675109 L21.622,22.082 L19.9207485,25.5052921 C19.7128465,25.9079851 19.3813995,26.2300662 18.9597924,26.4333644 L18.9597924,26.4333644 L18.7975286,26.5039588 L12.066934,28.8226398 C11.6033528,29.0045514 11.0757126,28.896381 10.7234465,28.5499211 L10.7234465,28.5499211 L10.1417367,27.9845609 C9.79175997,27.6286524 9.68461707,27.0979602 9.86265813,26.66629 L9.86265813,26.66629 L12.2220136,19.9201755 C12.3913202,19.4786926 12.7122645,19.1122999 13.1602046,18.8652059 L13.1602046,18.8652059 L16.685,17.175 L18.3239309,15.545325 C18.5247596,15.3419542 18.7885797,15.2146895 19.0696395,15.1824786 L19.0696395,15.1824786 Z M16.9009594,18.456382 L13.7335051,19.9753701 C13.5739459,20.0638304 13.4525348,20.2024343 13.3955415,20.3502749 L13.3955415,20.3502749 L11.2479594,26.487382 L14.8644116,22.8549373 C14.8634354,22.8362368 14.8629412,22.8174076 14.8629412,22.7984618 C14.8629412,22.2108217 15.340076,21.7347195 15.9277162,21.7347195 C16.2096595,21.7347195 16.4802425,21.8462576 16.6805978,22.0455801 C16.8809532,22.2459355 16.9924912,22.5165185 16.9924912,22.7984618 C16.9924912,23.3871347 16.5153563,23.8632368 15.9277162,23.8632368 C15.83558,23.8632368 15.7461604,23.8515327 15.6608705,23.8295257 L11.9689594,27.533382 L18.3662602,25.3309917 C18.5202247,25.2707745 18.6515277,25.1683289 18.7439713,25.0405834 L18.8057647,24.940295 L20.3289594,21.876382 L16.9009594,18.456382 Z M19.21,16.426 L17.9209594,17.708382 L21.0789594,20.859382 L22.366,19.581 L19.21,16.426 Z" id="Combined-Shape" fill="#6E6E6E" fill-rule="nonzero"></path>
    </g>
</svg>