<svg id="S_CrossMedium_18_N" xmlns="http://www.w3.org/2000/svg" width="32" height="32" viewBox="0 0 32 32">
  <g id="target_area" data-name="target area" transform="translate(-841 -261)" opacity="0.001">
    <rect id="canvas_32" width="32" height="32" transform="translate(841 261)" fill="#f6e0f6"/>
    <rect id="target_area_18px" data-name="target area 18px" width="18" height="18" transform="translate(848 268)" fill="none"/>
  </g>
  <g id="S_CrossMedium_18_N-2" data-name="S_CrossMedium_18_N" transform="translate(7.01 7.01)">
    <path id="Path_121570" data-name="Path 121570" d="M12.77,11.7,10.061,8.99,12.77,6.28A.75.75,0,0,0,11.709,5.22L9,7.929,6.291,5.22A.75.75,0,1,0,5.23,6.28L7.939,8.99,5.23,11.7A.75.75,0,0,0,6.291,12.76L9,10.05l2.709,2.709A.75.75,0,0,0,12.77,11.7Z" fill="#4b4b4b"/>
  </g>
</svg>
