<svg xmlns="http://www.w3.org/2000/svg" width="14" height="14" viewBox="0 0 14 14">
  <path fill="#12805C" d="M7,1 C3.6862915,1 1,3.6862915 1,7 C1,10.3137085 3.6862915,13 7,13 C10.3137085,13 13,10.3137085 13,7 C13,5.40870106 12.367859,3.88257758 11.2426407,2.75735931 C10.1174224,1.63214104 8.59129894,1 7,1 Z M10.99975,4.405 L6.25675,10.5025 C6.17732383,10.6043779 6.05794538,10.6672086 5.929,10.6750001 L5.90125,10.6750001 C5.78168288,10.675094 5.66699409,10.6275994 5.5825,10.543 L2.66275,7.618 C2.57831144,7.53365533 2.53077101,7.41922202 2.53077101,7.29987426 C2.53077101,7.18052649 2.57805243,7.06604066 2.6623975,6.9816025 L2.66275,6.98125 L3.16,6.484 C3.33569053,6.30852797 3.62030947,6.30852797 3.796,6.484 L5.8,8.49325 L9.742,3.42775 C9.8158199,3.33397012 9.92387051,3.27335638 10.0423815,3.2592433 C10.1608926,3.24513022 10.2801561,3.2786739 10.373935,3.352495 L10.37425,3.35275 L10.92025,3.77725 C11.114231,3.92939644 11.1496787,4.20929988 10.99975,4.405 Z"/>
</svg>
