<svg xmlns="http://www.w3.org/2000/svg" xmlns:xlink="http://www.w3.org/1999/xlink" width="18" height="18" viewBox="0 0 18 18">
  <defs>
    <clipPath id="clip-s_share_invite_18">
      <rect width="18" height="18"/>
    </clipPath>
  </defs>
  <g id="s_share_invite_18" clip-path="url(#clip-s_share_invite_18)">
    <g id="Group_70065" data-name="Group 70065">
      <rect id="Canvas" width="18" height="18" fill="#ff13dc" opacity="0"/>
      <g id="Group_70069" data-name="Group 70069" transform="translate(-1069 -6328.004)">
        <path id="Shape" d="M.357,11.275h6.7c-.013-.143-.022-.288-.022-.434A4.665,4.665,0,0,1,8.595,7.354a6.667,6.667,0,0,0-1.12-.39.447.447,0,0,1-.238-.229,2.4,2.4,0,0,1-.117-.908A.421.421,0,0,1,7.237,5.6a3.926,3.926,0,0,0,1.01-2.616A2.956,2.956,0,0,0,6.717.235,2.543,2.543,0,0,0,4.565.243a2.935,2.935,0,0,0-1.54,2.745A3.83,3.83,0,0,0,4.03,5.6a.29.29,0,0,1,.12.226,2.545,2.545,0,0,1-.174.967.366.366,0,0,1-.238.174C1.542,7.528,0,9.009,0,10.764v.169A.378.378,0,0,0,.357,11.275Z" transform="translate(1070 6330.004)" fill="#707070"/>
        <path id="Shape-2" data-name="Shape" d="M3.9,7.808a3.9,3.9,0,1,1,3.9-3.9A3.908,3.908,0,0,1,3.9,7.808ZM1.951,3.47a.217.217,0,0,0-.217.217v.434a.217.217,0,0,0,.217.217H3.469V5.856a.217.217,0,0,0,.217.217H4.12a.217.217,0,0,0,.217-.217V4.338H5.854a.217.217,0,0,0,.217-.217V3.687a.217.217,0,0,0-.217-.217H4.337V1.952a.217.217,0,0,0-.217-.217H3.686a.217.217,0,0,0-.217.217V3.47Z" transform="translate(1077.805 6336.941)" fill="#707070"/>
      </g>
    </g>
  </g>
</svg>