<svg xmlns="http://www.w3.org/2000/svg" width="18" height="18" viewBox="0 0 18 18">
  <g fill="none" fill-rule="evenodd">
    <path fill="#707070" fill-rule="nonzero" d="M.736977778 15.3040811C.331111111 15.3040811 0 15.6360811 0 16.0410589 0 16.4468367.331111111 16.7780367.736977778 16.7780367L17.2214222 16.7780367C17.6258667 16.7780367 17.9584 16.4468367 17.9584 16.0410589 17.9584 15.6360811 17.6258667 15.3040811 17.2214222 15.3040811L.736977778 15.3040811zM3.96578361 8.19754581L2.54624644 9.60874516 1.1433849 8.19754581C.871150399 7.9341514.446123031 7.9341514.190463694 8.19754581-.0634878981 8.45260241-.0634878981 8.87793115.190463694 9.14132556L1.61160815 10.5520226.190463694 11.9714593C-.0634878981 12.2265159-.0634878981 12.6518447.190463694 12.906399.446123031 13.1702957.871150399 13.1702957 1.1433849 12.906399L2.54624644 11.4957019 3.96578361 12.906399C4.2197352 13.1702957 4.64476257 13.1702957 4.90865926 12.906399 5.1643186 12.6518447 5.1643186 12.2265159 4.90865926 11.9714593L3.48922255 10.5520226 4.90865926 9.14132556C5.1643186 8.87793115 5.1643186 8.45260241 4.90865926 8.19754581 4.64476257 7.9341514 4.2197352 7.9341514 3.96578361 8.19754581L3.96578361 8.19754581zM14.5633314 13.1805262C13.9257401 13.1805262 13.1953279 12.5688525 13.0077774 12.17798 12.5660744 12.5688525 11.809142 12.9343097 11.1881259 12.9343097 10.8395452 12.9343097 10.0493619 12.6110438 9.68410561 11.9483386 9.45496653 11.5402882 9.21598281 11.0895443 9.02993916 10.5539153 8.50204533 11.2253601 6.52970135 13.1633483 6.52970135 13.1633483L5.63815848 11.9566764C6.13963251 11.5574661 8.16330926 9.38943478 8.57839153 8.57373584 8.13688946 6.23593463 8.0089091 4.00903633 8.7411295 2.56398346 9.47164215 1.11903104 10.6353191.80460522 11.6646869 1.10185315 12.378524 1.30587834 12.9314312 1.87536077 13.0758863 2.56398346 13.424467 4.23023942 12.0132676 6.52534702 10.168904 9.21966493 10.3464089 9.90838807 10.4743893 10.5798329 10.8313078 11.0640285 11.1467382 11.4804167 11.8771504 11.4210475 12.2174937 10.868743 12.1229651 8.84597034 12.2174937 8.39512589 12.3353281 8.17442508 12.6590963 7.38373957 13.0077774 7.27333894 13.6370309 7.2219057 14.1217289 7.29001455 14.5201355 7.62161828 14.6313398 8.1484071 14.767457 8.81995235 14.5284733 9.84017876 13.9092654 10.9109343 14.2146502 12.1608021 15.4647189 11.5574661 15.9229971 10.6048463L16.4924795 9.04949325 17.393867 10.1801203 17.1648284 10.8599029C16.4508909 12.8062289 15.1841466 13.1805262 14.5633314 13.1805262L14.5633314 13.1805262zM9.90490687 3.34592934C9.58284643 4.08558345 9.2756534 8.25046992 10.2701632 6.90747988 10.9756624 5.9642024 11.4686982 4.47645593 11.6646869 3.85604255 11.8854882 3.11628799 11.477036 2.70873988 11.1035423 2.62335268 10.5258225 2.49587461 10.2285746 2.59783697 9.90490687 3.34592934L9.90490687 3.34592934z"/>
  </g>
</svg>
