<svg xmlns="http://www.w3.org/2000/svg" xmlns:xlink="http://www.w3.org/1999/xlink" width="64" height="64" viewBox="0 0 64 64">
  <defs>
    <clipPath id="clip-s_education_notifications_64">
      <rect width="64" height="64"/>
    </clipPath>
  </defs>
  <g id="s_education_notifications_64" clip-path="url(#clip-s_education_notifications_64)">
    <rect id="Rectangle_5" data-name="Rectangle 5" width="64" height="64" fill="#a2d8ff" opacity="0"/>
    <g id="Group_2" data-name="Group 2" transform="translate(7.761 11)">
      <path id="Path_4" data-name="Path 4" d="M26.695,12.8l4.2,4.3a.967.967,0,0,0,1.367.033l.033-.033,9.5-9.7" fill="none" stroke="#2680eb" stroke-linecap="round" stroke-linejoin="round" stroke-width="2"/>
      <path id="Path_5" data-name="Path 5" d="M19.2,40.9a4.918,4.918,0,0,0,6.531,4.639A4.842,4.842,0,0,0,29,40.9V41" transform="translate(0 -1)" fill="none" stroke="#b3b3b3" stroke-linecap="round" stroke-linejoin="round" stroke-width="2"/>
      <path id="Path_6" data-name="Path 6" d="M31.411,5.017A10.822,10.822,0,0,0,23.868,2h-.1C17.23,2,12,7.934,12,15.175V19.7A26.945,26.945,0,0,1,8.882,32.172a2.511,2.511,0,0,1-.4.7L7.474,34.989C6.871,36.1,7.474,37,8.782,37H39.055a1.323,1.323,0,0,0,1.307-2.011l-1.006-2.113-.1-.1a27.341,27.341,0,0,1-3.118-9.555" fill="none" stroke="#b3b3b3" stroke-linecap="round" stroke-linejoin="round" stroke-width="2"/>
    </g>
  </g>
</svg>
