<svg xmlns="http://www.w3.org/2000/svg" xmlns:xlink="http://www.w3.org/1999/xlink" width="64" height="64" viewBox="0 0 64 64">
  <defs>
    <clipPath id="clip-s_education_specify_fields_64">
      <rect width="64" height="64"/>
    </clipPath>
  </defs>
  <g id="s_education_specify_fields_64" clip-path="url(#clip-s_education_specify_fields_64)">
    <rect id="Rectangle_3" data-name="Rectangle 3" width="64" height="64" fill="#a2d8ff" opacity="0"/>
    <g id="Group_22" data-name="Group 22" transform="translate(-5873.743 -274)">
      <path id="Path_13" data-name="Path 13" d="M5894,305V286.634a4.634,4.634,0,0,1,4.634-4.634h23.288a5.1,5.1,0,0,1,3.584,1.473l6.981,6.9A5.1,5.1,0,0,1,5934,294v32.365a4.634,4.634,0,0,1-4.634,4.634h-30.732a4.619,4.619,0,0,1-4.634-4.6" fill="none" stroke="#b3b3b3" stroke-linecap="round" stroke-linejoin="round" stroke-width="2"/>
      <g id="Group_12" data-name="Group 12">
        <g id="Group_4" data-name="Group 4">
          <path id="Path_14" data-name="Path 14" d="M5927,305h-.5a1.275,1.275,0,1,1,1.5-1.5v.5A1,1,0,0,1,5927,305Z" fill="#2680eb"/>
        </g>
        <g id="Group_5" data-name="Group 5">
          <path id="Path_15" data-name="Path 15" d="M5922.333,305h-1.042a1,1,0,0,1,0-2h1.042a1,1,0,0,1,0,2Zm-5.208,0h-1.042a1,1,0,0,1,0-2h1.042a1,1,0,0,1,0,2Zm-5.209,0h-1.041a1,1,0,0,1,0-2h1.041a1,1,0,0,1,0,2Zm-5.208,0h-1.042a1,1,0,0,1,0-2h1.042a1,1,0,0,1,0,2Z" fill="#2680eb"/>
        </g>
        <g id="Group_6" data-name="Group 6">
          <path id="Path_16" data-name="Path 16" d="M5901.5,305h-.5a1,1,0,0,1-1-1v-.5a1.275,1.275,0,1,1,1.5,1.5Z" fill="#2680eb"/>
        </g>
        <g id="Group_7" data-name="Group 7">
          <path id="Path_17" data-name="Path 17" d="M5901,301.833a1,1,0,0,1-1-1v-.666a1,1,0,0,1,2,0v.666A1,1,0,0,1,5901,301.833Z" fill="#2680eb"/>
        </g>
        <g id="Group_8" data-name="Group 8">
          <path id="Path_18" data-name="Path 18" d="M5901,298.5a1,1,0,0,1-1-1V297a1,1,0,0,1,1-1h.5a1.362,1.362,0,0,1-.5,2.5Z" fill="#2680eb"/>
        </g>
        <g id="Group_9" data-name="Group 9">
          <path id="Path_19" data-name="Path 19" d="M5922.334,298h-1.042a1,1,0,0,1,0-2h1.042a1,1,0,0,1,0,2Zm-5.209,0h-1.041a1,1,0,0,1,0-2h1.041a1,1,0,0,1,0,2Zm-5.208,0h-1.042a1,1,0,0,1,0-2h1.042a1,1,0,0,1,0,2Zm-5.208,0h-1.042a1,1,0,0,1,0-2h1.042a1,1,0,0,1,0,2Z" fill="#2680eb"/>
        </g>
        <g id="Group_10" data-name="Group 10">
          <path id="Path_20" data-name="Path 20" d="M5927,298.5a1.275,1.275,0,0,1-.5-2.5h.5a1,1,0,0,1,1,1v.5A1,1,0,0,1,5927,298.5Z" fill="#2680eb"/>
        </g>
        <g id="Group_11" data-name="Group 11">
          <path id="Path_21" data-name="Path 21" d="M5927,301.833a1,1,0,0,1-1-1v-.666a1,1,0,0,1,2,0v.666A1,1,0,0,1,5927,301.833Z" fill="#2680eb"/>
        </g>
      </g>
      <path id="Path_30" data-name="Path 30" d="M5899.426,308.543l-9.574,20.222a.679.679,0,0,1-1.273-.13l-2.2-9.029-9.161-2.824a.679.679,0,0,1-.034-1.286l21.39-7.88A.679.679,0,0,1,5899.426,308.543Z" fill="none" stroke="#b3b3b3" stroke-linecap="round" stroke-linejoin="round" stroke-width="2"/>
    </g>
  </g>
</svg>
