<svg xmlns="http://www.w3.org/2000/svg" width="14" height="14" viewBox="0 0 14 14">
  <g fill="none" fill-rule="evenodd">
    <path fill="#6E6E6E" fill-rule="nonzero" d="M12.625,7 L12.3752068,7 C12.1681,7 12.0002068,7.16789322 12.0002068,7.375 L12.0002068,12 L1.98649484,12 L1.98649484,1.98871113 L6.625,1.98871113 C6.83210678,1.98871113 7,1.82081791 7,1.61371113 L7,1.375 C7,1.16789322 6.83210678,1 6.625,1 L1.375,1 C1.16789322,1 1,1.16789322 1,1.375 L1,12.625 C1,12.8321068 1.16789322,13 1.375,13 L12.625,13 C12.8321068,13 13,12.8321068 13,12.625 L13,7.375 C13,7.16789322 12.8321068,7 12.625,7 Z"/>
    <path fill="#6E6E6E" fill-rule="nonzero" d="M12.814,1 L8.78275,1 C8.62383695,1.00915242 8.49973666,1.14082383 8.5,1.3 C8.5001522,1.37903417 8.53203836,1.45469623 8.5885,1.51 L10.00825,2.92975 L7.36675,5.575 C7.22035677,5.72143744 7.22035677,5.95881256 7.36675,6.10525 L7.89775,6.6355 C8.04418744,6.78189323 8.28156256,6.78189323 8.428,6.6355 L11.06875,3.99475 L12.4885,5.4145 C12.544666,5.47023316 12.6208816,5.50104374 12.7,5.5 C12.8591762,5.50026334 12.9908476,5.37616305 13,5.21725 L13,1.186 C12.999589,1.08344578 12.9165542,1.00041104 12.814,1 Z"/>
  </g>
</svg>
