<svg xmlns="http://www.w3.org/2000/svg" width="18" height="18" viewBox="0 0 18 18">
  <path fill="#6E6E6E" d="M0,0.5 L0,13.5 C0,13.7761424 0.223857625,14 0.5,14 L13.5,14 C13.7761424,14 14,13.7761424 14,13.5 L14,0.5 C14,0.223857625 13.7761424,0 13.5,0 L0.5,0 C0.223857625,0 0,0.223857625 0,0.5 Z M3,12.75 C3,12.8880712 2.88807119,13 2.75,13 L1.25,13 C1.11192881,13 1,12.8880712 1,12.75 L1,11.25 C1,11.1119288 1.11192881,11 1.25,11 L2.75,11 C2.88807119,11 3,11.1119288 3,11.25 L3,12.75 Z M3,9.397 C3,9.53507119 2.88807119,9.647 2.75,9.647 L1.25,9.647 C1.11192881,9.647 1,9.53507119 1,9.397 L1,7.897 C1,7.75892881 1.11192881,7.647 1.25,7.647 L2.75,7.647 C2.88807119,7.647 3,7.75892881 3,7.897 L3,9.397 Z M3,6.103 C3,6.24107119 2.88807119,6.353 2.75,6.353 L1.25,6.353 C1.11192881,6.353 1,6.24107119 1,6.103 L1,4.603 C1,4.46492881 1.11192881,4.353 1.25,4.353 L2.75,4.353 C2.88807119,4.353 3,4.46492881 3,4.603 L3,6.103 Z M3,2.75 C3,2.88807119 2.88807119,3 2.75,3 L1.25,3 C1.11192881,3 1,2.88807119 1,2.75 L1,1.25 C1,1.11192881 1.11192881,1 1.25,1 L2.75,1 C2.88807119,1 3,1.11192881 3,1.25 L3,2.75 Z M9.75,7 L4.25,7 C4.11192881,7 4,6.88807119 4,6.75 L4,6.25 C4,6.11192881 4.11192881,6 4.25,6 L9.75,6 C9.88807119,6 10,6.11192881 10,6.25 L10,6.75 C10,6.88807119 9.88807119,7 9.75,7 Z M13,12.75 C13,12.8880712 12.8880712,13 12.75,13 L11.25,13 C11.1119288,13 11,12.8880712 11,12.75 L11,11.25 C11,11.1119288 11.1119288,11 11.25,11 L12.75,11 C12.8880712,11 13,11.1119288 13,11.25 L13,12.75 Z M13,9.397 C13,9.53507119 12.8880712,9.647 12.75,9.647 L11.25,9.647 C11.1119288,9.647 11,9.53507119 11,9.397 L11,7.897 C11,7.75892881 11.1119288,7.647 11.25,7.647 L12.75,7.647 C12.8880712,7.647 13,7.75892881 13,7.897 L13,9.397 Z M13,6.103 C13,6.24107119 12.8880712,6.353 12.75,6.353 L11.25,6.353 C11.1119288,6.353 11,6.24107119 11,6.103 L11,4.603 C11,4.46492881 11.1119288,4.353 11.25,4.353 L12.75,4.353 C12.8880712,4.353 13,4.46492881 13,4.603 L13,6.103 Z M13,2.75 C13,2.88807119 12.8880712,3 12.75,3 L11.25,3 C11.1119288,3 11,2.88807119 11,2.75 L11,1.25 C11,1.11192881 11.1119288,1 11.25,1 L12.75,1 C12.8880712,1 13,1.11192881 13,1.25 L13,2.75 Z" transform="translate(2 2)"/>
</svg>
