<svg id="Decorative_icon" data-name="Decorative icon" xmlns="http://www.w3.org/2000/svg" width="18" height="18" viewBox="0 0 18 18">
  <g id="Placement_Area" data-name="Placement Area" fill="red" stroke="rgba(0,0,0,0)" stroke-width="1" opacity="0">
    <rect width="18" height="18" stroke="none"/>
    <rect x="0.5" y="0.5" width="17" height="17" fill="none"/>
  </g>
  <g id="Icon">
    <g id="Canvas" fill="#b9b9b9" stroke="#b9b9b9" stroke-width="1" opacity="0">
      <rect width="18" height="18" stroke="none"/>
      <rect x="0.5" y="0.5" width="17" height="17" fill="none"/>
    </g>
    <path id="Path_883810" data-name="Path 883810" d="M16.784,4.1,13.9,1.216a.608.608,0,0,0-.433-.176H13.45a.685.685,0,0,0-.464.2L2.542,11.686a.5.5,0,0,0-.126.211L1.028,16.55c-.057.188.229.426.391.426a.125.125,0,0,0,.031,0c.138-.031,3.933-1.172,4.656-1.389a.486.486,0,0,0,.207-.125L16.757,5.014a.686.686,0,0,0,.2-.441.61.61,0,0,0-.173-.473ZM5.7,14.658c-1.081.325-2.431.733-3.365,1.011l1-3.365Z" fill="#b9b9b9"/>
  </g>
</svg>
