<svg id="Layer_1" data-name="Layer 1" xmlns="http://www.w3.org/2000/svg" viewBox="0 0 172 30">
  <defs>
    <style>
      .cls-1 {
        fill: #584ccc;
      }

      .cls-2 {
        fill: #fff;
      }
    </style>
  </defs>
  <g>
    <path d="M36.02958,1.10343c0-.072.01195-.09588.072-.09588C36.59337.9956,37.54066.97144,38.45208.97144c2.42227,0,3.26173,1.34324,3.26173,2.65037,0,1.94263-1.49888,2.77014-3.34565,2.77014h-.68357V8.75444c0,.06-.02391.09588-.09587.09588H36.1135c-.05977,0-.08392-.03587-.08392-.09588Zm1.655,3.81355c.20371.012.33569.012.67162.012.94729,0,1.70283-.28787,1.70283-1.27126,0-.7553-.51573-1.23516-1.55914-1.23516-.38375,0-.70748.012-.81531.02415Z"/>
    <path d="M48.08477,5.84036a2.96,2.96,0,1,1-5.91208.03586,2.93449,2.93449,0,0,1,2.986-3.10583A2.85454,2.85454,0,0,1,48.08477,5.84036Zm-4.22121.01195c0,1.05537.49158,1.72674,1.29518,1.72674.69552,0,1.2232-.5994,1.2232-1.70283,0-.93533-.38374-1.71478-1.29517-1.71478C44.39125,4.16144,43.86356,4.785,43.86356,5.85231Z"/>
    <path d="M53.7263,8.85032c-.09587,0-.11978-.03587-.14393-.10783-.59941-2.44642-.7914-3.54984-.91118-4.13729H52.659c-.29958,1.31908-.53964,2.31443-1.04317,4.13729-.02391.08392-.06.10783-.132.10783H49.985c-.12,0-.14393-.02391-.16808-.10783L48.258,2.99825c-.02391-.06.012-.10808.09588-.10808h1.523c.072,0,.09587.02416.10807.08393.63551,2.59034.80336,3.74158.88728,4.24536h.02391c.09612-.43181.28787-1.55914.98339-4.22121.012-.072.02415-.10808.10807-.10808h1.58281c.06,0,.08392.02416.09611.08393.63552,2.65036.80336,3.81355.88728,4.29317h.02391c.16809-.77944.34788-2.07462.92338-4.29317a.09724.09724,0,0,1,.10807-.08393h1.403c.04806,0,.09587.03611.072.09612l-1.71478,5.7562c-.02415.08392-.0361.10783-.14393.10783Z"/>
    <path d="M58.93262,6.308c.06.68357.53963,1.24711,1.71478,1.24711a3.719,3.719,0,0,0,1.47521-.27567c.03611-.02415.07173-.0122.07173.05977V8.47852c0,.08393-.02391.12-.08393.14394a4.02452,4.02452,0,0,1-1.8348.34788,2.81181,2.81181,0,0,1-3.04582-3.0341,2.92288,2.92288,0,0,1,2.90188-3.16585,2.44514,2.44514,0,0,1,2.53058,2.59035,3.86823,3.86823,0,0,1-.06.80335.10333.10333,0,0,1-.09612.09588A11.08855,11.08855,0,0,1,61.271,6.308Zm1.55889-1.16319a3.85933,3.85933,0,0,0,.59965-.02416V5.03676a.97552.97552,0,0,0-1.01926-.94729,1.13588,1.13588,0,0,0-1.15124,1.05537Z"/>
    <path d="M64.88959,2.89017a.13321.13321,0,0,1,.14393.10808,2.29241,2.29241,0,0,1,.13174.67162A2.50227,2.50227,0,0,1,67.072,2.77039c.07221,0,.09563.02391.09563.09588v1.475c0,.06-.02342.08392-.10734.08392a2.46734,2.46734,0,0,0-1.81115.51573l-.01171,3.81355c0,.072-.0244.09588-.10832.09588H63.69029c-.09612,0-.12-.03587-.12-.10783V4.6052c0-.51573-.0122-1.21125-.06-1.6311,0-.05977.01219-.08393.07221-.08393Z"/>
    <path d="M69.13885,6.308c.0605.68357.53963,1.24711,1.715,1.24711a3.717,3.717,0,0,0,1.475-.27567c.0361-.02415.07221-.0122.07221.05977V8.47852c0,.08393-.0244.12-.08392.14394a4.02711,4.02711,0,0,1-1.83506.34788A2.81188,2.81188,0,0,1,67.436,5.93624a2.92322,2.92322,0,0,1,2.90213-3.16585,2.44479,2.44479,0,0,1,2.53033,2.59035,3.87909,3.87909,0,0,1-.05952.80335.10341.10341,0,0,1-.09661.09588,11.07267,11.07267,0,0,1-1.23492.04806Zm1.55938-1.16319a3.85008,3.85008,0,0,0,.59916-.02416V5.03676a.975.975,0,0,0-1.01877-.94729,1.13612,1.13612,0,0,0-1.15148,1.05537Z"/>
    <path d="M73.42324,5.92428a3.181,3.181,0,0,1,3.47738-3.15389c.09612,0,.21615.012.39619.02391V.43181a.07587.07587,0,0,1,.08392-.08392h1.51059c.0605,0,.07221.02415.07221.072V7.50733a6.74027,6.74027,0,0,0,.04782.87532c0,.06-.01171.08392-.08392.10783a6.02292,6.02292,0,0,1-2.3625.47986A2.86994,2.86994,0,0,1,73.42324,5.92428Zm3.87357-1.70283a1.24282,1.24282,0,0,0-.444-.06,1.59965,1.59965,0,0,0-1.71454,1.67892,1.50058,1.50058,0,0,0,1.59451,1.70283,1.69105,1.69105,0,0,0,.564-.072Z"/>
    <path d="M84.43112.34789c.09563,0,.11954.012.11954.09587V2.90237a3.85027,3.85027,0,0,1,1.00755-.132,2.74465,2.74465,0,0,1,2.87773,2.85407,3.32921,3.32921,0,0,1-3.59741,3.34588,6.28453,6.28453,0,0,1-1.88287-.27591.14081.14081,0,0,1-.07221-.12V.43181c0-.05977.0244-.08392.08392-.08392Zm.827,3.83746a2.44158,2.44158,0,0,0-.70748.09587v3.25a1.86928,1.86928,0,0,0,.44352.04782,1.65057,1.65057,0,0,0,1.73893-1.7987A1.40879,1.40879,0,0,0,85.25814,4.18535Z"/>
    <path d="M90.16853,2.89017a.12388.12388,0,0,1,.11954.08393c.68406,2.05071,1.04365,3.29782,1.21149,3.92162.384-1.27126.75579-2.4225,1.22321-3.92162a.12441.12441,0,0,1,.13174-.08393h1.42715c.08441,0,.09612.04806.08441.10808-.86361,2.68622-2.19464,5.996-3.08265,8.04671-.02342.04782-.05953.08393-.16785.08393l-1.51058.11978c-.07222,0-.09612-.03586-.06-.10783.34789-.71968.70748-1.51108,1.09147-2.41055a.20719.20719,0,0,0,.01171-.20371c-.33569-.8275-1.46277-3.65766-2.17025-5.54029-.03611-.06.01171-.09612.07172-.09612Z"/>
    <g>
      <rect class="cls-1" width="27.67161" height="26.97982" rx="4.90018"/>
      <path class="cls-2" d="M22.24993,15.61993a4.24915,4.24915,0,0,0-3.12527-.88987,16.49792,16.49792,0,0,0-2.52411.21906,12.48458,12.48458,0,0,1-1.45426-1.697,15.47133,15.47133,0,0,1-.90994-1.41367,14.35875,14.35875,0,0,0,.80882-4.07764c0-1.24822-.49452-2.58269-1.88248-2.58269a1.39639,1.39639,0,0,0-1.16186.68568c-.59206,1.0167-.35489,3.10879.5901,5.23766-.32906.97808-.68753,1.93033-1.12693,2.98554A26.72064,26.72064,0,0,1,10.19,16.73256c-1.41574.56946-4.425,1.952-4.71178,3.47925A1.29586,1.29586,0,0,0,5.8899,21.4289a1.794,1.794,0,0,0,1.2262.43744c1.81272,0,3.62037-2.50947,4.83688-4.66959.69179-.23544,1.39719-.44862,2.09947-.63414.77031-.204,1.51491-.37126,2.21719-.49578a6.88259,6.88259,0,0,0,4.48015,1.9286c1.17477,0,1.61417-.50939,1.77409-.93761A1.43649,1.43649,0,0,0,22.24993,15.61993Zm-1.25006.88053c-.06434.33276-.40815.5479-.8788.5479a1.666,1.666,0,0,1-.39709-.04969,6.46569,6.46569,0,0,1-2.51673-1.27405,12.50753,12.50753,0,0,1,1.86229-.14331,6.68522,6.68522,0,0,1,1.241.09558c.37311.07713.79418.28306.68937.82357ZM12.74531,6.29737a.47791.47791,0,0,1,.40078-.25931c.4394,0,.535.52945.535.97254a12.15187,12.15187,0,0,1-.57533,3.0757C12.36852,8.13384,12.47148,6.76605,12.74531,6.29737ZM15.321,15.18606c-.4982.10481-1.013.2261-1.53508.364-.375.09927-.75555.20754-1.13615.32353.20223-.41358.388-.82358.54974-1.21329.2133-.51492.41358-1.02961.59748-1.53347q.24213.38049.5.73734a14.69475,14.69475,0,0,0,1.06478,1.31221ZM9.745,17.8573c-1.16,1.86783-2.30159,3.048-2.96893,3.048a.4183.4183,0,0,1-.29782-.10666.43527.43527,0,0,1-.15266-.4266C6.45244,19.703,7.77434,18.73783,9.745,17.8573Z"/>
    </g>
    <g>
      <path d="M38.219,23.26559l-.79159,2.44049a.179.179,0,0,1-.18147.13186H35.33333c-.11554,0-.1484-.06615-.13186-.16494l3.29779-9.51453a3.00044,3.00044,0,0,0,.16493-1.0057.11034.11034,0,0,1,.09878-.11554h2.63828c.08246,0,.11554.01653.13207.099l3.743,10.55331c.03285.08225.01654.1484-.08247.1484H43.05014a.16628.16628,0,0,1-.18125-.11533l-.841-2.457Zm3.19878-2.06144c-.32986-1.08817-.98938-3.08346-1.3027-4.25409h-.01632c-.26394,1.1047-.85752,2.91852-1.28618,4.25409Z"/>
      <path d="M45.386,21.81427c0-2.3578,1.76444-4.33656,4.782-4.33656.13186,0,.29679.01654.54419.03286V14.26239a.10418.10418,0,0,1,.11532-.11554h2.07777c.08246,0,.09878.03307.09878.099V23.991a9.2762,9.2762,0,0,0,.06615,1.2037c0,.08225-.01654.11532-.11554.1484a8.28228,8.28228,0,0,1-3.2484.65973C47.26572,26.00287,45.386,24.61769,45.386,21.81427Zm5.32616-2.34148a1.70982,1.70982,0,0,0-.61012-.08225A2.19973,2.19973,0,0,0,47.744,21.699a2.064,2.064,0,0,0,2.19309,2.3417,2.31873,2.31873,0,0,0,.77505-.09922Z"/>
      <path d="M62.29659,21.699a4.07013,4.07013,0,1,1-8.12937.04961,4.03513,4.03513,0,0,1,4.10592-4.27085A3.925,3.925,0,0,1,62.29659,21.699Zm-5.8042.01653c0,1.45089.676,2.37434,1.78075,2.37434.95631,0,1.682-.82423,1.682-2.34126,0-1.28639-.52766-2.358-1.781-2.358C57.21783,19.39054,56.49239,20.24784,56.49239,21.71548Z"/>
      <path d="M65.61026,14.14685c.13186,0,.16471.01654.16471.13186v3.38047a5.30417,5.30417,0,0,1,1.38518-.18147,3.77406,3.77406,0,0,1,3.95752,3.92445c0,3.08367-2.44049,4.60071-4.9469,4.60071a8.63644,8.63644,0,0,1-2.58866-.37948.19327.19327,0,0,1-.099-.16493V14.26239c0-.08247.03286-.11554.11533-.11554ZM66.748,19.4234a3.36115,3.36115,0,0,0-.97306.13186v4.46885a2.57794,2.57794,0,0,0,.61013.06571,2.26954,2.26954,0,0,0,2.39109-2.47312A1.93737,1.93737,0,0,0,66.748,19.4234Z"/>
      <path d="M74.19025,22.34214c.08247.94.7422,1.715,2.358,1.715a5.11037,5.11037,0,0,0,2.02815-.37947c.04961-.03308.099-.01654.099.08268V25.3266c0,.11532-.03307.16493-.11554.198a5.53317,5.53317,0,0,1-2.52273.47826,3.86641,3.86641,0,0,1-4.18838-4.17206c0-2.27555,1.40171-4.3531,3.99037-4.3531a3.36189,3.36189,0,0,1,3.47926,3.56172,5.27449,5.27449,0,0,1-.08247,1.10471.14144.14144,0,0,1-.13186.13185,15.26317,15.26317,0,0,1-1.69828.06615Zm2.14369-1.5995a5.35282,5.35282,0,0,0,.82445-.03307v-.11532a1.34132,1.34132,0,0,0-1.4015-1.30271,1.56175,1.56175,0,0,0-1.583,1.4511Z"/>
      <path d="M86.25951,23.26559l-.7916,2.44049a.179.179,0,0,1-.18146.13186H83.37383c-.11554,0-.14839-.06615-.13186-.16494l3.29779-9.51453a2.99989,2.99989,0,0,0,.16493-1.0057.11035.11035,0,0,1,.09879-.11554h2.63827c.08247,0,.11554.01653.13208.099l3.743,10.55331c.03264.08225.01654.1484-.08224.1484H91.09065a.16629.16629,0,0,1-.18126-.11533l-.841-2.457Zm3.19878-2.06144c-.32987-1.08817-.98938-3.08346-1.30271-4.25409h-.01632c-.26393,1.1047-.85752,2.91852-1.28617,4.25409Z"/>
      <path d="M99.70915,25.60686c0,.08268-.01654.11575-.08268.13185a5.10881,5.10881,0,0,1-1.8469.26416,4.07789,4.07789,0,0,1-4.3531-4.22124c0-2.47356,1.86344-4.30392,4.66643-4.30392a4.488,4.488,0,0,1,1.517.18147c.08268.03286.09922.08225.09922.18125l-.01654,1.69851c0,.11532-.06614.13186-.13229.11532a4.11552,4.11552,0,0,0-1.38474-.19779A2.145,2.145,0,0,0,95.78471,21.699a2.18166,2.18166,0,0,0,2.42394,2.27555,5.41591,5.41591,0,0,0,1.36821-.1484c.09922-.03307.13229,0,.13229.06615Z"/>
      <path d="M102.7554,17.64264a.18228.18228,0,0,1,.198.1484,3.15217,3.15217,0,0,1,.18147.92345,3.44049,3.44049,0,0,1,2.62152-1.23678c.09922,0,.13229.03286.13229.13186v2.02815c0,.08247-.03307.11554-.14883.11554a3.3914,3.3914,0,0,0-2.48966.70891l-.01653,5.24391c0,.09878-.03264.13186-.1484.13186H101.107c-.1323,0-.16537-.04961-.16537-.1484v-5.6891c0-.7089-.01654-1.66521-.08225-2.24247,0-.08247.01654-.11533.09878-.11533Z"/>
      <path d="M114.3303,21.699a4.07,4.07,0,1,1-8.12915.04961,4.03513,4.03513,0,0,1,4.10592-4.27085A3.92469,3.92469,0,0,1,114.3303,21.699Zm-5.804.01653c0,1.45089.67584,2.37434,1.78076,2.37434.95608,0,1.682-.82423,1.682-2.34126,0-1.28639-.52743-2.358-1.78075-2.358C109.25176,19.39054,108.52631,20.24784,108.52631,21.71548Z"/>
      <path d="M117.64375,14.14685c.13229,0,.16493.01654.16493.13186v3.38047a5.30411,5.30411,0,0,1,1.38518-.18147,3.77406,3.77406,0,0,1,3.95752,3.92445c0,3.08367-2.44049,4.60071-4.94712,4.60071a8.635,8.635,0,0,1-2.58844-.37948.19345.19345,0,0,1-.09923-.16493V14.26239c0-.08247.03308-.11554.11576-.11554Zm1.138,5.27655a3.3598,3.3598,0,0,0-.97306.13186v4.46885a2.57668,2.57668,0,0,0,.61012.06571,2.26969,2.26969,0,0,0,2.39131-2.47312A1.93751,1.93751,0,0,0,118.78174,19.4234Z"/>
      <path d="M130.72262,24.00757c0,.42865,0,.77506.03308,1.17063,0,.03308,0,.06615-.03308.08269a9.10351,9.10351,0,0,1-3.59458.742c-1.83036,0-3.33086-.8412-3.33086-2.75381,0-1.74768,1.53357-2.67135,3.726-2.67135a6.9981,6.9981,0,0,1,.97306.03285v-.11532c0-.31333-.19758-1.03877-1.58275-1.03877a5.28061,5.28061,0,0,0-2.17677.44519.09727.09727,0,0,1-.14839-.08247V18.15376a.1437.1437,0,0,1,.11576-.16493,6.20044,6.20044,0,0,1,2.58844-.51112,3.10635,3.10635,0,0,1,3.43008,3.3474Zm-2.22637-1.6985a6.12969,6.12969,0,0,0-.82423-.04961c-1.17063,0-1.64933.37947-1.64933.97306,0,.544.41255.98916,1.45132.98916a3.31994,3.31994,0,0,0,1.02224-.1484Z"/>
      <path d="M136.366,25.55768c0,.09879-.01653.181-.11532.21411a4.09386,4.09386,0,0,1-1.46786.23108,2.05031,2.05031,0,0,1-2.27511-2.35824V19.55526h-.9896c-.09879-.01632-.13186-.0494-.13186-.1484V17.791c0-.11554.03307-.1484.1484-.1484h.98959a18.13949,18.13949,0,0,1,.1645-1.99529.17518.17518,0,0,1,.14883-.1484l1.92915-.2474c.08225-.01632.13186-.01632.13186.099-.04961.51111-.08268,1.484-.08268,2.29208h1.517c.09922,0,.1323.03286.1323.13186v1.66543c0,.08247-.03308.099-.11576.11533h-1.55011v3.52886c0,.72545.21454,1.05531.89038,1.05531a3.238,3.238,0,0,0,.56094-.06615c.06571,0,.11532.01654.11532.11576Z"/>
      <path d="M140.83357,25.42539a.2722.2722,0,0,1-.11532-.26372V23.19944c0-.08224.06571-.13185.13186-.08224a5.67332,5.67332,0,0,0,2.98446.8573c1.25331,0,1.74811-.42865,1.74811-1.0057,0-.52787-.379-.90691-1.5005-1.38517l-.82466-.34641c-2.02793-.85752-2.58845-1.87975-2.58845-3.16593,0-1.78075,1.35167-3.199,3.97363-3.199a6.18683,6.18683,0,0,1,2.57234.42887.21175.21175,0,0,1,.09922.21433v1.84668c0,.06615-.04961.1484-.14883.08247a5.2117,5.2117,0,0,0-2.53927-.544c-1.26942,0-1.715.42865-1.715.97285,0,.51111.3464.8573,1.58318,1.3521l.61012.24718c2.1933.90691,2.80342,1.9459,2.80342,3.28147,0,1.99529-1.61625,3.24861-4.15552,3.24861A6.44363,6.44363,0,0,1,140.83357,25.42539Z"/>
      <path d="M149.02625,15.48241a1.23426,1.23426,0,0,1,1.28639-1.26963,1.19424,1.19424,0,0,1,1.26942,1.26963,1.21171,1.21171,0,0,1-1.286,1.28618A1.199,1.199,0,0,1,149.02625,15.48241Zm.11576,2.29209c0-.08246.03264-.13186.13143-.13186h2.02837c.09878,0,.13185.03286.13185.13186v7.915c0,.09879-.01653.1484-.14839.1484h-1.97876c-.11532,0-.1645-.04961-.1645-.1484Z"/>
      <path d="M157.39562,23.92489c2.35823.11576,3.23207,1.07184,3.23207,2.37477,0,1.71461-1.682,3.09978-4.33656,3.09978-2.75381,0-3.95752-1.36864-3.95752-2.55581,0-.52743.42909-1.18716,1.517-2.09408a2.07493,2.07493,0,0,1-.3464-1.23678,2.29649,2.29649,0,0,1,.29679-1.08838,2.37044,2.37044,0,0,1-1.13756-2.12715c0-1.58275,1.23678-2.81953,3.38047-2.81953a9.58334,9.58334,0,0,1,1.56621.13186,1.739,1.739,0,0,0,.39558.03307h2.25945c.08225,0,.11532.03286.11532.11533v1.53357c0,.08246-.03307.11532-.11532.11532-.24762,0-.79159-.04939-1.138-.08247a2.13307,2.13307,0,0,1,.24761,1.07185c0,1.7479-1.43478,2.62174-3.26515,2.62174-.18147,0-.379-.01611-.56051-.03264a.81333.81333,0,0,0-.03307.44519.88942.88942,0,0,0,.18147.42865Zm-2.34127,1.8469a1.6048,1.6048,0,0,0-.62665.87384c0,.51133.72588,1.07184,2.01183,1.07184,1.46742,0,2.09408-.5109,2.09408-1.05531,0-.61012-.72544-.77505-1.64889-.82422Zm-.16493-5.50741a1.06984,1.06984,0,0,0,1.17107,1.12124,1.00816,1.00816,0,0,0,1.13756-1.07185,1.15461,1.15461,0,1,0-2.30863-.04939Z"/>
      <path d="M161.35053,19.55526c0-.56052-.03308-1.418-.06572-1.78076-.01653-.08246.01654-.13186.11533-.13186h1.73114a.19358.19358,0,0,1,.21454.13186,2.01745,2.01745,0,0,1,.13186.54419,3.61358,3.61358,0,0,1,2.3417-.841c1.26942,0,2.76991.65951,2.76991,3.31432v4.89751c0,.09879-.03307.1484-.148.1484h-1.97919c-.11489,0-.1645-.04961-.1645-.1484V20.98982c0-.98938-.42909-1.517-1.28639-1.517a1.99643,1.99643,0,0,0-1.36864.51133v5.722c0,.08225-.04917.13186-.14839.13186h-1.99486c-.11576,0-.14883-.04961-.14883-.1484Z"/>
    </g>
  </g>
</svg>
