<?xml version="1.0" encoding="UTF-8"?>
<svg width="135px" height="40px" viewBox="0 0 135 40" version="1.1" xmlns="http://www.w3.org/2000/svg" xmlns:xlink="http://www.w3.org/1999/xlink">
    <!-- Generator: Sketch 43.2 (39069) - http://www.bohemiancoding.com/sketch -->
    <title>Download_on_the_App_Store_Badge_zh_TW_135x40</title>
    <desc>Created with Sketch.</desc>
    <defs>
        <path d="M130.197,40 L4.729,40 C2.122,40 0,37.872 0,35.267 L0,4.726 C0,2.12 2.122,0 4.729,0 L130.197,0 C132.803,0 135,2.12 135,4.726 L135,35.267 C135,37.872 132.803,40 130.197,40 Z" id="path-1"></path>
        <path d="M134.032,35.268 C134.032,37.384 132.318,39.098 130.198,39.098 L4.729,39.098 C2.61,39.098 0.89,37.384 0.89,35.268 L0.89,4.725 C0.89,2.61 2.61,0.89 4.729,0.89 L130.197,0.89 C132.318,0.89 134.031,2.61 134.031,4.725 L134.032,35.268 Z" id="path-3"></path>
        <path d="M18.128,7.784 C18.099,4.561 20.767,2.993 20.889,2.92 C19.378,0.717 17.036,0.416 16.213,0.392 C14.246,0.185 12.338,1.569 11.336,1.569 C10.314,1.569 8.771,0.412 7.108,0.446 C4.968,0.479 2.966,1.718 1.868,3.642 C-0.398,7.565 1.292,13.33 3.463,16.501 C4.549,18.054 5.818,19.788 7.479,19.727 C9.104,19.66 9.711,18.691 11.672,18.691 C13.615,18.691 14.185,19.727 15.879,19.688 C17.623,19.66 18.721,18.128 19.769,16.561 C21.024,14.781 21.528,13.028 21.548,12.938 C21.507,12.924 18.161,11.647 18.128,7.784 Z" id="path-5"></path>
        <path d="M3.928,4.306 C4.802,3.213 5.4,1.726 5.234,0.217 C3.969,0.273 2.387,1.092 1.476,2.161 C0.67,3.103 -0.05,4.647 0.136,6.099 C1.557,6.205 3.016,5.382 3.928,4.306 Z" id="path-7"></path>
        <path d="M10.006,12.03 L8,12.03 L6.9,8.575 L3.079,8.575 L2.032,12.03 L0.077,12.03 L3.864,0.269 L6.202,0.269 L10.006,12.03 Z M6.568,7.127 L5.573,4.056 C5.469,3.742 5.271,3.003 4.98,1.84 L4.945,1.84 C4.828,2.34 4.642,3.079 4.386,4.056 L3.409,7.127 L6.568,7.127 Z" id="path-9"></path>
        <path d="M8.742,4.685 C8.742,6.128 8.353,7.268 7.574,8.105 C6.875,8.85 6.01,9.222 4.972,9.222 C3.857,9.222 3.054,8.821 2.566,8.018 L2.531,8.018 L2.531,12.485 L0.646,12.485 L0.646,3.341 C0.646,2.433 0.623,1.503 0.576,0.549 L2.234,0.549 L2.339,1.893 L2.373,1.893 C3.002,0.881 3.955,0.374 5.234,0.374 C6.236,0.374 7.07,0.77 7.74,1.561 C8.408,2.353 8.742,3.394 8.742,4.685 Z M6.824,4.755 C6.824,3.929 6.636,3.249 6.265,2.713 C5.857,2.155 5.31,1.876 4.624,1.876 C4.159,1.876 3.737,2.03 3.358,2.338 C2.979,2.646 2.733,3.05 2.616,3.551 C2.557,3.783 2.53,3.976 2.53,4.127 L2.53,5.541 C2.53,6.158 2.718,6.678 3.096,7.103 C3.475,7.528 3.965,7.74 4.571,7.74 C5.28,7.74 5.833,7.467 6.229,6.92 C6.625,6.372 6.824,5.651 6.824,4.755 Z" id="path-11"></path>
        <path d="M8.497,4.685 C8.497,6.128 8.107,7.268 7.328,8.105 C6.63,8.85 5.764,9.222 4.727,9.222 C3.611,9.222 2.808,8.821 2.32,8.018 L2.285,8.018 L2.285,12.485 L0.4,12.485 L0.4,3.341 C0.4,2.433 0.377,1.503 0.331,0.549 L1.988,0.549 L2.092,1.893 L2.127,1.893 C2.755,0.881 3.709,0.374 4.988,0.374 C5.989,0.374 6.823,0.77 7.493,1.561 C8.162,2.353 8.497,3.394 8.497,4.685 Z M6.578,4.755 C6.578,3.929 6.391,3.249 6.019,2.713 C5.612,2.155 5.065,1.876 4.378,1.876 C3.913,1.876 3.491,2.03 3.113,2.338 C2.734,2.646 2.487,3.05 2.371,3.551 C2.312,3.783 2.284,3.976 2.284,4.127 L2.284,5.541 C2.284,6.158 2.472,6.678 2.851,7.103 C3.229,7.528 3.72,7.74 4.325,7.74 C5.035,7.74 5.588,7.467 5.983,6.92 C6.378,6.373 6.578,5.651 6.578,4.755 Z" id="path-13"></path>
        <path d="M7.759,8.732 C7.759,9.732 7.41,10.546 6.714,11.175 C5.948,11.862 4.88,12.204 3.511,12.204 C2.245,12.204 1.23,11.96 0.463,11.471 L0.899,9.901 C1.725,10.401 2.633,10.651 3.623,10.651 C4.333,10.651 4.886,10.491 5.281,10.17 C5.677,9.85 5.875,9.421 5.875,8.885 C5.875,8.407 5.712,8.006 5.387,7.679 C5.061,7.353 4.52,7.05 3.764,6.77 C1.704,6.001 0.675,4.876 0.675,3.396 C0.675,2.429 1.035,1.637 1.757,1.019 C2.478,0.401 3.438,0.093 4.636,0.093 C5.706,0.093 6.596,0.279 7.306,0.651 L6.835,2.187 C6.172,1.827 5.421,1.646 4.584,1.646 C3.921,1.646 3.403,1.809 3.03,2.135 C2.717,2.426 2.559,2.781 2.559,3.199 C2.559,3.664 2.74,4.048 3.1,4.351 C3.414,4.63 3.984,4.933 4.81,5.258 C5.822,5.665 6.567,6.142 7.043,6.689 C7.52,7.238 7.759,7.918 7.759,8.732 Z" id="path-15"></path>
        <path d="M5.988,3.963 L3.911,3.963 L3.911,8.081 C3.911,9.128 4.278,9.652 5.011,9.652 C5.349,9.652 5.627,9.623 5.849,9.565 L5.902,10.996 C5.529,11.135 5.041,11.205 4.436,11.205 C3.691,11.205 3.11,10.978 2.691,10.525 C2.272,10.071 2.062,9.309 2.062,8.239 L2.062,3.963 L0.824,3.963 L0.824,2.55 L2.062,2.55 L2.062,0.997 L3.912,0.439 L3.912,2.55 L5.989,2.55 L5.989,3.963 L5.988,3.963 Z" id="path-17"></path>
        <path d="M8.358,4.72 C8.358,6.023 7.985,7.093 7.241,7.931 C6.462,8.792 5.427,9.222 4.136,9.222 C2.891,9.222 1.899,8.809 1.16,7.983 C0.421,7.157 0.052,6.116 0.052,4.859 C0.052,3.545 0.433,2.468 1.196,1.63 C1.958,0.793 2.984,0.374 4.275,0.374 C5.52,0.374 6.52,0.787 7.277,1.613 C7.997,2.417 8.358,3.452 8.358,4.72 Z M6.403,4.781 C6.403,3.999 6.235,3.328 5.897,2.769 C5.501,2.092 4.937,1.754 4.205,1.754 C3.448,1.754 2.873,2.092 2.477,2.769 C2.139,3.329 1.971,4.011 1.971,4.816 C1.971,5.598 2.139,6.269 2.477,6.829 C2.884,7.506 3.455,7.844 4.187,7.844 C4.909,7.844 5.472,7.5 5.879,6.811 C6.229,6.24 6.403,5.563 6.403,4.781 Z" id="path-19"></path>
        <path d="M5.482,2.208 C5.296,2.173 5.098,2.156 4.889,2.156 C4.226,2.156 3.713,2.406 3.353,2.906 C3.04,3.348 2.882,3.907 2.882,4.581 L2.882,9.031 L0.997,9.031 L1.015,3.22 C1.015,2.242 0.992,1.353 0.945,0.55 L2.586,0.55 L2.656,2.173 L2.708,2.173 C2.906,1.615 3.22,1.167 3.65,0.83 C4.069,0.527 4.523,0.376 5.011,0.376 C5.186,0.376 5.342,0.388 5.482,0.411 L5.482,2.208 Z" id="path-21"></path>
        <path d="M7.91,4.389 C7.91,4.726 7.887,5.012 7.841,5.244 L2.188,5.244 C2.21,6.081 2.484,6.722 3.007,7.163 C3.485,7.559 4.101,7.756 4.857,7.756 C5.695,7.756 6.457,7.623 7.143,7.355 L7.44,8.664 C6.637,9.013 5.689,9.187 4.595,9.187 C3.281,9.187 2.248,8.8 1.498,8.026 C0.747,7.253 0.372,6.214 0.372,4.911 C0.372,3.632 0.722,2.567 1.419,1.718 C2.152,0.811 3.141,0.357 4.386,0.357 C5.608,0.357 6.532,0.811 7.16,1.718 C7.66,2.44 7.91,3.33 7.91,4.389 Z M6.113,3.9 C6.125,3.342 6.003,2.859 5.747,2.452 C5.421,1.929 4.921,1.667 4.246,1.667 C3.63,1.667 3.129,1.923 2.745,2.435 C2.432,2.843 2.245,3.331 2.187,3.901 L6.113,3.901 L6.113,3.9 Z" id="path-23"></path>
        <path d="M5.143,12.291 L5.143,1.205 L0.164,1.205 L0.164,0.109 L12.509,0.124 L12.494,1.205 L6.3,1.205 L6.285,12.291 L5.143,12.291 Z M10.597,8.602 C10.31,8.206 10.006,7.85 9.685,7.534 C9.365,7.219 9.043,6.934 8.722,6.682 C8.401,6.43 8.087,6.21 7.781,6.022 C7.475,5.834 7.193,5.667 6.936,5.518 L7.44,4.674 C7.915,4.852 8.346,5.065 8.737,5.311 C9.128,5.559 9.506,5.834 9.871,6.141 C10.138,6.369 10.399,6.616 10.656,6.882 C10.913,7.148 11.17,7.43 11.427,7.727 L10.597,8.602 Z" id="path-25"></path>
        <path d="M10.394,0.927 C10.394,1.155 10.396,1.342 10.401,1.49 C10.406,1.638 10.414,1.797 10.423,1.965 L11.09,1.326 C11.584,1.505 12.018,1.757 12.387,2.082 C12.758,2.408 13.102,2.779 13.418,3.194 C13.338,3.322 13.244,3.436 13.135,3.535 C13.028,3.634 12.918,3.738 12.809,3.846 L13.817,3.846 L13.817,4.899 L10.543,4.899 C10.621,5.749 10.708,6.549 10.802,7.299 C10.896,8.051 10.988,8.791 11.077,9.523 C11.423,8.901 11.669,8.286 11.817,7.678 C11.965,7.07 12.069,6.381 12.128,5.61 L13.181,5.922 C13.113,6.91 12.935,7.826 12.648,8.671 C12.361,9.517 11.97,10.299 11.478,11.021 C11.605,11.376 11.771,11.732 11.974,12.087 C12.175,12.442 12.431,12.749 12.738,13.006 C12.787,13.036 12.832,13.021 12.871,12.962 C12.92,12.814 12.959,12.648 12.99,12.465 C13.019,12.282 13.035,12.103 13.041,11.925 C13.047,11.746 13.049,11.573 13.049,11.405 C13.049,11.237 13.043,11.094 13.033,10.975 L14.115,11.36 C14.086,11.815 14.039,12.26 13.974,12.694 C13.91,13.13 13.765,13.519 13.536,13.866 C13.348,14.083 13.097,14.201 12.78,14.221 C12.602,14.211 12.434,14.166 12.276,14.087 C12.118,14.008 11.973,13.909 11.838,13.791 C11.705,13.672 11.584,13.541 11.477,13.398 C11.368,13.254 11.268,13.119 11.18,12.99 C11.09,12.851 11.004,12.699 10.921,12.531 C10.837,12.363 10.755,12.21 10.676,12.071 C10.558,12.219 10.405,12.378 10.217,12.545 C10.029,12.714 9.829,12.889 9.616,13.072 C9.403,13.255 9.178,13.434 8.942,13.613 C8.705,13.791 8.472,13.959 8.245,14.117 L7.371,13.271 C7.677,13.093 7.939,12.933 8.156,12.79 C8.374,12.646 8.527,12.535 8.616,12.457 L5.933,12.457 L5.933,14.25 L4.762,14.25 L4.762,12.457 L0.879,12.457 L0.879,11.449 L4.776,11.449 L4.791,10.886 L2.035,10.886 L2.035,7.063 L4.791,7.063 L4.791,6.574 L1.428,6.574 L1.428,5.61 L4.791,5.596 L4.791,4.913 L1.16,4.913 L1.16,3.846 L4.732,3.846 L4.717,3.135 L1.723,3.135 L1.723,2.143 L4.717,2.143 L4.732,0.942 L5.858,0.942 L5.858,2.143 L8.911,2.143 L8.926,3.135 L5.873,3.135 L5.858,3.846 L9.326,3.846 L9.267,0.927 L10.394,0.927 Z M4.792,7.98 L3.103,7.966 L3.103,8.44 L4.778,8.44 L4.792,7.98 Z M4.777,9.33 L3.102,9.33 L3.102,9.967 L4.777,9.967 L4.777,9.33 Z M9.549,11.642 C9.609,11.592 9.707,11.492 9.845,11.338 C9.984,11.185 10.113,11.029 10.231,10.871 C10.102,10.466 9.994,10.021 9.905,9.537 C9.816,9.053 9.74,8.552 9.676,8.033 C9.612,7.513 9.557,6.99 9.513,6.462 C9.468,5.934 9.426,5.422 9.387,4.928 L5.905,4.928 L5.905,5.596 L9.224,5.596 L9.239,6.559 L5.905,6.559 L5.905,7.063 L8.661,7.047 L8.661,10.886 L5.905,10.886 L5.905,11.449 L9.536,11.449 L9.549,11.642 Z M7.593,7.967 L5.904,7.967 L5.904,8.441 L7.593,8.441 L7.593,7.967 Z M7.593,9.314 L5.904,9.33 L5.904,9.967 L7.593,9.967 L7.593,9.314 Z M12.559,3.846 C12.291,3.442 11.983,3.09 11.631,2.794 C11.281,2.498 10.873,2.251 10.409,2.053 C10.429,2.399 10.441,2.723 10.446,3.024 C10.451,3.326 10.464,3.6 10.483,3.846 L12.559,3.846 Z" id="path-27"></path>
    </defs>
    <g id="Page-1" stroke="none" stroke-width="1" fill="none" fill-rule="evenodd">
        <g id="Download_on_the_App_Store_Badge_zh_TW_135x40">
            <g id="Group-3">
                <mask id="mask-2" fill="white">
                    <use xlink:href="#path-1"></use>
                </mask>
                <g id="Clip-2"></g>
                <polygon id="Fill-1" fill="#A6A6A6" mask="url(#mask-2)" points="-5 45 140 45 140 -5 -5 -5"></polygon>
            </g>
            <g id="Group-6">
                <mask id="mask-4" fill="white">
                    <use xlink:href="#path-3"></use>
                </mask>
                <g id="Clip-5"></g>
                <polygon id="Fill-4" fill="#000000" mask="url(#mask-4)" points="-4.11 44.098 139.032 44.098 139.032 -4.11 -4.11 -4.11"></polygon>
            </g>
            <g id="Group-9" transform="translate(12.000000, 12.000000)">
                <mask id="mask-6" fill="white">
                    <use xlink:href="#path-5"></use>
                </mask>
                <g id="Clip-8"></g>
                <polygon id="Fill-7" fill="#FFFFFF" mask="url(#mask-6)" points="-4.208096 24.728565 26.548004 24.728565 26.548004 -4.629105 -4.208096 -4.629105"></polygon>
            </g>
            <g id="Group-12" transform="translate(23.000000, 6.000000)">
                <mask id="mask-8" fill="white">
                    <use xlink:href="#path-7"></use>
                </mask>
                <g id="Clip-11"></g>
                <polygon id="Fill-10" fill="#FFFFFF" mask="url(#mask-8)" points="-4.89359 11.1082 10.26172 11.1082 10.26172 -4.783 -4.89359 -4.783"></polygon>
            </g>
            <g id="Group-15" transform="translate(44.000000, 5.000000)">
                <mask id="mask-10" fill="white">
                    <use xlink:href="#path-9"></use>
                </mask>
                <g id="Clip-14"></g>
                <polygon id="Fill-13" fill="#FFFFFF" mask="url(#mask-10)" points="-4.923 17.03 15.006 17.03 15.006 -4.731 -4.923 -4.731"></polygon>
            </g>
            <g id="Group-18" transform="translate(55.000000, 8.000000)">
                <mask id="mask-12" fill="white">
                    <use xlink:href="#path-11"></use>
                </mask>
                <g id="Clip-17"></g>
                <polygon id="Fill-16" fill="#FFFFFF" mask="url(#mask-12)" points="-4.424 17.485 13.742 17.485 13.742 -4.626 -4.424 -4.626"></polygon>
            </g>
            <g id="Group-21" transform="translate(65.000000, 8.000000)">
                <mask id="mask-14" fill="white">
                    <use xlink:href="#path-13"></use>
                </mask>
                <g id="Clip-20"></g>
                <polygon id="Fill-19" fill="#FFFFFF" mask="url(#mask-14)" points="-4.669 17.485 13.497 17.485 13.497 -4.626 -4.669 -4.626"></polygon>
            </g>
            <g id="Group-24" transform="translate(79.000000, 5.000000)">
                <mask id="mask-16" fill="white">
                    <use xlink:href="#path-15"></use>
                </mask>
                <g id="Clip-23"></g>
                <polygon id="Fill-22" fill="#FFFFFF" mask="url(#mask-16)" points="-4.537 17.204 12.759 17.204 12.759 -4.907 -4.537 -4.907"></polygon>
            </g>
            <g id="Group-27" transform="translate(87.000000, 6.000000)">
                <mask id="mask-18" fill="white">
                    <use xlink:href="#path-17"></use>
                </mask>
                <g id="Clip-26"></g>
                <polygon id="Fill-25" fill="#FFFFFF" mask="url(#mask-18)" points="-4.176 16.205 10.989 16.205 10.989 -4.561 -4.176 -4.561"></polygon>
            </g>
            <g id="Group-30" transform="translate(94.000000, 8.000000)">
                <mask id="mask-20" fill="white">
                    <use xlink:href="#path-19"></use>
                </mask>
                <g id="Clip-29"></g>
                <polygon id="Fill-28" fill="#FFFFFF" mask="url(#mask-20)" points="-4.948 14.222 13.358 14.222 13.358 -4.626 -4.948 -4.626"></polygon>
            </g>
            <g id="Group-33" transform="translate(103.000000, 8.000000)">
                <mask id="mask-22" fill="white">
                    <use xlink:href="#path-21"></use>
                </mask>
                <g id="Clip-32"></g>
                <polygon id="Fill-31" fill="#FFFFFF" mask="url(#mask-22)" points="-4.055 14.031 10.482 14.031 10.482 -4.624 -4.055 -4.624"></polygon>
            </g>
            <g id="Group-36" transform="translate(109.000000, 8.000000)">
                <mask id="mask-24" fill="white">
                    <use xlink:href="#path-23"></use>
                </mask>
                <g id="Clip-35"></g>
                <polygon id="Fill-34" fill="#FFFFFF" mask="url(#mask-24)" points="-4.628 14.187 12.91 14.187 12.91 -4.643 -4.628 -4.643"></polygon>
            </g>
            <g id="Group-39" transform="translate(44.000000, 23.000000)">
                <mask id="mask-26" fill="white">
                    <use xlink:href="#path-25"></use>
                </mask>
                <g id="Clip-38"></g>
                <polygon id="Fill-37" fill="#FFFFFF" mask="url(#mask-26)" points="-4.836 17.291 17.509 17.291 17.509 -4.891 -4.836 -4.891"></polygon>
            </g>
            <g id="Group-42" transform="translate(58.000000, 21.000000)">
                <mask id="mask-28" fill="white">
                    <use xlink:href="#path-27"></use>
                </mask>
                <g id="Clip-41"></g>
                <polygon id="Fill-40" fill="#FFFFFF" mask="url(#mask-28)" points="-4.121 19.25 19.115 19.25 19.115 -4.073 -4.121 -4.073"></polygon>
            </g>
        </g>
    </g>
</svg>